<svg xmlns="http://www.w3.org/2000/svg" xmlns:xlink="http://www.w3.org/1999/xlink" viewBox="0 0 197.83 412.78"><defs><style>.cls-1{isolation:isolate;}.cls-12,.cls-2,.cls-3,.cls-4{fill:#42e8e0;}.cls-2,.cls-8{opacity:0.5;}.cls-4{opacity:0.4;}.cls-5{fill:#5351af;}.cls-6{fill:url(#Áåçûìÿííûé_ãðàäèåíò_15);}.cls-7{fill:#0f054c;opacity:0.3;}.cls-8{mix-blend-mode:lighten;fill:url(#Áåçûìÿííûé_ãðàäèåíò_28);}.cls-9{fill:url(#Áåçûìÿííûé_ãðàäèåíò_3);}.cls-10{fill:#fff;}.cls-11{fill:url(#Áåçûìÿííûé_ãðàäèåíò_3-2);}.cls-12{opacity:0.8;}</style><linearGradient id="Áåçûìÿííûé_ãðàäèåíò_15" x1="0.78" y1="266.78" x2="196.53" y2="266.78" gradientUnits="userSpaceOnUse"><stop offset="0" stop-color="#bcbeff"/><stop offset="0.15" stop-color="#a3a7f5"/><stop offset="0.39" stop-color="#8289e8"/><stop offset="0.61" stop-color="#6a73df"/><stop offset="0.82" stop-color="#5c66d9"/><stop offset="1" stop-color="#5761d7"/></linearGradient><radialGradient id="Áåçûìÿííûé_ãðàäèåíò_28" cx="191.59" cy="296.66" r="113.75" gradientUnits="userSpaceOnUse"><stop offset="0" stop-color="#42e8e0"/><stop offset="0.03" stop-color="#3fdcd8"/><stop offset="0.24" stop-color="#319cae"/><stop offset="0.43" stop-color="#25668b"/><stop offset="0.61" stop-color="#1b3c70"/><stop offset="0.77" stop-color="#151e5c"/><stop offset="0.9" stop-color="#100c50"/><stop offset="1" stop-color="#0f054c"/></radialGradient><linearGradient id="Áåçûìÿííûé_ãðàäèåíò_3" x1="0.78" y1="237.09" x2="196.53" y2="237.09" gradientUnits="userSpaceOnUse"><stop offset="0" stop-color="#c0bff6"/><stop offset="0.29" stop-color="#c5c4f7"/><stop offset="0.64" stop-color="#d3d2f9"/><stop offset="1" stop-color="#e9e9fd"/></linearGradient><linearGradient id="Áåçûìÿííûé_ãðàäèåíò_3-2" x1="7.9" y1="234.31" x2="190.11" y2="234.31" xlink:href="#Áåçûìÿííûé_ãðàäèåíò_3"/></defs><title>hologram</title><g class="cls-1"><g id="Layer_2" data-name="Layer 2"><g id="Layer_1-2" data-name="Layer 1"><path class="cls-2" d="M98.66,412.78c-25.21,0-50.4-5.54-69.59-16.61C10.32,385.35,0,370.91,0,355.51s10.32-29.83,29.07-40.65c38.37-22.15,100.8-22.15,139.18,0,18.74,10.82,29.06,25.26,29.06,40.66S187,385.35,168.25,396.17h0C149.06,407.24,123.86,412.78,98.66,412.78Zm0-112.91c-24.91,0-49.81,5.47-68.77,16.42C11.68,326.8,1.65,340.73,1.65,355.51s10,28.72,28.24,39.23c37.92,21.89,99.62,21.89,137.53,0l.42.72-.42-.72c18.22-10.51,28.25-24.44,28.25-39.22s-10-28.72-28.25-39.23C148.46,305.34,123.56,299.87,98.66,299.87Z"/><path class="cls-3" d="M98.66,370.85c-25.2,0-50.41-5.54-69.59-16.62C10.32,343.41,0,329,0,313.58s10.32-29.83,29.07-40.65c38.37-22.16,100.8-22.16,139.18,0,18.74,10.82,29.06,25.26,29.06,40.65S187,343.41,168.25,354.23l-.41-.71.41.71C149.06,365.31,123.86,370.85,98.66,370.85Zm0-112.92c-24.91,0-49.81,5.48-68.77,16.42C11.68,284.87,1.65,298.8,1.65,313.58s10,28.71,28.24,39.23c37.92,21.89,99.62,21.89,137.53,0h0c18.22-10.52,28.25-24.45,28.25-39.23s-10-28.71-28.25-39.23C148.46,263.41,123.56,257.93,98.66,257.93Z"/><path class="cls-4" d="M182,251.91a76.6,76.6,0,0,0-14.16-10.33A116.93,116.93,0,0,0,139,230c20.13,12.77,19.52,32.55-1.85,44.89-22,12.7-57.67,12.7-79.68,0C36.79,263,35.5,244.14,53.58,231.37a113.16,113.16,0,0,0-24.13,10.21,76.6,76.6,0,0,0-14.16,10.33H.78v29.62h0c0,14.46,9.56,28.92,28.67,40,38.22,22.07,100.19,22.07,138.41,0,19.11-11,28.67-25.49,28.67-40V251.91Z"/><path class="cls-5" d="M59.56,243.85c21.59-12.46,56.6-12.46,78.2,0a42.51,42.51,0,0,1,8.79,6.62c12.22-12.21,9.3-28.09-8.79-38.54-21.6-12.47-56.61-12.47-78.2,0-18.1,10.44-21,26.32-8.79,38.53A42.22,42.22,0,0,1,59.56,243.85Z"/><path class="cls-6" d="M182,234.65a76.6,76.6,0,0,0-14.16-10.33A117.32,117.32,0,0,0,139,212.77c20.13,12.77,19.52,32.55-1.85,44.89-22,12.7-57.67,12.7-79.68,0-20.63-11.92-21.92-30.78-3.84-43.55a113.16,113.16,0,0,0-24.13,10.21,76.6,76.6,0,0,0-14.16,10.33H.78v29.62h0c0,14.47,9.56,28.93,28.67,40,38.22,22.07,100.19,22.07,138.41,0,19.11-11,28.67-25.49,28.67-40V234.65Z"/><path class="cls-7" d="M167.86,224.32A117.32,117.32,0,0,0,139,212.77c20.13,12.77,19.52,32.55-1.85,44.89-10.64,6.14-24.49,9.31-38.44,9.51v53.61c25,0,50.09-5.52,69.2-16.55s28.67-25.49,28.67-40V234.65H182A76.6,76.6,0,0,0,167.86,224.32Z"/><path class="cls-8" d="M167.86,224.32A117.32,117.32,0,0,0,139,212.77c20.13,12.77,19.52,32.55-1.85,44.89-10.64,6.14-24.49,9.31-38.44,9.51v53.61c25,0,50.09-5.52,69.2-16.55s28.67-25.49,28.67-40V234.65H182A76.6,76.6,0,0,0,167.86,224.32Z"/><path class="cls-9" d="M167.86,197.14c-38.22-22.07-100.19-22.07-138.41,0s-38.22,57.84,0,79.91,100.19,22.07,138.41,0S206.08,219.21,167.86,197.14Zm-30.06,63c-22,12.7-57.68,12.7-79.68,0s-22-33.31,0-46,57.68-12.7,79.68,0S159.8,247.39,137.8,260.1Z"/><path class="cls-10" d="M167.86,274c-38.22,22.07-100.19,22.07-138.41,0C11,263.35,1.47,249.52.82,235.57c-.69,15,8.85,30.06,28.63,41.48,38.22,22.07,100.19,22.07,138.41,0,19.79-11.42,29.33-26.51,28.63-41.48C195.84,249.52,186.3,263.36,167.86,274Z"/><path class="cls-10" d="M137.8,211c-22-12.7-57.68-12.7-79.68,0-11.68,6.74-17.15,15.7-16.44,24.53.63-7.81,6.11-15.52,16.44-21.48,22-12.7,57.68-12.7,79.68,0,10.33,6,15.81,13.67,16.44,21.48C155,226.74,149.47,217.78,137.8,211Z"/><path class="cls-11" d="M163.43,197.11c-35.58-20.54-93.27-20.54-128.85,0S-1,251,34.58,271.5s93.27,20.54,128.85,0S199,217.65,163.43,197.11Zm-26,59.41c-21.25,12.27-55.7,12.27-76.95,0s-21.26-32.16,0-44.43,55.7-12.27,76.95,0S158.74,244.25,137.48,256.52Z"/><ellipse class="cls-4" cx="99.01" cy="234.31" rx="54.42" ry="31.42"/><path class="cls-12" d="M197.83,1a1,1,0,1,1-1-1A1,1,0,0,1,197.83,1Z"/></g></g></g></svg>