<svg xmlns="http://www.w3.org/2000/svg" xmlns:xlink="http://www.w3.org/1999/xlink" viewBox="0 0 241.87 174.38"><defs><style>.cls-1{opacity:0.11;}.cls-2{fill:url(#Áåçûìÿííûé_ãðàäèåíò_143);}.cls-3{fill:url(#Áåçûìÿííûé_ãðàäèåíò_143-2);}.cls-4{fill:url(#Áåçûìÿííûé_ãðàäèåíò_143-4);}.cls-5{opacity:0.5;fill:url(#Áåçûìÿííûé_ãðàäèåíò_143-5);}.cls-6,.cls-7{fill:#42e8e0;}.cls-6{opacity:0.2;}</style><linearGradient id="Áåçûìÿííûé_ãðàäèåíò_143" x1="-134.81" y1="87.16" x2="107.07" y2="87.16" gradientTransform="matrix(-1, 0, 0, 1, 107.07, 0)" gradientUnits="userSpaceOnUse"><stop offset="0" stop-color="#5761d7"/><stop offset="0.07" stop-color="#5472d8"/><stop offset="0.28" stop-color="#4e9cdb"/><stop offset="0.48" stop-color="#49bddd"/><stop offset="0.67" stop-color="#45d5df"/><stop offset="0.85" stop-color="#43e3e0"/><stop offset="1" stop-color="#42e8e0"/></linearGradient><linearGradient id="Áåçûìÿííûé_ãðàäèåíò_143-2" x1="-134.81" y1="68.55" x2="107.07" y2="68.55" xlink:href="#Áåçûìÿííûé_ãðàäèåíò_143"/><linearGradient id="Áåçûìÿííûé_ãðàäèåíò_143-4" x1="-134.8" y1="102.09" x2="107.06" y2="102.09" xlink:href="#Áåçûìÿííûé_ãðàäèåíò_143"/><linearGradient id="Áåçûìÿííûé_ãðàäèåíò_143-5" x1="-134.81" y1="87.19" x2="107.07" y2="87.19" xlink:href="#Áåçûìÿííûé_ãðàäèåíò_143"/></defs><title>portal</title><g id="Layer_2" data-name="Layer 2"><g id="Ñëîé_1" data-name="Ñëîé 1"><g class="cls-1"><path class="cls-2" d="M111.59,21.09a18.55,18.55,0,0,1,18.53,0L240.57,84.7a2.61,2.61,0,0,1,0,4.52L129.2,153.52a16.37,16.37,0,0,1-16.36,0L1.3,89.28a2.62,2.62,0,0,1,0-4.52Z"/></g><g class="cls-1"><path class="cls-3" d="M111.59,2.48a18.53,18.53,0,0,1,18.53,0L240.57,66.1a2.6,2.6,0,0,1,0,4.51L129.2,134.91a16.37,16.37,0,0,1-16.36,0L1.3,70.67a2.61,2.61,0,0,1,0-4.51Z"/></g><g class="cls-1"><path class="cls-3" d="M111.59,2.48a18.53,18.53,0,0,1,18.53,0L240.57,66.1a2.6,2.6,0,0,1,0,4.51L129.2,134.91a16.37,16.37,0,0,1-16.36,0L1.3,70.67a2.61,2.61,0,0,1,0-4.51Z"/></g><path class="cls-4" d="M1.3,68.1l111.54,64.24a16.37,16.37,0,0,0,16.36,0L240.57,68a2.51,2.51,0,0,0,1-1,2.61,2.61,0,0,1-1,3.54L129.2,134.91a16.37,16.37,0,0,1-16.36,0L1.3,70.67a2.59,2.59,0,0,1-1-3.54A2.48,2.48,0,0,0,1.3,68.1Z"/><path class="cls-5" d="M1.3,66.16,111.59,2.48a18.53,18.53,0,0,1,18.53,0L240.57,66.1a2.58,2.58,0,0,1,1.3,2.26v37.27a2.58,2.58,0,0,1-1.3,2.26L129.2,172.19a16.37,16.37,0,0,1-16.36,0L1.3,108A2.58,2.58,0,0,1,0,105.69V68.42H0A2.58,2.58,0,0,1,1.3,66.16Z"/><ellipse class="cls-6" cx="120.94" cy="67.28" rx="70.29" ry="40.58"/><ellipse class="cls-7" cx="120.94" cy="67.28" rx="39.88" ry="23.02"/></g></g></svg>