<?xml version="1.0" encoding="utf-8"?>
<!-- Generator: Adobe Illustrator 24.0.0, SVG Export Plug-In . SVG Version: 6.00 Build 0)  -->
<svg version="1.1" id="Layer_1" xmlns="http://www.w3.org/2000/svg" xmlns:xlink="http://www.w3.org/1999/xlink" x="0px" y="0px"
	 viewBox="0 0 130.5 311.9" style="enable-background:new 0 0 130.5 311.9;" xml:space="preserve">
<style type="text/css">
	.st0{fill:url(#SVGID_1_);}
	.st1{fill:url(#SVGID_2_);}
	.st2{fill:url(#SVGID_3_);}
	.st3{fill:url(#SVGID_4_);}
	.st4{fill:url(#SVGID_5_);}
	.st5{fill:url(#SVGID_6_);}
	.st6{fill:url(#SVGID_7_);fill-opacity:0;}
	.st7{opacity:5.000000e-02;fill:url(#SVGID_8_);enable-background:new    ;}
	.st8{opacity:9.000000e-02;fill:url(#SVGID_9_);enable-background:new    ;}
	.st9{opacity:0.14;fill:url(#SVGID_10_);enable-background:new    ;}
	.st10{opacity:0.18;fill:url(#SVGID_11_);enable-background:new    ;}
	.st11{opacity:0.23;fill:url(#SVGID_12_);enable-background:new    ;}
	.st12{opacity:0.27;fill:url(#SVGID_13_);enable-background:new    ;}
	.st13{opacity:0.32;fill:url(#SVGID_14_);enable-background:new    ;}
	.st14{opacity:0.36;fill:url(#SVGID_15_);enable-background:new    ;}
	.st15{opacity:0.41;fill:url(#SVGID_16_);enable-background:new    ;}
	.st16{opacity:0.45;fill:url(#SVGID_17_);enable-background:new    ;}
	.st17{opacity:0.5;fill:url(#SVGID_18_);enable-background:new    ;}
	.st18{fill:url(#SVGID_19_);}
	.st19{fill:url(#SVGID_20_);}
	.st20{fill:#2AF6FF;}
	.st21{fill:url(#SVGID_21_);}
	.st22{fill:url(#SVGID_22_);}
	.st23{fill:url(#SVGID_23_);}
	.st24{fill:url(#SVGID_24_);}
	.st25{fill:url(#SVGID_25_);}
	.st26{fill:url(#SVGID_26_);}
	.st27{fill:url(#SVGID_27_);}
</style>
<title>tobor_placehold</title>
<g>
	<g id="Layer_2_1_">
		<g id="Layer_1-2">
			
				<linearGradient id="SVGID_1_" gradientUnits="userSpaceOnUse" x1="-1886.3051" y1="10.59" x2="-1886.3051" y2="68.78" gradientTransform="matrix(-1 0 0 -1 -1820.1899 314)">
				<stop  offset="0" style="stop-color:#FFFB03"/>
				<stop  offset="1" style="stop-color:#FF7006"/>
			</linearGradient>
			<path class="st0" d="M54.2,257.6c0-11.7,5.3-21.2,12-21.2s11.9,9.5,11.9,21.2s-11.9,54.3-11.9,54.3S54.2,269.3,54.2,257.6z"/>
			
				<linearGradient id="SVGID_2_" gradientUnits="userSpaceOnUse" x1="7226.8799" y1="72.34" x2="7251.1899" y2="72.34" gradientTransform="matrix(1 0 0 -1 -7173.4902 314)">
				<stop  offset="2.000000e-02" style="stop-color:#45108A"/>
				<stop  offset="0.29" style="stop-color:#3D065F"/>
				<stop  offset="1" style="stop-color:#12054E"/>
				<stop  offset="1" style="stop-color:#10054D"/>
			</linearGradient>
			<path class="st1" d="M78,236.3H53.3v3.5l0,0v0.1c0,4,5.5,7.2,12.4,7.2s12.4-3.2,12.4-7.2c0,0,0-0.1,0-0.1l0,0V236.3z"/>
			
				<linearGradient id="SVGID_3_" gradientUnits="userSpaceOnUse" x1="7168.458" y1="151.5734" x2="7212.8882" y2="146.1134" gradientTransform="matrix(1 0 0 -1 -7173.4902 314)">
				<stop  offset="0" style="stop-color:#C0BFF6"/>
				<stop  offset="1" style="stop-color:#393091"/>
			</linearGradient>
			<path class="st2" d="M33.6,154.6c-2,8.8-12,38.7-18.7,37.2S6.8,158,9.2,149.1c2.1-7.6,8.1-11.5,14.9-10S35.3,146.9,33.6,154.6z"
				/>
			
				<linearGradient id="SVGID_4_" gradientUnits="userSpaceOnUse" x1="7229.3359" y1="83.3404" x2="7248.8921" y2="72.0427" gradientTransform="matrix(1 0 0 -1 -7173.4902 314)">
				<stop  offset="2.000000e-02" style="stop-color:#45108A"/>
				<stop  offset="0.29" style="stop-color:#3D065F"/>
				<stop  offset="1" style="stop-color:#12054E"/>
				<stop  offset="1" style="stop-color:#10054D"/>
			</linearGradient>
			<path class="st3" d="M78,236.3c0,4-5.5,7.2-12.4,7.2s-12.3-3.2-12.3-7.2s5.5-7.2,12.3-7.2S78,232.3,78,236.3z"/>
			
				<linearGradient id="SVGID_5_" gradientUnits="userSpaceOnUse" x1="7182.0688" y1="129.6753" x2="7295.8291" y2="146.8953" gradientTransform="matrix(1 0 0 -1 -7173.4902 314)">
				<stop  offset="1.000000e-02" style="stop-color:#C1A1D5"/>
				<stop  offset="4.000000e-02" style="stop-color:#C8ABDA"/>
				<stop  offset="0.1" style="stop-color:#DAC6E6"/>
				<stop  offset="0.18" style="stop-color:#F7F2F9"/>
				<stop  offset="0.2" style="stop-color:#FFFFFF"/>
				<stop  offset="0.23" style="stop-color:#F9F5FB"/>
				<stop  offset="0.29" style="stop-color:#E9DBF2"/>
				<stop  offset="0.36" style="stop-color:#D1B4E3"/>
				<stop  offset="0.43" style="stop-color:#B395D6"/>
				<stop  offset="0.49" style="stop-color:#9C7DCB"/>
				<stop  offset="0.56" style="stop-color:#8E6EC5"/>
				<stop  offset="0.61" style="stop-color:#8969C3"/>
				<stop  offset="0.76" style="stop-color:#9471C6"/>
				<stop  offset="1" style="stop-color:#B086CC"/>
			</linearGradient>
			<path class="st4" d="M120.6,146.1c0,30.4-24.7,94.1-55.1,94.1s-55.1-63.7-55.1-94.1c0-26.8,24.6-33.2,55.1-33.2
				S120.6,119.3,120.6,146.1z"/>
			
				<radialGradient id="SVGID_6_" cx="7233.75" cy="141.63" r="72.29" gradientTransform="matrix(1 0 0 -1 -7173.4902 314)" gradientUnits="userSpaceOnUse">
				<stop  offset="0" style="stop-color:#C0BFF6"/>
				<stop  offset="1" style="stop-color:#393091"/>
			</radialGradient>
			<path class="st5" d="M120.6,146.1c0,30.4-24.7,94.1-55.1,94.1s-55.1-63.7-55.1-94.1c0-26.8,24.6-33.2,55.1-33.2
				S120.6,119.3,120.6,146.1z"/>
			
				<linearGradient id="SVGID_7_" gradientUnits="userSpaceOnUse" x1="7208.2031" y1="202.1012" x2="7282.3813" y2="159.2722" gradientTransform="matrix(1 0 0 -1 -7173.4902 314)">
				<stop  offset="0.19" style="stop-color:#3D065F"/>
				<stop  offset="0.93" style="stop-color:#3D065F"/>
			</linearGradient>
			<path class="st6" d="M118.7,133.3c0,15.1-21,27.3-46.9,27.3s-46.9-12.2-46.9-27.3s21-27.3,46.9-27.3S118.7,118.3,118.7,133.3z"/>
			
				<linearGradient id="SVGID_8_" gradientUnits="userSpaceOnUse" x1="7209.0156" y1="201.4715" x2="7281.3135" y2="159.7254" gradientTransform="matrix(1 0 0 -1 -7173.4902 314)">
				<stop  offset="0.19" style="stop-color:#3D065F"/>
				<stop  offset="0.93" style="stop-color:#3D065F"/>
			</linearGradient>
			<path class="st7" d="M117.3,133.4c0,14.7-20.4,26.6-45.7,26.6S26,148.1,26,133.4s20.4-26.6,45.7-26.6S117.3,118.7,117.3,133.4z"
				/>
			
				<linearGradient id="SVGID_9_" gradientUnits="userSpaceOnUse" x1="7209.8643" y1="200.8385" x2="7280.2217" y2="160.2098" gradientTransform="matrix(1 0 0 -1 -7173.4902 314)">
				<stop  offset="0.19" style="stop-color:#3D065F"/>
				<stop  offset="0.93" style="stop-color:#3D065F"/>
			</linearGradient>
			<path class="st8" d="M116,133.5c0,14.3-19.9,25.9-44.4,25.9s-44.5-11.6-44.5-25.9s19.9-25.9,44.5-25.9S116,119.2,116,133.5z"/>
			
				<linearGradient id="SVGID_10_" gradientUnits="userSpaceOnUse" x1="7210.7505" y1="200.2029" x2="7279.1987" y2="160.6741" gradientTransform="matrix(1 0 0 -1 -7173.4902 314)">
				<stop  offset="0.19" style="stop-color:#3D065F"/>
				<stop  offset="0.93" style="stop-color:#3D065F"/>
			</linearGradient>
			<path class="st9" d="M114.7,133.6c0,13.9-19.4,25.2-43.2,25.2s-43.3-11.3-43.3-25.2s19.4-25.2,43.3-25.2S114.7,119.7,114.7,133.6
				z"/>
			
				<linearGradient id="SVGID_11_" gradientUnits="userSpaceOnUse" x1="7211.6763" y1="199.5523" x2="7278.1558" y2="161.1672" gradientTransform="matrix(1 0 0 -1 -7173.4902 314)">
				<stop  offset="0.19" style="stop-color:#3D065F"/>
				<stop  offset="0.93" style="stop-color:#3D065F"/>
			</linearGradient>
			<path class="st10" d="M113.4,133.6c0,13.5-18.8,24.5-42,24.5s-42-11-42-24.5s18.8-24.5,42-24.5S113.4,120.1,113.4,133.6z"/>
			
				<linearGradient id="SVGID_12_" gradientUnits="userSpaceOnUse" x1="7212.4448" y1="198.9215" x2="7277.0825" y2="161.6068" gradientTransform="matrix(1 0 0 -1 -7173.4902 314)">
				<stop  offset="0.19" style="stop-color:#3D065F"/>
				<stop  offset="0.93" style="stop-color:#3D065F"/>
			</linearGradient>
			<path class="st11" d="M112.1,133.7c0,13.1-18.3,23.8-40.8,23.8s-40.8-10.6-40.8-23.8S48.7,110,71.3,110S112.1,120.6,112.1,133.7z
				"/>
			
				<linearGradient id="SVGID_13_" gradientUnits="userSpaceOnUse" x1="7213.3018" y1="198.2959" x2="7276.0298" y2="162.0872" gradientTransform="matrix(1 0 0 -1 -7173.4902 314)">
				<stop  offset="0.19" style="stop-color:#3D065F"/>
				<stop  offset="0.93" style="stop-color:#3D065F"/>
			</linearGradient>
			<path class="st12" d="M110.8,133.8c0,12.7-17.7,23.1-39.6,23.1s-39.6-10.3-39.6-23.1s17.7-23.1,39.6-23.1
				S110.8,121.1,110.8,133.8z"/>
			
				<linearGradient id="SVGID_14_" gradientUnits="userSpaceOnUse" x1="7214.1479" y1="197.6669" x2="7274.9692" y2="162.5563" gradientTransform="matrix(1 0 0 -1 -7173.4902 314)">
				<stop  offset="0.19" style="stop-color:#3D065F"/>
				<stop  offset="0.93" style="stop-color:#3D065F"/>
			</linearGradient>
			<path class="st13" d="M109.5,133.9c0,12.4-17.2,22.4-38.4,22.4s-38.4-10-38.4-22.4s17.2-22.4,38.4-22.4S109.5,121.5,109.5,133.9z
				"/>
			
				<linearGradient id="SVGID_15_" gradientUnits="userSpaceOnUse" x1="7215.0156" y1="197.0249" x2="7273.9282" y2="163.0136" gradientTransform="matrix(1 0 0 -1 -7173.4902 314)">
				<stop  offset="0.19" style="stop-color:#3D065F"/>
				<stop  offset="0.93" style="stop-color:#3D065F"/>
			</linearGradient>
			<path class="st14" d="M108.2,134c0,12-16.7,21.7-37.2,21.7s-37.2-9.7-37.2-21.7s16.7-21.7,37.3-21.7S108.2,122,108.2,134z"/>
			
				<linearGradient id="SVGID_16_" gradientUnits="userSpaceOnUse" x1="7215.8584" y1="196.4004" x2="7272.8521" y2="163.4941" gradientTransform="matrix(1 0 0 -1 -7173.4902 314)">
				<stop  offset="0.19" style="stop-color:#3D065F"/>
				<stop  offset="0.93" style="stop-color:#3D065F"/>
			</linearGradient>
			<path class="st15" d="M106.9,134.1c0,11.6-16.1,21-36,21s-36-9.4-36-21s16.1-21,36-21S106.9,122.5,106.9,134.1z"/>
			
				<linearGradient id="SVGID_17_" gradientUnits="userSpaceOnUse" x1="7216.7441" y1="195.7659" x2="7271.7974" y2="163.9772" gradientTransform="matrix(1 0 0 -1 -7173.4902 314)">
				<stop  offset="0.19" style="stop-color:#3D065F"/>
				<stop  offset="0.93" style="stop-color:#3D065F"/>
			</linearGradient>
			<path class="st16" d="M105.6,134.1c0,11.2-15.6,20.3-34.8,20.3S36,145.3,36,134.1s15.6-20.3,34.8-20.3S105.6,122.9,105.6,134.1z"
				/>
			
				<linearGradient id="SVGID_18_" gradientUnits="userSpaceOnUse" x1="7217.5469" y1="195.1485" x2="7270.7373" y2="164.4383" gradientTransform="matrix(1 0 0 -1 -7173.4902 314)">
				<stop  offset="0.19" style="stop-color:#3D065F"/>
				<stop  offset="0.93" style="stop-color:#3D065F"/>
			</linearGradient>
			<path class="st17" d="M104.3,134.2c0,10.8-15,19.6-33.6,19.6s-33.6-8.8-33.6-19.6s15-19.6,33.6-19.6S104.3,123.4,104.3,134.2z"/>
			
				<radialGradient id="SVGID_19_" cx="7222.5898" cy="242.23" r="91.35" gradientTransform="matrix(1 0 0 -1 -7173.4902 314)" gradientUnits="userSpaceOnUse">
				<stop  offset="0" style="stop-color:#C0BFF6"/>
				<stop  offset="1" style="stop-color:#393091"/>
			</radialGradient>
			<path class="st18" d="M130.5,90c0,35.7-29,64.6-64.7,64.6S1.2,125.7,1.2,90c0-35.7,28.9-64.6,64.6-64.6
				C101.5,25.3,130.5,54.3,130.5,90C130.5,90,130.5,90,130.5,90z"/>
			
				<linearGradient id="SVGID_20_" gradientUnits="userSpaceOnUse" x1="7176.1104" y1="221.6727" x2="7244.27" y2="221.6727" gradientTransform="matrix(1 0 0 -1 -7173.4902 314)">
				<stop  offset="2.000000e-02" style="stop-color:#45108A"/>
				<stop  offset="0.29" style="stop-color:#3D065F"/>
				<stop  offset="1" style="stop-color:#12054E"/>
				<stop  offset="1" style="stop-color:#10054D"/>
			</linearGradient>
			<path class="st19" d="M6.4,95.7L6.4,95.7C20,112.1,39,123,60,126.4l0,0c5.1,0.8,9.8-2.6,10.7-7.7c0.1-0.5,0.1-1,0.1-1.5v-16.9
				c0-7.5-4.9-14.2-12.1-16.3l0,0c-15.2-4.6-29-12.9-40.1-24.3l0,0c-2.1-2.2-5.7-2.3-7.9-0.1c-0.4,0.4-0.7,0.8-1,1.3
				c-3.7,7-6,14.5-6.9,22.3C2.2,87.8,3.6,92.3,6.4,95.7z"/>
			<path class="st20" d="M23.2,87.8c0,3.1-2.2,4.3-4.8,2.8c-2.8-1.8-4.6-4.9-4.8-8.3c0-3,2.2-4.3,4.8-2.8
				C21.2,81.4,23,84.5,23.2,87.8z"/>
			<path class="st20" d="M50.9,103.9c0,3-2.2,4.3-4.8,2.8c-2.8-1.8-4.6-4.9-4.8-8.3c0-3.1,2.2-4.3,4.8-2.8
				C48.9,97.4,50.7,100.5,50.9,103.9z"/>
			
				<radialGradient id="SVGID_21_" cx="7272.54" cy="140.3" r="22.09" gradientTransform="matrix(1 0 0 -1 -7173.4902 314)" gradientUnits="userSpaceOnUse">
				<stop  offset="4.000000e-02" style="stop-color:#6115A3"/>
				<stop  offset="0.1" style="stop-color:#5A139A"/>
				<stop  offset="0.52" style="stop-color:#2B0658"/>
				<stop  offset="1" style="stop-color:#12054E"/>
				<stop  offset="1" style="stop-color:#10054D"/>
			</radialGradient>
			<path class="st21" d="M119,180.8c0,8.3-6.7,15-15,15s-15-6.7-15-15s6.7-15,15-15S119,172.6,119,180.8L119,180.8z"/>
			
				<linearGradient id="SVGID_22_" gradientUnits="userSpaceOnUse" x1="7263.2563" y1="117.3801" x2="7291.2017" y2="117.3801" gradientTransform="matrix(1 0 0 -1 -7173.4902 314)">
				<stop  offset="0" style="stop-color:#C0BFF6"/>
				<stop  offset="1" style="stop-color:#393091"/>
			</linearGradient>
			<path class="st22" d="M117.4,187.5c-1.9,11.3-17.8,36.2-24.5,34.7s-0.7-32.1,1.2-40.9c1.7-7.7,8.1-11.5,14.8-10
				S118.7,179.7,117.4,187.5z"/>
			
				<linearGradient id="SVGID_23_" gradientUnits="userSpaceOnUse" x1="7219.9399" y1="272.415" x2="7258.0098" y2="272.415" gradientTransform="matrix(1 0 0 -1 -7173.4902 314)">
				<stop  offset="0" style="stop-color:#C0BFF6"/>
				<stop  offset="1" style="stop-color:#393091"/>
			</linearGradient>
			<path class="st23" d="M85,34.5H46.3v2.8l0,0c0,0.1,0,0.1,0,0.2c0,6.2,8.7,11.3,19.4,11.3S85,43.7,85,37.4c0,0,0-0.1,0-0.2l0,0
				V34.5z"/>
			
				<linearGradient id="SVGID_24_" gradientUnits="userSpaceOnUse" x1="7223.8286" y1="288.2919" x2="7254.4512" y2="270.6045" gradientTransform="matrix(1 0 0 -1 -7173.4902 314)">
				<stop  offset="0" style="stop-color:#C0BFF6"/>
				<stop  offset="1" style="stop-color:#393091"/>
			</linearGradient>
			<path class="st24" d="M85,34.5c0,6.2-8.7,11.3-19.3,11.3s-19.3-5-19.3-11.3S55,23.3,65.7,23.3S85,28.3,85,34.5z"/>
			
				<linearGradient id="SVGID_25_" gradientUnits="userSpaceOnUse" x1="7236.2002" y1="292.565" x2="7241.9902" y2="292.565" gradientTransform="matrix(1 0 0 -1 -7173.4902 314)">
				<stop  offset="0" style="stop-color:#C0BFF6"/>
				<stop  offset="1" style="stop-color:#393091"/>
			</linearGradient>
			<path class="st25" d="M68.5,7.9h-5.8v25.5l0,0l0,0c0,0.9,1.3,1.7,2.9,1.7s2.9-0.8,2.9-1.7l0,0l0,0V7.9z"/>
			
				<radialGradient id="SVGID_26_" cx="7237.0498" cy="307.04" r="11.47" gradientTransform="matrix(1 0 0 -1 -7173.4902 314)" gradientUnits="userSpaceOnUse">
				<stop  offset="0" style="stop-color:#C0BFF6"/>
				<stop  offset="1" style="stop-color:#393091"/>
			</radialGradient>
			<path class="st26" d="M74.2,8.6c0,4.7-3.8,8.6-8.6,8.6c-4.7,0-8.6-3.8-8.6-8.6S60.8,0,65.6,0c0,0,0,0,0,0
				C70.4,0,74.2,3.8,74.2,8.6z"/>
			
				<linearGradient id="SVGID_27_" gradientUnits="userSpaceOnUse" x1="1185.6261" y1="3289.5754" x2="1203.8453" y2="3289.5754" gradientTransform="matrix(-0.6215 -1.0533 -0.6062 0.3566 2763.4109 213.1447)">
				<stop  offset="2.000000e-02" style="stop-color:#45108A"/>
				<stop  offset="0.29" style="stop-color:#3D065F"/>
				<stop  offset="1" style="stop-color:#12054E"/>
				<stop  offset="1" style="stop-color:#10054D"/>
			</linearGradient>
			<path class="st27" d="M32.3,124.3l4.7,7.9c0.9,1.6,0,2.8-1.3,1.6l-6.4-6.2c-1.4-1.5-3.3-2.6-5.4-3l-6.4-1c-1.2-0.2-2.2-2.5-1.3-3
				l4.6-2.7C24,116.1,29.1,119,32.3,124.3z"/>
		</g>
	</g>
</g>
</svg>
