<?xml version="1.0" encoding="utf-8"?>
<!-- Generator: Adobe Illustrator 24.0.0, SVG Export Plug-In . SVG Version: 6.00 Build 0)  -->
<svg version="1.1" id="Layer_1" xmlns="http://www.w3.org/2000/svg" xmlns:xlink="http://www.w3.org/1999/xlink" x="0px" y="0px"
	 viewBox="0 0 130.5 311.9" style="enable-background:new 0 0 130.5 311.9;" xml:space="preserve">
<style type="text/css">
	.st0{fill:url(#SVGID_1_);}
	.st1{fill:url(#SVGID_2_);}
	.st2{fill:url(#SVGID_3_);}
	.st3{fill:url(#SVGID_4_);}
	.st4{fill:url(#SVGID_5_);}
	.st5{fill:url(#SVGID_6_);}
	.st6{fill:url(#SVGID_7_);fill-opacity:0;}
	.st7{opacity:5.000000e-02;fill:url(#SVGID_8_);enable-background:new    ;}
	.st8{opacity:9.000000e-02;fill:url(#SVGID_9_);enable-background:new    ;}
	.st9{opacity:0.14;fill:url(#SVGID_10_);enable-background:new    ;}
	.st10{opacity:0.18;fill:url(#SVGID_11_);enable-background:new    ;}
	.st11{opacity:0.23;fill:url(#SVGID_12_);enable-background:new    ;}
	.st12{opacity:0.27;fill:url(#SVGID_13_);enable-background:new    ;}
	.st13{opacity:0.32;fill:url(#SVGID_14_);enable-background:new    ;}
	.st14{opacity:0.36;fill:url(#SVGID_15_);enable-background:new    ;}
	.st15{opacity:0.41;fill:url(#SVGID_16_);enable-background:new    ;}
	.st16{opacity:0.45;fill:url(#SVGID_17_);enable-background:new    ;}
	.st17{opacity:0.5;fill:url(#SVGID_18_);enable-background:new    ;}
	.st18{fill:url(#SVGID_19_);}
	.st19{fill:url(#SVGID_20_);}
	.st20{fill:#2AF6FF;}
	.st21{fill:url(#SVGID_21_);}
	.st22{fill:url(#SVGID_22_);}
	.st23{fill:url(#SVGID_23_);}
	.st24{fill:url(#SVGID_24_);}
	.st25{fill:url(#SVGID_25_);}
	.st26{fill:url(#SVGID_26_);}
	.st27{fill:url(#SVGID_27_);}
</style>
<title>tobor_placehold</title>
<g>
	<g id="Layer_2_1_">
		<g id="Layer_1-2">
			
				<linearGradient id="SVGID_1_" gradientUnits="userSpaceOnUse" x1="-1885.825" y1="12.6961" x2="-1885.825" y2="70.8861" gradientTransform="matrix(-1 0 0 -1 -1820.1899 314)">
				<stop  offset="0" style="stop-color:#FFFB03"/>
				<stop  offset="1" style="stop-color:#FF7006"/>
			</linearGradient>
			<path class="st0" d="M53.7,255.5c0-11.7,5.3-21.2,12-21.2s11.9,9.5,11.9,21.2s-11.9,54.3-11.9,54.3S53.7,267.2,53.7,255.5z"/>
			
				<linearGradient id="SVGID_2_" gradientUnits="userSpaceOnUse" x1="7226.3999" y1="74.4461" x2="7250.71" y2="74.4461" gradientTransform="matrix(1 0 0 -1 -7173.4902 314)">
				<stop  offset="2.000000e-02" style="stop-color:#45108A"/>
				<stop  offset="0.29" style="stop-color:#3D065F"/>
				<stop  offset="1" style="stop-color:#12054E"/>
				<stop  offset="1" style="stop-color:#10054D"/>
			</linearGradient>
			<path class="st1" d="M77.5,234.2H52.8v3.5l0,0v0.1c0,4,5.5,7.2,12.4,7.2s12.4-3.2,12.4-7.2c0,0,0-0.1,0-0.1l0,0V234.2z"/>
			
				<linearGradient id="SVGID_3_" gradientUnits="userSpaceOnUse" x1="7167.978" y1="153.6795" x2="7212.4082" y2="148.2195" gradientTransform="matrix(1 0 0 -1 -7173.4902 314)">
				<stop  offset="0" style="stop-color:#C0BFF6"/>
				<stop  offset="1" style="stop-color:#393091"/>
			</linearGradient>
			<path class="st2" d="M33.1,152.5c-2,8.8-12,38.7-18.7,37.2S6.3,155.9,8.7,147c2.1-7.6,8.1-11.5,14.9-10S34.8,144.8,33.1,152.5z"
				/>
			
				<linearGradient id="SVGID_4_" gradientUnits="userSpaceOnUse" x1="7228.856" y1="85.4465" x2="7248.4121" y2="74.1488" gradientTransform="matrix(1 0 0 -1 -7173.4902 314)">
				<stop  offset="2.000000e-02" style="stop-color:#45108A"/>
				<stop  offset="0.29" style="stop-color:#3D065F"/>
				<stop  offset="1" style="stop-color:#12054E"/>
				<stop  offset="1" style="stop-color:#10054D"/>
			</linearGradient>
			<path class="st3" d="M77.5,234.2c0,4-5.5,7.2-12.4,7.2s-12.3-3.2-12.3-7.2s5.5-7.2,12.3-7.2S77.5,230.2,77.5,234.2z"/>
			
				<linearGradient id="SVGID_5_" gradientUnits="userSpaceOnUse" x1="7181.5889" y1="131.7814" x2="7295.3491" y2="149.0014" gradientTransform="matrix(1 0 0 -1 -7173.4902 314)">
				<stop  offset="1.000000e-02" style="stop-color:#C1A1D5"/>
				<stop  offset="4.000000e-02" style="stop-color:#C8ABDA"/>
				<stop  offset="0.1" style="stop-color:#DAC6E6"/>
				<stop  offset="0.18" style="stop-color:#F7F2F9"/>
				<stop  offset="0.2" style="stop-color:#FFFFFF"/>
				<stop  offset="0.23" style="stop-color:#F9F5FB"/>
				<stop  offset="0.29" style="stop-color:#E9DBF2"/>
				<stop  offset="0.36" style="stop-color:#D1B4E3"/>
				<stop  offset="0.43" style="stop-color:#B395D6"/>
				<stop  offset="0.49" style="stop-color:#9C7DCB"/>
				<stop  offset="0.56" style="stop-color:#8E6EC5"/>
				<stop  offset="0.61" style="stop-color:#8969C3"/>
				<stop  offset="0.76" style="stop-color:#9471C6"/>
				<stop  offset="1" style="stop-color:#B086CC"/>
			</linearGradient>
			<path class="st4" d="M120.1,143.9c0,30.4-24.7,94.1-55.1,94.1S10,174.4,10,143.9c0-26.8,24.6-33.2,55.1-33.2
				S120.1,117.2,120.1,143.9z"/>
			
				<radialGradient id="SVGID_6_" cx="7233.27" cy="143.7361" r="72.29" gradientTransform="matrix(1 0 0 -1 -7173.4902 314)" gradientUnits="userSpaceOnUse">
				<stop  offset="0" style="stop-color:#C0BFF6"/>
				<stop  offset="1" style="stop-color:#393091"/>
			</radialGradient>
			<path class="st5" d="M120.1,143.9c0,30.4-24.7,94.1-55.1,94.1S10,174.4,10,143.9c0-26.8,24.6-33.2,55.1-33.2
				S120.1,117.2,120.1,143.9z"/>
			
				<linearGradient id="SVGID_7_" gradientUnits="userSpaceOnUse" x1="7207.7231" y1="204.2073" x2="7281.9014" y2="161.3783" gradientTransform="matrix(1 0 0 -1 -7173.4902 314)">
				<stop  offset="0.19" style="stop-color:#3D065F"/>
				<stop  offset="0.93" style="stop-color:#3D065F"/>
			</linearGradient>
			<path class="st6" d="M118.2,131.2c0,15.1-21,27.3-46.9,27.3s-46.9-12.2-46.9-27.3s21-27.3,46.9-27.3S118.2,116.1,118.2,131.2z"/>
			
				<linearGradient id="SVGID_8_" gradientUnits="userSpaceOnUse" x1="7208.5356" y1="203.5776" x2="7280.8335" y2="161.8315" gradientTransform="matrix(1 0 0 -1 -7173.4902 314)">
				<stop  offset="0.19" style="stop-color:#3D065F"/>
				<stop  offset="0.93" style="stop-color:#3D065F"/>
			</linearGradient>
			<path class="st7" d="M116.9,131.3c0,14.7-20.4,26.6-45.7,26.6S25.5,146,25.5,131.3s20.4-26.6,45.7-26.6S116.9,116.6,116.9,131.3z
				"/>
			
				<linearGradient id="SVGID_9_" gradientUnits="userSpaceOnUse" x1="7209.3843" y1="202.9446" x2="7279.7417" y2="162.3159" gradientTransform="matrix(1 0 0 -1 -7173.4902 314)">
				<stop  offset="0.19" style="stop-color:#3D065F"/>
				<stop  offset="0.93" style="stop-color:#3D065F"/>
			</linearGradient>
			<path class="st8" d="M115.5,131.4c0,14.3-19.9,25.9-44.4,25.9s-44.5-11.6-44.5-25.9s19.9-25.9,44.5-25.9S115.5,117.1,115.5,131.4
				z"/>
			
				<linearGradient id="SVGID_10_" gradientUnits="userSpaceOnUse" x1="7210.2705" y1="202.3089" x2="7278.7188" y2="162.7802" gradientTransform="matrix(1 0 0 -1 -7173.4902 314)">
				<stop  offset="0.19" style="stop-color:#3D065F"/>
				<stop  offset="0.93" style="stop-color:#3D065F"/>
			</linearGradient>
			<path class="st9" d="M114.3,131.5c0,13.9-19.4,25.2-43.2,25.2s-43.3-11.3-43.3-25.2s19.4-25.2,43.3-25.2S114.3,117.6,114.3,131.5
				z"/>
			
				<linearGradient id="SVGID_11_" gradientUnits="userSpaceOnUse" x1="7211.1963" y1="201.6584" x2="7277.6758" y2="163.2733" gradientTransform="matrix(1 0 0 -1 -7173.4902 314)">
				<stop  offset="0.19" style="stop-color:#3D065F"/>
				<stop  offset="0.93" style="stop-color:#3D065F"/>
			</linearGradient>
			<path class="st10" d="M112.9,131.5c0,13.5-18.8,24.5-42,24.5s-42-11-42-24.5s18.8-24.5,42-24.5S112.9,118,112.9,131.5z"/>
			
				<linearGradient id="SVGID_12_" gradientUnits="userSpaceOnUse" x1="7211.9648" y1="201.0276" x2="7276.6025" y2="163.7129" gradientTransform="matrix(1 0 0 -1 -7173.4902 314)">
				<stop  offset="0.19" style="stop-color:#3D065F"/>
				<stop  offset="0.93" style="stop-color:#3D065F"/>
			</linearGradient>
			<path class="st11" d="M111.6,131.6c0,13.1-18.3,23.8-40.8,23.8S30,144.8,30,131.6s18.3-23.7,40.8-23.7S111.6,118.5,111.6,131.6z"
				/>
			
				<linearGradient id="SVGID_13_" gradientUnits="userSpaceOnUse" x1="7212.8218" y1="200.402" x2="7275.5498" y2="164.1933" gradientTransform="matrix(1 0 0 -1 -7173.4902 314)">
				<stop  offset="0.19" style="stop-color:#3D065F"/>
				<stop  offset="0.93" style="stop-color:#3D065F"/>
			</linearGradient>
			<path class="st12" d="M110.3,131.7c0,12.7-17.7,23.1-39.6,23.1s-39.6-10.3-39.6-23.1s17.7-23.1,39.6-23.1S110.3,119,110.3,131.7z
				"/>
			
				<linearGradient id="SVGID_14_" gradientUnits="userSpaceOnUse" x1="7213.668" y1="199.7729" x2="7274.4893" y2="164.6624" gradientTransform="matrix(1 0 0 -1 -7173.4902 314)">
				<stop  offset="0.19" style="stop-color:#3D065F"/>
				<stop  offset="0.93" style="stop-color:#3D065F"/>
			</linearGradient>
			<path class="st13" d="M109,131.8c0,12.4-17.2,22.4-38.4,22.4s-38.4-10-38.4-22.4s17.2-22.4,38.4-22.4S109,119.4,109,131.8z"/>
			
				<linearGradient id="SVGID_15_" gradientUnits="userSpaceOnUse" x1="7214.5356" y1="199.131" x2="7273.4482" y2="165.1197" gradientTransform="matrix(1 0 0 -1 -7173.4902 314)">
				<stop  offset="0.19" style="stop-color:#3D065F"/>
				<stop  offset="0.93" style="stop-color:#3D065F"/>
			</linearGradient>
			<path class="st14" d="M107.7,131.9c0,12-16.7,21.7-37.2,21.7s-37.2-9.7-37.2-21.7s16.7-21.7,37.3-21.7S107.7,119.9,107.7,131.9z"
				/>
			
				<linearGradient id="SVGID_16_" gradientUnits="userSpaceOnUse" x1="7215.3784" y1="198.5065" x2="7272.3721" y2="165.6002" gradientTransform="matrix(1 0 0 -1 -7173.4902 314)">
				<stop  offset="0.19" style="stop-color:#3D065F"/>
				<stop  offset="0.93" style="stop-color:#3D065F"/>
			</linearGradient>
			<path class="st15" d="M106.4,131.9c0,11.6-16.1,21-36,21s-36-9.4-36-21s16.1-21,36-21S106.4,120.4,106.4,131.9z"/>
			
				<linearGradient id="SVGID_17_" gradientUnits="userSpaceOnUse" x1="7216.2642" y1="197.8719" x2="7271.3174" y2="166.0833" gradientTransform="matrix(1 0 0 -1 -7173.4902 314)">
				<stop  offset="0.19" style="stop-color:#3D065F"/>
				<stop  offset="0.93" style="stop-color:#3D065F"/>
			</linearGradient>
			<path class="st16" d="M105.1,132c0,11.2-15.6,20.3-34.8,20.3s-34.8-9.1-34.8-20.3s15.6-20.3,34.8-20.3S105.1,120.8,105.1,132z"/>
			
				<linearGradient id="SVGID_18_" gradientUnits="userSpaceOnUse" x1="7217.0669" y1="197.2546" x2="7270.2568" y2="166.5444" gradientTransform="matrix(1 0 0 -1 -7173.4902 314)">
				<stop  offset="0.19" style="stop-color:#3D065F"/>
				<stop  offset="0.93" style="stop-color:#3D065F"/>
			</linearGradient>
			<path class="st17" d="M103.8,132.1c0,10.8-15,19.6-33.6,19.6s-33.6-8.8-33.6-19.6s15-19.6,33.6-19.6S103.8,121.3,103.8,132.1z"/>
			
				<radialGradient id="SVGID_19_" cx="7222.1099" cy="244.3361" r="91.35" gradientTransform="matrix(1 0 0 -1 -7173.4902 314)" gradientUnits="userSpaceOnUse">
				<stop  offset="0" style="stop-color:#C0BFF6"/>
				<stop  offset="1" style="stop-color:#393091"/>
			</radialGradient>
			<path class="st18" d="M130,87.9c0,35.7-29,64.6-64.7,64.6s-64.6-29-64.6-64.7c0-35.7,28.9-64.6,64.6-64.6
				C101.1,23.2,130,52.2,130,87.9C130,87.9,130,87.9,130,87.9z"/>
			
				<linearGradient id="SVGID_20_" gradientUnits="userSpaceOnUse" x1="7175.6304" y1="223.7788" x2="7243.79" y2="223.7788" gradientTransform="matrix(1 0 0 -1 -7173.4902 314)">
				<stop  offset="2.000000e-02" style="stop-color:#45108A"/>
				<stop  offset="0.29" style="stop-color:#3D065F"/>
				<stop  offset="1" style="stop-color:#12054E"/>
				<stop  offset="1" style="stop-color:#10054D"/>
			</linearGradient>
			<path class="st19" d="M5.9,93.6L5.9,93.6c13.5,16.4,32.6,27.3,53.6,30.7l0,0c5.1,0.8,9.8-2.6,10.7-7.7c0.1-0.5,0.1-1,0.1-1.5
				V98.3c0-7.5-4.9-14.2-12.1-16.3l0,0C43,77.3,29.2,69,18.1,57.7l0,0c-2.1-2.2-5.7-2.3-7.9-0.1c-0.4,0.4-0.7,0.8-1,1.3
				c-3.7,7-6,14.5-6.9,22.3C1.7,85.7,3.1,90.2,5.9,93.6z"/>
			<path class="st20" d="M22.7,85.7c0,3.1-2.2,4.3-4.8,2.8c-2.8-1.8-4.6-4.9-4.8-8.3c0-3,2.2-4.3,4.8-2.8
				C20.7,79.3,22.5,82.4,22.7,85.7z"/>
			<path class="st20" d="M50.4,101.8c0,3-2.2,4.3-4.8,2.8c-2.8-1.8-4.6-4.9-4.8-8.3c0-3.1,2.2-4.3,4.8-2.8
				C48.5,95.3,50.3,98.4,50.4,101.8z"/>
			
				<radialGradient id="SVGID_21_" cx="7272.0601" cy="142.4061" r="22.09" gradientTransform="matrix(1 0 0 -1 -7173.4902 314)" gradientUnits="userSpaceOnUse">
				<stop  offset="4.000000e-02" style="stop-color:#6115A3"/>
				<stop  offset="0.1" style="stop-color:#5A139A"/>
				<stop  offset="0.52" style="stop-color:#2B0658"/>
				<stop  offset="1" style="stop-color:#12054E"/>
				<stop  offset="1" style="stop-color:#10054D"/>
			</radialGradient>
			<path class="st21" d="M118.5,178.7c0,8.3-6.7,15-15,15s-15-6.7-15-15s6.7-15,15-15S118.5,170.4,118.5,178.7L118.5,178.7z"/>
			
				<linearGradient id="SVGID_22_" gradientUnits="userSpaceOnUse" x1="7262.7764" y1="119.4862" x2="7290.7217" y2="119.4862" gradientTransform="matrix(1 0 0 -1 -7173.4902 314)">
				<stop  offset="0" style="stop-color:#C0BFF6"/>
				<stop  offset="1" style="stop-color:#393091"/>
			</linearGradient>
			<path class="st22" d="M116.9,185.4c-1.9,11.3-17.8,36.2-24.5,34.7s-0.7-32.1,1.2-40.9c1.7-7.7,8.1-11.5,14.8-10
				S118.3,177.6,116.9,185.4z"/>
			
				<linearGradient id="SVGID_23_" gradientUnits="userSpaceOnUse" x1="7219.46" y1="274.5211" x2="7257.5298" y2="274.5211" gradientTransform="matrix(1 0 0 -1 -7173.4902 314)">
				<stop  offset="0" style="stop-color:#C0BFF6"/>
				<stop  offset="1" style="stop-color:#393091"/>
			</linearGradient>
			<path class="st23" d="M84.5,32.4H45.8v2.8l0,0c0,0.1,0,0.1,0,0.2c0,6.2,8.7,11.3,19.4,11.3s19.4-5,19.4-11.3c0,0,0-0.1,0-0.2l0,0
				V32.4z"/>
			
				<linearGradient id="SVGID_24_" gradientUnits="userSpaceOnUse" x1="7223.3486" y1="290.398" x2="7253.9712" y2="272.7106" gradientTransform="matrix(1 0 0 -1 -7173.4902 314)">
				<stop  offset="0" style="stop-color:#C0BFF6"/>
				<stop  offset="1" style="stop-color:#393091"/>
			</linearGradient>
			<path class="st24" d="M84.5,32.4c0,6.2-8.7,11.3-19.3,11.3s-19.3-5-19.3-11.3s8.7-11.3,19.3-11.3S84.5,26.2,84.5,32.4z"/>
			
				<linearGradient id="SVGID_25_" gradientUnits="userSpaceOnUse" x1="7235.7202" y1="294.6711" x2="7241.5103" y2="294.6711" gradientTransform="matrix(1 0 0 -1 -7173.4902 314)">
				<stop  offset="0" style="stop-color:#C0BFF6"/>
				<stop  offset="1" style="stop-color:#393091"/>
			</linearGradient>
			<path class="st25" d="M68,5.8h-5.8v25.5l0,0l0,0c0,0.9,1.3,1.7,2.9,1.7s2.9-0.8,2.9-1.7l0,0l0,0V5.8z"/>
			
				<radialGradient id="SVGID_26_" cx="7236.5698" cy="309.1461" r="11.47" gradientTransform="matrix(1 0 0 -1 -7173.4902 314)" gradientUnits="userSpaceOnUse">
				<stop  offset="0" style="stop-color:#C0BFF6"/>
				<stop  offset="1" style="stop-color:#393091"/>
			</radialGradient>
			<path class="st26" d="M73.7,6.5c0,4.7-3.8,8.6-8.6,8.6c-4.7,0-8.6-3.8-8.6-8.6s3.8-8.6,8.6-8.6c0,0,0,0,0,0
				C69.9-2.1,73.7,1.7,73.7,6.5z"/>
			
				<linearGradient id="SVGID_27_" gradientUnits="userSpaceOnUse" x1="1183.9427" y1="3290.5093" x2="1202.162" y2="3290.5093" gradientTransform="matrix(0.6215 1.0533 0.6062 -0.3566 -2710.0894 38.6219)">
				<stop  offset="2.000000e-02" style="stop-color:#45108A"/>
				<stop  offset="0.29" style="stop-color:#3D065F"/>
				<stop  offset="1" style="stop-color:#12054E"/>
				<stop  offset="1" style="stop-color:#10054D"/>
			</linearGradient>
			<path class="st27" d="M20.5,125.3l-4.7-7.9c-0.9-1.6,0-2.8,1.3-1.6l6.4,6.2c1.4,1.5,3.3,2.6,5.4,3l6.4,1c1.2,0.2,2.2,2.5,1.3,3
				l-4.6,2.7C28.8,133.6,23.7,130.7,20.5,125.3z"/>
		</g>
	</g>
</g>
</svg>
