<svg xmlns="http://www.w3.org/2000/svg" xmlns:xlink="http://www.w3.org/1999/xlink" viewBox="0 0 446.07 852.29"><defs><style>.cls-1{fill:url(#linear-gradient);}.cls-2{fill:url(#linear-gradient-2);}.cls-3{fill:url(#linear-gradient-3);}.cls-4{fill:url(#linear-gradient-4);}.cls-5{fill:url(#radial-gradient);}.cls-6{fill-opacity:0;fill:url(#linear-gradient-5);}.cls-7{opacity:0.05;fill:url(#linear-gradient-6);}.cls-10,.cls-11,.cls-12,.cls-13,.cls-14,.cls-15,.cls-16,.cls-17,.cls-7,.cls-8,.cls-9{isolation:isolate;}.cls-8{opacity:0.09;fill:url(#linear-gradient-7);}.cls-9{opacity:0.14;fill:url(#linear-gradient-8);}.cls-10{opacity:0.18;fill:url(#linear-gradient-9);}.cls-11{opacity:0.23;fill:url(#linear-gradient-10);}.cls-12{opacity:0.27;fill:url(#linear-gradient-11);}.cls-13{opacity:0.32;fill:url(#linear-gradient-12);}.cls-14{opacity:0.36;fill:url(#linear-gradient-13);}.cls-15{opacity:0.41;fill:url(#linear-gradient-14);}.cls-16{opacity:0.45;fill:url(#linear-gradient-15);}.cls-17{opacity:0.5;fill:url(#linear-gradient-16);}.cls-18{fill:url(#radial-gradient-2);}.cls-19{fill:url(#linear-gradient-17);}.cls-20{fill:#2af6ff;}.cls-21{fill:url(#radial-gradient-3);}.cls-22{fill:url(#linear-gradient-18);}.cls-23{fill:url(#linear-gradient-19);}.cls-24{fill:url(#linear-gradient-20);}.cls-25{fill:url(#linear-gradient-21);}.cls-26{fill:url(#radial-gradient-4);}.cls-27{fill:url(#linear-gradient-22);}</style><linearGradient id="linear-gradient" x1="7353.57" y1="25.43" x2="7437.44" y2="25.43" gradientTransform="matrix(1, 0, 0, -1, -7173.49, 859.12)" gradientUnits="userSpaceOnUse"><stop offset="0.02" stop-color="#45108a"/><stop offset="0.29" stop-color="#3d065f"/><stop offset="1" stop-color="#12054e"/><stop offset="1" stop-color="#10054d"/></linearGradient><linearGradient id="linear-gradient-2" x1="7152.02" y1="298.77" x2="7305.3" y2="279.94" gradientTransform="matrix(1, 0, 0, -1, -7173.49, 859.12)" gradientUnits="userSpaceOnUse"><stop offset="0" stop-color="#c0bff6"/><stop offset="1" stop-color="#393091"/></linearGradient><linearGradient id="linear-gradient-3" x1="7362.05" y1="63.38" x2="7429.51" y2="24.4" xlink:href="#linear-gradient"/><linearGradient id="linear-gradient-4" x1="7198.98" y1="223.23" x2="7591.44" y2="282.63" gradientTransform="matrix(1, 0, 0, -1, -7173.49, 859.12)" gradientUnits="userSpaceOnUse"><stop offset="0.01" stop-color="#c1a1d5"/><stop offset="0.04" stop-color="#c8abda"/><stop offset="0.1" stop-color="#dac6e6"/><stop offset="0.18" stop-color="#f7f2f9"/><stop offset="0.2" stop-color="#fff"/><stop offset="0.23" stop-color="#f9f5fb"/><stop offset="0.29" stop-color="#e9dbf2"/><stop offset="0.36" stop-color="#d1b4e3"/><stop offset="0.43" stop-color="#b395d6"/><stop offset="0.49" stop-color="#9c7dcb"/><stop offset="0.56" stop-color="#8e6ec5"/><stop offset="0.61" stop-color="#8969c3"/><stop offset="0.76" stop-color="#9471c6"/><stop offset="1" stop-color="#b086cc"/></linearGradient><radialGradient id="radial-gradient" cx="7377.27" cy="264.47" r="249.39" gradientTransform="matrix(1, 0, 0, -1, -7173.49, 859.12)" xlink:href="#linear-gradient-2"/><linearGradient id="linear-gradient-5" x1="7289.14" y1="473.09" x2="7545.05" y2="325.33" gradientTransform="matrix(1, 0, 0, -1, -7173.49, 859.12)" gradientUnits="userSpaceOnUse"><stop offset="0.19" stop-color="#3d065f"/><stop offset="0.93" stop-color="#3d065f"/></linearGradient><linearGradient id="linear-gradient-6" x1="7291.94" y1="470.91" x2="7541.36" y2="326.9" xlink:href="#linear-gradient-5"/><linearGradient id="linear-gradient-7" x1="7294.87" y1="468.73" x2="7537.6" y2="328.57" xlink:href="#linear-gradient-5"/><linearGradient id="linear-gradient-8" x1="7297.93" y1="466.54" x2="7534.07" y2="330.17" xlink:href="#linear-gradient-5"/><linearGradient id="linear-gradient-9" x1="7301.12" y1="464.29" x2="7530.47" y2="331.87" xlink:href="#linear-gradient-5"/><linearGradient id="linear-gradient-10" x1="7303.77" y1="462.12" x2="7526.77" y2="333.39" xlink:href="#linear-gradient-5"/><linearGradient id="linear-gradient-11" x1="7306.73" y1="459.96" x2="7523.13" y2="335.04" xlink:href="#linear-gradient-5"/><linearGradient id="linear-gradient-12" x1="7309.65" y1="457.79" x2="7519.48" y2="336.66" xlink:href="#linear-gradient-5"/><linearGradient id="linear-gradient-13" x1="7312.64" y1="455.57" x2="7515.88" y2="338.24" xlink:href="#linear-gradient-5"/><linearGradient id="linear-gradient-14" x1="7315.55" y1="453.42" x2="7512.17" y2="339.9" xlink:href="#linear-gradient-5"/><linearGradient id="linear-gradient-15" x1="7318.61" y1="451.23" x2="7508.53" y2="341.56" xlink:href="#linear-gradient-5"/><linearGradient id="linear-gradient-16" x1="7321.37" y1="449.1" x2="7504.87" y2="343.15" xlink:href="#linear-gradient-5"/><radialGradient id="radial-gradient-2" cx="7338.77" cy="611.53" r="315.15" gradientTransform="matrix(1, 0, 0, -1, -7173.49, 859.12)" xlink:href="#linear-gradient-2"/><linearGradient id="linear-gradient-17" x1="7178.42" y1="540.61" x2="7413.57" y2="540.61" xlink:href="#linear-gradient"/><radialGradient id="radial-gradient-3" cx="7511.09" cy="259.88" r="76.21" gradientTransform="matrix(1, 0, 0, -1, -7173.49, 859.12)" gradientUnits="userSpaceOnUse"><stop offset="0.04" stop-color="#6115a3"/><stop offset="0.1" stop-color="#5a139a"/><stop offset="0.52" stop-color="#2b0658"/><stop offset="1" stop-color="#12054e"/><stop offset="1" stop-color="#10054d"/></radialGradient><linearGradient id="linear-gradient-18" x1="7479.07" y1="180.81" x2="7575.48" y2="180.81" xlink:href="#linear-gradient-2"/><linearGradient id="linear-gradient-19" x1="7329.63" y1="715.66" x2="7460.97" y2="715.66" xlink:href="#linear-gradient-2"/><linearGradient id="linear-gradient-20" x1="7343.05" y1="770.43" x2="7448.69" y2="709.42" xlink:href="#linear-gradient-2"/><linearGradient id="linear-gradient-21" x1="7385.73" y1="785.18" x2="7405.7" y2="785.18" xlink:href="#linear-gradient-2"/><radialGradient id="radial-gradient-4" cx="7388.66" cy="835.11" r="39.57" gradientTransform="matrix(1, 0, 0, -1, -7173.49, 859.12)" xlink:href="#linear-gradient-2"/><linearGradient id="linear-gradient-22" x1="1310.96" y1="3403.53" x2="1373.81" y2="3403.53" gradientTransform="matrix(0.62, 1.05, 0.61, -0.36, -2810.29, 227.45)" xlink:href="#linear-gradient"/></defs><title>tobor_u_flamme</title><g id="Layer_2" data-name="Layer 2"><g id="Layer_1-2" data-name="Layer 1"><g id="Layer_2-2" data-name="Layer 2"><g id="Layer_1-2-2" data-name="Layer 1-2"><path class="cls-1" d="M265,815.1H179.67v12h0v.31c0,13.8,19.08,24.84,42.61,24.84S265,841.18,265,827.45v-.31h0Z"/><path class="cls-2" d="M111.74,533.25C105,563.43,70.34,666.76,47.16,661.62S19.28,545.08,27.53,514.55c7.14-26.29,28-39.81,51.27-34.5S117.64,506.68,111.74,533.25Z"/><path class="cls-3" d="M265,815.28c0,13.8-19.08,24.8-42.65,24.8s-42.6-11.11-42.6-24.8,19.08-24.81,42.6-24.81S265,801.55,265,815.28Z"/><path class="cls-4" d="M412,503.86c0,104.91-85,324.59-190,324.59S32.08,608.77,32.08,503.86c0-92.36,85-114.61,190-114.61S412,411.5,412,503.86Z"/><path class="cls-5" d="M412,503.86c0,104.91-85,324.59-190,324.59S32.08,608.77,32.08,503.86c0-92.36,85-114.61,190-114.61S412,411.5,412,503.86Z"/><path class="cls-6" d="M405.26,459.94c0,52-72.45,94.15-161.66,94.15S81.93,512,81.93,459.94s72.38-94.25,161.67-94.25S405.26,408,405.26,459.94Z"/><path class="cls-7" d="M400.74,460.21c0,50.68-70.52,91.74-157.49,91.74S85.59,510.89,85.59,460.21s70.52-91.69,157.52-91.69S400.74,409.57,400.74,460.21Z"/><path class="cls-8" d="M396.08,460.49c0,49.33-68.65,89.32-153.35,89.32s-153.34-40-153.34-89.32S158,371.21,242.87,371.21,396.08,411.19,396.08,460.49Z"/><path class="cls-9" d="M391.7,460.77c0,48-66.79,86.9-149.17,86.9S93.32,508.75,93.32,460.77s66.79-86.87,149.21-86.87S391.7,412.81,391.7,460.77Z"/><path class="cls-10" d="M387.18,461c0,46.68-64.93,84.46-144.89,84.46S97.39,507.55,97.39,461s64.93-84.42,144.9-84.42S387.18,414.43,387.18,461Z"/><path class="cls-11" d="M382.66,461.35c0,45.3-63.06,82-140.86,82s-140.89-36.71-140.89-82S164,379.49,241.8,379.49,382.66,416,382.66,461.35Z"/><path class="cls-12" d="M378.14,461.63c0,43.95-61.2,79.59-136.72,79.59s-136.68-35.64-136.68-79.59S165.94,382,241.42,382,378.14,417.64,378.14,461.63Z"/><path class="cls-13" d="M373.62,461.9c0,42.61-59.34,77.18-132.54,77.18s-132.55-34.5-132.55-77.18,59.34-77.2,132.55-77.2S373.62,419.26,373.62,461.9Z"/><path class="cls-14" d="M369.1,462.28c0,41.4-57.47,74.76-128.4,74.76s-128.37-33.56-128.37-74.76,57.47-74.89,128.51-74.89S369.1,420.89,369.1,462.28Z"/><path class="cls-15" d="M364.58,462.46c0,40-55.61,72.44-124.19,72.44s-124.2-32.39-124.2-72.44S171.8,390,240.39,390,364.58,422.51,364.58,462.46Z"/><path class="cls-16" d="M360.06,462.73c0,38.61-53.75,69.9-120.09,69.9s-119.88-31.29-119.88-69.9,53.75-69.93,120.06-69.93S360.06,424.09,360.06,462.73Z"/><path class="cls-17" d="M355.54,463c0,37.26-51.74,67.48-115.91,67.48S123.71,500.27,123.71,463s51.75-67.52,115.92-67.52S355.54,425.72,355.54,463Z"/><path class="cls-18" d="M446.07,310.49c0,123.18-99.89,223-223.07,223S0,433.6,0,310.42s99.87-223,223-223,223,99.81,223,223Z"/><path class="cls-19" d="M18.08,330.15h0a302.27,302.27,0,0,0,184.81,106h0a32,32,0,0,0,36.77-26.5,31.06,31.06,0,0,0,.42-5.1v-58.2A59,59,0,0,0,198.16,290h0A327.65,327.65,0,0,1,59.86,206.3h0a19.25,19.25,0,0,0-30.71,4.14A218.28,218.28,0,0,0,5.28,287.55,56.81,56.81,0,0,0,18.08,330.15Z"/><path class="cls-20" d="M75.83,303c0,10.55-7.45,14.8-16.63,9.48a36.6,36.6,0,0,1-16.66-28.7c0-10.35,7.45-14.76,16.66-9.49A36.75,36.75,0,0,1,75.83,303Z"/><path class="cls-20" d="M171.56,358.41c0,10.35-7.41,14.8-16.63,9.49a36.69,36.69,0,0,1-16.62-28.71c0-10.55,7.45-14.8,16.62-9.48A36.58,36.58,0,0,1,171.56,358.41Z"/><path class="cls-21" d="M406.43,623.88a51.75,51.75,0,1,1-51.75-51.75,51.74,51.74,0,0,1,51.75,51.75Z"/><path class="cls-22" d="M401,646.89c-6.56,39.05-61.38,124.81-84.63,119.64s-2.52-110.81,4.21-141c5.9-26.56,28-39.81,51.23-34.5S405.5,620.05,401,646.89Z"/><path class="cls-23" d="M289.13,118.92H155.49v9.69h0v.55c0,21.46,29.87,38.85,66.75,38.85s66.89-17.39,66.89-38.85v-.55h0Z"/><path class="cls-24" d="M289.13,119.19c0,21.46-29.87,38.85-66.72,38.85s-66.75-17.25-66.75-38.85,29.87-38.84,66.75-38.84S289.13,97.74,289.13,119.19Z"/><path class="cls-25" d="M232.21,27.12h-20V115h0c0,3.21,4.48,5.8,10,5.8s10-2.59,10-5.8h0Z"/><path class="cls-26" d="M251.88,29.63A29.67,29.67,0,1,1,222.17,0h.07A29.68,29.68,0,0,1,251.88,29.63Z"/><path class="cls-27" d="M68.4,439.69,52.06,412.27c-3.23-5.42.07-9.59,4.32-5.46l22.24,21.25A36.32,36.32,0,0,0,97.2,438.52L119.14,442c4.25.68,7.65,8.62,4.5,10.48l-15.91,9.31C96.9,468.05,79.33,458.14,68.4,439.69Z"/></g></g></g></g></svg>