<?xml version="1.0" encoding="utf-8"?>
<!-- Generator: Adobe Illustrator 24.0.0, SVG Export Plug-In . SVG Version: 6.00 Build 0)  -->
<svg version="1.1" id="Layer_1" xmlns="http://www.w3.org/2000/svg" xmlns:xlink="http://www.w3.org/1999/xlink" x="0px" y="0px"
	 viewBox="0 0 122.7 283.3" style="enable-background:new 0 0 122.7 283.3;" xml:space="preserve">
<style type="text/css">
	.st0{fill:#6A7072;}
	.st1{fill:#8D9598;}
	.st2{fill:#7F807F;}
	.st3{fill:#535453;}
	.st4{fill:#6D8895;}
	.st5{fill:#C0D5DE;}
	.st6{fill:#A1B3BB;}
	.st7{fill:#D9E6EB;}
	.st8{opacity:0.75;fill:url(#SVGID_1_);enable-background:new    ;}
	.st9{fill:#90A0A7;}
	.st10{fill:#A6B3B9;}
	.st11{fill:#BCC6CA;}
	.st12{fill:#899397;}
	.st13{fill:#AEAFAE;}
	.st14{fill:#D8F9FF;}
	.st15{fill:#61CE1D;}
	.st16{opacity:0.1;fill:#2A65AA;enable-background:new    ;}
	.st17{opacity:0.49;fill:#98D4DE;enable-background:new    ;}
	.st18{fill:#A5E0E7;}
	.st19{fill:#A6DEEB;}
	.st20{clip-path:url(#SVGID_3_);}
	.st21{fill:#BEE8EF;}
	.st22{fill:#75B5BF;}
	.st23{opacity:0.42;fill:#D8F9FF;enable-background:new    ;}
	.st24{fill:#FFFFFF;}
	.st25{fill:#7F7F81;}
	.st26{fill:#8E8E90;}
	.st27{fill:#59595A;}
</style>
<title>chem_01</title>
<g>
	<g id="Layer_2_1_">
		<g id="Layer_1-2">
			<path class="st0" d="M63.1,230l43.4,25l0.8,2.7l1.9-1.1v-3.4l0.1-44.9l0,0v-2.2l0.1-49.1l-4.8,0.2L86.4,167l-10-17.4l-11.6-9.3
				l-1.4-9.9l-0.3,96.2L63.1,230z M66.1,217.8l0.1-32.7v6l0.2,0.1c1,0.8,2.4,0.9,3.5,0.3l14.3,24.8l-10.4,5.9L66.1,217.8z
				 M98.7,236.6l-10.3-17.8l14.4-8.2c0.8,1.5,2,2.8,3.5,3.7l0.2,0.1l-0.1,26.6L98.7,236.6z M71.3,180.8c0-0.1,0-0.3,0-0.4l15.1-8.6
				l14.9,25.9c0,0.2,0,0.3,0,0.5v2.2L71.3,183L71.3,180.8z M86.3,215.3l-15.1-26.1c0-0.2,0-0.4,0-0.6v-2.1l30,17.4v2.1
				c0,0.3,0,0.5,0,0.8L86.3,215.3z M84.3,168.3L70,176.4c-0.8-1.6-2.1-3-3.6-4l-0.2-0.1l0.1-27.7l6.7,3.9L84.3,168.3z M100,164
				l6.5,3.8l-0.1,27.7l-0.2-0.1c-1-0.8-2.5-0.9-3.6-0.3l-14.2-24.5L100,164z M68.8,229.9l17.4-9.9l17.3,30L68.8,229.9z"/>
			<polygon class="st1" points="64.4,138 71,149.5 64.3,145.7 			"/>
			<polygon class="st1" points="104.6,161.4 104.6,168.9 98.1,165.1 			"/>
			<polygon class="st1" points="71.9,223.4 64.1,227.9 64.1,218.9 			"/>
			<polygon class="st1" points="104.4,251 96.7,237.8 104.4,242.2 			"/>
			<path class="st1" d="M99.4,198.8l2.4,4.1l-2.4-1.4v-2.2C99.4,199.1,99.4,198.9,99.4,198.8z"/>
			<path class="st1" d="M104.3,196.5l0.2,0.1v6.2l-3.8-6.6C101.9,195.6,103.3,195.7,104.3,196.5z"/>
			<path class="st1" d="M99.4,204.8l2.6,1.5l-2.6,1.4c0-0.3,0-0.5,0-0.8L99.4,204.8z"/>
			<path class="st1" d="M104.3,215.4c-1.4-0.9-2.6-2.2-3.5-3.7l3.7-2.1v5.9L104.3,215.4z"/>
			<path class="st1" d="M69.3,190.3l-2.4-4.2l2.5,1.4v2.1C69.3,189.9,69.3,190.1,69.3,190.3z"/>
			<path class="st1" d="M69.4,181.9v2.2l-2.3-1.3l2.3-1.3C69.4,181.6,69.4,181.8,69.4,181.9z"/>
			<path class="st1" d="M68.1,177.5l-3.9,2.2v-6.3l0.2,0.1C66,174.5,67.3,175.8,68.1,177.5z"/>
			<path class="st1" d="M64.4,192.4l-0.2-0.1v-6.1l3.8,6.5C66.8,193.3,65.5,193.2,64.4,192.4z"/>
			<polygon class="st1" points="104.6,156.5 104.8,156.6 104.6,156.7 			"/>
			<polygon class="st1" points="104.6,161.4 98.1,165.1 86.6,171.7 84.5,172.9 69.3,181.5 67.1,182.8 65.5,183.7 64.2,181.5 
				62.8,182.3 62.1,180.9 62.9,180.4 64.3,179.7 68.1,177.5 82.4,169.3 84.5,168.1 104.6,156.7 104.8,156.6 106.8,160.1 			"/>
			<polygon class="st1" points="61.2,227.8 62.8,228.7 64.1,227.9 71.9,223.4 82.3,217.6 84.4,216.4 99.4,207.8 102,206.3 
				103.4,205.6 104.7,204.8 106,207.2 106.7,208.4 106.1,208.7 104.5,209.6 100.8,211.8 86.4,219.9 84.3,221.1 66.9,231.1 
				101.7,251.1 104.6,256.2 61.2,231.1 			"/>
			<polygon class="st1" points="105.8,253.5 107.3,254.4 107.3,254.6 107.3,257.7 104.6,256.2 106.7,255 			"/>
			<polygon class="st1" points="84.3,221.1 86.4,219.9 96.7,237.8 104.4,251 104.4,242.2 104.5,215.5 104.5,209.6 106.1,208.7 
				106.7,208.4 106,207.2 104.7,204.8 103.4,205.6 102,206.3 99.4,204.8 69.3,187.5 66.9,186.1 69.3,190.3 84.4,216.4 82.3,217.6 
				68,192.7 64.2,186.3 64.1,218.9 64.1,227.9 62.8,228.7 61.2,227.8 61.5,131.6 64.4,135.6 64.8,138.7 72.4,147.2 84.5,168.1 
				82.4,169.3 71,149.5 64.4,138 64.3,145.7 64.3,173.4 64.3,179.7 62.9,180.4 62.1,180.9 62.8,182.3 64.2,181.5 65.5,183.7 
				67.1,182.8 69.4,184.1 99.4,201.5 101.8,202.9 99.4,198.8 84.5,172.9 86.6,171.7 100.7,196.2 104.5,202.8 104.5,196.6 
				104.6,168.9 104.6,161.4 106.8,160.1 104.8,156.6 107.6,158.2 107.4,207.3 107.4,209.5 107.4,209.5 107.3,254.4 105.8,253.5 
				106.7,255 104.6,256.2 104.6,256.2 101.7,251.1 			"/>
			<path class="st0" d="M63.1,226.6l-0.3-96.2l-1.4,9.9l-11.6,9.3l-10,17.3l-18.2-9.7l-4.8-0.2l0.1,49.1v2.2l0,0l0.1,44.9v3.3
				l1.9,1.1l0.8-2.7l43.4-25L63.1,226.6z M52.3,222.3L42,216.4l14.3-24.8c1.1,0.6,2.5,0.5,3.5-0.3l0.2-0.1v-6l0.1,32.7L52.3,222.3z
				 M19.9,241.1l-0.1-26.6l0.2-0.1c1.5-0.9,2.6-2.2,3.5-3.7l14.4,8.2l-10.3,17.8L19.9,241.1z M54.9,183.1l-30,17.3v-2.2
				c0-0.2,0-0.4,0-0.5l14.9-25.9l15.2,8.6c0,0.1,0,0.3,0,0.4L54.9,183.1z M24.9,206.7c0-0.3,0-0.5,0-0.8v-2.1l30-17.4v2.1
				c0,0.2,0,0.4,0,0.6l-14.9,26.1L24.9,206.7z M53.3,148.4l6.7-3.8v27.7l-0.2,0.1c-1.6,1-2.8,2.4-3.6,4l-14.3-8.1L53.3,148.4z
				 M37.8,170.6l-14.2,24.5c-1.1-0.6-2.6-0.5-3.6,0.3l-0.2,0.1l-0.1-27.7l6.5-3.8L37.8,170.6z M22.6,250L40,220l17.4,9.9L22.6,250z"
				/>
			<polygon class="st1" points="61.8,138 55.2,149.5 61.9,145.7 			"/>
			<polygon class="st1" points="21.6,161.4 21.6,168.9 28.1,165.1 			"/>
			<polygon class="st1" points="54.3,223.4 62.1,227.9 62.1,218.9 			"/>
			<polygon class="st1" points="21.8,251 29.5,237.8 21.8,242.2 			"/>
			<path class="st1" d="M26.8,198.8l-2.4,4.1l2.4-1.4v-2.2C26.8,199.1,26.8,198.9,26.8,198.8z"/>
			<path class="st1" d="M21.9,196.5l-0.2,0.1v6.2l3.8-6.6C24.3,195.6,22.9,195.7,21.9,196.5z"/>
			<path class="st1" d="M26.8,204.8l-2.6,1.5l2.5,1.4c0-0.3,0-0.5,0-0.8L26.8,204.8z"/>
			<path class="st1" d="M22,215.4c1.5-0.9,2.6-2.2,3.5-3.7l-3.7-2.1v5.9L22,215.4z"/>
			<path class="st1" d="M56.9,190.3l2.4-4.2l-2.5,1.4v2.1C56.9,189.9,56.9,190.1,56.9,190.3z"/>
			<path class="st1" d="M56.8,181.9v2.2l2.3-1.3l-2.3-1.3C56.8,181.6,56.8,181.8,56.8,181.9z"/>
			<path class="st1" d="M58.1,177.5l3.9,2.2v-6.3l-0.2,0.1C60.2,174.5,58.9,175.8,58.1,177.5z"/>
			<path class="st1" d="M61.8,192.4l0.2-0.1v-6.1l-3.8,6.5C59.4,193.3,60.7,193.2,61.8,192.4z"/>
			<polygon class="st1" points="21.6,156.5 21.4,156.6 21.6,156.7 			"/>
			<polygon class="st1" points="21.6,161.4 28.1,165.1 39.7,171.7 41.7,172.9 56.8,181.5 59.2,182.8 60.7,183.7 62,181.5 
				63.4,182.3 64.1,180.9 63.3,180.4 62,179.7 58.1,177.5 43.8,169.3 41.7,168.1 21.6,156.7 21.4,156.6 19.4,160.1 			"/>
			<polygon class="st1" points="65,227.8 63.4,228.7 62.1,227.9 54.3,223.4 43.9,217.6 41.8,216.4 26.8,207.8 24.2,206.3 
				22.9,205.6 21.5,204.8 20.2,207.2 19.5,208.4 20.1,208.7 21.7,209.6 25.4,211.8 39.8,219.9 41.8,221.1 59.3,231.1 24.5,251.1 
				21.6,256.2 65,231.1 			"/>
			<polygon class="st1" points="20.4,253.5 18.9,254.4 18.9,254.6 18.9,257.7 21.6,256.2 19.6,255 			"/>
			<polygon class="st1" points="41.8,221.1 39.8,219.9 29.5,237.8 21.8,251 21.8,242.2 21.7,215.5 21.7,209.6 20.1,208.7 
				19.5,208.4 20.2,207.2 21.5,204.8 22.9,205.6 24.2,206.3 26.8,204.8 56.9,187.5 59.3,186.1 56.9,190.3 41.8,216.4 43.9,217.6 
				58.2,192.7 62,186.3 62.1,218.9 62.1,227.9 63.4,228.7 65,227.8 64.7,131.6 61.8,135.6 61.4,138.7 53.8,147.2 41.7,168.1 
				43.8,169.3 55.2,149.5 61.8,138 61.9,145.7 61.9,173.4 62,179.7 63.3,180.4 64.1,180.9 63.4,182.3 62,181.5 60.7,183.7 
				59.2,182.8 56.8,184.1 26.8,201.5 24.4,202.9 26.8,198.8 41.7,172.9 39.7,171.7 25.5,196.2 21.7,202.8 21.7,196.6 21.6,168.9 
				21.6,161.4 19.4,160.1 21.4,156.6 18.6,158.2 18.8,207.3 18.8,209.5 18.8,209.5 18.9,254.4 20.4,253.5 19.6,255 21.6,256.2 
				21.6,256.2 24.5,251.1 			"/>
			<path class="st2" d="M19.9,135.7c0,0.1,0,0.2,0,0.3v0.6c0,0.2,0,0.4,0,0.6s0,0.4,0.1,0.6s0.1,0.4,0.1,0.6s0.1,0.4,0.1,0.6
				s0.1,0.4,0.1,0.6s0.1,0.4,0.2,0.6s0.1,0.4,0.2,0.6s0.2,0.4,0.2,0.6s0.1,0.4,0.2,0.6s0.2,0.4,0.3,0.6l0.3,0.6
				c0.1,0.2,0.2,0.4,0.4,0.6l0.3,0.6c0.1,0.2,0.3,0.4,0.4,0.6l0.4,0.5l0.5,0.6l0.4,0.5l0.5,0.6l0.5,0.5l0.6,0.6l0.5,0.5
				c0.2,0.2,0.4,0.4,0.7,0.6s0.4,0.3,0.5,0.5s0.5,0.4,0.7,0.6s0.4,0.3,0.6,0.4s0.5,0.4,0.8,0.6l0.6,0.4c0.3,0.2,0.7,0.4,1,0.6
				l0.5,0.3c0.5,0.3,1,0.6,1.6,0.9c17.3,9.6,44.8,9.4,61.5-0.6c0.5-0.3,1-0.6,1.5-0.9l0.5-0.3l0.9-0.6L98,151l0.8-0.6l0.5-0.4
				c0.2-0.2,0.5-0.4,0.7-0.6l0.5-0.5c0.2-0.2,0.4-0.4,0.6-0.6s0.3-0.3,0.4-0.5l0.6-0.6l0.4-0.5c0.2-0.2,0.3-0.4,0.5-0.6l0.4-0.5
				c0.1-0.2,0.3-0.4,0.4-0.6s0.2-0.4,0.3-0.5s0.3-0.4,0.4-0.6s0.2-0.4,0.3-0.5l0.3-0.6c0.1-0.2,0.2-0.4,0.3-0.6s0.2-0.4,0.3-0.6
				s0.1-0.4,0.2-0.6s0.2-0.4,0.2-0.6l0.2-0.6c0.1-0.2,0.1-0.4,0.2-0.6s0.1-0.4,0.1-0.6s0.1-0.4,0.1-0.6s0-0.4,0.1-0.6
				c0-0.2,0.1-0.4,0.1-0.6c0-0.2,0-0.4,0-0.6s0-0.2,0-0.3l-0.1,27.2c0,0.5,0,1.2-0.1,1.7c-0.1,0.8-0.2,1.8-0.3,2.5
				c-0.2,1.2-0.5,2.4-0.9,3.5c-0.2,0.8-0.6,1.8-0.9,2.5c-0.2,0.5-0.6,1.2-0.8,1.7c-0.4,0.8-1,1.8-1.5,2.6c-0.6,1-1.3,1.9-2.1,2.8
				c-0.9,1-1.9,2-2.9,3c-1.9,1.7-3.9,3.2-6.1,4.5c-1.6,1-3.3,1.9-5.1,2.7c-1.8,0.8-3.5,1.4-5.4,2c-1.4,0.4-3,0.8-4.6,1.2
				c-2.1,0.5-4.2,0.8-6.4,1c-0.8,0.1-2,0.2-2.8,0.2s-2,0.1-2.8,0.1s-2,0-2.8,0c-1.7,0-3.4-0.2-5.6-0.4c-1.2-0.1-3.1-0.4-5.2-0.9
				c-2-0.4-4-1-6-1.6c-1.9-0.6-3.7-1.4-5.5-2.3c-1.8-0.9-3.5-1.9-5.2-3c-1.3-0.9-2.6-1.8-3.8-2.9c-1.5-1.3-2.9-2.7-4.1-4.3
				c-1.1-1.3-2-2.7-2.8-4.2c-0.7-1.3-1.3-2.7-1.9-4.2c-0.5-1.4-0.8-2.8-1.1-4.2c-0.1-0.7-0.2-1.7-0.3-2.5c0-0.5,0-1.3,0-1.8l0,0
				L19.9,135.7z"/>
			<rect x="63" y="163.3" class="st3" width="0.7" height="19.2"/>
			<rect x="63.3" y="163.3" class="st3" width="0.3" height="19.2"/>
			<rect x="35.4" y="157.6" class="st3" width="0.7" height="19.2"/>
			<rect x="35.8" y="157.6" class="st3" width="0.3" height="19.2"/>
			<rect x="21.2" y="146.1" class="st3" width="0.7" height="19.2"/>
			<rect x="21.5" y="146.1" class="st3" width="0.3" height="19.2"/>
			<rect x="103.8" y="146.1" class="st3" width="0.7" height="19.2"/>
			<rect x="103.9" y="146.1" class="st3" width="0.3" height="19.2"/>
			<rect x="91.1" y="157.6" class="st3" width="0.7" height="19.2"/>
			<rect x="91.5" y="157.6" class="st3" width="0.3" height="19.2"/>
			<path class="st4" d="M17.2,137.3c0,0.4,0,0.8,0.1,1.2c0.1,0.5,0.2,0.9,0.3,1.4c0.1,0.4,0.2,0.8,0.3,1.2s0.4,0.9,0.6,1.4
				s0.3,0.8,0.5,1.1s0.5,0.9,0.8,1.3s0.4,0.7,0.7,1.1s0.7,0.9,1.1,1.3s0.5,0.7,0.8,1s0.9,0.9,1.4,1.3s0.6,0.6,1,1
				c0.5,0.5,1.1,0.9,1.8,1.4c0.3,0.3,0.6,0.5,1,0.8c1,0.7,2,1.4,3.1,2c18,10.4,47.2,10.4,65.3,0c1.1-0.6,2.2-1.3,3.2-2
				c0.3-0.2,0.6-0.5,0.9-0.7c0.6-0.5,1.3-1,1.9-1.5c0.3-0.3,0.6-0.6,0.9-0.9c0.5-0.4,1-0.9,1.4-1.4s0.6-0.7,0.8-1s0.8-0.9,1.1-1.4
				s0.4-0.7,0.7-1.1s0.6-0.9,0.8-1.4s0.3-0.8,0.5-1.1s0.4-0.9,0.6-1.4s0.2-0.8,0.3-1.2s0.3-0.9,0.3-1.4s0.1-0.8,0.1-1.2
				s0.1-0.9,0.1-1.4v1.7c0,6.9-4.5,13.8-13.6,19.1c-18.1,10.4-47.3,10.4-65.3,0c-8.9-5.2-13.4-12-13.4-18.8v-1.8
				C17.1,136.5,17.2,136.9,17.2,137.3z"/>
			<path class="st5" d="M17.2,137.3c0,0.4,0,0.8,0.1,1.2c0.1,0.5,0.2,0.9,0.3,1.4c0.1,0.4,0.2,0.8,0.3,1.2s0.4,0.9,0.6,1.4
				s0.3,0.8,0.5,1.1s0.5,0.9,0.8,1.3s0.4,0.7,0.7,1.1s0.7,0.9,1.1,1.3s0.5,0.7,0.8,1s0.9,0.9,1.4,1.3s0.6,0.6,1,0.9
				c0.5,0.5,1.2,0.9,1.8,1.4c0.3,0.3,0.6,0.5,1,0.8c1,0.7,2,1.4,3.1,2c18,10.4,47.2,10.4,65.3,0c1.1-0.7,2.2-1.3,3.2-2
				c0.3-0.2,0.6-0.5,0.9-0.7c0.6-0.5,1.3-0.9,1.9-1.4c0.3-0.3,0.6-0.6,0.9-0.9c0.5-0.4,1-0.9,1.4-1.4s0.6-0.7,0.8-1s0.8-0.9,1.1-1.4
				s0.4-0.7,0.7-1.1s0.6-0.9,0.8-1.4s0.3-0.8,0.5-1.2s0.4-0.9,0.6-1.4s0.2-0.8,0.3-1.2s0.3-0.9,0.3-1.4s0.1-0.8,0.1-1.2
				s0.1-0.9,0.1-1.4c0-6.8-4.4-13.6-13.4-18.8c-18-10.4-47.2-10.4-65.3,0C21.1,122.5,16.6,130,17.2,137.3z M32.7,118.1
				c17-9.8,44.4-9.8,61.3,0c8.4,4.9,12.6,11.3,12.6,17.6c0,0.4-0.1,0.9-0.1,1.3s0,0.8-0.1,1.1s-0.2,0.9-0.3,1.3s-0.2,0.7-0.3,1.1
				s-0.3,0.9-0.5,1.3s-0.3,0.7-0.5,1.1s-0.5,0.9-0.8,1.3s-0.4,0.7-0.6,1s-0.7,0.8-1,1.3s-0.5,0.6-0.8,1s-0.9,0.9-1.3,1.3
				s-0.6,0.6-0.9,0.9c-0.5,0.5-1.1,0.9-1.7,1.4c-0.3,0.2-0.6,0.4-0.8,0.7c-0.9,0.6-1.9,1.3-3,1.9c-17,9.8-44.4,9.8-61.3,0
				c-1-0.6-2-1.2-3-1.9c-0.3-0.2-0.6-0.5-0.9-0.7c-0.6-0.4-1.1-0.9-1.6-1.3c-0.3-0.3-0.6-0.6-0.9-0.9s-0.9-0.8-1.3-1.2
				s-0.5-0.6-0.8-1s-0.7-0.8-1-1.3s-0.4-0.7-0.6-1s-0.5-0.8-0.8-1.3s-0.3-0.7-0.5-1.1s-0.4-0.8-0.5-1.3s-0.2-0.7-0.3-1.1
				s-0.2-0.9-0.3-1.3s-0.1-0.7-0.1-1.1C19.4,130.3,23.6,123.3,32.7,118.1z"/>
			<path class="st6" d="M51.5,124.9c0,0.1,0,0.2,0,0.3c0,0.1,0,0.2,0.1,0.3c0,0.1,0,0.2,0.1,0.3c0,0.1,0.1,0.2,0.1,0.3l0.1,0.3
				c0.1,0.1,0.1,0.2,0.2,0.3s0.1,0.2,0.2,0.3c0.1,0.1,0.2,0.2,0.3,0.3c0.1,0.1,0.1,0.2,0.2,0.3c0.1,0.1,0.2,0.2,0.3,0.3
				c0.1,0.1,0.2,0.2,0.2,0.2c0.1,0.1,0.3,0.2,0.4,0.4l0.3,0.2c0.2,0.2,0.5,0.4,0.8,0.5c4.5,2.6,11.8,2.6,16.3,0
				c0.3-0.2,0.6-0.3,0.8-0.5l0.2-0.2c0.2-0.1,0.3-0.2,0.5-0.4c0.1-0.1,0.2-0.1,0.2-0.2l0.3-0.3c0.1-0.1,0.1-0.2,0.2-0.3
				c0.1-0.1,0.2-0.2,0.3-0.3l0.2-0.3c0.1-0.1,0.1-0.2,0.2-0.3c0-0.1,0.1-0.2,0.1-0.3c0.1-0.1,0.1-0.2,0.2-0.3c0-0.1,0.1-0.2,0.1-0.3
				c0-0.1,0.1-0.2,0.1-0.3s0-0.2,0-0.3s0-0.2,0-0.3l0,0v0.5c0,1.7-1.1,3.4-3.4,4.8c-4.5,2.6-11.8,2.6-16.3,0c-2.2-1.3-3.3-3-3.3-4.7
				v-0.4C51.4,124.7,51.4,124.8,51.5,124.9z"/>
			<path class="st7" d="M74.5,124.9c0,0.1,0,0.2,0,0.3s-0.1,0.2-0.1,0.3c0,0.1,0,0.2-0.1,0.3c0,0.1-0.1,0.2-0.2,0.3
				c0,0.1-0.1,0.2-0.1,0.3c-0.1,0.1-0.1,0.2-0.2,0.3l-0.2,0.3c-0.1,0.1-0.2,0.2-0.3,0.3c-0.1,0.1-0.1,0.2-0.2,0.3l-0.3,0.3
				c-0.1,0.1-0.2,0.2-0.2,0.2c-0.1,0.1-0.3,0.3-0.5,0.4l-0.2,0.2c-0.2,0.2-0.5,0.3-0.8,0.5c-4.5,2.6-11.8,2.6-16.3,0
				c-0.3-0.2-0.5-0.3-0.8-0.5l-0.3-0.2c-0.1-0.1-0.3-0.2-0.4-0.4c-0.1-0.1-0.2-0.1-0.2-0.2c-0.1-0.1-0.2-0.2-0.3-0.3
				c-0.1-0.1-0.1-0.2-0.2-0.3c-0.1-0.1-0.2-0.2-0.3-0.3c-0.1-0.1-0.1-0.2-0.2-0.3s-0.1-0.2-0.2-0.3l-0.1-0.3
				c-0.1-0.1-0.1-0.2-0.1-0.3c0-0.1,0-0.2-0.1-0.3c0-0.1-0.1-0.2-0.1-0.3c0-0.1,0-0.2,0-0.3c-0.2-1.8,1-3.7,3.4-5.1
				c4.5-2.6,11.8-2.6,16.3,0c2.2,1.3,3.3,3,3.3,4.7C74.5,124.7,74.5,124.8,74.5,124.9z"/>
			
				<linearGradient id="SVGID_1_" gradientUnits="userSpaceOnUse" x1="-2034.6899" y1="161.4469" x2="-2011.6349" y2="161.4469" gradientTransform="matrix(-1 0 0 -1 -1960.2 286)">
				<stop  offset="0" style="stop-color:#FFFFFF"/>
				<stop  offset="1" style="stop-color:#89B3C6"/>
			</linearGradient>
			<path class="st8" d="M74.5,124.9c0,0.1,0,0.2,0,0.3s-0.1,0.2-0.1,0.3s0,0.2-0.1,0.3c0,0.1-0.1,0.2-0.1,0.3l-0.1,0.3
				c-0.1,0.1-0.1,0.2-0.2,0.3l-0.2,0.3c-0.1,0.1-0.2,0.2-0.3,0.3c-0.1,0.1-0.1,0.2-0.2,0.3c-0.1,0.1-0.2,0.2-0.3,0.3l-0.2,0.2
				l-0.5,0.4l-0.2,0.2c-0.3,0.2-0.5,0.3-0.8,0.5c-4.5,2.6-11.8,2.6-16.3,0c-0.3-0.2-0.5-0.3-0.8-0.5l-0.2-0.2l-0.4-0.4l-0.2-0.2
				c-0.1-0.1-0.2-0.2-0.3-0.3l-0.2-0.3c-0.1-0.1-0.2-0.2-0.3-0.3c-0.1-0.1-0.1-0.2-0.2-0.3c-0.1-0.1-0.1-0.2-0.2-0.3
				s-0.1-0.2-0.1-0.3c-0.1-0.1-0.1-0.2-0.1-0.3l-0.1-0.3c0-0.1-0.1-0.2-0.1-0.3c0-0.1,0-0.2,0-0.3c-0.2-1.8,1-3.7,3.4-5.1
				c4.5-2.6,11.8-2.6,16.3,0c2.2,1.3,3.3,3,3.3,4.7C74.5,124.7,74.5,124.8,74.5,124.9z"/>
			<path class="st9" d="M18.8,255.6l43.4,25.1l0.8,2.7l1.9-1.1v-3.4l0.1-44.9l0,0v-2.2l0.1-49.1l-4.8,0.2l-18.2,9.7l-10-17.4
				L20.5,166l-1.4-9.9l-0.3,96.2L18.8,255.6z M21.8,243.4l0.1-32.7v6l0.2,0.1c1,0.8,2.4,0.9,3.5,0.3L39.9,242l-10.4,5.9L21.8,243.4z
				 M54.4,262.2l-10.3-17.8l14.4-8.2c0.8,1.5,2,2.8,3.5,3.7l0.2,0.1L62,266.7L54.4,262.2z M27,206.4c0-0.1,0-0.3,0-0.4l15.1-8.6
				l14.9,25.9c0,0.2,0,0.3,0,0.5v2.3L27,208.6V206.4z M42,240.8l-15.1-26.1c0-0.2,0-0.4,0-0.6V212l30,17.4v2.1c0,0.3,0,0.5,0,0.8
				L42,240.8z M40.1,193.8L25.8,202c-0.8-1.6-2.1-3-3.6-4l-0.2-0.1l0.1-27.7l6.6,3.9L40.1,193.8z M55.7,189.7l6.5,3.8l-0.1,27.7
				L62,221c-1.4-0.8-2.7-0.9-3.6-0.3l-14.2-24.6L55.7,189.7z M24.5,255.5l17.5-9.9l17.3,30L24.5,255.5z"/>
			<polygon class="st10" points="20.1,163.6 26.7,175.1 20.1,171.3 			"/>
			<polygon class="st10" points="60.4,187 60.3,194.5 53.8,190.7 			"/>
			<polygon class="st10" points="27.7,249 19.8,253.5 19.9,244.5 			"/>
			<polygon class="st10" points="60.1,276.6 52.4,263.3 60.1,267.8 			"/>
			<path class="st10" d="M55.2,224.3l2.4,4.1l-2.4-1.4v-2.2C55.1,224.7,55.2,224.5,55.2,224.3z"/>
			<path class="st10" d="M60,222.1l0.2,0.1v6.2l-3.8-6.6C57.6,221.2,59,221.3,60,222.1z"/>
			<path class="st10" d="M55.1,230.4l2.6,1.5l-2.5,1.4c0-0.3,0-0.5,0-0.8L55.1,230.4z"/>
			<path class="st10" d="M60,241c-1.5-0.9-2.6-2.2-3.5-3.7l3.7-2.1v5.9L60,241z"/>
			<path class="st10" d="M25,215.9l-2.4-4.2l2.5,1.4v2.1C25.1,215.4,25.1,215.7,25,215.9z"/>
			<path class="st10" d="M25.1,207.5v2.2l-2.3-1.3l2.3-1.3C25.1,207.2,25.1,207.4,25.1,207.5z"/>
			<path class="st10" d="M23.9,203.1l-3.9,2.2V199l0.2,0.1C21.8,200.1,23,201.5,23.9,203.1z"/>
			<path class="st10" d="M20.2,218l-0.2-0.1v-6l3.7,6.5C22.5,218.9,21.2,218.8,20.2,218z"/>
			<polygon class="st11" points="60.4,182.1 60.5,182.2 60.4,182.3 			"/>
			<polygon class="st11" points="60.4,187 53.8,190.7 42.3,197.3 40.2,198.5 25.1,207.1 22.8,208.4 21.2,209.3 20,207.1 18.6,207.9 
				17.8,206.5 18.7,206 20,205.3 23.9,203.1 38.2,194.9 40.2,193.7 60.4,182.3 60.5,182.2 62.6,185.7 			"/>
			<polygon class="st11" points="16.9,253.3 18.5,254.3 19.8,253.5 27.7,249 38,243.1 40.1,242 55.2,233.4 57.7,231.9 59.1,231.1 
				60.4,230.4 61.7,232.8 62.4,234 61.8,234.3 60.2,235.2 56.5,237.3 42.2,245.5 40.1,246.7 22.6,256.6 57.4,276.7 60.3,281.7 
				16.9,256.7 			"/>
			<polygon class="st11" points="61.5,279.1 63,279.9 63,280.2 63,283.3 60.3,281.7 62.4,280.5 			"/>
			<polygon class="st11" points="40.1,246.7 42.2,245.5 52.4,263.3 60.1,276.6 60.1,267.8 60.2,241.1 60.2,235.2 61.8,234.3 
				62.4,234 61.7,232.8 60.4,230.4 59.1,231.1 57.7,231.9 55.1,230.4 25.1,213.1 22.6,211.6 25,215.9 40.1,242 38,243.1 23.7,218.3 
				20,211.8 19.9,244.5 19.8,253.5 18.5,254.3 16.9,253.3 17.2,157.2 20.1,161.2 20.5,164.3 28.1,172.8 40.2,193.7 38.2,194.9 
				26.7,175.1 20.1,163.6 20.1,171.3 20,198.9 20,205.3 18.7,206 17.8,206.5 18.6,207.9 20,207.1 21.2,209.3 22.8,208.4 25.1,209.7 
				55.1,227.1 57.5,228.5 55.2,224.3 40.2,198.5 42.3,197.3 56.4,221.8 60.2,228.4 60.3,222.2 60.3,194.5 60.4,187 62.6,185.7 
				60.5,182.2 63.3,183.8 63.2,232.9 63.1,235.1 63.1,235.1 63,279.9 61.5,279.1 62.4,280.5 60.3,281.7 60.3,281.7 57.4,276.7 			
				"/>
			<path class="st11" d="M107.2,252.2l-0.3-96.2l-1.4,9.9l-11.6,9.3l-10,17.4l-18.2-9.7l-2.2,0.1L63,279.7v3.6l0.8-2.7l43.4-25.1
				L107.2,252.2z M96.4,247.9L86.1,242l14.3-24.8c1.1,0.6,2.5,0.4,3.5-0.3l0.2-0.1v-6l0.1,32.7L96.4,247.9z M64,266.7L63.9,240
				l0.2-0.1c1.4-0.9,2.6-2.2,3.5-3.7l14.4,8.2l-10.3,17.8L64,266.7z M99,208.7L69,226v-2.2c0-0.2,0-0.4,0-0.5l14.9-25.9l15.1,8.6
				c0,0.1,0,0.3,0,0.4L99,208.7z M69,232.3c0-0.3,0-0.5,0-0.8v-2.1L99,212v2.1c0,0.2,0,0.4,0,0.6l-15,26.1L69,232.3z M97.4,174
				l6.7-3.8l0.1,27.7l-0.2,0.1c-1.6,1-2.8,2.4-3.7,4L86,193.8L97.4,174z M81.8,196.2l-14.2,24.5c-0.9-0.6-2.2-0.6-3.6,0.3l-0.2,0.1
				l-0.1-27.7l6.5-3.8L81.8,196.2z M66.7,275.6l17.3-30l17.4,9.9L66.7,275.6z"/>
			<polygon class="st12" points="105.9,163.6 99.3,175.1 106,171.3 			"/>
			<polygon class="st12" points="65.7,187 65.7,194.5 72.2,190.7 			"/>
			<polygon class="st12" points="98.4,249 106.2,253.5 106.2,244.5 			"/>
			<polygon class="st12" points="65.9,276.6 73.6,263.3 65.9,267.8 			"/>
			<path class="st12" d="M70.9,224.3l-2.4,4.1l2.4-1.4v-2.2C70.9,224.7,70.9,224.5,70.9,224.3z"/>
			<path class="st12" d="M66,222.1l-0.2,0.1v6.2l3.8-6.6C68.4,221.2,67,221.3,66,222.1z"/>
			<path class="st12" d="M70.9,230.4l-2.6,1.5l2.6,1.4c0-0.3,0-0.5,0-0.8L70.9,230.4z"/>
			<path class="st12" d="M66.1,241c1.4-0.9,2.6-2.2,3.5-3.7l-3.7-2.1v5.9L66.1,241z"/>
			<path class="st12" d="M101,215.9l2.4-4.2l-2.4,1.4v2.1C101,215.4,101,215.7,101,215.9z"/>
			<path class="st12" d="M100.9,207.5v2.2l2.3-1.3l-2.3-1.3C101,207.2,100.9,207.4,100.9,207.5z"/>
			<path class="st12" d="M102.2,203.1l3.9,2.2V199l-0.2,0.1C104.3,200.1,103,201.4,102.2,203.1z"/>
			<path class="st12" d="M105.9,218l0.2-0.1v-6l-3.7,6.5C103.5,218.9,104.9,218.8,105.9,218z"/>
			<polygon class="st9" points="65.7,182.1 65.5,182.2 65.7,182.3 			"/>
			<polygon class="st9" points="65.7,187 72.2,190.7 83.8,197.3 85.8,198.5 100.9,207.1 103.3,208.4 104.8,209.3 106.1,207.1 
				107.5,207.9 108.2,206.5 107.4,206 106.1,205.3 102.2,203.1 87.9,194.9 85.8,193.7 65.7,182.3 65.5,182.2 63.5,185.7 			"/>
			<polygon class="st9" points="109.1,253.3 107.5,254.3 106.2,253.5 98.4,249 88,243.1 85.9,242 70.9,233.4 68.3,231.9 66.9,231.1 
				65.7,230.4 64.3,232.8 63.6,234 64.2,234.3 65.8,235.2 69.5,237.3 83.9,245.5 85.9,246.7 103.4,256.6 68.6,276.7 65.7,281.7 
				109.1,256.7 			"/>
			<polygon class="st9" points="64.5,279.1 63,279.9 63,280.2 63,283.3 65.7,281.7 63.7,280.5 			"/>
			<polygon class="st9" points="85.9,246.7 83.9,245.5 73.6,263.3 65.9,276.6 65.9,267.8 65.8,241.1 65.8,235.2 64.2,234.3 
				63.6,234 64.3,232.8 65.7,230.4 66.9,231.1 68.3,231.9 70.9,230.4 101,213.1 103.4,211.6 101,215.9 85.9,242 88,243.1 
				102.3,218.3 106.1,211.8 106.2,244.5 106.2,253.5 107.5,254.3 109.1,253.3 108.8,157.2 105.9,161.2 105.5,164.3 97.9,172.8 
				85.8,193.7 87.9,194.9 99.3,175.1 105.9,163.6 106,171.3 106,198.9 106.1,205.3 107.4,206 108.2,206.5 107.5,207.9 106.1,207.1 
				104.8,209.3 103.3,208.4 100.9,209.7 70.9,227.1 68.5,228.5 70.9,224.3 85.8,198.5 83.8,197.3 69.6,221.8 65.8,228.4 65.8,222.2 
				65.7,194.5 65.7,187 63.5,185.7 65.5,182.2 62.8,183.8 62.9,232.9 62.9,235.1 62.9,235.1 63,279.9 64.5,279.1 63.7,280.5 
				65.7,281.7 65.7,281.7 68.6,276.7 			"/>
			<path class="st3" d="M17.1,158c0,0.4,0,0.8,0.1,1.2c0.1,0.5,0.2,0.9,0.3,1.4c0.1,0.4,0.2,0.8,0.3,1.2s0.4,0.9,0.6,1.4
				s0.3,0.8,0.5,1.1s0.5,0.9,0.8,1.4s0.4,0.7,0.7,1.1s0.7,0.9,1.1,1.3s0.5,0.7,0.8,1s0.9,0.9,1.4,1.3s0.6,0.6,1,0.9
				c0.5,0.5,1.1,0.9,1.8,1.4c0.3,0.3,0.6,0.5,1,0.8c1,0.7,2,1.4,3.2,2c18,10.5,47.3,10.5,65.5,0c1.1-0.7,2.2-1.3,3.2-2
				c0.3-0.2,0.6-0.5,0.9-0.7c0.6-0.5,1.3-1,1.9-1.5c0.3-0.3,0.6-0.6,0.9-0.9c0.5-0.5,1-0.9,1.4-1.4s0.6-0.7,0.8-1s0.8-0.9,1.1-1.4
				s0.4-0.7,0.7-1.1s0.6-0.9,0.8-1.4s0.3-0.8,0.5-1.2c0.2-0.4,0.4-0.9,0.6-1.4c0.1-0.4,0.2-0.8,0.3-1.2s0.3-0.9,0.3-1.4
				s0.1-0.8,0.1-1.2c0.1-0.5,0.1-0.9,0.1-1.4c0,0,0-0.1,0-0.1v1.8c0,6.9-4.5,13.8-13.7,19.1c-18.1,10.5-47.4,10.5-65.5,0
				c-9-5.2-13.4-12-13.5-18.8v-1.8C17,157.2,17.1,157.6,17.1,158z"/>
			<path class="st13" d="M19.9,147.4v8c-0.1,0.8-0.1,1.7,0,2.5c0,0.4,0,0.8,0.1,1.1s0.2,0.9,0.3,1.3s0.2,0.7,0.3,1.1
				s0.4,0.9,0.5,1.3s0.3,0.7,0.5,1.1s0.5,0.9,0.8,1.3s0.4,0.7,0.6,1s0.7,0.8,1,1.3s0.5,0.6,0.8,1s0.8,0.8,1.3,1.3s0.6,0.6,0.9,0.9
				c0.5,0.4,1.1,0.9,1.6,1.3c0.3,0.2,0.6,0.5,0.9,0.7c0.9,0.6,1.9,1.3,3,1.9c16.9,9.8,44.4,9.8,61.5,0c1.1-0.6,2.1-1.3,3-1.9
				c0.3-0.2,0.6-0.4,0.9-0.7c0.6-0.4,1.2-0.9,1.7-1.4c0.3-0.3,0.6-0.6,0.9-0.9c0.4-0.4,0.9-0.9,1.3-1.3s0.5-0.6,0.8-1s0.7-0.8,1-1.3
				s0.4-0.7,0.6-1s0.6-0.8,0.8-1.3s0.3-0.7,0.5-1.1s0.4-0.9,0.5-1.3s0.2-0.7,0.3-1.1s0.3-0.9,0.3-1.3s0.1-0.8,0.1-1.1
				s0.1-0.9,0.1-1.3c0-0.6,0-1.1-0.1-1.7v-7.8c1.9,2.8,3,6.1,3,9.4c0,0.5,0,0.9-0.1,1.4c0,0.4,0,0.8-0.1,1.2s-0.2,0.9-0.3,1.4
				s-0.2,0.8-0.3,1.2c-0.2,0.5-0.4,0.9-0.6,1.4c-0.2,0.4-0.3,0.8-0.5,1.1s-0.5,0.9-0.8,1.4s-0.4,0.7-0.7,1.1s-0.7,0.9-1.1,1.4
				s-0.5,0.7-0.8,1s-0.9,0.9-1.4,1.4c-0.3,0.3-0.6,0.6-0.9,0.9c-0.6,0.5-1.2,1-1.9,1.5c-0.3,0.2-0.6,0.5-0.9,0.7
				c-1,0.7-2.1,1.4-3.2,2C77.8,186,48.5,186,30.5,175.6c-1.1-0.6-2.2-1.3-3.2-2c-0.4-0.3-0.6-0.5-1-0.8c-0.6-0.5-1.2-0.9-1.8-1.4
				c-0.4-0.3-0.6-0.6-1-0.9s-1-0.9-1.4-1.3s-0.5-0.7-0.8-1s-0.8-0.9-1.1-1.3s-0.4-0.7-0.7-1.1s-0.6-0.9-0.8-1.4s-0.3-0.8-0.5-1.1
				s-0.4-0.9-0.6-1.4s-0.2-0.8-0.3-1.2c-0.1-0.4-0.2-0.9-0.3-1.4c-0.1-0.4-0.1-0.8-0.1-1.2C16.8,154.3,17.8,150.6,19.9,147.4z"/>
			<path class="st14" d="M45.8,43.8c4.7-5.6,3.8-29.3,3.8-29.3h25.8c0,0-1,24,3.6,29.9c17.3,21.8,43.7,30.6,43.7,59.6
				c0,33.9-27.5,61.4-61.4,61.4S0,137.9,0,104C0,74.1,27.5,66,45.8,43.8z"/>
			<path class="st15" d="M7.4,100.8l-2.9,2.9c0,3.6,0.3,7.2,1,10.8c6,30.8,35.8,51,66.6,45c23-4.4,40.9-22.5,45.1-45.5
				c0.7-3.4,1-6.8,1-10.3l-3.5-3c-6.7-9.8-26.2-16.4-53.4-16.4C34.4,84.3,14.6,91.3,7.4,100.8z"/>
			<path class="st16" d="M7.4,100.8c7.2-9.6,27-16.5,53.8-16.5c2,0,3.8,0.1,5.7,0.2c-24,0.9-41.8,7.4-48.4,16.3l-2.9,2.9
				c0,3.6,0.3,7.2,1,10.8c4.8,24.7,25.4,43.3,50.5,45.7c-1.8,0.3-3.6,0.4-5.5,0.5c-27.3,0-50.8-19.3-56-46.2c-0.7-3.5-1-7.2-1-10.8
				L7.4,100.8z"/>
			<path class="st15" d="M4.2,104.9c0,2.5,1.2,4.9,3,7.2c7.9,8.8,29,14.8,54,14.8c25.5,0,46.8-6.3,54.2-15.3
				c1.7-1.8,2.7-4.2,2.8-6.7c-0.1-2-0.7-3.9-1.9-5.6c-6.5-9.5-28.7-16.5-55.1-16.5c-26,0-48,6.7-54.9,16
				C5,100.6,4.2,102.7,4.2,104.9z"/>
			<path class="st15" d="M17.9,104.9c0.1,1.9,0.9,3.8,2.2,5.2c5.7,6.3,20.9,10.7,38.9,10.7c18.4,0,33.8-4.5,39.1-11
				c1.2-1.3,2-3,2-4.8c-0.1-1.4-0.5-2.8-1.3-4C94.1,94,78.1,89,59,89c-18.7,0-34.6,4.8-39.6,11.5C18.4,101.8,17.9,103.3,17.9,104.9z
				"/>
			<path class="st15" d="M46.5,104.9c0,0.6,0.3,1.1,0.7,1.6c1.7,1.9,6.4,3.3,11.9,3.3s10.3-1.4,11.9-3.4c0.4-0.4,0.6-0.9,0.6-1.5
				c0-0.4-0.2-0.9-0.4-1.2c-1.4-2.1-6.3-3.7-12.1-3.7s-10.5,1.5-12,3.5C46.7,103.9,46.5,104.4,46.5,104.9z"/>
			<path class="st15" d="M68.8,105.4c0,0.3,0.1,0.6,0.3,0.8c0.8,1,3,1.8,5.6,1.8s4.9-0.7,5.7-1.8c0.2-0.2,0.3-0.5,0.3-0.8
				c0-0.2-0.1-0.5-0.2-0.7c-0.7-1.1-3-2-5.8-2s-5,0.8-5.7,1.9C68.9,104.9,68.8,105.1,68.8,105.4z"/>
			<path class="st15" d="M43.2,107.6c0,0.2,0.1,0.4,0.2,0.6c0.5,0.8,2,1.3,3.7,1.3s3.2-0.5,3.7-1.3c0.1-0.2,0.2-0.4,0.2-0.6
				c0-0.2,0-0.3-0.1-0.5c-0.5-0.8-2-1.4-3.8-1.4s-3.3,0.6-3.7,1.4C43.2,107.2,43.2,107.4,43.2,107.6z"/>
			<path class="st14" d="M21.7,105.8c0.1,1.9,0.9,3.7,2.2,5.1c1.3,1.4,2.8,2.5,4.4,3.5c3.3,1.8,6.8,3.2,10.5,4.2
				c0.1,0,0.1,0,0.2-0.1s0-0.1-0.1-0.2c0,0,0,0,0,0l0,0c-3.7-0.9-7.2-2.2-10.5-4c-1.6-0.9-3.1-2-4.5-3.4
				C22.6,109.5,21.8,107.7,21.7,105.8z"/>
			<path class="st14" d="M61.2,121.5c7.6,0.2,15.2-0.6,22.6-2.3c0.4-0.1,0.7-0.5,0.6-0.9c-0.1-0.4-0.5-0.7-0.9-0.6l0,0l0,0
				c-7.2,1.9-14.7,2.9-22.2,2.9c-0.2,0-0.4,0.2-0.4,0.4C60.8,121.3,60.9,121.5,61.2,121.5z"/>
			<path class="st14" d="M101.6,105.9c-0.1-2.1-1-4.1-2.5-5.6c-1.4-1.4-2.9-2.6-4.7-3.6c-3.4-1.8-7-3.2-10.7-4.1
				c-0.4-0.1-0.8,0.1-0.9,0.5c-0.1,0.4,0.1,0.8,0.5,0.9l0,0c3.6,0.9,7,2.3,10.3,4.1c1.6,0.9,3,2,4.2,3.3c1.2,1.2,1.9,2.8,2,4.5l0,0
				c0,0.5,0.4,0.9,0.9,0.9C101.2,106.7,101.6,106.3,101.6,105.9L101.6,105.9z"/>
			<path class="st14" d="M61.2,90.1c-7.6,0.1-15.1,1.1-22.4,3c-0.1,0-0.1,0.1-0.1,0.2c0,0.1,0.1,0.1,0.2,0.1
				c7.3-1.7,14.8-2.5,22.3-2.4c0.2,0,0.5-0.1,0.5-0.4c0-0.2-0.1-0.5-0.4-0.5C61.3,90.1,61.3,90.1,61.2,90.1L61.2,90.1z"/>
			<path class="st14" d="M61.9,100.6c-3.6-1-7.3-1.3-11-0.8c-3.7,0.4-7.3,1.8-10.3,4.1c3.4-1.1,7-1.9,10.5-2.3
				C54.7,101.1,58.2,100.9,61.9,100.6z"/>
			<path class="st14" d="M89,105.8c-0.2,1.8-1.1,3.4-2.5,4.4c-1.4,1.1-2.9,2-4.5,2.6c-3.3,1.3-6.7,2.2-10.2,2.6
				c-0.1,0-0.2,0.1-0.2,0.3c0,0.1,0.1,0.2,0.3,0.2l0,0c3.5-0.6,6.9-1.6,10.2-2.9c1.6-0.7,3.2-1.6,4.5-2.7
				C88,109.3,88.9,107.6,89,105.8z"/>
			<path class="st14" d="M50.8,115.1c-3.4-0.6-6.8-1.5-10-2.9c-1.6-0.7-3-1.5-4.3-2.6c-1.2-1.1-2.3-2.4-2.2-3.8
				c0-0.5-0.4-0.9-0.9-0.9c0,0,0,0,0,0c-0.5,0-0.9,0.4-0.9,0.8c0,0,0,0,0,0v0.1c0,1.1,0.3,2.1,0.9,3c0.6,0.8,1.2,1.5,2,2.1
				c1.4,1.2,3,2.1,4.8,2.8c3.3,1.4,6.8,2.3,10.4,2.7c0.4,0.1,0.7-0.2,0.7-0.6c0,0,0,0,0,0C51.4,115.5,51.2,115.2,50.8,115.1
				C50.8,115.1,50.8,115.1,50.8,115.1z"/>
			<path class="st14" d="M50.8,96.6c6.9-1.2,14-1.4,21-0.4c0.1,0,0.2-0.1,0.3-0.2c0-0.1-0.1-0.2-0.2-0.3c-7-1.2-14.2-1.4-21.2-0.4
				c-0.4,0-0.6,0.4-0.6,0.8C50,96.4,50.4,96.6,50.8,96.6L50.8,96.6z"/>
			<path class="st17" d="M45.8,43.8c4.7-5.6,3.8-29.3,3.8-29.3h11.7c0,0,0.8,23.6-3.8,29.3C39.2,66,11.7,74.1,11.7,104
				c0.1,31.5,24.1,57.9,55.5,60.8c-2,0.2-3.8,0.6-5.9,0.6C27.5,165.4,0,137.9,0,104c0,0,0,0,0,0C0,74.1,27.5,66,45.8,43.8z"/>
			<path class="st18" d="M39.8,11.3c0,5.8,10.2,10.4,22.7,10.4s22.7-4.7,22.7-10.4S75.1,0.9,62.5,0.9S39.8,5.6,39.8,11.3z"/>
			<path class="st14" d="M42.5,8.8c0,4.8,9,8.6,20,8.6s20-3.9,20-8.6s-9-8.6-20-8.6S42.5,4,42.5,8.8z"/>
			<path class="st19" d="M49.7,7.3c0,3.1,5.7,5.5,12.8,5.5s12.8-2.5,12.8-5.5s-5.7-5.5-12.8-5.5S49.7,4.3,49.7,7.3z"/>
			<g>
				<defs>
					<ellipse id="SVGID_2_" cx="62.5" cy="7.3" rx="12.8" ry="5.5"/>
				</defs>
				<clipPath id="SVGID_3_">
					<use xlink:href="#SVGID_2_"  style="overflow:visible;"/>
				</clipPath>
				<g class="st20">
					<polygon class="st21" points="62.5,1.6 65.2,18.3 55.6,18.3 52.8,0 					"/>
				</g>
			</g>
			<path class="st22" d="M62.5,2.7c-6.7,0-12,2.2-12.6,5.1c0-0.2-0.2-0.3-0.2-0.5c0-3,5.7-5.5,12.8-5.5s12.8,2.5,12.8,5.5
				c0,0.2-0.2,0.3-0.2,0.5C74.6,5,69.2,2.7,62.5,2.7z"/>
			<path class="st22" d="M50.1,8.7c-0.2-0.3-0.3-0.6-0.2-1c0-2.9,5.5-5.5,12.5-5.5c6.7,0,12.5,2.5,12.5,5.5c0,0.8-0.4,1.6-1,2.1
				c0.8-0.5,1.4-1.4,1.4-2.4c0-3.1-5.8-5.6-12.7-5.6c-7.2,0-13,2.5-13,5.6C49.7,7.9,49.9,8.3,50.1,8.7z"/>
			<path class="st23" d="M91.8,96.7c7.7,8.5,18.1,11.7,23.1,7.1s3-15.2-4.8-23.7s-18.1-11.7-23.1-7S84.2,88.2,91.8,96.7z"/>
			<path class="st14" d="M77.8,107.8c-1.5,0.7-3,1.2-4.5,1.7c-1.5,0.5-3,0.9-4.5,1.2c-1.5,0.3-3.1,0.6-4.7,0.8l-4.8,0.5
				c1.6,0.5,3.2,0.8,4.9,0.9c1.7,0.1,3.4-0.1,5-0.4C72.5,111.8,75.5,110.2,77.8,107.8z"/>
			<path class="st24" d="M49,104.9c0.1,0.8,0.5,1.5,1.2,1.9c0.6,0.4,1.3,0.8,2,1l0,0l0,0l0,0c-0.7-0.2-1.4-0.6-2-1
				C49.6,106.3,49.1,105.7,49,104.9z"/>
			<path class="st24" d="M56.7,108.7l2.3,0.2l2.3-0.1c0.1,0,0.2-0.1,0.2-0.2c0,0,0,0,0,0c0-0.1-0.1-0.2-0.2-0.2l0,0l0,0l-2.3,0.1
				h-2.3C56.7,108.6,56.7,108.6,56.7,108.7C56.6,108.7,56.6,108.7,56.7,108.7C56.7,108.7,56.7,108.7,56.7,108.7z"/>
			<path class="st24" d="M65.8,108c0.7-0.2,1.5-0.6,2.1-1c0.8-0.4,1.3-1.2,1.4-2.1c0-0.2-0.1-0.3-0.3-0.3c-0.2,0-0.3,0.1-0.3,0.3
				l0,0c-0.1,0.7-0.5,1.3-1.1,1.6c-0.6,0.4-1.3,0.8-2,1c-0.1,0.1-0.2,0.2-0.2,0.3C65.5,108,65.7,108.1,65.8,108
				C65.8,108,65.8,108,65.8,108z"/>
			<path class="st24" d="M65.9,101.8c-1.5-0.5-3-0.8-4.5-0.9c-0.1,0-0.2,0.1-0.2,0.2c0,0,0,0,0,0c0,0.1,0.1,0.2,0.2,0.2
				c1.5,0.2,3,0.5,4.4,1c0.1,0,0.3,0,0.3-0.2C66.1,102,66,101.9,65.9,101.8L65.9,101.8z"/>
			<path class="st24" d="M56.7,101c-1.5,0.2-3,0.5-4.5,1l0,0l0,0c1.4-0.5,3-0.7,4.5-0.8C56.8,101.2,56.8,101.1,56.7,101
				C56.8,101,56.8,101,56.7,101C56.7,101,56.7,101,56.7,101L56.7,101z"/>
			<path class="st24" d="M66,104.9c0,0.4-0.3,0.8-0.6,1.1c-0.3,0.3-0.7,0.5-1.1,0.7c-0.8,0.3-1.7,0.6-2.5,0.7c0,0-0.1,0-0.1,0.1
				c0,0,0,0.1,0.1,0.1l0,0c0.9-0.2,1.7-0.4,2.5-0.7c0.4-0.2,0.8-0.4,1.1-0.7C65.7,105.7,66,105.3,66,104.9z"/>
			<path class="st24" d="M56.4,107.1c-0.9-0.1-1.7-0.4-2.5-0.7c-0.7-0.3-1.6-0.9-1.6-1.5c0-0.2-0.1-0.3-0.3-0.3c0,0,0,0,0,0
				c-0.2,0-0.3,0.1-0.3,0.3l0,0c0,0.5,0.3,1,0.8,1.3c0.4,0.3,0.8,0.5,1.2,0.7c0.8,0.3,1.7,0.6,2.6,0.7c0.1,0,0.2-0.1,0.3-0.2
				C56.6,107.3,56.5,107.2,56.4,107.1z"/>
			<path class="st24" d="M56.4,102.6l2.6-0.3l2.6,0.1l0,0c0,0,0.1,0,0.1-0.1s0-0.1-0.1-0.1L59,102l-2.7,0.1c-0.1,0-0.2,0.1-0.2,0.2
				c0,0,0,0,0,0C56.1,102.5,56.2,102.6,56.4,102.6C56.3,102.6,56.3,102.6,56.4,102.6L56.4,102.6L56.4,102.6z"/>
			<path class="st24" d="M61.1,103.6c-1.2-0.4-2.4-0.6-3.6-0.5c-1.2,0-2.5,0.3-3.5,1C56.3,103.5,58.7,103.7,61.1,103.6z"/>
			<polygon class="st25" points="97.4,268.5 96.7,268.1 96.7,264.4 97.3,264 			"/>
			<polygon class="st25" points="96.7,258.2 97.3,257.8 97.3,262.9 96.7,262.5 			"/>
			<polygon class="st26" points="96.7,262.5 97.3,262.9 91.4,266.3 91.4,265.5 			"/>
			<polygon class="st25" points="96.6,252 97.3,251.6 97.3,256.7 96.7,256.3 			"/>
			<polygon class="st26" points="91.4,259.3 96.7,256.3 97.3,256.7 91.4,260.1 			"/>
			<polygon class="st25" points="96.6,245.8 97.3,245.4 97.3,250.5 96.6,250.1 			"/>
			<polygon class="st26" points="91.4,253.1 96.6,250.1 97.3,250.5 91.4,253.9 			"/>
			<polygon class="st25" points="96.6,239.6 97.3,239.2 97.3,244.3 96.6,243.9 			"/>
			<polygon class="st26" points="91.4,246.9 96.6,243.9 97.3,244.3 91.4,247.7 			"/>
			<polygon class="st25" points="96.6,233.4 97.3,233 97.3,238.1 96.6,237.7 			"/>
			<polygon class="st26" points="91.4,240.7 96.6,237.7 97.3,238.1 91.4,241.5 			"/>
			<polygon class="st25" points="96.6,227.2 97.2,226.8 97.3,231.9 96.6,231.5 			"/>
			<polygon class="st26" points="91.4,234.5 96.6,231.5 97.3,231.9 91.4,235.3 			"/>
			<polygon class="st25" points="96.6,221 97.2,220.6 97.2,225.7 96.6,225.3 			"/>
			<polygon class="st26" points="91.3,228.3 96.6,225.3 97.2,225.7 91.3,229.1 			"/>
			<polygon class="st25" points="96.5,214.8 97.2,214.4 97.2,219.5 96.6,219.1 			"/>
			<polygon class="st26" points="91.3,222.1 96.6,219.1 97.2,219.5 91.3,222.9 			"/>
			<polygon class="st25" points="96.5,208.6 97.2,208.2 97.2,213.3 96.5,212.9 			"/>
			<polygon class="st26" points="91.3,215.9 96.5,212.9 97.2,213.3 91.3,216.7 			"/>
			<polygon class="st25" points="96.5,202.4 97.2,202 97.2,207.1 96.5,206.7 			"/>
			<polygon class="st26" points="91.3,209.7 96.5,206.7 97.2,207.1 91.3,210.5 			"/>
			<polygon class="st25" points="96.5,196.2 97.2,195.8 97.2,200.9 96.5,200.5 			"/>
			<polygon class="st26" points="91.3,203.5 96.5,200.5 97.2,200.9 91.3,204.3 			"/>
			<polygon class="st25" points="96.5,190 97.1,189.6 97.2,194.7 96.5,194.3 			"/>
			<polygon class="st26" points="91.3,197.3 96.5,194.3 97.2,194.7 91.3,198.1 			"/>
			<polygon class="st25" points="96.4,183.8 97.1,183.4 97.1,188.4 96.5,188.1 			"/>
			<polygon class="st26" points="91.2,191.1 96.5,188.1 97.1,188.4 91.2,191.9 			"/>
			<polygon class="st25" points="96.4,177.6 97.1,177.2 97.1,182.3 96.4,181.9 			"/>
			<polygon class="st26" points="91.2,184.9 96.4,181.9 97.1,182.3 91.2,185.7 			"/>
			<polygon class="st25" points="96.4,171.4 97.1,171 97.1,176.1 96.4,175.7 			"/>
			<polygon class="st26" points="91.2,178.7 96.4,175.7 97.1,176.1 91.2,179.5 			"/>
			<polygon class="st25" points="96.4,165.1 97.1,164.8 97.1,169.9 96.4,169.5 			"/>
			<polygon class="st26" points="91.2,172.5 96.4,169.5 97.1,169.9 91.2,173.3 			"/>
			<polygon class="st25" points="96.4,158.9 97.1,158.6 97.1,163.6 96.4,163.3 			"/>
			<polygon class="st26" points="91.2,166.3 96.4,163.3 97.1,163.6 91.2,167.1 			"/>
			<polygon class="st25" points="96.4,152.8 97,152.4 97.1,157.4 96.4,157.1 			"/>
			<polygon class="st26" points="91.2,160.1 96.4,157.1 97.1,157.4 91.2,160.8 			"/>
			<polygon class="st25" points="97,151.3 96.4,150.9 96.3,147.8 97,148.2 			"/>
			<polygon class="st26" points="96.3,147.8 97.8,147 98.5,147.4 97,148.2 			"/>
			<polygon class="st26" points="91.1,154.6 91.1,153.9 96.4,150.9 97,151.3 			"/>
			<polygon class="st26" points="89,152.1 90.5,151.2 91.1,151.6 89.7,152.5 			"/>
			<path class="st27" d="M89.7,152.5L90,272.8l1.4-0.8v-4.5l5.2-3l0.7-0.4v4.5l1.4-0.8l-0.3-120.3l-1.4,0.8v3l-5.9,3.4v-3
				L89.7,152.5z M97.1,157.5l-5.9,3.4v-5.1l5.2-3l0.7-0.4L97.1,157.5z M97.1,163.7l-5.9,3.4V162l5.2-3l0.7-0.4V163.7z M97.1,169.9
				l-5.9,3.4v-5.1l5.2-3l0.7-0.4V169.9z M97.1,176.1l-5.9,3.4v-5.1l5.2-3l0.7-0.4V176.1z M97.1,182.3l-5.9,3.4v-5.1l5.2-3l0.7-0.4
				L97.1,182.3z M97.1,188.5l-5.9,3.4v-5.1l5.2-3l0.7-0.4V188.5z M97.1,194.7l-5.9,3.4v-0.8V193l5.2-3l0.7-0.4L97.1,194.7z
				 M97.1,200.9l-5.9,3.4v-0.8v-4.3l5.2-3l0.7-0.4V200.9z M97.1,207.1l-5.9,3.4v-5.1l5.2-3l0.7-0.4V207.1z M97.1,213.3l-5.9,3.4
				v-5.1l5.2-3l0.7-0.4V213.3z M97.1,219.5l-5.9,3.4v-0.8v-4.3l5.2-3l0.7-0.4L97.1,219.5z M97.1,225.7l-5.9,3.4v-0.8V224l5.2-3
				l0.7-0.4L97.1,225.7z M97.1,231.9l-5.9,3.4v-5.1l5.2-3l0.7-0.4L97.1,231.9z M97.1,238.1l-5.9,3.4v-5.1l5.2-3l0.7-0.4V238.1z
				 M97.1,244.3l-5.9,3.4v-5.1l5.2-3l0.7-0.4V244.3z M97.1,250.5l-5.9,3.4v-5.1l5.2-3l0.7-0.4L97.1,250.5z M97.1,256.7l-5.9,3.4V255
				l5.2-3l0.7-0.4L97.1,256.7z M91.2,266.3v-5.1l5.2-3l0.7-0.4v5.1L91.2,266.3z"/>
			<polygon class="st25" points="89.7,152.5 90,272.8 89.4,272.4 89,152.1 			"/>
		</g>
	</g>
</g>
</svg>
