<svg xmlns="http://www.w3.org/2000/svg" xmlns:xlink="http://www.w3.org/1999/xlink" viewBox="0 0 199.86 248.13"><defs><style>.cls-1{fill:url(#Áåçûìÿííûé_ãðàäèåíò_62);}.cls-2{fill:url(#Áåçûìÿííûé_ãðàäèåíò_62-2);}.cls-3{fill:url(#Áåçûìÿííûé_ãðàäèåíò_62-3);}.cls-4{fill:url(#Áåçûìÿííûé_ãðàäèåíò_62-4);}.cls-5{fill:url(#Áåçûìÿííûé_ãðàäèåíò_1114);}.cls-6{fill:url(#Áåçûìÿííûé_ãðàäèåíò_1114-2);}.cls-7{fill:url(#Áåçûìÿííûé_ãðàäèåíò_1114-3);}.cls-8{fill:url(#Áåçûìÿííûé_ãðàäèåíò_1114-4);}.cls-9{fill:url(#Áåçûìÿííûé_ãðàäèåíò_1114-5);}.cls-10{isolation:isolate;}.cls-11{fill:url(#Áåçûìÿííûé_ãðàäèåíò_62-5);}.cls-12{fill:url(#Áåçûìÿííûé_ãðàäèåíò_62-6);}.cls-13{fill:url(#Áåçûìÿííûé_ãðàäèåíò_1114-6);}.cls-14{fill:url(#Áåçûìÿííûé_ãðàäèåíò_1114-7);}.cls-15{fill:url(#Áåçûìÿííûé_ãðàäèåíò_1114-8);}.cls-16{fill:url(#Áåçûìÿííûé_ãðàäèåíò_1114-9);}.cls-17{clip-path:url(#clip-path);}.cls-18{fill:url(#Áåçûìÿííûé_ãðàäèåíò_62-8);}.cls-19{fill:url(#Áåçûìÿííûé_ãðàäèåíò_62-9);}.cls-20{fill:url(#Áåçûìÿííûé_ãðàäèåíò_62-10);}.cls-21{fill:url(#Áåçûìÿííûé_ãðàäèåíò_62-11);}.cls-22{fill:url(#Áåçûìÿííûé_ãðàäèåíò_62-12);}.cls-23{fill:url(#Áåçûìÿííûé_ãðàäèåíò_62-13);}.cls-24{fill:url(#Áåçûìÿííûé_ãðàäèåíò_62-14);}.cls-25{fill:url(#Áåçûìÿííûé_ãðàäèåíò_62-15);}.cls-26{fill:url(#Áåçûìÿííûé_ãðàäèåíò_62-16);}.cls-27{fill:url(#Áåçûìÿííûé_ãðàäèåíò_62-17);}.cls-28{fill:url(#Áåçûìÿííûé_ãðàäèåíò_62-18);}.cls-29{fill:url(#Áåçûìÿííûé_ãðàäèåíò_62-19);}.cls-30{fill:url(#Áåçûìÿííûé_ãðàäèåíò_62-20);}.cls-31{fill:url(#Áåçûìÿííûé_ãðàäèåíò_62-21);}.cls-32{fill:url(#Áåçûìÿííûé_ãðàäèåíò_62-22);}.cls-33{fill:url(#Áåçûìÿííûé_ãðàäèåíò_62-23);}.cls-34{fill:url(#Áåçûìÿííûé_ãðàäèåíò_62-24);}.cls-35{fill:url(#Áåçûìÿííûé_ãðàäèåíò_62-25);}.cls-36{fill:url(#Áåçûìÿííûé_ãðàäèåíò_62-26);}.cls-37{fill:url(#Áåçûìÿííûé_ãðàäèåíò_62-27);}.cls-38{fill:url(#Áåçûìÿííûé_ãðàäèåíò_62-28);}.cls-39{fill:url(#Áåçûìÿííûé_ãðàäèåíò_62-29);}.cls-40{fill:url(#Áåçûìÿííûé_ãðàäèåíò_62-30);}.cls-41{fill:url(#Áåçûìÿííûé_ãðàäèåíò_62-31);}.cls-42{fill:url(#Áåçûìÿííûé_ãðàäèåíò_62-32);}.cls-43{fill:url(#Áåçûìÿííûé_ãðàäèåíò_62-33);}.cls-44{fill:url(#Áåçûìÿííûé_ãðàäèåíò_62-34);}.cls-45{fill:url(#Áåçûìÿííûé_ãðàäèåíò_62-35);}.cls-46{fill:url(#Áåçûìÿííûé_ãðàäèåíò_62-36);}.cls-47{fill:url(#Áåçûìÿííûé_ãðàäèåíò_62-37);}.cls-48{fill:url(#Áåçûìÿííûé_ãðàäèåíò_62-38);}.cls-49{fill:url(#Áåçûìÿííûé_ãðàäèåíò_62-39);}.cls-50{fill:url(#Áåçûìÿííûé_ãðàäèåíò_62-40);}.cls-51{fill:url(#Áåçûìÿííûé_ãðàäèåíò_62-41);}.cls-52{fill:url(#Áåçûìÿííûé_ãðàäèåíò_62-42);}.cls-53{clip-path:url(#clip-path-2);}.cls-54{fill:url(#Áåçûìÿííûé_ãðàäèåíò_62-44);}.cls-55{fill:url(#Áåçûìÿííûé_ãðàäèåíò_62-45);}.cls-56{fill:url(#Áåçûìÿííûé_ãðàäèåíò_62-46);}.cls-57{fill:url(#Áåçûìÿííûé_ãðàäèåíò_62-47);}.cls-58{fill:url(#Áåçûìÿííûé_ãðàäèåíò_62-48);}.cls-59{fill:url(#Áåçûìÿííûé_ãðàäèåíò_62-49);}.cls-60{fill:url(#Áåçûìÿííûé_ãðàäèåíò_62-50);}.cls-61{fill:url(#Áåçûìÿííûé_ãðàäèåíò_62-51);}.cls-62{fill:url(#Áåçûìÿííûé_ãðàäèåíò_62-52);}.cls-63{fill:url(#Áåçûìÿííûé_ãðàäèåíò_62-53);}.cls-64{fill:url(#Áåçûìÿííûé_ãðàäèåíò_62-54);}.cls-65{fill:url(#Áåçûìÿííûé_ãðàäèåíò_62-55);}.cls-66{fill:url(#Áåçûìÿííûé_ãðàäèåíò_62-56);}.cls-67{fill:url(#Áåçûìÿííûé_ãðàäèåíò_62-57);}.cls-68{fill:url(#Áåçûìÿííûé_ãðàäèåíò_62-58);}.cls-69{clip-path:url(#clip-path-3);}.cls-70{clip-path:url(#clip-path-4);}.cls-71{fill:url(#Áåçûìÿííûé_ãðàäèåíò_62-62);}.cls-72{fill:url(#Áåçûìÿííûé_ãðàäèåíò_62-63);}.cls-73{fill:url(#Áåçûìÿííûé_ãðàäèåíò_62-64);}.cls-74{fill:url(#Áåçûìÿííûé_ãðàäèåíò_1114-10);}.cls-75{fill:url(#Áåçûìÿííûé_ãðàäèåíò_1114-11);}.cls-76{fill:url(#Áåçûìÿííûé_ãðàäèåíò_1114-12);}.cls-77{clip-path:url(#clip-path-5);}.cls-78{fill:url(#Áåçûìÿííûé_ãðàäèåíò_1114-14);}.cls-79{fill:url(#Áåçûìÿííûé_ãðàäèåíò_1114-15);}.cls-80{fill:url(#Áåçûìÿííûé_ãðàäèåíò_1114-16);}.cls-81{fill:url(#Áåçûìÿííûé_ãðàäèåíò_1114-17);}.cls-82{fill:url(#Áåçûìÿííûé_ãðàäèåíò_1114-18);}.cls-83{fill:url(#Áåçûìÿííûé_ãðàäèåíò_1114-19);}.cls-84{clip-path:url(#clip-path-6);}.cls-85{fill:url(#Áåçûìÿííûé_ãðàäèåíò_1114-21);}.cls-86{fill:url(#Áåçûìÿííûé_ãðàäèåíò_1114-22);}.cls-87{fill:url(#Áåçûìÿííûé_ãðàäèåíò_1114-23);}.cls-88{fill:url(#Áåçûìÿííûé_ãðàäèåíò_1114-24);}.cls-89{fill:url(#Áåçûìÿííûé_ãðàäèåíò_1114-25);}.cls-90{fill:url(#Áåçûìÿííûé_ãðàäèåíò_1114-26);}.cls-91{fill:url(#Áåçûìÿííûé_ãðàäèåíò_1114-27);}.cls-92{clip-path:url(#clip-path-7);}.cls-93{fill:url(#Áåçûìÿííûé_ãðàäèåíò_1114-29);}.cls-94{fill:url(#Áåçûìÿííûé_ãðàäèåíò_1114-30);}.cls-95{fill:url(#Áåçûìÿííûé_ãðàäèåíò_1114-31);}.cls-96{fill:url(#Áåçûìÿííûé_ãðàäèåíò_1114-32);}.cls-97{fill:url(#Áåçûìÿííûé_ãðàäèåíò_1114-33);}.cls-98{fill:url(#Áåçûìÿííûé_ãðàäèåíò_1114-34);}.cls-99{fill:url(#Áåçûìÿííûé_ãðàäèåíò_1114-35);}.cls-100{clip-path:url(#clip-path-8);}.cls-101{fill:url(#Áåçûìÿííûé_ãðàäèåíò_1114-37);}.cls-102{fill:url(#Áåçûìÿííûé_ãðàäèåíò_1114-38);}.cls-103{fill:url(#Áåçûìÿííûé_ãðàäèåíò_1114-39);}.cls-104{fill:url(#Áåçûìÿííûé_ãðàäèåíò_1114-40);}.cls-105{fill:url(#Áåçûìÿííûé_ãðàäèåíò_1114-41);}.cls-106{fill:url(#Áåçûìÿííûé_ãðàäèåíò_1114-42);}.cls-107{fill:url(#Áåçûìÿííûé_ãðàäèåíò_1114-43);}.cls-108{fill:url(#Áåçûìÿííûé_ãðàäèåíò_1114-44);}.cls-109{fill:url(#Áåçûìÿííûé_ãðàäèåíò_1114-45);}.cls-110{fill:url(#Áåçûìÿííûé_ãðàäèåíò_1114-46);}.cls-111{clip-path:url(#clip-path-9);}.cls-112{fill:url(#Áåçûìÿííûé_ãðàäèåíò_1114-48);}.cls-113{fill:url(#Áåçûìÿííûé_ãðàäèåíò_1114-49);}.cls-114{fill:url(#Áåçûìÿííûé_ãðàäèåíò_1114-50);}.cls-115{fill:url(#Áåçûìÿííûé_ãðàäèåíò_1114-51);}.cls-116{fill:url(#Áåçûìÿííûé_ãðàäèåíò_1114-52);}.cls-117{fill:url(#Áåçûìÿííûé_ãðàäèåíò_62-65);}.cls-118{fill:url(#Áåçûìÿííûé_ãðàäèåíò_1114-53);}</style><linearGradient id="Áåçûìÿííûé_ãðàäèåíò_62" x1="-348.99" y1="123.58" x2="-307.27" y2="123.58" gradientTransform="translate(413.75)" gradientUnits="userSpaceOnUse"><stop offset="0.01" stop-color="#f9ca3b"/><stop offset="0.01" stop-color="#facf40"/><stop offset="0.02" stop-color="#fce254"/><stop offset="0.16" stop-color="#fce355"/><stop offset="0.24" stop-color="#fbdd4f"/><stop offset="0.34" stop-color="#f8cd3e"/><stop offset="0.37" stop-color="#f7c839"/><stop offset="0.38" stop-color="#deaf22"/><stop offset="0.78" stop-color="#d8a01c"/><stop offset="0.78" stop-color="#d69e16"/><stop offset="0.79" stop-color="#ce9500"/><stop offset="0.79" stop-color="#cc9200"/><stop offset="0.87" stop-color="#ba7b00"/><stop offset="0.94" stop-color="#af6d00"/><stop offset="1" stop-color="#ab6800"/></linearGradient><linearGradient id="Áåçûìÿííûé_ãðàäèåíò_62-2" x1="-321.38" y1="158.27" x2="-287.57" y2="158.27" xlink:href="#Áåçûìÿííûé_ãðàäèåíò_62"/><linearGradient id="Áåçûìÿííûé_ãðàäèåíò_62-3" x1="-265.58" y1="217.68" x2="-244.6" y2="217.68" xlink:href="#Áåçûìÿííûé_ãðàäèåíò_62"/><linearGradient id="Áåçûìÿííûé_ãðàäèåíò_62-4" x1="-376.87" y1="26.96" x2="-354.34" y2="26.96" xlink:href="#Áåçûìÿííûé_ãðàäèåíò_62"/><linearGradient id="Áåçûìÿííûé_ãðàäèåíò_1114" x1="-248.47" y1="190.51" x2="-229.26" y2="190.51" gradientTransform="translate(413.75)" gradientUnits="userSpaceOnUse"><stop offset="0.06" stop-color="#dcac25"/><stop offset="0.99" stop-color="#fae159"/></linearGradient><linearGradient id="Áåçûìÿííûé_ãðàäèåíò_1114-2" x1="-350.41" y1="26.55" x2="-316.85" y2="26.55" xlink:href="#Áåçûìÿííûé_ãðàäèåíò_1114"/><linearGradient id="Áåçûìÿííûé_ãðàäèåíò_1114-3" x1="-248.68" y1="144.22" x2="-229.35" y2="144.22" xlink:href="#Áåçûìÿííûé_ãðàäèåíò_1114"/><linearGradient id="Áåçûìÿííûé_ãðàäèåíò_1114-4" x1="-310.28" y1="49.88" x2="-276.91" y2="49.88" xlink:href="#Áåçûìÿííûé_ãðàäèåíò_1114"/><linearGradient id="Áåçûìÿííûé_ãðàäèåíò_1114-5" x1="-273.15" y1="92.86" x2="-244.96" y2="92.86" xlink:href="#Áåçûìÿííûé_ãðàäèåíò_1114"/><linearGradient id="Áåçûìÿííûé_ãðàäèåíò_62-5" x1="-358.62" y1="195.75" x2="-337.37" y2="195.75" xlink:href="#Áåçûìÿííûé_ãðàäèåíò_62"/><linearGradient id="Áåçûìÿííûé_ãðàäèåíò_62-6" x1="-406.56" y1="117.18" x2="-380.04" y2="117.18" xlink:href="#Áåçûìÿííûé_ãðàäèåíò_62"/><linearGradient id="Áåçûìÿííûé_ãðàäèåíò_1114-6" x1="-310.83" y1="228.45" x2="-296.68" y2="228.45" xlink:href="#Áåçûìÿííûé_ãðàäèåíò_1114"/><linearGradient id="Áåçûìÿííûé_ãðàäèåíò_1114-7" x1="-413.68" y1="62.8" x2="-384.94" y2="62.8" xlink:href="#Áåçûìÿííûé_ãðàäèåíò_1114"/><linearGradient id="Áåçûìÿííûé_ãðàäèåíò_1114-8" x1="-273.06" y1="233.03" x2="-251.63" y2="233.03" xlink:href="#Áåçûìÿííûé_ãðàäèåíò_1114"/><linearGradient id="Áåçûìÿííûé_ãðàäèåíò_1114-9" x1="-395.93" y1="25.07" x2="-368.83" y2="25.07" xlink:href="#Áåçûìÿííûé_ãðàäèåíò_1114"/><clipPath id="clip-path"><path class="cls-1" d="M72.85,94.89,87,86.69c-5,2.89-8.07,9-8.09,17.76,0,17.55,12.33,39,27.61,47.83l-14.1,8.2c-15.28-8.82-27.66-30.28-27.61-47.84C64.78,103.92,67.87,97.78,72.85,94.89Z"/></clipPath><linearGradient id="Áåçûìÿííûé_ãðàäèåíò_62-8" x1="-345.71" y1="93.14" x2="-326.8" y2="93.14" xlink:href="#Áåçûìÿííûé_ãðàäèåíò_62"/><linearGradient id="Áåçûìÿííûé_ãðàäèåíò_62-9" x1="-346.76" y1="96.43" x2="-331.61" y2="96.43" xlink:href="#Áåçûìÿííûé_ãðàäèåíò_62"/><linearGradient id="Áåçûìÿííûé_ãðàäèåíò_62-10" x1="-347.42" y1="98.17" x2="-332.65" y2="98.17" xlink:href="#Áåçûìÿííûé_ãðàäèåíò_62"/><linearGradient id="Áåçûìÿííûé_ãðàäèåíò_62-11" x1="-347.9" y1="99.69" x2="-333.32" y2="99.69" xlink:href="#Áåçûìÿííûé_ãðàäèåíò_62"/><linearGradient id="Áåçûìÿííûé_ãðàäèåíò_62-12" x1="-348.27" y1="101.12" x2="-333.8" y2="101.12" xlink:href="#Áåçûìÿííûé_ãðàäèåíò_62"/><linearGradient id="Áåçûìÿííûé_ãðàäèåíò_62-13" x1="-348.54" y1="102.5" x2="-334.17" y2="102.5" xlink:href="#Áåçûìÿííûé_ãðàäèåíò_62"/><linearGradient id="Áåçûìÿííûé_ãðàäèåíò_62-14" x1="-348.74" y1="103.84" x2="-334.44" y2="103.84" xlink:href="#Áåçûìÿííûé_ãðàäèåíò_62"/><linearGradient id="Áåçûìÿííûé_ãðàäèåíò_62-15" x1="-348.88" y1="105.16" x2="-334.64" y2="105.16" xlink:href="#Áåçûìÿííûé_ãðàäèåíò_62"/><linearGradient id="Áåçûìÿííûé_ãðàäèåíò_62-16" x1="-348.96" y1="106.48" x2="-334.78" y2="106.48" xlink:href="#Áåçûìÿííûé_ãðàäèåíò_62"/><linearGradient id="Áåçûìÿííûé_ãðàäèåíò_62-17" x1="-348.99" y1="107.8" x2="-334.86" y2="107.8" xlink:href="#Áåçûìÿííûé_ãðàäèåíò_62"/><linearGradient id="Áåçûìÿííûé_ãðàäèåíò_62-18" x1="-348.99" y1="109.13" x2="-334.87" y2="109.13" xlink:href="#Áåçûìÿííûé_ãðàäèåíò_62"/><linearGradient id="Áåçûìÿííûé_ãðàäèåíò_62-19" x1="-348.97" y1="110.45" x2="-334.81" y2="110.45" xlink:href="#Áåçûìÿííûé_ãðàäèåíò_62"/><linearGradient id="Áåçûìÿííûé_ãðàäèåíò_62-20" x1="-348.91" y1="111.79" x2="-334.7" y2="111.79" xlink:href="#Áåçûìÿííûé_ãðàäèåíò_62"/><linearGradient id="Áåçûìÿííûé_ãðàäèåíò_62-21" x1="-348.8" y1="113.15" x2="-334.55" y2="113.15" xlink:href="#Áåçûìÿííûé_ãðàäèåíò_62"/><linearGradient id="Áåçûìÿííûé_ãðàäèåíò_62-22" x1="-348.65" y1="114.52" x2="-334.35" y2="114.52" xlink:href="#Áåçûìÿííûé_ãðàäèåíò_62"/><linearGradient id="Áåçûìÿííûé_ãðàäèåíò_62-23" x1="-348.45" y1="115.93" x2="-334.11" y2="115.93" xlink:href="#Áåçûìÿííûé_ãðàäèåíò_62"/><linearGradient id="Áåçûìÿííûé_ãðàäèåíò_62-24" x1="-348.21" y1="117.39" x2="-333.8" y2="117.39" xlink:href="#Áåçûìÿííûé_ãðàäèåíò_62"/><linearGradient id="Áåçûìÿííûé_ãðàäèåíò_62-25" x1="-347.9" y1="118.9" x2="-333.44" y2="118.9" xlink:href="#Áåçûìÿííûé_ãðàäèåíò_62"/><linearGradient id="Áåçûìÿííûé_ãðàäèåíò_62-26" x1="-347.54" y1="120.49" x2="-333" y2="120.49" xlink:href="#Áåçûìÿííûé_ãðàäèåíò_62"/><linearGradient id="Áåçûìÿííûé_ãðàäèåíò_62-27" x1="-347.1" y1="122.18" x2="-332.47" y2="122.18" xlink:href="#Áåçûìÿííûé_ãðàäèåíò_62"/><linearGradient id="Áåçûìÿííûé_ãðàäèåíò_62-28" x1="-346.58" y1="123.98" x2="-331.85" y2="123.98" xlink:href="#Áåçûìÿííûé_ãðàäèåíò_62"/><linearGradient id="Áåçûìÿííûé_ãðàäèåíò_62-29" x1="-345.95" y1="125.98" x2="-331.04" y2="125.98" xlink:href="#Áåçûìÿííûé_ãðàäèåíò_62"/><linearGradient id="Áåçûìÿííûé_ãðàäèåíò_62-30" x1="-345.14" y1="128.31" x2="-329.99" y2="128.31" xlink:href="#Áåçûìÿííûé_ãðàäèåíò_62"/><linearGradient id="Áåçûìÿííûé_ãðàäèåíò_62-31" x1="-344.09" y1="131.16" x2="-328.45" y2="131.16" xlink:href="#Áåçûìÿííûé_ãðàäèåíò_62"/><linearGradient id="Áåçûìÿííûé_ãðàäèåíò_62-32" x1="-342.56" y1="138.66" x2="-320.75" y2="138.66" xlink:href="#Áåçûìÿííûé_ãðàäèåíò_62"/><linearGradient id="Áåçûìÿííûé_ãðàäèåíò_62-33" x1="-334.85" y1="145.89" x2="-318.45" y2="145.89" xlink:href="#Áåçûìÿííûé_ãðàäèåíò_62"/><linearGradient id="Áåçûìÿííûé_ãðàäèåíò_62-34" x1="-332.55" y1="148.14" x2="-316.68" y2="148.14" xlink:href="#Áåçûìÿííûé_ãðàäèåíò_62"/><linearGradient id="Áåçûìÿííûé_ãðàäèåíò_62-35" x1="-330.78" y1="149.8" x2="-315.13" y2="149.8" xlink:href="#Áåçûìÿííûé_ãðàäèåíò_62"/><linearGradient id="Áåçûìÿííûé_ãðàäèåíò_62-36" x1="-329.23" y1="151.18" x2="-313.69" y2="151.18" xlink:href="#Áåçûìÿííûé_ãðàäèåíò_62"/><linearGradient id="Áåçûìÿííûé_ãðàäèåíò_62-37" x1="-327.79" y1="152.35" x2="-312.38" y2="152.35" xlink:href="#Áåçûìÿííûé_ãðàäèåíò_62"/><linearGradient id="Áåçûìÿííûé_ãðàäèåíò_62-38" x1="-326.48" y1="153.37" x2="-311.12" y2="153.37" xlink:href="#Áåçûìÿííûé_ãðàäèåíò_62"/><linearGradient id="Áåçûìÿííûé_ãðàäèåíò_62-39" x1="-325.22" y1="154.29" x2="-309.9" y2="154.29" xlink:href="#Áåçûìÿííûé_ãðàäèåíò_62"/><linearGradient id="Áåçûìÿííûé_ãðàäèåíò_62-40" x1="-324" y1="155.11" x2="-308.72" y2="155.11" xlink:href="#Áåçûìÿííûé_ãðàäèåíò_62"/><linearGradient id="Áåçûìÿííûé_ãðàäèåíò_62-41" x1="-322.82" y1="155.86" x2="-307.55" y2="155.86" xlink:href="#Áåçûìÿííûé_ãðàäèåíò_62"/><linearGradient id="Áåçûìÿííûé_ãðàäèåíò_62-42" x1="-321.65" y1="156.3" x2="-307.27" y2="156.3" xlink:href="#Áåçûìÿííûé_ãðàäèåíò_62"/><clipPath id="clip-path-2"><path class="cls-2" d="M126.18,154.2l-14.1,8.19c-5,2.93-12,2.53-19.71-1.91l14.1-8.2C114.16,156.72,121.14,157.13,126.18,154.2Z"/></clipPath><linearGradient id="Áåçûìÿííûé_ãðàäèåíò_62-44" x1="-321.38" y1="156.62" x2="-306.4" y2="156.62" xlink:href="#Áåçûìÿííûé_ãðàäèåíò_62"/><linearGradient id="Áåçûìÿííûé_ãðàäèåíò_62-45" x1="-320.5" y1="157.16" x2="-305.27" y2="157.16" xlink:href="#Áåçûìÿííûé_ãðàäèåíò_62"/><linearGradient id="Áåçûìÿííûé_ãðàäèåíò_62-46" x1="-319.37" y1="157.72" x2="-304.15" y2="157.72" xlink:href="#Áåçûìÿííûé_ãðàäèåíò_62"/><linearGradient id="Áåçûìÿííûé_ãðàäèåíò_62-47" x1="-318.25" y1="158.22" x2="-303.04" y2="158.22" xlink:href="#Áåçûìÿííûé_ãðàäèåíò_62"/><linearGradient id="Áåçûìÿííûé_ãðàäèåíò_62-48" x1="-317.15" y1="158.66" x2="-301.93" y2="158.66" xlink:href="#Áåçûìÿííûé_ãðàäèåíò_62"/><linearGradient id="Áåçûìÿííûé_ãðàäèåíò_62-49" x1="-316.03" y1="159.05" x2="-300.82" y2="159.05" xlink:href="#Áåçûìÿííûé_ãðàäèåíò_62"/><linearGradient id="Áåçûìÿííûé_ãðàäèåíò_62-50" x1="-314.92" y1="159.39" x2="-299.68" y2="159.39" xlink:href="#Áåçûìÿííûé_ãðàäèåíò_62"/><linearGradient id="Áåçûìÿííûé_ãðàäèåíò_62-51" x1="-313.78" y1="159.67" x2="-298.54" y2="159.67" xlink:href="#Áåçûìÿííûé_ãðàäèåíò_62"/><linearGradient id="Áåçûìÿííûé_ãðàäèåíò_62-52" x1="-312.65" y1="159.9" x2="-297.33" y2="159.9" xlink:href="#Áåçûìÿííûé_ãðàäèåíò_62"/><linearGradient id="Áåçûìÿííûé_ãðàäèåíò_62-53" x1="-311.43" y1="160.06" x2="-296.1" y2="160.06" xlink:href="#Áåçûìÿííûé_ãðàäèåíò_62"/><linearGradient id="Áåçûìÿííûé_ãðàäèåíò_62-54" x1="-310.2" y1="160.15" x2="-294.8" y2="160.15" xlink:href="#Áåçûìÿííûé_ãðàäèåíò_62"/><linearGradient id="Áåçûìÿííûé_ãðàäèåíò_62-55" x1="-308.9" y1="160.13" x2="-293.36" y2="160.13" xlink:href="#Áåçûìÿííûé_ãðàäèåíò_62"/><linearGradient id="Áåçûìÿííûé_ãðàäèåíò_62-56" x1="-307.46" y1="159.98" x2="-291.76" y2="159.98" xlink:href="#Áåçûìÿííûé_ãðàäèåíò_62"/><linearGradient id="Áåçûìÿííûé_ãðàäèåíò_62-57" x1="-305.86" y1="159.6" x2="-289.82" y2="159.6" xlink:href="#Áåçûìÿííûé_ãðàäèåíò_62"/><linearGradient id="Áåçûìÿííûé_ãðàäèåíò_62-58" x1="-303.92" y1="158.81" x2="-287.57" y2="158.81" xlink:href="#Áåçûìÿííûé_ãðàäèåíò_62"/><clipPath id="clip-path-3"><path class="cls-3" d="M162.27,216.15l-14.11,8.2a37.14,37.14,0,0,0,6.88-5.14L169.15,211A37.77,37.77,0,0,1,162.27,216.15Z"/></clipPath><clipPath id="clip-path-4"><path class="cls-4" d="M36.87,32.86,51,24.67a37.87,37.87,0,0,1,8.44-3.61L45.3,29.25A38.26,38.26,0,0,0,36.87,32.86Z"/></clipPath><linearGradient id="Áåçûìÿííûé_ãðàäèåíò_62-62" x1="-376.87" y1="27.27" x2="-356.24" y2="27.27" xlink:href="#Áåçûìÿííûé_ãðàäèåíò_62"/><linearGradient id="Áåçûìÿííûé_ãðàäèåíò_62-63" x1="-370.34" y1="25.46" x2="-354.34" y2="25.46" xlink:href="#Áåçûìÿííûé_ãðàäèåíò_62"/><linearGradient id="Áåçûìÿííûé_ãðàäèåíò_62-64" x1="-245.82" y1="223.82" x2="-221.31" y2="223.82" xlink:href="#Áåçûìÿííûé_ãðàäèåíò_62"/><linearGradient id="Áåçûìÿííûé_ãðàäèåíò_1114-10" x1="-248.47" y1="208.41" x2="-221.31" y2="208.41" xlink:href="#Áåçûìÿííûé_ãðàäèåíò_1114"/><linearGradient id="Áåçûìÿííûé_ãðàäèåíò_1114-11" x1="-358.06" y1="13.97" x2="-336.31" y2="13.97" xlink:href="#Áåçûìÿííûé_ãðàäèåíò_1114"/><linearGradient id="Áåçûìÿííûé_ãðàäèåíò_1114-12" x1="-376" y1="4.87" x2="-343.96" y2="4.87" xlink:href="#Áåçûìÿííûé_ãðàäèåíò_1114"/><clipPath id="clip-path-5"><path class="cls-5" d="M170.39,184.81l14.1-8.19a68.26,68.26,0,0,1-5.11,19.58l-14.1,8.19A68.18,68.18,0,0,0,170.39,184.81Z"/></clipPath><linearGradient id="Áåçûìÿííûé_ãðàäèåíò_1114-14" x1="-243.44" y1="181.04" x2="-229.26" y2="181.04" xlink:href="#Áåçûìÿííûé_ãðàäèåíò_1114"/><linearGradient id="Áåçûìÿííûé_ãðàäèåíò_1114-15" x1="-244" y1="183.24" x2="-229.33" y2="183.24" xlink:href="#Áåçûìÿííûé_ãðàäèåíò_1114"/><linearGradient id="Áåçûìÿííûé_ãðàäèåíò_1114-16" x1="-244.76" y1="187.04" x2="-229.89" y2="187.04" xlink:href="#Áåçûìÿííûé_ãðàäèåíò_1114"/><linearGradient id="Áåçûìÿííûé_ãðàäèåíò_1114-17" x1="-245.79" y1="190.93" x2="-230.66" y2="190.93" xlink:href="#Áåçûìÿííûé_ãðàäèåíò_1114"/><linearGradient id="Áåçûìÿííûé_ãðàäèåíò_1114-18" x1="-247.16" y1="194.99" x2="-231.69" y2="194.99" xlink:href="#Áåçûìÿííûé_ãðàäèåíò_1114"/><linearGradient id="Áåçûìÿííûé_ãðàäèåíò_1114-19" x1="-248.47" y1="198.68" x2="-233.06" y2="198.68" xlink:href="#Áåçûìÿííûé_ãðàäèåíò_1114"/><clipPath id="clip-path-6"><path class="cls-6" d="M63.33,27.93l14.1-8.19a68.76,68.76,0,0,1,19.46,5.43l-14.1,8.19A69.09,69.09,0,0,0,63.33,27.93Z"/></clipPath><linearGradient id="Áåçûìÿííûé_ãðàäèåíò_1114-21" x1="-350.41" y1="23.91" x2="-335.14" y2="23.91" xlink:href="#Áåçûìÿííûé_ãðàäèåíò_1114"/><linearGradient id="Áåçûìÿííûé_ãðàäèåíò_1114-22" x1="-349.24" y1="24.26" x2="-331.77" y2="24.26" xlink:href="#Áåçûìÿííûé_ãðàäèåíò_1114"/><linearGradient id="Áåçûìÿííûé_ãðàäèåíò_1114-23" x1="-345.87" y1="24.9" x2="-328.5" y2="24.9" xlink:href="#Áåçûìÿííûé_ãðàäèåíò_1114"/><linearGradient id="Áåçûìÿííûé_ãðàäèåíò_1114-24" x1="-342.6" y1="25.71" x2="-325.3" y2="25.71" xlink:href="#Áåçûìÿííûé_ãðàäèåíò_1114"/><linearGradient id="Áåçûìÿííûé_ãðàäèåíò_1114-25" x1="-339.4" y1="26.67" x2="-322.13" y2="26.67" xlink:href="#Áåçûìÿííûé_ãðàäèåíò_1114"/><linearGradient id="Áåçûìÿííûé_ãðàäèåíò_1114-26" x1="-336.24" y1="27.78" x2="-318.99" y2="27.78" xlink:href="#Áåçûìÿííûé_ãðàäèåíò_1114"/><linearGradient id="Áåçûìÿííûé_ãðàäèåíò_1114-27" x1="-333.09" y1="28.82" x2="-316.85" y2="28.82" xlink:href="#Áåçûìÿííûé_ãðàäèåíò_1114"/><clipPath id="clip-path-7"><path class="cls-7" d="M165.07,135.68l14.1-8.2a144.31,144.31,0,0,1,5.23,25.28L170.3,161A145,145,0,0,0,165.07,135.68Z"/></clipPath><linearGradient id="Áåçûìÿííûé_ãðàäèåíò_1114-29" x1="-248.68" y1="132.64" x2="-233.95" y2="132.64" xlink:href="#Áåçûìÿííûé_ãðàäèåíò_1114"/><linearGradient id="Áåçûìÿííûé_ãðàäèåíò_1114-30" x1="-248.06" y1="135.98" x2="-232.74" y2="135.98" xlink:href="#Áåçûìÿííûé_ãðàäèåíò_1114"/><linearGradient id="Áåçûìÿííûé_ãðàäèåíò_1114-31" x1="-246.84" y1="140.42" x2="-231.72" y2="140.42" xlink:href="#Áåçûìÿííûé_ãðàäèåíò_1114"/><linearGradient id="Áåçûìÿííûé_ãðàäèåíò_1114-32" x1="-245.82" y1="144.69" x2="-230.86" y2="144.69" xlink:href="#Áåçûìÿííûé_ãðàäèåíò_1114"/><linearGradient id="Áåçûìÿííûé_ãðàäèåíò_1114-33" x1="-244.96" y1="148.83" x2="-230.15" y2="148.83" xlink:href="#Áåçûìÿííûé_ãðàäèåíò_1114"/><linearGradient id="Áåçûìÿííûé_ãðàäèåíò_1114-34" x1="-244.26" y1="152.87" x2="-229.58" y2="152.87" xlink:href="#Áåçûìÿííûé_ãðàäèåíò_1114"/><linearGradient id="Áåçûìÿííûé_ãðàäèåíò_1114-35" x1="-243.69" y1="155.86" x2="-229.35" y2="155.86" xlink:href="#Áåçûìÿííûé_ãðàäèåíò_1114"/><clipPath id="clip-path-8"><path class="cls-8" d="M103.47,45.42l14.1-8.2a145.82,145.82,0,0,1,19.27,17.12l-14.1,8.2A145,145,0,0,0,103.47,45.42Z"/></clipPath><linearGradient id="Áåçûìÿííûé_ãðàäèåíò_1114-37" x1="-310.28" y1="41.38" x2="-296.03" y2="41.38" xlink:href="#Áåçûìÿííûé_ãðàäèåíò_1114"/><linearGradient id="Áåçûìÿííûé_ãðàäèåíò_1114-38" x1="-310.13" y1="42.81" x2="-292.42" y2="42.81" xlink:href="#Áåçûìÿííûé_ãðàäèåíò_1114"/><linearGradient id="Áåçûìÿííûé_ãðàäèåíò_1114-39" x1="-306.52" y1="45.74" x2="-288.65" y2="45.74" xlink:href="#Áåçûìÿííûé_ãðàäèåíò_1114"/><linearGradient id="Áåçûìÿííûé_ãðàäèåíò_1114-40" x1="-302.75" y1="49.05" x2="-284.65" y2="49.05" xlink:href="#Áåçûìÿííûé_ãðàäèåíò_1114"/><linearGradient id="Áåçûìÿííûé_ãðàäèåíò_1114-41" x1="-298.75" y1="52.9" x2="-280.3" y2="52.9" xlink:href="#Áåçûìÿííûé_ãðàäèåíò_1114"/><linearGradient id="Áåçûìÿííûé_ãðàäèåíò_1114-42" x1="-294.4" y1="56.71" x2="-276.91" y2="56.71" xlink:href="#Áåçûìÿííûé_ãðàäèåíò_1114"/><linearGradient id="Áåçûìÿííûé_ãðàäèåíò_1114-43" x1="-228.06" y1="177.67" x2="-213.89" y2="177.67" xlink:href="#Áåçûìÿííûé_ãðàäèåíò_1114"/><linearGradient id="Áåçûìÿííûé_ãðàäèåíò_1114-44" x1="-243.45" y1="161.32" x2="-213.89" y2="161.32" xlink:href="#Áåçûìÿííûé_ãðàäèåíò_1114"/><linearGradient id="Áåçûìÿííûé_ãðàäèåíò_1114-45" x1="-310.28" y1="32.34" x2="-296.12" y2="32.34" xlink:href="#Áåçûìÿííûé_ãðàäèåíò_1114"/><linearGradient id="Áåçûìÿííûé_ãðàäèåíò_1114-46" x1="-330.91" y1="17.38" x2="-296.12" y2="17.38" xlink:href="#Áåçûìÿííûé_ãðàäèåíò_1114"/><clipPath id="clip-path-9"><path class="cls-9" d="M140.59,84.79l14.11-8.2a192.74,192.74,0,0,1,14.09,24.35l-14.1,8.2A192.11,192.11,0,0,0,140.59,84.79Z"/></clipPath><linearGradient id="Áåçûìÿííûé_ãðàäèåíò_1114-48" x1="-273.15" y1="91.05" x2="-246.76" y2="91.05" xlink:href="#Áåçûìÿííûé_ãðàäèåíò_1114"/><linearGradient id="Áåçûìÿííûé_ãðàäèåíò_1114-49" x1="-260.86" y1="103.23" x2="-244.96" y2="103.23" xlink:href="#Áåçûìÿííûé_ãðàäèåíò_1114"/><linearGradient id="Áåçûìÿííûé_ãðàäèåíò_1114-50" x1="-259.06" y1="104.45" x2="-231.35" y2="104.45" xlink:href="#Áåçûìÿííûé_ãðàäèåíò_1114"/><linearGradient id="Áåçûìÿííûé_ãðàäèåíò_1114-51" x1="-245.46" y1="117.14" x2="-221.07" y2="117.14" xlink:href="#Áåçûìÿííûé_ãðàäèåíò_1114"/><linearGradient id="Áåçûìÿííûé_ãðàäèåíò_1114-52" x1="-283.12" y1="58.47" x2="-251.14" y2="58.47" xlink:href="#Áåçûìÿííûé_ãðàäèåíò_1114"/><linearGradient id="Áåçûìÿííûé_ãðàäèåíò_62-65" x1="-413.75" y1="128.16" x2="-227.99" y2="128.16" xlink:href="#Áåçûìÿííûé_ãðàäèåíò_62"/><linearGradient id="Áåçûìÿííûé_ãðàäèåíò_1114-53" x1="-273.15" y1="75.14" x2="-251.14" y2="75.14" xlink:href="#Áåçûìÿííûé_ãðàäèåíò_1114"/></defs><title>cog_01</title><g id="Layer_2" data-name="Layer 2"><g id="Layer_1-2" data-name="Layer 1"><g class="cls-10"><polygon class="cls-11" points="62.27 194.82 76.37 186.63 69.23 196.67 55.13 204.86 62.27 194.82"/><polygon class="cls-12" points="7.18 121.81 21.28 113.61 33.71 112.55 19.61 120.74 7.18 121.81"/><polygon class="cls-13" points="102.96 224.27 117.06 216.08 117.02 232.62 102.91 240.82 102.96 224.27"/><polygon class="cls-14" points="0.07 62.67 14.17 54.48 28.8 62.93 14.7 71.12 0.07 62.67"/><polygon class="cls-15" points="140.68 227.67 154.78 219.47 162.11 238.39 148.01 246.58 140.68 227.67"/><polygon class="cls-16" points="17.82 21.09 31.92 12.9 44.91 29.05 30.81 37.24 17.82 21.09"/><g class="cls-10"><path class="cls-1" d="M72.85,94.89,87,86.69c-5,2.89-8.07,9-8.09,17.76,0,17.55,12.33,39,27.61,47.83l-14.1,8.2c-15.28-8.82-27.66-30.28-27.61-47.84C64.78,103.92,67.87,97.78,72.85,94.89Z"/><g class="cls-17"><g class="cls-10"><path class="cls-18" d="M72.85,94.89,87,86.69a14,14,0,0,0-4.81,4.7L68,99.58a14.1,14.1,0,0,1,4.82-4.69"/><path class="cls-19" d="M68,99.58l14.11-8.19a17.24,17.24,0,0,0-1,1.9L67,101.48a20.2,20.2,0,0,1,1-1.9"/><path class="cls-20" d="M67,101.48l14.1-8.19c-.24.5-.46,1-.66,1.57l-14.1,8.2c.2-.55.42-1.08.66-1.58"/><path class="cls-21" d="M66.33,103.06l14.1-8.2c-.18.47-.34,1-.49,1.46l-14.1,8.19c.15-.5.31-1,.49-1.45"/><path class="cls-22" d="M65.84,104.51l14.1-8.19q-.19.68-.36,1.41l-14.11,8.19c.11-.48.24-1,.37-1.41"/><path class="cls-23" d="M65.47,105.92l14.11-8.19c-.1.44-.2.89-.28,1.35l-14.1,8.2c.08-.46.17-.92.27-1.36"/><path class="cls-24" d="M65.2,107.28l14.1-8.2c-.07.43-.14.87-.19,1.32L65,108.6c0-.45.12-.89.19-1.32"/><path class="cls-25" d="M65,108.6l14.1-8.2c-.06.44-.1.88-.14,1.33l-14.1,8.2c0-.46.08-.9.14-1.33"/><path class="cls-26" d="M64.87,109.93l14.1-8.2c0,.43-.06.86-.08,1.3l-14.1,8.2c0-.44,0-.88.08-1.3"/><path class="cls-27" d="M64.79,111.23l14.1-8.2c0,.44,0,.88,0,1.34l-14.1,8.19c0-.45,0-.89,0-1.33"/><path class="cls-28" d="M64.76,112.56l14.1-8.19v.08c0,.41,0,.82,0,1.24l-14.1,8.19c0-.41,0-.83,0-1.24v-.08"/><path class="cls-29" d="M64.77,113.88l14.1-8.19c0,.44,0,.89.07,1.33l-14.11,8.2-.06-1.34"/><path class="cls-30" d="M64.83,115.22,78.94,107c0,.45.06.9.1,1.35l-14.1,8.2c0-.46-.08-.9-.11-1.35"/><path class="cls-31" d="M64.94,116.57l14.1-8.2c0,.45.1.9.16,1.36l-14.11,8.19c0-.45-.11-.9-.15-1.35"/><path class="cls-32" d="M65.09,117.92l14.11-8.19c0,.46.12.93.2,1.4l-14.11,8.19c-.07-.47-.14-.93-.2-1.4"/><path class="cls-33" d="M65.29,119.32l14.11-8.19q.1.7.24,1.41l-14.1,8.2c-.09-.48-.17-.95-.25-1.42"/><path class="cls-34" d="M65.54,120.74l14.1-8.2c.09.5.2,1,.31,1.5l-14.11,8.2c-.11-.5-.21-1-.3-1.5"/><path class="cls-35" d="M65.84,122.24,80,114q.17.76.36,1.53L66.2,123.76l-.36-1.52"/><path class="cls-36" d="M66.2,123.76l14.11-8.19c.13.55.28,1.09.44,1.64l-14.1,8.2q-.24-.82-.45-1.65"/><path class="cls-37" d="M66.65,125.41l14.1-8.2c.16.58.34,1.17.52,1.75l-14.1,8.19c-.18-.58-.36-1.16-.52-1.74"/><path class="cls-38" d="M67.17,127.15,81.27,119c.2.62.41,1.23.63,1.85L67.79,129c-.21-.61-.42-1.23-.62-1.85"/><path class="cls-39" d="M67.79,129l14.11-8.19c.25.72.52,1.44.81,2.15l-14.1,8.2c-.29-.72-.56-1.44-.82-2.16"/><path class="cls-40" d="M68.61,131.16l14.1-8.2c.33.84.68,1.67,1.05,2.5l-14.1,8.19c-.37-.82-.72-1.66-1-2.49"/><path class="cls-41" d="M69.66,133.65l14.1-8.19c.48,1.07,1,2.14,1.53,3.2l-14.1,8.19c-.54-1-1-2.12-1.53-3.2"/><path class="cls-42" d="M71.19,136.85l14.1-8.19A67.31,67.31,0,0,0,93,140.46l-14.1,8.2a66.63,66.63,0,0,1-7.71-11.81"/><path class="cls-43" d="M78.9,148.66l14.1-8.2c.75.92,1.51,1.8,2.3,2.66l-14.1,8.19c-.79-.85-1.56-1.74-2.3-2.65"/><path class="cls-44" d="M81.2,151.31l14.1-8.19c.58.63,1.17,1.24,1.77,1.84L83,153.16c-.6-.6-1.19-1.21-1.77-1.85"/><path class="cls-45" d="M83,153.16l14.1-8.2c.51.51,1,1,1.55,1.48l-14.1,8.2c-.53-.48-1-1-1.55-1.48"/><path class="cls-46" d="M84.52,154.64l14.1-8.2c.47.44.95.86,1.44,1.27L86,155.91c-.48-.41-1-.84-1.43-1.27"/><path class="cls-47" d="M86,155.91l14.11-8.2c.43.37.86.73,1.3,1.08L87.26,157c-.44-.34-.87-.7-1.31-1.07"/><path class="cls-48" d="M87.26,157l14.1-8.19,1.27,1L88.52,158c-.42-.31-.84-.63-1.26-1"/><path class="cls-49" d="M88.52,158l14.11-8.19,1.22.86-14.11,8.2L88.52,158"/><path class="cls-50" d="M89.74,158.82l14.11-8.2,1.18.79-14.1,8.19c-.4-.25-.79-.51-1.19-.78"/><path class="cls-51" d="M90.93,159.6l14.1-8.19,1.17.71-14.1,8.2c-.39-.23-.79-.47-1.17-.72"/><path class="cls-52" d="M92.1,160.32l14.1-8.2.27.16-14.1,8.2-.27-.16"/></g></g></g><g class="cls-10"><path class="cls-2" d="M126.18,154.2l-14.1,8.19c-5,2.93-12,2.53-19.71-1.91l14.1-8.2C114.16,156.72,121.14,157.13,126.18,154.2Z"/><g class="cls-53"><g class="cls-10"><path class="cls-54" d="M92.37,160.48l14.1-8.2.88.49L93.25,161l-.88-.49"/><path class="cls-55" d="M93.25,161l14.1-8.2c.38.21.75.4,1.13.59l-14.1,8.19c-.38-.18-.76-.38-1.13-.58"/><path class="cls-56" d="M94.38,161.55l14.1-8.19c.37.18.75.36,1.12.52l-14.11,8.2c-.37-.17-.74-.34-1.11-.53"/><path class="cls-57" d="M95.49,162.08l14.11-8.2c.37.17.74.33,1.1.47l-14.1,8.2c-.37-.15-.74-.3-1.11-.47"/><path class="cls-58" d="M96.6,162.55l14.1-8.2,1.12.42L97.71,163l-1.11-.42"/><path class="cls-59" d="M97.71,163l14.11-8.2,1.1.36-14.1,8.2L97.71,163"/><path class="cls-60" d="M98.82,163.33l14.1-8.2c.39.12.77.23,1.15.32L100,163.65c-.37-.1-.75-.2-1.14-.32"/><path class="cls-61" d="M100,163.65l14.11-8.2c.38.1.76.18,1.13.25l-14.1,8.2-1.14-.25"/><path class="cls-62" d="M101.1,163.9l14.1-8.2c.41.08.81.15,1.21.2l-14.1,8.2c-.4-.06-.8-.12-1.21-.2"/><path class="cls-63" d="M102.31,164.1l14.1-8.2c.42.06.83.1,1.24.13l-14.11,8.19c-.4,0-.81-.07-1.23-.12"/><path class="cls-64" d="M103.54,164.22,117.65,156c.44,0,.87,0,1.3,0l-14.1,8.2c-.43,0-.87,0-1.31-.05"/><path class="cls-65" d="M104.85,164.27l14.1-8.2a13.62,13.62,0,0,0,1.44-.07l-14.1,8.2c-.47,0-1,.06-1.44.07"/><path class="cls-66" d="M106.29,164.2l14.1-8.2a14,14,0,0,0,1.6-.23l-14.1,8.2c-.52.1-1.06.18-1.6.23"/><path class="cls-67" d="M107.89,164l14.1-8.2a13.87,13.87,0,0,0,1.94-.53l-14.1,8.19a15.9,15.9,0,0,1-1.94.54"/><path class="cls-68" d="M109.83,163.43l14.1-8.19a13.54,13.54,0,0,0,2.25-1l-14.1,8.19a13.12,13.12,0,0,1-2.25,1"/></g></g></g><g class="cls-10"><path class="cls-3" d="M162.27,216.15l-14.11,8.2a37.14,37.14,0,0,0,6.88-5.14L169.15,211A37.77,37.77,0,0,1,162.27,216.15Z"/><g class="cls-69"><g class="cls-10"><path class="cls-3" d="M155,219.21,169.15,211a37.77,37.77,0,0,1-6.88,5.13l-14.11,8.2a37.14,37.14,0,0,0,6.88-5.14"/></g></g></g><g class="cls-10"><path class="cls-4" d="M36.87,32.86,51,24.67a37.87,37.87,0,0,1,8.44-3.61L45.3,29.25A38.26,38.26,0,0,0,36.87,32.86Z"/><g class="cls-70"><g class="cls-10"><path class="cls-71" d="M36.87,32.86,51,24.67a37.25,37.25,0,0,1,6.54-3L43.4,29.86a38.24,38.24,0,0,0-6.53,3"/><path class="cls-72" d="M43.4,29.86l14.11-8.19c.62-.22,1.25-.42,1.9-.61L45.3,29.25c-.64.19-1.27.39-1.9.61"/></g></g></g><polygon class="cls-73" points="178.33 220.62 192.43 212.42 182.03 227.03 167.93 235.23 178.33 220.62"/><polygon class="cls-74" points="165.28 204.39 179.38 196.2 192.43 212.42 178.33 220.62 165.28 204.39"/><polygon class="cls-75" points="55.69 8.2 69.79 0 77.43 19.74 63.33 27.93 55.69 8.2"/><polygon class="cls-76" points="37.74 9.74 51.85 1.54 69.79 0 55.69 8.2 37.74 9.74"/><path class="cls-5" d="M170.39,184.81l14.1-8.19a68.26,68.26,0,0,1-5.11,19.58l-14.1,8.19A68.18,68.18,0,0,0,170.39,184.81Z"/><g class="cls-77"><g class="cls-10"><path class="cls-78" d="M170.39,184.81l14.1-8.19c0,.21-.05.42-.08.64l-14.1,8.19c0-.21.05-.42.08-.64"/><path class="cls-79" d="M170.31,185.45l14.1-8.19c-.16,1.28-.35,2.53-.56,3.76l-14.1,8.2c.21-1.23.4-2.49.56-3.77"/><path class="cls-80" d="M169.75,189.22l14.1-8.2c-.22,1.31-.48,2.59-.77,3.84L169,193.05c.29-1.25.54-2.52.77-3.83"/><path class="cls-81" d="M169,193.05l14.1-8.19c-.3,1.35-.64,2.67-1,3.95L168,197c.37-1.29.71-2.6,1-4"/><path class="cls-82" d="M168,197l14.1-8.2c-.42,1.43-.88,2.82-1.37,4.16l-14.11,8.2c.5-1.35,1-2.73,1.38-4.16"/><path class="cls-83" d="M166.58,201.17l14.11-8.2c-.41,1.11-.85,2.18-1.31,3.23l-14.1,8.19c.46-1,.89-2.12,1.3-3.22"/></g></g><path class="cls-6" d="M63.33,27.93l14.1-8.19a68.76,68.76,0,0,1,19.46,5.43l-14.1,8.19A69.09,69.09,0,0,0,63.33,27.93Z"/><g class="cls-84"><g class="cls-10"><path class="cls-85" d="M63.33,27.93l14.1-8.19c.39,0,.79.09,1.18.15l-14.1,8.19-1.18-.15"/><path class="cls-86" d="M64.51,28.08l14.1-8.19c1.11.15,2.23.33,3.37.55l-14.11,8.2c-1.13-.22-2.25-.41-3.36-.56"/><path class="cls-87" d="M67.87,28.64,82,20.44c1.08.21,2.17.46,3.27.73l-14.11,8.2c-1.1-.28-2.19-.52-3.27-.73"/><path class="cls-88" d="M71.14,29.37l14.11-8.2c1,.27,2.12.56,3.2.89l-14.1,8.19c-1.08-.32-2.15-.62-3.21-.88"/><path class="cls-89" d="M74.35,30.25l14.1-8.19c1,.31,2.1.66,3.16,1l-14.1,8.2c-1.06-.38-2.12-.72-3.16-1"/><path class="cls-90" d="M77.51,31.29l14.1-8.2c1,.37,2.09.76,3.15,1.19l-14.1,8.19c-1.06-.42-2.11-.82-3.15-1.18"/><path class="cls-91" d="M80.66,32.47l14.1-8.19c.71.28,1.42.58,2.13.89l-14.1,8.19c-.71-.31-1.43-.6-2.13-.89"/></g></g><path class="cls-7" d="M165.07,135.68l14.1-8.2a144.31,144.31,0,0,1,5.23,25.28L170.3,161A145,145,0,0,0,165.07,135.68Z"/><g class="cls-92"><g class="cls-10"><path class="cls-93" d="M165.07,135.68l14.1-8.2c.21.71.42,1.42.62,2.13l-14.1,8.2c-.2-.71-.41-1.42-.62-2.13"/><path class="cls-94" d="M165.69,137.81l14.1-8.2c.43,1.52.84,3,1.22,4.54l-14.1,8.2c-.38-1.51-.79-3-1.22-4.54"/><path class="cls-95" d="M166.91,142.35l14.1-8.2q.54,2.17,1,4.35l-14.1,8.19c-.32-1.44-.66-2.89-1-4.34"/><path class="cls-96" d="M167.93,146.69,182,138.5c.31,1.39.59,2.79.85,4.19l-14.1,8.19c-.26-1.39-.55-2.79-.85-4.19"/><path class="cls-97" d="M168.78,150.88l14.1-8.19c.26,1.36.5,2.72.71,4.08L169.49,155c-.21-1.35-.45-2.71-.71-4.08"/><path class="cls-98" d="M169.49,155l14.1-8.19c.21,1.34.4,2.67.57,4l-14.1,8.2c-.17-1.33-.36-2.67-.57-4"/><path class="cls-99" d="M170.06,159l14.1-8.2c.09.66.17,1.33.24,2L170.3,161l-.24-2"/></g></g><path class="cls-8" d="M103.47,45.42l14.1-8.2a145.82,145.82,0,0,1,19.27,17.12l-14.1,8.2A145,145,0,0,0,103.47,45.42Z"/><g class="cls-100"><g class="cls-10"><path class="cls-101" d="M103.47,45.42l14.1-8.2.15.11-14.11,8.2-.14-.11"/><path class="cls-102" d="M103.61,45.53l14.11-8.2q1.82,1.35,3.61,2.76l-14.1,8.2c-1.2-.95-2.4-1.87-3.62-2.76"/><path class="cls-103" d="M107.23,48.29l14.1-8.2c1.27,1,2.52,2,3.77,3.1L111,51.38q-1.87-1.59-3.77-3.09"/><path class="cls-104" d="M111,51.38l14.1-8.19c1.34,1.14,2.68,2.32,4,3.53L115,54.92q-2-1.81-4-3.54"/><path class="cls-105" d="M115,54.92l14.11-8.2q2.21,2,4.35,4.15l-14.1,8.2c-1.44-1.42-2.89-2.81-4.36-4.15"/><path class="cls-106" d="M119.35,59.07l14.1-8.2q1.71,1.71,3.39,3.47l-14.1,8.2q-1.68-1.77-3.39-3.47"/></g></g><polygon class="cls-107" points="185.75 169.88 199.86 161.69 199.79 185.45 185.69 193.65 185.75 169.88"/><polygon class="cls-108" points="170.3 160.96 184.4 152.76 199.86 161.69 185.75 169.88 170.3 160.96"/><polygon class="cls-109" points="103.52 27.45 117.62 19.25 117.57 37.22 103.47 45.42 103.52 27.45"/><polygon class="cls-110" points="82.84 15.51 96.94 7.32 117.62 19.25 103.52 27.45 82.84 15.51"/><path class="cls-9" d="M140.59,84.79l14.11-8.2a192.74,192.74,0,0,1,14.09,24.35l-14.1,8.2A192.11,192.11,0,0,0,140.59,84.79Z"/><g class="cls-111"><g class="cls-10"><path class="cls-112" d="M140.59,84.79l14.11-8.2A194.49,194.49,0,0,1,167,97.32l-14.1,8.2a192.91,192.91,0,0,0-12.3-20.73"/><path class="cls-113" d="M152.89,105.52l14.1-8.2c.61,1.2,1.21,2.41,1.8,3.62l-14.1,8.2c-.59-1.22-1.19-2.42-1.8-3.62"/></g></g><polygon class="cls-114" points="154.69 109.14 168.79 100.94 182.39 99.77 168.29 107.97 154.69 109.14"/><polygon class="cls-115" points="168.29 107.97 182.39 99.77 192.68 126.32 178.57 134.52 168.29 107.97"/><polygon class="cls-116" points="130.63 51.46 144.73 43.27 162.6 65.49 148.5 73.68 130.63 51.46"/><path class="cls-117" d="M185.69,193.65l-15.3-8.84a68.18,68.18,0,0,1-5.11,19.58l13.05,16.23-10.4,14.61-12.89-16a37.5,37.5,0,0,1-14.36,8.46L148,246.58l-17.94,1.55-7.22-18.64A67.13,67.13,0,0,1,103,224.27l0,16.55L82.24,228.88l0-16.43a144.77,144.77,0,0,1-20-17.63l-7.14,10L37.25,182.64l7.15-10a191,191,0,0,1-14.57-25.31l-12.37,1.06L7.18,121.81l12.43-1.07A141.49,141.49,0,0,1,14.48,94.8L0,86.44.07,62.67,14.7,71.12A66.32,66.32,0,0,1,20.21,51.6L7.43,35.7,17.82,21.09l13,16.15a37.78,37.78,0,0,1,14.49-8L37.74,9.74,55.69,8.2l7.64,19.73a69.09,69.09,0,0,1,19.46,5.43l0-17.85,20.68,11.94,0,18a145,145,0,0,1,19.27,17.12l7.89-11.08L148.5,73.68l-7.91,11.11a192.11,192.11,0,0,1,14.1,24.35l13.6-1.17,10.28,26.55-13.5,1.16A145,145,0,0,1,170.3,161l15.45,8.92ZM92.37,160.48c15.28,8.82,27.75,1.71,27.8-15.85s-12.34-39-27.62-47.83-27.74-1.72-27.79,15.84,12.33,39,27.61,47.84"/><polygon class="cls-118" points="148.5 73.68 162.6 65.49 154.7 76.59 140.59 84.78 148.5 73.68"/></g></g></g></svg>