<svg xmlns="http://www.w3.org/2000/svg" xmlns:xlink="http://www.w3.org/1999/xlink" viewBox="0 0 294.69 294.69"><defs><style>.cls-1{fill:url(#Áåçûìÿííûé_ãðàäèåíò_62);}</style><linearGradient id="Áåçûìÿííûé_ãðàäèåíò_62" y1="147.35" x2="294.69" y2="147.35" gradientUnits="userSpaceOnUse"><stop offset="0.01" stop-color="#f9ca3b"/><stop offset="0.01" stop-color="#facf40"/><stop offset="0.02" stop-color="#fce254"/><stop offset="0.16" stop-color="#fce355"/><stop offset="0.24" stop-color="#fbdd4f"/><stop offset="0.34" stop-color="#f8cd3e"/><stop offset="0.37" stop-color="#f7c839"/><stop offset="0.38" stop-color="#deaf22"/><stop offset="0.78" stop-color="#d8a01c"/><stop offset="0.78" stop-color="#d69e16"/><stop offset="0.79" stop-color="#ce9500"/><stop offset="0.79" stop-color="#cc9200"/><stop offset="0.87" stop-color="#ba7b00"/><stop offset="0.94" stop-color="#af6d00"/><stop offset="1" stop-color="#ab6800"/></linearGradient></defs><title>cog_noniso_01</title><g id="Layer_2" data-name="Layer 2"><g id="Layer_1-2" data-name="Layer 1"><path class="cls-1" d="M272.86,130.36h21.83v34H272.86a123.29,123.29,0,0,1-8.33,31l18.92,10.92-17,29.43-19.25-11.09a125,125,0,0,1-22.79,22.19l11.33,19.61-29.46,17-11.55-20a123.79,123.79,0,0,1-30.4,7.64v23.63h-34V270.4a123.68,123.68,0,0,1-29.62-8.3L88.38,283.42l-29.44-17L71.57,244.6a125.26,125.26,0,0,1-21.11-21.69L28.24,235.75l-17-29.46,22.43-13a124.58,124.58,0,0,1-7.58-29H0v-34H26.1a124.53,124.53,0,0,1,7.58-29l-22.43-13,17-29.44L50.46,71.75A124.85,124.85,0,0,1,71.57,50.07L58.94,28.24l29.47-17,12.33,21.32a123.61,123.61,0,0,1,29.62-8.3V0h34V23.64a123.33,123.33,0,0,1,30.4,7.63l11.58-20,29.43,17L224.45,47.87a125.7,125.7,0,0,1,22.79,22.19L266.49,59l17,29.44L264.56,99.32a125.55,125.55,0,0,1,8.3,31ZM147.26,73.58a73.68,73.68,0,1,0,73.67,73.68A73.68,73.68,0,0,0,147.26,73.58Zm.09,102.09a28.33,28.33,0,1,1,28.32-28.32A28.32,28.32,0,0,1,147.35,175.67Z"/></g></g></svg>