<svg xmlns="http://www.w3.org/2000/svg" viewBox="0 0 110.48 125.48"><defs><style>.cls-1{fill:#ad7126;}.cls-2{fill:#ffab5f;}.cls-3{fill:#291a0f;}.cls-4{fill:#422a18;}.cls-5{fill:#cab25f;}.cls-6{fill:#31200b;}.cls-7{fill:#9a6522;}.cls-8{opacity:0.54;}.cls-9{fill:#ed7000;}.cls-10{fill:#693820;}</style></defs><title>hus_2</title><g id="Layer_2" data-name="Layer 2"><g id="Layer_1-2" data-name="Layer 1"><polygon class="cls-1" points="5.21 49.94 4.94 96.73 54.55 125.48 54.82 78.68 5.21 49.94"/><polygon class="cls-2" points="52.72 22.09 5.21 49.94 54.82 78.68 54.55 125.48 102.07 97.62 102.33 50.83 52.72 22.09"/><polygon class="cls-3" points="30.14 0 26.07 7.11 0 52.26 49.95 81.28 76.02 36.13 80.09 29.02 30.14 0"/><polygon class="cls-4" points="80.09 29.02 84.26 31.35 110.48 46.34 106.38 53.43 80.14 38.48 54.07 83.63 49.95 81.28 76.02 36.13 80.09 29.02"/><path class="cls-5" d="M83.39,98.71l-5.59,3.22h0l0-11a8.36,8.36,0,0,1,3.81-6.6,3.52,3.52,0,0,1,1.5-.49,3.68,3.68,0,0,1,.27,1.45Z"/><path class="cls-6" d="M83.39,98.71l0-13.43a3.68,3.68,0,0,0-.27-1.45v0h.37a1.2,1.2,0,0,1,.2,0l.25,0a1,1,0,0,1,.18.07,1,1,0,0,1,.21.11l.18.1.17.15a1.14,1.14,0,0,1,.15.16,1.24,1.24,0,0,1,.14.18c0,.07.09.13.13.21a1.33,1.33,0,0,1,.09.21c0,.09.08.17.11.26s0,.15,0,.23,0,.21.07.32a.61.61,0,0,0,0,.14,3.75,3.75,0,0,1,0,.48l0,13.43Z"/><polygon class="cls-7" points="83.39 98.71 85.45 99.94 77.81 104.35 77.81 104.35 77.8 101.93 83.39 98.71"/><path class="cls-5" d="M25.81,93.59l5.59,3.22h0l0-11a8.38,8.38,0,0,0-3.81-6.6,3.67,3.67,0,0,0-1.49-.49,3.5,3.5,0,0,0-.28,1.45Z"/><path class="cls-6" d="M25.81,93.59l0-13.43a3.5,3.5,0,0,1,.28-1.45v0h-.37l-.2,0a.94.94,0,0,0-.24.06.6.6,0,0,0-.19.06,1,1,0,0,0-.21.11l-.18.1-.17.15a1.14,1.14,0,0,0-.15.16,1.24,1.24,0,0,0-.14.18c0,.07-.09.13-.13.21a1.89,1.89,0,0,0-.09.21c0,.09-.08.17-.11.26s0,.15-.05.23,0,.21-.07.32,0,.1,0,.14a3.75,3.75,0,0,0,0,.48l0,13.43Z"/><polygon class="cls-7" points="25.81 93.59 23.75 94.82 31.39 99.23 31.39 99.23 31.4 96.81 25.81 93.59"/><path class="cls-5" d="M83.39,69.8,77.8,73h0l0-11a8.36,8.36,0,0,1,3.81-6.6,3.52,3.52,0,0,1,1.5-.49,3.66,3.66,0,0,1,.27,1.44Z"/><path class="cls-6" d="M83.39,69.8l0-13.44a3.66,3.66,0,0,0-.27-1.44s0,0,0,0h.37l.2,0,.25.06.18.06a1,1,0,0,1,.21.11l.18.11c.06,0,.11.1.17.15l.15.15.14.19c0,.07.09.13.13.21a1.33,1.33,0,0,1,.09.21c0,.09.08.17.11.26s0,.15,0,.23,0,.2.07.32a.71.71,0,0,0,0,.14,3.59,3.59,0,0,1,0,.47l0,13.44Z"/><polygon class="cls-7" points="83.39 69.8 85.45 71.03 77.81 75.44 77.81 75.44 77.8 73.02 83.39 69.8"/><g class="cls-8"><polygon class="cls-9" points="62.87 104.97 73.26 98.97 73.24 93.55 72.79 93.81 62.86 99.55 62.87 104.97"/><polygon class="cls-9" points="66.76 105.17 56.38 111.17 56.4 116.59 66.78 110.59 66.76 105.17"/></g><polygon class="cls-10" points="34.23 96.41 42.14 100.98 42.13 105.1 34.22 100.53 34.23 96.41"/><polygon class="cls-10" points="7.34 71.19 15.25 75.76 15.24 79.89 7.32 75.31 7.34 71.19"/><polygon class="cls-10" points="14.68 68.31 20.21 71.5 20.2 74.38 14.67 71.19 14.68 68.31"/><polygon class="cls-10" points="13.49 82.15 21.4 86.72 21.39 90.85 13.48 86.28 13.49 82.15"/><polygon class="cls-10" points="8 87.76 14.09 91.28 14.08 94.45 7.99 90.94 8 87.76"/><polygon class="cls-10" points="41.27 89.07 49.19 93.64 49.18 97.76 41.26 93.19 41.27 89.07"/></g></g></svg>