<svg xmlns="http://www.w3.org/2000/svg" xmlns:xlink="http://www.w3.org/1999/xlink" viewBox="0 0 212.55 239.61"><defs><style>.cls-1{isolation:isolate;}.cls-2{fill:#ad7126;}.cls-3{fill:#ffab5f;}.cls-4{fill:#7e511c;}.cls-5{opacity:0.15;fill:url(#linear-gradient);}.cls-19,.cls-20,.cls-22,.cls-23,.cls-24,.cls-25,.cls-5,.cls-7{mix-blend-mode:multiply;}.cls-6{fill:#5b3b14;}.cls-19,.cls-20,.cls-22,.cls-23,.cls-24,.cls-25,.cls-37,.cls-38,.cls-47,.cls-48,.cls-7{opacity:0.31;}.cls-7{fill:url(#linear-gradient-2);}.cls-8{fill:#0f6579;}.cls-9{fill:#1486a1;}.cls-10{fill:#0c5b68;}.cls-11{fill:#45a20c;}.cls-12{fill:#9e9e9e;}.cls-13{fill:#595959;}.cls-14{fill:#777;}.cls-15{fill:#2e1d0a;}.cls-16{fill:#231608;}.cls-17{fill:#6f4619;}.cls-18{fill:#442c0f;}.cls-19{fill:url(#linear-gradient-3);}.cls-20{fill:url(#linear-gradient-4);}.cls-21{fill:#9a6422;}.cls-22{fill:url(#linear-gradient-5);}.cls-23{fill:url(#linear-gradient-6);}.cls-24{fill:url(#linear-gradient-7);}.cls-25{fill:url(#linear-gradient-8);}.cls-26{fill:#fcb500;}.cls-27{fill:#603b1a;}.cls-28{fill:#663e1b;}.cls-29{fill:#8c4b2b;}.cls-30{fill:#693820;}.cls-31{fill:#31200b;}.cls-32{fill:#9a6522;}.cls-33{fill:#462e0f;}.cls-34{fill:#4e3311;}.cls-35{fill:#b57429;}.cls-36{fill:#ca822d;}.cls-37,.cls-38,.cls-47,.cls-48{mix-blend-mode:overlay;}.cls-37{fill:url(#linear-gradient-9);}.cls-38{fill:url(#linear-gradient-10);}.cls-39{fill:#e37000;}.cls-40{fill:#422a18;}.cls-41{fill:#2ae4f0;}.cls-42{fill:#f49e29;}.cls-43{fill:#ed7000;}.cls-44{fill:#ce4a00;}.cls-45{fill:#bf7321;}.cls-46{fill:#49cae8;}.cls-47{fill:url(#linear-gradient-11);}.cls-48{fill:url(#linear-gradient-12);}.cls-49{fill:#744b19;}.cls-50{fill:#34220b;}.cls-51{fill:#4d3311;}.cls-52{fill:#674317;}.cls-53{fill:#cab25f;}.cls-54{fill:#7a2000;}.cls-55{fill:#291a0f;}</style><linearGradient id="linear-gradient" x1="730.9" y1="174.76" x2="745.8" y2="174.76" gradientTransform="matrix(-1, 0, 0, 1, 748.03, 0)" gradientUnits="userSpaceOnUse"><stop offset="0" stop-color="#fff"/><stop offset="1" stop-color="#4c4c4c"/></linearGradient><linearGradient id="linear-gradient-2" x1="627.52" y1="200.23" x2="730.9" y2="200.23" gradientTransform="matrix(-1, 0, 0, 1, 748.03, 0)" gradientUnits="userSpaceOnUse"><stop offset="0.3" stop-color="#fff"/><stop offset="1" stop-color="#4c4c4c"/></linearGradient><linearGradient id="linear-gradient-3" x1="20.2" y1="133.36" x2="24.97" y2="133.36" gradientTransform="matrix(1, 0, 0, 1, 0, 0)" xlink:href="#linear-gradient-2"/><linearGradient id="linear-gradient-4" x1="15.26" y1="133.29" x2="20.14" y2="133.29" gradientTransform="matrix(1, 0, 0, 1, 0, 0)" xlink:href="#linear-gradient-2"/><linearGradient id="linear-gradient-5" x1="15.31" y1="101.59" x2="24.97" y2="101.59" gradientTransform="matrix(1, 0, 0, 1, 0, 0)" xlink:href="#linear-gradient-2"/><linearGradient id="linear-gradient-6" x1="37.44" y1="141.81" x2="42.21" y2="141.81" gradientTransform="matrix(1, 0, 0, 1, 0, 0)" xlink:href="#linear-gradient-2"/><linearGradient id="linear-gradient-7" x1="32.5" y1="141.74" x2="37.38" y2="141.74" gradientTransform="matrix(1, 0, 0, 1, 0, 0)" xlink:href="#linear-gradient-2"/><linearGradient id="linear-gradient-8" x1="32.56" y1="110.04" x2="42.21" y2="110.04" gradientTransform="matrix(1, 0, 0, 1, 0, 0)" xlink:href="#linear-gradient-2"/><linearGradient id="linear-gradient-9" x1="62.49" y1="163.69" x2="113.05" y2="163.69" gradientUnits="userSpaceOnUse"><stop offset="0" stop-color="#4c4c4c"/><stop offset="0.7" stop-color="#fff"/></linearGradient><linearGradient id="linear-gradient-10" x1="54.51" y1="165.57" x2="109.87" y2="165.57" gradientTransform="matrix(1, 0, 0, 1, 0, 0)" xlink:href="#linear-gradient-2"/><linearGradient id="linear-gradient-11" x1="46.5" y1="173.17" x2="97.06" y2="173.17" xlink:href="#linear-gradient-9"/><linearGradient id="linear-gradient-12" x1="38.52" y1="175.05" x2="93.88" y2="175.05" gradientTransform="matrix(1, 0, 0, 1, 0, 0)" xlink:href="#linear-gradient-2"/></defs><title>hus_m_hjul_01</title><g class="cls-1"><g id="Layer_2" data-name="Layer 2"><g id="Layer_1-2" data-name="Layer 1"><polygon class="cls-2" points="105.6 236.51 105.7 239.61 0.11 178.63 0 175.54 105.6 236.51"/><polygon class="cls-3" points="122.74 226.56 122.84 229.66 105.7 239.61 105.6 236.51 122.74 226.56"/><polygon class="cls-4" points="17 181.1 14.06 182.61 2.23 175.56 17.13 166.91 17.13 181.18 17 181.1"/><polygon class="cls-5" points="17 181.1 14.06 182.61 2.23 175.56 17.13 166.91 17.13 181.18 17 181.1"/><polygon class="cls-6" points="17.13 166.91 120.51 226.53 108.91 233.56 17.13 181.18 17.13 166.91"/><polygon class="cls-7" points="17.13 166.91 120.51 226.53 108.91 233.56 17.13 181.18 17.13 166.91"/><polygon class="cls-8" points="17.13 181.31 14.2 182.82 3.24 176.18 17.27 168.18 17.27 181.4 17.13 181.31"/><polygon class="cls-9" points="17.27 168.18 17.29 168.17 119.62 227.05 109.05 233.77 17.27 181.4 17.27 168.18"/><polygon class="cls-10" points="17.13 181.31 17.27 181.4 109.05 233.77 105.75 235.4 104.08 234.37 18.66 185.69 14.2 182.82 17.13 181.31"/><polygon class="cls-11" points="119.93 227.24 17.27 168.18 3.24 176.18 105.75 235.4 119.93 227.24"/><path class="cls-3" d="M0,175.54l105.6,61,17.14-9.95-105.6-61ZM105.75,235.4,2.23,175.56l14.9-8.65,103.38,59.62Z"/><polygon class="cls-12" points="121.91 190.06 121.96 199.7 69.02 168.5 68.96 158.86 121.91 190.06"/><polygon class="cls-13" points="209.36 139.75 209.42 149.4 121.96 199.7 121.91 190.06 209.36 139.75"/><polygon class="cls-14" points="68.96 158.86 156.42 108.55 209.36 139.75 121.91 190.06 68.96 158.86"/><polygon class="cls-15" points="98.31 13.61 98.34 56.87 107.28 62.07 107.25 18.81 98.31 13.61"/><polygon class="cls-16" points="116.15 13.61 107.21 8.41 98.31 13.61 107.25 18.81 116.15 13.61"/><polygon class="cls-6" points="116.15 13.61 107.25 18.81 107.28 62.07 116.18 56.87 116.15 13.61"/><polygon class="cls-16" points="91.62 12.36 91.67 20.09 107.3 29.16 107.24 21.44 91.62 12.36"/><polygon points="107.17 7.96 99.66 12.35 107.24 16.75 114.75 12.36 107.17 7.96"/><path class="cls-17" d="M107.17,3.27,91.62,12.36l15.62,9.08,15.55-9.08Zm-7.51,9.08L107.17,8l7.58,4.4-7.51,4.39Z"/><polygon class="cls-18" points="122.79 12.36 107.24 21.44 107.3 29.16 122.84 20.09 122.79 12.36"/><polygon class="cls-6" points="24.97 162.69 20.2 165.06 20.2 104.03 24.97 101.66 24.97 162.69"/><polygon class="cls-19" points="24.97 162.69 20.2 165.06 20.2 104.03 24.97 101.66 24.97 162.69"/><polygon class="cls-18" points="15.31 162.54 20.2 165.06 20.2 104.03 15.31 101.52 15.31 162.54"/><polygon class="cls-20" points="15.26 162.54 20.14 165.06 20.14 104.03 15.26 101.52 15.26 162.54"/><polygon class="cls-21" points="15.31 101.52 20.2 104.03 24.97 101.61 20.08 99.14 15.31 101.52"/><polygon class="cls-22" points="15.31 101.52 20.2 104.03 24.97 101.61 20.08 99.14 15.31 101.52"/><polygon class="cls-6" points="42.21 171.14 37.44 173.51 37.44 112.49 42.21 110.12 42.21 171.14"/><polygon class="cls-23" points="42.21 171.14 37.44 173.51 37.44 112.49 42.21 110.12 42.21 171.14"/><polygon class="cls-18" points="32.56 171 37.44 173.51 37.44 112.49 32.56 109.97 32.56 171"/><polygon class="cls-24" points="32.5 171 37.38 173.51 37.38 112.49 32.5 109.97 32.5 171"/><polygon class="cls-21" points="32.56 109.97 37.44 112.49 42.21 110.06 37.33 107.6 32.56 109.97"/><polygon class="cls-25" points="32.56 109.97 37.44 112.49 42.21 110.06 37.33 107.6 32.56 109.97"/><polygon class="cls-3" points="122.41 123.47 122.26 187.77 203.94 140.31 204.09 76.01 122.41 123.47"/><polygon class="cls-2" points="41.03 76.48 40.87 140.78 122.26 187.77 122.41 123.47 41.03 76.48"/><polygon class="cls-26" points="81.79 53.12 122.41 123.47 204.09 76.01 163.47 5.65 81.79 53.12"/><polygon class="cls-27" points="163.47 5.65 122.7 29.02 41.03 76.48 81.79 53.12 163.47 5.65"/><polygon class="cls-28" points="81.79 53.12 41.03 76.48 122.41 123.47 81.79 53.12"/><polygon class="cls-29" points="172.3 119.13 164.38 123.69 164.39 127.82 172.31 123.25 172.3 119.13"/><polygon class="cls-29" points="199.13 89.53 191.21 94.1 191.22 98.22 199.14 93.65 199.13 89.53"/><polygon class="cls-29" points="165.39 116.92 157.48 121.49 157.49 125.61 165.4 121.05 165.39 116.92"/><polygon class="cls-30" points="97.45 124.89 105.37 129.47 105.36 133.59 97.44 129.02 97.45 124.89"/><polygon class="cls-30" points="92.38 114.93 100.29 119.5 100.28 123.62 92.36 119.05 92.38 114.93"/><polygon class="cls-30" points="104.11 121.27 112.03 125.84 112.02 129.96 104.1 125.39 104.11 121.27"/><polygon class="cls-30" points="61.93 98.1 69.84 102.67 69.83 106.79 61.91 102.22 61.93 98.1"/><polygon class="cls-31" points="40.98 79.8 15.83 94.41 17.04 95.12 19.07 96.3 40.98 83.57 40.98 79.8"/><polygon class="cls-32" points="40.98 79.8 40.98 77.41 13.78 93.22 15.83 94.41 40.98 79.8"/><polygon class="cls-32" points="31.8 95.61 40.98 90.27 40.98 87.89 29.75 94.41 31.8 95.61"/><polygon class="cls-31" points="33.85 94.41 39.12 97.48 40.98 96.4 40.98 90.27 33.85 94.41"/><polygon class="cls-33" points="11.73 99.37 11.72 98.18 11.72 94.42 11.7 98.2 11.7 99.39 11.7 100.56 20.84 105.84 11.73 100.55 11.73 99.37"/><polygon class="cls-34" points="29.74 94.42 29.74 94.41 29.75 94.41 40.98 87.89 40.98 83.57 19.07 96.3 19.07 96.3 77.14 130.11 77.16 133.89 84.14 129.86 29.74 98.18 29.74 94.42"/><polygon class="cls-32" points="77.14 130.11 19.07 96.3 19.07 96.3 17.04 95.12 15.83 94.41 13.78 93.22 13.77 93.22 11.72 94.41 75.09 131.3 77.14 130.11"/><polygon class="cls-31" points="75.1 135.07 75.09 131.3 11.72 94.41 11.72 94.42 11.72 98.18 11.73 99.37 11.73 100.55 20.84 105.84 75.11 137.44 75.1 136.27 75.1 135.07"/><polygon class="cls-33" points="86.2 129.86 86.2 128.67 86.19 124.89 84.13 126.08 84.14 129.86 77.16 133.89 77.14 130.11 75.09 131.3 75.1 135.07 75.1 136.27 75.11 137.44 86.2 131.03 86.2 129.86"/><polygon class="cls-32" points="33.76 94.47 31.8 95.61 84.13 126.08 86.19 124.89 39.12 97.48 33.85 94.41 33.76 94.47"/><polygon class="cls-32" points="33.76 94.47 33.85 94.41 33.85 94.41 33.76 94.47"/><polygon class="cls-31" points="29.75 94.41 29.74 94.41 29.74 94.42 29.74 98.18 84.14 129.86 84.13 126.08 31.8 95.61 29.75 94.41"/><path class="cls-35" d="M77.19,186.26v-5a50.3,50.3,0,0,1-11.14-19.27l-4.38-2.53a45.17,45.17,0,0,0,3.69,11.11,50.28,50.28,0,0,0,4,7c.76,1.11,1.56,2.18,2.39,3.2A42,42,0,0,0,77.19,186.26Z"/><polygon class="cls-4" points="90.36 175.97 87.11 174.09 87.06 191.96 90.33 190.06 90.36 175.97"/><path class="cls-35" d="M65,146.17a13.16,13.16,0,0,1,4.1-7.09,10.38,10.38,0,0,0-1.86.84,10.13,10.13,0,0,0-1.79,1.35.12.12,0,0,0-.05,0,11.1,11.1,0,0,0-1.53,1.79s0,0,0,0a12.84,12.84,0,0,0-1.21,2.23,0,0,0,0,0,0,0,16.38,16.38,0,0,0-.88,2.67Z"/><path class="cls-36" d="M90.32,190.06,87.06,192c.48.15,1,.27,1.42.37.18,0,.35,0,.52.08s.59.12.87.15l.57,0c.25,0,.51.05.77.06s.38,0,.58,0,.47,0,.71,0a5.35,5.35,0,0,0,.56-.07c.22,0,.46,0,.68-.08l.53-.13c.22,0,.44-.09.65-.16l.51-.18c.2-.07.41-.14.6-.22s.33-.16.5-.25.37-.17.55-.28a10.28,10.28,0,0,0,1.59-1.14A13.23,13.23,0,0,1,90.32,190.06Z"/><polygon class="cls-36" points="61.72 148.07 61.72 148.07 77.27 157.05 77.28 153.27 64.98 146.17 61.72 148.07"/><path class="cls-36" d="M101.6,167.31l-11.19-6.46-3.27,1.9,15.57,9A40.41,40.41,0,0,0,101.6,167.31Z"/><path class="cls-4" d="M90.44,148a40.11,40.11,0,0,0-3.25-3.15l0,17.89,3.27-1.9Z"/><path class="cls-4" d="M85.55,131.87c-7.69-4.44-14.67-4.86-19.7-1.93l-3.27,1.9.06,0c.33-.19.69-.33,1-.49a9.83,9.83,0,0,1,.93-.43c.37-.14.76-.23,1.15-.34s.65-.21,1-.27.83-.11,1.25-.16.68-.11,1-.13.89,0,1.34,0,.72,0,1.09,0,1,.14,1.45.22.73.09,1.11.17,1.06.29,1.6.45c.35.11.7.18,1.06.3.59.2,1.2.47,1.8.72.32.14.63.24,1,.39.93.42,1.88.92,2.84,1.47,15.28,8.83,27.63,30.21,27.58,47.77,0,1.1-.06,2.15-.15,3.16,0,.35-.11.67-.15,1-.08.64-.16,1.29-.28,1.9-.07.37-.19.7-.27,1.06-.13.54-.25,1.09-.42,1.59s-.27.69-.4,1-.33.93-.53,1.35-.35.63-.52,1-.41.79-.65,1.16-.41.54-.62.82-.49.69-.76,1-.49.47-.74.71-.55.57-.85.82-.56.38-.84.58-.58.44-.9.63l3.27-1.9c5-2.89,8-9,8.07-17.76C113.18,162.08,100.84,140.7,85.55,131.87Z"/><path class="cls-37" d="M85.47,131.87c-7.7-4.44-14.67-4.86-19.71-1.93l-3.27,1.9.06,0c.33-.19.69-.33,1-.49s.61-.31.93-.43.77-.23,1.15-.34.65-.21,1-.27.83-.11,1.25-.16.69-.11,1-.13.89,0,1.34,0,.72,0,1.09,0,1,.14,1.46.22.72.09,1.1.17,1.06.29,1.6.45c.35.11.7.18,1.06.3.59.2,1.2.47,1.8.72.32.14.64.24,1,.39.93.42,1.88.92,2.84,1.47,15.29,8.83,27.63,30.21,27.58,47.77,0,1.1,0,2.15-.15,3.16,0,.35-.1.67-.15,1-.08.64-.16,1.29-.28,1.9-.07.37-.18.7-.27,1.06-.13.54-.25,1.09-.41,1.59s-.27.69-.41,1-.33.93-.53,1.35-.34.63-.52,1-.41.79-.64,1.16-.42.54-.63.82-.49.69-.76,1-.49.47-.73.71-.56.57-.86.82-.56.38-.83.58-.59.44-.91.63l3.27-1.9c5-2.89,8-9,8.08-17.76C113.1,162.08,100.75,140.7,85.47,131.87Z"/><path class="cls-6" d="M104.38,197.28c.25-.24.51-.45.74-.71s.51-.66.76-1,.43-.53.62-.82.44-.77.65-1.16.36-.61.52-1,.36-.9.53-1.35.28-.67.4-1,.29-1,.42-1.59c.08-.36.2-.69.27-1.06.12-.61.2-1.26.28-1.9,0-.34.11-.66.15-1,.09-1,.14-2.06.15-3.16,0-17.56-12.3-38.94-27.58-47.77-1-.55-1.91-1.05-2.84-1.47-.33-.15-.64-.25-1-.39-.6-.25-1.21-.52-1.8-.72-.36-.12-.71-.19-1.06-.3-.54-.16-1.08-.33-1.6-.45s-.74-.11-1.11-.17-1-.18-1.45-.22-.73,0-1.09,0-.91-.05-1.34,0-.69.09-1,.13-.85.08-1.25.16-.66.18-1,.27-.78.2-1.15.34a9.83,9.83,0,0,0-.93.43c-.35.16-.71.3-1,.49-5,2.88-8.1,9-8.13,17.77,0,17.57,12.31,39,27.6,47.8,8.17,4.72,15.5,4.85,20.58,1.3.28-.2.57-.37.84-.58S104.1,197.56,104.38,197.28Zm-41.77-51.9a12.84,12.84,0,0,1,1.21-2.23s0,0,0,0a11.1,11.1,0,0,1,1.53-1.79.12.12,0,0,1,.05,0,10.13,10.13,0,0,1,1.79-1.35,10.38,10.38,0,0,1,1.86-.84,13.41,13.41,0,0,1,8.24.08l0,14.11v3.78l-15.55-9a16.92,16.92,0,0,1,.87-2.66Zm6.79,32.11a50.28,50.28,0,0,1-4-7,45.17,45.17,0,0,1-3.69-11.11l4.38,2.53,11.18,6.45,0,12.82v5a42,42,0,0,1-5.4-5.57C71,179.67,70.16,178.6,69.4,177.49Zm17.79-32.63A40.11,40.11,0,0,1,90.44,148a50.08,50.08,0,0,1,11.16,19.3,40.41,40.41,0,0,1,1.11,4.43l-15.57-9Zm11.48,45.26a10.28,10.28,0,0,1-1.59,1.14c-.18.11-.37.19-.55.28s-.33.18-.5.25-.4.15-.6.22l-.51.18c-.21.07-.43.11-.65.16l-.53.13c-.22,0-.46.06-.68.08a5.35,5.35,0,0,1-.56.07c-.24,0-.48,0-.71,0s-.38,0-.58,0-.52,0-.77-.06l-.57,0c-.28,0-.58-.09-.87-.15s-.34,0-.52-.08c-.47-.1-.94-.22-1.42-.37l0-17.87L90.36,176l12.31,7.11A13.08,13.08,0,0,1,98.67,190.12Z"/><path class="cls-38" d="M104.38,197.28c.25-.24.51-.45.74-.71s.51-.66.76-1,.43-.53.62-.82.44-.77.65-1.16.36-.61.52-1,.36-.9.53-1.35.28-.67.4-1,.29-1,.42-1.59c.08-.36.2-.69.27-1.06.12-.61.2-1.26.28-1.9,0-.34.11-.66.15-1,.09-1,.14-2.06.15-3.16,0-17.56-12.3-38.94-27.58-47.77-1-.55-1.91-1.05-2.84-1.47-.33-.15-.64-.25-1-.39-.6-.25-1.21-.52-1.8-.72-.36-.12-.71-.19-1.06-.3-.54-.16-1.08-.33-1.6-.45s-.74-.11-1.11-.17-1-.18-1.45-.22-.73,0-1.09,0-.91-.05-1.34,0-.69.09-1,.13-.85.08-1.25.16-.66.18-1,.27-.78.2-1.15.34a9.83,9.83,0,0,0-.93.43c-.35.16-.71.3-1,.49-5,2.88-8.1,9-8.13,17.77,0,17.57,12.31,39,27.6,47.8,8.17,4.72,15.5,4.85,20.58,1.3.28-.2.57-.37.84-.58S104.1,197.56,104.38,197.28Zm-41.77-51.9a12.84,12.84,0,0,1,1.21-2.23s0,0,0,0a11.1,11.1,0,0,1,1.53-1.79.12.12,0,0,1,.05,0,10.13,10.13,0,0,1,1.79-1.35,10.38,10.38,0,0,1,1.86-.84,13.41,13.41,0,0,1,8.24.08l0,14.11v3.78l-15.55-9a16.92,16.92,0,0,1,.87-2.66Zm6.79,32.11a50.28,50.28,0,0,1-4-7,45.17,45.17,0,0,1-3.69-11.11l4.38,2.53,11.18,6.45,0,12.82v5a42,42,0,0,1-5.4-5.57C71,179.67,70.16,178.6,69.4,177.49Zm17.79-32.63A40.11,40.11,0,0,1,90.44,148a50.08,50.08,0,0,1,11.16,19.3,40.41,40.41,0,0,1,1.11,4.43l-15.57-9Zm11.48,45.26a10.28,10.28,0,0,1-1.59,1.14c-.18.11-.37.19-.55.28s-.33.18-.5.25-.4.15-.6.22l-.51.18c-.21.07-.43.11-.65.16l-.53.13c-.22,0-.46.06-.68.08a5.35,5.35,0,0,1-.56.07c-.24,0-.48,0-.71,0s-.38,0-.58,0-.52,0-.77-.06l-.57,0c-.28,0-.58-.09-.87-.15s-.34,0-.52-.08c-.47-.1-.94-.22-1.42-.37l0-17.87L90.36,176l12.31,7.11A13.08,13.08,0,0,1,98.67,190.12Z"/><path class="cls-39" d="M62.06,195c-.72-.68-1.43-1.39-2.12-2.14-.09-.09-.19-.17-.28-.27.81.88,1.64,1.71,2.49,2.51h0A.43.43,0,0,0,62.06,195Z"/><path class="cls-40" d="M58.35,193.28l-4.91,6.91,7.41-4.31C60,195.05,59.16,194.19,58.35,193.28Z"/><path class="cls-2" d="M55.05,189.16l-4.92,6.91,3.31,4.12,4.91-6.91C57.2,192,56.09,190.59,55.05,189.16Z"/><path class="cls-2" d="M38.42,174.17l1.9,4.93,8.49-.73c-.72-1.63-1.36-3.28-1.91-4.93Z"/><path class="cls-40" d="M45.86,169.84l-7.44,4.33,8.48-.73C46.5,172.24,46.17,171,45.86,169.84Z"/><path class="cls-41" d="M53.66,184.66h0a1.62,1.62,0,0,1,.1.18l0,0c0,.06.09.12.13.19h0Z"/><path class="cls-41" d="M51.86,181.55c.56,1.06,1.16,2.09,1.79,3.11h0C53,183.64,52.42,182.61,51.86,181.55Z"/><path class="cls-41" d="M53.9,185.05h0c.56.89,1.15,1.76,1.75,2.62h0C55.05,186.81,54.46,185.94,53.9,185.05Z"/><path class="cls-41" d="M55.66,187.66h0c.08.1.15.22.22.32h0C55.8,187.88,55.74,187.77,55.66,187.66Z"/><path class="cls-41" d="M62.06,195a.43.43,0,0,1,.1.09l.19.19a3,3,0,0,1,.25.25h0Z"/><path class="cls-41" d="M59.45,192.38h0l.22.23c.09.1.19.18.28.27C59.78,192.72,59.61,192.56,59.45,192.38Z"/><path class="cls-41" d="M62.61,195.55h0a2.73,2.73,0,0,1,.25.23l.1.09.26.21h0Z"/><path class="cls-41" d="M63.22,196.08h0l.25.21c.1.09.21.15.31.24Z"/><path class="cls-41" d="M66,198.26l.31.25.29.2h0C66.38,198.57,66.18,198.41,66,198.26Z"/><path class="cls-41" d="M66.59,198.71h0l.32.24v0Z"/><path class="cls-41" d="M70.73,201.14h0v0l.35.15h0Z"/><path class="cls-39" d="M72.76,202l-.05,0Z"/><path class="cls-39" d="M74.77,202.67l-.1,0Z"/><path class="cls-39" d="M76.63,203.06l-.09,0Z"/><path class="cls-40" d="M70.73,203.05l0,11.25,9.83-5.71-1.26-3.24A21,21,0,0,1,70.73,203.05Z"/><path class="cls-40" d="M47,149.41l-2.29-2.84-9.8,5.7,9.77,5.63A20.59,20.59,0,0,1,47,149.41Z"/><path class="cls-42" d="M75.69,196.12l-.86-2.21L73,189.22a10,10,0,0,1-2.25-.62h0l0,7.69v2.94h0l5-2.92Z"/><path class="cls-41" d="M71.1,201.3h0c.55.25,1.1.49,1.63.7l.05,0c.57.21,1.13.38,1.68.53h0A22.8,22.8,0,0,1,71.1,201.3Z"/><path class="cls-41" d="M74.46,202.56h0l.23.08.1,0,.28.06,0,0Z"/><path class="cls-41" d="M52.78,149.17a4.85,4.85,0,0,1,.4-.28A4.85,4.85,0,0,0,52.78,149.17Z"/><path class="cls-41" d="M82.4,200.35a9.61,9.61,0,0,1-1.41.44A9.61,9.61,0,0,0,82.4,200.35Z"/><path class="cls-41" d="M82.85,200.14c.25-.12.51-.22.76-.36l0,0A8.43,8.43,0,0,1,82.85,200.14Z"/><path class="cls-41" d="M75.07,202.71h0c.49.13,1,.24,1.48.32l.09,0a14.52,14.52,0,0,0,1.58.15h0A16.64,16.64,0,0,1,75.07,202.71Z"/><path class="cls-2" d="M61.36,180.28a28.88,28.88,0,0,1-1.65-2.85l-8,.69a51.68,51.68,0,0,0,5,8.7Z"/><path class="cls-2" d="M66.93,186.92l-6.91,4c.54.59,1.08,1.16,1.63,1.71A36.73,36.73,0,0,0,66.9,197Z"/><path class="cls-2" d="M47.9,164.19c.05.73.13,1.48.24,2.22a38.59,38.59,0,0,0,.93,4.52c.2.75.43,1.51.68,2.27l6.85-4Z"/><polygon class="cls-43" points="70.74 199 70.74 196.29 70.77 188.6 70.77 188.6 70.77 188.6 70.74 199.23 70.74 199.23 70.74 199"/><path class="cls-2" d="M75.76,196.31l-5,2.92a21.49,21.49,0,0,0,3.55,1.32c.57.15,1.14.28,1.69.37a15.83,15.83,0,0,0,1.63.17h0Z"/><path class="cls-44" d="M56.64,147.28a10.34,10.34,0,0,0-3.46,1.61,4.85,4.85,0,0,0-.4.28,9.37,9.37,0,0,0-1.1,1Z"/><path class="cls-2" d="M49.76,152.88a12.87,12.87,0,0,0-.68,1.5,19.07,19.07,0,0,0-1.18,5.4L53,156.85Z"/><path class="cls-43" d="M81,200.8h0a9.37,9.37,0,0,0,1.42-.44c.16-.06.3-.14.45-.21a8.43,8.43,0,0,0,.8-.39l1.38-.92a11.62,11.62,0,0,0,1-.88l-.05-.06Z"/><path class="cls-42" d="M66.93,186.39a20.91,20.91,0,0,1-2.26-2L60,190.93l6.91-4Z"/><path class="cls-41" d="M59.19,192.11h0l.26.28h0Z"/><path class="cls-39" d="M59.19,192.11A49.85,49.85,0,0,1,55.88,188h0a51.4,51.4,0,0,0,3.31,4.12Z"/><path class="cls-2" d="M70.73,203.05c-.64-.31-1.28-.65-1.93-1s-1.28-.77-1.91-1.19l0,11.24,3.83,2.22Z"/><path class="cls-2" d="M44.65,157.9l-9.77-5.63v4.4l9.77,5.64c0-.76-.07-1.51-.07-2.25S44.6,158.6,44.65,157.9Z"/><path class="cls-39" d="M70.73,201.16v0h0c-.63-.3-1.28-.64-1.92-1s-1.28-.77-1.91-1.19v0c.63.42,1.27.82,1.91,1.19S70.1,200.85,70.73,201.16Z"/><path class="cls-42" d="M57.21,169.57l-.61-.35-6.85,4,8.06-.7A25.38,25.38,0,0,1,57.21,169.57Z"/><path class="cls-41" d="M78.23,203.2h0l.22,0h0Z"/><path class="cls-42" d="M57.23,165.16a10.07,10.07,0,0,1,.61-2.23L53,156.85l-5.05,2.93Z"/><path class="cls-39" d="M88.86,201.49a11.82,11.82,0,0,1-1.33,1.23A11.82,11.82,0,0,0,88.86,201.49Z"/><path class="cls-40" d="M86.09,203.71a9.84,9.84,0,0,0,.94-.65,11.78,11.78,0,0,1-4.43,2l4.86,12.57,9.8-5.69-8.06-10Z"/><path class="cls-2" d="M82.6,205.05a14,14,0,0,1-3.34.3l1.26,3.24,3.61,9.32,3.33-.29Z"/><path class="cls-2" d="M48.9,146.71l-8.46-10.52-1.92,2.71,6.16,7.67L47,149.41A13.54,13.54,0,0,1,48.9,146.71Z"/><path class="cls-39" d="M53.37,143.66c-.19.08-.37.19-.57.27C53,143.85,53.18,143.74,53.37,143.66Z"/><path class="cls-40" d="M48.9,146.71a11.88,11.88,0,0,1,2.81-2.26l0,0L55,142.56l-4.63-12,3.26-1.9-.07-.09-13.07,7.59Z"/><path class="cls-39" d="M81.78,202.94l0,0h0l0,0Z"/><path class="cls-41" d="M81.81,202.92h0Z"/><path class="cls-39" d="M83.65,199.75l0,0a10.34,10.34,0,0,0,1.42-.95Z"/><path class="cls-41" d="M81.81,202.92l0,0h0c.11,0,.2-.08.31-.1l0,0Z"/><path class="cls-39" d="M81.78,202.94h0a13.38,13.38,0,0,1-3.33.29h0a13,13,0,0,0,3.34-.29Z"/><path class="cls-41" d="M82.14,202.81l0,0a11,11,0,0,0,1.73-.58h0A10.69,10.69,0,0,1,82.14,202.81Z"/><path class="cls-41" d="M83.85,202.25h0l.07,0h0a10.92,10.92,0,0,0,1.88-1.08h0A11.21,11.21,0,0,1,83.85,202.25Z"/><path class="cls-42" d="M86,197.89l-7.91-9.84-.77.45A5.2,5.2,0,0,0,78,188a5.31,5.31,0,0,1-1.65.94L81,200.8Z"/><path class="cls-42" d="M59.76,160.21a5.3,5.3,0,0,1,.75-.52h0l.91-.53-4.62-11.93-.13,0-5,2.89Z"/><path class="cls-41" d="M85.79,201.16h0Z"/><path class="cls-39" d="M78.05,188.05l0-.06a5.2,5.2,0,0,1-.72.51Z"/><path class="cls-39" d="M60.48,159.7h0a6.29,6.29,0,0,1,.91-.43l0-.09Z"/><path class="cls-39" d="M80.54,183a10.16,10.16,0,0,1-.62,2.24l2.23-1.3Z"/><path class="cls-39" d="M65.86,159.22a9.76,9.76,0,0,1,1.15.39v-2L64.74,159C65.11,159,65.48,159.12,65.86,159.22Z"/><path class="cls-42" d="M82.15,184l-2.23,1.3,8,10a17.64,17.64,0,0,0,1.89-6.84Z"/><path class="cls-42" d="M64.74,159,67,157.66l0-8.85a18.1,18.1,0,0,0-7-1.87Z"/><polygon class="cls-32" points="99.25 209.29 97.32 212 110.39 204.41 112.32 201.7 99.25 209.29"/><path class="cls-39" d="M80,175.7a20,20,0,0,1,.6,2.93l6-3.5Z"/><path class="cls-39" d="M73.09,163.8l4-5.6-6.23,3.62A20.58,20.58,0,0,1,73.09,163.8Z"/><path class="cls-39" d="M78.05,170.77l6.52-3.8c-.51-1-1.06-1.91-1.64-2.84l-6.52,3.79A27.69,27.69,0,0,1,78.05,170.77Z"/><path class="cls-42" d="M80.55,178.63,89.88,184a38.32,38.32,0,0,0-1.82-9l-1.48.13Z"/><path class="cls-42" d="M70.84,161.82l6.23-3.62.73-1A38.68,38.68,0,0,0,70.87,151Z"/><path class="cls-42" d="M86.16,170.07c-.47-1-1-2.07-1.59-3.1l-6.52,3.8Z"/><path class="cls-42" d="M82.93,164.13c-.59-.95-1.17-1.91-1.81-2.82l-4.71,6.61Z"/><path class="cls-11" d="M90.87,174.76a44.58,44.58,0,0,1,2.26,11.13l7.59-4.41,3.94-2.29h0l1.53-.89a41.23,41.23,0,0,0-1.22-7.54L99.35,174Z"/><path class="cls-11" d="M55,142.56l-3.28,1.92,0,0c.35-.2.72-.35,1.09-.52.2-.08.38-.19.57-.27a12,12,0,0,1,1.8-.53Z"/><path class="cls-11" d="M70.88,147.35a41.44,41.44,0,0,1,4.43,3.43c.71.64,1.41,1.3,2.09,2s1.36,1.4,2,2.14l4.92-6.9L90,144.72a42,42,0,0,0-6-5Z"/><path class="cls-11" d="M82.73,159.05c.61.83,1.2,1.69,1.76,2.56A58.91,58.91,0,0,1,89,169.83L102,162.24a59.38,59.38,0,0,0-6.22-10.79Z"/><polygon class="cls-40" points="70.91 136.13 70.88 147.35 83.95 139.76 83.98 128.53 70.91 136.13"/><polygon class="cls-43" points="85.8 201.15 85.8 201.15 85.8 201.15 85.8 201.15"/><polygon class="cls-43" points="104.66 179.19 104.66 179.19 100.72 181.48 104.66 179.19"/><path class="cls-11" d="M87,203.06a9.84,9.84,0,0,1-.94.65l3.11-1.8-.34-.42a11.82,11.82,0,0,1-1.33,1.23C87.37,202.85,87.19,203,87,203.06Z"/><path class="cls-11" d="M93.11,190.3a20.59,20.59,0,0,1-2.32,8.48l8.48-4.93Z"/><path class="cls-45" d="M99.26,209.29l-8.47-10.51a13.5,13.5,0,0,1-1.93,2.71l.34.42,8.06,10,.06.07Z"/><polygon class="cls-40" points="99.27 193.85 90.8 198.78 99.25 209.29 112.32 201.7 106.16 194.04 102.89 195.94 99.27 193.85"/><path class="cls-2" d="M57.76,140.94l-4.13-10.65-3.31.3,4.63,12,.22.57a13.34,13.34,0,0,1,3.32-.29Z"/><polygon class="cls-32" points="53.63 130.29 66.7 122.69 63.38 122.99 53.58 128.69 50.31 130.59 53.63 130.29"/><path class="cls-43" d="M53.9,185.05c.56.89,1.15,1.76,1.76,2.61.08.11.14.22.22.32a49.85,49.85,0,0,0,3.31,4.13h0l.26.27c.16.18.33.34.49.51.69.75,1.4,1.46,2.12,2.14l.55.52.61.53.55.46c.72.61,1.46,1.18,2.21,1.72.2.15.4.31.61.45h0l.31.22c.63.42,1.27.82,1.91,1.19s1.29.72,1.92,1h0l.37.16a22.8,22.8,0,0,0,3.36,1.26l.61.15a16.64,16.64,0,0,0,3.16.49l.21,0a13.38,13.38,0,0,0,3.33-.29h0l.33-.11a10.69,10.69,0,0,0,1.71-.56h0a11.21,11.21,0,0,0,1.94-1.09h0a11.59,11.59,0,0,0,2.42-2.33c2.13-2.75,3.36-6.7,3.38-11.68,0-.9,0-1.81-.12-2.74a37.33,37.33,0,0,0-.89-5.61,48.29,48.29,0,0,0-2.84-8.48A56,56,0,0,0,85,164.84c-4.11-7.1-9.78-13.3-16-16.92-12.52-7.23-22.75-1.41-22.79,13,0,6.64,2.13,14,5.69,20.64.56,1.06,1.17,2.09,1.8,3.11Zm-4.83-14.12a38.59,38.59,0,0,1-.93-4.52c-.11-.74-.19-1.49-.24-2.22s-.09-1.56-.09-2.33,0-1.41.09-2.08a19.07,19.07,0,0,1,1.18-5.4,12.87,12.87,0,0,1,.68-1.5,12.09,12.09,0,0,1,1.92-2.71,9.37,9.37,0,0,1,1.1-1,4.85,4.85,0,0,1,.4-.28,10.34,10.34,0,0,1,3.46-1.61l.13,0a12.34,12.34,0,0,1,3.31-.3,18.1,18.1,0,0,1,7,1.87c.63.3,1.27.63,1.91,1s1.29.78,1.92,1.21a38.68,38.68,0,0,1,6.93,6.16,46.47,46.47,0,0,1,3.32,4.13c.64.91,1.22,1.87,1.81,2.82S84.06,166,84.57,167s1.12,2.05,1.59,3.1a46.33,46.33,0,0,1,1.9,4.93,38.32,38.32,0,0,1,1.82,9c.05.73.08,1.45.07,2.17s0,1.51-.1,2.22A17.64,17.64,0,0,1,88,195.25a13.7,13.7,0,0,1-.9,1.45A11.75,11.75,0,0,1,86,198a11.62,11.62,0,0,1-1,.88,10.34,10.34,0,0,1-1.42.95c-.25.14-.51.24-.76.36s-.29.15-.45.21a9.61,9.61,0,0,1-1.41.44h0a12.13,12.13,0,0,1-3.34.29h0a15.83,15.83,0,0,1-1.63-.17c-.55-.09-1.12-.22-1.69-.37a21.49,21.49,0,0,1-3.55-1.32h0c-.64-.3-1.28-.64-1.93-1s-1.28-.77-1.91-1.2a36.73,36.73,0,0,1-5.25-4.38c-.55-.55-1.09-1.12-1.63-1.71a49.53,49.53,0,0,1-3.31-4.11,51.68,51.68,0,0,1-5-8.7,47.18,47.18,0,0,1-1.92-4.92C49.5,172.44,49.27,171.68,49.07,170.93Z"/><path class="cls-45" d="M51.67,178.12l8-.69a28.88,28.88,0,0,0,1.65,2.85l-4.65,6.54A49.53,49.53,0,0,0,60,190.93l4.65-6.53a20.91,20.91,0,0,0,2.26,2v.53l0,10.1c.63.43,1.27.83,1.91,1.2s1.29.71,1.93,1l0-10.63h0a10,10,0,0,0,2.25.62l1.81,4.69.86,2.21.07.19,1.85,4.78h0A12.13,12.13,0,0,0,81,200.8l-4.6-11.87A5.31,5.31,0,0,0,78,188l0,.06L86,197.89,86,198a11.75,11.75,0,0,0,1-1.25,13.7,13.7,0,0,0,.9-1.45l-8-10a10.16,10.16,0,0,0,.62-2.24l1.61.94,7.7,4.44c.07-.71.1-1.45.1-2.22s0-1.44-.07-2.17l-9.33-5.39a20,20,0,0,0-.6-2.93l6.63-.57,1.48-.13a46.33,46.33,0,0,0-1.9-4.93l-8.11.7a27.69,27.69,0,0,0-1.64-2.85l4.71-6.61a46.47,46.47,0,0,0-3.32-4.13l-.73,1-4,5.6a20.58,20.58,0,0,0-2.25-2l0-10.8c-.63-.43-1.27-.84-1.92-1.21s-1.28-.7-1.91-1l0,8.85v2a9.76,9.76,0,0,0-1.15-.39c-.38-.1-.75-.18-1.12-.24l-4.66-12a12.34,12.34,0,0,0-3.31.3l4.62,11.93,0,.09a6.29,6.29,0,0,0-.91.43,5.3,5.3,0,0,0-.75.52l-8.08-10a12.09,12.09,0,0,0-1.92,2.71l3.19,4,4.89,6.08a10.07,10.07,0,0,0-.61,2.23l-9.33-5.38c-.06.67-.09,1.36-.09,2.08s0,1.55.09,2.33l8.7,5,.61.35a25.38,25.38,0,0,0,.6,2.93l-8.06.7A47.18,47.18,0,0,0,51.67,178.12Z"/><path class="cls-11" d="M70.73,203.05a21,21,0,0,0,8.53,2.3,14,14,0,0,0,3.34-.3,11.78,11.78,0,0,0,4.43-2c.16-.11.34-.21.5-.34a11.82,11.82,0,0,0,1.33-1.23,13.5,13.5,0,0,0,1.93-2.71,20.59,20.59,0,0,0,2.32-8.48c0-.7.08-1.43.08-2.17s0-1.49-.06-2.24a44.58,44.58,0,0,0-2.26-11.13c-.28-.83-.58-1.65-.9-2.48s-.66-1.64-1-2.45a58.91,58.91,0,0,0-4.46-8.22c-.56-.87-1.15-1.73-1.76-2.56-1-1.44-2.16-2.83-3.32-4.14-.65-.74-1.32-1.45-2-2.14s-1.38-1.35-2.09-2a41.44,41.44,0,0,0-4.43-3.43c-.63-.42-1.27-.82-1.92-1.19s-1.28-.71-1.91-1a20.85,20.85,0,0,0-8.56-2.3,13.34,13.34,0,0,0-3.32.29,12,12,0,0,0-1.8.53c-.19.08-.37.19-.57.27-.37.17-.74.32-1.09.52a11.88,11.88,0,0,0-2.81,2.26,13.54,13.54,0,0,0-1.93,2.7,20.59,20.59,0,0,0-2.32,8.49c0,.7-.08,1.41-.08,2.16s0,1.49.07,2.25a41.27,41.27,0,0,0,1.22,7.53c.31,1.2.64,2.4,1,3.6.55,1.65,1.19,3.3,1.91,4.93a59.47,59.47,0,0,0,6.24,10.79c1,1.43,2.15,2.81,3.3,4.12.81.91,1.65,1.77,2.5,2.6a42,42,0,0,0,6,5c.63.42,1.27.82,1.91,1.19S70.09,202.74,70.73,203.05ZM66.9,199l-.32-.24h0l-.29-.2c-1-.68-1.91-1.42-2.83-2.21l-.25-.21-.26-.21-.1-.09a2.73,2.73,0,0,0-.25-.23,3,3,0,0,0-.25-.25l-.2-.18c-.85-.8-1.68-1.63-2.49-2.51l-.22-.23-.26-.28A51.4,51.4,0,0,1,55.87,188c-.07-.1-.14-.22-.22-.32-.6-.86-1.19-1.73-1.75-2.62,0-.07-.09-.13-.13-.19v0l-.11-.18c-.63-1-1.23-2-1.79-3.11-3.56-6.67-5.71-14-5.69-20.64,0-14.4,10.27-20.22,22.79-13,6.25,3.62,11.92,9.82,16,16.92a56,56,0,0,1,2.76,5.47,48.29,48.29,0,0,1,2.84,8.48,37.33,37.33,0,0,1,.89,5.61c.08.93.12,1.84.12,2.74,0,5-1.25,8.93-3.38,11.68a11.59,11.59,0,0,1-2.42,2.33h0a10.92,10.92,0,0,1-1.88,1.08h0l-.07,0h0a11,11,0,0,1-1.73.58c-.11,0-.2.07-.31.1a13,13,0,0,1-3.34.29l-.23,0a14.52,14.52,0,0,1-1.58-.15l-.09,0c-.49-.08-1-.19-1.49-.31l-.28-.06-.1,0-.23-.08c-.55-.15-1.11-.32-1.68-.53l-.05,0c-.53-.21-1.08-.45-1.63-.7l-.35-.15c-.63-.31-1.28-.64-1.92-1S67.53,199.37,66.9,199Z"/><polygon class="cls-32" points="115.97 183.95 102.91 191.54 102.89 195.94 106.16 194.04 115.96 188.35 115.97 183.95"/><polygon class="cls-40" points="100.72 181.48 93.13 185.89 102.91 191.54 115.97 183.95 106.19 178.3 104.66 179.19 100.72 181.48"/><path class="cls-2" d="M93.13,185.89c0,.75.06,1.5.06,2.24s0,1.47-.08,2.17l6.16,3.55,3.62,2.09,0-4.4Z"/><path class="cls-2" d="M70.91,136.13l-3.83-2.22v2l0,9.26c.63.31,1.27.64,1.91,1s1.29.77,1.92,1.19Z"/><polygon class="cls-32" points="70.91 136.13 83.98 128.53 80.15 126.32 70.32 132.03 67.08 133.91 70.91 136.13"/><polygon class="cls-40" points="88.95 169.83 97.44 169.11 110.51 161.51 102.02 162.24 88.95 169.83"/><polygon class="cls-32" points="97.44 169.11 99.35 174.03 104.97 170.76 112.42 166.43 110.51 161.51 97.44 169.11"/><path class="cls-2" d="M99.35,174l-1.91-4.91-8.49.72c.36.81.71,1.63,1,2.45s.62,1.65.9,2.48Z"/><path class="cls-2" d="M87.65,152.14,84.33,148l-4.92,6.9c1.16,1.31,2.27,2.7,3.32,4.14Z"/><polygon class="cls-32" points="87.65 152.14 100.72 144.55 97.39 140.41 89.99 144.72 84.33 148.01 87.65 152.14"/><polygon class="cls-40" points="87.65 152.14 82.73 159.05 95.8 151.45 100.72 144.55 87.65 152.14"/><polygon class="cls-40" points="66.7 122.69 53.63 130.29 57.76 140.94 58.49 142.84 67.07 137.72 67.08 135.88 67.08 133.91 70.32 132.03 66.7 122.69"/><path class="cls-46" d="M58.49,142.84a20.85,20.85,0,0,1,8.56,2.3l0-7.42Z"/><path class="cls-11" d="M58.48,142.84a20.85,20.85,0,0,1,8.56,2.3l0-7.42Z"/><path class="cls-35" d="M61.2,195.74v-5.05a50.3,50.3,0,0,1-11.14-19.27l-4.37-2.53A44.72,44.72,0,0,0,49.38,180a51.92,51.92,0,0,0,4,7c.76,1.11,1.56,2.17,2.39,3.2A42.6,42.6,0,0,0,61.2,195.74Z"/><polygon class="cls-4" points="74.38 185.45 71.12 183.57 71.07 201.44 74.34 199.54 74.38 185.45"/><path class="cls-35" d="M49,155.65a13.09,13.09,0,0,1,4.09-7.09,10,10,0,0,0-1.85.84,9.84,9.84,0,0,0-1.8,1.35s0,0,0,.05a11.1,11.1,0,0,0-1.53,1.79s0,0,0,0a13.58,13.58,0,0,0-1.22,2.23,0,0,0,0,0,0,0,16,16,0,0,0-.88,2.66Z"/><path class="cls-36" d="M74.34,199.54l-3.27,1.9c.48.15,1,.27,1.43.37l.51.09c.29,0,.59.11.87.14l.57,0,.77.06c.2,0,.38,0,.58,0s.48,0,.71,0a5.35,5.35,0,0,0,.56-.07c.23,0,.46,0,.68-.08l.53-.13c.22-.05.44-.09.65-.16s.34-.12.51-.18.41-.14.6-.22.33-.16.5-.25.37-.17.56-.28a10.2,10.2,0,0,0,1.58-1.14A13.28,13.28,0,0,1,74.34,199.54Z"/><polygon class="cls-36" points="45.73 157.55 45.73 157.55 61.28 166.53 61.29 162.75 49 155.65 45.73 157.55"/><path class="cls-36" d="M85.61,176.79l-11.19-6.46-3.27,1.9,15.57,9A40.41,40.41,0,0,0,85.61,176.79Z"/><path class="cls-4" d="M74.45,157.49a38.49,38.49,0,0,0-3.25-3.15l0,17.89,3.27-1.9Z"/><path class="cls-4" d="M69.57,141.35c-7.7-4.44-14.68-4.86-19.71-1.93l-3.27,1.9.06,0c.33-.19.69-.33,1-.5s.61-.3.93-.43.77-.22,1.15-.33.65-.21,1-.28.83-.1,1.25-.15.68-.11,1-.13.89,0,1.34,0,.72,0,1.09,0,1,.14,1.46.22.72.09,1.1.17,1.06.29,1.6.45c.35.1.7.18,1.06.3.59.2,1.2.47,1.8.72.32.14.63.24,1,.39a30.84,30.84,0,0,1,2.84,1.47c15.29,8.82,27.63,30.21,27.58,47.77,0,1.1,0,2.15-.15,3.16,0,.35-.1.67-.15,1-.08.64-.16,1.29-.28,1.9-.07.37-.18.7-.27,1.06-.13.53-.25,1.09-.41,1.59s-.28.68-.41,1-.33.92-.53,1.35-.35.63-.52.94-.41.8-.65,1.17-.41.54-.62.82-.49.69-.76,1-.49.47-.73.71-.56.57-.86.82-.56.39-.84.58-.58.44-.9.63l3.27-1.9c5-2.89,8.05-9,8.08-17.77C97.2,171.56,84.85,150.17,69.57,141.35Z"/><path class="cls-47" d="M69.48,141.35c-7.7-4.44-14.67-4.86-19.71-1.93l-3.27,1.9.06,0c.33-.19.69-.33,1-.5s.61-.3.93-.43.77-.22,1.16-.33.64-.21,1-.28.84-.1,1.25-.15.69-.11,1-.13.89,0,1.34,0,.72,0,1.1,0,1,.14,1.45.22.72.09,1.1.17,1.07.29,1.6.45c.36.1.7.18,1.06.3.59.2,1.2.47,1.81.72.32.14.63.24.95.39a30.84,30.84,0,0,1,2.84,1.47C81.5,152.07,93.84,173.46,93.79,191c0,1.1-.05,2.15-.15,3.16,0,.35-.1.67-.14,1-.09.64-.16,1.29-.29,1.9-.07.37-.18.7-.27,1.06-.13.53-.25,1.09-.41,1.59s-.27.68-.4,1-.34.92-.53,1.35-.35.63-.53.94-.41.8-.64,1.17-.42.54-.62.82-.49.69-.77,1-.49.47-.73.71-.56.57-.86.82-.55.39-.83.58-.59.44-.9.63l3.26-1.9c5-2.89,8-9,8.08-17.77C97.11,171.56,84.76,150.17,69.48,141.35Z"/><path class="cls-6" d="M88.4,206.76c.24-.24.5-.45.73-.71s.51-.66.76-1,.43-.53.62-.82.44-.78.65-1.17.37-.61.52-.94.36-.89.53-1.35.29-.67.41-1,.28-1.06.41-1.59c.09-.36.2-.69.27-1.06.12-.61.2-1.26.28-1.9,0-.34.11-.66.15-1,.1-1,.15-2.06.15-3.16.05-17.56-12.29-39-27.58-47.77a30.84,30.84,0,0,0-2.84-1.47c-.33-.15-.64-.25-1-.39-.6-.25-1.21-.52-1.8-.72-.36-.12-.71-.2-1.06-.3-.54-.16-1.08-.33-1.6-.45s-.74-.11-1.1-.17-1-.18-1.46-.22-.73,0-1.09,0-.9-.05-1.34,0-.69.09-1,.13-.85.07-1.25.15-.66.19-1,.28-.78.2-1.15.33-.62.29-.93.43-.71.31-1,.5c-5,2.88-8.1,9-8.13,17.77-.05,17.57,12.31,39,27.6,47.8,8.17,4.72,15.5,4.85,20.58,1.3.28-.19.58-.37.84-.58S88.11,207,88.4,206.76Zm-41.78-51.9a13.58,13.58,0,0,1,1.22-2.23s0,0,0,0a11.1,11.1,0,0,1,1.53-1.79s0,0,0-.05a9.84,9.84,0,0,1,1.8-1.35,10,10,0,0,1,1.85-.84,13.33,13.33,0,0,1,8.24.08l0,14.11v3.78l-15.55-9a16,16,0,0,1,.88-2.66A0,0,0,0,1,46.62,154.86ZM53.41,187a51.92,51.92,0,0,1-4-7,44.72,44.72,0,0,1-3.68-11.11l4.37,2.53,11.18,6.45,0,12.82v5.05a42.6,42.6,0,0,1-5.4-5.57C55,189.14,54.17,188.08,53.41,187ZM71.2,154.34a38.49,38.49,0,0,1,3.25,3.15,50.08,50.08,0,0,1,11.16,19.3,40.41,40.41,0,0,1,1.11,4.43l-15.57-9ZM82.68,199.6a10.2,10.2,0,0,1-1.58,1.14c-.19.11-.38.19-.56.28s-.33.18-.5.25-.4.15-.6.22-.34.13-.51.18-.43.11-.65.16l-.53.13c-.22,0-.45.06-.68.08a5.35,5.35,0,0,1-.56.07c-.23,0-.47,0-.71,0s-.38,0-.58,0l-.77-.06-.57,0c-.28,0-.58-.09-.87-.14l-.51-.09c-.47-.1-1-.22-1.43-.37l.05-17.87,3.26,1.88,12.31,7.11A13.26,13.26,0,0,1,82.68,199.6Z"/><path class="cls-48" d="M88.4,206.76c.24-.24.5-.45.73-.71s.51-.66.76-1,.43-.53.62-.82.44-.78.65-1.17.37-.61.52-.94.36-.89.53-1.35.29-.67.41-1,.28-1.06.41-1.59c.09-.36.2-.69.27-1.06.12-.61.2-1.26.28-1.9,0-.34.11-.66.15-1,.1-1,.15-2.06.15-3.16.05-17.56-12.29-39-27.58-47.77a30.84,30.84,0,0,0-2.84-1.47c-.33-.15-.64-.25-1-.39-.6-.25-1.21-.52-1.8-.72-.36-.12-.71-.2-1.06-.3-.54-.16-1.08-.33-1.6-.45s-.74-.11-1.1-.17-1-.18-1.46-.22-.73,0-1.09,0-.9-.05-1.34,0-.69.09-1,.13-.85.07-1.25.15-.66.19-1,.28-.78.2-1.15.33-.62.29-.93.43-.71.31-1,.5c-5,2.88-8.1,9-8.13,17.77-.05,17.57,12.31,39,27.6,47.8,8.17,4.72,15.5,4.85,20.58,1.3.28-.19.58-.37.84-.58S88.11,207,88.4,206.76Zm-41.78-51.9a13.58,13.58,0,0,1,1.22-2.23s0,0,0,0a11.1,11.1,0,0,1,1.53-1.79s0,0,0-.05a9.84,9.84,0,0,1,1.8-1.35,10,10,0,0,1,1.85-.84,13.33,13.33,0,0,1,8.24.08l0,14.11v3.78l-15.55-9a16,16,0,0,1,.88-2.66A0,0,0,0,1,46.62,154.86ZM53.41,187a51.92,51.92,0,0,1-4-7,44.72,44.72,0,0,1-3.68-11.11l4.37,2.53,11.18,6.45,0,12.82v5.05a42.6,42.6,0,0,1-5.4-5.57C55,189.14,54.17,188.08,53.41,187ZM71.2,154.34a38.49,38.49,0,0,1,3.25,3.15,50.08,50.08,0,0,1,11.16,19.3,40.41,40.41,0,0,1,1.11,4.43l-15.57-9ZM82.68,199.6a10.2,10.2,0,0,1-1.58,1.14c-.19.11-.38.19-.56.28s-.33.18-.5.25-.4.15-.6.22-.34.13-.51.18-.43.11-.65.16l-.53.13c-.22,0-.45.06-.68.08a5.35,5.35,0,0,1-.56.07c-.23,0-.47,0-.71,0s-.38,0-.58,0l-.77-.06-.57,0c-.28,0-.58-.09-.87-.14l-.51-.09c-.47-.1-1-.22-1.43-.37l.05-17.87,3.26,1.88,12.31,7.11A13.26,13.26,0,0,1,82.68,199.6Z"/><polygon class="cls-11" points="84.13 127.99 29.75 96.3 29.75 94.41 40.98 87.89 40.98 81.67 17.53 95.4 77.14 130.11 77.14 143.99 84.33 139.89 84.13 127.99"/><path class="cls-18" d="M186.21,146.45l-.06-21.74a6.4,6.4,0,0,0-.48-2.5,6.33,6.33,0,0,0-2.6.85,14.51,14.51,0,0,0-6.6,11.43l.05,17.56h0Z"/><path class="cls-15" d="M193.75,126.83c0-5.13-3.18-8.71-7.71-8.71a9.92,9.92,0,0,0-5,1.45,18.42,18.42,0,0,0-8.62,14.94l.06,21.73v2.33l21.3-12.3Zm-17.21,29.4h0l0-4.18-.05-17.56a14.51,14.51,0,0,1,6.6-11.43,6.33,6.33,0,0,1,2.6-.85s0,0,0,0h.24l.14,0c.09,0,.17,0,.26,0l.35,0a2.86,2.86,0,0,1,.42.1l.33.1.37.19.3.19.29.26a2.23,2.23,0,0,1,.27.26,3.29,3.29,0,0,1,.23.33c.08.12.16.23.23.35s.11.25.16.38a2.89,2.89,0,0,1,.18.44c0,.13.06.27.09.4a5.07,5.07,0,0,1,.13.56,2.09,2.09,0,0,0,0,.25,7,7,0,0,1,.06.82l.07,21.73Z"/><path class="cls-6" d="M189.66,126a2.09,2.09,0,0,1,0-.25,5.07,5.07,0,0,0-.13-.56c0-.13-.05-.27-.09-.4a2.89,2.89,0,0,0-.18-.44c-.05-.13-.1-.26-.16-.38s-.15-.23-.23-.35a3.29,3.29,0,0,0-.23-.33,2.23,2.23,0,0,0-.27-.26l-.29-.26-.3-.19-.37-.19-.33-.1a3.2,3.2,0,0,0-.42-.1l-.35,0a2.67,2.67,0,0,0-.4,0h-.24s0,0,0,0a6.4,6.4,0,0,1,.48,2.5l.06,21.74,3.58,2.13-.07-21.73A7,7,0,0,0,189.66,126Z"/><polygon class="cls-49" points="186.21 146.45 176.53 152.04 176.54 156.23 176.54 156.23 189.79 148.59 186.21 146.45"/><path class="cls-2" d="M66.61,168a3.66,3.66,0,0,0-3.69-.36L60.57,169h0A3.63,3.63,0,0,0,59,172.38l0,43,10.38,6L71.76,220l0-43A11.4,11.4,0,0,0,66.61,168Z"/><path class="cls-3" d="M66.61,168a3.66,3.66,0,0,0-3.69-.36L60.56,169a3.66,3.66,0,0,1,3.69.36,11.4,11.4,0,0,1,5.17,9l0,43L71.76,220l0-43A11.4,11.4,0,0,0,66.61,168Z"/><polygon class="cls-50" points="128.91 156.58 128.97 164.87 136.22 161.09 136.22 152.42 128.91 156.58"/><polygon class="cls-51" points="131.23 163.42 129.74 162.56 134.08 159.9 135.56 160.77 131.23 163.42"/><polygon class="cls-6" points="135.56 160.77 134.08 159.9 134.04 154.37 135.53 155.24 135.56 160.77"/><polygon class="cls-50" points="129.74 166 128.61 165.32 128.56 156.35 129.69 157.03 129.74 166"/><polygon class="cls-51" points="129.69 157.03 128.56 156.35 135.88 151.97 137.01 152.65 129.69 157.03"/><path class="cls-52" d="M129.69,157l7.33-4.38,0,9L129.74,166Zm5.87,3.74,0-5.53-4.34,2.65,0,5.53,4.33-2.65Z"/><polygon class="cls-50" points="128.91 140.89 128.97 149.18 136.22 145.39 136.22 136.73 128.91 140.89"/><polygon class="cls-51" points="131.23 147.73 129.74 146.86 134.08 144.21 135.56 145.07 131.23 147.73"/><polygon class="cls-6" points="135.56 145.07 134.08 144.21 134.04 138.68 135.53 139.54 135.56 145.07"/><polygon class="cls-50" points="129.74 150.31 128.61 149.63 128.56 140.66 129.69 141.34 129.74 150.31"/><polygon class="cls-51" points="129.69 141.34 128.56 140.66 135.88 136.28 137.01 136.96 129.69 141.34"/><path class="cls-52" d="M129.69,141.34,137,137l0,9-7.33,4.38Zm5.87,3.73,0-5.53-4.34,2.66,0,5.53,4.33-2.66Z"/><polygon class="cls-53" points="115.37 140.89 115.31 149.18 108.06 145.39 108.06 136.73 115.37 140.89"/><polygon class="cls-51" points="113.05 147.73 114.54 146.86 110.2 144.21 108.72 145.07 113.05 147.73"/><polygon class="cls-6" points="108.72 145.07 110.2 144.21 110.25 138.68 108.75 139.54 108.72 145.07"/><polygon class="cls-50" points="114.54 150.31 115.67 149.63 115.72 140.66 114.59 141.34 114.54 150.31"/><polygon class="cls-51" points="114.59 141.34 115.72 140.66 108.4 136.28 107.27 136.96 114.59 141.34"/><path class="cls-52" d="M114.54,150.31l-7.33-4.38.06-9,7.32,4.38Zm-5.82-5.24,4.33,2.66,0-5.53-4.33-2.66,0,5.53Z"/><polygon class="cls-2" points="115.7 119.57 111.63 112.4 104.51 99.9 104.51 100.11 104.48 100.06 104.49 99.85 97.37 87.35 90.28 74.89 90.28 75.1 90.26 75.05 90.26 74.84 83.14 62.34 78.83 54.76 76.01 56.37 76.01 56.58 75.99 56.59 75.99 56.38 68.83 60.45 61.69 64.51 61.69 64.72 61.66 64.74 61.66 64.53 54.5 68.6 47.34 72.67 47.34 72.88 47.32 72.89 47.32 72.68 40.85 76.36 41.04 76.46 40.98 76.5 115.58 119.57 115.52 119.47 115.7 119.57"/><polygon class="cls-54" points="79.83 52.77 166.36 2.57 107.18 36.4 37.35 76.97 79.83 52.77"/><polygon class="cls-55" points="79.83 52.77 37.35 76.97 37.93 78.41 78.92 55.83 119.68 127.12 121.96 125.82 79.83 52.77"/><polygon class="cls-40" points="121.96 125.82 79.83 52.77 170.41 0 212.55 73.05 121.96 125.82"/><path class="cls-53" d="M76.27,96.58l5.59,3.23h0l0-11a8.35,8.35,0,0,0-3.81-6.6,3.52,3.52,0,0,0-1.5-.49,3.66,3.66,0,0,0-.27,1.44Z"/><path class="cls-31" d="M76.27,96.58l0-13.43a3.66,3.66,0,0,1,.27-1.44,0,0,0,0,0,0,0h-.37l-.2,0-.25.06-.18.06a1,1,0,0,0-.21.11l-.18.11c-.06,0-.11.1-.17.15l-.15.15a1.33,1.33,0,0,0-.14.19l-.13.2a2,2,0,0,0-.09.22,1.56,1.56,0,0,0-.11.26c0,.07,0,.15,0,.22a3.2,3.2,0,0,0-.07.33s0,.09,0,.14a3.48,3.48,0,0,0,0,.47l0,13.43Z"/><polygon class="cls-32" points="76.27 96.58 74.21 97.81 81.85 102.23 81.85 102.23 81.86 99.81 76.27 96.58"/></g></g></g></svg>