<svg xmlns="http://www.w3.org/2000/svg" viewBox="0 0 67.75 52.95"><defs><style>.cls-1{fill:#343434;}</style></defs><title>olja_02</title><g id="Layer_2" data-name="Layer 2"><g id="Layer_1-2" data-name="Layer 1"><path class="cls-1" d="M65.77,8.85a35,35,0,0,1-6.77,4A26,26,0,0,0,54.78,15,10.93,10.93,0,0,0,52,17.59,11.19,11.19,0,0,1,45.91,22a32.15,32.15,0,0,0-5,2.35,23.3,23.3,0,0,0-4.54,3.32c-2.88,2.81-4.83,5.27-8.6,7.08l-.65.3c-3.51,1.65-7.22,3.1-9.92,5.86a25.16,25.16,0,0,0-3,4.07c-2.2,3.45-2.6,7.09-7.25,7.8a21.67,21.67,0,0,1-6-.18,1.11,1.11,0,0,1-.75-.29A1,1,0,0,1,0,51.68c.05-2.29,2.21-3.88,4.06-5.24C6.72,44.47,7.94,41,9.24,38c.7-1.55.21-2.27.18-3.76,0-2.27,2-4.09,4.12-4.89a14.09,14.09,0,0,1,2-.57c1.53-.35,3.1-.55,4.59-1,4-1.32,6.8-4.48,10-7l.27-.23c3.15-2.44,8-2.78,11.81-4.27.14,0,.29-.11.42-.16,1.76-.74,3.58-1.67,4.54-3.33.35-.58.56-1.24.93-1.82,1.54-2.4,4.41-2.77,5.55-5.51.54-1.29-.1-1.75,1.29-2.83a6.79,6.79,0,0,1,2.71-1l.77-.16c1.34-.3,2.68-.61,4-.9,2.81-.63,4.89-1.27,5,2.35C67.58,5.7,68.63,6.72,65.77,8.85Z"/></g></g></svg>