<svg xmlns="http://www.w3.org/2000/svg" xmlns:xlink="http://www.w3.org/1999/xlink" viewBox="0 0 155.59 165.64"><defs><style>.cls-1{isolation:isolate;}.cls-2{fill:url(#Áåçûìÿííûé_ãðàäèåíò_60);}.cls-3{fill:#c18000;}.cls-4{fill:url(#Áåçûìÿííûé_ãðàäèåíò_62);}.cls-5{fill:#af8300;}.cls-6{fill:url(#Áåçûìÿííûé_ãðàäèåíò_2);}.cls-7{fill:#a04900;}.cls-8{fill:url(#Áåçûìÿííûé_ãðàäèåíò_62-2);}.cls-9{fill:#a97c2c;}.cls-10,.cls-9{mix-blend-mode:multiply;}.cls-10{fill:#e4b527;}.cls-11{fill:url(#Áåçûìÿííûé_ãðàäèåíò_61);}.cls-12{fill:#b37000;}.cls-13{fill:url(#Áåçûìÿííûé_ãðàäèåíò_61-2);}.cls-14{fill:url(#Áåçûìÿííûé_ãðàäèåíò_61-3);}.cls-15{fill:url(#Áåçûìÿííûé_ãðàäèåíò_61-4);}.cls-16{fill:url(#Áåçûìÿííûé_ãðàäèåíò_61-5);}.cls-17{fill:url(#Áåçûìÿííûé_ãðàäèåíò_61-6);}.cls-18{fill:url(#Áåçûìÿííûé_ãðàäèåíò_61-7);}.cls-19{fill:url(#Áåçûìÿííûé_ãðàäèåíò_61-8);}.cls-20{fill:url(#Áåçûìÿííûé_ãðàäèåíò_60-2);}.cls-21{fill:url(#Áåçûìÿííûé_ãðàäèåíò_1113);}.cls-22{fill:url(#Áåçûìÿííûé_ãðàäèåíò_1114);}.cls-23{fill:url(#Áåçûìÿííûé_ãðàäèåíò_1114-2);}.cls-24{fill:url(#Áåçûìÿííûé_ãðàäèåíò_1113-2);}.cls-25{fill:url(#Áåçûìÿííûé_ãðàäèåíò_1112);}.cls-26{fill:#dda832;}.cls-27{fill:url(#Áåçûìÿííûé_ãðàäèåíò_3632);}.cls-28{fill:url(#Áåçûìÿííûé_ãðàäèåíò_1110);}.cls-29{fill:#ddb748;}.cls-30{fill:url(#Áåçûìÿííûé_ãðàäèåíò_1110-2);}.cls-31{fill:url(#Áåçûìÿííûé_ãðàäèåíò_1110-3);}.cls-32{fill:url(#Áåçûìÿííûé_ãðàäèåíò_1110-4);}.cls-33{fill:url(#Áåçûìÿííûé_ãðàäèåíò_61-9);}.cls-34{fill:url(#Áåçûìÿííûé_ãðàäèåíò_1110-5);}.cls-35{fill:url(#Áåçûìÿííûé_ãðàäèåíò_1110-6);}.cls-36{fill:url(#Áåçûìÿííûé_ãðàäèåíò_1110-7);}.cls-37{fill:url(#Áåçûìÿííûé_ãðàäèåíò_60-3);}.cls-38{fill:url(#Áåçûìÿííûé_ãðàäèåíò_62-3);}.cls-39{fill:url(#Áåçûìÿííûé_ãðàäèåíò_60-4);}.cls-40{fill:url(#Áåçûìÿííûé_ãðàäèåíò_62-4);}.cls-41{fill:url(#Áåçûìÿííûé_ãðàäèåíò_61-10);}.cls-42{fill:url(#Áåçûìÿííûé_ãðàäèåíò_61-11);}.cls-43{fill:url(#Áåçûìÿííûé_ãðàäèåíò_61-12);}.cls-44{fill:url(#Áåçûìÿííûé_ãðàäèåíò_61-13);}.cls-45{fill:url(#Áåçûìÿííûé_ãðàäèåíò_61-14);}.cls-46{fill:url(#Áåçûìÿííûé_ãðàäèåíò_61-15);}.cls-47{fill:url(#Áåçûìÿííûé_ãðàäèåíò_61-16);}.cls-48{fill:url(#Áåçûìÿííûé_ãðàäèåíò_61-17);}.cls-49{fill:url(#Áåçûìÿííûé_ãðàäèåíò_60-5);}.cls-50{fill:url(#Áåçûìÿííûé_ãðàäèåíò_62-5);}.cls-51{fill:url(#Áåçûìÿííûé_ãðàäèåíò_60-6);}.cls-52{fill:url(#Áåçûìÿííûé_ãðàäèåíò_62-6);}.cls-53{fill:url(#Áåçûìÿííûé_ãðàäèåíò_61-18);}.cls-54{fill:url(#Áåçûìÿííûé_ãðàäèåíò_61-19);}.cls-55{fill:url(#Áåçûìÿííûé_ãðàäèåíò_61-20);}.cls-56{fill:url(#Áåçûìÿííûé_ãðàäèåíò_61-21);}.cls-57{fill:url(#Áåçûìÿííûé_ãðàäèåíò_61-22);}.cls-58{fill:url(#Áåçûìÿííûé_ãðàäèåíò_61-23);}.cls-59{fill:url(#Áåçûìÿííûé_ãðàäèåíò_61-24);}.cls-60{fill:url(#Áåçûìÿííûé_ãðàäèåíò_61-25);}.cls-61{fill:url(#Áåçûìÿííûé_ãðàäèåíò_60-7);}.cls-62{fill:url(#Áåçûìÿííûé_ãðàäèåíò_1112-2);}.cls-63{fill:#fadf58;}.cls-64{fill:url(#Áåçûìÿííûé_ãðàäèåíò_1113-3);}.cls-65{fill:url(#Áåçûìÿííûé_ãðàäèåíò_86);}.cls-66{fill:url(#Áåçûìÿííûé_ãðàäèåíò_1114-3);}.cls-67{fill:url(#Áåçûìÿííûé_ãðàäèåíò_1113-4);}</style><linearGradient id="Áåçûìÿííûé_ãðàäèåíò_60" x1="-135.53" y1="0.68" x2="-124.96" y2="18.98" gradientTransform="translate(202.21 -0.51) rotate(-0.04)" gradientUnits="userSpaceOnUse"><stop offset="0.01" stop-color="#fcd84a"/><stop offset="0.01" stop-color="#fcdd4f"/><stop offset="0.02" stop-color="#fcf162"/><stop offset="0.16" stop-color="#fcf263"/><stop offset="0.24" stop-color="#fcec5d"/><stop offset="0.35" stop-color="#fcdb4c"/><stop offset="0.37" stop-color="#fcd748"/><stop offset="0.38" stop-color="#edbe30"/><stop offset="0.78" stop-color="#e7b82a"/><stop offset="0.78" stop-color="#e5ad21"/><stop offset="0.79" stop-color="#e0970f"/><stop offset="0.86" stop-color="#cb8007"/><stop offset="0.94" stop-color="#be7202"/><stop offset="1" stop-color="#ba6d00"/></linearGradient><linearGradient id="Áåçûìÿííûé_ãðàäèåíò_62" x1="-155.79" y1="14.04" x2="-146.72" y2="29.74" gradientTransform="translate(202.21 -0.51) rotate(-0.04)" gradientUnits="userSpaceOnUse"><stop offset="0.01" stop-color="#f9ca3b"/><stop offset="0.01" stop-color="#facf40"/><stop offset="0.02" stop-color="#fce254"/><stop offset="0.16" stop-color="#fce355"/><stop offset="0.24" stop-color="#fbdd4f"/><stop offset="0.34" stop-color="#f8cd3e"/><stop offset="0.37" stop-color="#f7c839"/><stop offset="0.38" stop-color="#deaf22"/><stop offset="0.78" stop-color="#d8a01c"/><stop offset="0.78" stop-color="#d69e16"/><stop offset="0.79" stop-color="#ce9500"/><stop offset="0.79" stop-color="#cc9200"/><stop offset="0.87" stop-color="#ba7b00"/><stop offset="0.94" stop-color="#af6d00"/><stop offset="1" stop-color="#ab6800"/></linearGradient><linearGradient id="Áåçûìÿííûé_ãðàäèåíò_2" x1="-175.59" y1="23.76" x2="-165.03" y2="42.06" gradientTransform="translate(202.21 -0.51) rotate(-0.04)" gradientUnits="userSpaceOnUse"><stop offset="0.01" stop-color="#dba240"/><stop offset="0.01" stop-color="#dba744"/><stop offset="0.02" stop-color="#dbbb55"/><stop offset="0.16" stop-color="#dbbc56"/><stop offset="0.24" stop-color="#dbb651"/><stop offset="0.34" stop-color="#dba543"/><stop offset="0.37" stop-color="#dba03f"/><stop offset="0.38" stop-color="#cc8829"/><stop offset="0.78" stop-color="#c68224"/><stop offset="0.78" stop-color="#c3711a"/><stop offset="0.79" stop-color="#bf5b0d"/><stop offset="0.86" stop-color="#ac4806"/><stop offset="0.93" stop-color="#9e3b02"/><stop offset="1" stop-color="#993600"/></linearGradient><linearGradient id="Áåçûìÿííûé_ãðàäèåíò_62-2" x1="-170.98" y1="40.37" x2="-177.02" y2="29.1" xlink:href="#Áåçûìÿííûé_ãðàäèåíò_62"/><linearGradient id="Áåçûìÿííûé_ãðàäèåíò_61" x1="-170.76" y1="29.56" x2="-169.55" y2="31.65" gradientTransform="translate(202.21 -0.51) rotate(-0.04)" gradientUnits="userSpaceOnUse"><stop offset="0.01" stop-color="#fcd84a"/><stop offset="0.01" stop-color="#fcdd4f"/><stop offset="0.02" stop-color="#fcf162"/><stop offset="0.16" stop-color="#fcf263"/><stop offset="0.24" stop-color="#fcec5d"/><stop offset="0.35" stop-color="#fcdb4c"/><stop offset="0.37" stop-color="#fcd748"/><stop offset="0.38" stop-color="#edbe30"/><stop offset="0.78" stop-color="#e7b82a"/><stop offset="0.78" stop-color="#deb022"/><stop offset="0.79" stop-color="#c89a0d"/><stop offset="0.88" stop-color="#bf9104"/><stop offset="1" stop-color="#ba8c00"/></linearGradient><linearGradient id="Áåçûìÿííûé_ãðàäèåíò_61-2" x1="-168.22" y1="35.02" x2="-167.01" y2="37.11" xlink:href="#Áåçûìÿííûé_ãðàäèåíò_61"/><linearGradient id="Áåçûìÿííûé_ãðàäèåíò_61-3" x1="-168.92" y1="40.92" x2="-167.72" y2="43.01" xlink:href="#Áåçûìÿííûé_ãðàäèåíò_61"/><linearGradient id="Áåçûìÿííûé_ãðàäèåíò_61-4" x1="-177.63" y1="37.64" x2="-176.42" y2="39.73" xlink:href="#Áåçûìÿííûé_ãðàäèåíò_61"/><linearGradient id="Áåçûìÿííûé_ãðàäèåíò_61-5" x1="-180.2" y1="32.5" x2="-178.99" y2="34.59" xlink:href="#Áåçûìÿííûé_ãðàäèåíò_61"/><linearGradient id="Áåçûìÿííûé_ãðàäèåíò_61-6" x1="-180.03" y1="26.52" x2="-178.82" y2="28.61" xlink:href="#Áåçûìÿííûé_ãðàäèåíò_61"/><linearGradient id="Áåçûìÿííûé_ãðàäèåíò_61-7" x1="-173.28" y1="41.43" x2="-172.07" y2="43.52" xlink:href="#Áåçûìÿííûé_ãðàäèåíò_61"/><linearGradient id="Áåçûìÿííûé_ãðàäèåíò_61-8" x1="-175.03" y1="25.66" x2="-173.82" y2="27.75" xlink:href="#Áåçûìÿííûé_ãðàäèåíò_61"/><linearGradient id="Áåçûìÿííûé_ãðàäèåíò_60-2" x1="-70.1" y1="32.29" x2="-58.79" y2="51.87" gradientTransform="translate(97.12 -9.7) rotate(0.46)" xlink:href="#Áåçûìÿííûé_ãðàäèåíò_60"/><linearGradient id="Áåçûìÿííûé_ãðàäèåíò_1113" x1="19.32" y1="42.48" x2="9.99" y2="73.51" gradientUnits="userSpaceOnUse"><stop offset="0.06" stop-color="#f8c93e"/><stop offset="0.99" stop-color="#a60"/></linearGradient><linearGradient id="Áåçûìÿííûé_ãðàäèåíò_1114" x1="9.19" y1="68.45" x2="24.22" y2="36.68" gradientUnits="userSpaceOnUse"><stop offset="0.06" stop-color="#dcac25"/><stop offset="0.99" stop-color="#fae159"/></linearGradient><linearGradient id="Áåçûìÿííûé_ãðàäèåíò_1114-2" x1="22.01" y1="39.82" x2="21.5" y2="51.62" xlink:href="#Áåçûìÿííûé_ãðàäèåíò_1114"/><linearGradient id="Áåçûìÿííûé_ãðàäèåíò_1113-2" x1="31.42" y1="57.44" x2="27.61" y2="40.81" xlink:href="#Áåçûìÿííûé_ãðàäèåíò_1113"/><linearGradient id="Áåçûìÿííûé_ãðàäèåíò_1112" x1="78.7" y1="-95.85" x2="90.01" y2="-76.26" gradientTransform="translate(142.73 93.37) rotate(-120)" gradientUnits="userSpaceOnUse"><stop offset="0" stop-color="#ba6d00"/><stop offset="0.06" stop-color="#be7202"/><stop offset="0.14" stop-color="#cb8007"/><stop offset="0.21" stop-color="#e0970f"/><stop offset="0.22" stop-color="#e5ad21"/><stop offset="0.22" stop-color="#e7b82a"/><stop offset="0.62" stop-color="#edbe30"/><stop offset="0.63" stop-color="#fcd748"/><stop offset="0.65" stop-color="#fcdb4c"/><stop offset="0.76" stop-color="#fcec5d"/><stop offset="0.84" stop-color="#fcf263"/><stop offset="0.98" stop-color="#fcf162"/><stop offset="0.99" stop-color="#fcdd4f"/><stop offset="0.99" stop-color="#fcd84a"/></linearGradient><linearGradient id="Áåçûìÿííûé_ãðàäèåíò_3632" x1="83.64" y1="-78.07" x2="77.17" y2="-90.13" gradientTransform="translate(142.73 93.37) rotate(-120)" gradientUnits="userSpaceOnUse"><stop offset="0" stop-color="#ab6800"/><stop offset="0.06" stop-color="#af6d00"/><stop offset="0.13" stop-color="#ba7b00"/><stop offset="0.21" stop-color="#cc9200"/><stop offset="0.21" stop-color="#ce9500"/><stop offset="0.22" stop-color="#d69e16"/><stop offset="0.22" stop-color="#d8a01c"/><stop offset="0.62" stop-color="#deaf22"/><stop offset="0.63" stop-color="#f7c839"/><stop offset="0.66" stop-color="#f8cd3e"/><stop offset="0.76" stop-color="#fbdd4f"/><stop offset="0.84" stop-color="#fce355"/><stop offset="0.98" stop-color="#fce254"/><stop offset="0.99" stop-color="#facf40"/><stop offset="0.99" stop-color="#f9ca3b"/></linearGradient><linearGradient id="Áåçûìÿííûé_ãðàäèåíò_1110" x1="83.88" y1="-89.64" x2="85.17" y2="-87.4" gradientTransform="translate(142.73 93.37) rotate(-120)" gradientUnits="userSpaceOnUse"><stop offset="0" stop-color="#ba8c00"/><stop offset="0.12" stop-color="#bf9104"/><stop offset="0.21" stop-color="#c89a0d"/><stop offset="0.22" stop-color="#deb022"/><stop offset="0.22" stop-color="#e7b82a"/><stop offset="0.62" stop-color="#edbe30"/><stop offset="0.63" stop-color="#fcd748"/><stop offset="0.65" stop-color="#fcdb4c"/><stop offset="0.76" stop-color="#fcec5d"/><stop offset="0.84" stop-color="#fcf263"/><stop offset="0.98" stop-color="#fcf162"/><stop offset="0.99" stop-color="#fcdd4f"/><stop offset="0.99" stop-color="#fcd84a"/></linearGradient><linearGradient id="Áåçûìÿííûé_ãðàäèåíò_1110-2" x1="86.59" y1="-83.79" x2="87.88" y2="-81.55" xlink:href="#Áåçûìÿííûé_ãðàäèåíò_1110"/><linearGradient id="Áåçûìÿííûé_ãðàäèåíò_1110-3" x1="85.84" y1="-77.48" x2="87.13" y2="-75.24" xlink:href="#Áåçûìÿííûé_ãðàäèåíò_1110"/><linearGradient id="Áåçûìÿííûé_ãðàäèåíò_1110-4" x1="76.52" y1="-80.99" x2="77.81" y2="-78.75" xlink:href="#Áåçûìÿííûé_ãðàäèåíò_1110"/><linearGradient id="Áåçûìÿííûé_ãðàäèåíò_61-9" x1="73.77" y1="-86.49" x2="75.06" y2="-84.25" gradientTransform="translate(142.73 93.37) rotate(-120)" xlink:href="#Áåçûìÿííûé_ãðàäèåíò_61"/><linearGradient id="Áåçûìÿííûé_ãðàäèåíò_1110-5" x1="73.95" y1="-92.89" x2="75.25" y2="-90.65" xlink:href="#Áåçûìÿííûé_ãðàäèåíò_1110"/><linearGradient id="Áåçûìÿííûé_ãðàäèåíò_1110-6" x1="81.17" y1="-76.93" x2="82.47" y2="-74.69" xlink:href="#Áåçûìÿííûé_ãðàäèåíò_1110"/><linearGradient id="Áåçûìÿííûé_ãðàäèåíò_1110-7" x1="79.3" y1="-93.81" x2="80.6" y2="-91.57" xlink:href="#Áåçûìÿííûé_ãðàäèåíò_1110"/><linearGradient id="Áåçûìÿííûé_ãðàäèåíò_60-3" x1="-446.03" y1="55.17" x2="-434.72" y2="74.75" gradientTransform="matrix(-1, 0, 0, 1, -412.19, 0)" xlink:href="#Áåçûìÿííûé_ãðàäèåíò_60"/><linearGradient id="Áåçûìÿííûé_ãðàäèåíò_62-3" x1="-467.72" y1="69.47" x2="-458.01" y2="86.28" gradientTransform="matrix(-1, 0, 0, 1, -412.19, 0)" xlink:href="#Áåçûìÿííûé_ãðàäèåíò_62"/><linearGradient id="Áåçûìÿííûé_ãðàäèåíò_60-4" x1="-488.92" y1="79.87" x2="-477.61" y2="99.46" gradientTransform="matrix(-1, 0, 0, 1, -412.19, 0)" xlink:href="#Áåçûìÿííûé_ãðàäèåíò_60"/><linearGradient id="Áåçûìÿííûé_ãðàäèåíò_62-4" x1="-483.98" y1="97.65" x2="-490.45" y2="85.59" gradientTransform="matrix(-1, 0, 0, 1, -412.19, 0)" xlink:href="#Áåçûìÿííûé_ãðàäèåíò_62"/><linearGradient id="Áåçûìÿííûé_ãðàäèåíò_61-10" x1="-483.75" y1="86.08" x2="-482.45" y2="88.32" gradientTransform="matrix(-1, 0, 0, 1, -412.19, 0)" xlink:href="#Áåçûìÿííûé_ãðàäèåíò_61"/><linearGradient id="Áåçûìÿííûé_ãðàäèåíò_61-11" x1="-481.03" y1="91.93" x2="-479.74" y2="94.17" gradientTransform="matrix(-1, 0, 0, 1, -412.19, 0)" xlink:href="#Áåçûìÿííûé_ãðàäèåíò_61"/><linearGradient id="Áåçûìÿííûé_ãðàäèåíò_61-12" x1="-481.78" y1="98.24" x2="-480.49" y2="100.48" gradientTransform="matrix(-1, 0, 0, 1, -412.19, 0)" xlink:href="#Áåçûìÿííûé_ãðàäèåíò_61"/><linearGradient id="Áåçûìÿííûé_ãðàäèåíò_61-13" x1="-491.1" y1="94.73" x2="-489.81" y2="96.97" gradientTransform="matrix(-1, 0, 0, 1, -412.19, 0)" xlink:href="#Áåçûìÿííûé_ãðàäèåíò_61"/><linearGradient id="Áåçûìÿííûé_ãðàäèåíò_61-14" x1="-493.85" y1="89.23" x2="-492.56" y2="91.47" gradientTransform="matrix(-1, 0, 0, 1, -412.19, 0)" xlink:href="#Áåçûìÿííûé_ãðàäèåíò_61"/><linearGradient id="Áåçûìÿííûé_ãðàäèåíò_61-15" x1="-493.67" y1="82.83" x2="-492.37" y2="85.07" gradientTransform="matrix(-1, 0, 0, 1, -412.19, 0)" xlink:href="#Áåçûìÿííûé_ãðàäèåíò_61"/><linearGradient id="Áåçûìÿííûé_ãðàäèåíò_61-16" x1="-486.45" y1="98.79" x2="-485.15" y2="101.03" gradientTransform="matrix(-1, 0, 0, 1, -412.19, 0)" xlink:href="#Áåçûìÿííûé_ãðàäèåíò_61"/><linearGradient id="Áåçûìÿííûé_ãðàäèåíò_61-17" x1="-488.32" y1="81.91" x2="-487.02" y2="84.15" gradientTransform="matrix(-1, 0, 0, 1, -412.19, 0)" xlink:href="#Áåçûìÿííûé_ãðàäèåíò_61"/><linearGradient id="Áåçûìÿííûé_ãðàäèåíò_60-5" x1="-491.19" y1="81.1" x2="-479.88" y2="100.68" gradientTransform="matrix(-1, 0, 0, 1, -412.19, 0)" xlink:href="#Áåçûìÿííûé_ãðàäèåíò_60"/><linearGradient id="Áåçûìÿííûé_ãðàäèåíò_62-5" x1="-512.88" y1="95.4" x2="-503.17" y2="112.21" gradientTransform="matrix(-1, 0, 0, 1, -412.19, 0)" xlink:href="#Áåçûìÿííûé_ãðàäèåíò_62"/><linearGradient id="Áåçûìÿííûé_ãðàäèåíò_60-6" x1="-534.08" y1="105.8" x2="-522.77" y2="125.39" gradientTransform="matrix(-1, 0, 0, 1, -412.19, 0)" xlink:href="#Áåçûìÿííûé_ãðàäèåíò_60"/><linearGradient id="Áåçûìÿííûé_ãðàäèåíò_62-6" x1="-529.14" y1="123.58" x2="-535.61" y2="111.52" gradientTransform="matrix(-1, 0, 0, 1, -412.19, 0)" xlink:href="#Áåçûìÿííûé_ãðàäèåíò_62"/><linearGradient id="Áåçûìÿííûé_ãðàäèåíò_61-18" x1="-528.9" y1="112.01" x2="-527.61" y2="114.25" gradientTransform="matrix(-1, 0, 0, 1, -412.19, 0)" xlink:href="#Áåçûìÿííûé_ãðàäèåíò_61"/><linearGradient id="Áåçûìÿííûé_ãðàäèåíò_61-19" x1="-526.19" y1="117.86" x2="-524.89" y2="120.1" gradientTransform="matrix(-1, 0, 0, 1, -412.19, 0)" xlink:href="#Áåçûìÿííûé_ãðàäèåíò_61"/><linearGradient id="Áåçûìÿííûé_ãðàäèåíò_61-20" x1="-526.94" y1="124.17" x2="-525.65" y2="126.41" gradientTransform="matrix(-1, 0, 0, 1, -412.19, 0)" xlink:href="#Áåçûìÿííûé_ãðàäèåíò_61"/><linearGradient id="Áåçûìÿííûé_ãðàäèåíò_61-21" x1="-536.26" y1="120.66" x2="-534.97" y2="122.9" gradientTransform="matrix(-1, 0, 0, 1, -412.19, 0)" xlink:href="#Áåçûìÿííûé_ãðàäèåíò_61"/><linearGradient id="Áåçûìÿííûé_ãðàäèåíò_61-22" x1="-539.01" y1="115.16" x2="-537.71" y2="117.4" gradientTransform="matrix(-1, 0, 0, 1, -412.19, 0)" xlink:href="#Áåçûìÿííûé_ãðàäèåíò_61"/><linearGradient id="Áåçûìÿííûé_ãðàäèåíò_61-23" x1="-538.82" y1="108.76" x2="-537.53" y2="111" gradientTransform="matrix(-1, 0, 0, 1, -412.19, 0)" xlink:href="#Áåçûìÿííûé_ãðàäèåíò_61"/><linearGradient id="Áåçûìÿííûé_ãðàäèåíò_61-24" x1="-531.6" y1="124.72" x2="-530.31" y2="126.96" gradientTransform="matrix(-1, 0, 0, 1, -412.19, 0)" xlink:href="#Áåçûìÿííûé_ãðàäèåíò_61"/><linearGradient id="Áåçûìÿííûé_ãðàäèåíò_61-25" x1="-533.47" y1="107.84" x2="-532.18" y2="110.08" gradientTransform="matrix(-1, 0, 0, 1, -412.19, 0)" xlink:href="#Áåçûìÿííûé_ãðàäèåíò_61"/><linearGradient id="Áåçûìÿííûé_ãðàäèåíò_60-7" x1="135.99" y1="115.07" x2="146.74" y2="133.68" gradientTransform="matrix(-1, 0.01, 0.01, 1, 257.68, -9.7)" xlink:href="#Áåçûìÿííûé_ãðàäèåíò_60"/><linearGradient id="Áåçûìÿííûé_ãðàäèåíò_1112-2" x1="856.12" y1="723.88" x2="866.87" y2="742.5" gradientTransform="matrix(-0.5, 0.87, -0.87, -0.5, 1209.91, -217.23)" xlink:href="#Áåçûìÿííûé_ãðàäèåíò_1112"/><linearGradient id="Áåçûìÿííûé_ãðàäèåíò_1113-3" x1="29.92" y1="117.78" x2="16.3" y2="160.51" gradientTransform="matrix(-1, 0, 0, 1, 161.12, 0)" xlink:href="#Áåçûìÿííûé_ãðàäèåíò_1113"/><linearGradient id="Áåçûìÿííûé_ãðàäèåíò_86" x1="10.36" y1="154.85" x2="36.87" y2="115.89" gradientTransform="matrix(-1, 0, 0, 1, 161.12, 0)" gradientUnits="userSpaceOnUse"><stop offset="0.06" stop-color="#d79f22"/><stop offset="0.99" stop-color="#fae159"/></linearGradient><linearGradient id="Áåçûìÿííûé_ãðàäèåíò_1114-3" x1="14.12" y1="124.72" x2="52.65" y2="158.76" gradientTransform="matrix(-1, 0, 0, 1, 161.12, 0)" xlink:href="#Áåçûìÿííûé_ãðàäèåíò_1114"/><linearGradient id="Áåçûìÿííûé_ãðàäèåíò_1113-4" x1="34.41" y1="163.68" x2="33.54" y2="123.85" gradientTransform="matrix(-1, 0, 0, 1, 161.12, 0)" xlink:href="#Áåçûìÿííûé_ãðàäèåíò_1113"/></defs><title>rør_03</title><g class="cls-1"><g id="Layer_2" data-name="Layer 2"><g id="Layer_1-2" data-name="Layer 1"><path class="cls-2" d="M77.8,14.73A17.46,17.46,0,0,0,69.88,1.08C67.68-.18,65.7-.3,64.27.52h0L62.53,1.6,74.36,20.48l1-.63C76.88,19.05,77.8,17.28,77.8,14.73Z"/><ellipse class="cls-3" cx="68.25" cy="11.18" rx="6.44" ry="11.16" transform="translate(3.71 36.02) rotate(-30.36)"/><path class="cls-4" d="M74.37,15.43a15,15,0,0,0-6.8-11.71C65.69,2.64,64,2.54,62.76,3.24h0L24.46,25.38l9.8,16.38L72.31,19.83C73.58,19.14,74.37,17.62,74.37,15.43Z"/><ellipse class="cls-5" cx="29.02" cy="33.78" rx="5.53" ry="9.57" transform="translate(-13.1 19.3) rotate(-30.36)"/><path class="cls-6" d="M37.75,37.84c0-5-3.55-11.12-7.92-13.64-2.19-1.27-4.18-1.39-5.61-.56h0l-1.74,1.07L34.31,43.59l1-.63C36.84,42.16,37.75,40.39,37.75,37.84Z"/><path class="cls-7" d="M36.12,38.85c0,5-3.54,7-7.91,4.52s-7.92-8.63-7.93-13.64,3.54-7,7.91-4.52S36.11,33.84,36.12,38.85Z"/><path class="cls-8" d="M31.07,41a4.46,4.46,0,0,1-2.13-.68,12.65,12.65,0,0,1-5.66-9.74c0-.92.2-3.05,2-3.05a4.39,4.39,0,0,1,2.13.68A12.62,12.62,0,0,1,33.12,38C33.12,38.89,32.92,41,31.07,41Z"/><path class="cls-9" d="M33.12,38a12.62,12.62,0,0,0-5.66-9.73,4.23,4.23,0,0,0-.67-.34c-1.79.34-2,2.36-2,3.27,0,3.37,2.5,7.54,5.7,9.79a3,3,0,0,0,.58.07C32.92,41,33.12,38.89,33.12,38Z"/><path class="cls-10" d="M32.42,31.46a1.06,1.06,0,0,1-.43.19.7.7,0,0,1-.5-.11A2,2,0,0,1,30.58,30a.87.87,0,0,1,1.22-.73A10.87,10.87,0,0,1,32.42,31.46Z"/><path class="cls-11" d="M32.75,30.84a2,2,0,0,0-.91-1.56.64.64,0,0,0-.64-.07h0l-.2.13,1.35,2.16.12-.08A.61.61,0,0,0,32.75,30.84Z"/><path class="cls-12" d="M32.56,31c0,.58-.4.81-.9.52a2,2,0,0,1-.91-1.56c0-.57.41-.8.91-.52A2,2,0,0,1,32.56,31Z"/><path class="cls-10" d="M35,36.92a1.06,1.06,0,0,1-.43.19A.7.7,0,0,1,34,37a2,2,0,0,1-.91-1.56.87.87,0,0,1,1.22-.73A10.87,10.87,0,0,1,35,36.92Z"/><path class="cls-13" d="M35.29,36.3a2,2,0,0,0-.91-1.56.64.64,0,0,0-.64-.07h0l-.2.13L34.89,37l.12-.08A.61.61,0,0,0,35.29,36.3Z"/><path class="cls-12" d="M35.1,36.41c0,.58-.4.81-.9.52a2,2,0,0,1-.91-1.56c0-.57.4-.8.91-.52A2,2,0,0,1,35.1,36.41Z"/><path class="cls-10" d="M34.26,42.81a1.07,1.07,0,0,1-.43.2.72.72,0,0,1-.5-.12,2,2,0,0,1-.91-1.56.86.86,0,0,1,1.22-.72A10.93,10.93,0,0,1,34.26,42.81Z"/><path class="cls-14" d="M34.59,42.19a2,2,0,0,0-.91-1.56.63.63,0,0,0-.64-.06h0l-.2.12,1.36,2.16.12-.07A.62.62,0,0,0,34.59,42.19Z"/><path class="cls-12" d="M34.4,42.31c0,.57-.4.8-.9.52a2,2,0,0,1-.91-1.56c0-.58.41-.81.91-.52A2,2,0,0,1,34.4,42.31Z"/><path class="cls-10" d="M25.55,39.54a1.16,1.16,0,0,1-.43.2.76.76,0,0,1-.5-.11,2,2,0,0,1-.91-1.56.86.86,0,0,1,1.22-.73A10.93,10.93,0,0,1,25.55,39.54Z"/><path class="cls-15" d="M25.88,38.92A2,2,0,0,0,25,37.36a.66.66,0,0,0-.64-.06h0l-.2.12,1.36,2.16.12-.07A.62.62,0,0,0,25.88,38.92Z"/><path class="cls-12" d="M25.69,39c0,.57-.4.81-.9.52A2,2,0,0,1,23.88,38c0-.58.41-.81.91-.52A2,2,0,0,1,25.69,39Z"/><path class="cls-10" d="M23,34.4a1,1,0,0,1-.44.2.71.71,0,0,1-.5-.11,2,2,0,0,1-.91-1.56.86.86,0,0,1,1.22-.73A11.49,11.49,0,0,1,23,34.4Z"/><path class="cls-16" d="M23.31,33.79a2,2,0,0,0-.91-1.56.64.64,0,0,0-.64-.07h0l-.2.13,1.36,2.16.12-.08A.61.61,0,0,0,23.31,33.79Z"/><path class="cls-12" d="M23.12,33.9c0,.58-.4.81-.9.52a2,2,0,0,1-.91-1.56c0-.57.41-.81.91-.52A2,2,0,0,1,23.12,33.9Z"/><path class="cls-10" d="M23.15,28.42a1.16,1.16,0,0,1-.43.2.75.75,0,0,1-.5-.11A2,2,0,0,1,21.31,27a.86.86,0,0,1,1.22-.73A10.93,10.93,0,0,1,23.15,28.42Z"/><path class="cls-17" d="M23.48,27.81a2,2,0,0,0-.91-1.56.64.64,0,0,0-.64-.07h0l-.2.12,1.35,2.16.12-.07A.61.61,0,0,0,23.48,27.81Z"/><path class="cls-12" d="M23.29,27.92c0,.58-.4.81-.9.52a2,2,0,0,1-.91-1.56c0-.58.4-.81.9-.52A2,2,0,0,1,23.29,27.92Z"/><path class="cls-10" d="M29.91,43.33a1.16,1.16,0,0,1-.43.2.74.74,0,0,1-.51-.12,2,2,0,0,1-.9-1.56.85.85,0,0,1,1.21-.72A10.8,10.8,0,0,1,29.91,43.33Z"/><path class="cls-18" d="M30.23,42.71a2,2,0,0,0-.9-1.56.63.63,0,0,0-.64-.06h0l-.2.12,1.35,2.16L30,43.3A.63.63,0,0,0,30.23,42.71Z"/><path class="cls-12" d="M30.05,42.83c0,.57-.41.8-.91.52a2,2,0,0,1-.9-1.57c0-.57.4-.8.9-.51A2,2,0,0,1,30.05,42.83Z"/><path class="cls-10" d="M28.15,27.56a1.16,1.16,0,0,1-.43.2.75.75,0,0,1-.51-.12,2,2,0,0,1-.9-1.56.86.86,0,0,1,1.22-.72A10.93,10.93,0,0,1,28.15,27.56Z"/><path class="cls-19" d="M28.48,26.94a2,2,0,0,0-.91-1.56.63.63,0,0,0-.64-.06h0l-.2.12,1.35,2.16.12-.07A.63.63,0,0,0,28.48,26.94Z"/><path class="cls-12" d="M28.29,27.06c0,.57-.41.8-.91.52a2,2,0,0,1-.9-1.57c0-.57.4-.8.9-.51A2,2,0,0,1,28.29,27.06Z"/><path class="cls-20" d="M38.52,37.59c0-5.37-3.69-11.94-8.35-14.67-2.33-1.38-4.45-1.53-6-.66h0L22.31,23.4,34.79,43.72l1.13-.66C37.5,42.21,38.5,40.32,38.52,37.59Z"/><path class="cls-3" d="M36.76,38.66c0,5.37-3.85,7.5-8.5,4.77s-8.4-9.31-8.36-14.68,3.86-7.5,8.51-4.76S36.81,33.3,36.76,38.66Z"/><path class="cls-21" d="M9.92,32.25l12.61-7.09a3.7,3.7,0,0,1,2-.46,6.8,6.8,0,0,1,3.1,1l.31.19a13.35,13.35,0,0,1,3,2.73,17.14,17.14,0,0,1,3.57,7.22,11.65,11.65,0,0,1,.25,2.45c0,2.35-.87,4-2.23,4.69,0,0-.47.14-5.64,3.07A3.86,3.86,0,0,0,27,52.83l3.14,1.71,3.16,1.71L27.56,66.43l-4,7.09,0,0-.26.47L9.79,66.26A19.6,19.6,0,0,1,9.92,32.25Z"/><path class="cls-22" d="M11,33.72l14.81-8.35a6.12,6.12,0,0,1,2.16.54,13.35,13.35,0,0,1,3,2.73,17.14,17.14,0,0,1,3.57,7.22,11.65,11.65,0,0,1,.25,2.45c0,2.35-.87,4-2.23,4.69,0,0-.47.14-5.64,3.07A3.86,3.86,0,0,0,27,52.83l3.14,1.71,3.16,1.71L27.56,66.43,24.34,72,11.62,64.56C-.8,57.3-1.49,40.82,11,33.72Z"/><path class="cls-23" d="M15.41,37.44,31,28.64a17.14,17.14,0,0,1,3.57,7.22,11.65,11.65,0,0,1,.25,2.45c0,2.35-.87,4-2.23,4.69,0,0-.47.14-5.64,3.07A3.86,3.86,0,0,0,27,52.83l3.14,1.71,3.16,1.71-5.16,7.56L13.68,55.34C6.29,51,8,41.67,15.41,37.44Z"/><path class="cls-24" d="M27.49,39.83l7.1-4a11.65,11.65,0,0,1,.25,2.45c0,2.35-.87,4-2.23,4.69,0,0-.47.14-5.64,3.07A3.86,3.86,0,0,0,27,52.83l3.14,1.71-1.88.78-5.42-3.17C20.3,49.52,20.51,43.46,27.49,39.83Z"/><ellipse class="cls-5" cx="28.75" cy="65.38" rx="10.25" ry="5.92" transform="translate(-42.29 57.97) rotate(-60.31)"/><path class="cls-25" d="M27.84,55.11c-4.65,2.69-8.42,9.24-8.42,14.65,0,2.7.95,4.61,2.48,5.49h0l1.93,1L35,55.23l-1.14-.64C32.34,53.65,30.2,53.75,27.84,55.11Z"/><ellipse class="cls-26" cx="29.65" cy="65.87" rx="11.94" ry="6.89" transform="translate(-42.26 59.01) rotate(-60.31)"/><path class="cls-27" d="M34.37,59.61A4.8,4.8,0,0,1,34.88,62a13.53,13.53,0,0,1-6,10.45c-.85.49-2.94,1.45-3.93-.27a4.8,4.8,0,0,1-.51-2.34,13.53,13.53,0,0,1,6-10.45C31.29,58.85,33.37,57.89,34.37,59.61Z"/><path class="cls-9" d="M32.08,58.69c-.87,3.52-3.07,7-5.69,8.47a5.53,5.53,0,0,1-1.73.66,13.74,13.74,0,0,1,5.77-8.48A5.35,5.35,0,0,1,32.08,58.69Z"/><path class="cls-10" d="M24.77,63.47a1.12,1.12,0,0,1,.41.29.82.82,0,0,1,.16.53,2.15,2.15,0,0,1-1,1.68.92.92,0,0,1-1.32-.74A11.36,11.36,0,0,1,24.77,63.47Z"/><path class="cls-28" d="M24,63.5a2.11,2.11,0,0,0-1,1.67.69.69,0,0,0,.28.63h0l.22.12,1.28-2.41-.13-.07A.65.65,0,0,0,24,63.5Z"/><path class="cls-29" d="M24.23,63.61c.53-.31,1-.06,1,.56a2.15,2.15,0,0,1-1,1.68c-.53.3-1,.05-1-.57A2.12,2.12,0,0,1,24.23,63.61Z"/><path class="cls-10" d="M28.47,58.19a1.32,1.32,0,0,1,.42.3.82.82,0,0,1,.16.53,2.11,2.11,0,0,1-1,1.67A.92.92,0,0,1,26.76,60,11.86,11.86,0,0,1,28.47,58.19Z"/><path class="cls-30" d="M27.73,58.22a2.13,2.13,0,0,0-1,1.68.69.69,0,0,0,.29.63h0l.22.11,1.28-2.4-.13-.08A.68.68,0,0,0,27.73,58.22Z"/><path class="cls-29" d="M27.93,58.33c.54-.3,1,0,1,.57a2.13,2.13,0,0,1-1,1.67c-.53.31-1,.06-1-.56A2.15,2.15,0,0,1,27.93,58.33Z"/><path class="cls-10" d="M34.31,55.69a1.39,1.39,0,0,1,.42.29.82.82,0,0,1,.16.53,2.15,2.15,0,0,1-1,1.68.92.92,0,0,1-1.32-.74A11.67,11.67,0,0,1,34.31,55.69Z"/><path class="cls-31" d="M33.57,55.72a2.1,2.1,0,0,0-1,1.67.68.68,0,0,0,.29.63h0l.22.12,1.28-2.41-.13-.07A.65.65,0,0,0,33.57,55.72Z"/><path class="cls-29" d="M33.77,55.83c.54-.31,1-.06,1,.56a2.13,2.13,0,0,1-1,1.68c-.53.3-1,0-1-.57A2.15,2.15,0,0,1,33.77,55.83Z"/><path class="cls-10" d="M35.94,65.52a1.12,1.12,0,0,1,.41.29.77.77,0,0,1,.17.53,2.1,2.1,0,0,1-1,1.67.91.91,0,0,1-1.32-.74A11.43,11.43,0,0,1,35.94,65.52Z"/><path class="cls-32" d="M35.19,65.54a2.15,2.15,0,0,0-1,1.68.69.69,0,0,0,.28.63h0l.22.12L36,65.56l-.13-.08A.7.7,0,0,0,35.19,65.54Z"/><path class="cls-29" d="M35.4,65.66c.53-.31,1-.06,1,.56a2.11,2.11,0,0,1-1,1.67c-.53.31-1,.06-1-.56A2.11,2.11,0,0,1,35.4,65.66Z"/><path class="cls-10" d="M32.55,70.65a1.12,1.12,0,0,1,.41.29.82.82,0,0,1,.16.53,2.11,2.11,0,0,1-1,1.67.91.91,0,0,1-1.32-.74A11,11,0,0,1,32.55,70.65Z"/><path class="cls-33" d="M31.8,70.67a2.15,2.15,0,0,0-1,1.68.67.67,0,0,0,.28.63h0l.22.12,1.28-2.41-.13-.08A.7.7,0,0,0,31.8,70.67Z"/><path class="cls-29" d="M32,70.78c.53-.3,1,0,1,.57A2.13,2.13,0,0,1,32,73c-.53.31-1,.06-1-.56A2.16,2.16,0,0,1,32,70.78Z"/><path class="cls-10" d="M26.91,73.69a1.12,1.12,0,0,1,.41.29.77.77,0,0,1,.17.53,2.13,2.13,0,0,1-1,1.68.92.92,0,0,1-1.32-.75A11.43,11.43,0,0,1,26.91,73.69Z"/><path class="cls-34" d="M26.16,73.72a2.11,2.11,0,0,0-1,1.67.69.69,0,0,0,.28.63h0l.22.12L27,73.73l-.13-.07A.65.65,0,0,0,26.16,73.72Z"/><path class="cls-29" d="M26.37,73.83c.53-.31,1-.06,1,.56a2.11,2.11,0,0,1-1,1.67c-.53.31-1,.06-1-.56A2.11,2.11,0,0,1,26.37,73.83Z"/><path class="cls-10" d="M37.12,59.45a1.32,1.32,0,0,1,.42.3.82.82,0,0,1,.16.53,2.11,2.11,0,0,1-1,1.67.91.91,0,0,1-1.32-.74A11.67,11.67,0,0,1,37.12,59.45Z"/><path class="cls-35" d="M36.38,59.48a2.13,2.13,0,0,0-1,1.68.69.69,0,0,0,.29.63h0l.22.11,1.28-2.4-.13-.08A.68.68,0,0,0,36.38,59.48Z"/><path class="cls-29" d="M36.58,59.59c.54-.3,1-.05,1,.57a2.13,2.13,0,0,1-1,1.67c-.53.31-1,.06-1-.56A2.15,2.15,0,0,1,36.58,59.59Z"/><path class="cls-10" d="M23.44,69.51a1.22,1.22,0,0,1,.41.3.82.82,0,0,1,.16.53,2.15,2.15,0,0,1-1,1.67.91.91,0,0,1-1.32-.74A11.86,11.86,0,0,1,23.44,69.51Z"/><path class="cls-36" d="M22.69,69.54a2.15,2.15,0,0,0-1,1.68.67.67,0,0,0,.28.62h0l.22.12,1.28-2.41-.13-.07A.65.65,0,0,0,22.69,69.54Z"/><path class="cls-29" d="M22.9,69.65c.53-.3,1-.05,1,.57a2.15,2.15,0,0,1-1,1.67c-.53.31-1,.06-1-.56A2.16,2.16,0,0,1,22.9,69.65Z"/><path class="cls-37" d="M22,70.64c0-5.37,3.8-11.91,8.47-14.61,2.35-1.35,4.47-1.48,6-.6h0l1.87,1.15L25.64,76.8l-1.12-.68C22.94,75.27,22,73.37,22,70.64Z"/><ellipse class="cls-3" cx="32.17" cy="66.84" rx="11.94" ry="6.89" transform="translate(-41.76 60.88) rotate(-59.69)"/><path class="cls-38" d="M25.63,71.39A16,16,0,0,1,32.9,58.85c2-1.16,3.83-1.27,5.14-.52h0L79.06,82,68.58,99.55,27.83,76.1C26.47,75.36,25.63,73.73,25.63,71.39Z"/><ellipse class="cls-5" cx="74.19" cy="91" rx="10.25" ry="5.92" transform="translate(-41.82 109.12) rotate(-59.69)"/><path class="cls-39" d="M64.84,95.35c0-5.37,3.79-11.91,8.47-14.61,2.35-1.35,4.47-1.49,6-.61h0l1.86,1.16L68.53,101.5l-1.12-.67C65.83,100,64.84,98.08,64.84,95.35Z"/><path class="cls-3" d="M66.59,96.43c0,5.37,3.8,7.53,8.47,4.83S83.53,92,83.53,86.65s-3.79-7.53-8.47-4.83S66.59,91.07,66.59,96.43Z"/><path class="cls-40" d="M72,98.76A4.79,4.79,0,0,0,74.28,98a13.56,13.56,0,0,0,6-10.43c0-1-.21-3.27-2.2-3.27a4.68,4.68,0,0,0-2.28.73,13.54,13.54,0,0,0-6,10.43C69.8,96.47,70,98.76,72,98.76Z"/><path class="cls-9" d="M69.8,95.49a13.54,13.54,0,0,1,6-10.43,6,6,0,0,1,.72-.36c1.91.37,2.14,2.52,2.14,3.5,0,3.61-2.67,8.07-6.09,10.49a3.37,3.37,0,0,1-.62.07C70,98.76,69.8,96.47,69.8,95.49Z"/><path class="cls-10" d="M70.54,88.51a1.18,1.18,0,0,0,.46.21.76.76,0,0,0,.54-.12,2.13,2.13,0,0,0,1-1.67.92.92,0,0,0-1.3-.78A11.69,11.69,0,0,0,70.54,88.51Z"/><path class="cls-41" d="M70.19,87.85a2.16,2.16,0,0,1,1-1.67.71.71,0,0,1,.69-.07h0l.21.13-1.45,2.32-.13-.08A.68.68,0,0,1,70.19,87.85Z"/><path class="cls-12" d="M70.39,88c0,.61.44.86,1,.55a2.13,2.13,0,0,0,1-1.67c0-.62-.43-.86-1-.56A2.16,2.16,0,0,0,70.39,88Z"/><path class="cls-10" d="M67.83,94.36a1.18,1.18,0,0,0,.46.21.83.83,0,0,0,.54-.12,2.16,2.16,0,0,0,1-1.67A.92.92,0,0,0,68.49,92,11.62,11.62,0,0,0,67.83,94.36Z"/><path class="cls-42" d="M67.48,93.7a2.11,2.11,0,0,1,1-1.67.66.66,0,0,1,.68-.07h0l.22.13L67.9,94.4l-.13-.08A.65.65,0,0,1,67.48,93.7Z"/><path class="cls-12" d="M67.68,93.82c0,.62.43.86,1,.55a2.12,2.12,0,0,0,1-1.67c0-.61-.44-.86-1-.55A2.13,2.13,0,0,0,67.68,93.82Z"/><path class="cls-10" d="M68.58,100.67a1.18,1.18,0,0,0,.46.21.83.83,0,0,0,.54-.12,2.13,2.13,0,0,0,1-1.67.92.92,0,0,0-1.3-.78A11.69,11.69,0,0,0,68.58,100.67Z"/><path class="cls-43" d="M68.23,100a2.11,2.11,0,0,1,1-1.67.66.66,0,0,1,.68-.07h0l.22.13-1.45,2.31-.13-.07A.68.68,0,0,1,68.23,100Z"/><path class="cls-12" d="M68.43,100.13c0,.62.43.86,1,.55a2.12,2.12,0,0,0,1-1.67c0-.61-.44-.86-1-.55A2.13,2.13,0,0,0,68.43,100.13Z"/><path class="cls-10" d="M77.9,97.16a1.18,1.18,0,0,0,.46.21.71.71,0,0,0,.54-.12,2.13,2.13,0,0,0,1-1.67.92.92,0,0,0-1.3-.77A11.55,11.55,0,0,0,77.9,97.16Z"/><path class="cls-44" d="M77.55,96.5a2.13,2.13,0,0,1,1-1.67.71.71,0,0,1,.69-.07h0l.21.13L78,97.21l-.13-.08A.68.68,0,0,1,77.55,96.5Z"/><path class="cls-12" d="M77.75,96.63c0,.61.44.86,1,.55a2.13,2.13,0,0,0,1-1.67c0-.62-.43-.86-1-.55A2.12,2.12,0,0,0,77.75,96.63Z"/><path class="cls-10" d="M80.65,91.66a1.18,1.18,0,0,0,.46.21.77.77,0,0,0,.54-.12,2.16,2.16,0,0,0,1-1.67.92.92,0,0,0-1.31-.78A11.82,11.82,0,0,0,80.65,91.66Z"/><path class="cls-45" d="M80.3,91a2.13,2.13,0,0,1,1-1.67.66.66,0,0,1,.68-.07h0l.21.13L80.72,91.7l-.13-.07A.68.68,0,0,1,80.3,91Z"/><path class="cls-12" d="M80.5,91.12c0,.62.43.87,1,.56a2.15,2.15,0,0,0,1-1.67c0-.62-.43-.87-1-.56A2.13,2.13,0,0,0,80.5,91.12Z"/><path class="cls-10" d="M80.46,85.26a1.28,1.28,0,0,0,.46.21.81.81,0,0,0,.54-.12,2.13,2.13,0,0,0,1-1.67.92.92,0,0,0-1.3-.78A11.49,11.49,0,0,0,80.46,85.26Z"/><path class="cls-46" d="M80.11,84.6a2.12,2.12,0,0,1,1-1.67.68.68,0,0,1,.69-.07h0L82,83,80.53,85.3l-.12-.08A.65.65,0,0,1,80.11,84.6Z"/><path class="cls-12" d="M80.31,84.72c0,.62.44.86,1,.55a2.11,2.11,0,0,0,1-1.67c0-.61-.43-.86-1-.55A2.16,2.16,0,0,0,80.31,84.72Z"/><path class="cls-10" d="M73.24,101.22a1.28,1.28,0,0,0,.46.21.79.79,0,0,0,.55-.12,2.15,2.15,0,0,0,1-1.67.91.91,0,0,0-1.3-.78A11.69,11.69,0,0,0,73.24,101.22Z"/><path class="cls-47" d="M72.89,100.56a2.16,2.16,0,0,1,1-1.67.68.68,0,0,1,.69-.07h0l.21.13-1.44,2.31-.13-.07A.68.68,0,0,1,72.89,100.56Z"/><path class="cls-12" d="M73.09,100.68c0,.62.44.87,1,.56a2.13,2.13,0,0,0,1-1.67c0-.62-.43-.87-1-.56A2.16,2.16,0,0,0,73.09,100.68Z"/><path class="cls-10" d="M75.11,84.34a1.18,1.18,0,0,0,.46.21.81.81,0,0,0,.54-.12,2.13,2.13,0,0,0,1-1.67.92.92,0,0,0-1.3-.78A11.49,11.49,0,0,0,75.11,84.34Z"/><path class="cls-48" d="M74.76,83.68a2.12,2.12,0,0,1,1-1.67.68.68,0,0,1,.69-.07h0l.21.13-1.45,2.31-.13-.08A.65.65,0,0,1,74.76,83.68Z"/><path class="cls-12" d="M75,83.8c0,.62.44.86,1,.55a2.11,2.11,0,0,0,1-1.67c0-.61-.43-.86-1-.55A2.16,2.16,0,0,0,75,83.8Z"/><path class="cls-49" d="M67.11,96.57c0-5.37,3.79-11.91,8.47-14.61,2.35-1.35,4.47-1.49,6-.6h0l1.86,1.15L70.8,102.73l-1.13-.68C68.09,101.2,67.11,99.3,67.11,96.57Z"/><path class="cls-3" d="M68.86,97.66c0,5.36,3.79,7.53,8.47,4.83s8.47-9.25,8.47-14.61S82,80.35,77.33,83.05,68.86,92.29,68.86,97.66Z"/><path class="cls-50" d="M70.78,97.32a16,16,0,0,1,7.27-12.54c2-1.16,3.84-1.27,5.15-.52h0l41,23.67-10.48,17.55L73,102C71.63,101.29,70.78,99.66,70.78,97.32Z"/><ellipse class="cls-5" cx="119.35" cy="116.93" rx="10.25" ry="5.92" transform="translate(-41.83 160.95) rotate(-59.69)"/><path class="cls-51" d="M110,121.28c0-5.37,3.79-11.91,8.47-14.61,2.34-1.36,4.47-1.49,6-.61h0l1.86,1.16-12.64,20.21-1.13-.67C111,125.91,110,124,110,121.28Z"/><path class="cls-3" d="M111.75,122.36c0,5.37,3.79,7.53,8.47,4.83s8.47-9.24,8.47-14.61-3.79-7.53-8.47-4.83S111.75,117,111.75,122.36Z"/><path class="cls-52" d="M117.16,124.69a4.86,4.86,0,0,0,2.28-.73,13.56,13.56,0,0,0,6-10.43c0-1-.22-3.27-2.2-3.27A4.75,4.75,0,0,0,121,111a13.56,13.56,0,0,0-6,10.43C115,122.4,115.17,124.69,117.16,124.69Z"/><path class="cls-9" d="M115,121.42A13.56,13.56,0,0,1,121,111a8,8,0,0,1,.72-.36c1.92.37,2.15,2.52,2.15,3.5,0,3.61-2.67,8.07-6.09,10.49a3.57,3.57,0,0,1-.62.07C115.17,124.69,115,122.4,115,121.42Z"/><path class="cls-10" d="M115.7,114.44a1.18,1.18,0,0,0,.46.21.77.77,0,0,0,.54-.12,2.13,2.13,0,0,0,1-1.67.92.92,0,0,0-1.3-.78A11.69,11.69,0,0,0,115.7,114.44Z"/><path class="cls-53" d="M115.35,113.78a2.13,2.13,0,0,1,1-1.67A.69.69,0,0,1,117,112h0l.22.13-1.45,2.32-.13-.08A.68.68,0,0,1,115.35,113.78Z"/><path class="cls-12" d="M115.55,113.91c0,.61.43.86,1,.55a2.16,2.16,0,0,0,1-1.67c0-.62-.44-.86-1-.56A2.13,2.13,0,0,0,115.55,113.91Z"/><path class="cls-10" d="M113,120.29a1.28,1.28,0,0,0,.46.21.84.84,0,0,0,.55-.12,2.16,2.16,0,0,0,1-1.67.92.92,0,0,0-1.31-.78A11.49,11.49,0,0,0,113,120.29Z"/><path class="cls-54" d="M112.63,119.63a2.14,2.14,0,0,1,1-1.67.68.68,0,0,1,.69-.07h0l.21.13-1.44,2.31-.13-.08A.65.65,0,0,1,112.63,119.63Z"/><path class="cls-12" d="M112.84,119.75c0,.62.43.86,1,.55a2.1,2.1,0,0,0,1-1.67c0-.61-.43-.86-1-.55A2.15,2.15,0,0,0,112.84,119.75Z"/><path class="cls-10" d="M113.74,126.6a1.18,1.18,0,0,0,.46.21.83.83,0,0,0,.54-.12,2.16,2.16,0,0,0,1-1.67.92.92,0,0,0-1.31-.78A11.62,11.62,0,0,0,113.74,126.6Z"/><path class="cls-55" d="M113.39,125.94a2.11,2.11,0,0,1,1-1.67.66.66,0,0,1,.68-.07h0l.21.13-1.44,2.31-.13-.07A.68.68,0,0,1,113.39,125.94Z"/><path class="cls-12" d="M113.59,126.06c0,.62.43.86,1,.55a2.11,2.11,0,0,0,1-1.67c0-.61-.43-.86-1-.55A2.13,2.13,0,0,0,113.59,126.06Z"/><path class="cls-10" d="M123.06,123.09a1.18,1.18,0,0,0,.46.21.72.72,0,0,0,.54-.12,2.13,2.13,0,0,0,1-1.67.92.92,0,0,0-1.3-.78A11.69,11.69,0,0,0,123.06,123.09Z"/><path class="cls-56" d="M122.71,122.43a2.13,2.13,0,0,1,1-1.67.69.69,0,0,1,.68-.07h0l.22.13-1.45,2.32-.13-.08A.68.68,0,0,1,122.71,122.43Z"/><path class="cls-12" d="M122.91,122.56c0,.61.43.86,1,.55a2.16,2.16,0,0,0,1-1.67c0-.62-.44-.86-1-.55A2.1,2.1,0,0,0,122.91,122.56Z"/><path class="cls-10" d="M125.8,117.59a1.28,1.28,0,0,0,.46.21.78.78,0,0,0,.55-.12,2.15,2.15,0,0,0,1-1.67.91.91,0,0,0-1.3-.78A11.69,11.69,0,0,0,125.8,117.59Z"/><path class="cls-57" d="M125.45,116.93a2.16,2.16,0,0,1,1-1.67.68.68,0,0,1,.69-.07h0l.21.13-1.44,2.31-.13-.07A.68.68,0,0,1,125.45,116.93Z"/><path class="cls-12" d="M125.65,117.05c0,.62.44.87,1,.56a2.13,2.13,0,0,0,1-1.67c0-.62-.43-.87-1-.56A2.16,2.16,0,0,0,125.65,117.05Z"/><path class="cls-10" d="M125.62,111.19a1.18,1.18,0,0,0,.46.21.83.83,0,0,0,.54-.12,2.13,2.13,0,0,0,1-1.67.92.92,0,0,0-1.3-.78A11.49,11.49,0,0,0,125.62,111.19Z"/><path class="cls-58" d="M125.27,110.53a2.1,2.1,0,0,1,1-1.67.68.68,0,0,1,.69-.07h0l.21.13-1.45,2.31-.13-.08A.65.65,0,0,1,125.27,110.53Z"/><path class="cls-12" d="M125.47,110.65c0,.62.43.86,1,.55a2.14,2.14,0,0,0,1-1.67c0-.61-.44-.86-1-.55A2.13,2.13,0,0,0,125.47,110.65Z"/><path class="cls-10" d="M118.4,127.15a1.18,1.18,0,0,0,.46.21.76.76,0,0,0,.54-.12,2.13,2.13,0,0,0,1-1.67.92.92,0,0,0-1.3-.78A11.69,11.69,0,0,0,118.4,127.15Z"/><path class="cls-59" d="M118.05,126.49a2.13,2.13,0,0,1,1-1.67.68.68,0,0,1,.69-.07h0l.21.13-1.45,2.31-.13-.07A.68.68,0,0,1,118.05,126.49Z"/><path class="cls-12" d="M118.25,126.61c0,.62.44.87,1,.56a2.13,2.13,0,0,0,1-1.67c0-.62-.43-.87-1-.56A2.16,2.16,0,0,0,118.25,126.61Z"/><path class="cls-10" d="M120.27,110.27a1.18,1.18,0,0,0,.46.21.83.83,0,0,0,.54-.12,2.13,2.13,0,0,0,1-1.67.92.92,0,0,0-1.3-.78A11.49,11.49,0,0,0,120.27,110.27Z"/><path class="cls-60" d="M119.92,109.61a2.1,2.1,0,0,1,1-1.67.66.66,0,0,1,.68-.07h0l.22.13-1.45,2.31-.13-.08A.65.65,0,0,1,119.92,109.61Z"/><path class="cls-12" d="M120.12,109.73c0,.62.43.86,1,.55a2.14,2.14,0,0,0,1-1.67c0-.61-.44-.86-1-.55A2.13,2.13,0,0,0,120.12,109.73Z"/><path class="cls-61" d="M111.43,121.25c0-5.1,3.51-11.34,7.93-13.94,2.22-1.31,4.24-1.45,5.7-.62h0l1.78,1.08L115,127.07l-1.08-.62C112.4,125.65,111.45,123.85,111.43,121.25Z"/><ellipse class="cls-3" cx="121.11" cy="117.56" rx="11.35" ry="6.55" transform="translate(-41.14 164.08) rotate(-60.15)"/><path class="cls-62" d="M136.19,163.72c4.41,2.56,11.6,2.55,16.05,0,2.23-1.28,3.34-3,3.35-4.65h0l-.06-2.08-22.65.78,0,1.25C132.85,160.71,133.94,162.42,136.19,163.72Z"/><ellipse class="cls-63" cx="144.18" cy="157.13" rx="11.35" ry="6.55" transform="translate(-0.71 0.65) rotate(-0.26)"/><path class="cls-64" d="M147.82,122a19.59,19.59,0,0,0-3.34-2.4l-17.85-10.14a3.63,3.63,0,0,0-1.95-.44,6.4,6.4,0,0,0-2.94,1c-.1.06-.2.11-.3.18a12.78,12.78,0,0,0-2.89,2.6,16.24,16.24,0,0,0-3.38,6.86,11.07,11.07,0,0,0-.25,2.33c0,2.23.84,3.77,2.13,4.46,0,0,6.31,3.52,11.23,6.3a3.78,3.78,0,0,1,1.1,1c1.63-1.1,3.25-2.23,4.87-3.34.08,2.19.14,4.58.19,6.73a.53.53,0,0,1,.44.47,36,36,0,0,1,.54,4.75,20.49,20.49,0,0,1-.5,4.41.55.55,0,0,1-.38.47c0,4.66,0,9.15,0,9.15-.05,1.47.89,2.94,2.82,4.05a11,11,0,0,0,2.15.94,16.37,16.37,0,0,0,7.64.45,12.66,12.66,0,0,0,3.68-1.23l.3-.17a6.46,6.46,0,0,0,2.3-2.08,3.61,3.61,0,0,0,.58-1.91V135.81A18.37,18.37,0,0,0,147.82,122Z"/><path class="cls-65" d="M147,123.38l0,0a5.42,5.42,0,0,0-.77-.56,18.79,18.79,0,0,0-2.73-1.88l-19.94-11.33a5.71,5.71,0,0,0-2,.51,12.78,12.78,0,0,0-2.89,2.6,16.24,16.24,0,0,0-3.38,6.86,11.07,11.07,0,0,0-.25,2.33c0,2.23.84,3.77,2.13,4.46,0,0,6.31,3.52,11.23,6.3.25.14,5.24,1.93,9.66,3.54-.79,1-1.6,2-2.43,2.93v1.39c.06,1.4,0,2.79,0,4.19a4.9,4.9,0,0,0-1,1.09c0,5.1-.05,10.45-.05,10.45-.05,1.47.89,2.94,2.82,4.05a11,11,0,0,0,2.15.94,16.37,16.37,0,0,0,7.64.45,12.66,12.66,0,0,0,3.68-1.23,5.76,5.76,0,0,0,1.45-1.53V136A17.48,17.48,0,0,0,147,123.38Z"/><path class="cls-66" d="M139.25,124.5l-20.7-11.75a16.24,16.24,0,0,0-3.38,6.86,11.07,11.07,0,0,0-.25,2.33c0,2.23.84,3.77,2.13,4.46,0,0,6.39,2.82,11.25,5.47a.79.79,0,0,1,.35,0,7.44,7.44,0,0,1,2.72,1,.58.58,0,0,1,.63.17l.62.82c2.83,2.76,3.62,7.67,3.77,11.38a.67.67,0,0,1-1.32.18c-.1-.53-.22-1-.35-1.56l-.17.05c0,5.57-.05,12.39-.05,12.39-.05,1.47.89,2.94,2.82,4.05a11,11,0,0,0,2.15.94,16.37,16.37,0,0,0,7.64.45V140C147.11,129,139.93,124.89,139.25,124.5Z"/><path class="cls-67" d="M131.56,129.06s-2.42-1.58-3.78-2.29l-12.61-7.16a11.07,11.07,0,0,0-.25,2.33c0,2.23.84,3.77,2.13,4.46,0,0,6.31,3.52,11.23,6.3.45.26.7.7,1.1,1,5.84,3.72,5.18,5.18,5.17,6.07,0,5.65-.05,16.57-.05,16.57-.05,1.47.89,2.94,2.82,4.05a11,11,0,0,0,2.15.94V142.52C139.47,136.92,137.56,133.26,131.56,129.06Z"/></g></g></g></svg>