<svg xmlns="http://www.w3.org/2000/svg" xmlns:xlink="http://www.w3.org/1999/xlink" viewBox="0 0 94.48 116.03"><defs><style>.cls-1{isolation:isolate;}.cls-2{fill:url(#Áåçûìÿííûé_ãðàäèåíò_60);}.cls-3{fill:#c18000;}.cls-4{fill:url(#Áåçûìÿííûé_ãðàäèåíò_62);}.cls-5{fill:#af8300;}.cls-6{fill:url(#Áåçûìÿííûé_ãðàäèåíò_60-2);}.cls-7{fill:url(#Áåçûìÿííûé_ãðàäèåíò_62-2);}.cls-8{fill:#a97c2c;}.cls-8,.cls-9{mix-blend-mode:multiply;}.cls-9{fill:#e4b527;}.cls-10{fill:url(#Áåçûìÿííûé_ãðàäèåíò_61);}.cls-11{fill:#b37000;}.cls-12{fill:url(#Áåçûìÿííûé_ãðàäèåíò_61-2);}.cls-13{fill:url(#Áåçûìÿííûé_ãðàäèåíò_61-3);}.cls-14{fill:url(#Áåçûìÿííûé_ãðàäèåíò_61-4);}.cls-15{fill:url(#Áåçûìÿííûé_ãðàäèåíò_61-5);}.cls-16{fill:url(#Áåçûìÿííûé_ãðàäèåíò_61-6);}.cls-17{fill:url(#Áåçûìÿííûé_ãðàäèåíò_61-7);}.cls-18{fill:url(#Áåçûìÿííûé_ãðàäèåíò_61-8);}.cls-19{fill:url(#Áåçûìÿííûé_ãðàäèåíò_60-3);}.cls-20{fill:url(#Áåçûìÿííûé_ãðàäèåíò_62-3);}.cls-21{fill:url(#Áåçûìÿííûé_ãðàäèåíò_60-4);}.cls-22{fill:url(#Áåçûìÿííûé_ãðàäèåíò_62-4);}.cls-23{fill:url(#Áåçûìÿííûé_ãðàäèåíò_61-9);}.cls-24{fill:url(#Áåçûìÿííûé_ãðàäèåíò_61-10);}.cls-25{fill:url(#Áåçûìÿííûé_ãðàäèåíò_61-11);}.cls-26{fill:url(#Áåçûìÿííûé_ãðàäèåíò_61-12);}.cls-27{fill:url(#Áåçûìÿííûé_ãðàäèåíò_61-13);}.cls-28{fill:url(#Áåçûìÿííûé_ãðàäèåíò_61-14);}.cls-29{fill:url(#Áåçûìÿííûé_ãðàäèåíò_61-15);}.cls-30{fill:url(#Áåçûìÿííûé_ãðàäèåíò_61-16);}.cls-31{fill:url(#Áåçûìÿííûé_ãðàäèåíò_60-5);}.cls-32{fill:url(#Áåçûìÿííûé_ãðàäèåíò_1113);}.cls-33{fill:url(#Áåçûìÿííûé_ãðàäèåíò_1114);}.cls-34{fill:url(#Áåçûìÿííûé_ãðàäèåíò_1114-2);}.cls-35{fill:url(#Áåçûìÿííûé_ãðàäèåíò_1113-2);}.cls-36{fill:url(#Áåçûìÿííûé_ãðàäèåíò_1112);}.cls-37{fill:#dda832;}.cls-38{fill:url(#Áåçûìÿííûé_ãðàäèåíò_3632);}.cls-39{fill:url(#Áåçûìÿííûé_ãðàäèåíò_1110);}.cls-40{fill:#ddb748;}.cls-41{fill:url(#Áåçûìÿííûé_ãðàäèåíò_1110-2);}.cls-42{fill:url(#Áåçûìÿííûé_ãðàäèåíò_1110-3);}.cls-43{fill:url(#Áåçûìÿííûé_ãðàäèåíò_1110-4);}.cls-44{fill:url(#Áåçûìÿííûé_ãðàäèåíò_61-17);}.cls-45{fill:url(#Áåçûìÿííûé_ãðàäèåíò_1110-5);}.cls-46{fill:url(#Áåçûìÿííûé_ãðàäèåíò_1110-6);}.cls-47{fill:url(#Áåçûìÿííûé_ãðàäèåíò_1110-7);}.cls-48{fill:url(#Áåçûìÿííûé_ãðàäèåíò_60-6);}.cls-49{fill:url(#Áåçûìÿííûé_ãðàäèåíò_62-5);}.cls-50{fill:url(#Áåçûìÿííûé_ãðàäèåíò_60-7);}.cls-51{fill:url(#Áåçûìÿííûé_ãðàäèåíò_62-6);}.cls-52{fill:url(#Áåçûìÿííûé_ãðàäèåíò_61-18);}.cls-53{fill:url(#Áåçûìÿííûé_ãðàäèåíò_61-19);}.cls-54{fill:url(#Áåçûìÿííûé_ãðàäèåíò_61-20);}.cls-55{fill:url(#Áåçûìÿííûé_ãðàäèåíò_61-21);}.cls-56{fill:url(#Áåçûìÿííûé_ãðàäèåíò_61-22);}.cls-57{fill:url(#Áåçûìÿííûé_ãðàäèåíò_61-23);}.cls-58{fill:url(#Áåçûìÿííûé_ãðàäèåíò_61-24);}.cls-59{fill:url(#Áåçûìÿííûé_ãðàäèåíò_61-25);}.cls-60{fill:url(#Áåçûìÿííûé_ãðàäèåíò_60-8);}.cls-61{fill:url(#Áåçûìÿííûé_ãðàäèåíò_62-7);}.cls-62{fill:url(#Áåçûìÿííûé_ãðàäèåíò_60-9);}.cls-63{fill:url(#Áåçûìÿííûé_ãðàäèåíò_62-8);}.cls-64{fill:url(#Áåçûìÿííûé_ãðàäèåíò_61-26);}.cls-65{fill:url(#Áåçûìÿííûé_ãðàäèåíò_61-27);}.cls-66{fill:url(#Áåçûìÿííûé_ãðàäèåíò_61-28);}.cls-67{fill:url(#Áåçûìÿííûé_ãðàäèåíò_61-29);}.cls-68{fill:url(#Áåçûìÿííûé_ãðàäèåíò_61-30);}.cls-69{fill:url(#Áåçûìÿííûé_ãðàäèåíò_61-31);}.cls-70{fill:url(#Áåçûìÿííûé_ãðàäèåíò_61-32);}.cls-71{fill:url(#Áåçûìÿííûé_ãðàäèåíò_61-33);}</style><linearGradient id="Áåçûìÿííûé_ãðàäèåíò_60" x1="-770.33" y1="0.22" x2="-762.05" y2="14.56" gradientTransform="matrix(-1, 0, 0, 1, -761.63, 0)" gradientUnits="userSpaceOnUse"><stop offset="0.01" stop-color="#fcd84a"/><stop offset="0.01" stop-color="#fcdd4f"/><stop offset="0.02" stop-color="#fcf162"/><stop offset="0.16" stop-color="#fcf263"/><stop offset="0.24" stop-color="#fcec5d"/><stop offset="0.35" stop-color="#fcdb4c"/><stop offset="0.37" stop-color="#fcd748"/><stop offset="0.38" stop-color="#edbe30"/><stop offset="0.78" stop-color="#e7b82a"/><stop offset="0.78" stop-color="#e5ad21"/><stop offset="0.79" stop-color="#e0970f"/><stop offset="0.86" stop-color="#cb8007"/><stop offset="0.94" stop-color="#be7202"/><stop offset="1" stop-color="#ba6d00"/></linearGradient><linearGradient id="Áåçûìÿííûé_ãðàäèåíò_62" x1="-786.2" y1="10.69" x2="-779.1" y2="22.99" gradientTransform="matrix(-1, 0, 0, 1, -761.63, 0)" gradientUnits="userSpaceOnUse"><stop offset="0.01" stop-color="#f9ca3b"/><stop offset="0.01" stop-color="#facf40"/><stop offset="0.02" stop-color="#fce254"/><stop offset="0.16" stop-color="#fce355"/><stop offset="0.24" stop-color="#fbdd4f"/><stop offset="0.34" stop-color="#f8cd3e"/><stop offset="0.37" stop-color="#f7c839"/><stop offset="0.38" stop-color="#deaf22"/><stop offset="0.78" stop-color="#d8a01c"/><stop offset="0.78" stop-color="#d69e16"/><stop offset="0.79" stop-color="#ce9500"/><stop offset="0.79" stop-color="#cc9200"/><stop offset="0.87" stop-color="#ba7b00"/><stop offset="0.94" stop-color="#af6d00"/><stop offset="1" stop-color="#ab6800"/></linearGradient><linearGradient id="Áåçûìÿííûé_ãðàäèåíò_60-2" x1="-801.72" y1="18.31" x2="-793.45" y2="32.64" xlink:href="#Áåçûìÿííûé_ãðàäèåíò_60"/><linearGradient id="Áåçûìÿííûé_ãðàäèåíò_62-2" x1="-798.11" y1="31.32" x2="-802.84" y2="22.49" xlink:href="#Áåçûìÿííûé_ãðàäèåíò_62"/><linearGradient id="Áåçûìÿííûé_ãðàäèåíò_61" x1="-797.94" y1="22.85" x2="-796.99" y2="24.49" gradientTransform="matrix(-1, 0, 0, 1, -761.63, 0)" gradientUnits="userSpaceOnUse"><stop offset="0.01" stop-color="#fcd84a"/><stop offset="0.01" stop-color="#fcdd4f"/><stop offset="0.02" stop-color="#fcf162"/><stop offset="0.16" stop-color="#fcf263"/><stop offset="0.24" stop-color="#fcec5d"/><stop offset="0.35" stop-color="#fcdb4c"/><stop offset="0.37" stop-color="#fcd748"/><stop offset="0.38" stop-color="#edbe30"/><stop offset="0.78" stop-color="#e7b82a"/><stop offset="0.78" stop-color="#deb022"/><stop offset="0.79" stop-color="#c89a0d"/><stop offset="0.88" stop-color="#bf9104"/><stop offset="1" stop-color="#ba8c00"/></linearGradient><linearGradient id="Áåçûìÿííûé_ãðàäèåíò_61-2" x1="-795.95" y1="27.13" x2="-795" y2="28.77" xlink:href="#Áåçûìÿííûé_ãðàäèåíò_61"/><linearGradient id="Áåçûìÿííûé_ãðàäèåíò_61-3" x1="-796.5" y1="31.75" x2="-795.55" y2="33.39" xlink:href="#Áåçûìÿííûé_ãðàäèåíò_61"/><linearGradient id="Áåçûìÿííûé_ãðàäèåíò_61-4" x1="-803.32" y1="29.18" x2="-802.38" y2="30.82" xlink:href="#Áåçûìÿííûé_ãðàäèåíò_61"/><linearGradient id="Áåçûìÿííûé_ãðàäèåíò_61-5" x1="-805.33" y1="25.15" x2="-804.39" y2="26.79" xlink:href="#Áåçûìÿííûé_ãðàäèåíò_61"/><linearGradient id="Áåçûìÿííûé_ãðàäèåíò_61-6" x1="-805.2" y1="20.47" x2="-804.25" y2="22.11" xlink:href="#Áåçûìÿííûé_ãðàäèåíò_61"/><linearGradient id="Áåçûìÿííûé_ãðàäèåíò_61-7" x1="-799.91" y1="32.15" x2="-798.97" y2="33.79" xlink:href="#Áåçûìÿííûé_ãðàäèåíò_61"/><linearGradient id="Áåçûìÿííûé_ãðàäèåíò_61-8" x1="-801.28" y1="19.79" x2="-800.33" y2="21.43" xlink:href="#Áåçûìÿííûé_ãðàäèåíò_61"/><linearGradient id="Áåçûìÿííûé_ãðàäèåíò_60-3" x1="-803.38" y1="19.2" x2="-795.11" y2="33.54" xlink:href="#Áåçûìÿííûé_ãðàäèåíò_60"/><linearGradient id="Áåçûìÿííûé_ãðàäèåíò_62-3" x1="-819.26" y1="29.67" x2="-812.16" y2="41.97" xlink:href="#Áåçûìÿííûé_ãðàäèåíò_62"/><linearGradient id="Áåçûìÿííûé_ãðàäèåíò_60-4" x1="-834.78" y1="37.29" x2="-826.5" y2="51.63" xlink:href="#Áåçûìÿííûé_ãðàäèåíò_60"/><linearGradient id="Áåçûìÿííûé_ãðàäèåíò_62-4" x1="-831.17" y1="50.3" x2="-835.9" y2="41.47" xlink:href="#Áåçûìÿííûé_ãðàäèåíò_62"/><linearGradient id="Áåçûìÿííûé_ãðàäèåíò_61-9" x1="-830.99" y1="41.83" x2="-830.05" y2="43.47" xlink:href="#Áåçûìÿííûé_ãðàäèåíò_61"/><linearGradient id="Áåçûìÿííûé_ãðàäèåíò_61-10" x1="-829" y1="46.11" x2="-828.06" y2="47.75" xlink:href="#Áåçûìÿííûé_ãðàäèåíò_61"/><linearGradient id="Áåçûìÿííûé_ãðàäèåíò_61-11" x1="-829.56" y1="50.73" x2="-828.61" y2="52.37" xlink:href="#Áåçûìÿííûé_ãðàäèåíò_61"/><linearGradient id="Áåçûìÿííûé_ãðàäèåíò_61-12" x1="-836.38" y1="48.16" x2="-835.43" y2="49.8" xlink:href="#Áåçûìÿííûé_ãðàäèåíò_61"/><linearGradient id="Áåçûìÿííûé_ãðàäèåíò_61-13" x1="-838.39" y1="44.14" x2="-837.44" y2="45.78" xlink:href="#Áåçûìÿííûé_ãðàäèåíò_61"/><linearGradient id="Áåçûìÿííûé_ãðàäèåíò_61-14" x1="-838.25" y1="39.45" x2="-837.31" y2="41.09" xlink:href="#Áåçûìÿííûé_ãðàäèåíò_61"/><linearGradient id="Áåçûìÿííûé_ãðàäèåíò_61-15" x1="-832.97" y1="51.13" x2="-832.02" y2="52.77" xlink:href="#Áåçûìÿííûé_ãðàäèåíò_61"/><linearGradient id="Áåçûìÿííûé_ãðàäèåíò_61-16" x1="-834.34" y1="38.78" x2="-833.39" y2="40.42" xlink:href="#Áåçûìÿííûé_ãðàäèåíò_61"/><linearGradient id="Áåçûìÿííûé_ãðàäèåíò_60-5" x1="-841.57" y1="54.29" x2="-833.29" y2="68.63" gradientTransform="matrix(-1, 0.01, 0.01, 1, -767.11, -8.3)" xlink:href="#Áåçûìÿííûé_ãðàäèåíò_60"/><linearGradient id="Áåçûìÿííûé_ãðàäèåíò_1113" x1="-750.82" y1="54.23" x2="-757.66" y2="76.95" gradientTransform="matrix(-1, 0, 0, 1, -670.49, 0)" gradientUnits="userSpaceOnUse"><stop offset="0.06" stop-color="#f8c93e"/><stop offset="0.99" stop-color="#a60"/></linearGradient><linearGradient id="Áåçûìÿííûé_ãðàäèåíò_1114" x1="-758.24" y1="73.25" x2="-747.23" y2="49.98" gradientTransform="matrix(-1, 0, 0, 1, -670.49, 0)" gradientUnits="userSpaceOnUse"><stop offset="0.06" stop-color="#dcac25"/><stop offset="0.99" stop-color="#fae159"/></linearGradient><linearGradient id="Áåçûìÿííûé_ãðàäèåíò_1114-2" x1="-748.86" y1="52.28" x2="-749.23" y2="60.92" xlink:href="#Áåçûìÿííûé_ãðàäèåíò_1114"/><linearGradient id="Áåçûìÿííûé_ãðàäèåíò_1113-2" x1="-741.96" y1="65.19" x2="-744.76" y2="53.01" xlink:href="#Áåçûìÿííûé_ãðàäèåíò_1113"/><linearGradient id="Áåçûìÿííûé_ãðàäèåíò_1112" x1="145.34" y1="-706.1" x2="153.62" y2="-691.76" gradientTransform="matrix(0.5, -0.87, -0.87, -0.5, -604.59, -150.51)" gradientUnits="userSpaceOnUse"><stop offset="0" stop-color="#ba6d00"/><stop offset="0.06" stop-color="#be7202"/><stop offset="0.14" stop-color="#cb8007"/><stop offset="0.21" stop-color="#e0970f"/><stop offset="0.22" stop-color="#e5ad21"/><stop offset="0.22" stop-color="#e7b82a"/><stop offset="0.62" stop-color="#edbe30"/><stop offset="0.63" stop-color="#fcd748"/><stop offset="0.65" stop-color="#fcdb4c"/><stop offset="0.76" stop-color="#fcec5d"/><stop offset="0.84" stop-color="#fcf263"/><stop offset="0.98" stop-color="#fcf162"/><stop offset="0.99" stop-color="#fcdd4f"/><stop offset="0.99" stop-color="#fcd84a"/></linearGradient><linearGradient id="Áåçûìÿííûé_ãðàäèåíò_3632" x1="148.95" y1="-693.09" x2="144.22" y2="-701.92" gradientTransform="matrix(0.5, -0.87, -0.87, -0.5, -604.59, -150.51)" gradientUnits="userSpaceOnUse"><stop offset="0" stop-color="#ab6800"/><stop offset="0.06" stop-color="#af6d00"/><stop offset="0.13" stop-color="#ba7b00"/><stop offset="0.21" stop-color="#cc9200"/><stop offset="0.21" stop-color="#ce9500"/><stop offset="0.22" stop-color="#d69e16"/><stop offset="0.22" stop-color="#d8a01c"/><stop offset="0.62" stop-color="#deaf22"/><stop offset="0.63" stop-color="#f7c839"/><stop offset="0.66" stop-color="#f8cd3e"/><stop offset="0.76" stop-color="#fbdd4f"/><stop offset="0.84" stop-color="#fce355"/><stop offset="0.98" stop-color="#fce254"/><stop offset="0.99" stop-color="#facf40"/><stop offset="0.99" stop-color="#f9ca3b"/></linearGradient><linearGradient id="Áåçûìÿííûé_ãðàäèåíò_1110" x1="149.13" y1="-701.56" x2="150.07" y2="-699.92" gradientTransform="matrix(0.5, -0.87, -0.87, -0.5, -604.59, -150.51)" gradientUnits="userSpaceOnUse"><stop offset="0" stop-color="#ba8c00"/><stop offset="0.12" stop-color="#bf9104"/><stop offset="0.21" stop-color="#c89a0d"/><stop offset="0.22" stop-color="#deb022"/><stop offset="0.22" stop-color="#e7b82a"/><stop offset="0.62" stop-color="#edbe30"/><stop offset="0.63" stop-color="#fcd748"/><stop offset="0.65" stop-color="#fcdb4c"/><stop offset="0.76" stop-color="#fcec5d"/><stop offset="0.84" stop-color="#fcf263"/><stop offset="0.98" stop-color="#fcf162"/><stop offset="0.99" stop-color="#fcdd4f"/><stop offset="0.99" stop-color="#fcd84a"/></linearGradient><linearGradient id="Áåçûìÿííûé_ãðàäèåíò_1110-2" x1="151.11" y1="-697.28" x2="152.06" y2="-695.64" xlink:href="#Áåçûìÿííûé_ãðàäèåíò_1110"/><linearGradient id="Áåçûìÿííûé_ãðàäèåíò_1110-3" x1="150.56" y1="-692.66" x2="151.51" y2="-691.02" xlink:href="#Áåçûìÿííûé_ãðàäèåíò_1110"/><linearGradient id="Áåçûìÿííûé_ãðàäèåíò_1110-4" x1="143.74" y1="-695.23" x2="144.69" y2="-693.59" xlink:href="#Áåçûìÿííûé_ãðàäèåíò_1110"/><linearGradient id="Áåçûìÿííûé_ãðàäèåíò_61-17" x1="141.73" y1="-699.25" x2="142.68" y2="-697.61" gradientTransform="matrix(0.5, -0.87, -0.87, -0.5, -604.59, -150.51)" xlink:href="#Áåçûìÿííûé_ãðàäèåíò_61"/><linearGradient id="Áåçûìÿííûé_ãðàäèåíò_1110-5" x1="141.86" y1="-703.94" x2="142.81" y2="-702.3" xlink:href="#Áåçûìÿííûé_ãðàäèåíò_1110"/><linearGradient id="Áåçûìÿííûé_ãðàäèåíò_1110-6" x1="147.15" y1="-692.26" x2="148.1" y2="-690.62" xlink:href="#Áåçûìÿííûé_ãðàäèåíò_1110"/><linearGradient id="Áåçûìÿííûé_ãðàäèåíò_1110-7" x1="145.78" y1="-704.62" x2="146.73" y2="-702.97" xlink:href="#Áåçûìÿííûé_ãðàäèåíò_1110"/><linearGradient id="Áåçûìÿííûé_ãðàäèåíò_60-6" x1="-19.43" y1="62.97" x2="-11.15" y2="77.31" gradientTransform="translate(91.14)" xlink:href="#Áåçûìÿííûé_ãðàäèåíò_60"/><linearGradient id="Áåçûìÿííûé_ãðàäèåíò_62-5" x1="-35.3" y1="73.44" x2="-28.2" y2="85.74" gradientTransform="translate(91.14)" xlink:href="#Áåçûìÿííûé_ãðàäèåíò_62"/><linearGradient id="Áåçûìÿííûé_ãðàäèåíò_60-7" x1="-50.82" y1="81.06" x2="-42.54" y2="95.39" gradientTransform="translate(91.14)" xlink:href="#Áåçûìÿííûé_ãðàäèåíò_60"/><linearGradient id="Áåçûìÿííûé_ãðàäèåíò_62-6" x1="-47.21" y1="94.07" x2="-51.94" y2="85.24" gradientTransform="translate(91.14)" xlink:href="#Áåçûìÿííûé_ãðàäèåíò_62"/><linearGradient id="Áåçûìÿííûé_ãðàäèåíò_61-18" x1="-47.03" y1="85.6" x2="-46.09" y2="87.24" gradientTransform="translate(91.14)" xlink:href="#Áåçûìÿííûé_ãðàäèåíò_61"/><linearGradient id="Áåçûìÿííûé_ãðàäèåíò_61-19" x1="-45.05" y1="89.88" x2="-44.1" y2="91.52" gradientTransform="translate(91.14)" xlink:href="#Áåçûìÿííûé_ãðàäèåíò_61"/><linearGradient id="Áåçûìÿííûé_ãðàäèåíò_61-20" x1="-45.6" y1="94.5" x2="-44.65" y2="96.14" gradientTransform="translate(91.14)" xlink:href="#Áåçûìÿííûé_ãðàäèåíò_61"/><linearGradient id="Áåçûìÿííûé_ãðàäèåíò_61-21" x1="-52.42" y1="91.93" x2="-51.47" y2="93.57" gradientTransform="translate(91.14)" xlink:href="#Áåçûìÿííûé_ãðàäèåíò_61"/><linearGradient id="Áåçûìÿííûé_ãðàäèåíò_61-22" x1="-54.43" y1="87.9" x2="-53.48" y2="89.54" gradientTransform="translate(91.14)" xlink:href="#Áåçûìÿííûé_ãðàäèåíò_61"/><linearGradient id="Áåçûìÿííûé_ãðàäèåíò_61-23" x1="-54.3" y1="83.22" x2="-53.35" y2="84.86" gradientTransform="translate(91.14)" xlink:href="#Áåçûìÿííûé_ãðàäèåíò_61"/><linearGradient id="Áåçûìÿííûé_ãðàäèåíò_61-24" x1="-49.01" y1="94.9" x2="-48.06" y2="96.54" gradientTransform="translate(91.14)" xlink:href="#Áåçûìÿííûé_ãðàäèåíò_61"/><linearGradient id="Áåçûìÿííûé_ãðàäèåíò_61-25" x1="-50.38" y1="82.54" x2="-49.43" y2="84.18" gradientTransform="translate(91.14)" xlink:href="#Áåçûìÿííûé_ãðàäèåíò_61"/><linearGradient id="Áåçûìÿííûé_ãðàäèåíò_60-8" x1="-50.7" y1="81.43" x2="-42.42" y2="95.77" gradientTransform="translate(91.14)" xlink:href="#Áåçûìÿííûé_ãðàäèåíò_60"/><linearGradient id="Áåçûìÿííûé_ãðàäèåíò_62-7" x1="-66.57" y1="91.9" x2="-59.47" y2="104.21" gradientTransform="translate(91.14)" xlink:href="#Áåçûìÿííûé_ãðàäèåíò_62"/><linearGradient id="Áåçûìÿííûé_ãðàäèåíò_60-9" x1="-82.09" y1="99.52" x2="-73.82" y2="113.86" gradientTransform="translate(91.14)" xlink:href="#Áåçûìÿííûé_ãðàäèåíò_60"/><linearGradient id="Áåçûìÿííûé_ãðàäèåíò_62-8" x1="-78.48" y1="112.54" x2="-83.21" y2="103.71" gradientTransform="translate(91.14)" xlink:href="#Áåçûìÿííûé_ãðàäèåíò_62"/><linearGradient id="Áåçûìÿííûé_ãðàäèåíò_61-26" x1="-78.31" y1="104.06" x2="-77.36" y2="105.7" gradientTransform="translate(91.14)" xlink:href="#Áåçûìÿííûé_ãðàäèåíò_61"/><linearGradient id="Áåçûìÿííûé_ãðàäèåíò_61-27" x1="-76.32" y1="108.34" x2="-75.37" y2="109.98" gradientTransform="translate(91.14)" xlink:href="#Áåçûìÿííûé_ãðàäèåíò_61"/><linearGradient id="Áåçûìÿííûé_ãðàäèåíò_61-28" x1="-76.87" y1="112.96" x2="-75.92" y2="114.6" gradientTransform="translate(91.14)" xlink:href="#Áåçûìÿííûé_ãðàäèåíò_61"/><linearGradient id="Áåçûìÿííûé_ãðàäèåíò_61-29" x1="-83.69" y1="110.4" x2="-82.75" y2="112.04" gradientTransform="translate(91.14)" xlink:href="#Áåçûìÿííûé_ãðàäèåíò_61"/><linearGradient id="Áåçûìÿííûé_ãðàäèåíò_61-30" x1="-85.7" y1="106.37" x2="-84.76" y2="108.01" gradientTransform="translate(91.14)" xlink:href="#Áåçûìÿííûé_ãðàäèåíò_61"/><linearGradient id="Áåçûìÿííûé_ãðàäèåíò_61-31" x1="-85.57" y1="101.68" x2="-84.62" y2="103.32" gradientTransform="translate(91.14)" xlink:href="#Áåçûìÿííûé_ãðàäèåíò_61"/><linearGradient id="Áåçûìÿííûé_ãðàäèåíò_61-32" x1="-80.28" y1="113.37" x2="-79.34" y2="115.01" gradientTransform="translate(91.14)" xlink:href="#Áåçûìÿííûé_ãðàäèåíò_61"/><linearGradient id="Áåçûìÿííûé_ãðàäèåíò_61-33" x1="-81.65" y1="101.01" x2="-80.7" y2="102.65" gradientTransform="translate(91.14)" xlink:href="#Áåçûìÿííûé_ãðàäèåíò_61"/></defs><title>rør_02</title><g class="cls-1"><g id="Layer_2" data-name="Layer 2"><g id="Layer_1-2" data-name="Layer 1"><path class="cls-2" d="M0,11.55A13.69,13.69,0,0,1,6.2.85c1.72-1,3.27-1.09,4.39-.44h0L12,1.25,2.7,16.05l-.82-.49C.72,14.94,0,13.55,0,11.55Z"/><ellipse class="cls-3" cx="7.48" cy="8.76" rx="8.74" ry="5.05" transform="translate(-3.86 10.8) rotate(-59.69)"/><path class="cls-4" d="M2.69,12.1A11.7,11.7,0,0,1,8,2.92a3.77,3.77,0,0,1,3.77-.38h0l30,17.32L34.13,32.71,4.3,15.54A3.67,3.67,0,0,1,2.69,12.1Z"/><ellipse class="cls-5" cx="38.24" cy="26.45" rx="7.5" ry="4.33" transform="translate(-3.9 46.11) rotate(-59.69)"/><path class="cls-6" d="M31.4,29.63a13.64,13.64,0,0,1,6.2-10.69c1.71-1,3.27-1.09,4.39-.44h0l1.36.84L34.1,34.14l-.83-.49C32.12,33,31.4,31.63,31.4,29.63Z"/><path class="cls-3" d="M32.68,30.43c0,3.93,2.77,5.51,6.2,3.53a13.65,13.65,0,0,0,6.2-10.69c0-3.93-2.78-5.51-6.2-3.54A13.66,13.66,0,0,0,32.68,30.43Z"/><path class="cls-7" d="M36.63,32.13a3.53,3.53,0,0,0,1.68-.54A9.9,9.9,0,0,0,42.73,24c0-.72-.15-2.39-1.61-2.39a3.47,3.47,0,0,0-1.67.53A9.93,9.93,0,0,0,35,29.74C35,30.45,35.18,32.13,36.63,32.13Z"/><path class="cls-8" d="M35,29.74a9.93,9.93,0,0,1,4.43-7.64,5.16,5.16,0,0,1,.53-.26c1.4.27,1.57,1.84,1.57,2.56,0,2.64-2,5.91-4.46,7.68a2.49,2.49,0,0,1-.46.05C35.18,32.13,35,30.45,35,29.74Z"/><path class="cls-9" d="M35.57,24.63a.82.82,0,0,0,.34.15.5.5,0,0,0,.39-.09A1.55,1.55,0,0,0,37,23.47a.67.67,0,0,0-.95-.57A8.53,8.53,0,0,0,35.57,24.63Z"/><path class="cls-10" d="M35.31,24.15A1.59,1.59,0,0,1,36,22.92a.51.51,0,0,1,.5-.05h0l.16.1-1.06,1.69-.09-.06A.47.47,0,0,1,35.31,24.15Z"/><path class="cls-11" d="M35.46,24.24c0,.45.32.63.71.4a1.57,1.57,0,0,0,.71-1.22c0-.45-.32-.63-.71-.41A1.59,1.59,0,0,0,35.46,24.24Z"/><path class="cls-9" d="M33.58,28.91a.82.82,0,0,0,.34.15.5.5,0,0,0,.39-.09A1.53,1.53,0,0,0,35,27.75a.67.67,0,0,0-1-.57A8.53,8.53,0,0,0,33.58,28.91Z"/><path class="cls-12" d="M33.33,28.43A1.57,1.57,0,0,1,34,27.2a.53.53,0,0,1,.51-.05h0l.15.1-1.06,1.69-.09-.06A.48.48,0,0,1,33.33,28.43Z"/><path class="cls-11" d="M33.47,28.52c0,.45.32.63.71.4a1.57,1.57,0,0,0,.71-1.22c0-.45-.32-.63-.71-.41A1.59,1.59,0,0,0,33.47,28.52Z"/><path class="cls-9" d="M34.13,33.53a.82.82,0,0,0,.34.15.5.5,0,0,0,.39-.09,1.53,1.53,0,0,0,.71-1.22.67.67,0,0,0-1-.57A8.53,8.53,0,0,0,34.13,33.53Z"/><path class="cls-13" d="M33.88,33a1.57,1.57,0,0,1,.7-1.22.53.53,0,0,1,.51-.05h0l.15.1-1.06,1.69-.09-.06A.49.49,0,0,1,33.88,33Z"/><path class="cls-11" d="M34,33.14c0,.44.32.63.71.4a1.57,1.57,0,0,0,.71-1.22c0-.45-.32-.63-.71-.41A1.59,1.59,0,0,0,34,33.14Z"/><path class="cls-9" d="M41,31a.83.83,0,0,0,.33.16.63.63,0,0,0,.4-.09,1.59,1.59,0,0,0,.71-1.23.67.67,0,0,0-1-.56A8.52,8.52,0,0,0,41,31Z"/><path class="cls-14" d="M40.7,30.48a1.59,1.59,0,0,1,.71-1.23.51.51,0,0,1,.5-.05h0l.16.1L41,31l-.1,0A.49.49,0,0,1,40.7,30.48Z"/><path class="cls-11" d="M40.85,30.57c0,.45.31.63.71.4a1.54,1.54,0,0,0,.7-1.22c0-.45-.31-.63-.7-.4A1.53,1.53,0,0,0,40.85,30.57Z"/><path class="cls-9" d="M43,26.93a.83.83,0,0,0,.33.16.63.63,0,0,0,.4-.09,1.57,1.57,0,0,0,.71-1.22.67.67,0,0,0-1-.57A8.52,8.52,0,0,0,43,26.93Z"/><path class="cls-15" d="M42.71,26.45a1.55,1.55,0,0,1,.71-1.22.47.47,0,0,1,.5-.05h0l.16.09L43,27l-.1-.06A.49.49,0,0,1,42.71,26.45Z"/><path class="cls-11" d="M42.86,26.54c0,.45.31.63.71.41a1.57,1.57,0,0,0,.7-1.23c0-.45-.31-.63-.7-.4A1.53,1.53,0,0,0,42.86,26.54Z"/><path class="cls-9" d="M42.83,22.25a1,1,0,0,0,.34.15.55.55,0,0,0,.39-.09,1.53,1.53,0,0,0,.71-1.22.67.67,0,0,0-1-.57A8.53,8.53,0,0,0,42.83,22.25Z"/><path class="cls-16" d="M42.57,21.76a1.57,1.57,0,0,1,.71-1.22.53.53,0,0,1,.51-.05h0l.15.1-1.06,1.69-.09-.06A.49.49,0,0,1,42.57,21.76Z"/><path class="cls-11" d="M42.72,21.85c0,.45.32.63.71.41A1.58,1.58,0,0,0,44.14,21c0-.45-.32-.64-.71-.41A1.57,1.57,0,0,0,42.72,21.85Z"/><path class="cls-9" d="M37.55,33.93a.83.83,0,0,0,.33.16.63.63,0,0,0,.4-.09A1.59,1.59,0,0,0,39,32.77a.67.67,0,0,0-1-.56A8.52,8.52,0,0,0,37.55,33.93Z"/><path class="cls-17" d="M37.29,33.45A1.55,1.55,0,0,1,38,32.23a.5.5,0,0,1,.5-.06h0l.16.1L37.6,34l-.1-.05A.49.49,0,0,1,37.29,33.45Z"/><path class="cls-11" d="M37.44,33.54c0,.45.31.63.71.4a1.55,1.55,0,0,0,.71-1.22c0-.45-.32-.63-.71-.4A1.53,1.53,0,0,0,37.44,33.54Z"/><path class="cls-9" d="M38.91,21.57a.91.91,0,0,0,.34.16.64.64,0,0,0,.4-.09,1.58,1.58,0,0,0,.71-1.22.68.68,0,0,0-1-.57A8.39,8.39,0,0,0,38.91,21.57Z"/><path class="cls-18" d="M38.66,21.09a1.55,1.55,0,0,1,.71-1.22.47.47,0,0,1,.5-.05h0l.16.09L39,21.61l-.1-.06A.49.49,0,0,1,38.66,21.09Z"/><path class="cls-11" d="M38.8,21.18c0,.45.32.63.71.41a1.56,1.56,0,0,0,.71-1.23c0-.45-.31-.63-.71-.4A1.55,1.55,0,0,0,38.8,21.18Z"/><path class="cls-19" d="M33.06,30.53a13.66,13.66,0,0,1,6.2-10.7c1.71-1,3.27-1.08,4.39-.44h0l1.36.84L35.76,35l-.83-.49C33.78,33.92,33.06,32.53,33.06,30.53Z"/><path class="cls-3" d="M34.34,31.32c0,3.93,2.77,5.52,6.2,3.54a13.69,13.69,0,0,0,6.2-10.7c0-3.93-2.78-5.51-6.2-3.53A13.63,13.63,0,0,0,34.34,31.32Z"/><path class="cls-20" d="M35.75,31.08a11.73,11.73,0,0,1,5.32-9.18,3.77,3.77,0,0,1,3.77-.38h0l30,17.32L67.19,51.69,37.36,34.52C36.36,34,35.75,32.79,35.75,31.08Z"/><ellipse class="cls-5" cx="71.29" cy="45.43" rx="7.5" ry="4.33" transform="translate(-3.91 84.05) rotate(-59.69)"/><path class="cls-21" d="M64.45,48.62a13.69,13.69,0,0,1,6.2-10.7c1.72-1,3.27-1.09,4.4-.44h0l1.36.84-9.26,14.8-.82-.49C65.17,52,64.45,50.61,64.45,48.62Z"/><path class="cls-3" d="M65.74,49.41c0,3.93,2.77,5.51,6.2,3.54a13.69,13.69,0,0,0,6.2-10.7c0-3.93-2.78-5.51-6.2-3.54A13.66,13.66,0,0,0,65.74,49.41Z"/><path class="cls-22" d="M69.69,51.11a3.55,3.55,0,0,0,1.67-.53,9.94,9.94,0,0,0,4.43-7.64c0-.72-.16-2.39-1.61-2.39a3.55,3.55,0,0,0-1.67.53,9.94,9.94,0,0,0-4.43,7.64C68.08,49.44,68.24,51.11,69.69,51.11Z"/><path class="cls-8" d="M68.08,48.72a9.94,9.94,0,0,1,4.43-7.64,4.32,4.32,0,0,1,.53-.26c1.4.27,1.57,1.85,1.57,2.56,0,2.64-2,5.91-4.46,7.68a2.49,2.49,0,0,1-.46,0C68.24,51.11,68.08,49.44,68.08,48.72Z"/><path class="cls-9" d="M68.62,43.61a.91.91,0,0,0,.34.16.63.63,0,0,0,.4-.09,1.59,1.59,0,0,0,.71-1.23.68.68,0,0,0-1-.57A8.53,8.53,0,0,0,68.62,43.61Z"/><path class="cls-23" d="M68.37,43.13a1.59,1.59,0,0,1,.71-1.23.51.51,0,0,1,.5,0h0l.16.1-1.06,1.69-.1,0A.5.5,0,0,1,68.37,43.13Z"/><path class="cls-11" d="M68.52,43.22c0,.45.31.63.7.4a1.53,1.53,0,0,0,.71-1.22c0-.45-.31-.63-.71-.41A1.57,1.57,0,0,0,68.52,43.22Z"/><path class="cls-9" d="M66.64,47.89a.91.91,0,0,0,.34.16.61.61,0,0,0,.39-.09,1.59,1.59,0,0,0,.71-1.23.67.67,0,0,0-1-.57A8.53,8.53,0,0,0,66.64,47.89Z"/><path class="cls-24" d="M66.38,47.41a1.59,1.59,0,0,1,.71-1.23.51.51,0,0,1,.5,0h0l.16.1-1.06,1.69-.09-.05A.48.48,0,0,1,66.38,47.41Z"/><path class="cls-11" d="M66.53,47.5c0,.45.32.63.71.4A1.55,1.55,0,0,0,68,46.68c0-.45-.32-.63-.71-.41A1.59,1.59,0,0,0,66.53,47.5Z"/><path class="cls-9" d="M67.19,52.51a.82.82,0,0,0,.34.15.51.51,0,0,0,.39-.09,1.55,1.55,0,0,0,.71-1.22.67.67,0,0,0-.95-.57A8.53,8.53,0,0,0,67.19,52.51Z"/><path class="cls-25" d="M66.93,52a1.59,1.59,0,0,1,.71-1.23.51.51,0,0,1,.5,0h0l.16.1-1.06,1.69-.09,0A.5.5,0,0,1,66.93,52Z"/><path class="cls-11" d="M67.08,52.12c0,.45.32.63.71.4a1.55,1.55,0,0,0,.71-1.22c0-.45-.32-.63-.71-.41A1.59,1.59,0,0,0,67.08,52.12Z"/><path class="cls-9" d="M74,49.94a.91.91,0,0,0,.34.16.64.64,0,0,0,.4-.09,1.59,1.59,0,0,0,.71-1.23.68.68,0,0,0-1-.56A8.39,8.39,0,0,0,74,49.94Z"/><path class="cls-26" d="M73.76,49.46a1.53,1.53,0,0,1,.71-1.22.47.47,0,0,1,.5-.05h0l.15.09L74.07,50l-.1,0A.49.49,0,0,1,73.76,49.46Z"/><path class="cls-11" d="M73.9,49.55c0,.45.32.63.71.4a1.55,1.55,0,0,0,.71-1.22c0-.45-.32-.63-.71-.4A1.55,1.55,0,0,0,73.9,49.55Z"/><path class="cls-9" d="M76,45.92a1,1,0,0,0,.34.15.58.58,0,0,0,.4-.09,1.57,1.57,0,0,0,.71-1.22.68.68,0,0,0-1-.57A8.53,8.53,0,0,0,76,45.92Z"/><path class="cls-27" d="M75.77,45.43a1.53,1.53,0,0,1,.71-1.22.49.49,0,0,1,.5-.05h0l.15.09-1,1.7-.1-.06A.49.49,0,0,1,75.77,45.43Z"/><path class="cls-11" d="M75.91,45.52c0,.45.32.63.71.41a1.59,1.59,0,0,0,.71-1.23c0-.45-.32-.63-.71-.4A1.57,1.57,0,0,0,75.91,45.52Z"/><path class="cls-9" d="M75.89,41.23a.82.82,0,0,0,.33.15.52.52,0,0,0,.4-.09,1.55,1.55,0,0,0,.71-1.22.67.67,0,0,0-1-.57A8.53,8.53,0,0,0,75.89,41.23Z"/><path class="cls-28" d="M75.63,40.74a1.58,1.58,0,0,1,.71-1.22.51.51,0,0,1,.5-.05h0l.16.1-1.06,1.69-.09-.06A.47.47,0,0,1,75.63,40.74Z"/><path class="cls-11" d="M75.78,40.84c0,.44.32.63.71.4A1.57,1.57,0,0,0,77.2,40c0-.45-.32-.63-.71-.41A1.59,1.59,0,0,0,75.78,40.84Z"/><path class="cls-9" d="M70.6,52.91a.91.91,0,0,0,.34.16.64.64,0,0,0,.4-.09,1.58,1.58,0,0,0,.71-1.22.68.68,0,0,0-1-.57A8.39,8.39,0,0,0,70.6,52.91Z"/><path class="cls-29" d="M70.35,52.43a1.53,1.53,0,0,1,.71-1.22.47.47,0,0,1,.5-.05h0l.15.09-1,1.7-.1-.06A.49.49,0,0,1,70.35,52.43Z"/><path class="cls-11" d="M70.49,52.52c0,.45.32.63.71.41a1.59,1.59,0,0,0,.71-1.23c0-.45-.32-.63-.71-.4A1.55,1.55,0,0,0,70.49,52.52Z"/><path class="cls-9" d="M72,40.55a.91.91,0,0,0,.34.16.6.6,0,0,0,.39-.09,1.54,1.54,0,0,0,.71-1.22.67.67,0,0,0-1-.57A8.59,8.59,0,0,0,72,40.55Z"/><path class="cls-30" d="M71.71,40.07a1.55,1.55,0,0,1,.71-1.22.48.48,0,0,1,.51-.05h0l.15.09L72,40.59l-.09-.06A.49.49,0,0,1,71.71,40.07Z"/><path class="cls-11" d="M71.86,40.16c0,.45.32.63.71.41a1.59,1.59,0,0,0,.71-1.23c0-.45-.32-.63-.71-.4A1.55,1.55,0,0,0,71.86,40.16Z"/><path class="cls-31" d="M66.28,50.65a13.64,13.64,0,0,1,6.11-10.74c1.71-1,3.26-1.11,4.39-.48h0l1.37.83L69,55.14l-.83-.49C67,54,66.29,52.65,66.28,50.65Z"/><path class="cls-3" d="M67.57,51.44c0,3.93,2.82,5.49,6.23,3.48a13.67,13.67,0,0,0,6.11-10.74c0-3.93-2.82-5.49-6.23-3.49A13.68,13.68,0,0,0,67.57,51.44Z"/><path class="cls-32" d="M87.22,46.74,78,41.55a2.87,2.87,0,0,0-1.5-.34,4.93,4.93,0,0,0-2.27.75L74,42.1a9.89,9.89,0,0,0-2.22,2,12.64,12.64,0,0,0-2.61,5.29A8.59,8.59,0,0,0,69,51.18c0,1.72.64,2.91,1.64,3.43,0,0,.34.11,4.13,2.25a2.83,2.83,0,0,1,0,5l-2.31,1.25-2.31,1.25,4.22,7.45,3,5.19,0,0,.19.35,9.85-5.69A14.35,14.35,0,0,0,87.22,46.74Z"/><path class="cls-33" d="M86.41,47.82,75.57,41.71A4.51,4.51,0,0,0,74,42.1a9.89,9.89,0,0,0-2.22,2,12.64,12.64,0,0,0-2.61,5.29A8.59,8.59,0,0,0,69,51.18c0,1.72.64,2.91,1.64,3.43,0,0,.34.11,4.13,2.25a2.83,2.83,0,0,1,0,5l-2.31,1.25-2.31,1.25,4.22,7.45,2.36,4.08L86,70.39C95.07,65.08,95.57,53,86.41,47.82Z"/><path class="cls-34" d="M83.2,50.54,71.77,44.1a12.64,12.64,0,0,0-2.61,5.29A8.59,8.59,0,0,0,69,51.18c0,1.72.64,2.91,1.64,3.43,0,0,.34.11,4.13,2.25a2.83,2.83,0,0,1,0,5l-2.31,1.25-2.31,1.25,3.78,5.53,10.61-6.2C89.88,60.48,88.65,53.64,83.2,50.54Z"/><path class="cls-35" d="M74.36,52.29l-5.2-2.9A8.59,8.59,0,0,0,69,51.18c0,1.72.64,2.91,1.64,3.43,0,0,.34.11,4.13,2.25a2.83,2.83,0,0,1,0,5l-2.31,1.25,1.38.57,4-2.32C79.62,59.39,79.47,55,74.36,52.29Z"/><ellipse class="cls-5" cx="73.44" cy="71" rx="4.33" ry="7.5" transform="translate(-25.52 45.69) rotate(-29.69)"/><path class="cls-36" d="M74.1,63.48A13.67,13.67,0,0,1,80.26,74.2c0,2-.69,3.37-1.81,4h0L77,79,68.85,63.57l.84-.47C70.81,62.41,72.37,62.48,74.1,63.48Z"/><ellipse class="cls-37" cx="72.77" cy="71.35" rx="5.05" ry="8.74" transform="translate(-25.79 45.41) rotate(-29.69)"/><path class="cls-38" d="M69.32,66.77A3.52,3.52,0,0,0,69,68.48a9.88,9.88,0,0,0,4.4,7.65c.62.36,2.15,1.07,2.87-.19a3.45,3.45,0,0,0,.38-1.72,9.94,9.94,0,0,0-4.4-7.65C71.58,66.21,70.05,65.51,69.32,66.77Z"/><path class="cls-8" d="M71,66.09a10.24,10.24,0,0,0,4.16,6.21,4,4,0,0,0,1.27.48,10.09,10.09,0,0,0-4.23-6.21A4.15,4.15,0,0,0,71,66.09Z"/><path class="cls-9" d="M76.35,69.6a.86.86,0,0,0-.3.21.57.57,0,0,0-.12.39,1.54,1.54,0,0,0,.7,1.22.67.67,0,0,0,1-.54A8.26,8.26,0,0,0,76.35,69.6Z"/><path class="cls-39" d="M76.9,69.62a1.54,1.54,0,0,1,.7,1.22.49.49,0,0,1-.21.46h0l-.16.09-.93-1.76.09-.06A.48.48,0,0,1,76.9,69.62Z"/><path class="cls-40" d="M76.74,69.7c-.38-.23-.7,0-.7.41a1.6,1.6,0,0,0,.7,1.23c.39.22.71,0,.71-.42A1.55,1.55,0,0,0,76.74,69.7Z"/><path class="cls-9" d="M73.64,65.73a.89.89,0,0,0-.31.22.62.62,0,0,0-.12.39,1.55,1.55,0,0,0,.71,1.22.67.67,0,0,0,1-.54A8.69,8.69,0,0,0,73.64,65.73Z"/><path class="cls-41" d="M74.18,65.76A1.55,1.55,0,0,1,74.89,67a.49.49,0,0,1-.21.46h0l-.16.09-.94-1.77.1-.05A.47.47,0,0,1,74.18,65.76Z"/><path class="cls-40" d="M74,65.84c-.39-.23-.7,0-.7.41a1.54,1.54,0,0,0,.7,1.22c.39.23.71,0,.71-.41A1.55,1.55,0,0,0,74,65.84Z"/><path class="cls-9" d="M69.36,63.9a.9.9,0,0,0-.3.22.52.52,0,0,0-.12.38,1.54,1.54,0,0,0,.7,1.23.68.68,0,0,0,1-.54A8.69,8.69,0,0,0,69.36,63.9Z"/><path class="cls-42" d="M69.91,63.92a1.57,1.57,0,0,1,.7,1.23.53.53,0,0,1-.2.46h0l-.17.08-.93-1.76.09,0A.5.5,0,0,1,69.91,63.92Z"/><path class="cls-40" d="M69.76,64c-.39-.22-.71,0-.71.42a1.55,1.55,0,0,0,.71,1.22c.39.23.7,0,.7-.41A1.57,1.57,0,0,0,69.76,64Z"/><path class="cls-9" d="M68.17,71.09a.9.9,0,0,0-.3.22.57.57,0,0,0-.12.39,1.54,1.54,0,0,0,.7,1.22.67.67,0,0,0,1-.54A8.69,8.69,0,0,0,68.17,71.09Z"/><path class="cls-43" d="M68.72,71.11a1.57,1.57,0,0,1,.7,1.23.51.51,0,0,1-.2.46h0l-.17.09-.93-1.77.09-.05A.5.5,0,0,1,68.72,71.11Z"/><path class="cls-40" d="M68.57,71.2c-.39-.23-.71,0-.71.41a1.55,1.55,0,0,0,.71,1.22c.39.23.7,0,.7-.41A1.54,1.54,0,0,0,68.57,71.2Z"/><path class="cls-9" d="M70.66,74.85a1,1,0,0,0-.31.21.62.62,0,0,0-.12.39,1.59,1.59,0,0,0,.71,1.23.68.68,0,0,0,1-.54A8.72,8.72,0,0,0,70.66,74.85Z"/><path class="cls-44" d="M71.2,74.87a1.55,1.55,0,0,1,.71,1.23.51.51,0,0,1-.21.46h0l-.16.08-.94-1.76.1,0A.46.46,0,0,1,71.2,74.87Z"/><path class="cls-40" d="M71.05,75c-.39-.22-.7,0-.7.41a1.56,1.56,0,0,0,.7,1.23c.39.22.7,0,.7-.41A1.56,1.56,0,0,0,71.05,75Z"/><path class="cls-9" d="M74.78,77.08a1,1,0,0,0-.3.21.57.57,0,0,0-.12.39,1.54,1.54,0,0,0,.7,1.22.67.67,0,0,0,1-.54A8.26,8.26,0,0,0,74.78,77.08Z"/><path class="cls-45" d="M75.33,77.1a1.54,1.54,0,0,1,.7,1.22.51.51,0,0,1-.2.46h0l-.17.09-.93-1.76.09-.06A.48.48,0,0,1,75.33,77.1Z"/><path class="cls-40" d="M75.18,77.18c-.39-.23-.71,0-.71.41a1.59,1.59,0,0,0,.71,1.23c.39.22.7,0,.7-.42A1.54,1.54,0,0,0,75.18,77.18Z"/><path class="cls-9" d="M67.3,66.66a1,1,0,0,0-.3.21.62.62,0,0,0-.12.39,1.59,1.59,0,0,0,.71,1.23.67.67,0,0,0,1-.55A8.26,8.26,0,0,0,67.3,66.66Z"/><path class="cls-46" d="M67.85,66.68a1.55,1.55,0,0,1,.71,1.22.49.49,0,0,1-.21.46h0l-.16.09-.94-1.76.1-.06A.47.47,0,0,1,67.85,66.68Z"/><path class="cls-40" d="M67.7,66.76c-.39-.23-.71,0-.71.41a1.59,1.59,0,0,0,.71,1.23c.39.22.7,0,.7-.42A1.54,1.54,0,0,0,67.7,66.76Z"/><path class="cls-9" d="M77.32,74a1,1,0,0,0-.3.21.57.57,0,0,0-.12.39,1.59,1.59,0,0,0,.7,1.23.68.68,0,0,0,1-.54A8.69,8.69,0,0,0,77.32,74Z"/><path class="cls-47" d="M77.87,74a1.57,1.57,0,0,1,.71,1.23.51.51,0,0,1-.21.46h0l-.16.08-.94-1.76.1,0A.48.48,0,0,1,77.87,74Z"/><path class="cls-40" d="M77.72,74.12c-.39-.22-.71,0-.71.41a1.55,1.55,0,0,0,.71,1.23c.39.22.7,0,.7-.41A1.57,1.57,0,0,0,77.72,74.12Z"/><path class="cls-48" d="M80.41,74.3a13.66,13.66,0,0,0-6.2-10.7c-1.71-1-3.27-1.09-4.39-.44h0L68.46,64l9.25,14.8.83-.49C79.69,77.69,80.41,76.3,80.41,74.3Z"/><ellipse class="cls-3" cx="72.93" cy="71.51" rx="5.05" ry="8.74" transform="translate(-26.12 46.58) rotate(-30.31)"/><path class="cls-49" d="M77.72,74.85a11.7,11.7,0,0,0-5.32-9.18,3.74,3.74,0,0,0-3.77-.38h0l-30,17.32,7.67,12.85L76.11,78.29A3.65,3.65,0,0,0,77.72,74.85Z"/><ellipse class="cls-5" cx="42.18" cy="89.2" rx="4.33" ry="7.5" transform="matrix(0.86, -0.5, 0.5, 0.86, -39.25, 33.48)"/><path class="cls-50" d="M49,92.38a13.67,13.67,0,0,0-6.2-10.69c-1.72-1-3.27-1.09-4.39-.44h0l-1.37.84,9.26,14.8.82-.49C48.3,95.77,49,94.38,49,92.38Z"/><path class="cls-3" d="M47.74,93.18c0,3.93-2.78,5.51-6.2,3.53A13.64,13.64,0,0,1,35.33,86c0-3.93,2.78-5.51,6.21-3.54A13.69,13.69,0,0,1,47.74,93.18Z"/><path class="cls-51" d="M43.78,94.88a3.46,3.46,0,0,1-1.67-.54,9.91,9.91,0,0,1-4.43-7.63c0-.72.16-2.39,1.61-2.39a3.44,3.44,0,0,1,1.67.53,9.93,9.93,0,0,1,4.43,7.64C45.39,93.2,45.23,94.88,43.78,94.88Z"/><path class="cls-8" d="M45.39,92.49A9.93,9.93,0,0,0,41,84.85a5,5,0,0,0-.52-.26c-1.41.27-1.57,1.84-1.57,2.56,0,2.64,2,5.91,4.45,7.68a2.49,2.49,0,0,0,.46,0C45.23,94.88,45.39,93.2,45.39,92.49Z"/><path class="cls-9" d="M44.85,87.38a.82.82,0,0,1-.34.15.53.53,0,0,1-.4-.09,1.55,1.55,0,0,1-.71-1.22.68.68,0,0,1,1-.57A8.53,8.53,0,0,1,44.85,87.38Z"/><path class="cls-52" d="M45.1,86.9a1.59,1.59,0,0,0-.71-1.23.51.51,0,0,0-.5,0h0l-.16.1,1.06,1.69.1-.06A.48.48,0,0,0,45.1,86.9Z"/><path class="cls-11" d="M45,87c0,.45-.32.63-.71.4a1.54,1.54,0,0,1-.71-1.22c0-.45.31-.63.71-.41A1.59,1.59,0,0,1,45,87Z"/><path class="cls-9" d="M46.83,91.66a.82.82,0,0,1-.33.15.52.52,0,0,1-.4-.09,1.55,1.55,0,0,1-.71-1.22.67.67,0,0,1,1-.57A8.53,8.53,0,0,1,46.83,91.66Z"/><path class="cls-53" d="M47.09,91.17A1.58,1.58,0,0,0,46.38,90a.51.51,0,0,0-.5,0h0l-.16.1,1.06,1.69.09-.06A.47.47,0,0,0,47.09,91.17Z"/><path class="cls-11" d="M46.94,91.27c0,.45-.32.63-.71.4a1.57,1.57,0,0,1-.71-1.22c0-.45.32-.63.71-.41A1.59,1.59,0,0,1,46.94,91.27Z"/><path class="cls-9" d="M46.28,96.28a.82.82,0,0,1-.33.15.52.52,0,0,1-.4-.09,1.55,1.55,0,0,1-.71-1.22.67.67,0,0,1,.95-.57A8.53,8.53,0,0,1,46.28,96.28Z"/><path class="cls-54" d="M46.54,95.79a1.57,1.57,0,0,0-.71-1.22.51.51,0,0,0-.5,0h0l-.16.1,1.06,1.69.09-.06A.47.47,0,0,0,46.54,95.79Z"/><path class="cls-11" d="M46.39,95.89c0,.44-.32.63-.71.4A1.57,1.57,0,0,1,45,95.07c0-.45.32-.63.71-.41A1.59,1.59,0,0,1,46.39,95.89Z"/><path class="cls-9" d="M39.46,93.71a.91.91,0,0,1-.34.16.6.6,0,0,1-.39-.09A1.56,1.56,0,0,1,38,92.55.66.66,0,0,1,39,92,8.39,8.39,0,0,1,39.46,93.71Z"/><path class="cls-55" d="M39.71,93.23A1.57,1.57,0,0,0,39,92a.53.53,0,0,0-.51,0h0l-.15.1,1.06,1.69.09,0A.49.49,0,0,0,39.71,93.23Z"/><path class="cls-11" d="M39.57,93.32c0,.45-.32.63-.71.4a1.55,1.55,0,0,1-.71-1.22c0-.45.32-.63.71-.4A1.55,1.55,0,0,1,39.57,93.32Z"/><path class="cls-9" d="M37.45,89.68a.91.91,0,0,1-.34.16.6.6,0,0,1-.39-.09A1.54,1.54,0,0,1,36,88.53.67.67,0,0,1,37,88,8.39,8.39,0,0,1,37.45,89.68Z"/><path class="cls-56" d="M37.7,89.2A1.54,1.54,0,0,0,37,88a.48.48,0,0,0-.51,0h0l-.15.09,1.06,1.7.09-.06A.49.49,0,0,0,37.7,89.2Z"/><path class="cls-11" d="M37.56,89.29c0,.45-.32.63-.71.41a1.59,1.59,0,0,1-.71-1.23c0-.45.32-.63.71-.4A1.55,1.55,0,0,1,37.56,89.29Z"/><path class="cls-9" d="M37.58,85a.89.89,0,0,1-.33.15.57.57,0,0,1-.4-.09,1.55,1.55,0,0,1-.71-1.22.67.67,0,0,1,1-.57A8.66,8.66,0,0,1,37.58,85Z"/><path class="cls-57" d="M37.84,84.51a1.57,1.57,0,0,0-.71-1.22.51.51,0,0,0-.5-.05h0l-.16.1L37.53,85l.09-.06A.47.47,0,0,0,37.84,84.51Z"/><path class="cls-11" d="M37.69,84.6c0,.45-.31.63-.71.41a1.59,1.59,0,0,1-.71-1.23c0-.44.32-.63.71-.4A1.54,1.54,0,0,1,37.69,84.6Z"/><path class="cls-9" d="M42.87,96.68a.91.91,0,0,1-.34.16.64.64,0,0,1-.4-.09,1.57,1.57,0,0,1-.7-1.23.66.66,0,0,1,1-.56A8.39,8.39,0,0,1,42.87,96.68Z"/><path class="cls-58" d="M43.12,96.2A1.56,1.56,0,0,0,42.41,95a.51.51,0,0,0-.5,0h0l-.15.1,1.06,1.69.09,0A.49.49,0,0,0,43.12,96.2Z"/><path class="cls-11" d="M43,96.29c0,.45-.32.63-.71.4a1.55,1.55,0,0,1-.71-1.22c0-.45.32-.63.71-.4A1.55,1.55,0,0,1,43,96.29Z"/><path class="cls-9" d="M41.5,84.32a.91.91,0,0,1-.34.16.6.6,0,0,1-.39-.09,1.59,1.59,0,0,1-.71-1.23A.67.67,0,0,1,41,82.6,8.39,8.39,0,0,1,41.5,84.32Z"/><path class="cls-59" d="M41.76,83.84a1.55,1.55,0,0,0-.71-1.22.48.48,0,0,0-.51-.05h0l-.15.09,1.06,1.69.09,0A.49.49,0,0,0,41.76,83.84Z"/><path class="cls-11" d="M41.61,83.93c0,.45-.32.63-.71.4a1.55,1.55,0,0,1-.71-1.22c0-.45.32-.63.71-.4A1.55,1.55,0,0,1,41.61,83.93Z"/><path class="cls-60" d="M49.14,92.76a13.63,13.63,0,0,0-6.2-10.69c-1.72-1-3.27-1.09-4.39-.45h0l-1.36.85,9.25,14.8.82-.49C48.42,96.15,49.14,94.76,49.14,92.76Z"/><path class="cls-3" d="M47.86,93.56c0,3.93-2.78,5.51-6.2,3.53a13.64,13.64,0,0,1-6.2-10.69c0-3.93,2.77-5.52,6.2-3.54A13.69,13.69,0,0,1,47.86,93.56Z"/><path class="cls-61" d="M46.45,93.31a11.73,11.73,0,0,0-5.32-9.18,3.77,3.77,0,0,0-3.77-.38h0l-30,17.33L15,113.92,44.84,96.76A3.67,3.67,0,0,0,46.45,93.31Z"/><ellipse class="cls-5" cx="10.9" cy="107.67" rx="4.33" ry="7.5" transform="translate(-52.85 20.22) rotate(-30.31)"/><path class="cls-62" d="M17.75,110.85a13.67,13.67,0,0,0-6.21-10.7c-1.71-1-3.26-1.08-4.39-.44h0l-1.36.84L15,115.35l.83-.49C17,114.24,17.75,112.85,17.75,110.85Z"/><path class="cls-3" d="M16.46,111.64c0,3.93-2.77,5.52-6.2,3.54a13.69,13.69,0,0,1-6.2-10.7c0-3.93,2.78-5.51,6.2-3.53A13.64,13.64,0,0,1,16.46,111.64Z"/><path class="cls-63" d="M12.51,113.34a3.44,3.44,0,0,1-1.67-.53,9.92,9.92,0,0,1-4.43-7.63c0-.72.15-2.4,1.61-2.4a3.46,3.46,0,0,1,1.67.54A9.91,9.91,0,0,1,14.12,111C14.12,111.67,14,113.34,12.51,113.34Z"/><path class="cls-8" d="M14.12,111a9.91,9.91,0,0,0-4.43-7.63,5.31,5.31,0,0,0-.53-.27c-1.4.27-1.57,1.85-1.57,2.56,0,2.64,2,5.91,4.46,7.68a2.49,2.49,0,0,0,.46,0C14,113.34,14.12,111.67,14.12,111Z"/><path class="cls-9" d="M13.57,105.84a.92.92,0,0,1-.33.16.63.63,0,0,1-.4-.09,1.57,1.57,0,0,1-.71-1.22.67.67,0,0,1,.95-.57A8.39,8.39,0,0,1,13.57,105.84Z"/><path class="cls-64" d="M13.83,105.36a1.55,1.55,0,0,0-.71-1.22.47.47,0,0,0-.5,0h0l-.16.09,1.06,1.7.09-.06A.47.47,0,0,0,13.83,105.36Z"/><path class="cls-11" d="M13.68,105.45c0,.45-.31.63-.71.41a1.59,1.59,0,0,1-.71-1.23c0-.45.32-.63.71-.4A1.53,1.53,0,0,1,13.68,105.45Z"/><path class="cls-9" d="M15.56,110.12a.91.91,0,0,1-.34.16.6.6,0,0,1-.39-.09,1.56,1.56,0,0,1-.71-1.22.67.67,0,0,1,1-.57A8.39,8.39,0,0,1,15.56,110.12Z"/><path class="cls-65" d="M15.82,109.64a1.55,1.55,0,0,0-.71-1.22.48.48,0,0,0-.51,0h0l-.15.09,1.06,1.7.09-.06A.49.49,0,0,0,15.82,109.64Z"/><path class="cls-11" d="M15.67,109.73c0,.45-.32.63-.71.41a1.59,1.59,0,0,1-.71-1.23c0-.45.32-.63.71-.4A1.55,1.55,0,0,1,15.67,109.73Z"/><path class="cls-9" d="M15,114.74a.91.91,0,0,1-.34.16.6.6,0,0,1-.39-.09,1.56,1.56,0,0,1-.71-1.23.67.67,0,0,1,.95-.56A8.39,8.39,0,0,1,15,114.74Z"/><path class="cls-66" d="M15.27,114.26a1.55,1.55,0,0,0-.71-1.22.48.48,0,0,0-.51-.05h0l-.15.09L15,114.77l.09,0A.49.49,0,0,0,15.27,114.26Z"/><path class="cls-11" d="M15.12,114.35c0,.45-.32.63-.71.4a1.55,1.55,0,0,1-.71-1.22c0-.45.32-.63.71-.4A1.55,1.55,0,0,1,15.12,114.35Z"/><path class="cls-9" d="M8.19,112.18a1,1,0,0,1-.34.15.58.58,0,0,1-.4-.09A1.55,1.55,0,0,1,6.74,111a.68.68,0,0,1,1-.57A8.53,8.53,0,0,1,8.19,112.18Z"/><path class="cls-67" d="M8.44,111.69a1.57,1.57,0,0,0-.71-1.22.51.51,0,0,0-.5,0h0l-.16.1,1.06,1.69.1-.06A.49.49,0,0,0,8.44,111.69Z"/><path class="cls-11" d="M8.3,111.78c0,.45-.32.63-.71.41A1.56,1.56,0,0,1,6.88,111c0-.44.31-.63.71-.4A1.57,1.57,0,0,1,8.3,111.78Z"/><path class="cls-9" d="M6.18,108.15a.82.82,0,0,1-.34.15.53.53,0,0,1-.4-.09A1.55,1.55,0,0,1,4.73,107a.68.68,0,0,1,1-.57A8.53,8.53,0,0,1,6.18,108.15Z"/><path class="cls-68" d="M6.43,107.67a1.59,1.59,0,0,0-.71-1.23.51.51,0,0,0-.5,0h0l-.16.1,1.06,1.69.1-.06A.48.48,0,0,0,6.43,107.67Z"/><path class="cls-11" d="M6.29,107.76c0,.45-.32.63-.71.4a1.54,1.54,0,0,1-.71-1.22c0-.45.31-.63.71-.41A1.59,1.59,0,0,1,6.29,107.76Z"/><path class="cls-9" d="M6.31,103.46a.91.91,0,0,1-.34.16.6.6,0,0,1-.39-.09,1.59,1.59,0,0,1-.71-1.23.66.66,0,0,1,1-.56A8.39,8.39,0,0,1,6.31,103.46Z"/><path class="cls-69" d="M6.57,103a1.59,1.59,0,0,0-.71-1.23.51.51,0,0,0-.5,0h0l-.16.1,1.06,1.69.09,0A.49.49,0,0,0,6.57,103Z"/><path class="cls-11" d="M6.42,103.07c0,.45-.32.63-.71.4A1.55,1.55,0,0,1,5,102.25c0-.45.32-.63.71-.4A1.55,1.55,0,0,1,6.42,103.07Z"/><path class="cls-9" d="M11.6,115.15a1,1,0,0,1-.34.15.58.58,0,0,1-.4-.09,1.55,1.55,0,0,1-.71-1.22.68.68,0,0,1,1-.57A8.53,8.53,0,0,1,11.6,115.15Z"/><path class="cls-70" d="M11.85,114.66a1.57,1.57,0,0,0-.71-1.22.51.51,0,0,0-.5,0h0l-.16.1,1.06,1.69.1-.06A.49.49,0,0,0,11.85,114.66Z"/><path class="cls-11" d="M11.7,114.75c0,.45-.31.63-.7.41a1.56,1.56,0,0,1-.71-1.22c0-.45.31-.64.71-.41A1.56,1.56,0,0,1,11.7,114.75Z"/><path class="cls-9" d="M10.23,102.79a.82.82,0,0,1-.34.15.53.53,0,0,1-.4-.09,1.55,1.55,0,0,1-.71-1.22.68.68,0,0,1,1-.57A8.53,8.53,0,0,1,10.23,102.79Z"/><path class="cls-71" d="M10.48,102.3a1.56,1.56,0,0,0-.71-1.22.51.51,0,0,0-.5,0h0l-.15.1,1.05,1.69.1-.06A.49.49,0,0,0,10.48,102.3Z"/><path class="cls-11" d="M10.34,102.4c0,.45-.32.63-.71.4a1.57,1.57,0,0,1-.71-1.22c0-.45.32-.63.71-.41A1.59,1.59,0,0,1,10.34,102.4Z"/></g></g></g></svg>