<svg xmlns="http://www.w3.org/2000/svg" xmlns:xlink="http://www.w3.org/1999/xlink" viewBox="0 0 180.77 115.26"><defs><style>.cls-1{isolation:isolate;}.cls-2{fill:url(#Áåçûìÿííûé_ãðàäèåíò_1113);}.cls-3{fill:url(#Áåçûìÿííûé_ãðàäèåíò_1119);}.cls-4{fill:url(#Áåçûìÿííûé_ãðàäèåíò_1114);}.cls-5{fill:url(#Áåçûìÿííûé_ãðàäèåíò_1113-2);}.cls-6{fill:#af8300;}.cls-7{fill:url(#Áåçûìÿííûé_ãðàäèåíò_60);}.cls-8{fill:#c18000;}.cls-9{fill:url(#Áåçûìÿííûé_ãðàäèåíò_62);}.cls-10{fill:#a97c2c;}.cls-10,.cls-11,.cls-21{mix-blend-mode:multiply;}.cls-11{fill:#e4b527;}.cls-12{fill:url(#Áåçûìÿííûé_ãðàäèåíò_61);}.cls-13{fill:#b37000;}.cls-14{fill:url(#Áåçûìÿííûé_ãðàäèåíò_61-2);}.cls-15{fill:url(#Áåçûìÿííûé_ãðàäèåíò_61-3);}.cls-16{fill:url(#Áåçûìÿííûé_ãðàäèåíò_61-4);}.cls-17{fill:url(#Áåçûìÿííûé_ãðàäèåíò_61-5);}.cls-18{fill:url(#Áåçûìÿííûé_ãðàäèåíò_61-6);}.cls-19{fill:url(#Áåçûìÿííûé_ãðàäèåíò_61-7);}.cls-20{fill:url(#Áåçûìÿííûé_ãðàäèåíò_61-8);}.cls-21{fill:#db0;}.cls-22{fill:url(#Áåçûìÿííûé_ãðàäèåíò_60-2);}.cls-23{fill:#fce852;}.cls-24{fill:url(#Áåçûìÿííûé_ãðàäèåíò_72);}.cls-25{fill:url(#Áåçûìÿííûé_ãðàäèåíò_59);}.cls-26{fill:#fcf571;}.cls-27{fill:url(#Áåçûìÿííûé_ãðàäèåíò_59-2);}.cls-28{fill:url(#Áåçûìÿííûé_ãðàäèåíò_59-3);}.cls-29{fill:url(#Áåçûìÿííûé_ãðàäèåíò_59-4);}.cls-30{fill:url(#Áåçûìÿííûé_ãðàäèåíò_59-5);}.cls-31{fill:url(#Áåçûìÿííûé_ãðàäèåíò_59-6);}.cls-32{fill:url(#Áåçûìÿííûé_ãðàäèåíò_59-7);}.cls-33{fill:url(#Áåçûìÿííûé_ãðàäèåíò_59-8);}.cls-34{fill:url(#Áåçûìÿííûé_ãðàäèåíò_60-3);}.cls-35{fill:url(#Áåçûìÿííûé_ãðàäèåíò_62-2);}.cls-36{fill:url(#Áåçûìÿííûé_ãðàäèåíò_60-4);}.cls-37{fill:url(#Áåçûìÿííûé_ãðàäèåíò_62-3);}.cls-38{fill:url(#Áåçûìÿííûé_ãðàäèåíò_61-9);}.cls-39{fill:url(#Áåçûìÿííûé_ãðàäèåíò_61-10);}.cls-40{fill:url(#Áåçûìÿííûé_ãðàäèåíò_61-11);}.cls-41{fill:url(#Áåçûìÿííûé_ãðàäèåíò_61-12);}.cls-42{fill:url(#Áåçûìÿííûé_ãðàäèåíò_61-13);}.cls-43{fill:url(#Áåçûìÿííûé_ãðàäèåíò_61-14);}.cls-44{fill:url(#Áåçûìÿííûé_ãðàäèåíò_61-15);}.cls-45{fill:url(#Áåçûìÿííûé_ãðàäèåíò_61-16);}.cls-46{fill:url(#Áåçûìÿííûé_ãðàäèåíò_60-5);}.cls-47{fill:url(#Áåçûìÿííûé_ãðàäèåíò_62-4);}.cls-48{fill:url(#Áåçûìÿííûé_ãðàäèåíò_2);}.cls-49{fill:#a04900;}.cls-50{fill:url(#Áåçûìÿííûé_ãðàäèåíò_62-5);}.cls-51{fill:url(#Áåçûìÿííûé_ãðàäèåíò_61-17);}.cls-52{fill:url(#Áåçûìÿííûé_ãðàäèåíò_61-18);}.cls-53{fill:url(#Áåçûìÿííûé_ãðàäèåíò_61-19);}.cls-54{fill:url(#Áåçûìÿííûé_ãðàäèåíò_61-20);}.cls-55{fill:url(#Áåçûìÿííûé_ãðàäèåíò_61-21);}.cls-56{fill:url(#Áåçûìÿííûé_ãðàäèåíò_61-22);}.cls-57{fill:url(#Áåçûìÿííûé_ãðàäèåíò_61-23);}.cls-58{fill:url(#Áåçûìÿííûé_ãðàäèåíò_61-24);}.cls-59{fill:url(#Áåçûìÿííûé_ãðàäèåíò_60-6);}.cls-60{fill:url(#Áåçûìÿííûé_ãðàäèåíò_62-6);}.cls-61{fill:url(#Áåçûìÿííûé_ãðàäèåíò_2-2);}.cls-62{fill:url(#Áåçûìÿííûé_ãðàäèåíò_62-7);}.cls-63{fill:url(#Áåçûìÿííûé_ãðàäèåíò_61-25);}.cls-64{fill:url(#Áåçûìÿííûé_ãðàäèåíò_61-26);}.cls-65{fill:url(#Áåçûìÿííûé_ãðàäèåíò_61-27);}.cls-66{fill:url(#Áåçûìÿííûé_ãðàäèåíò_61-28);}.cls-67{fill:url(#Áåçûìÿííûé_ãðàäèåíò_61-29);}.cls-68{fill:url(#Áåçûìÿííûé_ãðàäèåíò_61-30);}.cls-69{fill:url(#Áåçûìÿííûé_ãðàäèåíò_61-31);}.cls-70{fill:url(#Áåçûìÿííûé_ãðàäèåíò_61-32);}.cls-71{fill:url(#Áåçûìÿííûé_ãðàäèåíò_60-7);}.cls-72{fill:url(#Áåçûìÿííûé_ãðàäèåíò_1112);}.cls-73{fill:#fadf58;}.cls-74{fill:url(#Áåçûìÿííûé_ãðàäèåíò_1113-3);}.cls-75{fill:url(#Áåçûìÿííûé_ãðàäèåíò_86);}.cls-76{fill:url(#Áåçûìÿííûé_ãðàäèåíò_1114-2);}.cls-77{fill:url(#Áåçûìÿííûé_ãðàäèåíò_1113-4);}</style><linearGradient id="Áåçûìÿííûé_ãðàäèåíò_1113" x1="153.39" y1="40.61" x2="163.62" y2="29.58" gradientUnits="userSpaceOnUse"><stop offset="0.06" stop-color="#f8c93e"/><stop offset="0.99" stop-color="#a60"/></linearGradient><linearGradient id="Áåçûìÿííûé_ãðàäèåíò_1119" x1="153.23" y1="47.8" x2="177.47" y2="12.99" gradientUnits="userSpaceOnUse"><stop offset="0.01" stop-color="#fbe257"/><stop offset="0.46" stop-color="#e1b232"/><stop offset="0.69" stop-color="#d69e23"/></linearGradient><linearGradient id="Áåçûìÿííûé_ãðàäèåíò_1114" x1="158.2" y1="50.27" x2="172.67" y2="17.98" gradientUnits="userSpaceOnUse"><stop offset="0.06" stop-color="#dcac25"/><stop offset="0.99" stop-color="#fae159"/></linearGradient><linearGradient id="Áåçûìÿííûé_ãðàäèåíò_1113-2" x1="166.66" y1="14.8" x2="164.94" y2="58" xlink:href="#Áåçûìÿííûé_ãðàäèåíò_1113"/><linearGradient id="Áåçûìÿííûé_ãðàäèåíò_60" x1="143.03" y1="41.56" x2="153.08" y2="58.96" gradientUnits="userSpaceOnUse"><stop offset="0.01" stop-color="#fcd84a"/><stop offset="0.01" stop-color="#fcdd4f"/><stop offset="0.02" stop-color="#fcf162"/><stop offset="0.16" stop-color="#fcf263"/><stop offset="0.24" stop-color="#fcec5d"/><stop offset="0.35" stop-color="#fcdb4c"/><stop offset="0.37" stop-color="#fcd748"/><stop offset="0.38" stop-color="#edbe30"/><stop offset="0.78" stop-color="#e7b82a"/><stop offset="0.78" stop-color="#e5ad21"/><stop offset="0.79" stop-color="#e0970f"/><stop offset="0.86" stop-color="#cb8007"/><stop offset="0.94" stop-color="#be7202"/><stop offset="1" stop-color="#ba6d00"/></linearGradient><linearGradient id="Áåçûìÿííûé_ãðàäèåíò_62" x1="147.42" y1="57.35" x2="141.68" y2="46.64" gradientUnits="userSpaceOnUse"><stop offset="0.01" stop-color="#f9ca3b"/><stop offset="0.01" stop-color="#facf40"/><stop offset="0.02" stop-color="#fce254"/><stop offset="0.16" stop-color="#fce355"/><stop offset="0.24" stop-color="#fbdd4f"/><stop offset="0.34" stop-color="#f8cd3e"/><stop offset="0.37" stop-color="#f7c839"/><stop offset="0.38" stop-color="#deaf22"/><stop offset="0.78" stop-color="#d8a01c"/><stop offset="0.78" stop-color="#d69e16"/><stop offset="0.79" stop-color="#ce9500"/><stop offset="0.79" stop-color="#cc9200"/><stop offset="0.87" stop-color="#ba7b00"/><stop offset="0.94" stop-color="#af6d00"/><stop offset="1" stop-color="#ab6800"/></linearGradient><linearGradient id="Áåçûìÿííûé_ãðàäèåíò_61" x1="147.63" y1="47.07" x2="148.78" y2="49.06" gradientUnits="userSpaceOnUse"><stop offset="0.01" stop-color="#fcd84a"/><stop offset="0.01" stop-color="#fcdd4f"/><stop offset="0.02" stop-color="#fcf162"/><stop offset="0.16" stop-color="#fcf263"/><stop offset="0.24" stop-color="#fcec5d"/><stop offset="0.35" stop-color="#fcdb4c"/><stop offset="0.37" stop-color="#fcd748"/><stop offset="0.38" stop-color="#edbe30"/><stop offset="0.78" stop-color="#e7b82a"/><stop offset="0.78" stop-color="#deb022"/><stop offset="0.79" stop-color="#c89a0d"/><stop offset="0.88" stop-color="#bf9104"/><stop offset="1" stop-color="#ba8c00"/></linearGradient><linearGradient id="Áåçûìÿííûé_ãðàäèåíò_61-2" x1="150.04" y1="52.26" x2="151.19" y2="54.25" xlink:href="#Áåçûìÿííûé_ãðàäèåíò_61"/><linearGradient id="Áåçûìÿííûé_ãðàäèåíò_61-3" x1="149.37" y1="57.87" x2="150.52" y2="59.86" xlink:href="#Áåçûìÿííûé_ãðàäèåíò_61"/><linearGradient id="Áåçûìÿííûé_ãðàäèåíò_61-4" x1="141.09" y1="54.76" x2="142.24" y2="56.75" xlink:href="#Áåçûìÿííûé_ãðàäèåíò_61"/><linearGradient id="Áåçûìÿííûé_ãðàäèåíò_61-5" x1="138.66" y1="49.87" x2="139.8" y2="51.86" xlink:href="#Áåçûìÿííûé_ãðàäèåíò_61"/><linearGradient id="Áåçûìÿííûé_ãðàäèåíò_61-6" x1="138.82" y1="44.18" x2="139.97" y2="46.17" xlink:href="#Áåçûìÿííûé_ãðàäèåíò_61"/><linearGradient id="Áåçûìÿííûé_ãðàäèåíò_61-7" x1="145.23" y1="58.36" x2="146.38" y2="60.35" xlink:href="#Áåçûìÿííûé_ãðàäèåíò_61"/><linearGradient id="Áåçûìÿííûé_ãðàäèåíò_61-8" x1="143.57" y1="43.37" x2="144.72" y2="45.36" xlink:href="#Áåçûìÿííûé_ãðàäèåíò_61"/><linearGradient id="Áåçûìÿííûé_ãðàäèåíò_60-2" x1="100.1" y1="-765.35" x2="110.15" y2="-747.95" gradientTransform="matrix(-0.5, 0.87, -0.87, -0.5, -432.53, -459.9)" xlink:href="#Áåçûìÿííûé_ãðàäèåíò_60"/><linearGradient id="Áåçûìÿííûé_ãðàäèåíò_72" x1="163.6" y1="6.12" x2="175.35" y2="6.12" gradientUnits="userSpaceOnUse"><stop offset="0.01" stop-color="#fcd84a"/><stop offset="0.01" stop-color="#fcdd4f"/><stop offset="0.02" stop-color="#fcf162"/><stop offset="0.16" stop-color="#fcf263"/><stop offset="0.24" stop-color="#fcec5d"/><stop offset="0.35" stop-color="#fcdb4c"/><stop offset="0.37" stop-color="#fcd748"/><stop offset="0.38" stop-color="#edbe30"/><stop offset="0.78" stop-color="#e7b82a"/><stop offset="0.79" stop-color="#e0b124"/><stop offset="0.86" stop-color="#dbac1f"/><stop offset="1" stop-color="#d6a71a"/></linearGradient><linearGradient id="Áåçûìÿííûé_ãðàäèåíò_59" x1="104.58" y1="-759.83" x2="105.73" y2="-757.84" gradientTransform="matrix(-0.5, 0.87, -0.87, -0.5, -432.53, -459.9)" gradientUnits="userSpaceOnUse"><stop offset="0.01" stop-color="#fce758"/><stop offset="0.02" stop-color="#fcf162"/><stop offset="0.16" stop-color="#fcf263"/><stop offset="0.29" stop-color="#fcec5d"/><stop offset="0.37" stop-color="#fce657"/><stop offset="0.38" stop-color="#fcd748"/><stop offset="0.78" stop-color="#fcd244"/><stop offset="0.79" stop-color="#f0c133"/><stop offset="0.84" stop-color="#edbe30"/><stop offset="1" stop-color="#e8b92b"/></linearGradient><linearGradient id="Áåçûìÿííûé_ãðàäèåíò_59-2" x1="107.11" y1="-754.43" x2="108.26" y2="-752.44" xlink:href="#Áåçûìÿííûé_ãðàäèåíò_59"/><linearGradient id="Áåçûìÿííûé_ãðàäèåíò_59-3" x1="106.44" y1="-749.04" x2="107.59" y2="-747.05" xlink:href="#Áåçûìÿííûé_ãðàäèåíò_59"/><linearGradient id="Áåçûìÿííûé_ãðàäèåíò_59-4" x1="98.06" y1="-752.09" x2="99.21" y2="-750.1" xlink:href="#Áåçûìÿííûé_ãðàäèåíò_59"/><linearGradient id="Áåçûìÿííûé_ãðàäèåíò_59-5" x1="95.46" y1="-757.35" x2="96.6" y2="-755.36" xlink:href="#Áåçûìÿííûé_ãðàäèåíò_59"/><linearGradient id="Áåçûìÿííûé_ãðàäèåíò_59-6" x1="95.86" y1="-762.82" x2="97.01" y2="-760.83" xlink:href="#Áåçûìÿííûé_ãðàäèåíò_59"/><linearGradient id="Áåçûìÿííûé_ãðàäèåíò_59-7" x1="102.33" y1="-748.49" x2="103.48" y2="-746.5" xlink:href="#Áåçûìÿííûé_ãðàäèåíò_59"/><linearGradient id="Áåçûìÿííûé_ãðàäèåíò_59-8" x1="100.41" y1="-763.6" x2="101.56" y2="-761.61" xlink:href="#Áåçûìÿííûé_ãðàäèåíò_59"/><linearGradient id="Áåçûìÿííûé_ãðàäèåíò_60-3" x1="-525.27" y1="23.11" x2="-515.94" y2="39.26" gradientTransform="matrix(-1, 0, 0, 1, -515.47, 0)" xlink:href="#Áåçûìÿííûé_ãðàäèåíò_60"/><linearGradient id="Áåçûìÿííûé_ãðàäèåíò_62-2" x1="-543.16" y1="34.9" x2="-535.16" y2="48.77" gradientTransform="matrix(-1, 0, 0, 1, -515.47, 0)" xlink:href="#Áåçûìÿííûé_ãðàäèåíò_62"/><linearGradient id="Áåçûìÿííûé_ãðàäèåíò_60-4" x1="-560.65" y1="43.48" x2="-551.32" y2="59.64" gradientTransform="matrix(-1, 0, 0, 1, -515.47, 0)" xlink:href="#Áåçûìÿííûé_ãðàäèåíò_60"/><linearGradient id="Áåçûìÿííûé_ãðàäèåíò_62-3" x1="-556.58" y1="58.15" x2="-561.91" y2="48.2" gradientTransform="matrix(-1, 0, 0, 1, -515.47, 0)" xlink:href="#Áåçûìÿííûé_ãðàäèåíò_62"/><linearGradient id="Áåçûìÿííûé_ãðàäèåíò_61-9" x1="-556.38" y1="48.6" x2="-555.31" y2="50.45" gradientTransform="matrix(-1, 0, 0, 1, -515.47, 0)" xlink:href="#Áåçûìÿííûé_ãðàäèåíò_61"/><linearGradient id="Áåçûìÿííûé_ãðàäèåíò_61-10" x1="-554.14" y1="53.43" x2="-553.07" y2="55.27" gradientTransform="matrix(-1, 0, 0, 1, -515.47, 0)" xlink:href="#Áåçûìÿííûé_ãðàäèåíò_61"/><linearGradient id="Áåçûìÿííûé_ãðàäèåíò_61-11" x1="-554.76" y1="58.63" x2="-553.69" y2="60.48" gradientTransform="matrix(-1, 0, 0, 1, -515.47, 0)" xlink:href="#Áåçûìÿííûé_ãðàäèåíò_61"/><linearGradient id="Áåçûìÿííûé_ãðàäèåíò_61-12" x1="-562.45" y1="55.74" x2="-561.38" y2="57.59" gradientTransform="matrix(-1, 0, 0, 1, -515.47, 0)" xlink:href="#Áåçûìÿííûé_ãðàäèåíò_61"/><linearGradient id="Áåçûìÿííûé_ãðàäèåíò_61-13" x1="-564.71" y1="51.2" x2="-563.65" y2="53.05" gradientTransform="matrix(-1, 0, 0, 1, -515.47, 0)" xlink:href="#Áåçûìÿííûé_ãðàäèåíò_61"/><linearGradient id="Áåçûìÿííûé_ãðàäèåíò_61-14" x1="-564.56" y1="45.92" x2="-563.49" y2="47.77" gradientTransform="matrix(-1, 0, 0, 1, -515.47, 0)" xlink:href="#Áåçûìÿííûé_ãðàäèåíò_61"/><linearGradient id="Áåçûìÿííûé_ãðàäèåíò_61-15" x1="-558.61" y1="59.09" x2="-557.54" y2="60.93" gradientTransform="matrix(-1, 0, 0, 1, -515.47, 0)" xlink:href="#Áåçûìÿííûé_ãðàäèåíò_61"/><linearGradient id="Áåçûìÿííûé_ãðàäèåíò_61-16" x1="-560.15" y1="45.16" x2="-559.08" y2="47.01" gradientTransform="matrix(-1, 0, 0, 1, -515.47, 0)" xlink:href="#Áåçûìÿííûé_ãðàäèåíò_61"/><linearGradient id="Áåçûìÿííûé_ãðàäèåíò_60-5" x1="-58.97" y1="40.13" x2="-47.12" y2="60.66" gradientTransform="translate(202.36 -0.55) rotate(-0.04)" xlink:href="#Áåçûìÿííûé_ãðàäèåíò_60"/><linearGradient id="Áåçûìÿííûé_ãðàäèåíò_62-4" x1="-81.71" y1="55.12" x2="-71.54" y2="72.75" gradientTransform="translate(202.36 -0.55) rotate(-0.04)" xlink:href="#Áåçûìÿííûé_ãðàäèåíò_62"/><linearGradient id="Áåçûìÿííûé_ãðàäèåíò_2" x1="-103.94" y1="66.03" x2="-92.09" y2="86.57" gradientTransform="translate(202.36 -0.55) rotate(-0.04)" gradientUnits="userSpaceOnUse"><stop offset="0.01" stop-color="#dba240"/><stop offset="0.01" stop-color="#dba744"/><stop offset="0.02" stop-color="#dbbb55"/><stop offset="0.16" stop-color="#dbbc56"/><stop offset="0.24" stop-color="#dbb651"/><stop offset="0.34" stop-color="#dba543"/><stop offset="0.37" stop-color="#dba03f"/><stop offset="0.38" stop-color="#cc8829"/><stop offset="0.78" stop-color="#c68224"/><stop offset="0.78" stop-color="#c3711a"/><stop offset="0.79" stop-color="#bf5b0d"/><stop offset="0.86" stop-color="#ac4806"/><stop offset="0.93" stop-color="#9e3b02"/><stop offset="1" stop-color="#993600"/></linearGradient><linearGradient id="Áåçûìÿííûé_ãðàäèåíò_62-5" x1="-98.77" y1="84.68" x2="-105.54" y2="72.03" gradientTransform="translate(202.36 -0.55) rotate(-0.04)" xlink:href="#Áåçûìÿííûé_ãðàäèåíò_62"/><linearGradient id="Áåçûìÿííûé_ãðàäèåíò_61-17" x1="-98.52" y1="72.54" x2="-97.16" y2="74.89" gradientTransform="translate(202.36 -0.55) rotate(-0.04)" xlink:href="#Áåçûìÿííûé_ãðàäèåíò_61"/><linearGradient id="Áåçûìÿííûé_ãðàäèåíò_61-18" x1="-95.67" y1="78.67" x2="-94.31" y2="81.02" gradientTransform="translate(202.36 -0.55) rotate(-0.04)" xlink:href="#Áåçûìÿííûé_ãðàäèåíò_61"/><linearGradient id="Áåçûìÿííûé_ãðàäèåíò_61-19" x1="-96.46" y1="85.29" x2="-95.1" y2="87.64" gradientTransform="translate(202.36 -0.55) rotate(-0.04)" xlink:href="#Áåçûìÿííûé_ãðàäèåíò_61"/><linearGradient id="Áåçûìÿííûé_ãðàäèåíò_61-20" x1="-106.23" y1="81.61" x2="-104.88" y2="83.96" gradientTransform="translate(202.36 -0.55) rotate(-0.04)" xlink:href="#Áåçûìÿííûé_ãðàäèåíò_61"/><linearGradient id="Áåçûìÿííûé_ãðàäèåíò_61-21" x1="-109.11" y1="75.84" x2="-107.76" y2="78.19" gradientTransform="translate(202.36 -0.55) rotate(-0.04)" xlink:href="#Áåçûìÿííûé_ãðàäèåíò_61"/><linearGradient id="Áåçûìÿííûé_ãðàäèåíò_61-22" x1="-108.92" y1="69.13" x2="-107.56" y2="71.48" gradientTransform="translate(202.36 -0.55) rotate(-0.04)" xlink:href="#Áåçûìÿííûé_ãðàäèåíò_61"/><linearGradient id="Áåçûìÿííûé_ãðàäèåíò_61-23" x1="-101.35" y1="85.87" x2="-99.99" y2="88.22" gradientTransform="translate(202.36 -0.55) rotate(-0.04)" xlink:href="#Áåçûìÿííûé_ãðàäèåíò_61"/><linearGradient id="Áåçûìÿííûé_ãðàäèåíò_61-24" x1="-103.31" y1="68.16" x2="-101.95" y2="70.51" gradientTransform="translate(202.36 -0.55) rotate(-0.04)" xlink:href="#Áåçûìÿííûé_ãðàäèåíò_61"/><linearGradient id="Áåçûìÿííûé_ãðàäèåíò_60-6" x1="-104.6" y1="66.14" x2="-92.74" y2="86.68" gradientTransform="translate(202.36 -0.55) rotate(-0.04)" xlink:href="#Áåçûìÿííûé_ãðàäèåíò_60"/><linearGradient id="Áåçûìÿííûé_ãðàäèåíò_62-6" x1="-127.33" y1="81.14" x2="-117.16" y2="98.76" gradientTransform="translate(202.36 -0.55) rotate(-0.04)" xlink:href="#Áåçûìÿííûé_ãðàäèåíò_62"/><linearGradient id="Áåçûìÿííûé_ãðàäèåíò_2-2" x1="-149.57" y1="92.05" x2="-137.71" y2="112.58" xlink:href="#Áåçûìÿííûé_ãðàäèåíò_2"/><linearGradient id="Áåçûìÿííûé_ãðàäèåíò_62-7" x1="-144.39" y1="110.69" x2="-151.17" y2="98.04" gradientTransform="translate(202.36 -0.55) rotate(-0.04)" xlink:href="#Áåçûìÿííûé_ãðàäèåíò_62"/><linearGradient id="Áåçûìÿííûé_ãðàäèåíò_61-25" x1="-144.14" y1="98.55" x2="-142.78" y2="100.9" gradientTransform="translate(202.36 -0.55) rotate(-0.04)" xlink:href="#Áåçûìÿííûé_ãðàäèåíò_61"/><linearGradient id="Áåçûìÿííûé_ãðàäèåíò_61-26" x1="-141.29" y1="104.68" x2="-139.94" y2="107.03" gradientTransform="translate(202.36 -0.55) rotate(-0.04)" xlink:href="#Áåçûìÿííûé_ãðàäèåíò_61"/><linearGradient id="Áåçûìÿííûé_ãðàäèåíò_61-27" x1="-142.08" y1="111.3" x2="-140.72" y2="113.65" gradientTransform="translate(202.36 -0.55) rotate(-0.04)" xlink:href="#Áåçûìÿííûé_ãðàäèåíò_61"/><linearGradient id="Áåçûìÿííûé_ãðàäèåíò_61-28" x1="-151.85" y1="107.63" x2="-150.5" y2="109.97" gradientTransform="translate(202.36 -0.55) rotate(-0.04)" xlink:href="#Áåçûìÿííûé_ãðàäèåíò_61"/><linearGradient id="Áåçûìÿííûé_ãðàäèåíò_61-29" x1="-154.73" y1="101.86" x2="-153.38" y2="104.21" gradientTransform="translate(202.36 -0.55) rotate(-0.04)" xlink:href="#Áåçûìÿííûé_ãðàäèåíò_61"/><linearGradient id="Áåçûìÿííûé_ãðàäèåíò_61-30" x1="-154.54" y1="95.14" x2="-153.18" y2="97.49" gradientTransform="translate(202.36 -0.55) rotate(-0.04)" xlink:href="#Áåçûìÿííûé_ãðàäèåíò_61"/><linearGradient id="Áåçûìÿííûé_ãðàäèåíò_61-31" x1="-146.97" y1="111.88" x2="-145.62" y2="114.23" gradientTransform="translate(202.36 -0.55) rotate(-0.04)" xlink:href="#Áåçûìÿííûé_ãðàäèåíò_61"/><linearGradient id="Áåçûìÿííûé_ãðàäèåíò_61-32" x1="-148.93" y1="94.18" x2="-147.57" y2="96.53" gradientTransform="translate(202.36 -0.55) rotate(-0.04)" xlink:href="#Áåçûìÿííûé_ãðàäèåíò_61"/><linearGradient id="Áåçûìÿííûé_ãðàäèåíò_60-7" x1="111.35" y1="51.98" x2="120.97" y2="68.65" gradientTransform="matrix(-1, 0.01, 0.01, 1, 155.93, -9.29)" xlink:href="#Áåçûìÿííûé_ãðàäèåíò_60"/><linearGradient id="Áåçûìÿííûé_ãðàäèåíò_1112" x1="925.5" y1="496.25" x2="935.13" y2="512.91" gradientTransform="matrix(-0.5, 0.87, -0.87, -0.5, 966.67, -459.9)" gradientUnits="userSpaceOnUse"><stop offset="0" stop-color="#ba6d00"/><stop offset="0.06" stop-color="#be7202"/><stop offset="0.14" stop-color="#cb8007"/><stop offset="0.21" stop-color="#e0970f"/><stop offset="0.22" stop-color="#e5ad21"/><stop offset="0.22" stop-color="#e7b82a"/><stop offset="0.62" stop-color="#edbe30"/><stop offset="0.63" stop-color="#fcd748"/><stop offset="0.65" stop-color="#fcdb4c"/><stop offset="0.76" stop-color="#fcec5d"/><stop offset="0.84" stop-color="#fcf263"/><stop offset="0.98" stop-color="#fcf162"/><stop offset="0.99" stop-color="#fcdd4f"/><stop offset="0.99" stop-color="#fcd84a"/></linearGradient><linearGradient id="Áåçûìÿííûé_ãðàäèåíò_1113-3" x1="5.14" y1="53.72" x2="-7.05" y2="91.97" gradientTransform="matrix(-1, 0, 0, 1, 57.84, 0)" xlink:href="#Áåçûìÿííûé_ãðàäèåíò_1113"/><linearGradient id="Áåçûìÿííûé_ãðàäèåíò_86" x1="-12.36" y1="86.91" x2="11.37" y2="52.03" gradientTransform="matrix(-1, 0, 0, 1, 57.84, 0)" gradientUnits="userSpaceOnUse"><stop offset="0.06" stop-color="#d79f22"/><stop offset="0.99" stop-color="#fae159"/></linearGradient><linearGradient id="Áåçûìÿííûé_ãðàäèåíò_1114-2" x1="-9" y1="59.94" x2="25.5" y2="90.41" gradientTransform="matrix(-1, 0, 0, 1, 57.84, 0)" xlink:href="#Áåçûìÿííûé_ãðàäèåíò_1114"/><linearGradient id="Áåçûìÿííûé_ãðàäèåíò_1113-4" x1="9.16" y1="94.81" x2="8.38" y2="59.15" gradientTransform="matrix(-1, 0, 0, 1, 57.84, 0)" xlink:href="#Áåçûìÿííûé_ãðàäèåíò_1113"/></defs><title>rør_01</title><g class="cls-1"><g id="Layer_2" data-name="Layer 2"><g id="Layer_1-2" data-name="Layer 1"><path class="cls-2" d="M179.23,7.29V27.42A25.77,25.77,0,0,1,166.38,49.7l-11,6.4L152,58l-1.21.7-.55.32-.2-.32-1.56-2.61-3-5-4.1-6.88-.48-.8,14.3-8.28a11.59,11.59,0,0,0,5.79-10l0-17.62,2.77,0,7.75-.11,4.2-.06,2.28,0Z"/><path class="cls-3" d="M175.8,7.34V40.25a25.79,25.79,0,0,1-9.42,9.45l-11,6.4h-6.83l-3-5-4.1-6.88,15.42-8.79a13.85,13.85,0,0,0,7-12V7.51l7.75-.11Z"/><path class="cls-4" d="M179.23,7.29V27.42A25.77,25.77,0,0,1,166.38,49.7l-11,6.4L152,58v.7h-2l-1.56-2.61-3-5v-2.2l17.31-9.86a17.31,17.31,0,0,0,8.75-15V7.4l4.2-.06,2.28,0Z"/><path class="cls-5" d="M179.23,7.29V27.42A25.77,25.77,0,0,1,166.38,49.7l-11,6.4L152,58V53.35l15.09-8.6a21.69,21.69,0,0,0,11-18.85V7.31Z"/><path class="cls-6" d="M151.74,55.17c0,4.09-2.89,5.74-6.45,3.68a14.21,14.21,0,0,1-6.46-11.13c0-4.1,2.89-5.74,6.46-3.68A14.21,14.21,0,0,1,151.74,55.17Z"/><path class="cls-7" d="M153.59,55.3a16.59,16.59,0,0,0-7.52-13c-2.09-1.2-4-1.32-5.33-.54h0l-1.66,1,11.23,18,1-.6C152.71,59.42,153.59,57.73,153.59,55.3Z"/><ellipse class="cls-8" cx="144.51" cy="51.92" rx="6.12" ry="10.61" transform="translate(-6.45 80.03) rotate(-30.31)"/><path class="cls-9" d="M147.23,58.33a4.19,4.19,0,0,1-2-.65,12,12,0,0,1-5.37-9.26c0-.87.19-2.9,2-2.9a4.13,4.13,0,0,1,2,.65,12,12,0,0,1,5.38,9.26C149.19,56.3,149,58.33,147.23,58.33Z"/><path class="cls-10" d="M149.19,55.43a12,12,0,0,0-5.38-9.26,5.35,5.35,0,0,0-.63-.32c-1.71.32-1.91,2.23-1.91,3.1,0,3.21,2.37,7.17,5.41,9.32a2.72,2.72,0,0,0,.55.06C149,58.33,149.19,56.3,149.19,55.43Z"/><path class="cls-11" d="M148.53,49.23a1.15,1.15,0,0,1-.41.19.69.69,0,0,1-.48-.11,1.88,1.88,0,0,1-.86-1.48.81.81,0,0,1,1.15-.69A10.27,10.27,0,0,1,148.53,49.23Z"/><path class="cls-12" d="M148.84,48.64a1.9,1.9,0,0,0-.86-1.48.6.6,0,0,0-.61-.06h0l-.19.12,1.28,2.05.12-.07A.59.59,0,0,0,148.84,48.64Z"/><path class="cls-13" d="M148.66,48.76c0,.54-.39.76-.86.49a1.89,1.89,0,0,1-.86-1.49c0-.54.38-.76.86-.49A1.92,1.92,0,0,1,148.66,48.76Z"/><path class="cls-11" d="M150.94,54.42a1,1,0,0,1-.41.19.65.65,0,0,1-.48-.11,1.88,1.88,0,0,1-.86-1.48.81.81,0,0,1,1.15-.69A10.27,10.27,0,0,1,150.94,54.42Z"/><path class="cls-14" d="M151.25,53.84a1.92,1.92,0,0,0-.86-1.49.63.63,0,0,0-.61-.06h0l-.19.12,1.28,2.05.12-.07A.58.58,0,0,0,151.25,53.84Z"/><path class="cls-13" d="M151.07,54c0,.54-.39.76-.86.49a1.89,1.89,0,0,1-.86-1.49c0-.54.38-.76.86-.49A1.92,1.92,0,0,1,151.07,54Z"/><path class="cls-11" d="M150.27,60a1.15,1.15,0,0,1-.41.19.76.76,0,0,1-.48-.11,1.89,1.89,0,0,1-.86-1.49.82.82,0,0,1,1.16-.69A10.34,10.34,0,0,1,150.27,60Z"/><path class="cls-15" d="M150.58,59.44a1.9,1.9,0,0,0-.86-1.48.6.6,0,0,0-.61-.06h0l-.19.11,1.29,2.06.11-.07A.6.6,0,0,0,150.58,59.44Z"/><path class="cls-13" d="M150.4,59.55c0,.55-.38.77-.86.49a1.9,1.9,0,0,1-.86-1.48c0-.55.39-.77.86-.49A1.88,1.88,0,0,1,150.4,59.55Z"/><path class="cls-11" d="M142,56.91a1,1,0,0,1-.41.19.65.65,0,0,1-.48-.11,1.9,1.9,0,0,1-.86-1.48.82.82,0,0,1,1.16-.69A10.4,10.4,0,0,1,142,56.91Z"/><path class="cls-16" d="M142.3,56.33a1.89,1.89,0,0,0-.86-1.49.62.62,0,0,0-.61-.06h0l-.19.12L141.93,57l.11-.07A.58.58,0,0,0,142.3,56.33Z"/><path class="cls-13" d="M142.12,56.44c0,.54-.38.76-.86.49a1.92,1.92,0,0,1-.86-1.49c0-.54.39-.76.86-.49A1.89,1.89,0,0,1,142.12,56.44Z"/><path class="cls-11" d="M139.55,52a1.15,1.15,0,0,1-.41.19.77.77,0,0,1-.48-.11,1.92,1.92,0,0,1-.86-1.49.82.82,0,0,1,1.16-.69A10.34,10.34,0,0,1,139.55,52Z"/><path class="cls-17" d="M139.86,51.44A1.88,1.88,0,0,0,139,50a.6.6,0,0,0-.61-.06h0l-.19.11,1.29,2.06.11-.07A.6.6,0,0,0,139.86,51.44Z"/><path class="cls-13" d="M139.69,51.55c0,.55-.39.77-.87.49a1.9,1.9,0,0,1-.86-1.48c0-.55.39-.77.86-.49A1.89,1.89,0,0,1,139.69,51.55Z"/><path class="cls-11" d="M139.72,46.34a1.15,1.15,0,0,1-.41.19.69.69,0,0,1-.48-.11,1.88,1.88,0,0,1-.86-1.48.81.81,0,0,1,1.15-.69A10.27,10.27,0,0,1,139.72,46.34Z"/><path class="cls-18" d="M140,45.75a1.92,1.92,0,0,0-.86-1.48.6.6,0,0,0-.61-.06h0l-.19.12,1.28,2.05.12-.07A.59.59,0,0,0,140,45.75Z"/><path class="cls-13" d="M139.85,45.87c0,.54-.39.76-.86.49a1.89,1.89,0,0,1-.86-1.49c0-.54.38-.76.86-.49A1.92,1.92,0,0,1,139.85,45.87Z"/><path class="cls-11" d="M146.13,60.52a1.15,1.15,0,0,1-.41.19.76.76,0,0,1-.48-.11,1.89,1.89,0,0,1-.86-1.49.82.82,0,0,1,1.15-.69A10.21,10.21,0,0,1,146.13,60.52Z"/><path class="cls-19" d="M146.44,59.93a1.9,1.9,0,0,0-.86-1.48.6.6,0,0,0-.61-.06h0l-.19.11,1.28,2.06.12-.07A.6.6,0,0,0,146.44,59.93Z"/><path class="cls-13" d="M146.26,60c0,.55-.39.77-.86.49a1.88,1.88,0,0,1-.86-1.48c0-.55.38-.77.86-.49A1.9,1.9,0,0,1,146.26,60Z"/><path class="cls-11" d="M144.47,45.52a1,1,0,0,1-.41.19.65.65,0,0,1-.48-.11,1.88,1.88,0,0,1-.86-1.48.82.82,0,0,1,1.16-.69A10.4,10.4,0,0,1,144.47,45.52Z"/><path class="cls-20" d="M144.78,44.94a1.92,1.92,0,0,0-.86-1.49.63.63,0,0,0-.61-.06h0l-.19.12,1.28,2.05.12-.07A.57.57,0,0,0,144.78,44.94Z"/><path class="cls-13" d="M144.6,45.05c0,.54-.38.76-.86.49a1.89,1.89,0,0,1-.86-1.49c0-.54.38-.76.86-.49A1.89,1.89,0,0,1,144.6,45.05Z"/><path class="cls-21" d="M163.67,14c3.54,2,9.87,1.48,13.43-.58,1.79-1,2.12-1.81,2.13-3.16h0v-4l-18.15.25L161,11.15C161,12.52,161.87,12.93,163.67,14Z"/><path class="cls-6" d="M163.68,10.76c-3.54-2-3.52-5.38,0-7.43a14.2,14.2,0,0,1,12.87,0c3.54,2.05,3.52,5.37,0,7.43A14.24,14.24,0,0,1,163.68,10.76Z"/><path class="cls-22" d="M162.64,12.29a16.56,16.56,0,0,0,15,0c2.08-1.2,3.13-2.77,3.13-4.34h0L180.72,6l-21.17.73,0,1.16C159.52,9.47,160.54,11.07,162.64,12.29Z"/><path class="cls-23" d="M162.59,10.46c-4.13-2.39-4.11-6.27,0-8.66a16.59,16.59,0,0,1,15,0c4.13,2.38,4.1,6.26-.06,8.66A16.57,16.57,0,0,1,162.59,10.46Z"/><path class="cls-11" d="M170.46,11.33a.52.52,0,0,1,0-1,1.9,1.9,0,0,1,1.72,0,.52.52,0,0,1,0,1A1.9,1.9,0,0,1,170.46,11.33Z"/><path class="cls-11" d="M164.52,10.81c-.47-.27-.46-.71,0-1a1.93,1.93,0,0,1,1.72,0,.52.52,0,0,1,0,1A1.9,1.9,0,0,1,164.52,10.81Z"/><path class="cls-11" d="M160.19,7.53c-.47-.27-.47-.71,0-1a1.93,1.93,0,0,1,1.72,0,.52.52,0,0,1,0,1A1.87,1.87,0,0,1,160.19,7.53Z"/><path class="cls-11" d="M167,1.81a.52.52,0,0,1,0-1,1.9,1.9,0,0,1,1.72,0,.52.52,0,0,1,0,1A1.88,1.88,0,0,1,167,1.81Z"/><path class="cls-11" d="M172.89,2.18c-.48-.27-.47-.71,0-1a1.93,1.93,0,0,1,1.72,0,.52.52,0,0,1,0,1A1.88,1.88,0,0,1,172.89,2.18Z"/><path class="cls-11" d="M177.42,5.28a.52.52,0,0,1,0-1,1.88,1.88,0,0,1,1.71,0,.52.52,0,0,1,0,1A1.9,1.9,0,0,1,177.42,5.28Z"/><path class="cls-11" d="M161.77,3.7c-.47-.27-.47-.71,0-1a1.93,1.93,0,0,1,1.72,0,.52.52,0,0,1,0,1A1.93,1.93,0,0,1,161.77,3.7Z"/><path class="cls-11" d="M175.82,9.61a.52.52,0,0,1,0-1,1.87,1.87,0,0,1,1.72,0c.47.27.47.71,0,1A1.91,1.91,0,0,1,175.82,9.61Z"/><path class="cls-24" d="M163.21,5.27a4.18,4.18,0,0,1,1.57-1.43,12,12,0,0,1,10.71,0c.75.44,2.41,1.62,1.53,3.14a4.13,4.13,0,0,1-1.58,1.43,12,12,0,0,1-10.7,0C164,8,162.32,6.8,163.21,5.27Z"/><path class="cls-25" d="M170.84,11.41a1.88,1.88,0,0,0,1.71,0,.59.59,0,0,0,.36-.49h0v-.22l-2.42.08v.13A.59.59,0,0,0,170.84,11.41Z"/><path class="cls-26" d="M170.83,11.2a.52.52,0,0,1,0-1,1.88,1.88,0,0,1,1.71,0,.53.53,0,0,1,0,1A1.93,1.93,0,0,1,170.83,11.2Z"/><path class="cls-27" d="M164.9,10.89a1.88,1.88,0,0,0,1.71,0,.61.61,0,0,0,.36-.5h0v-.22l-2.42.08v.14A.58.58,0,0,0,164.9,10.89Z"/><path class="cls-26" d="M164.89,10.68c-.47-.27-.47-.71,0-1a1.91,1.91,0,0,1,1.71,0,.52.52,0,0,1,0,1A1.87,1.87,0,0,1,164.89,10.68Z"/><path class="cls-28" d="M160.57,7.61a1.85,1.85,0,0,0,1.71,0,.61.61,0,0,0,.36-.5h0V6.89L160.21,7v.13A.61.61,0,0,0,160.57,7.61Z"/><path class="cls-26" d="M160.56,7.4c-.47-.27-.47-.71,0-1a1.91,1.91,0,0,1,1.71,0,.52.52,0,0,1,0,1A1.87,1.87,0,0,1,160.56,7.4Z"/><path class="cls-29" d="M167.41,1.89a1.88,1.88,0,0,0,1.71,0,.59.59,0,0,0,.36-.49h0V1.17l-2.42.08v.13A.59.59,0,0,0,167.41,1.89Z"/><path class="cls-26" d="M167.4,1.68a.52.52,0,0,1,0-1,1.88,1.88,0,0,1,1.71,0c.48.28.47.72,0,1A1.93,1.93,0,0,1,167.4,1.68Z"/><path class="cls-30" d="M173.26,2.26a1.88,1.88,0,0,0,1.71,0,.61.61,0,0,0,.36-.5h0V1.54l-2.42.09v.13A.58.58,0,0,0,173.26,2.26Z"/><path class="cls-26" d="M173.25,2.05c-.47-.27-.47-.71,0-1a1.91,1.91,0,0,1,1.71,0,.52.52,0,0,1,0,1A1.87,1.87,0,0,1,173.25,2.05Z"/><path class="cls-31" d="M177.8,5.36a1.88,1.88,0,0,0,1.71,0,.59.59,0,0,0,.36-.49h0V4.64l-2.42.08v.13A.61.61,0,0,0,177.8,5.36Z"/><path class="cls-26" d="M177.79,5.15c-.47-.28-.47-.72,0-1a1.87,1.87,0,0,1,1.72,0c.47.27.47.71,0,1A1.91,1.91,0,0,1,177.79,5.15Z"/><path class="cls-32" d="M162.15,3.78a1.91,1.91,0,0,0,1.71,0,.61.61,0,0,0,.36-.5h0V3.06l-2.42.08v.14A.61.61,0,0,0,162.15,3.78Z"/><path class="cls-26" d="M162.14,3.57c-.47-.27-.47-.71,0-1a1.91,1.91,0,0,1,1.71,0,.52.52,0,0,1,0,1A1.9,1.9,0,0,1,162.14,3.57Z"/><path class="cls-33" d="M176.19,9.69a1.93,1.93,0,0,0,1.72,0,.62.62,0,0,0,.35-.5h0V9l-2.42.08v.13A.58.58,0,0,0,176.19,9.69Z"/><path class="cls-26" d="M176.18,9.48a.52.52,0,0,1,0-1,1.9,1.9,0,0,1,1.72,0c.47.27.47.71,0,1A1.93,1.93,0,0,1,176.18,9.48Z"/><path class="cls-21" d="M175.49,3.83l-.1-.05a13.54,13.54,0,0,1-.73,1.56A5.38,5.38,0,0,1,173.32,7a17,17,0,0,1-4.17,2.64,11.45,11.45,0,0,0,6.29-1.23A4.13,4.13,0,0,0,177,7C177.9,5.45,176.24,4.27,175.49,3.83Z"/><path class="cls-34" d="M0,35.87a15.39,15.39,0,0,1,7-12c1.93-1.12,3.68-1.23,4.95-.5h0l1.53.95L3,41l-.93-.56C.81,39.69,0,38.12,0,35.87Z"/><ellipse class="cls-8" cx="8.43" cy="32.73" rx="9.85" ry="5.69" transform="translate(-24.08 23.49) rotate(-59.69)"/><path class="cls-35" d="M3,36.49A13.19,13.19,0,0,1,9,26.15c1.66-1,3.16-1,4.24-.43h0L47.11,45.24,38.46,59.71,4.85,40.37C3.73,39.76,3,38.42,3,36.49Z"/><ellipse class="cls-6" cx="43.08" cy="52.66" rx="8.45" ry="4.88" transform="translate(-24.12 63.28) rotate(-59.69)"/><path class="cls-36" d="M35.38,56.25a15.38,15.38,0,0,1,7-12c1.94-1.12,3.69-1.23,5-.5h0l1.54.95L38.42,61.32l-.93-.55C36.19,60.07,35.38,58.5,35.38,56.25Z"/><path class="cls-8" d="M36.82,57.14c0,4.43,3.13,6.22,7,4a15.4,15.4,0,0,0,7-12.05c0-4.43-3.12-6.21-7-4A15.41,15.41,0,0,0,36.82,57.14Z"/><path class="cls-37" d="M41.28,59.06a3.94,3.94,0,0,0,1.88-.6,11.16,11.16,0,0,0,5-8.6c0-.81-.18-2.7-1.81-2.7a3.94,3.94,0,0,0-1.89.6,11.18,11.18,0,0,0-5,8.6C39.46,57.17,39.64,59.06,41.28,59.06Z"/><path class="cls-10" d="M39.46,56.36a11.18,11.18,0,0,1,5-8.6,5.48,5.48,0,0,1,.6-.29c1.58.3,1.77,2.07,1.77,2.88,0,3-2.21,6.66-5,8.65a2.35,2.35,0,0,1-.51.06C39.64,59.06,39.46,57.17,39.46,56.36Z"/><path class="cls-11" d="M40.08,50.61a.93.93,0,0,0,.38.17.59.59,0,0,0,.44-.1,1.76,1.76,0,0,0,.8-1.38.76.76,0,0,0-1.07-.64A9.59,9.59,0,0,0,40.08,50.61Z"/><path class="cls-38" d="M39.79,50.06a1.75,1.75,0,0,1,.8-1.37.56.56,0,0,1,.56-.06h0l.18.11-1.19,1.9L40,50.58A.55.55,0,0,1,39.79,50.06Z"/><path class="cls-13" d="M40,50.17c0,.5.36.71.8.45a1.76,1.76,0,0,0,.8-1.38c0-.5-.36-.71-.8-.45A1.76,1.76,0,0,0,40,50.17Z"/><path class="cls-11" d="M37.84,55.43a1,1,0,0,0,.38.18.65.65,0,0,0,.44-.11,1.73,1.73,0,0,0,.8-1.37.75.75,0,0,0-1.07-.64A9.65,9.65,0,0,0,37.84,55.43Z"/><path class="cls-39" d="M37.55,54.89a1.76,1.76,0,0,1,.8-1.38.56.56,0,0,1,.56-.06h0l.18.11L37.9,55.47l-.11-.07A.54.54,0,0,1,37.55,54.89Z"/><path class="cls-13" d="M37.71,55c0,.51.36.71.8.45a1.75,1.75,0,0,0,.8-1.37c0-.51-.36-.71-.8-.46A1.77,1.77,0,0,0,37.71,55Z"/><path class="cls-11" d="M38.46,60.64a.93.93,0,0,0,.38.17.59.59,0,0,0,.44-.1,1.73,1.73,0,0,0,.8-1.38A.75.75,0,0,0,39,58.69,9.59,9.59,0,0,0,38.46,60.64Z"/><path class="cls-40" d="M38.17,60.09a1.79,1.79,0,0,1,.8-1.38.55.55,0,0,1,.56-.05h0l.18.1-1.19,1.91-.11-.06A.55.55,0,0,1,38.17,60.09Z"/><path class="cls-13" d="M38.33,60.19c0,.51.36.71.8.46a1.77,1.77,0,0,0,.8-1.38c0-.51-.36-.71-.8-.45A1.75,1.75,0,0,0,38.33,60.19Z"/><path class="cls-11" d="M46.15,57.74a.88.88,0,0,0,.38.18.7.7,0,0,0,.44-.1,1.77,1.77,0,0,0,.8-1.38.75.75,0,0,0-1.07-.64A9.65,9.65,0,0,0,46.15,57.74Z"/><path class="cls-41" d="M45.86,57.2a1.77,1.77,0,0,1,.8-1.38.56.56,0,0,1,.56-.06h0l.18.11-1.19,1.91-.11-.06A.55.55,0,0,1,45.86,57.2Z"/><path class="cls-13" d="M46,57.3c0,.51.36.71.8.46a1.77,1.77,0,0,0,.8-1.38c0-.51-.36-.71-.8-.46A1.79,1.79,0,0,0,46,57.3Z"/><path class="cls-11" d="M48.41,53.21a1,1,0,0,0,.38.17.61.61,0,0,0,.45-.1A1.76,1.76,0,0,0,50,51.9.77.77,0,0,0,49,51.26,9.59,9.59,0,0,0,48.41,53.21Z"/><path class="cls-42" d="M48.12,52.66a1.79,1.79,0,0,1,.8-1.38.57.57,0,0,1,.57-.05h0l.17.1-1.19,1.91-.11-.06A.57.57,0,0,1,48.12,52.66Z"/><path class="cls-13" d="M48.29,52.76c0,.51.36.71.8.46a1.77,1.77,0,0,0,.8-1.38c0-.51-.36-.71-.8-.45A1.75,1.75,0,0,0,48.29,52.76Z"/><path class="cls-11" d="M48.26,47.93a1,1,0,0,0,.38.17.67.67,0,0,0,.45-.1,1.77,1.77,0,0,0,.8-1.38A.76.76,0,0,0,48.81,46,9.59,9.59,0,0,0,48.26,47.93Z"/><path class="cls-43" d="M48,47.38a1.77,1.77,0,0,1,.8-1.38.57.57,0,0,1,.57-.06h0l.17.11L48.32,48l-.11-.06A.55.55,0,0,1,48,47.38Z"/><path class="cls-13" d="M48.14,47.48c0,.51.35.71.8.46a1.76,1.76,0,0,0,.79-1.38c0-.51-.35-.71-.79-.46A1.76,1.76,0,0,0,48.14,47.48Z"/><path class="cls-11" d="M42.3,61.09a1.14,1.14,0,0,0,.38.18.72.72,0,0,0,.45-.1,1.79,1.79,0,0,0,.8-1.38.75.75,0,0,0-1.07-.64A9.52,9.52,0,0,0,42.3,61.09Z"/><path class="cls-44" d="M42,60.55a1.73,1.73,0,0,1,.8-1.38.56.56,0,0,1,.56-.06h0l.18.11-1.2,1.91-.1-.07A.54.54,0,0,1,42,60.55Z"/><path class="cls-13" d="M42.18,60.65c0,.51.36.71.8.45a1.75,1.75,0,0,0,.8-1.37c0-.51-.36-.71-.8-.46A1.77,1.77,0,0,0,42.18,60.65Z"/><path class="cls-11" d="M43.85,47.17a.93.93,0,0,0,.38.17.59.59,0,0,0,.44-.1,1.77,1.77,0,0,0,.8-1.38.75.75,0,0,0-1.07-.64A9.59,9.59,0,0,0,43.85,47.17Z"/><path class="cls-45" d="M43.56,46.62a1.79,1.79,0,0,1,.8-1.38.55.55,0,0,1,.56-.05h0l.18.1L43.91,47.2l-.11-.06A.55.55,0,0,1,43.56,46.62Z"/><path class="cls-13" d="M43.72,46.72c0,.51.36.71.8.46a1.77,1.77,0,0,0,.8-1.38c0-.51-.36-.71-.8-.45A1.75,1.75,0,0,0,43.72,46.72Z"/><path class="cls-46" d="M155.89,55.84c0-5.63-4-12.48-8.89-15.31-2.46-1.42-4.68-1.55-6.29-.63h0l-2,1.21L152,62.3l1.18-.71C154.87,60.7,155.9,58.71,155.89,55.84Z"/><ellipse class="cls-8" cx="145.17" cy="51.86" rx="7.23" ry="12.52" transform="translate(-6.31 80.47) rotate(-30.36)"/><path class="cls-47" d="M152,56.63c0-4.83-3.42-10.71-7.63-13.14-2.11-1.21-4-1.33-5.4-.54h0L96,67.8l11,18.39,42.72-24.62C151.16,60.8,152,59.09,152,56.63Z"/><ellipse class="cls-6" cx="101.14" cy="77.23" rx="6.2" ry="10.74" transform="translate(-25.16 61.7) rotate(-30.36)"/><path class="cls-48" d="M110.94,81.78c0-5.63-4-12.48-8.89-15.31-2.46-1.42-4.68-1.55-6.29-.63h0l-2,1.21,13.27,21.19,1.18-.71C109.92,86.64,111,84.65,110.94,81.78Z"/><path class="cls-49" d="M109.11,82.92c0,5.63-4,7.9-8.88,5.07s-8.89-9.68-8.89-15.31,4-7.9,8.87-5.07S109.1,77.29,109.11,82.92Z"/><path class="cls-50" d="M103.44,85.36a4.94,4.94,0,0,1-2.39-.76A14.2,14.2,0,0,1,94.7,73.67c0-1,.22-3.43,2.3-3.43a5,5,0,0,1,2.4.77,14.21,14.21,0,0,1,6.35,10.92C105.75,83,105.53,85.36,103.44,85.36Z"/><path class="cls-10" d="M105.75,81.93A14.21,14.21,0,0,0,99.4,71a6,6,0,0,0-.76-.38c-2,.38-2.25,2.64-2.24,3.67,0,3.78,2.8,8.46,6.39,11a3.07,3.07,0,0,0,.65.07C105.53,85.36,105.75,83,105.75,81.93Z"/><path class="cls-11" d="M105,74.62a1.2,1.2,0,0,1-.48.22.86.86,0,0,1-.57-.13,2.23,2.23,0,0,1-1-1.75,1,1,0,0,1,1.37-.81A12.22,12.22,0,0,1,105,74.62Z"/><path class="cls-51" d="M105.33,73.93a2.26,2.26,0,0,0-1-1.76.74.74,0,0,0-.72-.07h0l-.22.14,1.52,2.42.13-.08A.69.69,0,0,0,105.33,73.93Z"/><path class="cls-13" d="M105.12,74.06c0,.64-.46.9-1,.58a2.25,2.25,0,0,1-1-1.75c0-.65.45-.91,1-.58A2.23,2.23,0,0,1,105.12,74.06Z"/><path class="cls-11" d="M107.81,80.75a1.2,1.2,0,0,1-.48.22.86.86,0,0,1-.57-.13,2.23,2.23,0,0,1-1-1.75,1,1,0,0,1,1.36-.81A12,12,0,0,1,107.81,80.75Z"/><path class="cls-52" d="M108.18,80.05a2.26,2.26,0,0,0-1-1.75.71.71,0,0,0-.72-.07h0l-.22.14,1.52,2.42.13-.08A.7.7,0,0,0,108.18,80.05Z"/><path class="cls-13" d="M108,80.18c0,.65-.45.91-1,.58a2.22,2.22,0,0,1-1-1.75c0-.64.45-.9,1-.58A2.26,2.26,0,0,1,108,80.18Z"/><path class="cls-11" d="M107,87.36a1.31,1.31,0,0,1-.48.23.86.86,0,0,1-.57-.13,2.26,2.26,0,0,1-1-1.75,1,1,0,0,1,1.37-.82A12.22,12.22,0,0,1,107,87.36Z"/><path class="cls-53" d="M107.4,86.67a2.24,2.24,0,0,0-1-1.75.71.71,0,0,0-.72-.07h0l-.22.14L107,87.41l.14-.08A.7.7,0,0,0,107.4,86.67Z"/><path class="cls-13" d="M107.19,86.8c0,.65-.46.91-1,.58a2.24,2.24,0,0,1-1-1.75c0-.64.46-.9,1-.58A2.24,2.24,0,0,1,107.19,86.8Z"/><path class="cls-11" d="M97.25,83.7a1.38,1.38,0,0,1-.48.22.86.86,0,0,1-.57-.13,2.23,2.23,0,0,1-1-1.75,1,1,0,0,1,1.36-.82A12.16,12.16,0,0,1,97.25,83.7Z"/><path class="cls-54" d="M97.62,83a2.24,2.24,0,0,0-1-1.75.71.71,0,0,0-.72-.07h0l-.22.14,1.52,2.42.13-.08A.7.7,0,0,0,97.62,83Z"/><path class="cls-13" d="M97.41,83.13c0,.65-.46.91-1,.58a2.22,2.22,0,0,1-1-1.75c0-.64.45-.9,1-.58A2.26,2.26,0,0,1,97.41,83.13Z"/><path class="cls-11" d="M94.37,77.93a1.2,1.2,0,0,1-.48.22.85.85,0,0,1-.57-.13,2.23,2.23,0,0,1-1-1.75,1,1,0,0,1,1.37-.81A12.22,12.22,0,0,1,94.37,77.93Z"/><path class="cls-55" d="M94.74,77.24a2.26,2.26,0,0,0-1-1.76.74.74,0,0,0-.72-.07h0l-.22.14L94.29,78l.14-.08A.69.69,0,0,0,94.74,77.24Z"/><path class="cls-13" d="M94.53,77.37c0,.64-.46.9-1,.58a2.26,2.26,0,0,1-1-1.75c0-.65.46-.91,1-.58A2.23,2.23,0,0,1,94.53,77.37Z"/><path class="cls-11" d="M94.56,71.22a1.49,1.49,0,0,1-.49.22.83.83,0,0,1-.56-.13,2.24,2.24,0,0,1-1-1.75,1,1,0,0,1,1.37-.82A12.16,12.16,0,0,1,94.56,71.22Z"/><path class="cls-56" d="M94.92,70.52a2.23,2.23,0,0,0-1-1.75.71.71,0,0,0-.72-.07h0l-.23.14,1.52,2.42.14-.08A.69.69,0,0,0,94.92,70.52Z"/><path class="cls-13" d="M94.71,70.65c0,.65-.45.91-1,.58a2.23,2.23,0,0,1-1-1.75c0-.64.45-.9,1-.58A2.23,2.23,0,0,1,94.71,70.65Z"/><path class="cls-11" d="M102.14,88a1.2,1.2,0,0,1-.48.22.85.85,0,0,1-.57-.13,2.24,2.24,0,0,1-1-1.75,1,1,0,0,1,1.37-.81A12,12,0,0,1,102.14,88Z"/><path class="cls-57" d="M102.51,87.25a2.26,2.26,0,0,0-1-1.75.71.71,0,0,0-.72-.07h0l-.22.14L102.06,88l.14-.08A.7.7,0,0,0,102.51,87.25Z"/><path class="cls-13" d="M102.3,87.38c0,.65-.46.91-1,.58a2.23,2.23,0,0,1-1-1.75c0-.64.46-.9,1-.58A2.26,2.26,0,0,1,102.3,87.38Z"/><path class="cls-11" d="M100.17,70.25a1.29,1.29,0,0,1-.49.22.83.83,0,0,1-.56-.13,2.24,2.24,0,0,1-1-1.75,1,1,0,0,1,1.37-.82A12.16,12.16,0,0,1,100.17,70.25Z"/><path class="cls-58" d="M100.53,69.55a2.25,2.25,0,0,0-1-1.75.71.71,0,0,0-.72-.07h0l-.23.14,1.52,2.42.14-.08A.69.69,0,0,0,100.53,69.55Z"/><path class="cls-13" d="M100.32,69.68c0,.65-.45.91-1,.58a2.23,2.23,0,0,1-1-1.75c0-.64.45-.9,1-.58A2.25,2.25,0,0,1,100.32,69.68Z"/><path class="cls-59" d="M110.29,81.89c0-5.63-4-12.48-8.89-15.31C98.94,65.16,96.71,65,95.11,66h0l-2,1.21,13.28,21.19,1.18-.71C109.26,86.75,110.29,84.75,110.29,81.89Z"/><ellipse class="cls-8" cx="99.57" cy="77.91" rx="7.23" ry="12.52" transform="translate(-25.72 61) rotate(-30.36)"/><path class="cls-60" d="M106.44,82.68a16.82,16.82,0,0,0-7.63-13.14c-2.11-1.22-4-1.33-5.4-.54h0l-43,24.85,11,18.39,42.72-24.62C105.56,86.85,106.44,85.14,106.44,82.68Z"/><ellipse class="cls-6" cx="55.54" cy="103.28" rx="6.2" ry="10.74" transform="matrix(0.86, -0.51, 0.51, 0.86, -44.58, 42.23)"/><path class="cls-61" d="M65.34,107.83c0-5.63-4-12.48-8.89-15.31C54,91.1,51.76,91,50.16,91.89h0l-2,1.21,13.28,21.19,1.18-.71C64.31,112.69,65.34,110.7,65.34,107.83Z"/><path class="cls-49" d="M63.51,109c0,5.63-4,7.9-8.88,5.07s-8.89-9.68-8.9-15.31,4-7.9,8.88-5.07S63.5,103.34,63.51,109Z"/><path class="cls-62" d="M57.84,111.41a4.94,4.94,0,0,1-2.39-.76A14.2,14.2,0,0,1,49.1,99.72c0-1,.22-3.43,2.3-3.43a4.94,4.94,0,0,1,2.39.76A14.21,14.21,0,0,1,60.14,108C60.15,109,59.92,111.41,57.84,111.41Z"/><path class="cls-10" d="M60.14,108a14.21,14.21,0,0,0-6.35-10.93,6.5,6.5,0,0,0-.75-.37c-2,.38-2.25,2.64-2.25,3.67,0,3.78,2.81,8.46,6.4,11a3.69,3.69,0,0,0,.65.07C59.92,111.41,60.15,109,60.14,108Z"/><path class="cls-11" d="M59.36,100.67a1.2,1.2,0,0,1-.48.22.86.86,0,0,1-.57-.13,2.24,2.24,0,0,1-1-1.75,1,1,0,0,1,1.37-.81A12,12,0,0,1,59.36,100.67Z"/><path class="cls-63" d="M59.73,100a2.26,2.26,0,0,0-1-1.75.74.74,0,0,0-.72-.07h0l-.22.14,1.51,2.42.14-.08A.7.7,0,0,0,59.73,100Z"/><path class="cls-13" d="M59.52,100.11c0,.64-.46.9-1,.58a2.26,2.26,0,0,1-1-1.76c0-.64.46-.9,1-.58A2.26,2.26,0,0,1,59.52,100.11Z"/><path class="cls-11" d="M62.21,106.8a1.38,1.38,0,0,1-.48.22.86.86,0,0,1-.57-.13,2.24,2.24,0,0,1-1-1.75,1,1,0,0,1,1.37-.82A12.16,12.16,0,0,1,62.21,106.8Z"/><path class="cls-64" d="M62.58,106.1a2.24,2.24,0,0,0-1-1.75.71.71,0,0,0-.72-.07h0l-.22.14,1.51,2.42.14-.08A.7.7,0,0,0,62.58,106.1Z"/><path class="cls-13" d="M62.37,106.23c0,.65-.46.91-1,.58a2.23,2.23,0,0,1-1-1.75c0-.64.46-.9,1-.58A2.26,2.26,0,0,1,62.37,106.23Z"/><path class="cls-11" d="M61.43,113.41a1.31,1.31,0,0,1-.48.23.85.85,0,0,1-.57-.13,2.26,2.26,0,0,1-1-1.75,1,1,0,0,1,1.37-.82A12.22,12.22,0,0,1,61.43,113.41Z"/><path class="cls-65" d="M61.79,112.72a2.23,2.23,0,0,0-1-1.75.71.71,0,0,0-.72-.07h0l-.23.13,1.52,2.43.14-.08A.69.69,0,0,0,61.79,112.72Z"/><path class="cls-13" d="M61.58,112.85c0,.64-.45.9-1,.58a2.24,2.24,0,0,1-1-1.75c0-.64.46-.9,1-.58A2.23,2.23,0,0,1,61.58,112.85Z"/><path class="cls-11" d="M51.65,109.74a1.31,1.31,0,0,1-.48.23.86.86,0,0,1-.57-.13,2.24,2.24,0,0,1-1-1.75,1,1,0,0,1,1.37-.82A12.22,12.22,0,0,1,51.65,109.74Z"/><path class="cls-66" d="M52,109.05a2.24,2.24,0,0,0-1-1.75.71.71,0,0,0-.72-.07h0l-.22.14,1.51,2.42.14-.08A.7.7,0,0,0,52,109.05Z"/><path class="cls-13" d="M51.81,109.18c0,.65-.46.91-1,.58a2.24,2.24,0,0,1-1-1.75c0-.64.46-.9,1-.58A2.24,2.24,0,0,1,51.81,109.18Z"/><path class="cls-11" d="M48.77,104a1.29,1.29,0,0,1-.49.22.83.83,0,0,1-.56-.13,2.24,2.24,0,0,1-1-1.75,1,1,0,0,1,1.37-.81A12,12,0,0,1,48.77,104Z"/><path class="cls-67" d="M49.13,103.28a2.25,2.25,0,0,0-1-1.75.74.74,0,0,0-.72-.07h0l-.23.14L48.69,104l.14-.08A.69.69,0,0,0,49.13,103.28Z"/><path class="cls-13" d="M48.92,103.42c0,.64-.45.9-1,.58a2.26,2.26,0,0,1-1-1.76c0-.64.45-.9,1-.58A2.25,2.25,0,0,1,48.92,103.42Z"/><path class="cls-11" d="M49,97.26a1.41,1.41,0,0,1-.49.23.86.86,0,0,1-.57-.13,2.25,2.25,0,0,1-1-1.75,1,1,0,0,1,1.36-.82A12.77,12.77,0,0,1,49,97.26Z"/><path class="cls-68" d="M49.32,96.57a2.21,2.21,0,0,0-1-1.75.71.71,0,0,0-.72-.07h0l-.22.14,1.52,2.42.13-.08A.7.7,0,0,0,49.32,96.57Z"/><path class="cls-13" d="M49.11,96.7c0,.65-.45.9-1,.58a2.21,2.21,0,0,1-1-1.75c0-.64.45-.9,1-.58A2.21,2.21,0,0,1,49.11,96.7Z"/><path class="cls-11" d="M56.54,114a1.49,1.49,0,0,1-.49.22.83.83,0,0,1-.56-.13,2.24,2.24,0,0,1-1-1.75,1,1,0,0,1,1.37-.82A12.16,12.16,0,0,1,56.54,114Z"/><path class="cls-69" d="M56.9,113.3a2.23,2.23,0,0,0-1-1.75.71.71,0,0,0-.72-.07h0l-.23.14L56.46,114l.14-.08A.69.69,0,0,0,56.9,113.3Z"/><path class="cls-13" d="M56.69,113.43c0,.65-.45.91-1,.58a2.23,2.23,0,0,1-1-1.75c0-.64.45-.9,1-.58A2.23,2.23,0,0,1,56.69,113.43Z"/><path class="cls-11" d="M54.56,96.3a1.38,1.38,0,0,1-.48.22.86.86,0,0,1-.57-.13,2.23,2.23,0,0,1-1-1.75,1,1,0,0,1,1.36-.82A12.16,12.16,0,0,1,54.56,96.3Z"/><path class="cls-70" d="M54.93,95.6a2.24,2.24,0,0,0-1-1.75.71.71,0,0,0-.72-.07h0l-.22.14,1.52,2.42.13-.08A.7.7,0,0,0,54.93,95.6Z"/><path class="cls-13" d="M54.72,95.73c0,.65-.45.91-1,.58a2.21,2.21,0,0,1-1-1.75c0-.64.45-.9,1-.58A2.24,2.24,0,0,1,54.72,95.73Z"/><path class="cls-71" d="M35,56.83a15.87,15.87,0,0,1,7.1-12.49c2-1.16,3.79-1.29,5.1-.55h0l1.6,1L38.18,62l-1-.56C35.87,60.76,35,59.15,35,56.83Z"/><ellipse class="cls-8" cx="43.67" cy="53.52" rx="10.16" ry="5.87" transform="translate(-24.49 64.76) rotate(-60.15)"/><path class="cls-72" d="M57.17,94.85a15.87,15.87,0,0,0,14.36,0c2-1.15,3-2.66,3-4.16h0l-.06-1.86-20.28.69,0,1.12C54.17,92.16,55.15,93.69,57.17,94.85Z"/><ellipse class="cls-73" cx="64.32" cy="88.95" rx="10.16" ry="5.87" transform="translate(-0.4 0.29) rotate(-0.26)"/><path class="cls-74" d="M67.58,57.48a17.39,17.39,0,0,0-3-2.15l-16-9.08a3.28,3.28,0,0,0-1.75-.39,5.74,5.74,0,0,0-2.63.87l-.27.16a11.21,11.21,0,0,0-2.58,2.32,14.61,14.61,0,0,0-3,6.15,9.44,9.44,0,0,0-.22,2.08c0,2,.74,3.38,1.9,4,0,0,5.65,3.16,10,5.65a3.3,3.3,0,0,1,1,.85q2.19-1.49,4.36-3c.07,2,.13,4.1.17,6a.48.48,0,0,1,.39.42,32.16,32.16,0,0,1,.49,4.25,18.86,18.86,0,0,1-.45,4,.48.48,0,0,1-.34.41c0,4.18,0,8.2,0,8.2,0,1.31.8,2.63,2.53,3.63a10.13,10.13,0,0,0,1.92.84,14.72,14.72,0,0,0,6.84.4,11.87,11.87,0,0,0,3.3-1.1l.27-.15a5.78,5.78,0,0,0,2-1.86,3.19,3.19,0,0,0,.52-1.72V69.87A16.46,16.46,0,0,0,67.58,57.48Z"/><path class="cls-75" d="M66.8,58.73v0a5.9,5.9,0,0,0-.7-.5,17,17,0,0,0-2.44-1.69L45.79,46.43a5.35,5.35,0,0,0-1.83.46,11.21,11.21,0,0,0-2.58,2.32,14.61,14.61,0,0,0-3,6.15,9.44,9.44,0,0,0-.22,2.08c0,2,.74,3.38,1.9,4,0,0,5.65,3.16,10,5.65.23.13,4.7,1.72,8.66,3.17-.71.89-1.44,1.76-2.18,2.62v1.24c0,1.25,0,2.51,0,3.76a.57.57,0,0,1-.57.58.57.57,0,0,1-.29.39c0,4.57-.05,9.36-.05,9.36,0,1.31.8,2.63,2.53,3.63a10.13,10.13,0,0,0,1.92.84,14.72,14.72,0,0,0,6.84.4,11.87,11.87,0,0,0,3.3-1.1,5.36,5.36,0,0,0,1.3-1.37V70.06A15.68,15.68,0,0,0,66.8,58.73Z"/><path class="cls-76" d="M59.91,59.74,41.38,49.21a14.61,14.61,0,0,0-3,6.15,9.44,9.44,0,0,0-.22,2.08c0,2,.74,3.38,1.9,4,0,0,5.73,2.53,10.07,4.91a.68.68,0,0,1,.32,0,6.78,6.78,0,0,1,2.43.91.49.49,0,0,1,.56.16c.18.22.37.47.56.72,2.54,2.48,3.25,6.88,3.38,10.19a.61.61,0,0,1-1.19.17c-.09-.47-.2-.94-.31-1.4l-.15,0c0,5-.05,11.09-.05,11.09,0,1.31.8,2.63,2.53,3.63a10.13,10.13,0,0,0,1.92.84,14.72,14.72,0,0,0,6.84.4V73.56C66.94,63.8,60.52,60.08,59.91,59.74Z"/><path class="cls-77" d="M53,63.82s-2.17-1.41-3.39-2L38.35,55.36a9.44,9.44,0,0,0-.22,2.08c0,2,.74,3.38,1.9,4,0,0,5.65,3.16,10,5.65.41.23.64.63,1,.85,5.23,3.32,4.63,4.64,4.63,5.43,0,5.06-.05,14.84-.05,14.84,0,1.31.8,2.63,2.53,3.63a10.13,10.13,0,0,0,1.92.84V75.87C60.1,70.86,58.4,67.58,53,63.82Z"/></g></g></g></svg>