<svg xmlns="http://www.w3.org/2000/svg" viewBox="0 0 18.84 18.78"><defs><style>.cls-1{isolation:isolate;}.cls-2{fill:#313137;}.cls-3{fill:#28282d;opacity:0.2;mix-blend-mode:multiply;}</style></defs><title>røyk_03</title><g class="cls-1"><g id="Layer_2" data-name="Layer 2"><g id="Layer_1-2" data-name="Layer 1"><path class="cls-2" d="M.88,9.73c-2.43-5.41.68-7.21,3.23-8.24C5.51.92,7.89,1.37,8.58,2.8c-1.12-4.93,7.18-2.44,7.1.49A2.6,2.6,0,0,1,17.75,4,2.63,2.63,0,0,1,18,7.36a1.59,1.59,0,0,1,.88,1.53,4,4,0,0,1-.57,1.77A5.69,5.69,0,0,1,16,13.27a2.44,2.44,0,0,1-2.89-.41h0a3.4,3.4,0,0,1-.27,3.33,5.72,5.72,0,0,1-3.09,2.17,7.09,7.09,0,0,1-5.15-.15,4.93,4.93,0,0,1-2.86-3.78A4.41,4.41,0,0,1,.21,12.37,2.91,2.91,0,0,1,.88,9.73Z"/><path class="cls-3" d="M.88,9.73c-2.43-5.41.68-7.21,3.23-8.24C5.43,1,7.62,1.32,8.44,2.56a.93.93,0,0,1,0,.75c-1.3-1.56-3.39-.78-5,0A4.62,4.62,0,0,0,1.7,5.39c-.26,2.09.52,4.69,2.86,5.21-2.08,0-1.56,2.6-1,3.38,1.82,3.41,7.61,4.43,9.74,1.34a3.56,3.56,0,0,1-.42.88,5.72,5.72,0,0,1-3.09,2.17,7.09,7.09,0,0,1-5.15-.15,4.93,4.93,0,0,1-2.86-3.78A4.41,4.41,0,0,1,.21,12.37,2.91,2.91,0,0,1,.88,9.73Z"/></g></g></g></svg>