<svg xmlns="http://www.w3.org/2000/svg" viewBox="0 0 46.54 75.22"><defs><style>.cls-1{isolation:isolate;}.cls-2{fill:#313137;}.cls-3{fill:#28282d;opacity:0.2;mix-blend-mode:multiply;}</style></defs><title>røyk_02</title><g class="cls-1"><g id="Layer_2" data-name="Layer 2"><g id="Layer_1-2" data-name="Layer 1"><path class="cls-2" d="M5.82,42.46a4.81,4.81,0,0,1,1.52-2.94A6.56,6.56,0,0,0,9.2,37c-.15.3-2.12-2.45-2.23-2.73a8.75,8.75,0,0,1-.7-3.87,1.87,1.87,0,0,1,0-.25c.57-3.7,4.36-6.41,8.1-6.31-.06-3.43.32-7.29,3-9.5a7.78,7.78,0,0,1,6.45-1.43,12,12,0,0,1,3.56,1.37c.73.42,1.86,1.94,2.34,2.14,1.94.78,4-1.31,6.07-.51s3.73,1.2,4.59,3.28a6.73,6.73,0,0,1,0,5,8.78,8.78,0,0,1,5.55,3.29c2.18,3.84-1.58,8-4.94,9.22,1.46.13,2.28-.14,3.23,1.15,1.27,1.72,1.39,4.54,1,6.57-.63,3.6-3.34,5.07-6.5,5.89l0,0c2.46.6,3,3.78,2.71,6s-1.77,3.71-3.15,5.21A16.13,16.13,0,0,1,34.17,65l-.63.33a8.48,8.48,0,0,0-.94,3.73c0,.31,0,.64,0,1h-.06a11.63,11.63,0,0,1-2.75,3.84,4.28,4.28,0,0,1-2.35,1.28,3.61,3.61,0,0,1-3.38-2c-.82-1.49-.3-3.44-1.78-4.26-1.74-1-3.6-1-4.66-3a4.24,4.24,0,0,1-.26-3.38,9.44,9.44,0,0,1-6-10A9.46,9.46,0,0,1,5.82,42.46Z"/><path class="cls-3" d="M5.82,42.46a4.81,4.81,0,0,1,1.52-2.94A6.56,6.56,0,0,0,9.2,37c-.15.3-2.12-2.45-2.23-2.73a8.75,8.75,0,0,1-.7-3.87,1.87,1.87,0,0,1,0-.25c.57-3.7,4.36-6.41,8.1-6.31-.06-3.43.32-7.29,3-9.5l.07,0c-1.32,2.5,1.52,5.67,3,8-2.86,1.3-6.5,3.38-6,7.28.52,1.83,3.12,3.39,2.6,3.91-2.86,3.9-3.9,10.14,1,12.48a8.48,8.48,0,0,0,6,12c-1.82,1-1.56,3.12-.52,4.68A10,10,0,0,0,27.45,66a7.1,7.1,0,0,0,6-.46,8.58,8.58,0,0,0-.85,3.56c0,.31,0,.64,0,1h-.06a11.63,11.63,0,0,1-2.75,3.84,4.28,4.28,0,0,1-2.35,1.28,3.61,3.61,0,0,1-3.38-2c-.82-1.49-.3-3.44-1.78-4.26-1.74-1-3.6-1-4.66-3a4.24,4.24,0,0,1-.26-3.38,9.44,9.44,0,0,1-6-10A9.46,9.46,0,0,1,5.82,42.46Z"/><path class="cls-2" d="M.88,9.73c-2.43-5.41.68-7.21,3.23-8.24C5.51.92,7.89,1.37,8.58,2.8c-1.12-4.93,7.18-2.44,7.1.49A2.6,2.6,0,0,1,17.75,4,2.63,2.63,0,0,1,18,7.36a1.59,1.59,0,0,1,.88,1.53,4,4,0,0,1-.57,1.77A5.69,5.69,0,0,1,16,13.27a2.44,2.44,0,0,1-2.89-.41h0a3.4,3.4,0,0,1-.27,3.33,5.72,5.72,0,0,1-3.09,2.17,7.09,7.09,0,0,1-5.15-.15,4.93,4.93,0,0,1-2.86-3.78A4.41,4.41,0,0,1,.21,12.37,2.91,2.91,0,0,1,.88,9.73Z"/><path class="cls-3" d="M.88,9.73c-2.43-5.41.68-7.21,3.23-8.24C5.43,1,7.62,1.32,8.44,2.56a.93.93,0,0,1,0,.75c-1.3-1.56-3.39-.78-5,0A4.62,4.62,0,0,0,1.7,5.39c-.26,2.09.52,4.69,2.86,5.21-2.08,0-1.56,2.6-1,3.38,1.82,3.41,7.61,4.43,9.74,1.34a3.56,3.56,0,0,1-.42.88,5.72,5.72,0,0,1-3.09,2.17,7.09,7.09,0,0,1-5.15-.15,4.93,4.93,0,0,1-2.86-3.78A4.41,4.41,0,0,1,.21,12.37,2.91,2.91,0,0,1,.88,9.73Z"/></g></g></g></svg>