<svg xmlns="http://www.w3.org/2000/svg" viewBox="0 0 48.79 74.6"><defs><style>.cls-1{isolation:isolate;}.cls-2{fill:#313137;}.cls-3{fill:#28282d;opacity:0.2;mix-blend-mode:multiply;}</style></defs><title>røyk_01</title><g class="cls-1"><g id="Layer_2" data-name="Layer 2"><g id="Layer_1-2" data-name="Layer 1"><path class="cls-2" d="M48.65,35.46A5.77,5.77,0,0,0,46.83,32a7.8,7.8,0,0,1-2.22-3c.17.36,2.53-2.93,2.66-3.27a10.36,10.36,0,0,0,.83-4.62c0-.1,0-.2,0-.3-.68-4.41-5.21-7.65-9.68-7.53.07-4.1-.38-8.71-3.53-11.35A9.32,9.32,0,0,0,27.15.2a14.15,14.15,0,0,0-4.26,1.64c-.87.5-2.21,2.32-2.79,2.55-2.32.93-4.82-1.56-7.25-.6S8.39,5.22,7.37,7.7a8,8,0,0,0,0,6C4.84,14,1.64,16.11.77,17.62c-2.6,4.58,1.88,9.56,5.9,11C4.92,28.79,4,28.46,2.81,30c-1.51,2.05-1.66,5.41-1.24,7.84.75,4.3,4,6.06,7.76,7l.06,0c-2.93.71-3.63,4.52-3.23,7.13s2.11,4.44,3.76,6.22a19.37,19.37,0,0,0,4.86,4.17l.76.39a10.12,10.12,0,0,1,1.12,4.46c0,.37,0,.76,0,1.16h.07A14,14,0,0,0,20,73a5.12,5.12,0,0,0,2.81,1.53,4.3,4.3,0,0,0,4-2.41c1-1.78.37-4.12,2.14-5.09,2.08-1.14,4.29-1.25,5.56-3.6a5,5,0,0,0,.3-4,11.29,11.29,0,0,0,7.16-12A11.32,11.32,0,0,0,48.65,35.46Z"/><path class="cls-3" d="M48.65,35.46A5.77,5.77,0,0,0,46.83,32a7.8,7.8,0,0,1-2.22-3c.17.36,2.53-2.93,2.66-3.27a10.36,10.36,0,0,0,.83-4.62c0-.1,0-.2,0-.3-.68-4.41-5.21-7.65-9.68-7.53.07-4.1-.38-8.71-3.53-11.35l-.08-.06c1.57,3-1.82,6.77-3.58,9.53,3.42,1.56,7.77,4,7.15,8.7-.62,2.18-3.73,4-3.11,4.66C38.65,29.4,39.89,36.86,34,39.66A10.12,10.12,0,0,1,26.84,54c2.18,1.24,1.87,3.73.62,5.59a11.8,11.8,0,0,1-4.66,4A8.45,8.45,0,0,1,15.64,63a10.26,10.26,0,0,1,1,4.26c0,.37,0,.76,0,1.16h.07A14.09,14.09,0,0,0,20,73a5.12,5.12,0,0,0,2.81,1.53,4.3,4.3,0,0,0,4-2.41c1-1.78.37-4.12,2.14-5.09,2.08-1.14,4.29-1.25,5.56-3.6a5,5,0,0,0,.3-4,11.29,11.29,0,0,0,7.16-12A11.32,11.32,0,0,0,48.65,35.46Z"/></g></g></g></svg>