<?xml version="1.0" encoding="utf-8"?>
<!-- Generator: Adobe Illustrator 24.0.0, SVG Export Plug-In . SVG Version: 6.00 Build 0)  -->
<svg version="1.1" id="Layer_1" xmlns="http://www.w3.org/2000/svg" xmlns:xlink="http://www.w3.org/1999/xlink" x="0px" y="0px"
	 viewBox="0 0 322.6 348.5" style="enable-background:new 0 0 322.6 348.5;" xml:space="preserve">
<style type="text/css">
	.st0{fill:#C66700;}
	.st1{fill:#E27600;}
	.st2{fill:#AD5A00;}
	.st3{fill:#DB7100;}
	.st4{fill:#343434;}
</style>
<title>verden_01</title>
<g>
	<g id="Layer_2_1_">
		<g id="Layer_1-2">
			<path class="st0" d="M306.3,168.1l-0.2,0.1l-1,0.6c-4.5,2.8-9.4,5.1-14.5,6.6c-3.4,1-8.3,0.4-11.1,2.9c-0.1,0.1-0.3,0.3-0.4,0.4
				l-0.1,0.1c-0.1,0.1-0.2,0.3-0.3,0.4c-0.6,1.4,0.1,2.8-1.1,4.1c-1.4,1.6-4.2,1.9-6.1,2.4c-4.3,1.1-8.2,3.4-11.3,6.6
				c-3,3.2-5.2,7.2-8.6,10s-8.3,4.5-11.4,1.4c-3.6-0.4-7.7-0.6-10.5,1.8c-1.4,1.2-2.3,3-3.6,4.3c-2.1,2-5,2.8-7.8,3.6
				c-10,2.9-19.6,7.3-28.4,13c-4.1,2.7-8.2,5.7-12.1,8.5c-1.8,1.3-3.1,3-3.9,5.1c-0.6,1.5-0.2,3.2-1,4.6c-0.8,1.1-1.8,2.1-2.9,3
				c-3.1,3-5.2,2.8-9.3,2.3c-1.2-0.1-2.4,0-3.5,0.4c-2.6,0.5-5.2-0.6-6.6-2.8c-1.9-2.3-4.3-4.2-6.9-5.6c-4-2.4-7.9-5.1-12.3-6.6
				c-1.1-0.4-2.2-0.6-3.3-0.9l0,0c-2-0.5-4-1-5.9-1.6h-0.1c-0.5-0.1-1-0.3-1.5-0.5l-0.5-0.2l-1.2-0.5l-0.5-0.2
				c-0.5-0.3-1-0.5-1.5-0.9c-3.3-2.1-5.8-5.5-9.3-7.3c-1-0.4-1.9-0.9-2.7-1.6c-0.2-0.2-0.4-0.4-0.5-0.6l-0.1-0.2
				c-0.1-0.1-0.2-0.3-0.2-0.4c0-0.1-0.1-0.1-0.1-0.2c0-0.1-0.1-0.3-0.1-0.4v-0.2c0-0.2,0-0.3,0-0.5c0,0,0,0,0-0.1
				c0-0.2,0-0.3,0.1-0.5c0-0.1,0-0.1,0-0.2s0-0.2,0.1-0.3s0-0.1,0.1-0.2s0.1-0.2,0.1-0.3l0.2-0.7l0,0c0.4-0.9,0.3-1.9-0.2-2.7
				c-1.8-2.8-5.9-1.1-8.5-1c-3.4,0.2-6.7-0.1-10-1c-6.6-1.9-12.1-6.7-16.4-12.1c-2.3-2.9-4.3-6-7.1-8.3c-9.8-8-25.3-3.9-36-10.8
				c-6-3.8-9.8-10.8-16.4-13.3s-9.7-3.2-9.9-10.7c-0.1,0,1.5,18.5,1.8,22.6c0.1,0.6,0.2,1.1,0.6,1.6c2.5,4,7.6,9.6,9.7,13.3
				c2.3,3.9,3.3,7.1,1.9,11.4c-0.1,0.3-0.2,0.7-0.2,1c0.1,0.3,0.2,0.6,0.4,0.8c0.8,1.1,1.5,2.1,2.3,3.2c0.1,0.2,0.3,0.4,0.5,0.5
				c0.2,0.1,0.4,0.1,0.6,0.1c1.5,0,3-0.4,4.3,0.2c4.1,1.8,5.4,10.7,6.5,14.4s3.3,32.4,2.5,36.2c2.3,0.9,4.4,2.3,6.1,4.1
				c1.4-1.1,3.1-1.8,4.8-2.3c1.2-0.3-0.8,10.8-0.8,11.3c0.1,0.9,0.3,1.8,0.7,2.6c-0.2,0.3-0.4,0.8-0.3,1.2c0,6.1,2.3,6.6,7.3,8.5
				s7.7,6.9,12,9.7c7.8,5,19.2,2,26.4,7.9c2.1,1.7,3.6,4,5.2,6.1c3.2,4,7.2,7.5,12,8.8c2.4,0.6,4.9,0.9,7.3,0.7
				c1.9-0.1,4.9-1.3,6.2,0.8c1.2,1.9-1.5,3.5,0.6,5.4c0.6,0.5,1.3,0.8,2,1.1c2.6,1.3,4.4,3.8,6.8,5.4c3.1,2,7,2.3,10.5,3.5
				c3.3,1.1,6.1,3.1,9,4.9c1.9,1,3.7,2.4,5.1,4.1c1.1,1.6,3,2.4,4.9,2.1c0.8-0.2,1.7-0.3,2.6-0.3c3,0.4,4.5,0.6,6.8-1.6
				c0.8-0.6,1.5-1.4,2.1-2.2c0.6-1,0.3-2.3,0.7-3.4c0.6-1.5,1.6-2.8,2.8-3.8c2.9-2.1,5.9-4.3,8.9-6.2c6.4-4.2,13.4-7.4,20.8-9.5
				c2-0.6,4.2-1.1,5.7-2.6c1-1,1.6-2.2,2.6-3.1c2-1.7,5-1.6,7.7-1.3c2.3,2.3,5.9,1,8.4-1s4.1-5,6.3-7.3c2.2-2.4,5.1-4,8.3-4.9
				c1.4-0.4,3.5-0.6,4.5-1.7s0-2.6,1.3-3.7c0.3-0.3,0.7-0.6,1.2-0.7c1.7-0.8,3.9-0.8,5.9-1.1h0.2c0.3-0.1,0.6-0.1,0.9-0.2
				c3.7-1.1,7.3-2.7,10.6-4.8c1.6-0.9,2.9-2.1,3.9-3.7c0.9-1.8,0.8-3.9,0.7-5.9c0-2.4-0.3-14.9,0.7-17c0.9-1.7,2.3-27.4,3.7-28.7
				c3.6-3.7,6.5-8,8.7-12.6c2.1-4.3,3.9-8.9,5.8-13.5c4.3-10.1,10.4-19.2,15.4-28.9c1.8-3.4,5.1-8.6,5-12.7
				C308.2,166.6,307.3,167.4,306.3,168.1z"/>
			<path class="st1" d="M149.7,66.6c-0.5,0.1-1,0.2-1.4,0.2c-0.3,0-0.5,0-0.8,0.1c-0.3,0.2-0.5,0.5-0.7,0.8
				c-5.1,9.1-17.4,6.6-25.3,11.4c-5.2,3.1-8.5,8.5-13.3,12.2c-3.5,2.7-7.7,4.4-11.7,6.5c-4.4,2.2-8.6,4.9-12.5,7.9
				c-1.8,1.4-4.6,3.1-5.9,5c-1,1.4-1.3,3.6-2,5.5c-0.3,0.7-7,2-7.9,2.3c-3.3,1.1-6.5,2.5-9.7,3.9c-11.1,5.1-20.3,14-32,17.2
				c-2.5,0.7-5.2,1.2-7.4,2.7c-3.8,2.5-5.5,7.2-9.2,9.8c-2.3,1.5-4.9,2.3-7.6,2.3c-0.6-0.1-1.2,0.1-1.7,0.4
				c-0.4,0.5-0.6,1.1-0.5,1.7c0,8.4,3.1,9,9.9,11.6c6.6,2.5,10.4,9.4,16.4,13.3c10.7,6.9,26.2,2.7,36,10.8c2.8,2.3,4.9,5.4,7.1,8.3
				c4.3,5.4,9.8,10.2,16.4,12.1c3.3,0.9,6.6,1.2,10,1c2.6-0.1,6.7-1.7,8.5,1c1.7,2.5-2.1,4.7,0.8,7.4c0.8,0.6,1.7,1.2,2.7,1.6
				c3.5,1.8,5.9,5.2,9.3,7.3c4.3,2.7,9.6,3.1,14.4,4.8c4.4,1.6,8.3,4.2,12.3,6.6c2.6,1.4,5,3.3,6.9,5.6c1.4,2.2,4.1,3.3,6.6,2.8
				c1.1-0.3,2.3-0.4,3.5-0.3c4.1,0.5,6.2,0.8,9.3-2.3c1.1-0.9,2.1-1.9,2.9-3c0.8-1.4,0.4-3.1,1-4.6c0.8-2.1,2.1-3.8,3.9-5.1
				c4-2.8,8-5.8,12.1-8.5c8.8-5.7,18.3-10.1,28.4-13c2.8-0.8,5.7-1.6,7.8-3.6c1.3-1.3,2.2-3.1,3.6-4.3c2.8-2.4,6.8-2.1,10.5-1.8
				c3.1,3.1,8,1.4,11.4-1.4s5.6-6.8,8.6-10c3.1-3.2,7-5.5,11.3-6.6c1.9-0.5,4.7-0.8,6.1-2.4s0-3.5,1.8-5.1c2.8-2.6,7.7-1.9,11.1-2.9
				c5.1-1.5,10-3.7,14.5-6.6c2.1-1.3,4.1-2.8,5.3-5c1.2-2.4,1.1-5.3,1-8l-25.2-14c-3.4-1.9-6.8-3.8-9.2-6.8
				c-2.6-3.2-3.8-7.3-6.2-10.6c-8.5-12-27.3-9.8-39.6-18c-4-2.7-7.2-6.4-11.1-9.1c-5.1-3.5-11.1-5.2-17.2-5.9
				c-1.7-0.2-15.6,0.3-15.4-1.8c0.7-3.9-0.6-7.9-3.5-10.6c-3.2-3-7.4-4.6-11.5-6.1c-3.4-1.2-7.5-2.1-10.1-4.4s-4.1-4.6-8-3.7
				C152.8,65.2,151.3,66.2,149.7,66.6z"/>
			<path class="st0" d="M254.6,293.5c3.7-1.1,7.3-2.7,10.6-4.8c1.6-0.9,2.9-2.1,3.9-3.7c0.3-0.6,0.5-1.2,0.6-1.8
				c0.1-1.3,0.1-2.6,0.1-4c0-2.4-0.3-14.9,0.7-17c0.9-1.7,2.3-27.4,3.7-28.7c3.6-3.7,6.5-8,8.7-12.6c2.1-4.3,3.9-8.9,5.8-13.5
				c4.3-10.1,10.4-19.2,15.4-28.9c1.8-3.4,5.1-8.6,5-12.7c-1.2,1.3-2.5,2.3-4,3.2c-4.5,2.8-9.4,5.1-14.5,6.6
				c-3.4,1-8.3,0.4-11.1,2.9c-1.7,1.6-0.4,3.4-1.8,5.1c-0.5,0.6-6.5,19.2-11.1,27.2c-2.1,3.6-4.5,7.2-5.5,11.3c-0.7,2.9-0.5,6-1.1,9
				c-1,4.9-3.8,33.5-6,38c-4.3,8.5-4.9,17.1-6.4,25.9C249.7,293.9,252.6,294.1,254.6,293.5z"/>
			<path class="st2" d="M233.7,304.9c1-4.4,1.9-8.9,2.9-13.4c1-4.8,1.8-10.4-1.6-13.9c-1.1-0.9-2.1-1.8-3.1-2.9
				c-0.7-1.1-1.2-2.3-1.4-3.6c-1.3-5.3-2.5-35.6,0.3-40.3c1.7-3,4.9-5.1,6.2-8.3c1-2.3,0.9-4.9,1-7.4c0.2-3.8,1.8-7.6,2-11.3h0.6
				c-3.6-0.4-7.7-0.6-10.5,1.8c-1.4,1.2-2.3,3-3.6,4.3c-0.6,0.6-1.3,1.1-2.1,1.5c-1.1,8.7-2.2,41.4-1.2,50.4
				c0.9,7.8,3.1,15.7,1.9,23.5c-1.1,7.2-5,13.5-7.6,20.3c-1.1,2.8-1.9,5.6-2.6,8.5c1,0,2,0,2.9,0.1c2.3,2.3,5.9,1,8.4-1
				s4.1-5,6.3-7.3C232.9,305.5,233.3,305.2,233.7,304.9L233.7,304.9z"/>
			<path class="st1" d="M247.6,294.9c1.5-8.8,2.2-17.4,6.4-25.9c2.2-4.5,5.1-33.1,6-38c0.6-3,0.4-6.1,1.1-9
				c0.9-4.1,3.4-7.7,5.5-11.3c4.6-8,10.6-26.6,11.1-27.2c-1.4,1.6-4.2,1.9-6.1,2.4c-4.3,1.1-8.2,3.4-11.3,6.6c-3,3.2-5.2,7.2-8.6,10
				s-8.3,4.5-11.4,1.4h-0.6c-0.1,3.7-1.8,7.5-2,11.3c-0.1,2.5,0,5.1-1,7.4c-1.3,3.2-4.5,5.3-6.2,8.3c-2.8,4.8-1.5,35-0.3,40.3
				c0.2,1.3,0.7,2.5,1.4,3.6c1,1,2,2,3.1,2.9c3.4,3.5,2.6,9.1,1.6,13.9c-1,4.4-1.9,8.9-2.9,13.4c2-1.8,4.5-3.1,7.1-3.8
				c1.4-0.4,3.5-0.6,4.5-1.7s0-2.6,1.3-3.7C246.8,295.4,247.1,295.1,247.6,294.9L247.6,294.9z"/>
			<path class="st3" d="M214.9,314.1c0.7-2.9,1.5-5.7,2.6-8.5c2.6-6.8,6.5-13.1,7.6-20.3c1.2-7.8-1-15.7-1.9-23.5
				c-1-9,0-41.7,1.2-50.4c-1.8,0.9-3.7,1.6-5.7,2.1c-10,2.9-19.6,7.3-28.4,13c-4.1,2.7-8.2,5.7-12.1,8.5c-1.8,1.3-3.1,3-3.9,5.1
				c-0.6,1.4-0.2,3.1-1,4.5c0.3,3.1,1.3,6.1,2.9,8.7c3.2,5,9.1,32.9,10.2,38.8c0.5,3-0.3,6-1.2,8.8c-1.1,3.8-2.2,7.5-3.3,11.3
				c-0.6,2-1.2,4-1.8,6c-0.8,2.6-1.5,5.2-2.3,7.8l-2.6,8.9c1.9-1.4,3.9-2.8,5.8-4c6.4-4.2,13.4-7.4,20.8-9.5c2-0.6,4.2-1.1,5.7-2.6
				c1-1,1.6-2.2,2.6-3.1C211.5,314.6,213.1,314.1,214.9,314.1L214.9,314.1z"/>
			<path class="st1" d="M175.2,334.9l2.6-8.9c0.8-2.6,1.5-5.2,2.3-7.8c0.6-2,1.2-4,1.8-6c1.1-3.8,2.2-7.5,3.3-11.3
				c0.8-2.9,1.7-5.9,1.2-8.8c-1-5.9-7-33.8-10.2-38.8c-1.6-2.7-2.6-5.6-2.9-8.7c0,0,0,0,0,0.1c-0.8,1.1-1.8,2.1-2.9,3
				c-3.1,3-5.2,5.2-9.3,4.7c-1.4-0.2-2.2-2.3-3.5-2.1c-2.6,0.5-5.2-0.6-6.6-2.8c-0.7-0.9-1.4-1.7-2.3-2.4c-0.3,1.3-0.7,2.6-1,3.7
				c-0.5,1.7-1.1,27.7-1.1,29.5c0,2.2,0.9,4.3,1.5,6.4c1.8,5.9,2.1,12.2,1,18.3c-0.4,1.7-0.7,3.4-0.7,5.1c0.1,3.3,2.8,6.7,6.1,6.5
				c1.6-0.1,3.6-0.8,4.6,0.4c0.7,0.9,0.5,2.1,0.2,3.2c-1.4,5.9-1.4,12.1-0.1,18l-9.9-0.1c0.3,2.2-0.2,4.5-1.6,6.4
				c1.7,1,3.2,2.2,4.5,3.7c1.1,1.6,3,2.4,4.9,2.1c0.8-0.2,1.7-0.3,2.6-0.3c3,0.4,4.5,0.6,6.8-1.6c0.8-0.6,1.5-1.4,2.1-2.2
				c0.6-1,0.3-2.3,0.7-3.4c0.6-1.5,1.6-2.8,2.8-3.8L175.2,334.9L175.2,334.9z"/>
			<path class="st0" d="M149.2,336.2l9.9,0.1c-1.4-5.9-1.3-12.1,0.1-18c0.3-1.1,0.5-2.4-0.2-3.2c-1-1.2-3-0.5-4.6-0.4
				c-3.3,0.1-5.9-3.3-6.1-6.5c0-1.7,0.3-3.4,0.7-5.1c1.2-6.1,0.8-12.4-1-18.3c-0.6-2.1-1.5-4.2-1.5-6.4c0-1.8,0.5-27.8,1.1-29.5
				c0.4-1.1,0.7-2.4,1-3.7c-1.5-1.2-3-2.3-4.6-3.2c-4-2.4-7.9-5.1-12.3-6.6c-3-1.1-6.3-1.6-9.3-2.5c0,1.5,0,27.3,0,28.8
				c-0.1,2,0,4.1,0.3,6.1c0.5,2.2,1.3,4.3,2.2,6.3c3.1,8.3,4.2,17.2,3.1,26c-0.4,3.1-1.1,6.4,0,9.4c0.9,2.4,2.8,4.3,4.3,6.5
				c2.8,4.2,4,9.2,3.1,14.2c-3.3-0.1-7.4,0.3-9.5,2.5c0.6,0.5,1.2,1,1.8,1.4c3.1,2,7,2.3,10.6,3.5c3.3,1.1,6.1,3.1,9,4.9l0.6,0.4
				C149,340.8,149.6,338.5,149.2,336.2z"/>
			<path class="st3" d="M135.2,329.9c0.8-5-0.3-10.1-3.2-14.2c-1.5-2.1-3.4-4-4.3-6.5c-1.1-3-0.4-6.2,0-9.4c1.1-8.8,0.1-17.7-3.1-26
				c-0.9-2.1-1.6-4.2-2.2-6.3c-0.3-2-0.4-4-0.3-6.1c0-1.5,0-27.3,0-28.8c-1.8-0.5-3.5-1.3-5.1-2.3c-3.3-2.1-5.8-5.5-9.3-7.3
				c-1-0.4-1.9-0.9-2.7-1.6c-0.6-0.5-1-1.1-1.1-1.9v0.1c-0.5,2.1-0.7,4.2-0.4,6.4c0.6,11.1,2.5,46.3,5.6,56.9
				c2.2,7.5,5,14.9,5.7,22.7c0.4,4.5,0.2,9.1,1.4,13.4c0.2,0.6,0.3,1.2,0.5,1.8c0.5,0.2,1,0.5,1.3,1c1.2,1.9-1.5,3.5,0.6,5.4
				c0.6,0.5,1.3,0.8,2,1.1c1.8,1.1,3.5,2.5,5,4C127.7,330.2,131.8,329.7,135.2,329.9z"/>
			<path class="st3" d="M116.8,320.9c-0.2-0.6-0.3-1.2-0.5-1.8c-1.2-4.4-1-8.9-1.4-13.4c-0.8-7.8-3.6-15.2-5.7-22.7
				c-3.1-10.6-4.9-45.9-5.6-56.9c-0.2-2.1-0.1-4.3,0.4-6.4v-0.1c0,0,0,0,0,0.1s0,0,0-0.1c0-0.2,0-0.3,0-0.5c0,0,0,0,0-0.1
				c0-0.2,0-0.3,0.1-0.5c0-0.1,0-0.1,0-0.2s0-0.2,0.1-0.3s0-0.1,0.1-0.2s0.1-0.2,0.1-0.3l0.2-0.7l0,0c0.4-0.9,0.3-1.9-0.2-2.7
				c-1.8-2.8-5.9-1.1-8.5-1c-3.4,0.2-6.7-0.1-10-1c-6.6-1.9-12.1-6.7-16.4-12.1c-1.3-1.6-2.4-3.2-3.7-4.8
				c-0.7,11.7,5.7,30.5,7.7,36.4c1.9,5.5,4.2,35.2,5.5,40.8c1.7,7.4,1.8,15.1,4.5,22.2c1.6,4.1,3.9,7.9,5.2,12.1
				c1.4,1.5,2.6,3.2,3.9,4.8c3.2,4,7.2,7.5,12,8.8c2.4,0.6,4.9,0.9,7.3,0.7c1.5-0.1,3.6-0.8,5.1-0.2L116.8,320.9z"/>
			<path class="st4" d="M311.4,155.9c0.2,2-0.2,4-1,5.8c-1.1,2.1-3.2,3.5-5.2,4.7c-4.5,2.7-9.4,4.8-14.5,6.2
				c-3.4,1-8.3,0.3-11.1,2.7c-1.7,1.5-0.4,3.2-1.8,4.8s-4.2,1.8-6.1,2.2c-4.2,1-8.1,3.2-11.3,6.2c-3,3-5.2,6.8-8.6,9.4
				s-8.3,4.2-11.4,1.3c-3.6-0.3-7.7-0.5-10.4,1.7c-1.4,1.1-2.3,2.8-3.6,4c-2,1.9-5,2.6-7.8,3.4c-10,2.7-19.5,6.8-28.3,12.2
				c-4.1,2.5-8.2,5.4-12.1,8c-1.7,1.2-3.1,2.9-3.9,4.8c-0.6,1.4-0.2,3-1,4.3c-0.8,1.1-1.8,2-2.9,2.8c-3.1,2.9-5.2,2.6-9.3,2.1
				c-1.2-0.1-2.4,0-3.5,0.3c-2.5,0.5-5.1-0.6-6.6-2.7c-2-2.2-4.3-4-6.9-5.3c-4-2.3-7.9-4.8-12.3-6.2c-4.8-1.6-10.1-2-14.4-4.5
				c-3.3-2-5.8-5.2-9.3-6.9c-1-0.4-1.9-0.9-2.7-1.4c-0.1-0.1-0.3-0.3-0.4-0.4c0.1,2-2,3.9,0.4,6.1c0.8,0.6,1.7,1.2,2.7,1.6
				c3.5,1.8,5.9,5.2,9.3,7.3c4.3,2.7,9.6,3.1,14.4,4.8c4.4,1.6,8.3,4.2,12.3,6.6c2.6,1.4,5,3.3,6.9,5.6c1.4,2.2,4.1,3.3,6.6,2.8
				c1.1-0.3,2.3-0.4,3.5-0.3c4.1,0.5,6.2,0.8,9.3-2.3c1.1-0.9,2.1-1.9,2.9-3c0.8-1.4,0.4-3.1,1-4.6c0.8-2.1,2.1-3.8,3.9-5.1
				c4-2.8,8-5.8,12.1-8.5c8.8-5.7,18.3-10.1,28.4-13c2.8-0.8,5.7-1.6,7.8-3.6c1.3-1.3,2.2-3.1,3.6-4.3c2.8-2.4,6.8-2.1,10.5-1.8
				c3.1,3.1,8,1.4,11.4-1.4s5.6-6.8,8.6-10c3.1-3.2,7-5.5,11.3-6.6c1.9-0.5,4.7-0.8,6.1-2.4s0-3.5,1.8-5.1c2.8-2.6,7.7-1.9,11.1-2.9
				c5.1-1.5,10-3.7,14.5-6.6c2.1-1.3,4.1-2.8,5.3-5C311.6,161.4,311.5,158.6,311.4,155.9z"/>
			<path class="st4" d="M104.4,209c-1.8-2.6-5.9-1.1-8.5-1c-3.4,0.2-6.7-0.1-10-0.9c-6.6-1.8-12.1-6.2-16.4-11.3
				c-2.3-2.7-4.3-5.6-7.1-7.8c-9.8-7.5-25.3-3.6-36-10.1c-6-3.6-9.8-10.1-16.4-12.5s-9.7-3-9.9-10.1C0,155.6,0,156,0,156.3
				c0,8.4,3.1,9,9.9,11.6c6.6,2.5,10.4,9.4,16.4,13.3c10.7,6.9,26.2,2.7,36,10.8c2.8,2.3,4.9,5.4,7.1,8.3
				c4.3,5.4,9.8,10.2,16.4,12.1c3.3,0.9,6.6,1.2,10,1c2.4-0.1,6.3-1.6,8.2,0.6C104.1,212.1,105.6,210.6,104.4,209z"/>
			<path class="st0" d="M230,205.6L230,205.6L230,205.6L230,205.6z"/>
			<path class="st0" d="M225,314.1L225,314.1z"/>
			<path class="st0" d="M248.2,204.7c-2.7,1.2-5.7,1.3-7.8-0.9h-0.6c-0.1,3.7-1.8,7.5-2,11.3c-0.1,2.5,0,5.1-1,7.4
				c-1.3,3.2-4.5,5.3-6.2,8.3c-2.8,4.8-1.5,35-0.3,40.3c0.2,1.3,0.7,2.5,1.4,3.6c1,1,2,2,3.1,2.9c3.4,3.5,2.6,9.1,1.6,13.9
				c-1,4.4-1.9,8.9-2.9,13.4l0,0c-0.4,0.4-0.8,0.7-1.2,1.1c1-1.1,2.2-2,3.5-2.8l3.3-16.7c0.5-2,0.7-4,0.6-6.1
				c-0.5-5.3-4.9-9.6-5.2-14.8s3.5-33.8,6.2-38.3C245.1,220.4,247,212.6,248.2,204.7z"/>
			<path class="st0" d="M114.9,305.7c-0.8-7.8-3.6-15.2-5.7-22.7c-3.1-10.6-4.9-45.9-5.6-56.9c-0.2-2.1-0.1-4.3,0.4-6.4v-0.1
				c0,0,0,0,0,0.1s0,0,0-0.1c0-0.2,0-0.3,0-0.5c0,0,0,0,0-0.1c0-0.2,0-0.3,0.1-0.5c0-0.1,0-0.1,0-0.2s0-0.2,0.1-0.3s0-0.1,0.1-0.2
				s0.1-0.2,0.1-0.3l0.2-0.7l0,0c0.4-0.9,0.3-1.9-0.2-2.7c-1.8-2.8-5.9-1.1-8.5-1c-3.4,0.2-6.7-0.1-10-1l-0.6-0.2
				c0.5,3.7,1.4,7.5,1.8,10.8c0.9,6.9,1.8,38.1,4.6,44.5c2.3,5.5,6,10.5,8.1,16.2c2.5,6.9,2.6,14.5,0.2,21.5
				c-0.8,1.9-1.4,3.9-1.9,5.9c-0.3,2.1-0.2,4.3,0.1,6.4c1.9,1.5,4.1,2.6,6.4,3.3c2.4,0.6,4.9,0.9,7.3,0.7c0.6,0,1.4-0.2,2.2-0.3
				c0.6-1.4,1.2-2.8,1.8-4.2C115.2,313,115.3,309.3,114.9,305.7z"/>
			<path class="st2" d="M265.8,188.3c0.4-0.2,0.8-0.4,1.2-0.6C266.6,187.8,266.2,188.1,265.8,188.3z"/>
			<path class="st2" d="M267.5,187.4l0.9-0.4L267.5,187.4z"/>
			<path class="st2" d="M270.3,186.3c0.5-0.1,1-0.3,1.4-0.4C271.3,186,270.8,186.1,270.3,186.3z"/>
			<path class="st2" d="M268.9,186.8l0.9-0.4L268.9,186.8z"/>
			<path class="st2" d="M264.6,189l0.5-0.3L264.6,189z"/>
			<path class="st2" d="M279.6,178.3c-0.1,0.1-0.3,0.3-0.4,0.4l-0.1,0.1c-0.1,0.1-0.2,0.3-0.3,0.4c-0.6,1.4,0.1,2.8-1.1,4.1
				c-0.5,0.6-6.5,19.2-11.1,27.2c-2.1,3.6-4.5,7.2-5.5,11.3c-0.6,2.5-0.6,5.1-0.9,7.6c0.3-0.7,0.7-1.3,1.1-1.8
				c1.1-1.2,2.5-2,3.5-3.3c1.8-2.3,1.6-5.6,2.2-8.4c1.5-7.6,8.5-12.7,12.9-19.1c2-3,5.9-12.3,7.4-20.9
				C284.7,176.3,281.6,176.5,279.6,178.3z"/>
			<path class="st2" d="M263.5,189.8l0.4-0.3L263.5,189.8z"/>
			<path class="st2" d="M116.3,319.1c-1.2-4.4-1-8.9-1.4-13.4c-0.8-7.8-3.6-15.2-5.7-22.7c-3.1-10.6-4.9-45.9-5.6-56.9
				c-0.2-2.1-0.1-4.3,0.4-6.4v-0.1c0,0,0,0,0,0.1s0,0,0-0.1c0-0.2,0-0.3,0-0.5c0,0,0,0,0-0.1c0-0.2,0-0.3,0.1-0.5c0-0.1,0-0.1,0-0.2
				s0-0.2,0.1-0.3s0-0.1,0.1-0.2s0.1-0.2,0.1-0.3l0.2-0.7l0,0c0.4-0.9,0.3-1.9-0.2-2.7c-1.8-2.8-5.9-1.1-8.5-1c-0.8,0-1.5,0.1-2.3,0
				c0.1,2.3,0.1,4.7,0.1,7c-0.2,2.4-0.2,4.9,0.2,7.3c0.5,2,1.3,3.9,2.2,5.8c6.3,13.3,11.1,51.5,14.4,65.8c0.9,3.5,1.4,7,1.6,10.6
				c0,4-0.9,7.9-2.6,11.5c0.8,0,1.5,0,2.3,0c1.5-0.1,3.6-0.8,5.1-0.2l-0.2-0.1C116.7,320.3,116.5,319.7,116.3,319.1z"/>
			<path class="st3" d="M176.3,301.5c-1.6-3.2-3.2-6.5-4.8-9.7c-1.8,0.7-2.4,2.9-2.3,4.8s0.8,3.8,0.6,5.7c-0.2,4-3.8,7.7-2.5,11.5
				c0.4,0.9,0.8,1.8,1,2.8c0,1-0.3,2.1-0.8,3c-1.6,3.8-2.6,7.7-3,11.8c-0.4,3.9-0.3,8.2-2.9,11.1c-2.4,2.6-6.1,3-9.6,3.7l0,0
				c1.1,1.6,3,2.4,4.9,2.1c0.8-0.2,1.7-0.3,2.6-0.3c3,0.4,4.5,0.6,6.8-1.6c0.8-0.6,1.5-1.4,2.1-2.2c0.6-1,0.3-2.3,0.7-3.4
				c0.5-1.2,1.3-2.4,2.2-3.3c0-1.6,0-3.2,0.1-4.8c0-2.5,0.2-5,0.5-7.5c0.5-2.8,1.2-5.6,2.1-8.4c1-3.5,1.9-7.1,2.7-10.6
				c0.2-0.8,0.3-1.7,0.2-2.5C176.9,303,176.7,302.2,176.3,301.5z"/>
			<path class="st0" d="M214.4,223.1c-0.8,0-1,1.1-1.2,1.9c-0.7,2.9-4.2,4.3-5.6,6.9c-1.7,3.2,0.1,31.5-1,34.9s-4.6,5.3-7.4,7.7
				c-3.5,3.2-5.8,7.6-6.3,12.3c-0.5,4.5,0.6,9.2-0.5,13.6c-0.7,2.3-1.7,4.6-2.8,6.8c-2.9,6.6-3.8,13.8-4.3,21.1
				c2.2-1.2,4.5-2.4,6.9-3.4l0.7-4.2c1-6,2.5-12.7,7.8-15.7c-1.5-5.2-1.7-10.7-0.6-15.9c1.7,0.5,2.2,2.6,1.9,4.3s-0.9,3.4-0.5,5.1
				s1.8,3,2.4,4.6c0.3,1.3,0.4,2.6,0.1,3.8l-1.5,14.3c1.8-0.4,3.5-1.2,4.9-2.4c1-1,1.6-2.2,2.6-3.1c0.7-0.6,1.6-1,2.5-1.2
				c0.9-4.2,1.8-8.5,2.5-12.8c0.3-1,0.2-2.1-0.2-3c-0.3-0.6-1-1-1.3-1.6c-0.4-1-0.4-2,0-3c1.8-7.7,1.1-14.9-0.2-22.6
				c-0.5-2.8,0.4-4,0.7-6.7c0.4-3.5-0.9-29.6,1-33C216.6,228.9,216.3,225.5,214.4,223.1z"/>
			<path class="st2" d="M141.8,249.4c0.9-2.5,1.5-5.1,1.7-7.8c-3.9-2.4-7.7-4.9-11.9-6.4c-1.9-0.6-3.8-1.1-5.8-1.6
				c-0.1,3.6,1.5,32.4,2.4,34.9c0.6,1.7,1.3,3.3,1.8,5c-5.5-21.4-0.2-19.9,0.7,6.6c0.2,5.6,0.4,11.2,0.6,16.8
				c0.2,5.2,0.6,11,4.6,14.3c1.4-0.2,1.4-2.2,1-3.6c-2.3-9.1-1.6-18.6,2-27.3C139.8,278.1,141,251.7,141.8,249.4z"/>
			<path class="st3" d="M63.6,290.1c-2.4-1.7-3.7-4.5-6-6.1c-3.2-2.2-6.2-4.5-9.1-7.1c-1-0.8-1.4-2.1-1.1-3.3
				c0.2-3.4,0-6.9-0.8-10.2c-0.2-0.5-0.2-1.1,0-1.6c0.3-0.4,0.7-0.8,1.2-1c0.8-0.5,1.7-25.2,2.5-25.6c2.3-1.1,3.4-3.8,2.4-6.2
				c-2.8-7.1-6.9-13.7-9-20.9c-0.2-1.1-0.7-2.1-1.5-3c-0.8-0.7-1.9-1.1-2.9-1.3c-2.3-0.6-4.7-1.1-7-1.7c-6.6-1.9-5.7-18.8-5.8-20.5
				c0-0.1,0-0.2,0-0.3l0,0l-0.2-0.1c-6-3.8-9.8-10.8-16.4-13.3l-1.8-0.7c1,4.8,2.4,9.6,4.2,14.1c3.5,8.8,8.6,16.9,15.2,23.7
				c0.6,0.7,1.4,1.4,2.2,1.8c1.8,0.9,4,0.5,5.8,1.3c2.2,1,3.2,3.6,3.9,5.9c1.1,3.2,2.2,6.5,3.3,9.7c0.4,1,0.6,2,0.6,3.1
				c-0.1,1.9-1.6,3.5-1.9,5.4c-0.2,1.2,0.1,26.7,0.3,27.9c0.2,1.4,0.2,2.8,0.1,4.2c1.2-0.1-0.9,10.8-0.8,11.3
				c0.1,0.9,0.3,1.8,0.7,2.6c-0.2,0.3-0.4,0.8-0.3,1.2c0,6.1,2.3,6.6,7.3,8.5s7.7,6.9,12,9.7c5.1,3.3,11.6,3.1,17.6,4.3
				c0.1-0.5,0.1-1,0.1-1.5C76.1,293.3,69.1,294,63.6,290.1z"/>
			<path class="st2" d="M78.9,272.5c-1.3-5.7-3.6-35.3-5.5-40.8c-2-5.9-8.4-24.7-7.6-36.4c-1-1.3-2.2-2.5-3.4-3.5
				c-2.3-1.8-4.9-3.2-7.8-3.9c2.7,10.2,6.3,20.4,9.1,30.4c0.9,3.6,2.1,7.2,3.6,10.6c1.6,3.5,3.7,31,5.4,34.4c2.1,4.4,4,9,5.5,13.7
				c1,2.7,1.9,5.5,2.9,8.2C80.4,281,79.9,276.7,78.9,272.5z"/>
			<path class="st4" d="M43.5,224.6c-1.2-3.5-2.1-7.7-3.2-11.1c-0.8-2.5-1.9-5.2-4.2-6.3c-1.9-0.9-2.7-0.5-4.6-1.4
				c-2-1.1-3.8-2.4-5.6-3.8c-5.4-8.7-9.2-14.5-12.6-26.1c-0.8-2.6-2.1-4.9-2.4-7.6c-0.4-0.1-3.3-1.3-3.6-1.4c0.9,5.4,4.6,9,5.1,14.4
				c0.4,4.5,8.6,17.1,15.2,23.8c0.6,0.7,1.4,1.4,2.2,1.8c1.8,0.9,4,0.5,5.9,1.3c2.2,1,3.2,3.6,3.9,5.9c1.1,3.2,2.2,6.5,3.3,9.7
				c0.4,1,0.6,2,0.6,3.1C43.6,225.8,43.9,225.7,43.5,224.6z"/>
			<path class="st4" d="M109.8,283.6c-2-9.5-3.7-44-2.5-52.1c0.3-2.2-1-5.5-0.9-7.7c0-0.5,0-0.9,0-1.4c-0.4-0.2-0.9-0.5-1.2-0.8
				c-0.6-0.5-1-1.1-1.1-1.9v0.1c-0.5,2.1-0.7,4.2-0.4,6.4c0.6,11.1,2.5,46.3,5.6,56.9c0.6,2,1.2,4.1,1.8,6.1
				C110.6,287.3,110.2,285.4,109.8,283.6z"/>
			<path class="st4" d="M271.7,185.8l-0.4,0.1c0,3.5,0.1,7-1.7,9.4c-0.9,1.3-2.5,1.8-3.7,2.9c-1.6,1.4,0.9,4.3,0.4,6.4
				c-1.5,5.6-5.9,10.8-6.6,16.5c-0.5,4.5-0.8,9-0.7,13.4c0.4-1.2,0.8-2.4,1-3.6c0.6-3,0.4-6.1,1.1-9c0.9-4.1,3.4-7.7,5.5-11.3
				c4.6-8,10.6-26.6,11.1-27.2C276.5,185,273.6,185.3,271.7,185.8z"/>
		</g>
	</g>
</g>
</svg>
