<svg xmlns="http://www.w3.org/2000/svg" xmlns:xlink="http://www.w3.org/1999/xlink" viewBox="0 0 390.45 339.89"><defs><style>.cls-1{fill:none;}.cls-2{fill:#65b9c2;}.cls-3{fill:#cbddd6;}.cls-4{fill:#bf682a;}.cls-5{fill:#45291c;}.cls-6{fill:#4d311c;}.cls-7{fill:#fbba9c;}.cls-8{opacity:0.28;}.cls-9{opacity:0.32;}.cls-10{opacity:0.43;}.cls-11{opacity:0.22;}.cls-12{opacity:0.34;}.cls-13{fill:#34130c;}.cls-14{fill:#492d1c;}.cls-15{fill:#593b26;}.cls-16{clip-path:url(#clip-path);}.cls-17{clip-path:url(#clip-path-2);}.cls-18{clip-path:url(#clip-path-3);}.cls-19{fill:#84e393;}.cls-20{fill:#5dd971;}.cls-21{fill:#7cc2a6;}.cls-22{clip-path:url(#clip-path-5);}.cls-23{clip-path:url(#clip-path-6);}.cls-24{fill:#cab25f;}.cls-25{clip-path:url(#clip-path-7);}.cls-26{fill:url(#linear-gradient);}.cls-27{fill:url(#linear-gradient-2);}.cls-28{fill:url(#linear-gradient-3);}.cls-29{fill:url(#linear-gradient-4);}.cls-30{fill:url(#linear-gradient-5);}.cls-31{fill:url(#linear-gradient-6);}.cls-32{fill:url(#linear-gradient-7);}.cls-33{fill:url(#linear-gradient-8);}.cls-34{fill:url(#linear-gradient-9);}.cls-35{clip-path:url(#clip-path-8);}.cls-36{clip-path:url(#clip-path-9);}.cls-37{fill:#84dae3;}.cls-38{fill:#6c86a6;}.cls-39{fill:#7c4331;}.cls-40{fill:#cac4b1;}.cls-41{fill:url(#linear-gradient-10);}.cls-42{fill:url(#linear-gradient-11);}.cls-43{opacity:0.65;}.cls-44{fill:#663631;}.cls-45{fill:url(#linear-gradient-12);}.cls-46{fill:#33120d;}.cls-47{fill:#ffa600;}.cls-48{fill:#febd01;}.cls-49{fill:#fecd44;}.cls-50{fill:#fff2c8;}.cls-51{fill:url(#linear-gradient-13);}.cls-52{fill:url(#linear-gradient-14);}</style><clipPath id="clip-path"><polygon class="cls-1" points="192.95 250.89 175.46 276.67 108.93 315.08 88.31 318.15 88.31 297.87 233.64 213.97 228.09 221.23 192.95 250.89"/></clipPath><clipPath id="clip-path-2"><polygon class="cls-3" points="192.95 250.89 175.46 276.67 108.93 315.08 89.67 317.1 88.31 297.87 233.64 213.97 228.09 221.23 192.95 250.89"/></clipPath><clipPath id="clip-path-3"><path class="cls-1" d="M120.25,299.44,86.91,318.69V302.1l29.44-17c3.49-2,6.32-.38,6.32,3.66v6.49A5.34,5.34,0,0,1,120.25,299.44Z"/></clipPath><clipPath id="clip-path-5"><polyline class="cls-1" points="256.2 237.56 221.06 267.21 203.57 293 137.04 331.41 116.42 334.47 116.42 314.2"/></clipPath><clipPath id="clip-path-6"><polyline class="cls-1" points="220.11 270.05 203.57 293 137.04 331.41 116.42 334.47 116.42 314.2"/></clipPath><clipPath id="clip-path-7"><path class="cls-1" d="M251.86,241.24l-28.27,28.35-20,23.43-61,35.2a33.6,33.6,0,0,1-11.89,4.15l-14.28,2.12V314.23"/></clipPath><linearGradient id="linear-gradient" x1="127.32" y1="691.92" x2="132.03" y2="700.07" gradientTransform="translate(-351.36 777.58) rotate(-123.08)" gradientUnits="userSpaceOnUse"><stop offset="0.01" stop-color="#521803"/><stop offset="0.45" stop-color="#ff8d5f"/><stop offset="0.92" stop-color="#3f1000"/></linearGradient><linearGradient id="linear-gradient-2" x1="126.37" y1="706.1" x2="131.07" y2="714.25" xlink:href="#linear-gradient"/><linearGradient id="linear-gradient-3" x1="126.66" y1="706.29" x2="131.36" y2="714.43" xlink:href="#linear-gradient"/><linearGradient id="linear-gradient-4" x1="125.61" y1="720.69" x2="130.32" y2="728.84" xlink:href="#linear-gradient"/><linearGradient id="linear-gradient-5" x1="125.9" y1="720.88" x2="130.61" y2="729.03" xlink:href="#linear-gradient"/><linearGradient id="linear-gradient-6" x1="125.21" y1="735.51" x2="129.92" y2="743.66" xlink:href="#linear-gradient"/><linearGradient id="linear-gradient-7" x1="124.42" y1="750.23" x2="129.13" y2="758.38" xlink:href="#linear-gradient"/><linearGradient id="linear-gradient-8" x1="113.9" y1="697.98" x2="118.61" y2="706.13" xlink:href="#linear-gradient"/><linearGradient id="linear-gradient-9" x1="113.15" y1="712.57" x2="117.85" y2="720.72" xlink:href="#linear-gradient"/><clipPath id="clip-path-8"><polyline class="cls-1" points="257.98 236.34 222.4 266.37 204.69 292.48 137.33 331.37 116.46 334.47 116.46 313.94"/></clipPath><clipPath id="clip-path-9"><path class="cls-2" d="M148.8,315.53,115,335v-16.8L144.84,301c3.54-2,6.41-.38,6.41,3.7v6.57A5.42,5.42,0,0,1,148.8,315.53Z"/></clipPath><linearGradient id="linear-gradient-10" x1="248.82" y1="205.81" x2="263.25" y2="205.81" gradientTransform="translate(-28.01 11.08) rotate(-3.17)" gradientUnits="userSpaceOnUse"><stop offset="0" stop-color="#61220b"/><stop offset="0.01" stop-color="#521803"/><stop offset="0.48" stop-color="#9e4b2d"/><stop offset="0.62" stop-color="#883d22"/><stop offset="0.93" stop-color="#4e1907"/><stop offset="1" stop-color="#3f1000"/></linearGradient><linearGradient id="linear-gradient-11" x1="256.64" y1="208.01" x2="263.25" y2="208.01" xlink:href="#linear-gradient-10"/><linearGradient id="linear-gradient-12" x1="147.63" y1="320.08" x2="150.64" y2="320.08" gradientTransform="translate(350.19 29.79) rotate(59.69)" xlink:href="#linear-gradient"/><linearGradient id="linear-gradient-13" x1="154.11" y1="316.11" x2="157.12" y2="316.11" gradientTransform="translate(349.97 22.23) rotate(59.69)" xlink:href="#linear-gradient"/><linearGradient id="linear-gradient-14" x1="140.98" y1="324.29" x2="143.99" y2="324.29" gradientTransform="translate(350.53 37.62) rotate(59.69)" xlink:href="#linear-gradient"/></defs><title>zeppelin_01</title><g id="Layer_2" data-name="Layer 2"><g id="Layer_1-2" data-name="Layer 1"><path class="cls-4" d="M139.08,329a.16.16,0,0,1-.16-.15l-1.38-16.35a.17.17,0,0,1,.33,0l1.37,16.35a.16.16,0,0,1-.15.18Z"/><path class="cls-4" d="M144.4,325.5a.16.16,0,0,1-.16-.16l-.5-10.25a.17.17,0,0,1,.16-.17.17.17,0,0,1,.17.16l.5,10.24a.18.18,0,0,1-.16.18Z"/><path class="cls-5" d="M332.6,87.91C330.26,85.09,304,56,293.39,28.32s.33-32.47,8.51-25.39,36.74,79.91,36.74,79.91Z"/><path class="cls-5" d="M344.53,91.53c2.34,2.82,28.59,31.87,39.21,59.59s-.33,32.47-8.51,25.38-36.74-79.91-36.74-79.91Z"/><path class="cls-5" d="M339.3,96.69c-1.15,2.49-12.13,31.42-28.56,36.54s-24.51-13.9-22.57-23.73S333,85.19,333,85.19Z"/><path class="cls-5" d="M336.16,81.7c1.15-2.49,12.13-31.42,28.56-36.54s24.51,13.9,22.57,23.74-44.84,24.31-44.84,24.31Z"/><path class="cls-6" d="M142.33,123c-12.26-6.29-31.67-5.34-43.25,2.14-5.86,3.78-8.62,8.52-8.32,13.09,0,.11,0,.21,0,.32s0,.21,0,.32,0,.22,0,.32,0,.22,0,.32,0,.22,0,.32,0,.22,0,.33,0,.21,0,.32,0,.21,0,.32,0,.21,0,.32,0,.21,0,.32,0,.22,0,.32,0,.22,0,.32,0,.22,0,.33,0,.21,0,.32,0,.21,0,.32,0,.21,0,.32,0,.21,0,.32,0,.21,0,.32,0,.22,0,.32,0,.22,0,.32,0,.22,0,.33,0,.21,0,.32,0,.21,0,.32,0,.21,0,.32,0,.21,0,.32,0,.21,0,.32,0,.22,0,.32,0,.22,0,.32,0,.22,0,.33,0,.21,0,.32,0,.21,0,.32,0,.21,0,.32,0,.21,0,.32,0,.22,0,.32,0,.22,0,.32,0,.22,0,.32,0,.22,0,.33,0,.21,0,.32,0,.21,0,.32,0,.21,0,.32,0,.21,0,.32,0,.22,0,.32,0,.22,0,.32,0,.22,0,.32c.16,4.58,3.36,9,9.57,12.21,12.26,6.3,31.67,5.34,43.25-2.13,5.86-3.79,8.62-8.52,8.32-13.09,0-.11,0-.22,0-.33s0-.21,0-.32,0-.21,0-.32,0-.21,0-.32,0-.21,0-.32,0-.22,0-.32,0-.22,0-.32,0-.22,0-.32,0-.22,0-.33,0-.21,0-.32,0-.21,0-.32,0-.21,0-.32,0-.21,0-.32,0-.22,0-.32,0-.22,0-.32,0-.22,0-.33,0-.21,0-.32,0-.21,0-.32,0-.21,0-.32,0-.21,0-.32,0-.21,0-.32,0-.22,0-.32,0-.22,0-.32,0-.22,0-.33,0-.21,0-.32,0-.21,0-.32,0-.21,0-.32,0-.21,0-.32,0-.21,0-.32,0-.22,0-.32,0-.22,0-.32,0-.22,0-.33,0-.21,0-.32,0-.21,0-.32,0-.21,0-.32,0-.21,0-.32,0-.22,0-.32,0-.22,0-.32,0-.22,0-.32,0-.22,0-.33,0-.21,0-.32,0-.21,0-.32,0-.21,0-.32,0-.21,0-.32C151.74,130.64,148.54,126.2,142.33,123ZM97.18,145a20,20,0,0,1,4.85-4.26c10.42-6.72,27.88-7.58,38.91-1.92a20.11,20.11,0,0,1,5.24,3.76,20.15,20.15,0,0,1-4.85,4.25c-10.42,6.73-27.88,7.59-38.91,1.92A19.86,19.86,0,0,1,97.18,145Z"/><path class="cls-7" d="M123.64,139c.94-.34,10.85-4.37,19-4.51s8.31,3.11,5.73,4.55-24,2-24,2Z"/><path class="cls-7" d="M121.54,141.57c-.94.34-10.85,4.37-19,4.51s-8.31-3.12-5.73-4.56,24-2,24-2Z"/><path class="cls-7" d="M120.44,139.76c-.53-.53-6.93-6-6.72-10.75s5.86-5,8.2-3.58S124,139.21,124,139.21Z"/><path class="cls-7" d="M124.74,140.83c.53.53,6.93,6,6.71,10.74s-5.85,5-8.2,3.58-2.06-13.78-2.06-13.78Z"/><g class="cls-8"><path class="cls-7" d="M120.91,139.45c-.21-.61-3.19-7.11-.44-11.62s8.17-3.77,9.58-2-5.55,13.71-5.55,13.71Z"/></g><g class="cls-8"><g class="cls-9"><path class="cls-7" d="M122.14,139c.4-.59,4.07-7.2,10.52-10.26s10.14-.72,9.6,1.29-17.32,10.21-17.32,10.21Z"/></g><g class="cls-10"><path class="cls-7" d="M121.08,141.1c-1.08.06-12.81,1.2-20-.77s-4.82-5-1.47-5.67S122,139,122,139Z"/></g><g class="cls-10"><path class="cls-7" d="M120.62,140.26c-.89-.33-11-3.52-14.35-7.69s1.63-5.85,4.87-5.21,12.34,11.53,12.34,11.53Z"/></g><g class="cls-11"><path class="cls-7" d="M124,141.41c0,.62.86,7.4-3.24,11.59s-9.13,2.88-10,.94,9.73-13,9.73-13Z"/></g><g class="cls-9"><path class="cls-7" d="M124.26,139.25c1.06-.16,12.5-2.2,20.11-.82s6,4.55,2.79,5.46-23.34-2.55-23.34-2.55Z"/></g><g class="cls-12"><path class="cls-7" d="M124.82,139.64c1,.31,11.89,3.32,16.35,7.42s0,5.88-3.45,5.29-15.39-11.29-15.39-11.29Z"/><path class="cls-7" d="M122.87,141.62c-.52.57-5.51,6.92-12.49,9.54s-10.15,0-9.21-2,19.19-9,19.19-9Z"/></g></g><path class="cls-7" d="M102.32,146.09c7.9-.14,17.51-4,18.87-4.48,0,1.74-.08,12.25,2.06,13.54,2.35,1.42,8,1.12,8.2-3.58.21-4.35-5.27-9.4-6.51-10.54,3.41-.1,21.05-.67,23.39-2,2.58-1.44,2.38-4.69-5.73-4.55-7.51.13-16.57,3.6-18.61,4.37,0-2,.05-12.17-2.07-13.45-2.34-1.42-8-1.12-8.2,3.58-.2,4.36,5.3,9.43,6.52,10.56-2.61.07-21.25.63-23.65,2C94,143,94.21,146.23,102.32,146.09Zm18.88-4.72-.59-1.64,3.11-.48.6,1.64Z"/><path class="cls-7" d="M121,140.29c-.94.34-10.85,4.37-19,4.51s-8.31-3.11-5.73-4.55,24-2,24-2Z"/><path class="cls-7" d="M120.16,138.47c-.53-.53-6.94-6.05-6.72-10.75s5.86-5,8.2-3.58,2.06,13.78,2.06,13.78Z"/><path class="cls-7" d="M124.62,139.22c.53.53,6.94,6.05,6.72,10.75s-5.86,5-8.2,3.58-2.06-13.79-2.06-13.79Z"/><path class="cls-7" d="M123,137.57c.95-.34,10.86-4.37,19-4.51s8.3,3.11,5.72,4.55-23.95,2-23.95,2Z"/><path class="cls-7" d="M121,140.29c-.94.34-10.85,4.37-19,4.51s-8.31-3.11-5.73-4.55,24-2,24-2Z"/><path class="cls-7" d="M120.16,138.47c-.53-.53-6.94-6.05-6.72-10.75s5.86-5,8.2-3.58,2.06,13.78,2.06,13.78Z"/><path class="cls-7" d="M124.3,139.06c.54.53,6.94,6.05,6.72,10.74s-5.85,5-8.2,3.58-2.06-13.78-2.06-13.78Z"/><path class="cls-7" d="M120,142.34c-1.71-.88-1.79-2.43-.17-3.47a6.67,6.67,0,0,1,6-.3c1.71.88,1.78,2.43.17,3.47A6.64,6.64,0,0,1,120,142.34Z"/><path class="cls-13" d="M119.16,142.09c-2.13-1.09-2.23-3-.21-4.33a8.27,8.27,0,0,1,7.5-.37c2.13,1.09,2.23,3,.22,4.33A8.29,8.29,0,0,1,119.16,142.09Z"/><path class="cls-13" d="M125.41,140.47l2.67-1.25a8.33,8.33,0,0,0-2.57-5l-6.33.74a9.15,9.15,0,0,0-1.68,4.85C118.39,143.17,125.41,140.47,125.41,140.47Z"/><path class="cls-7" d="M120.09,137.22c-1.45-.75-1.52-2.07-.14-3a5.66,5.66,0,0,1,5.13-.25c1.46.74,1.52,2.07.15,3A5.68,5.68,0,0,1,120.09,137.22Z"/><path class="cls-13" d="M120.85,136.73a1.09,1.09,0,0,1-.1-2.06,4,4,0,0,1,3.57-.18,1.09,1.09,0,0,1,.1,2.07A3.94,3.94,0,0,1,120.85,136.73Z"/><path class="cls-5" d="M102.42,148.76c11,5.67,28.49,4.81,38.91-1.92a20.43,20.43,0,0,0,4.68-4.05,22.32,22.32,0,0,0,6.17-1.94V141c0,.11,0,.22,0,.32s0,.22,0,.32,0,.22,0,.33,0,.21,0,.32,0,.21,0,.32,0,.21,0,.32,0,.21,0,.32,0,.21,0,.32,0,.22,0,.32,0,.22,0,.32,0,.22,0,.33,0,.21,0,.32,0,.21,0,.32,0,.21,0,.32,0,.21,0,.32,0,.22,0,.32,0,.22,0,.32,0,.22,0,.33,0,.21,0,.32,0,.21,0,.32,0,.21,0,.32,0,.21,0,.32,0,.21,0,.32,0,.22,0,.32,0,.22,0,.32,0,.22,0,.33c.3,4.57-2.46,9.3-8.32,13.09-11.58,7.47-31,8.43-43.25,2.13-6.21-3.19-9.41-7.63-9.57-12.21,0-.1,0-.21,0-.32s0-.21,0-.32,0-.21,0-.32,0-.21,0-.32,0-.21,0-.32,0-.22,0-.32,0-.22,0-.32,0-.22,0-.33,0-.21,0-.32,0-.21,0-.32,0-.21,0-.32,0-.21,0-.32,0-.21,0-.32,0-.22,0-.32,0-.22,0-.32,0-.22,0-.33,0-.21,0-.32,0-.21,0-.32,0-.21,0-.32-.38-7.62-.38-7.71,1.77,2.94,1.87,2.92c2-.34,2.83,3.93,4.85,3.85A20.81,20.81,0,0,0,102.42,148.76Z"/><path class="cls-14" d="M142.33,123c12.27,6.3,12.82,17.5,1.23,25s-31,8.43-43.25,2.13-12.82-17.5-1.23-25S130.07,116.72,142.33,123Zm-2.11,1.36c-11-5.66-28.49-4.8-38.91,1.92s-9.93,16.81,1.11,22.47,28.49,4.81,38.91-1.92S151.26,130,140.22,124.37Z"/><polygon class="cls-15" points="88.25 302.61 116.38 318.93 116.43 334.47 88.31 318.12 88.25 302.61"/><polygon class="cls-3" points="192.95 250.89 175.46 276.67 108.93 315.08 89.67 317.1 88.31 297.87 233.64 213.97 228.09 221.23 192.95 250.89"/><g class="cls-17"><g class="cls-18"><rect class="cls-19" x="105.56" y="275.43" width="9.11" height="33" transform="translate(417.99 342.52) rotate(120)"/><rect class="cls-19" x="105.36" y="285.4" width="1.66" height="36.63" transform="translate(422.3 363.61) rotate(120)"/><rect class="cls-19" x="99.44" y="291.21" width="3.64" height="33.47" transform="translate(418.57 374.23) rotate(120)"/></g></g><path class="cls-20" d="M176.55,257.92c0,1.94,1.37,2.73,3,1.76a6.74,6.74,0,0,0,3-5.28c0-1.94-1.36-2.73-3-1.76A6.75,6.75,0,0,0,176.55,257.92Z"/><path class="cls-21" d="M176.32,258.05a7.28,7.28,0,0,1,3.28-5.68c1.81-1,3.28-.19,3.28,1.9A7.26,7.26,0,0,1,179.6,260C177.79,261,176.32,260.14,176.32,258.05Zm.47-.27c0,1.79,1.26,2.52,2.81,1.63a6.23,6.23,0,0,0,2.81-4.87c0-1.79-1.26-2.52-2.81-1.63A6.23,6.23,0,0,0,176.79,257.78Z"/><path class="cls-20" d="M163.79,265.29c0,1.94,1.36,2.73,3,1.76a6.74,6.74,0,0,0,3-5.28c0-1.94-1.37-2.73-3-1.76A6.76,6.76,0,0,0,163.79,265.29Z"/><path class="cls-21" d="M163.55,265.42a7.28,7.28,0,0,1,3.28-5.68c1.81-1,3.28-.19,3.28,1.9a7.26,7.26,0,0,1-3.28,5.68C165,268.36,163.55,267.51,163.55,265.42Zm.47-.27c0,1.79,1.26,2.52,2.81,1.63a6.23,6.23,0,0,0,2.81-4.87c0-1.79-1.26-2.52-2.81-1.62A6.2,6.2,0,0,0,164,265.15Z"/><path class="cls-20" d="M151,272.66c0,1.94,1.36,2.73,3,1.76a6.71,6.71,0,0,0,3.05-5.28c0-1.94-1.36-2.73-3.05-1.75A6.72,6.72,0,0,0,151,272.66Z"/><path class="cls-21" d="M150.78,272.8a7.27,7.27,0,0,1,3.28-5.68c1.81-1.05,3.28-.2,3.28,1.89a7.25,7.25,0,0,1-3.28,5.68C152.26,275.73,150.78,274.88,150.78,272.8Zm.47-.27c0,1.79,1.26,2.51,2.81,1.62a6.24,6.24,0,0,0,2.82-4.87c0-1.79-1.27-2.52-2.82-1.62A6.22,6.22,0,0,0,151.25,272.53Z"/><path class="cls-20" d="M138.25,280c0,1.94,1.37,2.73,3.05,1.76a6.72,6.72,0,0,0,3-5.27c0-1.95-1.36-2.73-3-1.76A6.73,6.73,0,0,0,138.25,280Z"/><path class="cls-21" d="M138,280.17a7.25,7.25,0,0,1,3.28-5.68c1.81-1.05,3.28-.2,3.28,1.89a7.25,7.25,0,0,1-3.28,5.68C139.49,283.1,138,282.26,138,280.17Zm.47-.27c0,1.79,1.26,2.51,2.81,1.62a6.23,6.23,0,0,0,2.81-4.87c0-1.79-1.26-2.52-2.81-1.62A6.22,6.22,0,0,0,138.49,279.9Z"/><path class="cls-20" d="M125.48,287.4c0,1.94,1.37,2.73,3,1.76a6.73,6.73,0,0,0,3.05-5.27c0-1.95-1.37-2.73-3.05-1.76A6.73,6.73,0,0,0,125.48,287.4Z"/><path class="cls-21" d="M125.25,287.54a7.25,7.25,0,0,1,3.28-5.68c1.81-1.05,3.28-.2,3.28,1.89a7.25,7.25,0,0,1-3.28,5.68C126.72,290.48,125.25,289.63,125.25,287.54Zm.47-.27c0,1.79,1.26,2.52,2.81,1.62a6.22,6.22,0,0,0,2.81-4.87c0-1.79-1.26-2.52-2.81-1.62A6.22,6.22,0,0,0,125.72,287.27Z"/><path class="cls-6" d="M221.06,267.21,203.57,293l-60.95,35.18a34,34,0,0,1-12,4.18l-14.24,2.11V300.6l145.33-83.9-4.41,16.58a14.09,14.09,0,0,1-4.52,7.13Z"/><polygon class="cls-5" points="88.31 284.27 116.42 300.6 116.42 318.95 88.24 303.17 88.31 284.27"/><polygon class="cls-15" points="88.28 300.76 116.41 317.08 116.46 333.21 88.34 316.87 88.28 300.76"/><polygon class="cls-24" points="88.29 301.85 116.42 318.17 116.47 333.71 88.35 317.36 88.29 301.85"/><g class="cls-25"><path class="cls-24" d="M148.36,315.78,115,335V318.44l29.44-17c3.49-2,6.32-.38,6.32,3.65v6.49A5.34,5.34,0,0,1,148.36,315.78Z"/><path class="cls-15" d="M114.55,318.17l29.91-17.26c3.74-2.17,6.79-.41,6.79,3.92v6.49a6.38,6.38,0,0,1-2.89,5l-33.81,19.53Zm.94.54v15.51l32.87-19a4.31,4.31,0,0,0,1.95-3.38v-6.49c0-3.73-2.62-5.25-5.85-3.38Z"/></g><path class="cls-26" d="M161.65,285.59a7.76,7.76,0,0,0-3.17,6.27,2.49,2.49,0,0,0,1.15,2.23h0l.82.38,4.18-9-.49-.24A2.41,2.41,0,0,0,161.65,285.59Z"/><ellipse class="cls-7" cx="162.64" cy="290.01" rx="4.97" ry="2.87" transform="translate(-169.5 305.51) rotate(-63.39)"/><ellipse class="cls-13" cx="162.64" cy="290.01" rx="4.04" ry="2.33" transform="translate(-169.5 305.51) rotate(-63.39)"/><path class="cls-27" d="M174.05,278.65a7.72,7.72,0,0,0-3.17,6.27,2.47,2.47,0,0,0,1.15,2.23h0l.82.39,4.18-9-.49-.24A2.41,2.41,0,0,0,174.05,278.65Z"/><ellipse class="cls-7" cx="175.04" cy="283.08" rx="4.97" ry="2.87" transform="translate(-156.46 312.77) rotate(-63.39)"/><ellipse class="cls-13" cx="175.04" cy="283.08" rx="4.04" ry="2.33" transform="translate(-156.46 312.77) rotate(-63.39)"/><path class="cls-28" d="M174.05,278.31a7.71,7.71,0,0,0-3.17,6.27,2.49,2.49,0,0,0,1.15,2.23h0l.82.38,4.18-9-.49-.24A2.41,2.41,0,0,0,174.05,278.31Z"/><ellipse class="cls-7" cx="175.04" cy="282.73" rx="4.97" ry="2.87" transform="translate(-156.15 312.58) rotate(-63.39)"/><ellipse class="cls-13" cx="175.04" cy="282.73" rx="4.04" ry="2.33" transform="translate(-156.15 312.58) rotate(-63.39)"/><path class="cls-29" d="M186.68,271.32a7.76,7.76,0,0,0-3.17,6.27,2.5,2.5,0,0,0,1.16,2.23h0l.82.38,4.18-9-.49-.24A2.43,2.43,0,0,0,186.68,271.32Z"/><ellipse class="cls-7" cx="187.68" cy="275.75" rx="4.97" ry="2.87" transform="translate(-142.92 320.02) rotate(-63.39)"/><ellipse class="cls-13" cx="187.68" cy="275.75" rx="4.04" ry="2.33" transform="translate(-142.92 320.02) rotate(-63.39)"/><path class="cls-30" d="M186.68,271a7.78,7.78,0,0,0-3.17,6.27,2.47,2.47,0,0,0,1.16,2.23h0l.82.39,4.18-9-.49-.24A2.43,2.43,0,0,0,186.68,271Z"/><ellipse class="cls-7" cx="187.68" cy="275.4" rx="4.97" ry="2.87" transform="translate(-142.62 319.83) rotate(-63.39)"/><ellipse class="cls-13" cx="187.68" cy="275.4" rx="4.04" ry="2.33" transform="translate(-142.62 319.83) rotate(-63.39)"/><path class="cls-31" d="M199.32,263.56a7.78,7.78,0,0,0-3.17,6.27,2.49,2.49,0,0,0,1.15,2.23h0l.83.39,4.18-9-.49-.24A2.45,2.45,0,0,0,199.32,263.56Z"/><ellipse class="cls-7" cx="200.32" cy="267.99" rx="4.97" ry="2.87" transform="translate(-129.02 327.04) rotate(-63.39)"/><ellipse class="cls-13" cx="200.32" cy="267.99" rx="4.04" ry="2.33" transform="translate(-129.02 327.04) rotate(-63.39)"/><path class="cls-32" d="M212.09,256.19a7.78,7.78,0,0,0-3.17,6.27,2.49,2.49,0,0,0,1.15,2.23h0l.83.39,4.17-9-.49-.24A2.43,2.43,0,0,0,212.09,256.19Z"/><ellipse class="cls-7" cx="213.08" cy="260.62" rx="4.97" ry="2.87" transform="translate(-115.38 334.39) rotate(-63.39)"/><ellipse class="cls-13" cx="213.08" cy="260.62" rx="4.04" ry="2.33" transform="translate(-115.38 334.39) rotate(-63.39)"/><path class="cls-5" d="M161.65,300.47a7.76,7.76,0,0,0-3.17,6.27,2.46,2.46,0,0,0,1.15,2.22h0l.82.39,4.18-9-.49-.23A2.41,2.41,0,0,0,161.65,300.47Z"/><ellipse class="cls-7" cx="162.64" cy="304.89" rx="4.97" ry="2.87" transform="translate(-182.81 313.73) rotate(-63.39)"/><ellipse class="cls-13" cx="162.64" cy="304.89" rx="4.04" ry="2.33" transform="translate(-182.81 313.73) rotate(-63.39)"/><path class="cls-33" d="M174.05,293.53a7.72,7.72,0,0,0-3.17,6.27A2.48,2.48,0,0,0,172,302h0l.82.39,4.18-9-.49-.24A2.41,2.41,0,0,0,174.05,293.53Z"/><ellipse class="cls-7" cx="175.04" cy="297.96" rx="4.97" ry="2.87" transform="translate(-169.76 320.98) rotate(-63.39)"/><ellipse class="cls-13" cx="175.04" cy="297.96" rx="4.04" ry="2.33" transform="translate(-169.76 320.98) rotate(-63.39)"/><path class="cls-5" d="M174.05,293.19a7.7,7.7,0,0,0-3.17,6.27,2.46,2.46,0,0,0,1.15,2.22h0l.82.39,4.18-9-.49-.24A2.44,2.44,0,0,0,174.05,293.19Z"/><ellipse class="cls-7" cx="175.04" cy="297.61" rx="4.97" ry="2.87" transform="translate(-169.45 320.79) rotate(-63.39)"/><ellipse class="cls-13" cx="175.04" cy="297.61" rx="4.04" ry="2.33" transform="translate(-169.45 320.79) rotate(-63.39)"/><path class="cls-34" d="M186.68,286.2a7.76,7.76,0,0,0-3.17,6.27,2.5,2.5,0,0,0,1.16,2.23h0l.82.38,4.18-9-.49-.24A2.43,2.43,0,0,0,186.68,286.2Z"/><ellipse class="cls-7" cx="187.68" cy="290.62" rx="4.97" ry="2.87" transform="translate(-156.23 328.23) rotate(-63.39)"/><ellipse class="cls-13" cx="187.68" cy="290.62" rx="4.04" ry="2.33" transform="translate(-156.23 328.23) rotate(-63.39)"/><path class="cls-5" d="M186.68,285.85a7.78,7.78,0,0,0-3.17,6.27,2.47,2.47,0,0,0,1.16,2.23h0l.82.39,4.18-9-.49-.24A2.43,2.43,0,0,0,186.68,285.85Z"/><ellipse class="cls-7" cx="187.68" cy="290.28" rx="4.97" ry="2.87" transform="translate(-155.92 328.04) rotate(-63.39)"/><ellipse class="cls-13" cx="187.68" cy="290.28" rx="4.04" ry="2.33" transform="translate(-155.92 328.04) rotate(-63.39)"/><path class="cls-5" d="M199.32,278.44a7.78,7.78,0,0,0-3.17,6.27,2.49,2.49,0,0,0,1.15,2.23h0l.83.39,4.18-9-.49-.24A2.43,2.43,0,0,0,199.32,278.44Z"/><ellipse class="cls-7" cx="200.32" cy="282.87" rx="4.97" ry="2.87" transform="translate(-142.32 335.25) rotate(-63.39)"/><ellipse class="cls-13" cx="200.32" cy="282.87" rx="4.04" ry="2.33" transform="translate(-142.32 335.25) rotate(-63.39)"/><g class="cls-35"><path class="cls-2" d="M148.8,315.53,115,335v-16.8L144.84,301c3.54-2,6.41-.38,6.41,3.7v6.57A5.42,5.42,0,0,1,148.8,315.53Z"/><g class="cls-36"><rect class="cls-37" x="133.93" y="291.22" width="9.22" height="33.41" transform="translate(474.47 341.91) rotate(120)"/><rect class="cls-37" x="133.72" y="301.31" width="1.68" height="37.09" transform="translate(478.83 363.26) rotate(120)"/><rect class="cls-37" x="127.72" y="307.19" width="3.69" height="33.89" transform="translate(475.06 374) rotate(120)"/></g><path class="cls-38" d="M114.56,318l30.28-17.48c3.8-2.19,6.88-.41,6.88,4V311a6.49,6.49,0,0,1-2.92,5.07l-34.24,19.76Zm1,.55v15.7L148.8,315a4.36,4.36,0,0,0,2-3.42V305c0-3.77-2.66-5.31-5.93-3.42Z"/></g><polygon class="cls-37" points="88.24 301.72 116.38 318.05 116.43 333.59 88.3 317.24 88.24 301.72"/><path class="cls-15" d="M337.12,113.27v73.57s-33.64-7.94-33.64-56.25Z"/><path class="cls-15" d="M312.6,85.23l-48-75s-15.05,41.42,12.9,86.49C276.65,96.39,312.6,85.23,312.6,85.23Z"/><path class="cls-39" d="M87.92,206.1C149.24,159,214.75,120.27,330.19,86.69h0a8,8,0,0,1,5-.22l.46.14a12.56,12.56,0,0,1,4.15,2.2,21.48,21.48,0,0,0-6.41-6,9,9,0,0,0-6.51-1.38h0c-132.14,19.13-199,51.7-254,100.25C10.4,236.85,23.4,284.36,23.4,284.36l1.28,2.27C27.25,279.53,34.51,247.1,87.92,206.1Z"/><path class="cls-40" d="M103,230.52C171,185.22,234.76,140,333.5,92h0a11.88,11.88,0,0,1,4.08-1.5l.35,0a7.3,7.3,0,0,1,3.06.15c-.37-.6-.77-1.18-1.18-1.75a12.56,12.56,0,0,0-4.15-2.2l-.46-.14a8,8,0,0,0-5,.22h0C214.75,120.27,149.24,159,87.92,206.1c-53.41,41-60.67,73.43-63.24,80.53l3,5.32C33.67,291.23,47.1,267.71,103,230.52Z"/><path class="cls-40" d="M340,94.44c-.88.87-2,1.81-3.16,2.78h0c-82,62.48-143.72,114.62-218.8,157.72-50.33,28.9-72.88,42.48-83.85,42.11,12.11,10.1,42.73,11.49,100.33-16.82,82.34-40.48,140.3-100.82,205.63-177.75h0a10.74,10.74,0,0,0,2.23-4.06c0-.14.07-.28.11-.41a12.56,12.56,0,0,0,.42-3.82c-.3-.7-.63-1.39-1-2.06a10.75,10.75,0,0,1-1.69,2.08A2.5,2.5,0,0,0,340,94.44Z"/><path class="cls-39" d="M342.87,94.19a12.56,12.56,0,0,1-.42,3.82c0,.13-.07.27-.11.41a10.74,10.74,0,0,1-2.23,4.06h0c-65.33,76.93-123.29,137.27-205.63,177.75-57.6,28.31-88.22,26.92-100.33,16.82A8.89,8.89,0,0,1,30,296l1.28,2.26c12.9,14.85,54.62,28.76,116.35,3.4,89.91-36.94,147.15-102.52,195.77-193.91a10.08,10.08,0,0,0,1.31-5.34A21.24,21.24,0,0,0,342.87,94.19Z"/><path class="cls-39" d="M32,295a19.5,19.5,0,0,0,2.11,2c11,.37,33.52-13.21,83.85-42.11,75.08-43.1,136.77-95.24,218.8-157.72h0c1.18-1,2.28-1.91,3.16-2.78a2.5,2.5,0,0,1,.23-.23,10.75,10.75,0,0,0,1.69-2.08c-.28-.53-.58-1.06-.89-1.57a7.3,7.3,0,0,0-3.06-.15l-.35,0A11.88,11.88,0,0,0,333.5,92h0C234.76,140,171,185.22,103,230.52,47.1,267.71,33.67,291.23,27.71,292l2.3,4a8.89,8.89,0,0,0,4.14,1.06A19.5,19.5,0,0,1,32,295Z"/><path class="cls-15" d="M336.41,99.75l53.76-22.18s-25.79,34.77-77.57,47.81C312.6,126.25,336.41,99.75,336.41,99.75Z"/><path class="cls-5" d="M229.47,202.3a9.55,9.55,0,0,1,3.92-7.7,3,3,0,0,1,3-.47h0l1,.53-5.89,10.68-.59-.31A3,3,0,0,1,229.47,202.3Z"/><ellipse class="cls-14" cx="234.59" cy="200.07" rx="6.11" ry="3.53" transform="translate(-50.46 317.58) rotate(-62.86)"/><path class="cls-41" d="M244.78,200l-.14-.07-.14-.07-.14-.07-.14-.07-.14-.07-.14-.06-.15-.07-.14-.07-.14-.07-.14-.07-.14-.07-.14-.07-.14-.07-.14-.07-.15-.07-.14-.07-.14-.07-.14-.07-.14-.07-.14-.07-.14-.07-.15-.06-.14-.07a.61.61,0,0,0-.14-.07l-.14-.07-.14-.07-.14-.07-.14-.07-.14-.07-.15-.07a.61.61,0,0,0-.14-.07l-.14-.07-.14-.07-.14-.07-.14-.07-.14-.07-.15-.07-.14-.06a.61.61,0,0,0-.14-.07l-.14-.07-.14-.07-.14-.07-.14-.07-.14-.07-.15-.07-.14-.07-.14-.07-.14-.07-.14-.07-.14-.07-.14-.07a.61.61,0,0,1-.14-.07l-.15-.07-.14-.06a2.29,2.29,0,0,0-2.39.33,7.34,7.34,0,0,0-2.95,5.94,2.27,2.27,0,0,0,1.18,2.11l.14.07a.61.61,0,0,0,.14.07l.14.07.14.07.14.07.15.07a.61.61,0,0,0,.14.07l.14.07.14.07.14.07.14.07.14.07a.61.61,0,0,1,.14.07l.15.06a1721007919287.91,1721007919287.91,0,0,1,.28.14l.14.07.14.07.14.07.14.07.14.07.15.07a.61.61,0,0,0,.14.07l.14.07.14.07.14.07.14.07.14.07.15.07.14.06.14.07a.61.61,0,0,0,.14.07l.14.07.14.07.14.07.14.07.15.07a.61.61,0,0,0,.14.07l.14.07.14.07.14.07.14.07.14.07.15.07.14.07.14.06.14.07a.61.61,0,0,0,.14.07l.14.07.14.07.14.07.15.07.14.07.14.07.14.07.14.07a2.29,2.29,0,0,0,2.39-.34,7.35,7.35,0,0,0,3-5.94,2.29,2.29,0,0,0-1.18-2.11l-.15-.07Z"/><path class="cls-42" d="M242.82,200.56c1.76-1.17,3.3-.41,3.43,1.7a7.35,7.35,0,0,1-3,5.94c-1.76,1.17-3.3.4-3.43-1.71A7.33,7.33,0,0,1,242.82,200.56Z"/><g class="cls-43"><path class="cls-5" d="M244.78,200l-.14-.07-.14-.07-.14-.07-.14-.07-.14-.07-.14-.06-.15-.07-.14-.07-.14-.07-.14-.07-.14-.07-.14-.07-.14-.07-.14-.07-.15-.07-.14-.07-.14-.07-.14-.07-.14-.07-.14-.07-.14-.07-.15-.06-.14-.07a.61.61,0,0,0-.14-.07l-.14-.07-.14-.07-.14-.07-.14-.07-.14-.07-.15-.07a.61.61,0,0,0-.14-.07l-.14-.07-.14-.07-.14-.07-.14-.07-.14-.07-.15-.07-.14-.06a.61.61,0,0,0-.14-.07l-.14-.07-.14-.07-.14-.07-.14-.07-.14-.07-.15-.07-.14-.07-.14-.07-.14-.07-.14-.07-.14-.07-.14-.07a.61.61,0,0,1-.14-.07l-.15-.07-.14-.06a2.29,2.29,0,0,0-2.39.33,7.34,7.34,0,0,0-2.95,5.94,2.27,2.27,0,0,0,1.18,2.11l.14.07a.61.61,0,0,0,.14.07l.14.07.14.07.14.07.15.07a.61.61,0,0,0,.14.07l.14.07.14.07.14.07.14.07.14.07a.61.61,0,0,1,.14.07l.15.06a1721007919287.91,1721007919287.91,0,0,1,.28.14l.14.07.14.07.14.07.14.07.14.07.15.07a.61.61,0,0,0,.14.07l.14.07.14.07.14.07.14.07.14.07.15.07.14.06.14.07a.61.61,0,0,0,.14.07l.14.07.14.07.14.07.14.07.15.07a.61.61,0,0,0,.14.07l.14.07.14.07.14.07.14.07.14.07.15.07.14.07.14.06.14.07a.61.61,0,0,0,.14.07l.14.07.14.07.14.07.15.07.14.07.14.07.14.07.14.07a2.29,2.29,0,0,0,2.39-.34,7.35,7.35,0,0,0,3-5.94,2.29,2.29,0,0,0-1.18-2.11l-.15-.07Z"/></g><path class="cls-6" d="M289.21,192.5c-12.26-6.29-31.67-5.34-43.25,2.14-5.86,3.78-8.62,8.51-8.32,13.09,0,.1,0,.21,0,.32s0,.21,0,.32,0,.21,0,.32,0,.21,0,.32,0,.22,0,.32,0,.22,0,.32,0,.22,0,.33,0,.21,0,.32,0,.21,0,.32,0,.21,0,.32,0,.21,0,.32,0,.22,0,.32,0,.22,0,.32,0,.22,0,.33,0,.21,0,.32,0,.21,0,.32,0,.21,0,.32,0,.21,0,.32,0,.21,0,.32,0,.22,0,.32,0,.22,0,.32,0,.22,0,.33,0,.21,0,.32,0,.21,0,.32,0,.21,0,.32,0,.21,0,.32,0,.21,0,.32,0,.22,0,.32,0,.22,0,.32,0,.22,0,.33,0,.21,0,.32,0,.21,0,.32,0,.21,0,.32,0,.21,0,.32,0,.21,0,.32,0,.22,0,.32,0,.22,0,.32,0,.22,0,.33,0,.21,0,.32,0,.21,0,.32,0,.21,0,.32,0,.21,0,.32,0,.22,0,.32,0,.22,0,.32c.16,4.58,3.36,9,9.57,12.21,12.26,6.3,31.67,5.34,43.25-2.14,5.86-3.78,8.62-8.51,8.32-13.09,0-.1,0-.21,0-.32s0-.21,0-.32,0-.21,0-.32,0-.21,0-.32,0-.22,0-.32,0-.22,0-.32,0-.22,0-.33,0-.21,0-.32,0-.21,0-.32,0-.21,0-.32,0-.21,0-.32,0-.21,0-.32,0-.22,0-.32,0-.22,0-.32,0-.22,0-.33,0-.21,0-.32,0-.21,0-.32,0-.21,0-.32,0-.21,0-.32,0-.21,0-.32,0-.22,0-.32,0-.22,0-.32,0-.22,0-.33,0-.21,0-.32,0-.21,0-.32,0-.21,0-.32,0-.21,0-.32,0-.22,0-.32,0-.22,0-.32,0-.22,0-.32,0-.22,0-.33,0-.21,0-.32,0-.21,0-.32,0-.21,0-.32,0-.21,0-.32,0-.22,0-.32,0-.22,0-.32,0-.22,0-.32,0-.22,0-.33,0-.21,0-.32,0-.21,0-.32,0-.21,0-.32,0-.21,0-.32,0-.22,0-.32C298.62,200.13,295.42,195.69,289.21,192.5Zm-45.15,22a20,20,0,0,1,4.85-4.26c10.42-6.72,27.88-7.58,38.91-1.92a19.86,19.86,0,0,1,5.24,3.75,20,20,0,0,1-4.85,4.26c-10.42,6.72-27.88,7.58-38.91,1.92A19.86,19.86,0,0,1,244.06,214.5Z"/><path class="cls-7" d="M270.52,208.51c.94-.34,10.85-4.37,19-4.51s8.31,3.11,5.73,4.55-23.95,2-23.95,2Z"/><path class="cls-7" d="M268.42,211.06c-.94.34-10.85,4.37-19,4.51s-8.31-3.12-5.73-4.56,24-2,24-2Z"/><path class="cls-7" d="M267.32,209.25c-.53-.53-6.93-6.05-6.72-10.75s5.86-5,8.2-3.58,2.06,13.78,2.06,13.78Z"/><path class="cls-7" d="M271.62,210.32c.53.53,6.93,6.05,6.71,10.74s-5.85,5-8.2,3.58-2.06-13.78-2.06-13.78Z"/><g class="cls-8"><path class="cls-7" d="M267.79,208.94c-.21-.61-3.19-7.11-.44-11.62s8.17-3.77,9.58-2-5.55,13.71-5.55,13.71Z"/></g><g class="cls-8"><g class="cls-9"><path class="cls-7" d="M269,208.46c.4-.59,4.07-7.2,10.52-10.26s10.14-.72,9.6,1.29-17.32,10.2-17.32,10.2Z"/></g><g class="cls-10"><path class="cls-7" d="M268,210.58c-1.08.07-12.81,1.21-20-.76s-4.82-5-1.47-5.67,22.35,4.38,22.35,4.38Z"/></g><g class="cls-10"><path class="cls-7" d="M267.5,209.75c-.89-.33-11-3.53-14.34-7.69s1.62-5.85,4.86-5.21,12.34,11.53,12.34,11.53Z"/></g><g class="cls-11"><path class="cls-7" d="M270.87,210.9c0,.62.86,7.4-3.24,11.59s-9.13,2.87-9.95.94,9.73-13,9.73-13Z"/></g><g class="cls-9"><path class="cls-7" d="M271.14,208.73c1.06-.15,12.5-2.19,20.11-.81s6,4.55,2.79,5.46-23.34-2.55-23.34-2.55Z"/></g><g class="cls-12"><path class="cls-7" d="M271.7,209.13c1,.31,11.89,3.32,16.35,7.42s-.05,5.88-3.45,5.29-15.39-11.29-15.39-11.29Z"/><path class="cls-7" d="M269.75,211.11c-.52.57-5.51,6.92-12.49,9.54s-10.15,0-9.21-2,19.19-9,19.19-9Z"/></g></g><path class="cls-7" d="M249.2,215.58c7.9-.14,17.51-4,18.87-4.48,0,1.74-.08,12.24,2.06,13.54,2.35,1.42,8,1.12,8.2-3.58.21-4.35-5.27-9.41-6.5-10.55,3.4-.09,21-.66,23.38-2,2.58-1.44,2.38-4.69-5.73-4.55-7.51.13-16.57,3.59-18.61,4.37,0-2,.05-12.17-2.07-13.45-2.34-1.42-8-1.12-8.2,3.58-.2,4.36,5.3,9.42,6.52,10.55-2.61.08-21.25.64-23.65,2C240.89,212.46,241.09,215.72,249.2,215.58Zm18.88-4.72-.59-1.64,3.12-.48.59,1.64Z"/><path class="cls-7" d="M267.88,209.78c-.94.34-10.85,4.37-19,4.51s-8.31-3.11-5.73-4.56,23.95-2,23.95-2Z"/><path class="cls-7" d="M267,208c-.53-.53-6.93-6.05-6.72-10.75s5.86-5,8.2-3.58,2.06,13.78,2.06,13.78Z"/><path class="cls-7" d="M271.5,208.71c.53.53,6.94,6,6.72,10.74s-5.86,5-8.2,3.58S268,209.25,268,209.25Z"/><path class="cls-7" d="M269.92,207.05c.95-.33,10.86-4.36,19-4.5s8.3,3.11,5.72,4.55-23.95,2-23.95,2Z"/><path class="cls-7" d="M267.88,209.78c-.94.34-10.85,4.37-19,4.51s-8.31-3.11-5.73-4.56,23.95-2,23.95-2Z"/><path class="cls-7" d="M267,208c-.53-.53-6.93-6.05-6.72-10.75s5.86-5,8.2-3.58,2.06,13.78,2.06,13.78Z"/><path class="cls-7" d="M271.19,208.55c.53.52,6.93,6,6.71,10.74s-5.85,5-8.2,3.58-2.06-13.78-2.06-13.78Z"/><path class="cls-7" d="M266.87,211.83c-1.71-.88-1.78-2.43-.17-3.47a6.67,6.67,0,0,1,6-.3c1.71.88,1.78,2.43.17,3.47A6.64,6.64,0,0,1,266.87,211.83Z"/><path class="cls-13" d="M266,211.58c-2.13-1.09-2.23-3-.21-4.33a8.27,8.27,0,0,1,7.5-.37c2.13,1.09,2.23,3,.22,4.33A8.29,8.29,0,0,1,266,211.58Z"/><path class="cls-13" d="M272.29,210l2.67-1.25a8.33,8.33,0,0,0-2.57-5l-6.33.74a9.14,9.14,0,0,0-1.68,4.84C265.27,212.65,272.29,210,272.29,210Z"/><path class="cls-7" d="M267,206.71c-1.45-.75-1.52-2.07-.14-3a5.7,5.7,0,0,1,5.13-.26c1.46.75,1.52,2.08.15,3A5.72,5.72,0,0,1,267,206.71Z"/><path class="cls-13" d="M267.73,206.22a1.09,1.09,0,0,1-.1-2.06,4,4,0,0,1,3.57-.18,1.1,1.1,0,0,1,.11,2.07A4,4,0,0,1,267.73,206.22Z"/><path class="cls-5" d="M249.3,218.25c11,5.66,28.49,4.8,38.91-1.92a20.43,20.43,0,0,0,4.68-4.05,22.32,22.32,0,0,0,6.17-1.94v.15c0,.11,0,.21,0,.32s0,.22,0,.32,0,.22,0,.32,0,.22,0,.33,0,.21,0,.32,0,.21,0,.32,0,.21,0,.32,0,.21,0,.32,0,.21,0,.32,0,.22,0,.32,0,.22,0,.32,0,.22,0,.33,0,.21,0,.32,0,.21,0,.32,0,.21,0,.32,0,.21,0,.32,0,.22,0,.32,0,.22,0,.32,0,.22,0,.32,0,.22,0,.33,0,.21,0,.32,0,.21,0,.32,0,.21,0,.32,0,.21,0,.32,0,.22,0,.32,0,.22,0,.32c.3,4.58-2.46,9.31-8.32,13.09-11.58,7.48-31,8.44-43.25,2.14-6.21-3.19-9.41-7.63-9.57-12.21,0-.1,0-.21,0-.32s0-.21,0-.32,0-.21,0-.32,0-.21,0-.32,0-.22,0-.32,0-.22,0-.32,0-.22,0-.33,0-.21,0-.32,0-.21,0-.32,0-.21,0-.32,0-.21,0-.32,0-.21,0-.32,0-.22,0-.32,0-.22,0-.32,0-.22,0-.33,0-.21,0-.32,0-.21,0-.32,0-.21,0-.32,0-.21,0-.32-.38-7.62-.38-7.71,1.77,2.93,1.87,2.92c2-.34,2.83,3.93,4.85,3.84A20.54,20.54,0,0,0,249.3,218.25Z"/><path class="cls-14" d="M289.21,192.5c12.27,6.3,12.82,17.5,1.23,25s-31,8.43-43.25,2.13-12.82-17.5-1.23-25S277,186.21,289.21,192.5Zm-2.11,1.36c-11-5.66-28.49-4.8-38.91,1.92s-9.93,16.8,1.11,22.47,28.49,4.8,38.91-1.92S298.14,199.53,287.1,193.86Z"/><path class="cls-5" d="M163.09,151.59a9.54,9.54,0,0,1-8.63.26,3.08,3.08,0,0,1-1.88-2.45h0v-1.12l12.2.05V149A3,3,0,0,1,163.09,151.59Z"/><ellipse class="cls-14" cx="158.69" cy="148.17" rx="6.11" ry="3.53" transform="translate(-3.75 4.12) rotate(-1.47)"/><path class="cls-44" d="M160.17,148a.54.54,0,0,0,0-.56.54.54,0,0,0,0-.56,1804.33,1804.33,0,0,1,0-1.13.5.5,0,0,0,0-.56,19712673506268,19712673506268,0,0,0,0-1.12.5.5,0,0,0,0-.56.5.5,0,0,0,0-.56.48.48,0,0,0,0-.56.47.47,0,0,0,0-.56,19712673506267,19712673506267,0,0,0,0-1.12.47.47,0,0,0,0-.56,19712673506272,19712673506272,0,0,0,0-1.12,94.11,94.11,0,0,0,0-1.68,19712673506519,19712673506519,0,0,1,0-1.12,19712673506267.9,19712673506267.9,0,0,0,0-1.12.47.47,0,0,0,0-.56.46.46,0,0,0,0-.56,32.83,32.83,0,0,0,0-1.13,19712673506519.09,19712673506519.09,0,0,1,0-1.12.41.41,0,0,0,0-.56,19712673506271.8,19712673506271.8,0,0,0,0-1.12.41.41,0,0,0,0-.56,19712673506267.77,19712673506267.77,0,0,0,0-1.12.4.4,0,0,0,0-.56,19712673506267.74,19712673506267.74,0,0,0,0-1.12.4.4,0,0,0,0-.56,59138020519306.11,59138020519306.11,0,0,1,0-1.68.4.4,0,0,0,0-.56.39.39,0,0,0,0-.56.4.4,0,0,0,0-.57.39.39,0,0,0,0-.56,9856336753179.53,9856336753179.53,0,0,1,0-1.12,29569010259569.75,29569010259569.75,0,0,1,0-1.68,9856336753213.63,9856336753213.63,0,0,0,0-1.12.36.36,0,0,0,0-.56.36.36,0,0,0,0-.56c.21-.21.16-.49-.15-.67a1.53,1.53,0,0,0-1.35,0c-.31.18-.36.46-.15.67a9856336753213.69,9856336753213.69,0,0,1,0,1.12.36.36,0,0,0,0,.56.36.36,0,0,0,0,.56,9856336753180.81,9856336753180.81,0,0,0,0,1.12,9856336753213.38,9856336753213.38,0,0,1,0,1.12.38.38,0,0,0,0,.56.38.38,0,0,0,0,.56.4.4,0,0,0,0,.57,9856336753179.63,9856336753179.63,0,0,0,0,1.12,9856336753212.06,9856336753212.06,0,0,1,0,1.12.4.4,0,0,0,0,.56,9856336753213.53,9856336753213.53,0,0,1,0,1.12.42.42,0,0,0,0,.56,29569010259573.18,29569010259573.18,0,0,0,0,1.68,59138020519292.16,59138020519292.16,0,0,0,0,1.68,19712673506517.27,19712673506517.27,0,0,0,0,1.12.44.44,0,0,0,0,.56.47.47,0,0,0,0,.57.45.45,0,0,0,0,.56,19712673506269.59,19712673506269.59,0,0,1,0,1.12.45.45,0,0,0,0,.56.47.47,0,0,0,0,.56,19712673506268.55,19712673506268.55,0,0,1,0,1.12.47.47,0,0,0,0,.56.47.47,0,0,0,0,.56,19712673506517.41,19712673506517.41,0,0,0,0,1.12,19712673506273.49,19712673506273.49,0,0,1,0,1.12.5.5,0,0,0,0,.56.48.48,0,0,0,0,.56,19712673506269.46,19712673506269.46,0,0,1,0,1.12.48.48,0,0,0,0,.56,19712673506269.43,19712673506269.43,0,0,1,0,1.12.5.5,0,0,0,0,.56.5.5,0,0,0,0,.56.51.51,0,0,0,0,.57.5.5,0,0,0,0,.56.5.5,0,0,0,0,.56.52.52,0,0,0,0,.56c-.19.3-.08.64.34.88a2.29,2.29,0,0,0,2.07,0C160.25,148.63,160.35,148.29,160.17,148Z"/><polygon class="cls-5" points="158.69 117.64 264.84 10.19 265.12 10.52 160.25 116.91 390.37 77.11 390.45 77.54 158.69 117.64"/><path class="cls-7" d="M24.72,289.28C23.43,287.72,8.91,271.65,3,256.33s.18-18,4.71-14,20.31,44.19,20.31,44.19Z"/><path class="cls-7" d="M31.32,291.28c1.29,1.56,15.81,17.62,21.68,33s-.18,17.95-4.71,14S28,294.08,28,294.08Z"/><path class="cls-7" d="M28.43,294.14c-.64,1.37-6.71,17.37-15.8,20.2S-.92,306.65.16,301.22,25,287.77,25,287.77Z"/><path class="cls-7" d="M26.69,285.85c.63-1.38,6.71-17.38,15.79-20.21S56,273.33,55,278.76s-24.79,13.45-24.79,13.45Z"/><path class="cls-13" d="M31.64,292.18c-.22,2.38-2,3.19-3.94,1.8a8.3,8.3,0,0,1-3.12-6.84c.22-2.38,2-3.19,3.94-1.8A8.28,8.28,0,0,1,31.64,292.18Z"/><path class="cls-13" d="M27.82,287l-2.14-2A8.33,8.33,0,0,0,22,289.18l3,5.6a9.18,9.18,0,0,0,5.12-.23C32.93,292.5,27.82,287,27.82,287Z"/><path class="cls-7" d="M26.77,293.11c-.15,1.63-1.36,2.18-2.69,1.23a5.68,5.68,0,0,1-2.14-4.67c.16-1.63,1.37-2.18,2.7-1.23A5.67,5.67,0,0,1,26.77,293.11Z"/><path class="cls-13" d="M26,292.59c-.11,1.13-.95,1.52-1.88.86a4,4,0,0,1-1.49-3.26c.11-1.13.95-1.52,1.88-.86A4,4,0,0,1,26,292.59Z"/><path class="cls-44" d="M3.67,304.09A.34.34,0,0,0,3.9,304a.31.31,0,0,0,.22-.11.3.3,0,0,0,.22-.1.38.38,0,0,0,.23-.11.34.34,0,0,0,.23-.11.37.37,0,0,0,.22-.1.38.38,0,0,0,.23-.11.39.39,0,0,0,.22-.11.38.38,0,0,0,.23-.11.39.39,0,0,0,.22-.11.44.44,0,0,0,.23-.1.46.46,0,0,0,.22-.11.45.45,0,0,0,.23-.11.36.36,0,0,0,.22-.11.38.38,0,0,0,.23-.11.36.36,0,0,0,.22-.11.44.44,0,0,0,.23-.1.42.42,0,0,0,.22-.11A.45.45,0,0,0,8,302a.41.41,0,0,0,.23-.11.39.39,0,0,0,.22-.11.48.48,0,0,0,.23-.1.57.57,0,0,0,.22-.11.49.49,0,0,0,.23-.11.46.46,0,0,0,.22-.11.41.41,0,0,0,.23-.11.44.44,0,0,0,.22-.1.61.61,0,0,0,.23-.11.57.57,0,0,0,.22-.11.49.49,0,0,0,.23-.11.46.46,0,0,0,.22-.11.44.44,0,0,0,.23-.1.7.7,0,0,0,.23-.11.57.57,0,0,0,.22-.11.61.61,0,0,0,.23-.11.46.46,0,0,0,.22-.11.49.49,0,0,0,.23-.11.46.46,0,0,0,.22-.11.48.48,0,0,0,.23-.1.57.57,0,0,0,.22-.11.61.61,0,0,0,.23-.11.57.57,0,0,0,.22-.11.49.49,0,0,0,.23-.11.55.55,0,0,0,.22-.1.61.61,0,0,0,.23-.11.7.7,0,0,0,.23-.11.65.65,0,0,0,.22-.11.7.7,0,0,0,.23-.11.51.51,0,0,0,.22-.11.67.67,0,0,0,.23-.1.76.76,0,0,0,.22-.11.7.7,0,0,0,.23-.11.57.57,0,0,0,.22-.11.7.7,0,0,0,.23-.11.57.57,0,0,0,.22-.11.6.6,0,0,0,.23-.1.76.76,0,0,0,.22-.11.61.61,0,0,0,.23-.11.57.57,0,0,0,.22-.11.61.61,0,0,0,.23-.11.57.57,0,0,0,.22-.11.6.6,0,0,0,.23-.1.76.76,0,0,0,.22-.11.61.61,0,0,0,.23-.11.57.57,0,0,0,.22-.11.61.61,0,0,0,.23-.11.7.7,0,0,0,.23-.11.62.62,0,0,0,.22-.1,1,1,0,0,0,.23-.11.65.65,0,0,0,.22-.11.7.7,0,0,0,.23-.11.65.65,0,0,0,.22-.11.94.94,0,0,0,.23-.1.91.91,0,0,0,.22-.11,1,1,0,0,0,.23-.11.91.91,0,0,0,.22-.11.7.7,0,0,0,.23-.11.65.65,0,0,0,.22-.11.94.94,0,0,0,.23-.1.91.91,0,0,0,.22-.11,1,1,0,0,0,.23-.11.76.76,0,0,0,.22-.11.61.61,0,0,0,.23-.11.57.57,0,0,0,.22-.11.8.8,0,0,0,.23-.1.76.76,0,0,0,.22-.11.82.82,0,0,0,.23-.11.76.76,0,0,0,.22-.11.61.61,0,0,0,.23-.11.7.7,0,0,0,.23-.11.88.88,0,0,0,.22-.1l.23-.11a.91.91,0,0,0,.22-.11,1,1,0,0,0,.23-.11.65.65,0,0,0,.22-.11.7.7,0,0,0,.23-.11.88.88,0,0,0,.22-.1,1.17,1.17,0,0,0,.7-1.24,4,4,0,0,0-1.79-3.11,1.18,1.18,0,0,0-1.41,0,1.28,1.28,0,0,0-.21.14,1.2,1.2,0,0,0-.21.13,1.28,1.28,0,0,0-.21.14.85.85,0,0,0-.21.14.63.63,0,0,0-.2.13.77.77,0,0,0-.21.14.74.74,0,0,0-.21.13.77.77,0,0,0-.21.14.74.74,0,0,0-.21.13.77.77,0,0,0-.21.14.6.6,0,0,0-.21.14.74.74,0,0,0-.21.13.77.77,0,0,0-.21.14.74.74,0,0,0-.21.13,1.28,1.28,0,0,0-.21.14.85.85,0,0,0-.21.14.8.8,0,0,0-.21.13,1.28,1.28,0,0,0-.21.14.86.86,0,0,0-.2.13.77.77,0,0,0-.21.14.6.6,0,0,0-.21.14.57.57,0,0,0-.21.13.6.6,0,0,0-.21.14.74.74,0,0,0-.21.13.77.77,0,0,0-.21.14.74.74,0,0,0-.21.13.77.77,0,0,0-.21.14.6.6,0,0,0-.21.14.57.57,0,0,0-.21.13.85.85,0,0,0-.21.14,1.2,1.2,0,0,0-.21.13,1.28,1.28,0,0,0-.21.14.66.66,0,0,0-.2.14.57.57,0,0,0-.21.13.6.6,0,0,0-.21.14.74.74,0,0,0-.21.13.6.6,0,0,0-.21.14.6.6,0,0,0-.21.14.57.57,0,0,0-.21.13.6.6,0,0,0-.21.14.57.57,0,0,0-.21.13.6.6,0,0,0-.21.14.74.74,0,0,0-.21.13.77.77,0,0,0-.21.14.85.85,0,0,0-.21.14.63.63,0,0,0-.2.13.6.6,0,0,0-.21.14.74.74,0,0,0-.21.13.6.6,0,0,0-.21.14.6.6,0,0,0-.21.14.57.57,0,0,0-.21.13.6.6,0,0,0-.21.14.6.6,0,0,0-.21.14.46.46,0,0,0-.21.13.6.6,0,0,0-.21.14.57.57,0,0,0-.21.13.6.6,0,0,0-.21.14.6.6,0,0,0-.21.14.57.57,0,0,0-.21.13.6.6,0,0,0-.21.14.49.49,0,0,0-.21.14.46.46,0,0,0-.21.13.6.6,0,0,0-.21.14.57.57,0,0,0-.21.13.6.6,0,0,0-.21.14.49.49,0,0,0-.21.14.46.46,0,0,0-.21.13.6.6,0,0,0-.21.14.49.49,0,0,0-.21.14.46.46,0,0,0-.21.13.41.41,0,0,0-.2.14A.38.38,0,0,0,8,299a.46.46,0,0,0-.21.14.43.43,0,0,0-.21.14.42.42,0,0,0-.21.13.49.49,0,0,0-.21.14.46.46,0,0,0-.21.13.49.49,0,0,0-.21.14.49.49,0,0,0-.21.14.46.46,0,0,0-.21.13.49.49,0,0,0-.21.14.41.41,0,0,0-.21.14.39.39,0,0,0-.21.13.41.41,0,0,0-.21.14.39.39,0,0,0-.2.13.39.39,0,0,0-.21.14.34.34,0,0,0-.21.14.33.33,0,0,0-.21.13.34.34,0,0,0-.21.14.36.36,0,0,0-.21.13.41.41,0,0,0-.21.14.41.41,0,0,0-.21.14.39.39,0,0,0-.21.13.41.41,0,0,0-.21.14.34.34,0,0,0-.2.13.34.34,0,0,0-.21.14.34.34,0,0,0-.21.14.3.3,0,0,0-.21.13.34.34,0,0,0-.21.14.31.31,0,0,0-.21.14.3.3,0,0,0-.21.13.34.34,0,0,0-.21.14c-.17,0-.29.19-.29.45a1.42,1.42,0,0,0,.63,1.1c.23.12.42.1.53,0a.34.34,0,0,0,.23-.11.3.3,0,0,0,.23-.11.3.3,0,0,0,.22-.1.38.38,0,0,0,.23-.11A.31.31,0,0,0,3.67,304.09Z"/><ellipse class="cls-45" cx="149.13" cy="320.08" rx="2.12" ry="1.23" transform="translate(-202.46 287.28) rotate(-59.69)"/><path class="cls-6" d="M147.2,321a3.87,3.87,0,0,1,1.75-3,1.24,1.24,0,0,1,1.24-.12h0l.39.24L148,322.26l-.23-.14A1.21,1.21,0,0,1,147.2,321Z"/><path class="cls-46" d="M147.56,321.21c0,1.11.79,1.56,1.75,1a3.88,3.88,0,0,0,1.76-3c0-1.11-.79-1.56-1.76-1A3.88,3.88,0,0,0,147.56,321.21Z"/><path class="cls-46" d="M148.68,321.69a1.07,1.07,0,0,0,.47-.15,2.84,2.84,0,0,0,1.26-2.16c0-.21,0-.68-.46-.68a1,1,0,0,0-.47.15,2.81,2.81,0,0,0-1.26,2.16C148.22,321.21,148.27,321.69,148.68,321.69Z"/><path class="cls-47" d="M152,320.56a1.88,1.88,0,0,1-1.91,1.91,2.83,2.83,0,0,1-1.76-.67,1.48,1.48,0,0,1-.33-1.16,2.21,2.21,0,0,1,2.08-2.08A2.05,2.05,0,0,1,152,320.56Z"/><path class="cls-48" d="M151.46,320.4a1.58,1.58,0,0,1-1.61,1.61,2.42,2.42,0,0,1-1.49-.56,1.42,1.42,0,0,1-.23-1.05,1.77,1.77,0,0,1,1.71-1.69A1.74,1.74,0,0,1,151.46,320.4Z"/><path class="cls-49" d="M150.93,320.22a1.33,1.33,0,0,1-1.35,1.35,2,2,0,0,1-1.25-.47c-.22-.24-.12-.51-.12-.86a1.44,1.44,0,0,1,1.36-1.45A1.47,1.47,0,0,1,150.93,320.22Z"/><path class="cls-50" d="M149.78,320a.44.44,0,0,1-.49.37.5.5,0,0,1-.29-.26.6.6,0,0,1,0-.32.5.5,0,0,1,.52-.38A.48.48,0,0,1,149.78,320Z"/><path class="cls-50" d="M150.15,319.16a.18.18,0,0,1-.18.17.28.28,0,0,1-.16-.06s0-.07,0-.11a.18.18,0,1,1,.36,0Z"/><ellipse class="cls-51" cx="155.61" cy="316.11" rx="2.12" ry="1.23" transform="translate(-195.82 290.91) rotate(-59.69)"/><path class="cls-6" d="M153.68,317a3.87,3.87,0,0,1,1.75-3,1.24,1.24,0,0,1,1.24-.12h0l.39.24-2.62,4.19-.23-.14A1.21,1.21,0,0,1,153.68,317Z"/><path class="cls-46" d="M154,317.24c0,1.11.78,1.56,1.75,1a3.88,3.88,0,0,0,1.76-3c0-1.11-.79-1.56-1.76-1A3.85,3.85,0,0,0,154,317.24Z"/><path class="cls-46" d="M155.16,317.72a1.07,1.07,0,0,0,.47-.15,2.83,2.83,0,0,0,1.25-2.16c0-.21,0-.68-.45-.68a1,1,0,0,0-.47.15A2.81,2.81,0,0,0,154.7,317C154.7,317.24,154.75,317.72,155.16,317.72Z"/><path class="cls-47" d="M158.47,316.59a1.88,1.88,0,0,1-1.91,1.91,2.83,2.83,0,0,1-1.76-.67,1.48,1.48,0,0,1-.33-1.16,2.21,2.21,0,0,1,2.08-2.08A2.05,2.05,0,0,1,158.47,316.59Z"/><path class="cls-48" d="M157.94,316.43a1.58,1.58,0,0,1-1.61,1.61,2.37,2.37,0,0,1-1.49-.56,1.42,1.42,0,0,1-.23-1.05,1.77,1.77,0,0,1,1.7-1.69A1.74,1.74,0,0,1,157.94,316.43Z"/><path class="cls-49" d="M157.41,316.25a1.33,1.33,0,0,1-1.35,1.35,2,2,0,0,1-1.25-.47c-.22-.24-.12-.51-.12-.86a1.44,1.44,0,0,1,1.36-1.45A1.47,1.47,0,0,1,157.41,316.25Z"/><path class="cls-50" d="M156.26,316a.44.44,0,0,1-.49.37.5.5,0,0,1-.29-.26.6.6,0,0,1,0-.32.5.5,0,0,1,.52-.38A.48.48,0,0,1,156.26,316Z"/><path class="cls-50" d="M156.63,315.19a.18.18,0,0,1-.18.17.28.28,0,0,1-.16-.06s0-.07,0-.11a.18.18,0,1,1,.36,0Z"/><ellipse class="cls-52" cx="142.48" cy="324.29" rx="2.12" ry="1.23" transform="translate(-209.38 283.63) rotate(-59.69)"/><path class="cls-6" d="M140.55,325.19a3.85,3.85,0,0,1,1.75-3,1.24,1.24,0,0,1,1.24-.13h0l.39.24-2.62,4.19-.23-.14A1.19,1.19,0,0,1,140.55,325.19Z"/><path class="cls-46" d="M140.91,325.41c0,1.11.78,1.56,1.75,1a3.86,3.86,0,0,0,1.76-3c0-1.12-.79-1.56-1.76-1A3.87,3.87,0,0,0,140.91,325.41Z"/><path class="cls-46" d="M142,325.89a1,1,0,0,0,.47-.15,2.8,2.8,0,0,0,1.25-2.16c0-.2,0-.68-.45-.68a1,1,0,0,0-.47.16,2.81,2.81,0,0,0-1.26,2.16C141.57,325.42,141.62,325.89,142,325.89Z"/><path class="cls-47" d="M145.34,324.77a1.88,1.88,0,0,1-1.91,1.9,2.82,2.82,0,0,1-1.76-.66,1.49,1.49,0,0,1-.33-1.16,2.22,2.22,0,0,1,2.08-2.09A2.06,2.06,0,0,1,145.34,324.77Z"/><path class="cls-48" d="M144.81,324.61a1.6,1.6,0,0,1-1.61,1.61,2.32,2.32,0,0,1-1.49-.57,1.39,1.39,0,0,1-.23-1,1.77,1.77,0,0,1,1.7-1.7A1.74,1.74,0,0,1,144.81,324.61Z"/><path class="cls-49" d="M144.28,324.43a1.33,1.33,0,0,1-1.35,1.35,2,2,0,0,1-1.26-.48c-.21-.24-.11-.51-.11-.86a1.43,1.43,0,0,1,1.36-1.44A1.46,1.46,0,0,1,144.28,324.43Z"/><path class="cls-50" d="M143.13,324.18a.42.42,0,0,1-.49.36.48.48,0,0,1-.29-.25.52.52,0,0,1,0-.32c.08-.26.32-.44.52-.38S143.19,323.92,143.13,324.18Z"/><path class="cls-50" d="M143.5,323.36a.18.18,0,0,1-.18.18.24.24,0,0,1-.16-.07s0-.06,0-.11a.19.19,0,0,1,.18-.18A.19.19,0,0,1,143.5,323.36Z"/></g></g></svg>