<svg xmlns="http://www.w3.org/2000/svg" xmlns:xlink="http://www.w3.org/1999/xlink" viewBox="0 0 368.17 325.66"><defs><style>.cls-1{fill:none;}.cls-2{fill:#65b9c2;}.cls-3{fill:#cbddd6;}.cls-4{fill:#bf682a;}.cls-5{fill:#4d311c;}.cls-6{fill:#45291c;}.cls-7{fill:#492d1c;}.cls-8{fill:#593b26;}.cls-9{clip-path:url(#clip-path);}.cls-10{clip-path:url(#clip-path-2);}.cls-11{clip-path:url(#clip-path-3);}.cls-12{fill:#84e393;}.cls-13{fill:#5dd971;}.cls-14{fill:#7cc2a6;}.cls-15{clip-path:url(#clip-path-5);}.cls-16{clip-path:url(#clip-path-6);}.cls-17{fill:#cab25f;}.cls-18{clip-path:url(#clip-path-7);}.cls-19{fill:url(#linear-gradient);}.cls-20{fill:#fbba9c;}.cls-21{fill:#34130c;}.cls-22{fill:url(#linear-gradient-2);}.cls-23{fill:url(#linear-gradient-3);}.cls-24{fill:url(#linear-gradient-4);}.cls-25{fill:url(#linear-gradient-5);}.cls-26{fill:url(#linear-gradient-6);}.cls-27{fill:url(#linear-gradient-7);}.cls-28{fill:url(#linear-gradient-8);}.cls-29{fill:url(#linear-gradient-9);}.cls-30{clip-path:url(#clip-path-8);}.cls-31{clip-path:url(#clip-path-9);}.cls-32{fill:#84dae3;}.cls-33{fill:#6c86a6;}.cls-34{fill:#7c4331;}.cls-35{fill:#cac4b1;}.cls-36{fill:url(#linear-gradient-10);}.cls-37{fill:url(#linear-gradient-11);}.cls-38{opacity:0.65;}.cls-39{fill:#663631;}.cls-40{fill:url(#linear-gradient-12);}.cls-41{fill:#33120d;}.cls-42{fill:#ffa600;}.cls-43{fill:#febd01;}.cls-44{fill:#fecd44;}.cls-45{fill:#fff2c8;}.cls-46{fill:url(#linear-gradient-13);}.cls-47{fill:url(#linear-gradient-14);}</style><clipPath id="clip-path"><polygon class="cls-1" points="170.68 240.7 153.19 266.48 86.65 304.89 66.04 307.96 66.04 287.68 211.37 203.78 205.82 211.04 170.68 240.7"/></clipPath><clipPath id="clip-path-2"><polygon class="cls-3" points="170.68 240.7 153.19 266.48 86.65 304.89 67.4 306.9 66.04 287.68 211.37 203.78 205.82 211.04 170.68 240.7"/></clipPath><clipPath id="clip-path-3"><path class="cls-1" d="M98,289.25,64.63,308.5V291.91l29.44-17c3.5-2,6.33-.38,6.33,3.65v6.5A5.37,5.37,0,0,1,98,289.25Z"/></clipPath><clipPath id="clip-path-5"><polyline class="cls-1" points="233.92 227.37 198.78 257.02 181.29 282.81 114.76 321.22 94.15 324.28 94.15 304.01"/></clipPath><clipPath id="clip-path-6"><polyline class="cls-1" points="197.84 259.86 181.29 282.81 114.76 321.22 94.15 324.28 94.15 304.01"/></clipPath><clipPath id="clip-path-7"><path class="cls-1" d="M229.58,231.05,201.31,259.4l-20,23.43-61,35.2a33.55,33.55,0,0,1-11.88,4.15L94.15,324.3V304"/></clipPath><linearGradient id="linear-gradient" x1="242.48" y1="584.03" x2="247.18" y2="592.17" gradientTransform="translate(-220.37 805) rotate(-123.08)" gradientUnits="userSpaceOnUse"><stop offset="0.01" stop-color="#521803"/><stop offset="0.45" stop-color="#ff8d5f"/><stop offset="0.92" stop-color="#3f1000"/></linearGradient><linearGradient id="linear-gradient-2" x1="241.52" y1="598.2" x2="246.23" y2="606.35" xlink:href="#linear-gradient"/><linearGradient id="linear-gradient-3" x1="241.81" y1="598.39" x2="246.51" y2="606.54" xlink:href="#linear-gradient"/><linearGradient id="linear-gradient-4" x1="240.77" y1="612.79" x2="245.47" y2="620.94" xlink:href="#linear-gradient"/><linearGradient id="linear-gradient-5" x1="241.06" y1="612.98" x2="245.76" y2="621.13" xlink:href="#linear-gradient"/><linearGradient id="linear-gradient-6" x1="240.37" y1="627.61" x2="245.07" y2="635.76" xlink:href="#linear-gradient"/><linearGradient id="linear-gradient-7" x1="239.58" y1="642.33" x2="244.28" y2="650.48" xlink:href="#linear-gradient"/><linearGradient id="linear-gradient-8" x1="229.05" y1="590.08" x2="233.76" y2="598.23" xlink:href="#linear-gradient"/><linearGradient id="linear-gradient-9" x1="228.3" y1="604.67" x2="233.01" y2="612.82" xlink:href="#linear-gradient"/><clipPath id="clip-path-8"><polyline class="cls-1" points="235.71 226.16 200.13 256.18 182.42 282.29 115.06 321.18 94.19 324.28 94.19 303.75"/></clipPath><clipPath id="clip-path-9"><path class="cls-2" d="M126.52,305.34,92.76,324.83V308l29.81-17.21c3.53-2,6.4-.38,6.4,3.7v6.57A5.42,5.42,0,0,1,126.52,305.34Z"/></clipPath><linearGradient id="linear-gradient-10" x1="226.05" y1="190.34" x2="240.48" y2="190.34" gradientTransform="translate(-26.69 15.08) rotate(-3.17)" gradientUnits="userSpaceOnUse"><stop offset="0" stop-color="#61220b"/><stop offset="0.01" stop-color="#521803"/><stop offset="0.48" stop-color="#9e4b2d"/><stop offset="0.62" stop-color="#883d22"/><stop offset="0.93" stop-color="#4e1907"/><stop offset="1" stop-color="#3f1000"/></linearGradient><linearGradient id="linear-gradient-11" x1="233.87" y1="192.53" x2="240.48" y2="192.53" xlink:href="#linear-gradient-10"/><linearGradient id="linear-gradient-12" x1="123.65" y1="309.89" x2="126.67" y2="309.89" gradientTransform="translate(329.52 45.44) rotate(59.69)" xlink:href="#linear-gradient"/><linearGradient id="linear-gradient-13" x1="130.13" y1="305.92" x2="133.15" y2="305.92" gradientTransform="translate(329.3 37.88) rotate(59.69)" xlink:href="#linear-gradient"/><linearGradient id="linear-gradient-14" x1="117" y1="314.1" x2="120.01" y2="314.1" gradientTransform="translate(329.86 53.27) rotate(59.69)" xlink:href="#linear-gradient"/></defs><title>zeppelin_u_prop</title><g id="Layer_2" data-name="Layer 2"><g id="Layer_1-2" data-name="Layer 1"><path class="cls-4" d="M116.81,318.85a.16.16,0,0,1-.17-.15l-1.38-16.35a.17.17,0,0,1,.15-.18.17.17,0,0,1,.18.15L117,318.67a.17.17,0,0,1-.15.18Z"/><path class="cls-4" d="M122.13,315.31a.17.17,0,0,1-.17-.16l-.49-10.25a.16.16,0,0,1,.15-.17.18.18,0,0,1,.18.16l.49,10.24a.18.18,0,0,1-.16.18Z"/><path class="cls-5" d="M120.06,112.82c-12.27-6.29-31.67-5.34-43.26,2.14-5.86,3.78-8.61,8.52-8.32,13.09,0,.11,0,.21,0,.32s0,.21,0,.32,0,.21,0,.32,0,.22,0,.32,0,.22,0,.32,0,.22,0,.33,0,.21,0,.32,0,.21,0,.32,0,.21,0,.32,0,.21,0,.32,0,.22,0,.32,0,.22,0,.32,0,.22,0,.32,0,.22,0,.33,0,.21,0,.32,0,.21,0,.32,0,.21,0,.32,0,.21,0,.32,0,.22,0,.32,0,.22,0,.32,0,.22,0,.33,0,.21,0,.32,0,.21,0,.32,0,.21,0,.32,0,.21,0,.32,0,.21,0,.32,0,.22,0,.32,0,.22,0,.32,0,.22,0,.33,0,.21,0,.32,0,.21,0,.32,0,.21,0,.32,0,.21,0,.32,0,.21,0,.32,0,.22,0,.32,0,.22,0,.32,0,.22,0,.33,0,.21,0,.32,0,.21,0,.32,0,.21,0,.32,0,.21,0,.32,0,.22,0,.32,0,.22,0,.32,0,.22,0,.32c.15,4.58,3.36,9,9.56,12.21,12.27,6.3,31.67,5.34,43.26-2.13,5.86-3.79,8.61-8.52,8.31-13.09,0-.11,0-.22,0-.33s0-.21,0-.32,0-.21,0-.32,0-.21,0-.32,0-.21,0-.32,0-.22,0-.32,0-.22,0-.32,0-.22,0-.32,0-.22,0-.33,0-.21,0-.32,0-.21,0-.32,0-.21,0-.32,0-.21,0-.32,0-.22,0-.32,0-.22,0-.32,0-.22,0-.33,0-.21,0-.32,0-.21,0-.32,0-.21,0-.32,0-.21,0-.32,0-.21,0-.32,0-.22,0-.32,0-.22,0-.32,0-.22,0-.33,0-.21,0-.32,0-.21,0-.32,0-.21,0-.32,0-.21,0-.32,0-.22,0-.32,0-.22,0-.32,0-.22,0-.32,0-.22,0-.33,0-.21,0-.32,0-.21,0-.32,0-.21,0-.32,0-.21,0-.32,0-.22,0-.32,0-.22,0-.32,0-.22,0-.33,0-.21,0-.32,0-.21,0-.32,0-.21,0-.32,0-.21,0-.32,0-.21,0-.32C129.47,120.45,126.26,116,120.06,112.82Zm-45.16,22a20.16,20.16,0,0,1,4.85-4.26c10.42-6.72,27.88-7.58,38.91-1.92a20.35,20.35,0,0,1,5.25,3.76,20.35,20.35,0,0,1-4.85,4.25c-10.43,6.72-27.88,7.59-38.92,1.92A20,20,0,0,1,74.9,134.82Z"/><path class="cls-6" d="M80.14,138.57c11,5.67,28.49,4.8,38.92-1.92a20.36,20.36,0,0,0,4.67-4.05,22.21,22.21,0,0,0,6.17-1.94c0,.05,0,.1,0,.15s0,.22,0,.32,0,.22,0,.32,0,.22,0,.33,0,.21,0,.32,0,.21,0,.32,0,.21,0,.32,0,.21,0,.32,0,.21,0,.32,0,.22,0,.32,0,.22,0,.32,0,.22,0,.33,0,.21,0,.32,0,.21,0,.32,0,.21,0,.32,0,.21,0,.32,0,.21,0,.32,0,.22,0,.32,0,.22,0,.33,0,.21,0,.32,0,.21,0,.32,0,.21,0,.32,0,.21,0,.32,0,.21,0,.32,0,.22,0,.32,0,.22,0,.32,0,.22,0,.33c.3,4.57-2.45,9.3-8.31,13.09-11.59,7.47-31,8.43-43.26,2.13-6.2-3.19-9.41-7.63-9.56-12.21,0-.1,0-.21,0-.32s0-.21,0-.32,0-.21,0-.32,0-.21,0-.32,0-.21,0-.32,0-.22,0-.32,0-.22,0-.32,0-.22,0-.33,0-.21,0-.32,0-.21,0-.32,0-.21,0-.32,0-.21,0-.32,0-.21,0-.32,0-.22,0-.32,0-.22,0-.32,0-.22,0-.33,0-.21,0-.32,0-.21,0-.32,0-.21,0-.32-.38-7.62-.38-7.71,1.77,2.94,1.87,2.92c2-.34,2.83,3.93,4.86,3.85A20.74,20.74,0,0,0,80.14,138.57Z"/><path class="cls-7" d="M120.06,112.82c12.26,6.3,12.81,17.5,1.23,25s-31,8.43-43.26,2.13-12.81-17.5-1.23-25S107.79,106.53,120.06,112.82ZM118,114.18c-11-5.66-28.49-4.8-38.92,1.92s-9.92,16.81,1.11,22.47,28.49,4.8,38.92-1.92S129,119.85,118,114.18Z"/><polygon class="cls-8" points="65.97 292.42 94.1 308.74 94.15 324.28 66.03 307.93 65.97 292.42"/><polygon class="cls-3" points="170.68 240.7 153.19 266.48 86.65 304.89 67.4 306.9 66.04 287.68 211.37 203.78 205.82 211.04 170.68 240.7"/><g class="cls-10"><g class="cls-11"><rect class="cls-12" x="83.29" y="265.24" width="9.11" height="33" transform="translate(375.76 346.53) rotate(120)"/><rect class="cls-12" x="83.08" y="275.21" width="1.66" height="36.63" transform="translate(380.06 367.62) rotate(120)"/><rect class="cls-12" x="77.16" y="281.02" width="3.64" height="33.47" transform="translate(376.33 378.24) rotate(120)"/></g></g><path class="cls-13" d="M154.28,247.73c0,1.94,1.36,2.73,3,1.76a6.73,6.73,0,0,0,3.05-5.28c0-1.94-1.36-2.73-3.05-1.76A6.74,6.74,0,0,0,154.28,247.73Z"/><path class="cls-14" d="M154,247.86a7.28,7.28,0,0,1,3.28-5.68c1.81-1,3.28-.19,3.28,1.9a7.28,7.28,0,0,1-3.28,5.68C155.51,250.8,154,250,154,247.86Zm.47-.27c0,1.79,1.26,2.52,2.81,1.63a6.23,6.23,0,0,0,2.81-4.87c0-1.79-1.26-2.52-2.81-1.63A6.23,6.23,0,0,0,154.51,247.59Z"/><path class="cls-13" d="M141.51,255.1c0,1.94,1.36,2.73,3.05,1.76a6.73,6.73,0,0,0,3-5.28c0-1.94-1.36-2.73-3-1.76A6.74,6.74,0,0,0,141.51,255.1Z"/><path class="cls-14" d="M141.28,255.23a7.28,7.28,0,0,1,3.28-5.68c1.8-1,3.28-.19,3.28,1.9a7.29,7.29,0,0,1-3.28,5.68C142.75,258.17,141.28,257.32,141.28,255.23Zm.46-.27c0,1.79,1.27,2.52,2.82,1.63a6.23,6.23,0,0,0,2.81-4.87c0-1.79-1.26-2.52-2.81-1.62A6.21,6.21,0,0,0,141.74,255Z"/><path class="cls-13" d="M128.74,262.47c0,1.94,1.37,2.73,3,1.76a6.73,6.73,0,0,0,3-5.28c0-1.94-1.36-2.73-3-1.75A6.73,6.73,0,0,0,128.74,262.47Z"/><path class="cls-14" d="M128.51,262.61a7.25,7.25,0,0,1,3.28-5.68c1.81-1.05,3.28-.2,3.28,1.89a7.25,7.25,0,0,1-3.28,5.68C130,265.54,128.51,264.69,128.51,262.61Zm.47-.27c0,1.79,1.26,2.51,2.81,1.62a6.23,6.23,0,0,0,2.81-4.87c0-1.79-1.26-2.52-2.81-1.62A6.22,6.22,0,0,0,129,262.34Z"/><path class="cls-13" d="M116,269.84c0,1.94,1.36,2.73,3,1.76a6.73,6.73,0,0,0,3-5.27c0-1.95-1.37-2.73-3-1.76A6.72,6.72,0,0,0,116,269.84Z"/><path class="cls-14" d="M115.74,270A7.25,7.25,0,0,1,119,264.3c1.81-1.05,3.28-.2,3.28,1.89a7.25,7.25,0,0,1-3.28,5.68C117.21,272.91,115.74,272.06,115.74,270Zm.47-.27c0,1.79,1.26,2.51,2.81,1.62a6.23,6.23,0,0,0,2.81-4.87c0-1.79-1.26-2.52-2.81-1.62A6.22,6.22,0,0,0,116.21,269.71Z"/><path class="cls-13" d="M103.21,277.21c0,1.94,1.36,2.73,3,1.76a6.71,6.71,0,0,0,3-5.27c0-1.95-1.36-2.73-3-1.76A6.72,6.72,0,0,0,103.21,277.21Z"/><path class="cls-14" d="M103,277.35a7.27,7.27,0,0,1,3.28-5.68c1.81-1.05,3.28-.2,3.28,1.89a7.25,7.25,0,0,1-3.28,5.68C104.45,280.29,103,279.44,103,277.35Zm.47-.27c0,1.79,1.26,2.52,2.81,1.62a6.23,6.23,0,0,0,2.82-4.87c0-1.79-1.27-2.52-2.82-1.62A6.22,6.22,0,0,0,103.44,277.08Z"/><path class="cls-5" d="M198.78,257l-17.49,25.79L120.35,318a34,34,0,0,1-12,4.18l-14.23,2.11V290.41L239.48,206.5l-4.42,16.59a14.09,14.09,0,0,1-4.52,7.13Z"/><polygon class="cls-6" points="66.04 274.08 94.15 290.41 94.14 308.76 65.96 292.97 66.04 274.08"/><polygon class="cls-8" points="66 290.57 94.14 306.89 94.19 323.02 66.06 306.68 66 290.57"/><polygon class="cls-17" points="66.01 291.66 94.14 307.98 94.19 323.52 66.07 307.17 66.01 291.66"/><g class="cls-18"><path class="cls-17" d="M126.09,305.59,92.74,324.84V308.25l29.44-17c3.49-2,6.33-.38,6.33,3.65v6.49A5.37,5.37,0,0,1,126.09,305.59Z"/><path class="cls-8" d="M92.27,308l29.91-17.26c3.75-2.17,6.79-.41,6.79,3.92v6.49a6.39,6.39,0,0,1-2.88,5L92.27,325.66Zm.94.54V324l32.88-19a4.34,4.34,0,0,0,1.95-3.38v-6.49c0-3.73-2.63-5.25-5.86-3.38Z"/></g><path class="cls-19" d="M139.37,275.4a7.76,7.76,0,0,0-3.17,6.27,2.51,2.51,0,0,0,1.15,2.23h0l.83.38,4.17-9-.49-.24A2.41,2.41,0,0,0,139.37,275.4Z"/><ellipse class="cls-20" cx="140.37" cy="279.82" rx="4.97" ry="2.87" transform="translate(-172.69 279.97) rotate(-63.39)"/><ellipse class="cls-21" cx="140.37" cy="279.82" rx="4.04" ry="2.33" transform="translate(-172.69 279.97) rotate(-63.39)"/><path class="cls-22" d="M151.77,268.46a7.78,7.78,0,0,0-3.17,6.27,2.49,2.49,0,0,0,1.15,2.23h0l.83.39,4.17-9-.49-.24A2.41,2.41,0,0,0,151.77,268.46Z"/><ellipse class="cls-20" cx="152.76" cy="272.89" rx="4.97" ry="2.87" transform="translate(-159.65 287.23) rotate(-63.39)"/><ellipse class="cls-21" cx="152.76" cy="272.89" rx="4.04" ry="2.33" transform="translate(-159.65 287.23) rotate(-63.39)"/><path class="cls-23" d="M151.77,268.12a7.76,7.76,0,0,0-3.17,6.27,2.51,2.51,0,0,0,1.15,2.23h0l.83.38,4.17-9-.49-.24A2.41,2.41,0,0,0,151.77,268.12Z"/><ellipse class="cls-20" cx="152.76" cy="272.54" rx="4.97" ry="2.87" transform="translate(-159.34 287.04) rotate(-63.39)"/><ellipse class="cls-21" cx="152.76" cy="272.54" rx="4.04" ry="2.33" transform="translate(-159.34 287.04) rotate(-63.39)"/><path class="cls-24" d="M164.41,261.13a7.76,7.76,0,0,0-3.17,6.27,2.49,2.49,0,0,0,1.15,2.23h0l.82.38,4.18-9-.49-.24A2.41,2.41,0,0,0,164.41,261.13Z"/><ellipse class="cls-20" cx="165.4" cy="265.56" rx="4.97" ry="2.87" transform="translate(-146.11 294.48) rotate(-63.39)"/><ellipse class="cls-21" cx="165.4" cy="265.56" rx="4.04" ry="2.33" transform="translate(-146.11 294.48) rotate(-63.39)"/><path class="cls-25" d="M164.41,260.78a7.78,7.78,0,0,0-3.17,6.27,2.47,2.47,0,0,0,1.15,2.23h0l.82.39,4.18-9-.49-.24A2.41,2.41,0,0,0,164.41,260.78Z"/><ellipse class="cls-20" cx="165.4" cy="265.21" rx="4.97" ry="2.87" transform="translate(-145.8 294.29) rotate(-63.39)"/><ellipse class="cls-21" cx="165.4" cy="265.21" rx="4.04" ry="2.33" transform="translate(-145.8 294.29) rotate(-63.39)"/><path class="cls-26" d="M177.05,253.37a7.78,7.78,0,0,0-3.17,6.27,2.47,2.47,0,0,0,1.15,2.23h0l.82.39,4.18-9-.49-.24A2.43,2.43,0,0,0,177.05,253.37Z"/><ellipse class="cls-20" cx="178.04" cy="257.8" rx="4.97" ry="2.87" transform="translate(-132.2 301.5) rotate(-63.39)"/><ellipse class="cls-21" cx="178.04" cy="257.8" rx="4.04" ry="2.33" transform="translate(-132.2 301.5) rotate(-63.39)"/><path class="cls-27" d="M189.81,246a7.74,7.74,0,0,0-3.16,6.27,2.47,2.47,0,0,0,1.15,2.23h0l.82.39,4.18-9-.49-.24A2.45,2.45,0,0,0,189.81,246Z"/><ellipse class="cls-20" cx="190.81" cy="250.43" rx="4.97" ry="2.87" transform="translate(-118.56 308.84) rotate(-63.39)"/><ellipse class="cls-21" cx="190.81" cy="250.43" rx="4.04" ry="2.33" transform="translate(-118.56 308.84) rotate(-63.39)"/><path class="cls-6" d="M139.37,290.28a7.75,7.75,0,0,0-3.17,6.27,2.48,2.48,0,0,0,1.15,2.22h0l.83.39,4.17-9-.49-.24A2.44,2.44,0,0,0,139.37,290.28Z"/><ellipse class="cls-20" cx="140.37" cy="294.7" rx="4.97" ry="2.87" transform="translate(-185.99 288.19) rotate(-63.39)"/><ellipse class="cls-21" cx="140.37" cy="294.7" rx="4.04" ry="2.33" transform="translate(-185.99 288.19) rotate(-63.39)"/><path class="cls-28" d="M151.77,283.34a7.78,7.78,0,0,0-3.17,6.27,2.5,2.5,0,0,0,1.15,2.23h0l.83.39,4.17-9-.49-.24A2.41,2.41,0,0,0,151.77,283.34Z"/><ellipse class="cls-20" cx="152.76" cy="287.77" rx="4.97" ry="2.87" transform="translate(-172.95 295.44) rotate(-63.39)"/><ellipse class="cls-21" cx="152.76" cy="287.77" rx="4.04" ry="2.33" transform="translate(-172.95 295.44) rotate(-63.39)"/><path class="cls-6" d="M151.77,283a7.75,7.75,0,0,0-3.17,6.27,2.48,2.48,0,0,0,1.15,2.22h0l.83.39,4.17-9-.49-.24A2.44,2.44,0,0,0,151.77,283Z"/><ellipse class="cls-20" cx="152.76" cy="287.42" rx="4.97" ry="2.87" transform="translate(-172.64 295.25) rotate(-63.39)"/><ellipse class="cls-21" cx="152.76" cy="287.42" rx="4.04" ry="2.33" transform="translate(-172.64 295.25) rotate(-63.39)"/><path class="cls-29" d="M164.41,276a7.76,7.76,0,0,0-3.17,6.27,2.49,2.49,0,0,0,1.15,2.23h0l.82.38,4.18-9-.49-.24A2.41,2.41,0,0,0,164.41,276Z"/><ellipse class="cls-20" cx="165.4" cy="280.43" rx="4.97" ry="2.87" transform="translate(-159.41 302.69) rotate(-63.39)"/><ellipse class="cls-21" cx="165.4" cy="280.43" rx="4.04" ry="2.33" transform="translate(-159.41 302.69) rotate(-63.39)"/><path class="cls-6" d="M164.41,275.66a7.78,7.78,0,0,0-3.17,6.27,2.47,2.47,0,0,0,1.15,2.23h0l.82.39,4.18-9-.49-.24A2.41,2.41,0,0,0,164.41,275.66Z"/><ellipse class="cls-20" cx="165.4" cy="280.09" rx="4.97" ry="2.87" transform="translate(-159.1 302.5) rotate(-63.39)"/><ellipse class="cls-21" cx="165.4" cy="280.09" rx="4.04" ry="2.33" transform="translate(-159.1 302.5) rotate(-63.39)"/><path class="cls-6" d="M177.05,268.25a7.78,7.78,0,0,0-3.17,6.27,2.47,2.47,0,0,0,1.15,2.23h0l.82.39,4.18-9-.49-.24A2.41,2.41,0,0,0,177.05,268.25Z"/><ellipse class="cls-20" cx="178.04" cy="272.68" rx="4.97" ry="2.87" transform="translate(-145.5 309.71) rotate(-63.39)"/><ellipse class="cls-21" cx="178.04" cy="272.68" rx="4.04" ry="2.33" transform="translate(-145.5 309.71) rotate(-63.39)"/><g class="cls-30"><path class="cls-2" d="M126.52,305.34,92.76,324.83V308l29.81-17.21c3.53-2,6.4-.38,6.4,3.7v6.57A5.42,5.42,0,0,1,126.52,305.34Z"/><g class="cls-31"><rect class="cls-32" x="111.65" y="281.03" width="9.22" height="33.41" transform="translate(432.23 345.91) rotate(120)"/><rect class="cls-32" x="111.44" y="291.12" width="1.68" height="37.09" transform="translate(436.6 367.26) rotate(120)"/><rect class="cls-32" x="105.44" y="297" width="3.69" height="33.89" transform="translate(432.82 378.01) rotate(120)"/></g><path class="cls-33" d="M92.29,307.76l30.28-17.48c3.79-2.19,6.88-.41,6.88,4v6.57a6.5,6.5,0,0,1-2.93,5.07L92.29,325.65Zm.95.55V324l33.28-19.22a4.37,4.37,0,0,0,2-3.42v-6.58c0-3.77-2.66-5.31-5.93-3.42Z"/></g><polygon class="cls-32" points="65.96 291.53 94.1 307.86 94.15 323.4 66.03 307.05 65.96 291.53"/><path class="cls-8" d="M314.84,103.08v73.57s-33.63-7.94-33.63-56.25Z"/><path class="cls-8" d="M290.33,75l-48-75s-15.06,41.42,12.9,86.49C254.37,86.2,290.33,75,290.33,75Z"/><path class="cls-34" d="M65.64,195.91C127,148.84,192.48,110.08,307.92,76.5h0a8,8,0,0,1,5-.22l.47.14a12.76,12.76,0,0,1,4.15,2.2,21.6,21.6,0,0,0-6.41-6,9,9,0,0,0-6.52-1.38h0c-132.14,19.13-199,51.7-254,100.25C-11.87,226.66,1.12,274.17,1.12,274.17l1.29,2.26C5,269.34,12.24,236.91,65.64,195.91Z"/><path class="cls-35" d="M80.68,220.33c68-45.3,131.81-90.54,230.54-138.56h0a11.88,11.88,0,0,1,4.08-1.5l.35,0a7.29,7.29,0,0,1,3.06.15c-.37-.6-.76-1.18-1.17-1.75a12.76,12.76,0,0,0-4.15-2.2l-.47-.14a8,8,0,0,0-5,.22h0C192.48,110.08,127,148.84,65.64,195.91c-53.4,41-60.67,73.43-63.23,80.52l3,5.33C11.39,281,24.83,257.52,80.68,220.33Z"/><path class="cls-35" d="M317.68,84.25c-.87.87-2,1.81-3.15,2.78h0c-82,62.48-143.72,114.62-218.81,157.72-50.33,28.9-72.88,42.48-83.85,42.11C24,297,54.6,298.35,112.2,270c82.34-40.48,140.3-100.82,205.63-177.75h0a10.61,10.61,0,0,0,2.23-4.06c0-.14.08-.28.11-.41a12,12,0,0,0,.42-3.82,22.81,22.81,0,0,0-1-2.06,10.49,10.49,0,0,1-1.7,2.08Z"/><path class="cls-34" d="M320.59,84a12,12,0,0,1-.42,3.82c0,.13-.07.27-.11.41a10.61,10.61,0,0,1-2.23,4.06h0C252.5,169.22,194.54,229.56,112.2,270,54.6,298.35,24,297,11.87,286.86a8.93,8.93,0,0,1-4.14-1.06L9,288.06c12.89,14.85,54.61,28.76,116.34,3.4,89.92-36.94,147.15-102.52,195.78-193.91a10.09,10.09,0,0,0,1.3-5.34A21.24,21.24,0,0,0,320.59,84Z"/><path class="cls-34" d="M9.77,284.82a19.39,19.39,0,0,0,2.1,2c11,.37,33.52-13.21,83.85-42.11C170.81,201.65,232.49,149.51,314.53,87h0c1.17-1,2.28-1.91,3.15-2.78l.23-.23a10.49,10.49,0,0,0,1.7-2.08c-.28-.53-.58-1.06-.9-1.57a7.29,7.29,0,0,0-3.06-.15l-.35,0a11.88,11.88,0,0,0-4.08,1.5h0c-98.73,48-162.5,93.26-230.54,138.56C24.83,257.52,11.39,281,5.44,281.76l2.29,4a8.93,8.93,0,0,0,4.14,1.06A19.39,19.39,0,0,1,9.77,284.82Z"/><path class="cls-8" d="M314.14,89.56l53.75-22.18s-25.79,34.77-77.56,47.81C290.33,116.06,314.14,89.56,314.14,89.56Z"/><path class="cls-6" d="M207.2,192.11a9.57,9.57,0,0,1,3.91-7.7,3.07,3.07,0,0,1,3-.47h0l1,.53-5.88,10.68-.6-.31A3,3,0,0,1,207.2,192.11Z"/><ellipse class="cls-7" cx="212.31" cy="189.88" rx="6.11" ry="3.53" transform="translate(-53.51 292.21) rotate(-62.86)"/><path class="cls-36" d="M222.51,189.82l-.14-.07-.14-.07-.15-.07-.14-.07-.14-.07-.14-.06-.14-.07-.14-.07-.14-.07-.15-.07a1721007919178.09,1721007919178.09,0,0,1-.28-.14l-.14-.07-.14-.07-.14-.07-.14-.07-.14-.07-.15-.07-.14-.07-.14-.07-.14-.07-.14-.06-.14-.07-.14-.07-.14-.07-.15-.07-.14-.07a.61.61,0,0,0-.14-.07l-.14-.07-.14-.07-.14-.07-.14-.07-.15-.07-.14-.07-.14-.07-.14-.07-.14-.07-.14-.06-.14-.07-.14-.07-.15-.07-.14-.07-.14-.07-.14-.07-.14-.07-.14-.07-.14-.07-.15-.07-.14-.07-.14-.07-.14-.07-.14-.07-.14-.07-.14-.06a2.29,2.29,0,0,0-2.39.33,7.35,7.35,0,0,0-3,5.94,2.27,2.27,0,0,0,1.18,2.11l.14.07.14.07.15.07.14.07a.61.61,0,0,0,.14.07l.14.07.14.07.14.07.14.07.14.07.15.07.14.07.14.07.14.06.14.07.14.07.14.07.15.07.14.07.14.07.14.07.14.07.14.07.14.07.14.07.15.07.14.07.14.07.14.07.14.06.14.07.14.07.15.07a1721007919283.28,1721007919283.28,0,0,1,.28.14l.14.07.14.07.14.07.14.07.14.07.15.07.14.07.14.07.14.07.14.06.14.07.14.07.14.07.15.07.14.07a.61.61,0,0,0,.14.07l.14.07.14.07.14.07.14.07.15.07A2.28,2.28,0,0,0,221,198a7.32,7.32,0,0,0,3-5.94,2.29,2.29,0,0,0-1.18-2.11l-.14-.07Z"/><path class="cls-37" d="M220.54,190.37c1.77-1.17,3.3-.41,3.43,1.7a7.32,7.32,0,0,1-3,5.94c-1.76,1.17-3.29.4-3.42-1.71A7.32,7.32,0,0,1,220.54,190.37Z"/><g class="cls-38"><path class="cls-6" d="M222.51,189.82l-.14-.07-.14-.07-.15-.07-.14-.07-.14-.07-.14-.06-.14-.07-.14-.07-.14-.07-.15-.07a1721007919178.09,1721007919178.09,0,0,1-.28-.14l-.14-.07-.14-.07-.14-.07-.14-.07-.14-.07-.15-.07-.14-.07-.14-.07-.14-.07-.14-.06-.14-.07-.14-.07-.14-.07-.15-.07-.14-.07a.61.61,0,0,0-.14-.07l-.14-.07-.14-.07-.14-.07-.14-.07-.15-.07-.14-.07-.14-.07-.14-.07-.14-.07-.14-.06-.14-.07-.14-.07-.15-.07-.14-.07-.14-.07-.14-.07-.14-.07-.14-.07-.14-.07-.15-.07-.14-.07-.14-.07-.14-.07-.14-.07-.14-.07-.14-.06a2.29,2.29,0,0,0-2.39.33,7.35,7.35,0,0,0-3,5.94,2.27,2.27,0,0,0,1.18,2.11l.14.07.14.07.15.07.14.07a.61.61,0,0,0,.14.07l.14.07.14.07.14.07.14.07.14.07.15.07.14.07.14.07.14.06.14.07.14.07.14.07.15.07.14.07.14.07.14.07.14.07.14.07.14.07.14.07.15.07.14.07.14.07.14.07.14.06.14.07.14.07.15.07a1721007919283.28,1721007919283.28,0,0,1,.28.14l.14.07.14.07.14.07.14.07.14.07.15.07.14.07.14.07.14.07.14.06.14.07.14.07.14.07.15.07.14.07a.61.61,0,0,0,.14.07l.14.07.14.07.14.07.14.07.15.07A2.28,2.28,0,0,0,221,198a7.32,7.32,0,0,0,3-5.94,2.29,2.29,0,0,0-1.18-2.11l-.14-.07Z"/></g><path class="cls-5" d="M267.82,183.23c-12-6.82-31.4-6.71-43.3.25-6,3.52-9,8.13-8.88,12.71v1.29c0,.11,0,.22,0,.32v1.29c0,.11,0,.21,0,.32s0,.22,0,.32v1c0,.11,0,.21,0,.32a1.71,1.71,0,0,0,0,.32v1.29c0,.11,0,.21,0,.32v1.29c0,.1,0,.21,0,.32v1.29c0,.1,0,.21,0,.32s0,.21,0,.32v1c0,.11,0,.22,0,.33a1.71,1.71,0,0,0,0,.32v1c0,.11,0,.22,0,.32a1.82,1.82,0,0,0,0,.33v.64c0,4.58,3,9.16,9,12.61,12,6.82,31.41,6.71,43.31-.25,6-3.52,9-8.13,8.88-12.71v-1c0-.11,0-.21,0-.32v-1.29c0-.1,0-.21,0-.32v-1.29c0-.1,0-.21,0-.32s0-.21,0-.32v-1c0-.11,0-.22,0-.33a1.71,1.71,0,0,0,0-.32v-1.28c0-.11,0-.22,0-.33v-1.28c0-.11,0-.22,0-.32v-1.29c0-.11,0-.22,0-.32s0-.22,0-.32v-1c0-.11,0-.21,0-.32s0-.22,0-.32v-1C276.89,191.26,273.88,186.68,267.82,183.23Zm-46.07,20a20.05,20.05,0,0,1,5-4c10.71-6.27,28.19-6.37,39-.23a20.46,20.46,0,0,1,5.08,4,20.05,20.05,0,0,1-5,4c-10.71,6.27-28.19,6.37-39,.23A20.46,20.46,0,0,1,221.75,203.24Z"/><path class="cls-6" d="M226.83,207.22c10.77,6.14,28.25,6,39-.23a20,20,0,0,0,4.84-3.84,22.28,22.28,0,0,0,6.25-1.67V202c0,.11,0,.22,0,.33v1.28a1.71,1.71,0,0,1,0,.32c0,.11,0,.22,0,.33v1c0,.11,0,.22,0,.32s0,.22,0,.32v1.29c0,.11,0,.22,0,.32v1.29c0,.11,0,.21,0,.32v1c.1,4.58-2.86,9.19-8.88,12.71-11.9,7-31.33,7.07-43.31.25-6.06-3.45-9.06-8-9-12.61v-.64a1.82,1.82,0,0,1,0-.33c0-.1,0-.21,0-.32v-1a1.71,1.71,0,0,1,0-.32c0-.11,0-.22,0-.33v-1c0-.11,0-.22,0-.32s0-.22,0-.32v-1.29c0-.11,0-.22,0-.32s0-7.63,0-7.72,1.64,3,1.74,3c2-.25,2.66,4.05,4.68,4.06A20.85,20.85,0,0,0,226.83,207.22Z"/><path class="cls-7" d="M267.82,183.23c12,6.83,12.05,18,.15,25s-31.33,7.07-43.31.24-12-18-.14-25S255.84,176.41,267.82,183.23Zm-2.16,1.27c-10.78-6.14-28.26-6-39,.22s-10.65,16.36.13,22.5,28.25,6,38.95-.23S276.43,190.64,265.66,184.5Z"/><path class="cls-6" d="M140.82,141.4a9.55,9.55,0,0,1-8.63.26,3.08,3.08,0,0,1-1.88-2.45h0v-1.12l12.19,0v.67A3,3,0,0,1,140.82,141.4Z"/><ellipse class="cls-7" cx="136.41" cy="137.98" rx="6.11" ry="3.53" transform="translate(-3.49 3.54) rotate(-1.47)"/><path class="cls-39" d="M137.89,137.8a.5.5,0,0,0,0-.56.5.5,0,0,0,0-.56.5.5,0,0,0,0-.56.51.51,0,0,0,0-.57.5.5,0,0,0,0-.56.5.5,0,0,0,0-.56,31.37,31.37,0,0,1,0-1.12.5.5,0,0,0,0-.56,19712673506284.74,19712673506284.74,0,0,0,0-1.12.5.5,0,0,0,0-.56.5.5,0,0,0,0-.56.48.48,0,0,0,0-.56.47.47,0,0,0,0-.56,19712673506289.68,19712673506289.68,0,0,0,0-1.12.47.47,0,0,0,0-.56,19712673506287.65,19712673506287.65,0,0,0,0-1.12.45.45,0,0,0,0-.56,29569010259575.26,29569010259575.26,0,0,1,0-1.68.45.45,0,0,0,0-.56.44.44,0,0,0,0-.56.45.45,0,0,0,0-.57.44.44,0,0,0,0-.56,29569010259575.83,29569010259575.83,0,0,1,0-1.68,29569010259575.36,29569010259575.36,0,0,1,0-1.68.43.43,0,0,0,0-.56,9856336753181.94,9856336753181.94,0,0,1,0-1.12,29569010259574.92,29569010259574.92,0,0,1,0-1.68,29569010259575.95,29569010259575.95,0,0,1,0-1.68.41.41,0,0,0,0-.57,9856336753180.78,9856336753180.78,0,0,1,0-1.12.39.39,0,0,0,0-.56.38.38,0,0,0,0-.56,9856336753211.38,9856336753211.38,0,0,0,0-1.12.36.36,0,0,0,0-.56.36.36,0,0,0,0-.56,9856336753211.34,9856336753211.34,0,0,0,0-1.12.36.36,0,0,0,0-.56c.21-.21.17-.49-.15-.67a1.53,1.53,0,0,0-1.35,0c-.31.18-.36.46-.15.67a.36.36,0,0,0,0,.56,9856336753182.06,9856336753182.06,0,0,0,0,1.12,9856336753211.88,9856336753211.88,0,0,1,0,1.12.38.38,0,0,0,0,.56.38.38,0,0,0,0,.56,9856336753211.34,9856336753211.34,0,0,1,0,1.12.39.39,0,0,0,0,.56.4.4,0,0,0,0,.56.41.41,0,0,0,0,.57.4.4,0,0,0,0,.56,9856336753212.28,9856336753212.28,0,0,1,0,1.12.4.4,0,0,0,0,.56,9856336753211.25,9856336753211.25,0,0,1,0,1.12.41.41,0,0,0,0,.56,9856336753210.22,9856336753210.22,0,0,1,0,1.12.41.41,0,0,0,0,.56,9856336753211.19,9856336753211.19,0,0,1,0,1.12.43.43,0,0,0,0,.56,9856336753209.66,9856336753209.66,0,0,1,0,1.12.43.43,0,0,0,0,.56.45.45,0,0,0,0,.57,29569010259576.55,29569010259576.55,0,0,0,0,1.68,9856336753211.09,9856336753211.09,0,0,1,0,1.12.45.45,0,0,0,0,.56,9856336753210.06,9856336753210.06,0,0,1,0,1.12.47.47,0,0,0,0,.56,9856336753209,9856336753209,0,0,1,0,1.12.47.47,0,0,0,0,.56,13141782337569.9,13141782337569.9,0,0,1,0,1.12.48.48,0,0,0,0,.56,19712673506286.18,19712673506286.18,0,0,1,0,1.12.5.5,0,0,0,0,.56,19712673506286.15,19712673506286.15,0,0,1,0,1.12.5.5,0,0,0,0,.56.52.52,0,0,0,0,.56,1804.33,1804.33,0,0,1,0,1.13.52.52,0,0,0,0,.56.5.5,0,0,0,0,.56c-.19.3-.08.64.33.88a2.29,2.29,0,0,0,2.07,0C138,138.44,138.08,138.1,137.89,137.8Z"/><polygon class="cls-6" points="136.41 107.45 242.56 0 242.84 0.33 137.98 106.71 368.09 66.92 368.18 67.35 136.41 107.45"/><ellipse class="cls-40" cx="125.16" cy="309.89" rx="2.12" ry="1.23" transform="translate(-205.53 261.54) rotate(-59.69)"/><path class="cls-5" d="M123.22,310.79a3.88,3.88,0,0,1,1.76-3,1.24,1.24,0,0,1,1.24-.12h0l.39.24L124,312.07l-.23-.14A1.21,1.21,0,0,1,123.22,310.79Z"/><path class="cls-41" d="M123.59,311c0,1.11.78,1.56,1.75,1a3.88,3.88,0,0,0,1.76-3c0-1.11-.79-1.56-1.76-1A3.85,3.85,0,0,0,123.59,311Z"/><path class="cls-41" d="M124.71,311.5a1.07,1.07,0,0,0,.47-.15,2.83,2.83,0,0,0,1.25-2.16c0-.21,0-.68-.45-.68a1,1,0,0,0-.48.15,2.8,2.8,0,0,0-1.25,2.16C124.25,311,124.3,311.5,124.71,311.5Z"/><path class="cls-42" d="M128,310.37a1.87,1.87,0,0,1-1.9,1.91,2.83,2.83,0,0,1-1.76-.67,1.48,1.48,0,0,1-.33-1.16,2.21,2.21,0,0,1,2.07-2.08A2,2,0,0,1,128,310.37Z"/><path class="cls-43" d="M127.48,310.21a1.58,1.58,0,0,1-1.61,1.61,2.37,2.37,0,0,1-1.48-.56,1.42,1.42,0,0,1-.24-1.05,1.77,1.77,0,0,1,1.71-1.69A1.73,1.73,0,0,1,127.48,310.21Z"/><path class="cls-44" d="M127,310a1.33,1.33,0,0,1-1.36,1.35,2,2,0,0,1-1.25-.47c-.22-.24-.11-.51-.11-.86a1.44,1.44,0,0,1,1.35-1.45A1.47,1.47,0,0,1,127,310Z"/><path class="cls-45" d="M125.81,309.78a.44.44,0,0,1-.49.37.5.5,0,0,1-.29-.26.52.52,0,0,1,0-.32.49.49,0,0,1,.52-.38A.48.48,0,0,1,125.81,309.78Z"/><path class="cls-45" d="M126.17,309a.16.16,0,0,1-.17.17.28.28,0,0,1-.16-.06.14.14,0,0,1,0-.11.2.2,0,0,1,.19-.19A.18.18,0,0,1,126.17,309Z"/><ellipse class="cls-46" cx="131.64" cy="305.92" rx="2.12" ry="1.23" transform="translate(-198.9 265.17) rotate(-59.69)"/><path class="cls-5" d="M129.7,306.82a3.88,3.88,0,0,1,1.76-3,1.24,1.24,0,0,1,1.24-.12h0l.39.24-2.62,4.19-.24-.14A1.23,1.23,0,0,1,129.7,306.82Z"/><path class="cls-41" d="M130.07,307.05c0,1.11.78,1.56,1.75,1a3.88,3.88,0,0,0,1.76-3c0-1.11-.79-1.56-1.76-1A3.85,3.85,0,0,0,130.07,307.05Z"/><path class="cls-41" d="M131.19,307.53a1.11,1.11,0,0,0,.47-.15,2.83,2.83,0,0,0,1.25-2.16c0-.21,0-.68-.45-.68a1,1,0,0,0-.48.15,2.8,2.8,0,0,0-1.25,2.16C130.73,307.05,130.77,307.53,131.19,307.53Z"/><path class="cls-42" d="M134.49,306.4a1.87,1.87,0,0,1-1.9,1.91,2.83,2.83,0,0,1-1.76-.67,1.48,1.48,0,0,1-.33-1.16,2.21,2.21,0,0,1,2.07-2.08A2,2,0,0,1,134.49,306.4Z"/><path class="cls-43" d="M134,306.24a1.58,1.58,0,0,1-1.61,1.61,2.37,2.37,0,0,1-1.48-.56,1.42,1.42,0,0,1-.24-1.05,1.77,1.77,0,0,1,1.71-1.69A1.73,1.73,0,0,1,134,306.24Z"/><path class="cls-44" d="M133.44,306.06a1.33,1.33,0,0,1-1.36,1.35,2,2,0,0,1-1.25-.47c-.22-.24-.11-.51-.11-.86a1.44,1.44,0,0,1,1.35-1.45A1.47,1.47,0,0,1,133.44,306.06Z"/><path class="cls-45" d="M132.29,305.81a.45.45,0,0,1-.5.37.51.51,0,0,1-.28-.26.52.52,0,0,1,0-.32.49.49,0,0,1,.52-.38A.48.48,0,0,1,132.29,305.81Z"/><path class="cls-45" d="M132.65,305a.16.16,0,0,1-.17.17.28.28,0,0,1-.16-.06.14.14,0,0,1,0-.11.2.2,0,0,1,.19-.19A.19.19,0,0,1,132.65,305Z"/><ellipse class="cls-47" cx="118.51" cy="314.1" rx="2.12" ry="1.23" transform="translate(-212.46 257.88) rotate(-59.69)"/><path class="cls-5" d="M116.57,315a3.86,3.86,0,0,1,1.76-3,1.24,1.24,0,0,1,1.24-.13h0l.39.24-2.62,4.19-.24-.14A1.21,1.21,0,0,1,116.57,315Z"/><path class="cls-41" d="M116.94,315.22c0,1.11.78,1.56,1.75,1a3.86,3.86,0,0,0,1.76-3c0-1.11-.79-1.56-1.76-1A3.87,3.87,0,0,0,116.94,315.22Z"/><path class="cls-41" d="M118.06,315.7a1,1,0,0,0,.47-.15,2.8,2.8,0,0,0,1.25-2.16c0-.2,0-.68-.45-.68a1.1,1.1,0,0,0-.48.15A2.83,2.83,0,0,0,117.6,315C117.6,315.23,117.64,315.7,118.06,315.7Z"/><path class="cls-42" d="M121.36,314.58a1.86,1.86,0,0,1-1.9,1.9,2.82,2.82,0,0,1-1.76-.66,1.49,1.49,0,0,1-.33-1.16,2.22,2.22,0,0,1,2.07-2.09A2,2,0,0,1,121.36,314.58Z"/><path class="cls-43" d="M120.83,314.42a1.58,1.58,0,0,1-1.61,1.61,2.32,2.32,0,0,1-1.48-.57,1.39,1.39,0,0,1-.24-1,1.78,1.78,0,0,1,1.71-1.7A1.73,1.73,0,0,1,120.83,314.42Z"/><path class="cls-44" d="M120.31,314.24a1.33,1.33,0,0,1-1.36,1.35,2,2,0,0,1-1.25-.48c-.22-.24-.11-.51-.11-.86a1.42,1.42,0,0,1,1.35-1.44A1.46,1.46,0,0,1,120.31,314.24Z"/><path class="cls-45" d="M119.16,314a.44.44,0,0,1-.5.36.49.49,0,0,1-.28-.25.52.52,0,0,1,0-.32.47.47,0,0,1,.52-.38C119.13,313.45,119.22,313.73,119.16,314Z"/><path class="cls-45" d="M119.52,313.17a.17.17,0,0,1-.17.18.24.24,0,0,1-.16-.07s0-.06,0-.11a.2.2,0,0,1,.19-.18A.18.18,0,0,1,119.52,313.17Z"/></g></g></svg>