<svg xmlns="http://www.w3.org/2000/svg" viewBox="0 0 93.21 54.42"><defs><style>.cls-1{isolation:isolate;}.cls-2{fill:#a17e85;opacity:0.7;mix-blend-mode:multiply;}.cls-3{fill:#e4a268;}.cls-4{fill:#f2b268;}.cls-5{fill:#8b4c45;}.cls-6{fill:#ffbf75;}</style></defs><title>benk_h_01</title><g class="cls-1"><g id="Layer_2" data-name="Layer 2"><g id="Layer_1-2" data-name="Layer 1"><polygon class="cls-2" points="93.21 14.89 76.41 7.61 11.67 44.94 18.17 53.43 24.67 54.42 93.21 14.89"/><polygon class="cls-3" points="18.16 46.99 1.42 37.27 1.44 43.7 18.17 53.43 18.16 46.99"/><polygon class="cls-4" points="23.8 43.73 7.06 34.01 1.42 37.27 18.16 46.99 23.8 43.73"/><polygon class="cls-5" points="18.16 46.99 18.17 53.43 23.81 50.17 23.8 43.73 18.16 46.99"/><polygon class="cls-3" points="75.02 13.88 58.28 4.15 58.3 10.59 75.03 20.31 75.02 13.88"/><polygon class="cls-4" points="80.66 10.62 63.92 0.9 58.28 4.15 75.02 13.88 80.66 10.62"/><polygon class="cls-5" points="75.02 13.88 75.03 20.31 80.67 17.06 80.66 10.62 75.02 13.88"/><polygon class="cls-3" points="11.65 46.28 0 39.52 0.02 42.17 11.67 48.93 11.65 46.28"/><polygon class="cls-6" points="80.2 6.76 68.54 0 0 39.52 11.65 46.28 80.2 6.76"/><polygon class="cls-5" points="11.65 46.28 11.67 48.93 80.21 9.41 80.2 6.76 11.65 46.28"/><polygon class="cls-2" points="70.47 15.02 75.03 20.31 75.02 13.88 73.74 13.14 70.47 15.02"/></g></g></g></svg>