<svg xmlns="http://www.w3.org/2000/svg" viewBox="0 0 91.68 57.3"><defs><style>.cls-1{isolation:isolate;}.cls-2{fill:#a17e85;opacity:0.7;mix-blend-mode:multiply;}.cls-3{fill:#8b4c45;}.cls-4{fill:#f2b268;}.cls-5{fill:#e4a268;}.cls-6{fill:#ffbf75;}</style></defs><title>benk_v_01</title><g class="cls-1"><g id="Layer_2" data-name="Layer 2"><g id="Layer_1-2" data-name="Layer 1"><polygon class="cls-2" points="5.91 21.26 14.18 21.26 59.51 47.05 65.42 55.92 73.27 55.92 76.2 57.3 91.68 47.89 91.68 45.04 87.28 42.39 89.43 37.12 83.47 33.56 77.04 35.59 75.74 36.35 13.62 12.02 5.91 21.26"/><polygon class="cls-3" points="65.44 49.18 82.95 39 82.93 45.74 65.42 55.92 65.44 49.18"/><polygon class="cls-4" points="59.53 45.77 77.04 35.59 82.95 39 65.44 49.18 59.53 45.77"/><polygon class="cls-5" points="65.44 49.18 65.42 55.92 59.51 52.51 59.53 45.77 65.44 49.18"/><polygon class="cls-3" points="5.92 14.52 23.44 4.35 23.42 11.08 5.91 21.26 5.92 14.52"/><polygon class="cls-4" points="0.02 11.11 17.53 0.94 23.44 4.35 5.92 14.52 0.02 11.11"/><polygon class="cls-5" points="5.92 14.52 5.91 21.26 0 17.85 0.02 11.11 5.92 14.52"/><polygon class="cls-3" points="72.24 48.44 84.44 41.37 84.42 44.14 72.22 51.21 72.24 48.44"/><polygon class="cls-6" points="0.5 7.07 12.7 0 84.44 41.37 72.24 48.44 0.5 7.07"/><polygon class="cls-5" points="72.24 48.44 72.22 51.21 0.48 9.85 0.5 7.07 72.24 48.44"/></g></g></g></svg>