<svg xmlns="http://www.w3.org/2000/svg" xmlns:xlink="http://www.w3.org/1999/xlink" viewBox="0 0 48.57 76.11"><defs><style>.cls-1{fill:none;}.cls-2{isolation:isolate;}.cls-3{fill:#956f50;}.cls-4{fill:#1f1f6d;}.cls-5{fill:#69472a;}.cls-6{clip-path:url(#clip-path);}.cls-7{fill:#3e6084;}.cls-8{fill:#41638a;}.cls-9{fill:#44678f;}.cls-10{fill:#476b94;}.cls-11{fill:#4a6e99;}.cls-12{fill:#4d739e;}.cls-13{fill:#4f77a3;}.cls-14{fill:#537aa8;}.cls-15{fill:#557ead;}.cls-16{fill:#5881b2;}.cls-17{fill:#5984b7;}.cls-18{fill:#5c88bc;}.cls-19{fill:#5f8cc2;}.cls-20{fill:#6190c7;}.cls-21{fill:#6493cc;}.cls-22{fill:#6797d1;}.cls-23{fill:#6a9bd6;}.cls-24{fill:#6d9edb;}.cls-25{fill:#6fa2e0;}.cls-26{fill:#72a7e5;}.cls-27{fill:#73aaea;}.cls-28{fill:#76aeef;}.cls-29{fill:#79b2f4;}.cls-30{fill:#7cb4f9;}.cls-31{fill:#7eb8fd;}.cls-32{fill:#8dc1fd;}.cls-33{fill:#95c4ff;}.cls-34{fill:#9ac7ff;}.cls-35{fill:#9ec9ff;}.cls-36{fill:#a3cbff;}.cls-37{clip-path:url(#clip-path-2);}.cls-38{fill:#aab0b7;}.cls-39{fill:#afb4bc;}.cls-40{fill:#b4b9c1;}.cls-41{fill:#b9bec6;}.cls-42{fill:#bdc2cb;}.cls-43{fill:#c2c7d0;}.cls-44{fill:#c7ccd5;}.cls-45{fill:#ccd1da;}.cls-46{fill:#cfd6df;}.cls-47{fill:#d4dbe4;}.cls-48{fill:#d9e0e9;}.cls-49{fill:#dee4ee;}.cls-50{fill:#e2e9f3;}.cls-51{fill:#e7eef8;}.cls-52{fill:#ecf2fc;}.cls-53{fill:#eef3fc;}.cls-54{fill:#eff4fc;}.cls-55{fill:#f0f4fc;}.cls-56{fill:#f0f5fc;}.cls-57{fill:#f1f5fd;}.cls-58{clip-path:url(#clip-path-3);}.cls-59{clip-path:url(#clip-path-4);}.cls-60{fill:#b66371;}.cls-61{fill:#bb6674;}.cls-62{fill:#c16977;}.cls-63{fill:#c56c7a;}.cls-64{fill:#cb6e7e;}.cls-65{fill:#cf7280;}.cls-66{fill:#d57583;}.cls-67{fill:#d97886;}.cls-68{fill:#df7a89;}.cls-69{fill:#e37d8c;}.cls-70{fill:#e88090;}.cls-71{fill:#ec8293;}.cls-72{fill:#f28496;}.cls-73{fill:#f68799;}.cls-74{fill:#fc8a9c;}.cls-75{fill:#fd98a8;}.cls-76{fill:#ff9ead;}.cls-77{fill:#ffa2b1;}.cls-78{fill:#ffa7b4;}.cls-79{fill:#ffaab7;}.cls-80{clip-path:url(#clip-path-5);}.cls-81{fill:#f4f1fd;}.cls-82{fill:#f4f2fd;}.cls-83{fill:#f3f1fd;}.cls-84{fill:#f3f0fd;}.cls-85{fill:#f2effd;}.cls-86{fill:#f0eefd;}.cls-87{fill:#ebe9f8;}.cls-88{fill:#e6e4f3;}.cls-89{fill:#e3e0ee;}.cls-90{fill:#dedbe9;}.cls-91{fill:#d9d6e4;}.cls-92{fill:#d4d1df;}.cls-93{fill:#cfcddb;}.cls-94{fill:#cbc8d6;}.cls-95{fill:#c6c3d0;}.cls-96{fill:#c1becb;}.cls-97{clip-path:url(#clip-path-6);}.cls-98{clip-path:url(#clip-path-7);}.cls-99{fill:#7c7f84;}.cls-100{fill:#808389;}.cls-101{fill:#84888f;}.cls-102{fill:#898d94;}.cls-103{fill:#8e9299;}.cls-104{fill:#93979e;}.cls-105{fill:#979ca3;}.cls-106{fill:#9ca0a8;}.cls-107{fill:#a1a6ad;}.cls-108{fill:#a6abb2;}.cls-109{clip-path:url(#clip-path-8);}.cls-110{fill:#834650;}.cls-111{fill:#894a54;}.cls-112{fill:#8e4c57;}.cls-113{fill:#934f5a;}.cls-114{fill:#98525d;}.cls-115{fill:#9d5560;}.cls-116{fill:#a25763;}.cls-117{fill:#a75b67;}.cls-118{fill:#ac5e6a;}.cls-119{fill:#b1616d;}.cls-120{clip-path:url(#clip-path-9);}.cls-121{fill:#7e7d84;}.cls-122{fill:#82818a;}.cls-123{fill:#87858f;}.cls-124{fill:#8c8a94;}.cls-125{fill:#918f99;}.cls-126{fill:#96949e;}.cls-127{fill:#9b98a3;}.cls-128{fill:#9f9da8;}.cls-129{fill:#a4a2ad;}.cls-130{fill:#a9a8b2;}.cls-131{fill:#aeacb7;}.cls-132{fill:#b3b0bc;}.cls-133{fill:#b7b5c1;}.cls-134{fill:#bcbac6;}.cls-135{clip-path:url(#clip-path-10);}.cls-136{clip-path:url(#clip-path-11);}.cls-137{clip-path:url(#clip-path-12);}.cls-138{clip-path:url(#clip-path-13);}.cls-139{clip-path:url(#clip-path-14);}.cls-140{clip-path:url(#clip-path-15);}.cls-141{clip-path:url(#clip-path-16);}.cls-142{clip-path:url(#clip-path-17);}.cls-143{clip-path:url(#clip-path-18);}.cls-144{clip-path:url(#clip-path-19);}.cls-145{fill:url(#Безымянный_градиент_10);}.cls-146{clip-path:url(#clip-path-20);}.cls-147{fill:#f0b56c;}.cls-148{fill:url(#Безымянный_градиент_10-2);}.cls-149{fill:#dba563;}</style><clipPath id="clip-path"><path class="cls-1" d="M36.93,15.87c0,10.75-7.56,23.9-16.92,29.3l8.66,5C38,44.8,45.61,31.65,45.58,20.9c0-5.34-1.91-9.1-4.95-10.88L32,5C35,6.77,36.91,10.53,36.93,15.87Z"/></clipPath><clipPath id="clip-path-2"><path class="cls-1" d="M32.92,18.65C32.73,26.77,27,36.52,20,40.56l8.66,5c7-4.05,12.72-13.79,12.91-21.91Z"/></clipPath><clipPath id="clip-path-3"><path class="cls-1" d="M32.92,18.65l8.65,5c0-.16,0-.31,0-.47l-8.66-5Z"/></clipPath><clipPath id="clip-path-4"><path class="cls-1" d="M28.15,20.94c0,5.19-3.65,11.54-8.17,14.14l8.66,5c4.52-2.6,8.18-8.95,8.16-14.14Z"/></clipPath><clipPath id="clip-path-5"><path class="cls-1" d="M22.65,27.2A7.71,7.71,0,0,1,20,30l8.66,5a7.68,7.68,0,0,0,2.67-2.83Z"/></clipPath><clipPath id="clip-path-6"><path class="cls-1" d="M20,45.17c-4.7,2.72-9,3-12.06,1.17l8.65,5c3.09,1.8,7.36,1.55,12.07-1.17Z"/></clipPath><clipPath id="clip-path-7"><path class="cls-1" d="M29.14,9.87c2.32,1.36,3.77,4.23,3.78,8.31l8.66,5c0-4.08-1.46-6.95-3.79-8.31Z"/></clipPath><clipPath id="clip-path-8"><path class="cls-1" d="M25.76,15.69c1.47.85,2.38,2.67,2.39,5.25l8.65,5c0-2.58-.92-4.4-2.39-5.25Z"/></clipPath><clipPath id="clip-path-9"><path class="cls-1" d="M23.75,23.48a7.63,7.63,0,0,1-1.1,3.72l8.65,5a7.65,7.65,0,0,0,1.11-3.72,2.69,2.69,0,0,0-1.11-2.44l-8.66-5A2.64,2.64,0,0,1,23.75,23.48Z"/></clipPath><clipPath id="clip-path-10"><path class="cls-1" d="M20,30a2.65,2.65,0,0,1-2.7.26l8.65,5a2.69,2.69,0,0,0,2.71-.26Z"/></clipPath><clipPath id="clip-path-11"><path class="cls-1" d="M20,35.08c-2.27,1.32-4.33,1.44-5.82.57l8.65,5c1.49.87,3.56.75,5.83-.57Z"/></clipPath><clipPath id="clip-path-12"><path class="cls-1" d="M20,40.56c-3.6,2.08-6.86,2.27-9.22.9l8.65,5c2.36,1.37,5.63,1.18,9.23-.9Z"/></clipPath><clipPath id="clip-path-13"><path class="cls-1" d="M31.3,26.07l-8.66-5a2.66,2.66,0,0,0-2.69.27l8.65,5A2.68,2.68,0,0,1,31.3,26.07Z"/></clipPath><clipPath id="clip-path-14"><path class="cls-1" d="M17.27,30.29l8.65,5a2.64,2.64,0,0,1-1.1-2.43,8.35,8.35,0,0,1,3.78-6.55l-8.65-5a8.33,8.33,0,0,0-3.79,6.55A2.63,2.63,0,0,0,17.27,30.29Z"/></clipPath><clipPath id="clip-path-15"><path class="cls-1" d="M34.41,20.72l-8.65-5c-1.49-.87-3.56-.75-5.83.56l8.66,5C30.86,20,32.92,19.85,34.41,20.72Z"/></clipPath><clipPath id="clip-path-16"><path class="cls-1" d="M14.16,35.65l8.65,5c-1.47-.86-2.38-2.67-2.39-5.25,0-5.19,3.65-11.54,8.17-14.15l-8.66-5c-4.52,2.61-8.18,9-8.17,14.15C11.77,33,12.68,34.79,14.16,35.65Z"/></clipPath><clipPath id="clip-path-17"><path class="cls-1" d="M37.79,14.9l-8.65-5c-2.36-1.37-5.63-1.18-9.22.9l8.65,5C32.17,13.72,35.43,13.53,37.79,14.9Z"/></clipPath><clipPath id="clip-path-18"><path class="cls-1" d="M40.63,10,32,5C28.88,3.2,24.61,3.45,19.9,6.17l8.66,5C33.27,8.48,37.54,8.23,40.63,10Z"/></clipPath><clipPath id="clip-path-19"><path class="cls-1" d="M10.78,41.46l8.65,5c-2.32-1.35-3.77-4.23-3.78-8.31,0-8.21,5.77-18.25,12.92-22.38l-8.65-5C12.77,14.9,7,24.94,7,33.15,7,37.23,8.45,40.11,10.78,41.46Z"/></clipPath><linearGradient id="Безымянный_градиент_10" x1="22.95" y1="30.7" x2="48.88" y2="30.7" gradientTransform="matrix(-1, 0, 0, 1, 64.53, 0)" gradientUnits="userSpaceOnUse"><stop offset="0" stop-color="#fb4c3c"/><stop offset="1" stop-color="#fd6b1c"/></linearGradient><clipPath id="clip-path-20"><path class="cls-1" d="M8,46.34l8.65,5c-3.05-1.77-4.94-5.53-5-10.88,0-10.75,7.56-23.89,16.92-29.29l-8.66-5C10.54,11.57,3,24.71,3,35.46,3,40.81,4.9,44.57,8,46.34Z"/></clipPath><linearGradient id="Безымянный_градиент_10-2" x1="32.12" y1="30.7" x2="39.71" y2="30.7" xlink:href="#Безымянный_градиент_10"/></defs><title>blink_01</title><g id="Layer_2" data-name="Layer 2"><g id="Layer_1-2" data-name="Layer 1"><g class="cls-2"><polygon class="cls-3" points="17.95 39.72 16.22 38.71 4.84 75.11 6.57 76.11 17.95 39.72"/><polygon class="cls-4" points="20.67 39.53 18.94 38.52 16.22 38.71 17.95 39.72 20.67 39.53"/><polygon class="cls-5" points="17.95 39.72 6.57 76.11 9.82 74.24 20.67 39.53 17.95 39.72"/></g><polygon class="cls-5" points="31.47 31.91 29.74 30.91 27.03 33.85 28.76 34.86 31.47 31.91"/><polygon class="cls-3" points="28.76 34.86 27.03 33.85 38.04 55.94 39.77 56.94 28.76 34.86"/><polygon class="cls-5" points="31.47 31.91 28.76 34.86 39.77 56.94 43.01 55.07 31.47 31.91"/><g class="cls-2"><g class="cls-2"><g class="cls-6"><g class="cls-2"><path class="cls-7" d="M40.63,10,32,5a8.72,8.72,0,0,1,3,2.88l8.65,5A8.69,8.69,0,0,0,40.63,10"/><path class="cls-8" d="M43.57,12.9l-8.65-5A13,13,0,0,1,35.56,9l8.65,5a9.41,9.41,0,0,0-.64-1.17"/><path class="cls-9" d="M44.21,14.07,35.56,9c.15.3.28.63.41,1l8.65,5a9.23,9.23,0,0,0-.41-1"/><path class="cls-10" d="M44.62,15,36,10c.1.29.2.59.29.89l8.66,5c-.09-.31-.19-.6-.3-.89"/><path class="cls-11" d="M44.92,15.92l-8.66-5c.08.28.16.57.23.87l8.65,5c-.07-.3-.14-.59-.22-.87"/><path class="cls-12" d="M45.14,16.79l-8.65-5c.06.27.11.54.16.83l8.66,5c-.05-.29-.11-.56-.17-.83"/><path class="cls-13" d="M45.31,17.62l-8.66-5c.05.26.09.53.12.8l8.66,5-.12-.8"/><path class="cls-14" d="M45.43,18.42l-8.66-5c0,.27.07.54.09.82l8.65,5c0-.28,0-.55-.08-.82"/><path class="cls-15" d="M45.51,19.24l-8.65-5c0,.26,0,.52,0,.79l8.65,5c0-.27,0-.53-.05-.79"/><path class="cls-16" d="M45.56,20l-8.65-5c0,.27,0,.54,0,.82l8.65,5c0-.28,0-.55,0-.82"/><path class="cls-17" d="M45.58,20.85l-8.65-5v0c0,.25,0,.51,0,.76l8.65,5c0-.25,0-.51,0-.76v0"/><path class="cls-18" d="M45.57,21.66l-8.65-5c0,.27,0,.55,0,.82l8.65,5c0-.28,0-.55,0-.82"/><path class="cls-19" d="M45.53,22.48l-8.65-5c0,.27,0,.55-.07.82l8.66,5c0-.27.05-.55.06-.82"/><path class="cls-20" d="M45.47,23.3l-8.66-5c0,.28-.05.55-.09.83l8.66,5,.09-.83"/><path class="cls-21" d="M45.38,24.13l-8.66-5c0,.28-.07.57-.12.85l8.65,5c0-.28.09-.57.13-.85"/><path class="cls-22" d="M45.25,25,36.6,20c0,.29-.09.57-.15.86l8.66,5c0-.29.1-.57.14-.86"/><path class="cls-23" d="M45.11,25.84l-8.66-5c-.05.29-.11.59-.18.88l8.66,5,.18-.88"/><path class="cls-24" d="M44.93,26.72l-8.66-5c-.06.3-.13.59-.2.89l8.65,5,.21-.89"/><path class="cls-25" d="M44.72,27.61l-8.65-5-.24.9,8.65,5q.14-.45.24-.9"/><path class="cls-26" d="M44.48,28.51l-8.65-5c-.08.3-.17.6-.26.9l8.65,5c.09-.3.18-.6.26-.9"/><path class="cls-27" d="M44.22,29.41l-8.65-5c-.09.29-.19.58-.28.88l8.65,5c.1-.29.19-.58.28-.87"/><path class="cls-28" d="M43.94,30.28l-8.65-5c-.1.28-.2.57-.31.86l8.66,5,.3-.87"/><path class="cls-29" d="M43.64,31.15l-8.66-5c-.1.28-.2.56-.31.83l8.66,5c.1-.27.21-.55.31-.83"/><path class="cls-30" d="M43.33,32l-8.66-5-.33.83,8.65,5c.12-.28.23-.55.34-.83"/><path class="cls-31" d="M43,32.81l-8.65-5c-.11.27-.23.54-.35.81l8.66,5c.12-.27.23-.54.34-.81"/><path class="cls-32" d="M42.65,33.62l-8.66-5c-.12.28-.25.55-.37.82l8.65,5c.13-.27.25-.55.38-.82"/><path class="cls-33" d="M42.27,34.44l-8.65-5c-.14.3-.29.6-.44.9l8.66,5c.15-.3.29-.6.43-.9"/><path class="cls-34" d="M41.84,35.34l-8.66-5c-.17.34-.34.68-.52,1l8.65,5c.18-.34.36-.68.53-1"/><path class="cls-35" d="M41.31,36.36l-8.65-5c-.27.5-.55,1-.84,1.49l8.65,5c.29-.49.57-1,.84-1.49"/><path class="cls-36" d="M40.47,37.85l-8.65-5c-.41.69-.83,1.37-1.27,2l8.65,5c.44-.66.87-1.34,1.27-2"/><path class="cls-35" d="M39.2,39.88l-8.65-5q-.53.78-1.08,1.53l8.66,5c.37-.5.73-1,1.07-1.53"/><path class="cls-34" d="M38.13,41.41l-8.66-5c-.24.33-.49.66-.75,1l8.66,5,.75-1"/><path class="cls-33" d="M37.38,42.39l-8.66-5c-.21.28-.43.55-.65.81l8.65,5,.66-.81"/><path class="cls-32" d="M36.72,43.2l-8.65-5-.66.77,8.66,5c.22-.25.44-.51.65-.77"/><path class="cls-31" d="M36.07,44l-8.66-5-.66.73,8.65,5c.23-.24.45-.48.67-.73"/><path class="cls-30" d="M35.4,44.7l-8.65-5-.69.73,8.65,5c.23-.24.47-.48.69-.73"/><path class="cls-29" d="M34.71,45.43l-8.65-5-.72.71,8.66,5,.71-.71"/><path class="cls-28" d="M34,46.14l-8.66-5-.74.69,8.65,5,.75-.69"/><path class="cls-27" d="M33.25,46.83l-8.65-5-.76.66,8.66,5,.75-.66"/><path class="cls-26" d="M32.5,47.49l-8.66-5-.75.61,8.65,5,.76-.61"/><path class="cls-25" d="M31.74,48.1l-8.65-5-.74.57,8.65,5c.25-.19.5-.37.74-.57"/><path class="cls-24" d="M31,48.67l-8.65-5-.74.52,8.66,5,.73-.52"/><path class="cls-23" d="M30.27,49.19l-8.66-5-.72.47,8.66,5,.72-.47"/><path class="cls-22" d="M29.55,49.66l-8.66-5c-.23.16-.47.3-.71.44l8.65,5c.24-.14.48-.28.72-.44"/><path class="cls-21" d="M28.83,50.1l-8.65-5-.17.1,8.66,5,.16-.1"/></g></g></g><g class="cls-2"><g class="cls-37"><g class="cls-2"><path class="cls-38" d="M41.58,23.17l-8.66-5v0c0,.19,0,.39,0,.58l8.66,5c0-.19,0-.39,0-.58v0"/><path class="cls-39" d="M41.57,23.79l-8.66-5c0,.21,0,.42,0,.63l8.65,5,0-.63"/><path class="cls-40" d="M41.54,24.42l-8.65-5c0,.21,0,.42,0,.63l8.65,5c0-.21,0-.42,0-.63"/><path class="cls-41" d="M41.49,25.05l-8.65-5c0,.21-.05.42-.07.63l8.65,5c0-.21,0-.42.07-.63"/><path class="cls-42" d="M41.42,25.68l-8.65-5c0,.22-.06.43-.1.65l8.66,5,.09-.65"/><path class="cls-43" d="M41.33,26.33l-8.66-5c0,.22-.07.43-.11.65l8.65,5c0-.22.08-.43.12-.65"/><path class="cls-44" d="M41.21,27l-8.65-5c0,.23-.09.45-.14.68l8.66,5c.05-.23.09-.45.13-.68"/><path class="cls-45" d="M41.08,27.66l-8.66-5c-.05.22-.1.45-.16.68l8.66,5c.06-.23.11-.46.16-.68"/><path class="cls-46" d="M40.92,28.34l-8.66-5c0,.23-.11.45-.18.68l8.66,5,.18-.68"/><path class="cls-47" d="M40.74,29l-8.66-5c-.06.23-.13.46-.2.69l8.66,5c.07-.23.14-.46.2-.69"/><path class="cls-48" d="M40.54,29.71l-8.66-5c-.06.22-.14.45-.21.67l8.65,5c.08-.22.15-.45.22-.67"/><path class="cls-49" d="M40.32,30.38l-8.65-5-.23.66,8.65,5c.08-.22.16-.44.23-.66"/><path class="cls-50" d="M40.09,31l-8.65-5-.24.64,8.65,5c.09-.21.17-.43.24-.64"/><path class="cls-51" d="M39.85,31.68l-8.65-5-.25.63,8.65,5c.09-.21.17-.42.25-.63"/><path class="cls-52" d="M39.6,32.31l-8.65-5-.27.62,8.65,5c.1-.21.18-.42.27-.62"/><path class="cls-53" d="M39.33,32.93l-8.65-5c-.09.21-.19.42-.29.63l8.66,5c.1-.21.19-.42.28-.63"/><path class="cls-54" d="M39.05,33.56l-8.66-5c-.1.23-.21.45-.33.68l8.66,5,.33-.68"/><path class="cls-55" d="M38.72,34.24l-8.66-5c-.13.26-.26.52-.4.78l8.65,5c.14-.26.28-.52.41-.78"/><path class="cls-56" d="M38.31,35l-8.65-5c-.21.39-.42.77-.64,1.14l8.65,5c.23-.37.44-.76.64-1.14"/><path class="cls-57" d="M37.67,36.16l-8.65-5c-.31.53-.63,1-1,1.55l8.65,5c.34-.51.66-1,1-1.55"/><path class="cls-56" d="M36.7,37.71l-8.65-5c-.27.4-.54.79-.82,1.17l8.65,5c.28-.39.56-.77.82-1.17"/><path class="cls-55" d="M35.88,38.88l-8.65-5-.58.75,8.66,5,.57-.75"/><path class="cls-54" d="M35.31,39.63l-8.66-5c-.16.21-.33.42-.5.62l8.66,5c.17-.2.33-.41.5-.62"/><path class="cls-53" d="M34.81,40.25l-8.66-5c-.16.2-.33.39-.5.58l8.66,5,.5-.58"/><path class="cls-52" d="M34.31,40.83l-8.66-5c-.16.19-.33.38-.5.56l8.65,5,.51-.56"/><path class="cls-51" d="M33.8,41.39l-8.65-5c-.18.19-.35.38-.53.56l8.65,5c.18-.18.36-.37.53-.56"/><path class="cls-50" d="M33.27,42l-8.65-5-.55.54,8.66,5,.54-.54"/><path class="cls-49" d="M32.73,42.49l-8.66-5L23.5,38l8.66,5,.57-.53"/><path class="cls-48" d="M32.16,43,23.5,38l-.57.5,8.65,5,.58-.5"/><path class="cls-47" d="M31.58,43.52l-8.65-5-.58.47L31,44l.57-.47"/><path class="cls-46" d="M31,44l-8.66-5-.57.43,8.66,5L31,44"/><path class="cls-45" d="M30.44,44.42l-8.66-5c-.18.14-.37.27-.56.4l8.66,5,.56-.4"/><path class="cls-44" d="M29.88,44.82l-8.66-5-.55.37,8.66,5,.55-.37"/><path class="cls-43" d="M29.33,45.19l-8.66-5-.54.33,8.65,5,.55-.33"/><path class="cls-42" d="M28.78,45.52l-8.65-5-.13.07,8.66,5,.12-.07"/></g></g></g><g class="cls-2"><g class="cls-58"><g class="cls-2"><path class="cls-38" d="M41.58,23.17l-8.66-5v0c0,.19,0,.39,0,.58l8.66,5c0-.19,0-.39,0-.58v0"/></g></g></g><g class="cls-2"><g class="cls-59"><g class="cls-2"><path class="cls-60" d="M36.8,25.94l-8.65-5v0c0,.12,0,.24,0,.37l8.66,5v-.39"/><path class="cls-61" d="M36.8,26.33l-8.66-5c0,.13,0,.26,0,.39l8.65,5c0-.13,0-.26,0-.4"/><path class="cls-62" d="M36.78,26.73l-8.65-5c0,.13,0,.26,0,.4l8.66,5,0-.4"/><path class="cls-63" d="M36.75,27.13l-8.66-5c0,.13,0,.26,0,.4l8.65,5c0-.14,0-.27,0-.4"/><path class="cls-64" d="M36.7,27.53l-8.65-5-.06.41,8.66,5c0-.14,0-.28.05-.41"/><path class="cls-65" d="M36.65,27.94l-8.66-5c0,.14,0,.27-.07.41l8.65,5c0-.14,0-.27.08-.41"/><path class="cls-66" d="M36.57,28.35l-8.65-5-.09.43,8.66,5c0-.14.06-.29.08-.43"/><path class="cls-67" d="M36.49,28.78l-8.66-5c0,.14-.06.28-.1.43l8.66,5c0-.15.07-.29.1-.43"/><path class="cls-68" d="M36.39,29.21l-8.66-5c0,.14-.07.29-.11.43l8.65,5,.12-.43"/><path class="cls-69" d="M36.27,29.64l-8.65-5c0,.15-.08.29-.13.44l8.66,5,.12-.44"/><path class="cls-70" d="M36.15,30.08l-8.66-5c0,.14-.09.28-.13.42l8.65,5c.05-.14.09-.28.14-.42"/><path class="cls-71" d="M36,30.5l-8.65-5-.15.42,8.66,5c.05-.14.09-.28.14-.42"/><path class="cls-72" d="M35.87,30.92l-8.66-5-.15.4,8.65,5c.06-.14.11-.27.16-.4"/><path class="cls-73" d="M35.71,31.32l-8.65-5c0,.13-.11.26-.16.4l8.65,5c.06-.14.11-.27.16-.4"/><path class="cls-74" d="M35.55,31.72l-8.65-5c0,.13-.11.26-.17.39l8.66,5,.16-.39"/><path class="cls-75" d="M35.39,32.11l-8.66-5-.18.4,8.66,5,.18-.4"/><path class="cls-76" d="M35.21,32.51l-8.66-5-.21.43,8.66,5,.21-.43"/><path class="cls-77" d="M35,32.94l-8.66-5-.25.49,8.65,5,.26-.49"/><path class="cls-78" d="M34.74,33.43l-8.65-5c-.13.25-.27.49-.41.72l8.66,5c.14-.23.27-.47.4-.72"/><path class="cls-79" d="M34.34,34.15l-8.66-5c-.19.34-.4.66-.61,1l8.65,5c.22-.32.42-.64.62-1"/><path class="cls-78" d="M33.72,35.13l-8.65-5c-.17.25-.34.5-.52.74l8.66,5c.17-.24.35-.49.51-.74"/><path class="cls-77" d="M33.21,35.87l-8.66-5-.36.48,8.65,5c.13-.15.25-.31.37-.47"/><path class="cls-76" d="M32.84,36.34l-8.65-5-.32.39,8.66,5c.1-.13.21-.26.31-.4"/><path class="cls-75" d="M32.53,36.74l-8.66-5c-.1.12-.21.24-.31.37l8.65,5,.32-.37"/><path class="cls-74" d="M32.21,37.11l-8.65-5c-.11.12-.22.23-.32.35l8.65,5,.32-.35"/><path class="cls-73" d="M31.89,37.46l-8.65-5-.34.35,8.66,5,.33-.35"/><path class="cls-72" d="M31.56,37.81l-8.66-5-.34.34,8.65,5,.35-.34"/><path class="cls-71" d="M31.21,38.15l-8.65-5-.36.34,8.65,5,.36-.34"/><path class="cls-70" d="M30.85,38.49l-8.65-5-.37.31,8.66,5,.36-.31"/><path class="cls-69" d="M30.49,38.8l-8.66-5c-.12.11-.24.2-.36.3l8.65,5,.37-.3"/><path class="cls-68" d="M30.12,39.1l-8.65-5-.36.27,8.66,5,.35-.27"/><path class="cls-67" d="M29.77,39.37l-8.66-5-.35.26,8.65,5,.36-.26"/><path class="cls-66" d="M29.41,39.63l-8.65-5-.35.22,8.65,5,.35-.22"/><path class="cls-65" d="M29.06,39.85l-8.65-5c-.11.08-.23.15-.35.22l8.66,5,.34-.22"/><path class="cls-64" d="M28.72,40.07l-8.66-5-.08,0,8.66,5,.08,0"/></g></g></g><g class="cls-2"><g class="cls-80"><g class="cls-2"><path class="cls-81" d="M31.45,32l-8.65-5-.19.33,8.65,5c.07-.11.13-.22.19-.33"/><path class="cls-82" d="M31.26,32.3l-8.65-5-.28.45,8.65,5c.1-.15.19-.3.28-.45"/><path class="cls-81" d="M31,32.75l-8.65-5-.24.34,8.65,5,.24-.34"/><path class="cls-83" d="M30.74,33.09l-8.65-5c-.06.08-.12.15-.17.23l8.65,5a1.84,1.84,0,0,0,.17-.22"/><path class="cls-84" d="M30.57,33.31l-8.65-5-.15.18,8.66,5,.14-.19"/><path class="cls-85" d="M30.43,33.5l-8.66-5-.15.17,8.66,5,.15-.17"/><path class="cls-86" d="M30.28,33.67l-8.66-5-.14.16,8.65,5,.15-.16"/><path class="cls-87" d="M30.13,33.83l-8.65-5-.16.16L30,34l.15-.16"/><path class="cls-88" d="M30,34l-8.66-5-.16.16,8.66,5L30,34"/><path class="cls-89" d="M29.82,34.15l-8.66-5a1.29,1.29,0,0,1-.17.16l8.66,5,.17-.16"/><path class="cls-90" d="M29.65,34.31l-8.66-5-.16.14,8.65,5,.17-.14"/><path class="cls-91" d="M29.48,34.45l-8.65-5-.17.14,8.65,5,.17-.14"/><path class="cls-92" d="M29.31,34.59l-8.65-5-.17.13,8.66,5,.16-.13"/><path class="cls-93" d="M29.15,34.72l-8.66-5-.16.12,8.65,5,.17-.11"/><path class="cls-94" d="M29,34.83l-8.65-5-.16.1,8.65,5a.91.91,0,0,0,.16-.11"/><path class="cls-95" d="M28.82,34.94l-8.65-5L20,30l8.65,5,.16-.1"/><path class="cls-96" d="M28.66,35,20,30l0,0,8.66,5,0,0"/></g></g></g><g class="cls-2"><g class="cls-97"><g class="cls-2"><path class="cls-21" d="M28.67,50.2l-8.66-5-.53.3,8.65,5,.54-.3"/><path class="cls-20" d="M28.13,50.5l-8.65-5-.7.36,8.66,5,.69-.36"/><path class="cls-19" d="M27.44,50.86l-8.66-5-.68.32,8.65,5,.69-.32"/><path class="cls-18" d="M26.75,51.18l-8.65-5-.68.29,8.66,5,.67-.29"/><path class="cls-17" d="M26.08,51.47l-8.66-5c-.23.09-.45.18-.68.25l8.65,5,.69-.25"/><path class="cls-16" d="M25.39,51.72l-8.65-5-.68.23,8.66,5,.67-.23"/><path class="cls-15" d="M24.72,52l-8.66-5-.7.19,8.66,5,.7-.19"/><path class="cls-14" d="M24,52.14l-8.66-5q-.34.09-.69.15l8.65,5,.7-.15"/><path class="cls-13" d="M23.32,52.29l-8.65-5-.75.13,8.66,5,.74-.13"/><path class="cls-12" d="M22.58,52.42l-8.66-5c-.25,0-.5.06-.75.07l8.65,5c.25,0,.5,0,.76-.07"/><path class="cls-11" d="M21.82,52.49l-8.65-5-.8,0,8.66,5c.26,0,.53,0,.79,0"/><path class="cls-10" d="M21,52.52l-8.66-5c-.3,0-.59,0-.88,0l8.66,5c.28,0,.58,0,.88,0"/><path class="cls-9" d="M20.15,52.48l-8.66-5c-.33,0-.66-.08-1-.14l8.66,5c.32.06.64.11,1,.14"/><path class="cls-8" d="M19.17,52.34l-8.66-5A11.59,11.59,0,0,1,9.32,47L18,52a10.92,10.92,0,0,0,1.19.33"/><path class="cls-7" d="M18,52,9.32,47A7.44,7.44,0,0,1,8,46.34l8.65,5A8.64,8.64,0,0,0,18,52"/></g></g></g><g class="cls-2"><g class="cls-98"><g class="cls-2"><path class="cls-99" d="M37.79,14.9l-8.65-5a6.65,6.65,0,0,1,2.25,2.2l8.65,5a6.65,6.65,0,0,0-2.25-2.2"/><path class="cls-100" d="M40,17.1l-8.65-5a8.45,8.45,0,0,1,.49.89l8.65,5A8.45,8.45,0,0,0,40,17.1"/><path class="cls-101" d="M40.53,18l-8.65-5c.11.24.21.48.31.74l8.65,5c-.09-.26-.2-.5-.31-.74"/><path class="cls-102" d="M40.84,18.73l-8.65-5c.08.22.16.45.22.68l8.66,5c-.07-.23-.14-.46-.23-.68"/><path class="cls-103" d="M41.07,19.41l-8.66-5c.07.21.12.43.18.66l8.65,5c-.05-.23-.11-.45-.17-.66"/><path class="cls-104" d="M41.24,20.07l-8.65-5c0,.21.09.42.12.63l8.66,5c0-.21-.08-.42-.13-.63"/><path class="cls-105" d="M41.37,20.7l-8.66-5c0,.21.07.41.1.62l8.65,5-.09-.62"/><path class="cls-106" d="M41.46,21.32l-8.65-5,.06.62,8.66,5c0-.21,0-.42-.07-.62"/><path class="cls-107" d="M41.53,21.94l-8.66-5c0,.2,0,.4,0,.61l8.65,5,0-.61"/><path class="cls-108" d="M41.56,22.55l-8.65-5c0,.21,0,.41,0,.62l8.66,5c0-.21,0-.41,0-.62"/><path class="cls-38" d="M41.58,23.17l-8.66-5v0c0,.19,0,.39,0,.58l8.66,5c0-.19,0-.39,0-.58v0"/></g></g></g><g class="cls-2"><g class="cls-109"><g class="cls-2"><path class="cls-110" d="M34.41,20.72l-8.65-5a4.19,4.19,0,0,1,1.42,1.39l8.65,5a4.1,4.1,0,0,0-1.42-1.39"/><path class="cls-111" d="M35.83,22.11l-8.65-5a4.27,4.27,0,0,1,.31.56l8.65,5a3.36,3.36,0,0,0-.31-.56"/><path class="cls-112" d="M36.14,22.67l-8.65-5c.07.15.14.3.2.46l8.65,5c-.06-.16-.13-.31-.2-.46"/><path class="cls-113" d="M36.34,23.13l-8.65-5c0,.14.1.29.14.44l8.65,5c0-.14-.09-.29-.14-.43"/><path class="cls-114" d="M36.48,23.56l-8.65-5c0,.13.07.27.11.41l8.65,5c0-.14-.07-.28-.11-.42"/><path class="cls-115" d="M36.59,24l-8.65-5c0,.13,0,.27.08.4l8.65,5c0-.13-.05-.27-.08-.4"/><path class="cls-116" d="M36.67,24.38l-8.65-5,.06.39,8.65,5-.06-.39"/><path class="cls-117" d="M36.73,24.77l-8.65-5c0,.13,0,.26,0,.4l8.65,5c0-.13,0-.26,0-.39"/><path class="cls-118" d="M36.77,25.16l-8.65-5c0,.12,0,.25,0,.38l8.66,5,0-.39"/><path class="cls-119" d="M36.8,25.55l-8.66-5c0,.13,0,.26,0,.39l8.65,5v-.39"/><path class="cls-60" d="M36.8,25.94l-8.65-5v0c0,.12,0,.24,0,.37l8.66,5v-.39"/></g></g></g><g class="cls-2"><g class="cls-120"><g class="cls-2"><path class="cls-121" d="M31.3,26.07l-8.66-5a2,2,0,0,1,.66.65l8.66,5a2,2,0,0,0-.66-.65"/><path class="cls-122" d="M32,26.72l-8.66-5a2.2,2.2,0,0,1,.15.26l8.65,5a2.15,2.15,0,0,0-.14-.26"/><path class="cls-123" d="M32.1,27l-8.65-5,.09.21,8.65,5L32.1,27"/><path class="cls-124" d="M32.19,27.19l-8.65-5,.06.2,8.66,5a1.59,1.59,0,0,0-.07-.2"/><path class="cls-125" d="M32.26,27.39l-8.66-5a1.46,1.46,0,0,1,0,.2l8.66,5c0-.07,0-.13-.05-.2"/><path class="cls-126" d="M32.31,27.59l-8.66-5a1.16,1.16,0,0,1,0,.18l8.66,5c0-.06,0-.12,0-.18"/><path class="cls-127" d="M32.35,27.77l-8.66-5,0,.18,8.65,5a1.1,1.1,0,0,0,0-.18"/><path class="cls-128" d="M32.37,28l-8.65-5c0,.06,0,.12,0,.18l8.65,5a1.1,1.1,0,0,0,0-.18"/><path class="cls-129" d="M32.39,28.13l-8.65-5c0,.06,0,.12,0,.18l8.65,5a1.09,1.09,0,0,0,0-.18"/><path class="cls-130" d="M32.4,28.31l-8.65-5v.18l8.66,5a1.09,1.09,0,0,0,0-.18"/><path class="cls-131" d="M32.41,28.49l-8.66-5v.19l8.66,5v-.19"/><path class="cls-132" d="M32.41,28.68l-8.66-5a1.09,1.09,0,0,1,0,.18l8.66,5a1.09,1.09,0,0,1,0-.18"/><path class="cls-133" d="M32.4,28.86l-8.66-5c0,.06,0,.12,0,.18l8.65,5c0-.06,0-.12,0-.18"/><path class="cls-134" d="M32.38,29l-8.65-5a1.37,1.37,0,0,0,0,.19l8.65,5a1.23,1.23,0,0,0,0-.19"/><path class="cls-96" d="M32.36,29.23l-8.65-5,0,.19,8.65,5,0-.19"/><path class="cls-95" d="M32.33,29.42l-8.65-5,0,.19,8.65,5,0-.19"/><path class="cls-94" d="M32.3,29.61l-8.65-5a1.42,1.42,0,0,0,0,.2l8.65,5a1.42,1.42,0,0,0,0-.2"/><path class="cls-93" d="M32.26,29.81l-8.65-5-.05.2,8.65,5a1.46,1.46,0,0,0,0-.2"/><path class="cls-92" d="M32.21,30l-8.65-5c0,.07,0,.13,0,.2l8.65,5a1.94,1.94,0,0,0,.05-.2"/><path class="cls-91" d="M32.16,30.21l-8.65-5-.06.2,8.65,5,.06-.2"/><path class="cls-90" d="M32.1,30.41l-8.65-5-.06.2,8.65,5,.06-.2"/><path class="cls-89" d="M32,30.61l-8.65-5a1.46,1.46,0,0,0-.07.19l8.65,5a1.46,1.46,0,0,0,.07-.19"/><path class="cls-88" d="M32,30.8l-8.65-5-.07.19,8.65,5c0-.07.05-.13.07-.19"/><path class="cls-87" d="M31.9,31l-8.65-5-.08.18,8.66,5L31.9,31"/><path class="cls-86" d="M31.83,31.17l-8.66-5-.07.18,8.65,5,.08-.18"/><path class="cls-85" d="M31.75,31.35l-8.65-5-.09.19,8.66,5c0-.06,0-.13.08-.19"/><path class="cls-84" d="M31.67,31.54l-8.66-5-.1.2,8.66,5,.1-.2"/><path class="cls-83" d="M31.57,31.74l-8.66-5-.11.23,8.65,5,.12-.23"/><path class="cls-81" d="M31.45,32l-8.65-5-.19.33,8.65,5c.07-.11.13-.22.19-.33"/></g></g></g><g class="cls-2"><g class="cls-135"><g class="cls-2"><path class="cls-96" d="M28.63,35.06,20,30l-.12.07,8.65,5,.13-.07"/><path class="cls-134" d="M28.5,35.13l-8.65-5-.15.08,8.65,5,.15-.08"/><path class="cls-133" d="M28.35,35.21l-8.65-5-.16.07,8.66,5,.15-.07"/><path class="cls-132" d="M28.2,35.28l-8.66-5-.15.06,8.65,5,.16-.06"/><path class="cls-131" d="M28,35.34l-8.65-5a.94.94,0,0,1-.15.06l8.65,5,.15-.06"/><path class="cls-130" d="M27.89,35.4l-8.65-5-.15.05,8.65,5,.15-.05"/><path class="cls-129" d="M27.74,35.45l-8.65-5-.16,0,8.65,5,.16,0"/><path class="cls-128" d="M27.58,35.49l-8.65-5-.16,0,8.66,5,.15,0"/><path class="cls-127" d="M27.43,35.53l-8.66-5-.16,0,8.65,5,.17,0"/><path class="cls-126" d="M27.26,35.56l-8.65-5h-.17l8.65,5h.17"/><path class="cls-125" d="M27.09,35.57l-8.65-5h-.18l8.65,5h.18"/><path class="cls-124" d="M26.91,35.58l-8.65-5h-.2l8.66,5h.19"/><path class="cls-123" d="M26.72,35.57l-8.66-5-.22,0,8.66,5,.22,0"/><path class="cls-122" d="M26.5,35.54l-8.66-5-.26-.07,8.65,5,.27.07"/><path class="cls-121" d="M26.23,35.47l-8.65-5a1.77,1.77,0,0,1-.31-.15l8.65,5a1.77,1.77,0,0,0,.31.15"/></g></g></g><g class="cls-2"><g class="cls-136"><g class="cls-2"><path class="cls-64" d="M28.64,40.11l-8.66-5-.25.15,8.65,5,.26-.15"/><path class="cls-63" d="M28.38,40.26l-8.65-5-.34.17,8.66,5,.33-.17"/><path class="cls-62" d="M28.05,40.43l-8.66-5-.33.16,8.66,5,.33-.16"/><path class="cls-61" d="M27.72,40.59l-8.66-5-.33.14,8.66,5,.33-.14"/><path class="cls-60" d="M27.39,40.73l-8.66-5-.33.12,8.66,5,.33-.12"/><path class="cls-119" d="M27.06,40.85l-8.66-5-.32.11,8.65,5,.33-.11"/><path class="cls-118" d="M26.73,41l-8.65-5-.34.09,8.65,5,.34-.09"/><path class="cls-117" d="M26.39,41.05l-8.65-5-.34.07,8.66,5,.33-.07"/><path class="cls-116" d="M26.06,41.12l-8.66-5-.36.06,8.66,5a2.25,2.25,0,0,0,.36-.06"/><path class="cls-115" d="M25.7,41.18l-8.66-5-.36,0,8.65,5,.37,0"/><path class="cls-114" d="M25.33,41.22l-8.65-5h-.39l8.66,5h.38"/><path class="cls-113" d="M25,41.23l-8.66-5a3,3,0,0,1-.42,0l8.65,5a3,3,0,0,0,.43,0"/><path class="cls-112" d="M24.52,41.21l-8.65-5a2.42,2.42,0,0,1-.47-.07l8.65,5a2.42,2.42,0,0,0,.47.07"/><path class="cls-111" d="M24.05,41.14l-8.65-5a3.8,3.8,0,0,1-.58-.15l8.66,5a4.74,4.74,0,0,0,.57.15"/><path class="cls-110" d="M23.48,41l-8.66-5a5,5,0,0,1-.66-.31l8.65,5a4.57,4.57,0,0,0,.67.31"/></g></g></g><g class="cls-2"><g class="cls-137"><g class="cls-2"><path class="cls-42" d="M28.66,45.59l-8.66-5-.41.23,8.65,5,.42-.23"/><path class="cls-41" d="M28.24,45.82l-8.65-5-.53.28,8.66,5,.52-.28"/><path class="cls-40" d="M27.72,46.1l-8.66-5-.52.24,8.65,5c.18-.07.35-.16.53-.24"/><path class="cls-39" d="M27.19,46.34l-8.65-5c-.18.08-.35.16-.52.22l8.65,5,.52-.22"/><path class="cls-38" d="M26.67,46.56l-8.65-5-.52.2,8.65,5,.52-.2"/><path class="cls-108" d="M26.15,46.76l-8.65-5L17,41.9l8.65,5,.52-.17"/><path class="cls-107" d="M25.63,46.93,17,41.9l-.54.15,8.66,5,.53-.15"/><path class="cls-106" d="M25.1,47.08l-8.66-5-.53.12,8.66,5,.53-.11"/><path class="cls-105" d="M24.57,47.19l-8.66-5-.56.09,8.65,5,.57-.1"/><path class="cls-104" d="M24,47.29l-8.65-5-.58.06,8.65,5,.58-.06"/><path class="cls-103" d="M23.42,47.35l-8.65-5-.61,0,8.65,5,.61,0"/><path class="cls-102" d="M22.81,47.37l-8.65-5c-.23,0-.45,0-.67,0l8.65,5c.22,0,.45,0,.67,0"/><path class="cls-101" d="M22.14,47.34l-8.65-5c-.26,0-.51-.06-.75-.11l8.65,5c.25.05.5.08.75.11"/><path class="cls-100" d="M21.39,47.23l-8.65-5a8.68,8.68,0,0,1-.91-.25l8.66,5a8.5,8.5,0,0,0,.9.25"/><path class="cls-99" d="M20.49,47l-8.66-5a6.29,6.29,0,0,1-1.05-.49l8.65,5a6.79,6.79,0,0,0,1.06.49"/></g></g></g><g class="cls-2"><g class="cls-138"><g class="cls-2"><path class="cls-110" d="M31.3,26.07l-8.66-5-.3-.14,8.65,5,.31.14"/><path class="cls-111" d="M31,25.93l-8.65-5-.27-.07,8.66,5,.26.07"/><path class="cls-112" d="M30.73,25.86l-8.66-5a.78.78,0,0,0-.22,0l8.66,5,.22,0"/><path class="cls-113" d="M30.51,25.83l-8.66-5h-.2l8.66,5h.2"/><path class="cls-114" d="M30.31,25.82l-8.66-5h-.17l8.65,5h.18"/><path class="cls-115" d="M30.13,25.82l-8.65-5-.17,0,8.65,5,.17,0"/><path class="cls-116" d="M30,25.84l-8.65-5-.17,0,8.66,5,.16,0"/><path class="cls-117" d="M29.8,25.87l-8.66-5-.15,0,8.65,5,.16,0"/><path class="cls-118" d="M29.64,25.9l-8.65-5-.16.05,8.65,5,.16-.05"/><path class="cls-119" d="M29.48,26l-8.65-5-.15,0,8.65,5,.15,0"/><path class="cls-60" d="M29.33,26l-8.65-5-.16.05,8.66,5,.15-.06"/><path class="cls-61" d="M29.18,26.05l-8.66-5-.15.07,8.66,5,.15-.07"/><path class="cls-62" d="M29,26.12l-8.66-5-.15.07,8.66,5,.15-.07"/><path class="cls-63" d="M28.88,26.19l-8.66-5-.15.08,8.65,5,.16-.08"/><path class="cls-64" d="M28.72,26.27l-8.65-5-.12.07,8.65,5,.12-.07"/></g></g></g><g class="cls-2"><g class="cls-139"><g class="cls-2"><path class="cls-64" d="M28.6,26.34l-8.65-5,0,0,8.65,5,0,0"/><path class="cls-65" d="M28.56,26.36l-8.65-5-.16.1,8.65,5,.16-.1"/><path class="cls-66" d="M28.4,26.46l-8.65-5-.16.1,8.65,5,.16-.1"/><path class="cls-67" d="M28.24,26.56l-8.65-5-.17.12,8.66,5,.16-.12"/><path class="cls-68" d="M28.08,26.68l-8.66-5-.16.13,8.65,5,.17-.13"/><path class="cls-69" d="M27.91,26.81l-8.65-5-.17.13,8.65,5,.17-.13"/><path class="cls-70" d="M27.74,26.94l-8.65-5-.17.15,8.65,5,.17-.15"/><path class="cls-71" d="M27.57,27.09l-8.65-5-.17.16,8.66,5,.16-.16"/><path class="cls-72" d="M27.41,27.25l-8.66-5-.16.15,8.66,5,.16-.15"/><path class="cls-73" d="M27.25,27.4l-8.66-5-.15.17,8.65,5,.16-.17"/><path class="cls-74" d="M27.09,27.57l-8.65-5-.15.16,8.65,5,.15-.16"/><path class="cls-75" d="M26.94,27.73l-8.65-5-.15.17,8.66,5,.14-.17"/><path class="cls-76" d="M26.8,27.9l-8.66-5-.14.18,8.65,5,.15-.18"/><path class="cls-77" d="M26.65,28.08l-8.65-5c-.06.08-.12.15-.17.23l8.65,5,.17-.23"/><path class="cls-78" d="M26.48,28.31l-8.65-5a2.62,2.62,0,0,0-.24.34l8.65,5,.24-.34"/><path class="cls-79" d="M26.24,28.65l-8.65-5c-.1.15-.2.3-.29.45l8.66,5c.09-.15.18-.3.28-.45"/><path class="cls-78" d="M26,29.1l-8.66-5c-.06.11-.13.22-.19.34l8.66,5A3.72,3.72,0,0,1,26,29.1"/><path class="cls-77" d="M25.77,29.44l-8.66-5-.11.22,8.65,5,.12-.22"/><path class="cls-76" d="M25.65,29.66l-8.65-5-.1.2,8.66,5,.09-.2"/><path class="cls-75" d="M25.56,29.86l-8.66-5a1.08,1.08,0,0,0-.08.19l8.65,5,.09-.19"/><path class="cls-74" d="M25.47,30.05l-8.65-5a1.42,1.42,0,0,0-.08.18l8.65,5,.08-.18"/><path class="cls-73" d="M25.39,30.23l-8.65-5-.08.18,8.66,5,.07-.18"/><path class="cls-72" d="M25.32,30.41l-8.66-5a1.46,1.46,0,0,1-.07.19l8.66,5,.07-.19"/><path class="cls-71" d="M25.25,30.6l-8.66-5-.06.19,8.65,5,.07-.19"/><path class="cls-70" d="M25.18,30.79l-8.65-5c0,.07-.05.13-.07.2l8.66,5,.06-.2"/><path class="cls-69" d="M25.12,31l-8.66-5a1.46,1.46,0,0,0-.05.2l8.65,5,.06-.2"/><path class="cls-68" d="M25.06,31.19l-8.65-5-.06.2,8.66,5a1.46,1.46,0,0,1,0-.2"/><path class="cls-67" d="M25,31.39l-8.66-5c0,.07,0,.13,0,.2l8.65,5c0-.07,0-.13.05-.2"/><path class="cls-66" d="M25,31.59l-8.65-5a1.18,1.18,0,0,0,0,.2l8.65,5c0-.07,0-.14,0-.2"/><path class="cls-65" d="M24.92,31.79l-8.65-5a1.06,1.06,0,0,0,0,.19l8.66,5,0-.19"/><path class="cls-64" d="M24.89,32l-8.66-5a1.11,1.11,0,0,0,0,.19l8.65,5,0-.19"/><path class="cls-63" d="M24.86,32.17l-8.65-5a1.1,1.1,0,0,0,0,.18l8.65,5c0-.06,0-.12,0-.18"/><path class="cls-62" d="M24.84,32.35l-8.65-5c0,.06,0,.13,0,.19l8.66,5a1.21,1.21,0,0,1,0-.19"/><path class="cls-61" d="M24.83,32.54l-8.66-5c0,.06,0,.12,0,.18l8.66,5a1.09,1.09,0,0,1,0-.18"/><path class="cls-60" d="M24.82,32.72l-8.66-5v.17h0l8.66,5h0a1,1,0,0,1,0-.17"/><path class="cls-119" d="M24.82,32.9l-8.66-5v.18l8.66,5V32.9"/><path class="cls-118" d="M24.82,33.08l-8.66-5c0,.06,0,.12,0,.18l8.65,5c0-.06,0-.12,0-.18"/><path class="cls-117" d="M24.83,33.26l-8.65-5c0,.06,0,.12,0,.18l8.66,5c0-.06,0-.12,0-.18"/><path class="cls-116" d="M24.85,33.44l-8.66-5,0,.19,8.66,5s0-.11,0-.18"/><path class="cls-115" d="M24.88,33.62l-8.66-5c0,.06,0,.12,0,.18l8.65,5,0-.19"/><path class="cls-114" d="M24.91,33.81l-8.65-5a1.05,1.05,0,0,0,0,.19L25,34a1.8,1.8,0,0,0-.05-.19"/><path class="cls-113" d="M25,34l-8.65-5a1.18,1.18,0,0,0,.07.2l8.65,5c0-.06-.05-.13-.07-.2"/><path class="cls-112" d="M25,34.2l-8.65-5a.85.85,0,0,0,.09.22l8.65,5L25,34.2"/><path class="cls-111" d="M25.12,34.42l-8.65-5a2.15,2.15,0,0,0,.14.26l8.65,5a2.15,2.15,0,0,1-.14-.26"/><path class="cls-110" d="M25.26,34.68l-8.65-5a1.92,1.92,0,0,0,.66.64l8.65,5a1.92,1.92,0,0,1-.66-.64"/></g></g></g><g class="cls-2"><g class="cls-140"><g class="cls-2"><path class="cls-121" d="M34.41,20.72l-8.65-5a4.07,4.07,0,0,0-.67-.31l8.66,5a4,4,0,0,1,.66.31"/><path class="cls-122" d="M33.75,20.41l-8.66-5a4.74,4.74,0,0,0-.57-.16l8.65,5a3.83,3.83,0,0,1,.58.16"/><path class="cls-123" d="M33.17,20.25l-8.65-5-.47-.07,8.65,5,.47.07"/><path class="cls-124" d="M32.7,20.18l-8.65-5-.43,0,8.65,5,.43,0"/><path class="cls-125" d="M32.27,20.16l-8.65-5-.39,0,8.66,5,.38,0"/><path class="cls-126" d="M31.89,20.18l-8.66-5-.36,0,8.65,5,.37,0"/><path class="cls-127" d="M31.52,20.21l-8.65-5-.36.06,8.66,5,.35-.06"/><path class="cls-128" d="M31.17,20.27l-8.66-5-.33.08,8.65,5,.34-.08"/><path class="cls-129" d="M30.83,20.35l-8.65-5-.34.09,8.65,5,.34-.09"/><path class="cls-130" d="M30.49,20.44l-8.65-5-.33.11,8.66,5,.32-.11"/><path class="cls-131" d="M30.17,20.55l-8.66-5-.33.12,8.66,5,.33-.12"/><path class="cls-132" d="M29.84,20.67l-8.66-5-.33.14,8.66,5,.33-.14"/><path class="cls-133" d="M29.51,20.81l-8.66-5-.33.16,8.66,5,.33-.16"/><path class="cls-134" d="M29.18,21l-8.66-5-.33.17,8.66,5,.33-.17"/><path class="cls-96" d="M28.85,21.14l-8.66-5-.26.14,8.66,5,.26-.14"/></g></g></g><g class="cls-2"><g class="cls-141"><g class="cls-2"><path class="cls-96" d="M28.59,21.28l-8.66-5-.08.05,8.66,5,.08,0"/><path class="cls-95" d="M28.51,21.33l-8.66-5-.34.21,8.65,5,.35-.21"/><path class="cls-94" d="M28.16,21.54l-8.65-5-.35.23,8.65,5,.35-.23"/><path class="cls-93" d="M27.81,21.77l-8.65-5L18.8,17l8.66,5,.35-.25"/><path class="cls-92" d="M27.46,22,18.8,17c-.12.09-.24.18-.35.28l8.65,5,.36-.28"/><path class="cls-91" d="M27.1,22.3l-8.65-5c-.13.09-.25.19-.37.29l8.66,5,.36-.29"/><path class="cls-90" d="M26.74,22.59l-8.66-5-.36.32,8.65,5,.37-.32"/><path class="cls-89" d="M26.37,22.91l-8.65-5-.36.34,8.65,5,.36-.34"/><path class="cls-88" d="M26,23.25l-8.65-5-.35.34,8.66,5c.11-.12.23-.23.34-.34"/><path class="cls-87" d="M25.67,23.59l-8.66-5-.33.35,8.65,5c.11-.12.22-.24.34-.35"/><path class="cls-86" d="M25.33,23.94l-8.65-5c-.11.12-.22.23-.32.35l8.65,5,.32-.35"/><path class="cls-85" d="M25,24.29l-8.65-5-.32.37,8.66,5,.31-.37"/><path class="cls-84" d="M24.7,24.66l-8.66-5-.31.39,8.65,5,.32-.39"/><path class="cls-83" d="M24.38,25.05l-8.65-5-.37.48,8.66,5,.36-.48"/><path class="cls-81" d="M24,25.53l-8.66-5c-.18.24-.35.49-.52.74l8.66,5c.17-.25.34-.5.52-.74"/><path class="cls-82" d="M23.5,26.27l-8.66-5c-.21.32-.41.64-.61,1l8.65,5c.2-.34.41-.66.62-1"/><path class="cls-81" d="M22.88,27.25l-8.65-5c-.14.23-.27.47-.4.72l8.65,5c.13-.25.27-.49.4-.72"/><path class="cls-83" d="M22.48,28l-8.65-5c-.09.16-.18.32-.26.49l8.66,5c.08-.17.16-.33.25-.49"/><path class="cls-84" d="M22.23,28.46l-8.66-5-.21.43,8.66,5a4.25,4.25,0,0,1,.21-.43"/><path class="cls-85" d="M22,28.89l-8.66-5-.18.4,8.66,5a3.52,3.52,0,0,1,.18-.4"/><path class="cls-86" d="M21.84,29.29l-8.66-5-.17.39,8.66,5c0-.13.11-.26.17-.39"/><path class="cls-87" d="M21.67,29.68l-8.66-5-.16.4,8.66,5c0-.13.1-.27.16-.4"/><path class="cls-88" d="M21.51,30.08l-8.66-5-.15.4,8.66,5a3.25,3.25,0,0,1,.15-.4"/><path class="cls-89" d="M21.36,30.48l-8.66-5c0,.14-.1.28-.14.42l8.65,5,.15-.42"/><path class="cls-90" d="M21.21,30.9l-8.65-5c-.05.14-.1.28-.14.42l8.65,5c.05-.14.09-.28.14-.42"/><path class="cls-91" d="M21.07,31.32l-8.65-5c0,.15-.09.29-.13.44l8.66,5,.12-.44"/><path class="cls-92" d="M21,31.76l-8.66-5c0,.14-.07.29-.11.43l8.65,5,.12-.43"/><path class="cls-93" d="M20.83,32.19l-8.65-5c0,.14-.07.29-.1.43l8.65,5c0-.14.07-.29.1-.43"/><path class="cls-94" d="M20.73,32.62l-8.65-5L12,28l8.66,5c0-.15.05-.29.08-.43"/><path class="cls-95" d="M20.65,33.05,12,28c0,.13-.05.27-.07.41l8.66,5c0-.14,0-.28.07-.41"/><path class="cls-96" d="M20.58,33.46l-8.66-5-.06.41,8.66,5c0-.14,0-.27.06-.41"/><path class="cls-134" d="M20.52,33.87l-8.66-5c0,.13,0,.27,0,.4l8.65,5c0-.13,0-.27.05-.4"/><path class="cls-133" d="M20.47,34.27l-8.65-5,0,.4,8.65,5,0-.4"/><path class="cls-132" d="M20.44,34.67l-8.65-5c0,.13,0,.26,0,.39l8.65,5c0-.13,0-.26,0-.39"/><path class="cls-131" d="M20.42,35.06l-8.65-5c0,.12,0,.25,0,.37v0l8.66,5v-.39"/><path class="cls-130" d="M20.42,35.45l-8.66-5c0,.13,0,.27,0,.4l8.66,5c0-.13,0-.27,0-.4"/><path class="cls-129" d="M20.43,35.85l-8.66-5,0,.38,8.65,5c0-.13,0-.25,0-.38"/><path class="cls-128" d="M20.45,36.23l-8.65-5c0,.13,0,.27,0,.39l8.65,5c0-.13,0-.26,0-.39"/><path class="cls-127" d="M20.49,36.62l-8.65-5a2.28,2.28,0,0,0,.06.39l8.65,5-.06-.39"/><path class="cls-126" d="M20.55,37,11.9,32c0,.14,0,.27.08.4l8.65,5c0-.13-.06-.26-.08-.4"/><path class="cls-125" d="M20.63,37.41l-8.65-5c0,.15.07.29.1.42l8.66,5a4.26,4.26,0,0,1-.11-.42"/><path class="cls-124" d="M20.74,37.83l-8.66-5,.15.43,8.65,5c-.05-.14-.1-.28-.14-.43"/><path class="cls-123" d="M20.88,38.26l-8.65-5c.06.16.12.32.19.47l8.66,5c-.07-.15-.14-.31-.2-.47"/><path class="cls-122" d="M21.08,38.73l-8.66-5c.1.2.2.38.31.56l8.66,5a5,5,0,0,1-.31-.56"/><path class="cls-121" d="M21.39,39.29l-8.66-5a4.13,4.13,0,0,0,1.43,1.39l8.65,5a4.19,4.19,0,0,1-1.42-1.39"/></g></g></g><g class="cls-2"><g class="cls-142"><g class="cls-2"><path class="cls-110" d="M37.79,14.9l-8.65-5a6.75,6.75,0,0,0-1.06-.48l8.66,5a6.25,6.25,0,0,1,1,.48"/><path class="cls-111" d="M36.74,14.42l-8.66-5a5.3,5.3,0,0,0-.91-.25l8.66,5a5.56,5.56,0,0,1,.91.25"/><path class="cls-112" d="M35.83,14.17l-8.66-5A6,6,0,0,0,26.43,9l8.65,5a5.88,5.88,0,0,1,.75.11"/><path class="cls-113" d="M35.08,14.06,26.43,9c-.22,0-.45,0-.68,0l8.66,5c.23,0,.45,0,.67,0"/><path class="cls-114" d="M34.41,14,25.75,9c-.2,0-.4,0-.61,0l8.66,5c.2,0,.41,0,.61,0"/><path class="cls-115" d="M33.8,14.05,25.14,9l-.57.06,8.65,5,.58-.06"/><path class="cls-116" d="M33.22,14.11l-8.65-5L24,9.17l8.65,5,.57-.09"/><path class="cls-117" d="M32.65,14.2,24,9.17a5,5,0,0,0-.53.12l8.65,5,.53-.12"/><path class="cls-118" d="M32.12,14.32l-8.65-5-.54.14,8.66,5,.53-.14"/><path class="cls-119" d="M31.59,14.46l-8.66-5-.51.17,8.65,5,.52-.17"/><path class="cls-60" d="M31.07,14.63l-8.65-5-.53.2,8.66,5,.52-.2"/><path class="cls-61" d="M30.55,14.83l-8.66-5-.51.22,8.65,5,.52-.22"/><path class="cls-62" d="M30,15.05l-8.65-5-.53.25,8.66,5,.52-.25"/><path class="cls-63" d="M29.51,15.3l-8.66-5c-.17.08-.35.17-.52.27l8.65,5c.18-.1.35-.19.53-.27"/><path class="cls-64" d="M29,15.57l-8.65-5-.41.23,8.65,5,.41-.23"/></g></g></g><g class="cls-2"><g class="cls-143"><g class="cls-2"><path class="cls-99" d="M40.63,10,32,5a7.24,7.24,0,0,0-1.38-.64l8.66,5a8.6,8.6,0,0,1,1.38.63"/><path class="cls-100" d="M39.25,9.39l-8.66-5A7.93,7.93,0,0,0,29.41,4l8.65,5a7.73,7.73,0,0,1,1.19.33"/><path class="cls-101" d="M38.06,9.06,29.41,4c-.32-.06-.65-.11-1-.14l8.65,5c.33,0,.66.08,1,.14"/><path class="cls-102" d="M37.08,8.92l-8.65-5a8.64,8.64,0,0,0-.88,0l8.65,5a8.51,8.51,0,0,1,.88,0"/><path class="cls-103" d="M36.2,8.88l-8.65-5c-.27,0-.53,0-.8,0l8.65,5c.27,0,.54,0,.8,0"/><path class="cls-104" d="M35.4,8.9l-8.65-5L26,4l8.66,5,.75-.08"/><path class="cls-105" d="M34.65,9,26,4l-.74.12,8.65,5L34.65,9"/><path class="cls-106" d="M33.9,9.1l-8.65-5-.7.16,8.66,5,.69-.16"/><path class="cls-107" d="M33.21,9.26l-8.66-5c-.23,0-.46.12-.7.19l8.66,5c.23-.07.47-.14.7-.19"/><path class="cls-108" d="M32.51,9.45l-8.66-5-.67.22,8.65,5,.68-.22"/><path class="cls-38" d="M31.83,9.67l-8.65-5-.69.26,8.66,5,.68-.26"/><path class="cls-39" d="M31.15,9.93l-8.66-5c-.22.09-.45.18-.67.29l8.65,5c.23-.11.45-.2.68-.29"/><path class="cls-40" d="M30.47,10.22l-8.65-5-.69.32,8.66,5c.23-.12.45-.22.68-.32"/><path class="cls-41" d="M29.79,10.54l-8.66-5q-.35.17-.69.36l8.65,5,.7-.36"/><path class="cls-42" d="M29.09,10.9l-8.65-5q-.27.13-.54.3l8.66,5,.53-.3"/></g></g></g><g class="cls-2"><g class="cls-144"><g class="cls-2"><path class="cls-64" d="M28.57,15.8l-8.65-5-.13.07,8.65,5,.13-.07"/><path class="cls-65" d="M28.44,15.87l-8.65-5-.55.34,8.66,5,.54-.34"/><path class="cls-66" d="M27.9,16.21l-8.66-5-.55.36,8.66,5c.18-.12.36-.25.55-.36"/><path class="cls-67" d="M27.35,16.57l-8.66-5-.56.4,8.66,5c.18-.14.37-.27.56-.4"/><path class="cls-68" d="M26.79,17l-8.66-5c-.19.14-.38.28-.56.43l8.65,5,.57-.43"/><path class="cls-69" d="M26.22,17.4l-8.65-5c-.2.15-.39.31-.58.47l8.65,5,.58-.47"/><path class="cls-70" d="M25.64,17.87l-8.65-5-.58.5,8.66,5,.57-.5"/><path class="cls-71" d="M25.07,18.37l-8.66-5-.57.53,8.66,5,.57-.53"/><path class="cls-72" d="M24.5,18.9l-8.66-5-.54.54,8.65,5,.55-.54"/><path class="cls-73" d="M24,19.44l-8.65-5c-.18.19-.36.37-.53.56l8.65,5c.18-.19.36-.37.53-.56"/><path class="cls-74" d="M23.42,20l-8.65-5-.51.56,8.66,5c.16-.19.33-.38.5-.56"/><path class="cls-75" d="M22.92,20.56l-8.66-5c-.17.19-.33.39-.5.59l8.66,5c.16-.2.33-.4.5-.59"/><path class="cls-76" d="M22.42,21.15l-8.66-5-.5.61,8.66,5c.16-.21.33-.41.5-.61"/><path class="cls-77" d="M21.92,21.76l-8.66-5-.57.76,8.65,5c.19-.26.38-.51.58-.76"/><path class="cls-78" d="M21.34,22.52l-8.65-5c-.28.38-.56.77-.82,1.17l8.65,5c.27-.4.54-.79.82-1.17"/><path class="cls-79" d="M20.52,23.69l-8.65-5c-.34.5-.66,1-1,1.54l8.65,5c.31-.52.63-1,1-1.54"/><path class="cls-78" d="M19.55,25.23l-8.65-5c-.22.38-.44.76-.64,1.14l8.65,5c.21-.38.42-.76.64-1.14"/><path class="cls-77" d="M18.91,26.37l-8.65-5c-.14.26-.28.52-.41.78l8.66,5c.13-.26.26-.52.4-.78"/><path class="cls-76" d="M18.51,27.15l-8.66-5-.33.69,8.66,5,.33-.69"/><path class="cls-75" d="M18.18,27.84l-8.66-5c-.1.21-.19.42-.28.63l8.65,5c.09-.21.19-.42.29-.63"/><path class="cls-74" d="M17.89,28.47l-8.65-5L9,24.06l8.66,5c.08-.21.17-.42.26-.62"/><path class="cls-73" d="M17.63,29.09,9,24.06c-.09.21-.17.42-.25.63l8.65,5c.08-.21.17-.42.26-.63"/><path class="cls-72" d="M17.37,29.72l-8.65-5c-.09.21-.16.42-.24.63l8.65,5,.24-.63"/><path class="cls-71" d="M17.13,30.35l-8.65-5c-.08.22-.16.44-.23.66l8.65,5,.23-.66"/><path class="cls-70" d="M16.9,31,8.25,26c-.08.23-.15.45-.22.67l8.66,5L16.9,31"/><path class="cls-69" d="M16.69,31.68,8,26.65c-.07.23-.13.46-.2.69l8.66,5c.06-.23.13-.46.2-.69"/><path class="cls-68" d="M16.49,32.37l-8.66-5L7.65,28l8.66,5q.07-.35.18-.69"/><path class="cls-67" d="M16.31,33.06,7.65,28c-.05.22-.11.45-.16.68l8.66,5c.05-.23.1-.46.16-.68"/><path class="cls-66" d="M16.15,33.74l-8.66-5c0,.22-.09.45-.13.67l8.65,5c0-.22.09-.45.14-.67"/><path class="cls-65" d="M16,34.41l-8.65-5L7.24,30l8.66,5c0-.21.07-.43.11-.65"/><path class="cls-64" d="M15.9,35.06,7.24,30l-.09.65,8.66,5c0-.21,0-.43.09-.65"/><path class="cls-63" d="M15.81,35.71l-8.66-5c0,.22-.05.43-.07.64l8.66,5c0-.21,0-.42.07-.64"/><path class="cls-62" d="M15.74,36.35l-8.66-5c0,.21,0,.42,0,.63l8.66,5c0-.21,0-.42.05-.63"/><path class="cls-61" d="M15.69,37,7,32l0,.62,8.66,5c0-.21,0-.42,0-.62"/><path class="cls-60" d="M15.66,37.6,7,32.57c0,.19,0,.39,0,.58v0l8.66,5v0c0-.19,0-.39,0-.58"/><path class="cls-119" d="M15.65,38.22,7,33.19c0,.21,0,.42,0,.62l8.65,5c0-.2,0-.41,0-.62"/><path class="cls-118" d="M15.66,38.84,7,33.81c0,.21,0,.41,0,.61l8.65,5c0-.2,0-.4,0-.61"/><path class="cls-117" d="M15.7,39.45l-8.65-5a6.2,6.2,0,0,0,.06.62l8.66,5c0-.2,0-.41-.07-.62"/><path class="cls-116" d="M15.77,40.07,7.11,35l.09.62,8.66,5a6.17,6.17,0,0,1-.09-.62"/><path class="cls-115" d="M15.86,40.69l-8.66-5c0,.22.08.43.13.64l8.65,5c0-.21-.09-.42-.12-.64"/><path class="cls-114" d="M16,41.33l-8.65-5c0,.22.11.44.17.66l8.66,5c-.07-.22-.12-.44-.18-.66"/><path class="cls-113" d="M16.16,42,7.5,37c.07.23.15.46.23.68l8.65,5c-.08-.22-.15-.45-.22-.68"/><path class="cls-112" d="M16.38,42.67l-8.65-5c.09.25.2.5.31.73l8.65,5c-.11-.23-.21-.48-.31-.73"/><path class="cls-111" d="M16.69,43.4,8,38.37a7.56,7.56,0,0,0,.49.89l8.65,5a9.35,9.35,0,0,1-.49-.89"/><path class="cls-110" d="M17.18,44.29l-8.65-5a6.56,6.56,0,0,0,2.25,2.2l8.65,5a6.56,6.56,0,0,1-2.25-2.2"/></g></g></g><path class="cls-145" d="M41.58,23.21c0,8.22-5.78,18.26-12.92,22.38s-13,.81-13-7.41S21.42,19.93,28.57,15.8,41.55,15,41.58,23.21ZM28.64,40.11c4.52-2.6,8.18-8.95,8.16-14.14s-3.7-7.29-8.21-4.69-8.19,9-8.17,14.15,3.7,7.29,8.22,4.68"/><g class="cls-2"><g class="cls-146"><g class="cls-2"><path class="cls-42" d="M28.56,11.2l-8.66-5-.16.09,8.65,5,.17-.09"/><path class="cls-43" d="M28.39,11.29l-8.65-5L19,6.7l8.66,5,.71-.44"/><path class="cls-44" d="M27.68,11.73,19,6.7c-.24.16-.48.31-.72.48l8.66,5q.36-.26.72-.48"/><path class="cls-45" d="M27,12.21l-8.66-5-.73.52,8.65,5c.25-.18.49-.36.74-.52"/><path class="cls-46" d="M26.22,12.73l-8.65-5c-.25.18-.5.37-.74.57l8.65,5,.74-.56"/><path class="cls-47" d="M25.48,13.29l-8.65-5-.76.61,8.66,5,.75-.62"/><path class="cls-48" d="M24.73,13.91l-8.66-5-.75.66,8.65,5c.25-.23.5-.45.76-.66"/><path class="cls-49" d="M24,14.57l-8.65-5-.75.69,8.66,5c.25-.24.49-.47.74-.69"/><path class="cls-50" d="M23.23,15.26l-8.66-5-.71.71,8.65,5,.72-.71"/><path class="cls-51" d="M22.51,16l-8.65-5-.69.72,8.65,5c.23-.24.46-.49.69-.72"/><path class="cls-52" d="M21.82,16.69l-8.65-5c-.23.24-.45.49-.66.74l8.65,5,.66-.74"/><path class="cls-53" d="M21.16,17.43l-8.65-5c-.23.25-.45.51-.66.76l8.65,5,.66-.76"/><path class="cls-54" d="M20.5,18.19l-8.65-5-.66.81,8.66,5,.65-.81"/><path class="cls-55" d="M19.85,19l-8.66-5-.75,1,8.66,5q.36-.49.75-1"/><path class="cls-56" d="M19.1,20l-8.66-5c-.37.5-.72,1-1.07,1.53l8.65,5q.53-.78,1.08-1.53"/><path class="cls-57" d="M18,21.52l-8.65-5c-.44.66-.87,1.34-1.27,2l8.65,5c.41-.68.83-1.36,1.27-2"/><path class="cls-56" d="M16.75,23.54l-8.65-5c-.29.5-.57,1-.84,1.5l8.66,5c.26-.51.54-1,.83-1.5"/><path class="cls-55" d="M15.92,25,7.26,20c-.18.34-.36.68-.53,1l8.66,5c.17-.35.34-.69.53-1"/><path class="cls-54" d="M15.39,26.06,6.73,21c-.15.29-.29.59-.43.89L15,27c.14-.3.29-.6.44-.89"/><path class="cls-53" d="M15,27l-8.65-5-.38.83,8.66,5c.12-.28.25-.55.37-.83"/><path class="cls-52" d="M14.58,27.78l-8.66-5-.34.81,8.65,5c.11-.27.23-.54.35-.81"/><path class="cls-51" d="M14.23,28.59l-8.65-5c-.12.27-.23.55-.34.82l8.66,5,.33-.82"/><path class="cls-50" d="M13.9,29.41l-8.66-5-.31.84,8.66,5c.1-.28.2-.56.31-.84"/><path class="cls-49" d="M13.59,30.25l-8.66-5-.3.86,8.65,5c.1-.29.2-.58.31-.86"/><path class="cls-48" d="M13.28,31.11l-8.65-5c-.1.29-.19.59-.28.88L13,32l.28-.88"/><path class="cls-47" d="M13,32,4.35,27c-.09.3-.18.6-.26.9l8.65,5c.08-.3.17-.6.26-.9"/><path class="cls-46" d="M12.74,32.89l-8.65-5q-.13.45-.24.9l8.66,5c.07-.3.15-.6.23-.9"/><path class="cls-45" d="M12.51,33.79l-8.66-5-.21.88,8.66,5c.06-.29.13-.59.21-.88"/><path class="cls-44" d="M12.3,34.67l-8.66-5-.18.89,8.66,5c.05-.3.11-.59.18-.89"/><path class="cls-43" d="M12.12,35.56l-8.66-5c0,.28-.1.57-.14.85l8.65,5c0-.28.09-.57.15-.85"/><path class="cls-42" d="M12,36.41l-8.65-5c0,.29-.09.57-.13.85l8.66,5,.12-.85"/><path class="cls-41" d="M11.85,37.26l-8.66-5-.09.83,8.66,5c0-.27.05-.55.09-.83"/><path class="cls-40" d="M11.76,38.09l-8.66-5c0,.28-.05.55-.06.83l8.65,5c0-.27,0-.54.07-.82"/><path class="cls-39" d="M11.69,38.91,3,33.89c0,.27,0,.54,0,.81l8.65,5c0-.27,0-.54,0-.82"/><path class="cls-38" d="M11.65,39.73,3,34.7c0,.26,0,.51,0,.76v0l8.65,5v0c0-.25,0-.5,0-.76"/><path class="cls-108" d="M11.64,40.54,3,35.51c0,.28,0,.55,0,.82l8.65,5c0-.27,0-.54,0-.82"/><path class="cls-107" d="M11.66,41.36,3,36.33c0,.27,0,.54.05.8l8.65,5c0-.27,0-.53-.05-.8"/><path class="cls-106" d="M11.71,42.16l-8.65-5c0,.27,0,.54.08.81l8.66,5q-.06-.4-.09-.81"/><path class="cls-105" d="M11.8,43l-8.66-5,.12.81,8.66,5q-.08-.39-.12-.81"/><path class="cls-104" d="M11.92,43.78l-8.66-5c.05.28.11.56.17.83l8.65,5c-.06-.27-.11-.55-.16-.83"/><path class="cls-103" d="M12.08,44.61l-8.65-5c.07.29.14.58.22.86l8.66,5c-.08-.28-.16-.57-.23-.86"/><path class="cls-102" d="M12.31,45.47l-8.66-5q.14.47.3.9l8.66,5q-.16-.43-.3-.9"/><path class="cls-101" d="M12.61,46.37,4,41.34a10.25,10.25,0,0,0,.41,1l8.65,5c-.14-.31-.28-.63-.4-1"/><path class="cls-100" d="M13,47.33l-8.65-5A9.9,9.9,0,0,0,5,43.46l8.65,5A11.61,11.61,0,0,1,13,47.33"/><path class="cls-99" d="M13.65,48.49,5,43.46a8.54,8.54,0,0,0,3,2.88l8.65,5a8.71,8.71,0,0,1-3-2.88"/></g></g></g><path class="cls-147" d="M48.57,19.18c0,12.66-8.87,28.09-19.89,34.45s-20,1.26-20-11.41,8.87-28.09,19.9-34.45S48.53,6.51,48.57,19.18Zm-19.9,31C38,44.8,45.61,31.65,45.58,20.9s-7.66-15.11-17-9.7S11.61,29.74,11.64,40.49s7.67,15.11,17,9.71"/><path class="cls-147" d="M45.58,20.9c0,10.75-7.55,23.9-16.91,29.3s-17,1-17-9.71S19.2,16.6,28.56,11.2,45.55,10.15,45.58,20.9ZM28.66,45.59C35.8,41.47,41.6,31.43,41.58,23.21s-5.86-11.54-13-7.41S15.63,30,15.65,38.18s5.85,11.54,13,7.41"/><path class="cls-148" d="M28.6,26.34c2.09-1.21,3.8-.24,3.81,2.17a8.38,8.38,0,0,1-3.78,6.55c-2.1,1.21-3.81.24-3.81-2.17A8.35,8.35,0,0,1,28.6,26.34Z"/><path class="cls-147" d="M36.8,26c0,5.19-3.64,11.54-8.16,14.14s-8.21.51-8.22-4.68,3.65-11.54,8.17-14.15S36.79,20.78,36.8,26Zm-8.17,9.09a8.38,8.38,0,0,0,3.78-6.55c0-2.41-1.72-3.38-3.81-2.17a8.35,8.35,0,0,0-3.78,6.55c0,2.41,1.71,3.38,3.81,2.17"/><path class="cls-149" d="M0,36.29c0-.06,0-.11,0-.17s0-.24,0-.37,0-.28,0-.43,0-.22,0-.33l0-.38a2.28,2.28,0,0,0,0-.26c0-.18,0-.36.07-.55l0-.32a.34.34,0,0,0,0-.1c0-.34.09-.67.15-1v0a.68.68,0,0,0,0-.14l.15-.84,0-.16c0-.13.06-.26.08-.4s.07-.32.1-.48a2.29,2.29,0,0,1,.07-.28c0-.14.06-.29.1-.43A3.38,3.38,0,0,1,1,29.28c0-.13.07-.27.1-.4l.12-.44c0-.07,0-.15.05-.22s.12-.38.17-.58.07-.24.11-.37l0-.1.33-1v0L2,26c.1-.3.21-.61.32-.91a.88.88,0,0,1,0-.15c0-.11.09-.22.13-.34l.18-.49.13-.31.15-.38c0-.09.08-.19.11-.28l.24-.55a2.55,2.55,0,0,1,.13-.29s0-.07,0-.11c.14-.32.29-.64.44-1l0,0L4,20.94l.36-.74.06-.11.31-.6c.08-.16.16-.32.25-.48a.41.41,0,0,1,.05-.09c.27-.52.56-1,.86-1.54,0,0,.05-.08.07-.13s.16-.25.23-.38.25-.42.38-.62L7,15.7l.39-.6a2.39,2.39,0,0,0,.13-.21l.13-.18c.37-.55.75-1.09,1.14-1.61h0c.28-.38.56-.75.85-1.11l0-.05c.21-.27.43-.53.64-.79l.12-.15h0c.26-.31.51-.61.77-.9l0-.05.25-.27L12,9.22l.1-.1.34-.36.38-.4.14-.14c.12-.13.25-.25.37-.37l.33-.32.18-.17L14.2,7l.28-.27.23-.19.41-.36.25-.22.28-.23.4-.33.21-.17L16.61,5,17,4.66l.16-.11.46-.34L17.92,4,18,3.93l.85-.56h0l.06,0q.39-.25.78-.48l.19-.11.64-.36.24-.12.32-.17L21.35,2l.4-.19L22,1.63l.12,0c.27-.12.54-.24.8-.34s.54-.21.81-.3l.1,0,.29-.09.41-.14.2-.05.35-.1.27-.07.28-.07L26,.31l.19,0c.11,0,.22,0,.33-.06l.4-.06.14,0,.33,0,.43,0h.42l.5,0h.36c.22,0,.42,0,.63,0h.19l.26,0,.19,0c.24,0,.47.07.7.12h0l.19.05.56.13.27.09.36.11.08,0,.53.22.26.11c.25.12.5.25.74.39l8.66,5c-.25-.14-.49-.27-.75-.39l-.26-.11-.52-.22-.44-.14-.27-.09-.57-.14-.18,0q-.36-.07-.72-.12l-.2,0-.44,0q-.32,0-.63,0h-.36l-.51,0-.41,0-.43,0-.48,0-.4.07-.51.1-.35.07-.56.14-.35.1-.61.19-.29.09c-.59.21-1.2.45-1.82.73l-.29.14-.65.32-.33.17q-.44.23-.87.48c-.33.18-.65.38-1,.59l-.07,0q-.47.3-.93.63l-.32.22-.62.45-.38.29-.55.43-.41.33-.52.45-.41.36c-.18.15-.34.3-.51.46l-.41.38-.51.49-.38.37-.52.54c-.11.12-.23.23-.34.36l-.59.64-.24.27c-.28.32-.55.63-.82,1l-.13.15-.67.84q-.43.54-.84,1.11h0c-.39.53-.76,1.07-1.13,1.62-.09.13-.18.26-.26.39s-.27.4-.4.6-.23.36-.34.55-.26.41-.38.62l-.31.51c-.29.51-.58,1-.86,1.54-.1.19-.2.38-.29.57l-.32.6c-.14.28-.28.56-.41.85l-.14.28c-.17.36-.34.73-.5,1.1,0,.1-.08.2-.13.3-.11.28-.23.55-.34.83-.05.12-.11.25-.16.38s-.2.53-.31.8L11,30c-.13.35-.26.7-.37,1.05a.69.69,0,0,0,0,.1c-.13.39-.25.77-.36,1.15,0,.13-.08.25-.11.37s-.16.53-.23.8-.08.29-.11.44-.13.49-.19.73-.07.3-.1.44-.11.51-.16.76-.06.27-.08.4c-.07.34-.13.67-.18,1l0,.14c-.06.38-.11.76-.15,1.13,0,.11,0,.21,0,.32,0,.27-.06.54-.08.81l0,.38c0,.26,0,.51-.05.76s0,.25,0,.37c0,.36,0,.71,0,1.07s0,.74,0,1.09c0,.11,0,.21,0,.31,0,.25,0,.49.05.73s0,.27.05.41,0,.41.07.61l.06.43c0,.18.06.36.1.54l.09.48c0,.16.07.32.11.48s.09.36.14.54.08.28.13.42.13.43.21.64.07.22.12.33c.13.35.27.69.42,1s.24.5.38.74h0a8.1,8.1,0,0,0,.42.7l.09.14c.11.17.22.33.34.49a1.33,1.33,0,0,1,.14.19l.35.42.13.15c.16.18.33.36.5.52l.07.07c.15.14.3.28.46.41l.17.14.41.31.17.12c.2.14.39.26.6.38L5.82,50c-.2-.12-.4-.24-.59-.38l-.17-.12c-.14-.1-.28-.2-.41-.31L4.48,49c-.16-.13-.31-.27-.46-.41l-.08-.07c-.17-.16-.33-.34-.49-.52l-.14-.15L3,47.47l-.15-.19c-.11-.16-.23-.32-.34-.49l-.09-.14,0,0c-.14-.21-.27-.43-.4-.66H2a7.49,7.49,0,0,1-.36-.69v0c-.16-.33-.3-.67-.43-1a.79.79,0,0,1,0-.09c0-.08,0-.16-.08-.24l-.21-.64-.06-.17-.06-.25c0-.18-.1-.36-.14-.54L.52,42c0-.08,0-.17-.05-.25s-.07-.32-.1-.48a2,2,0,0,0,0-.24c0-.1,0-.2,0-.3s-.05-.29-.07-.43l0-.23c0-.12,0-.25,0-.38s0-.27,0-.41,0-.11,0-.17l0-.56c0-.1,0-.2,0-.3s0,0,0-.08c0-.31,0-.64,0-1v-.06C0,36.89,0,36.59,0,36.29Z"/></g></g></g></svg>