<svg xmlns="http://www.w3.org/2000/svg" viewBox="0 0 157.67 232.27"><defs><style>.cls-1{fill:#956f50;}.cls-2{fill:#69472a;}.cls-3{fill:#a56c41;}.cls-4{fill:#a06b43;}.cls-5{fill:#469cc6;}.cls-6{fill:#d39b6c;}.cls-7,.cls-8{fill:#854e30;}.cls-7{opacity:0.48;}.cls-9{fill:#c49a79;}.cls-10{fill:#3f2723;}.cls-11{fill:#543b34;}</style></defs><title>brønn</title><g id="Layer_2" data-name="Layer 2"><g id="Layer_1-2" data-name="Layer 1"><g id="Planks"><polygon class="cls-1" points="122.63 151.73 122.8 30.35 140.24 20.23 140.24 161.8 122.63 151.73"/><polygon class="cls-2" points="140.24 161.8 157.67 151.73 157.67 10.12 140.24 20.23 140.24 161.8"/><g id="Well"><ellipse class="cls-3" cx="87.8" cy="119.05" rx="47.64" ry="27.51"/><path class="cls-4" d="M147.59,183.4V117.29L28,119.12V183.4c-1.81,10.47,3.93,21.33,17.23,29.3,23.4,14,61.71,14,85.11,0C143.66,204.73,149.4,193.87,147.59,183.4Z"/><path id="vann" class="cls-5" d="M119.74,141.93c-16.83,9.59-44.36,9.59-61.19,0s-18.17-10.25-1.34-19.83,44.36-9.59,61.19,0S136.57,132.35,119.74,141.93Z"/><path id="ringen" class="cls-6" d="M130.36,94.47C107,81,68.65,81,45.25,94.47s-23.41,35.64,0,49.15,61.71,13.52,85.11,0S153.77,108,130.36,94.47Zm-9,44c-18.46,10.66-48.67,10.66-67.13,0s-18.47-28.1,0-38.77,48.67-10.66,67.13,0S139.84,127.77,121.37,138.43Z"/><path class="cls-7" d="M110.06,188.06a79.61,79.61,0,0,0,16.94-5.6V196a74.7,74.7,0,0,1-16.94,5.87Z"/><path class="cls-7" d="M90,190.3a102.71,102.71,0,0,0,17-1.63v13.87a99.37,99.37,0,0,1-17,1.67Z"/><path class="cls-8" d="M110.06,154.05a79.61,79.61,0,0,0,16.94-5.6V162a74.7,74.7,0,0,1-16.94,5.87Z"/><path class="cls-8" d="M86.93,204.21a99.37,99.37,0,0,1-17-1.67V188.67a102.71,102.71,0,0,0,17,1.63Z"/><path class="cls-7" d="M66.89,201.9a75,75,0,0,1-17-5.87V182.46a79.89,79.89,0,0,0,17,5.6Z"/><path class="cls-8" d="M86.93,187.21a100.39,100.39,0,0,1-17-1.68V171.67a102.71,102.71,0,0,0,17,1.62Z"/><path class="cls-7" d="M90,156.29a103.8,103.8,0,0,0,17-1.63v13.86a99.37,99.37,0,0,1-17,1.68Z"/><path class="cls-8" d="M90,173.29a102.71,102.71,0,0,0,17-1.62v13.86a100.39,100.39,0,0,1-17,1.68Z"/><path class="cls-8" d="M66.89,184.89a75.12,75.12,0,0,1-17-5.86V165.45a79.89,79.89,0,0,0,17,5.6Z"/><path class="cls-7" d="M86.93,170.2a99.37,99.37,0,0,1-17-1.68V154.66a103.8,103.8,0,0,0,17,1.63Z"/><path class="cls-8" d="M66.89,167.89a75,75,0,0,1-17-5.87V148.45a79.89,79.89,0,0,0,17,5.6Z"/><path class="cls-8" d="M110.06,171.05a79.61,79.61,0,0,0,16.94-5.6V179a75.36,75.36,0,0,1-16.94,5.86Z"/><path class="cls-8" d="M130.1,180.91c.61-.32,1.17-.63,1.71-.94,7.05-4.08,12.22-9,15.23-14.41v5.5c0,8.74-6,17-16.78,23.24l-.16.09Z"/><path class="cls-8" d="M110.06,205.07a79.61,79.61,0,0,0,16.94-5.6V213a74.87,74.87,0,0,1-16.94,5.87Z"/><path class="cls-8" d="M130.1,163.91c.6-.33,1.17-.64,1.71-.95,7.05-4.07,12.22-9,15.23-14.4v5.5c0,8.73-6,17-16.78,23.23l-.16.09Z"/><path class="cls-7" d="M130.1,197.92c.6-.32,1.17-.64,1.71-.95,7.05-4.07,12.22-9,15.23-14.4v5.5c0,8.73-6,17-16.78,23.23l-.16.1Z"/><path class="cls-7" d="M130.1,146.9c.61-.32,1.17-.64,1.71-1,7.05-4.07,12.22-9,15.23-14.4v5.5c0,8.73-6,17-16.78,23.23l-.16.1Z"/><path class="cls-7" d="M46.69,177.29c-10.82-6.25-16.78-14.5-16.78-23.23v-5.5c3,5.4,8.18,10.33,15.23,14.4.54.31,1.1.62,1.71.95v13.47Z"/><path class="cls-8" d="M46.69,160.28c-10.82-6.25-16.78-14.5-16.78-23.23v-5.5c3,5.41,8.18,10.33,15.23,14.4l1.71,1v13.48Z"/><path class="cls-8" d="M46.69,194.3c-10.82-6.25-16.78-14.5-16.78-23.24v-5.5c3,5.41,8.18,10.33,15.23,14.41.54.31,1.1.62,1.71.94v13.48Z"/><path class="cls-8" d="M90,207.31a103.8,103.8,0,0,0,17-1.63v13.86a99.37,99.37,0,0,1-17,1.68Z"/><path class="cls-8" d="M86.93,221.22a99.37,99.37,0,0,1-17-1.68V205.68a103.8,103.8,0,0,0,17,1.63Z"/><path class="cls-7" d="M46.69,211.3c-10.82-6.25-16.78-14.5-16.78-23.23v-5.5c3,5.41,8.18,10.33,15.23,14.4.54.31,1.1.63,1.71.95V211.4Z"/><path class="cls-7" d="M66.89,218.91a75.13,75.13,0,0,1-17-5.87V199.47a79.89,79.89,0,0,0,17,5.6Z"/></g><polygon class="cls-2" points="17.52 232.27 17.52 91.43 35.04 81.31 35.04 222.93 17.52 232.27"/><polygon class="cls-1" points="17.52 232.27 0 222.54 0.67 81.31 17.52 91.43 17.52 232.27"/><polyline class="cls-9" points="0.67 81.31 140.15 0 157.67 10.12 17.52 91.43"/><polygon class="cls-2" points="35.04 101.16 140.24 40.41 140.24 20.23 35.04 81.31 35.04 101.16"/><g id="Bøtte"><path class="cls-10" d="M99,130.71l3.77-26.61H71l3.78,26.74c-.36,2,.8,4.16,3.5,5.71,4.75,2.75,12.53,2.75,17.28,0C98.32,135,99.48,132.79,99,130.71Z"/><ellipse class="cls-11" cx="86.93" cy="104.1" rx="16.03" ry="9.25"/><ellipse class="cls-10" cx="86.93" cy="104.1" rx="11.85" ry="6.84"/><g id="Planks-2" data-name="Planks"><polygon class="cls-10" points="77.26 111.31 77.26 91.06 80.24 89.61 80.37 109.8 77.26 111.31"/><polygon class="cls-11" points="77.26 111.48 75.66 110.52 74.26 109.77 74.4 89.61 77.26 91.06 77.26 111.48"/><polyline class="cls-11" points="74.4 89.61 98.11 77.92 101.09 79.37 77.26 91.06"/><polygon class="cls-11" points="95.53 99.21 95.16 82.28 98.13 80.83 98.13 101.72 97.01 100.34 95.53 99.21"/><polygon class="cls-10" points="98.13 101.72 101.09 99.92 101.09 79.37 98.13 80.83 98.13 101.72"/><polygon class="cls-10" points="80.24 92.46 98.13 83.73 98.13 80.83 80.24 89.61 80.24 92.46"/></g></g><polygon class="cls-9" points="88.47 85.56 88.47 70.3 85.82 71.83 85.82 86.86 88.47 85.56"/><polygon class="cls-1" points="85.82 86.86 83.02 85.36 83.02 73.45 85.82 71.83 85.82 86.86"/></g></g></g></svg>