<svg xmlns="http://www.w3.org/2000/svg" viewBox="0 0 284.84 238"><defs><style>.cls-1{fill:#956f50;}.cls-2{fill:#c49a79;}.cls-3{fill:#69472a;}.cls-4{fill:#2d2117;}.cls-5{opacity:0.56;}</style></defs><title>bygning_01</title><g id="Layer_2" data-name="Layer 2"><g id="Layer_1-2" data-name="Layer 1"><polygon class="cls-1" points="145.32 238 145.29 181.65 267.46 111.11 267.49 167.47 145.32 238"/><polygon class="cls-2" points="145.29 181.65 0 96.56 120.75 26.52 267.46 111.11 145.29 181.65"/><polygon class="cls-3" points="0 96.56 0.03 152.91 145.32 238 145.29 181.65 0 96.56"/><polygon class="cls-1" points="127.06 125.24 127.03 82.75 192.2 45.13 192.23 87.61 127.06 125.24"/><polygon class="cls-2" points="127.03 82.75 49.53 37.36 113.94 0 192.2 45.13 127.03 82.75"/><polygon class="cls-3" points="49.53 37.36 49.55 79.85 127.06 125.24 127.03 82.75 49.53 37.36"/><path class="cls-1" d="M28.16,140.17c0-.28,0-.56,0-.83,0-4.16,2.68-6.13,6.44-5.3-.44-.31-.89-.61-1.34-.87-5.38-3.1-9.73-1.32-9.73,4a7.69,7.69,0,0,0,0,.83v28.87L43,178v-.47L28.18,169Z"/><path class="cls-4" d="M43,148.37c0-4.85-3.66-11-8.4-14.33-3.76-.83-6.44,1.14-6.44,5.3,0,.27,0,.55,0,.83l0,29.31L43,178l0-28.86C43,148.9,43,148.64,43,148.37Z"/><g class="cls-5"><polygon class="cls-2" points="130.62 221.36 120.08 215.29 120.08 210.33 130.61 216.4 130.62 221.36"/><polygon class="cls-2" points="129.9 202.16 119.37 196.09 119.36 191.13 129.9 197.2 129.9 202.16"/><polygon class="cls-2" points="109.25 209.04 98.72 202.97 98.71 198.01 109.25 204.08 109.25 209.04"/><polygon class="cls-2" points="92.86 173.1 82.33 167.03 82.33 162.07 92.86 168.15 92.86 173.1"/><polygon class="cls-2" points="83.75 178.07 73.22 172 73.22 167.04 83.75 173.11 83.75 178.07"/><polygon class="cls-2" points="107.14 187.85 96.6 181.78 96.6 176.82 107.13 182.89 107.14 187.85"/><polygon class="cls-2" points="135.87 195.42 125.33 189.35 125.33 184.39 135.86 190.46 135.87 195.42"/><polygon class="cls-2" points="88.1 194.37 77.57 188.3 77.56 183.34 88.09 189.41 88.1 194.37"/><polygon class="cls-2" points="70.18 180.4 59.65 174.32 59.64 169.37 70.17 175.44 70.18 180.4"/></g><g class="cls-5"><polygon class="cls-2" points="73.8 180.58 63.27 174.5 63.27 169.55 73.8 175.62 73.8 180.58"/><polygon class="cls-2" points="73.08 161.38 62.55 155.31 62.55 150.34 73.08 156.42 73.08 161.38"/><polygon class="cls-2" points="61.31 165.59 50.78 159.52 50.77 154.56 61.3 160.63 61.31 165.59"/><polygon class="cls-2" points="36.05 132.32 25.52 126.25 25.52 121.29 36.05 127.36 36.05 132.32"/><polygon class="cls-2" points="22.49 119.54 11.96 113.47 11.96 108.51 22.49 114.58 22.49 119.54"/><polygon class="cls-2" points="55.64 143.51 45.11 137.44 45.11 132.48 55.64 138.55 55.64 143.51"/><polygon class="cls-2" points="79.05 154.63 68.52 148.56 68.52 143.6 79.05 149.68 79.05 154.63"/><polygon class="cls-2" points="14.43 156.26 3.9 150.18 3.89 145.22 14.43 151.3 14.43 156.26"/><polygon class="cls-2" points="13.37 139.61 2.83 133.54 2.83 128.58 13.36 134.65 13.37 139.61"/></g><polygon class="cls-2" points="270.07 209.14 284.83 200.6 277.45 196.34 262.68 204.88 270.07 209.14"/><polygon class="cls-3" points="262.68 204.88 262.69 213.41 270.08 217.67 270.07 209.14 262.68 204.88"/><polygon class="cls-1" points="270.08 217.67 284.84 209.13 284.83 200.6 270.07 209.14 270.08 217.67"/><polygon class="cls-2" points="262.68 196.25 277.44 187.71 270.06 183.45 255.29 191.99 262.68 196.25"/><polygon class="cls-3" points="255.29 191.99 255.3 200.51 262.68 204.77 262.68 196.25 255.29 191.99"/><polygon class="cls-1" points="262.68 204.77 277.45 196.24 277.44 187.71 262.68 196.25 262.68 204.77"/><polygon class="cls-2" points="262.68 196.25 277.44 187.71 270.06 183.45 255.29 191.99 262.68 196.25"/><polygon class="cls-3" points="255.29 191.99 255.3 200.51 262.68 204.77 262.68 196.25 255.29 191.99"/><polygon class="cls-1" points="262.68 204.77 277.45 196.24 277.44 187.71 262.68 196.25 262.68 204.77"/><polygon class="cls-2" points="255.29 183.35 270.05 174.82 262.67 170.56 247.9 179.09 255.29 183.35"/><polygon class="cls-3" points="247.9 179.09 247.91 187.62 255.29 191.88 255.29 183.35 247.9 179.09"/><polygon class="cls-1" points="255.29 191.88 270.06 183.34 270.05 174.82 255.29 183.35 255.29 191.88"/><polygon class="cls-2" points="255.29 183.35 270.05 174.82 262.67 170.56 247.9 179.09 255.29 183.35"/><polygon class="cls-3" points="247.9 179.09 247.91 187.62 255.29 191.88 255.29 183.35 247.9 179.09"/><polygon class="cls-1" points="255.29 191.88 270.06 183.34 270.05 174.82 255.29 183.35 255.29 191.88"/><polygon class="cls-2" points="247.9 170.46 262.66 161.92 255.27 157.66 240.51 166.2 247.9 170.46"/><polygon class="cls-3" points="240.51 166.2 240.51 174.73 247.9 178.99 247.9 170.46 240.51 166.2"/><polygon class="cls-1" points="247.9 178.99 262.66 170.45 262.66 161.92 247.9 170.46 247.9 178.99"/><polygon class="cls-2" points="247.9 170.46 262.66 161.92 255.27 157.66 240.51 166.2 247.9 170.46"/><polygon class="cls-3" points="240.51 166.2 240.51 174.73 247.9 178.99 247.9 170.46 240.51 166.2"/><polygon class="cls-1" points="247.9 178.99 262.66 170.45 262.66 161.92 247.9 170.46 247.9 178.99"/><polygon class="cls-2" points="240.5 157.56 255.27 149.03 247.88 144.77 233.12 153.31 240.5 157.56"/><polygon class="cls-3" points="233.12 153.31 233.12 161.83 240.51 166.09 240.5 157.56 233.12 153.31"/><polygon class="cls-1" points="240.51 166.09 255.27 157.56 255.27 149.03 240.5 157.56 240.51 166.09"/><polygon class="cls-2" points="240.5 157.56 255.27 149.03 247.88 144.77 233.12 153.31 240.5 157.56"/><polygon class="cls-3" points="233.12 153.31 233.12 161.83 240.51 166.09 240.5 157.56 233.12 153.31"/><polygon class="cls-1" points="240.51 166.09 255.27 157.56 255.27 149.03 240.5 157.56 240.51 166.09"/><polygon class="cls-2" points="233.11 144.67 247.88 136.13 240.49 131.88 225.72 140.41 233.11 144.67"/><polygon class="cls-3" points="225.72 140.41 225.73 148.94 233.12 153.2 233.11 144.67 225.72 140.41"/><polygon class="cls-1" points="233.12 153.2 247.88 144.66 247.88 136.13 233.11 144.67 233.12 153.2"/><polygon class="cls-3" points="225.72 140.41 225.75 192 270.08 217.67 225.72 140.41"/><path class="cls-1" d="M78.38,67.42c0-.28,0-.55,0-.82,0-4.16,2.68-6.14,6.44-5.3-.44-.32-.89-.61-1.34-.88-5.38-3.09-9.73-1.31-9.73,4a7.81,7.81,0,0,0,0,.83V94.1l19.4,11.18v-.47L78.4,96.29Z"/><path class="cls-4" d="M93.19,75.62c0-4.84-3.66-11-8.4-14.32-3.76-.84-6.44,1.14-6.44,5.3,0,.27,0,.54,0,.82l0,29.32,14.82,8.65,0-29C93.17,76.16,93.19,75.9,93.19,75.62Z"/><g class="cls-5"><polygon class="cls-2" points="155.43 223.43 165.96 217.34 165.95 212.38 155.43 218.47 155.43 223.43"/><polygon class="cls-2" points="156.13 204.23 166.65 198.14 166.65 193.18 156.12 199.27 156.13 204.23"/><polygon class="cls-2" points="185.14 169.81 195.66 163.72 195.66 158.76 185.13 164.85 185.14 169.81"/><polygon class="cls-2" points="206.67 162.33 217.2 156.25 217.19 151.29 206.67 157.38 206.67 162.33"/><polygon class="cls-2" points="150.15 197.49 160.68 191.41 160.67 186.45 150.15 192.53 150.15 197.49"/><polygon class="cls-2" points="203.24 197.27 213.77 191.18 213.76 186.22 203.24 192.31 203.24 197.27"/><polygon class="cls-2" points="215.82 182.39 226.35 176.31 226.34 171.35 215.82 177.43 215.82 182.39"/></g><g class="cls-5"><polygon class="cls-2" points="136.04 113.03 143.48 108.73 143.48 105.22 136.04 109.52 136.04 113.03"/><polygon class="cls-2" points="136.53 99.46 143.97 95.16 143.97 91.66 136.53 95.95 136.53 99.46"/><polygon class="cls-2" points="150.73 101.23 158.17 96.93 158.17 93.42 150.73 97.72 150.73 101.23"/><polygon class="cls-2" points="148.95 90.58 156.39 86.28 156.39 82.77 148.95 87.07 148.95 90.58"/><polygon class="cls-2" points="182.77 73.35 190.21 69.05 190.2 65.54 182.77 69.84 182.77 73.35"/><polygon class="cls-2" points="180.11 84 187.55 79.69 187.55 76.19 180.11 80.49 180.11 84"/><polygon class="cls-2" points="178.46 64.53 185.9 60.23 185.9 56.72 178.46 61.02 178.46 64.53"/><polygon class="cls-2" points="132.31 94.7 139.75 90.4 139.75 86.89 132.31 91.19 132.31 94.7"/></g><g class="cls-5"><polygon class="cls-2" points="115.53 113.93 108.08 109.64 108.08 106.13 115.52 110.42 115.53 113.93"/><polygon class="cls-2" points="115.02 100.36 107.58 96.07 107.57 92.56 115.02 96.86 115.02 100.36"/><polygon class="cls-2" points="100.82 102.14 93.38 97.85 93.38 94.35 100.82 98.64 100.82 102.14"/><polygon class="cls-2" points="102.59 91.49 95.15 87.2 95.14 83.7 102.59 87.99 102.59 91.49"/><polygon class="cls-2" points="59.88 68.09 52.43 63.8 52.43 60.3 59.88 64.59 59.88 68.09"/><polygon class="cls-2" points="62.55 78.74 55.1 74.45 55.1 70.94 62.54 75.23 62.55 78.74"/><polygon class="cls-2" points="64.17 59.27 56.73 54.98 56.73 51.47 64.17 55.76 64.17 59.27"/><polygon class="cls-2" points="119.23 95.59 111.79 91.3 111.79 87.8 119.23 92.09 119.23 95.59"/></g></g></g></svg>