<svg xmlns="http://www.w3.org/2000/svg" viewBox="0 0 72.45 41.82"><defs><style>.cls-1{isolation:isolate;}.cls-2{fill:#fde9b7;}.cls-3{fill:#a17e85;opacity:0.7;mix-blend-mode:multiply;}.cls-4{fill:#ab7844;}.cls-5{fill:#684b2e;}.cls-6{fill:#96622c;}.cls-7{fill:#e4a268;}.cls-8{fill:#ffbf75;}.cls-9{fill:#964222;}</style></defs><title>bålplass_01</title><g class="cls-1"><g id="Layer_2" data-name="Layer 2"><g id="Layer_1-2" data-name="Layer 1"><path class="cls-2" d="M44.86,12.64c2.28,2.33,8.87,2.56,10,4.47,2.92,4.74-4,6.48-8.69,9.2-5,2.87-10.7,5.73-17,4.81-3.27-.47-7.31-3.94-9.86-5.41-5.54-3.2-1.08-5.87,1.55-9.84.94-1.42.31-5,2.29-6.19C30.67,5.33,40.35,8.06,44.86,12.64Z"/><polygon class="cls-3" points="33.2 41.82 43.05 41.67 46.41 40.5 57.1 39.24 60.02 36.05 58.24 34.66 65.65 34.21 66.61 31.79 70.73 28.59 67.08 27.74 66.28 26.33 72.45 26.58 71.9 21.32 69.59 19.72 70.5 18.5 70.75 16.52 67.57 11.68 62.23 9.12 59.84 9.58 58.69 5.28 56.05 4.81 51.2 1.65 43.95 1.5 41.29 2.69 39.43 5.34 56.35 10.27 65.65 18.49 56.71 33.47 55.3 32.99 43.05 37.8 35.03 39.63 33.2 41.82"/><polygon class="cls-3" points="15.68 9.31 21.91 9.31 25.45 7.4 28.31 6.72 28.68 3.74 26.89 2.73 26.13 2.92 15.68 9.31"/><polygon class="cls-3" points="8.74 15.1 11.33 14.61 15.29 9.9 13.74 8.21 11.87 8.66 8.74 15.1"/><polygon class="cls-3" points="7.14 20.17 11.46 22.64 11.87 27.29 16.75 29.63 17.55 32.62 25.16 35.88 28.61 35.37 28.95 38.58 28.76 41.1 16.6 38.58 9.12 34.88 3.84 30.29 2.61 25.31 7.14 20.17"/><polygon class="cls-4" points="29.06 37.14 31.82 34.55 39.56 34.55 40.34 35.84 41.91 37.14 32.96 37.68 29.06 37.14"/><polygon class="cls-5" points="28.76 41.1 29.06 37.14 32.96 37.68 41.91 37.14 42.21 41.1 33.2 41.82 28.76 41.1"/><path class="cls-5" d="M63.7,16.63c-.06-.09-.69-1.35-.69-1.35l3.3-1,.78,2-.26,1.84-3.82.2Z"/><polygon class="cls-6" points="57.1 10.6 56.35 12.46 57.1 14.47 63.01 18.31 63.7 16.63 63.01 15.28 59.83 11.17 57.1 10.6"/><polygon class="cls-4" points="62.02 8.86 66.31 14.23 63.01 15.28 59.83 11.17 57.1 10.6 58.6 9.01 62.02 8.86"/><polygon class="cls-6" points="67.3 26.33 67.3 23.3 65.29 21.11 62.65 20.62 61.18 26.33 67.3 26.33"/><polygon class="cls-4" points="66.07 17.14 64.63 17.65 62.65 20.62 65.29 21.11 67.3 23.3 67.84 19.39 66.07 17.14"/><polygon class="cls-5" points="67.3 26.33 68.2 22 67.84 19.39 67.3 23.3 67.3 26.33"/><polygon class="cls-4" points="56.71 30.17 60.43 25.43 63.85 23.99 65.65 24.35 63.13 27.08 62.65 30.17 56.71 30.17"/><polygon class="cls-5" points="66.07 28.49 65.65 24.35 63.13 27.08 62.65 30.17 62.84 33.86 64.63 29.51 66.07 28.49"/><polygon class="cls-6" points="56.71 33.47 56.71 30.17 62.65 30.17 62.84 33.86 56.71 33.47"/><polygon class="cls-6" points="42.63 3.69 45.39 2.97 51.78 6.63 55.87 6.84 55.63 8.62 56.35 10.27 51.39 10.27 45.72 7.21 42.63 6.75 42.63 3.69"/><polygon class="cls-5" points="57.1 5.1 56.65 6.62 55.87 6.84 55.63 8.62 56.35 10.27 57.61 8.62 57.28 7.24 57.1 5.1"/><polygon class="cls-4" points="42.63 3.69 43.95 1.5 47.01 1.5 51.99 3.69 57.1 5.1 56.65 6.62 55.87 6.84 51.78 6.63 45.39 2.97 42.63 3.69"/><polygon class="cls-6" points="29.12 1.5 32.36 0.66 35.75 1.65 40.98 1.5 41.58 3.78 41.22 5.25 34.43 5.58 28.76 5.1 29.12 1.5"/><polygon class="cls-4" points="40.16 0.66 33.29 0 29.45 1.02 29.12 1.5 32.36 0.66 35.75 1.65 40.98 1.5 40.16 0.66"/><polygon class="cls-6" points="25.94 1.25 23.56 1.79 21.57 3.44 15.47 5.58 15.79 7.4 14.93 8.82 15.68 9.31 23.31 7.36 26.32 4.77 25.94 1.25"/><polygon class="cls-5" points="12.95 3.23 14.41 4.02 15.47 5.58 15.79 7.4 14.93 8.82 14.37 8.35 12.95 7.51 12.95 3.23"/><polygon class="cls-4" points="24.14 0.66 19.91 1.25 16.53 2.69 12.95 3.23 14.41 4.02 15.47 5.58 21.57 3.44 23.56 1.79 25.94 1.25 24.14 0.66"/><polygon class="cls-5" points="2.01 11.36 4.04 11.48 6.44 12.89 8.9 13.25 8.74 15.1 1.69 15.28 2.01 11.36"/><polygon class="cls-4" points="8.38 4.81 4.49 7.24 2.01 11.36 4.04 11.48 6.44 12.89 8.9 13.25 11.87 8.05 9.93 6.46 9.03 5.15 8.38 4.81"/><polygon class="cls-6" points="11.87 9.9 11.87 8.05 8.9 13.25 8.74 15.1 10.31 12.04 11.87 9.9"/><polygon class="cls-4" points="2.32 16.83 3.76 16.93 4.47 15.28 6.3 16.21 5.3 21.89 3.09 22.76 0.15 21.72 2.32 16.83"/><polygon class="cls-5" points="0 23.96 0.15 21.72 3.09 22.76 5.3 21.89 5.84 23.85 7.53 26.98 0 27.07 0 23.96"/><polygon class="cls-6" points="7.14 20.17 7.53 26.98 5.84 23.85 5.3 21.89 6.3 16.21 7.14 20.17"/><polygon class="cls-5" points="4.23 25.67 3.45 28.22 3.84 30.29 9.12 34.88 9.75 30.89 4.23 25.67"/><polygon class="cls-4" points="13.54 28.85 9.75 30.89 4.23 25.67 10.14 25.67 13.54 28.85"/><polygon class="cls-6" points="13.33 34.13 13.81 30.89 13.54 28.85 9.75 30.89 9.12 34.88 13.33 34.13"/><path class="cls-5" d="M24,39.48V36.15L21,36.42,16.9,34.19s-4.08-1.38-4.38-1.38-3.07.66-3.07.66l.24,2.59,4.93,2.28Z"/><polygon class="cls-4" points="12.4 31.25 18.28 32.81 25.43 34.13 24.04 36.15 20.98 36.41 16.9 34.19 12.52 32.81 9.45 33.47 12.4 31.25"/><polygon class="cls-6" points="25.54 38.07 25.43 34.13 24.04 36.15 24.04 39.48 25.54 38.07"/><polygon class="cls-7" points="24.26 21.69 21.45 20.16 21.46 15.99 24.27 17.52 24.26 21.69"/><polygon class="cls-8" points="24.27 17.52 21.46 15.99 43.14 12.95 45.96 14.48 24.27 17.52"/><polygon class="cls-9" points="45.96 14.48 45.95 18.64 24.26 21.69 24.27 17.52 45.96 14.48"/><polygon class="cls-7" points="47 26.13 25.23 13.48 25.22 9.6 46.99 22.25 47 26.13"/><polygon class="cls-8" points="46.99 22.25 25.22 9.6 28.73 7.57 50.5 20.23 46.99 22.25"/><polygon class="cls-9" points="50.5 20.23 50.51 24.1 47 26.13 46.99 22.25 50.5 20.23"/><polygon class="cls-9" points="26.68 27.73 45.2 10.69 44.38 6.9 25.85 23.95 26.68 27.73"/><polygon class="cls-8" points="25.85 23.95 44.38 6.9 40.51 5.68 21.98 22.73 25.85 23.95"/><polygon class="cls-7" points="21.98 22.73 22.81 26.51 26.68 27.73 25.85 23.95 21.98 22.73"/><polygon class="cls-3" points="22.81 26.51 27.64 28.45 36.4 23.77 47 26.13 37.57 20.65 36.42 19.98 34.86 20.2 26.68 27.73 22.81 26.51"/><polygon class="cls-3" points="50.51 24.1 50.5 20.23 45.95 17.58 45.96 14.48 43.52 13.15 46.22 12.95 48.85 14.48 48.92 16.86 52.08 19.98 52.07 23.18 50.51 24.1"/><polygon class="cls-5" points="46.41 40.5 45.45 38.58 45.93 36.05 52.11 34.43 56.02 31.79 57.1 36.15 53.19 38.34 46.41 40.5"/><polygon class="cls-4" points="48.33 32.57 43.77 33.77 45.93 36.05 52.11 34.43 56.02 31.79 51.93 31.25 48.33 32.57"/><polygon class="cls-6" points="43.05 37.8 43.77 33.77 45.93 36.05 45.45 38.58 46.41 40.5 43.05 37.8"/></g></g></g></svg>