<svg xmlns="http://www.w3.org/2000/svg" viewBox="0 0 121.37 163.82"><defs><style>.cls-1{fill:#420906;}.cls-2{fill:#210202;}.cls-3{fill:#c6885b;fill-rule:evenodd;}.cls-4{fill:#ffac2f;}.cls-5{fill:#e25928;}</style></defs><title>bål</title><g id="Layer_2" data-name="Layer 2"><g id="Layer_1-2" data-name="Layer 1"><rect class="cls-1" x="4.36" y="108.74" width="112.1" height="29.77" transform="translate(-51.08 43) rotate(-28.08)"/><path class="cls-1" d="M102.86,84.11c-4.61,2.45-5.21,10.33-1.34,17.58s10.74,11.14,15.35,8.68,5.2-10.33,1.35-17.58S107.47,81.65,102.86,84.11Z"/><polygon class="cls-2" points="3.9 110.44 102.88 163.09 116.85 136.81 17.88 84.16 3.9 110.44"/><path class="cls-2" d="M2.54,92.85C-1.32,100.11-.71,108,3.9,110.44s11.48-1.45,15.33-8.7,3.26-15.13-1.35-17.58S6.39,85.59,2.54,92.85Z"/><path class="cls-3" d="M12,160.7l.18.11-.1-.07S12,160.72,12,160.7Z"/><path class="cls-3" d="M12.17,149.18,1.88,143.25s.45,11.55,10.19,17.49C21.83,166,22.26,155,22.26,155L12,149.07Z"/><path class="cls-1" d="M20.79,159.75c-1.68,2.77-4.59,3.08-8.63.9l0,0a16.79,16.79,0,0,1-4.59-3.78A23.22,23.22,0,0,1,2,143.26L1.25,143a25.29,25.29,0,0,0,6,14.59,18.79,18.79,0,0,0,4.56,3.84l.41.23c5.38,2.9,8,1,9.24-1a11.8,11.8,0,0,0,1.4-5.23l-.74-.46A11.42,11.42,0,0,1,20.79,159.75Z"/><path class="cls-1" d="M9.27,157.32l-.1-.11L8.93,157a2.52,2.52,0,0,1-.26-.29l-.29-.33c-.2-.24-.42-.5-.63-.78l-.16-.21-.18-.23-.16-.23c0-.08-.11-.16-.16-.25s-.12-.16-.18-.24l-.16-.26c-.12-.17-.23-.35-.34-.53-.22-.36-.43-.74-.63-1.11l-.3-.58c-.09-.19-.19-.38-.28-.58-.18-.39-.35-.77-.5-1.15s-.29-.74-.42-1.09-.22-.68-.32-1-.18-.59-.26-.84-.12-.46-.16-.64a3,3,0,0,1-.1-.42l0-.14,0,.14c0,.09,0,.23,0,.41a5.7,5.7,0,0,0,.12.64c0,.25.12.53.19.85s.18.64.29,1,.25.74.39,1.12c.09.2.15.39.24.59s.09.21.13.31.08.19.13.29.19.4.29.6.19.4.31.61c.21.38.42.77.66,1.14,0,.1.11.19.16.28l.19.26c0,.09.12.18.18.27l.17.24.18.25.19.23c0,.08.11.15.16.22l.18.22.17.21c.07.06.12.13.18.18a3.81,3.81,0,0,0,.33.36l.3.31.28.27.25.22.1.1.11.09.4.32-.39-.39Z"/><path class="cls-1" d="M20.35,157c-.07.16-.14.33-.23.52s-.18.37-.29.56-.24.38-.37.57a2.88,2.88,0,0,1-.22.27l-.11.13a.86.86,0,0,1-.13.14l-.25.25-.12.11-.14.11a3.19,3.19,0,0,1-.57.39l-.13.08-.15.08c-.1.06-.21.09-.31.14a5,5,0,0,1-.57.21l-.15,0-.14,0-.27.06c-.17,0-.33.06-.48.07a2.9,2.9,0,0,1-.38,0l-.33,0,.35.06.41,0a4.21,4.21,0,0,0,.51,0l.29,0,.15,0,.15,0a3.83,3.83,0,0,0,.63-.15,5.68,5.68,0,0,0,.63-.27,4.6,4.6,0,0,0,.58-.4l.14-.11.13-.13a3.19,3.19,0,0,0,.26-.26,4.31,4.31,0,0,0,.44-.59,5.58,5.58,0,0,0,.35-.63,6.33,6.33,0,0,0,.25-.63,4.06,4.06,0,0,0,.17-.58c.05-.18.07-.35.1-.48a2.35,2.35,0,0,0,0-.33.45.45,0,0,0,0-.11,2.8,2.8,0,0,1-.12.39A2.43,2.43,0,0,1,20.35,157Z"/><path class="cls-1" d="M12.52,157.36l-.16-.13-.18-.14a4.91,4.91,0,0,0-.41-.33l-.44-.39c-.16-.12-.31-.28-.48-.42s-.31-.32-.47-.47l-.12-.12a.71.71,0,0,1-.12-.13L9.91,155c-.08-.08-.15-.17-.23-.26a2.52,2.52,0,0,0-.21-.25c-.14-.18-.28-.34-.39-.51l-.34-.48-.15-.23a.82.82,0,0,1-.12-.2l-.21-.34c0-.1-.08-.18-.11-.23a.3.3,0,0,1-.05-.08.46.46,0,0,0,0,.08,2,2,0,0,0,.07.25c0,.05,0,.11.08.17l.09.2.11.23.14.25.15.26c.05.1.11.18.16.27s.27.38.4.58l.22.28a3,3,0,0,0,.23.27,2.16,2.16,0,0,0,.25.27.76.76,0,0,0,.11.14l.13.13c.16.16.33.33.5.47a6.19,6.19,0,0,0,.5.42l.47.35.41.27.19.12.17.09.27.14a1.75,1.75,0,0,0,.24.11l-.23-.18A1.7,1.7,0,0,0,12.52,157.36Z"/><path class="cls-1" d="M8,154.12c-.09-.15-.19-.31-.29-.49l-.07-.14a1.19,1.19,0,0,1-.09-.15l-.08-.15L7.44,153c-.05-.11-.12-.22-.17-.33s0-.12-.07-.18,0-.12-.08-.17,0-.13-.07-.19A1.34,1.34,0,0,0,7,152a3.43,3.43,0,0,1-.13-.38,3,3,0,0,1-.13-.39,2.85,2.85,0,0,1-.11-.39c-.08-.26-.16-.52-.22-.78s-.11-.51-.16-.75-.09-.48-.13-.7S6,148.15,6,148s0-.37-.06-.53a3.77,3.77,0,0,1-.05-.41c0-.22,0-.35,0-.35s0,.11,0,.32,0,.52,0,.9c0,.19,0,.39,0,.62a6.57,6.57,0,0,0,.09.71c0,.25.09.51.14.77a8.22,8.22,0,0,0,.21.82c0,.14.08.27.13.41a3.84,3.84,0,0,0,.13.41c0,.13.1.27.16.4s0,.13.07.2a1.51,1.51,0,0,1,.09.18c.06.13.11.26.17.37l.19.34.19.32a1.19,1.19,0,0,0,.09.15.55.55,0,0,0,.09.14,2.71,2.71,0,0,0,.17.25,2.65,2.65,0,0,1,.17.22c.1.13.2.24.27.34l.25.26a3,3,0,0,0-.22-.31C8.21,154.39,8.14,154.26,8,154.12Z"/><path class="cls-1" d="M18.94,155c-.05.12-.13.25-.19.38s-.15.27-.24.41a3,3,0,0,1-.26.42c-.09.14-.19.27-.29.4l-.16.19a1.36,1.36,0,0,1-.17.17,3.28,3.28,0,0,1-.34.31l-.08.06a.31.31,0,0,1-.09.07l-.08.06-.08.05-.18.09-.16.07-.15.07-.15,0a1.48,1.48,0,0,1-.24.05l-.23,0,.25.06.28,0h.16l.18,0a.72.72,0,0,0,.19,0,.67.67,0,0,0,.18-.07l.1,0,.1-.05a1.18,1.18,0,0,0,.19-.11l.19-.13a1.57,1.57,0,0,0,.19-.15l.18-.18c.05-.06.11-.12.16-.19a4.67,4.67,0,0,0,.3-.43c.09-.14.17-.31.25-.46a3.9,3.9,0,0,0,.2-.47,4.59,4.59,0,0,0,.15-.44,5.74,5.74,0,0,0,.18-.72l0-.3-.1.24C19.15,154.57,19.06,154.78,18.94,155Z"/><path class="cls-1" d="M16.25,154.18a2.23,2.23,0,0,1-.27.14l-.18.07-.09,0-.09,0a1,1,0,0,1-.2.06l-.21,0a3.06,3.06,0,0,1-.45.06h-.37l-.12,0a5,5,0,0,1-.52-.07,4.74,4.74,0,0,1-.5-.15l-.49-.18-.44-.22-.38-.21-.29-.18-.25-.18s.09.1.24.24a8.34,8.34,0,0,0,.68.55l.45.28.52.26a4.88,4.88,0,0,0,.54.18,2.65,2.65,0,0,0,.55.1h.26a2.26,2.26,0,0,0,.26,0,2.36,2.36,0,0,0,.46-.1,1.61,1.61,0,0,0,.4-.17,2.08,2.08,0,0,0,.33-.21l.25-.23c.06-.07.12-.13.17-.2l.14-.19-.19.12Z"/><path class="cls-1" d="M11.68,155l-.18-.19-.1-.1s-.06-.07-.08-.11l-.43-.52-.21-.29c-.07-.1-.16-.2-.22-.3s-.15-.22-.22-.34-.15-.23-.22-.35-.15-.24-.21-.36l-.1-.18-.1-.19a6.72,6.72,0,0,1-.39-.75c-.13-.26-.25-.51-.35-.76s-.21-.49-.31-.71-.17-.45-.25-.65l-.34-1c-.07-.24-.12-.38-.12-.38s0,.14.07.38,0,.26.09.43.09.35.15.56.14.43.22.67a6.86,6.86,0,0,0,.27.75c.1.25.22.52.34.79s.25.53.4.79l.11.2.11.19.22.38c.08.12.17.24.24.36s.17.23.24.34.16.21.24.31l.24.29.24.26.22.22.2.2a1,1,0,0,1,.19.17l.32.23a3.28,3.28,0,0,0,.27.19l-.26-.25Z"/><path class="cls-1" d="M15.6,159.52l-.35,0-.21,0-.22,0-.24-.06a1.49,1.49,0,0,0-.25-.07c-.07,0-.16-.06-.25-.1l-.26-.1-.56-.24-.54-.27-.54-.29-.48-.3-.46-.29-.67-.44-.27-.18a3.22,3.22,0,0,0,.25.24l.29.27.38.32.45.35c.16.12.34.24.51.35s.36.24.54.34l.58.29a4.49,4.49,0,0,0,.56.24l.13,0,.14,0,.27.07.25,0,.24,0h.42a.58.58,0,0,0,.19,0l.15,0,.25-.06.2-.1h-.5Z"/><path class="cls-1" d="M13.42,151.85l-.25-.15-.15-.1-.15-.1-.34-.23-.35-.27-.35-.3c-.06-.06-.13-.11-.18-.17l-.08-.08-.09-.08-.18-.17a1.37,1.37,0,0,0-.16-.18c-.1-.11-.2-.24-.3-.34s-.09-.12-.14-.17l-.13-.16a1,1,0,0,0-.11-.15l-.11-.15a2.68,2.68,0,0,1-.17-.23.63.63,0,0,1-.1-.15.11.11,0,0,0,0,0,2.18,2.18,0,0,0,.11.23,1.62,1.62,0,0,0,.13.27,1.4,1.4,0,0,0,.09.17,1.62,1.62,0,0,0,.1.18c.08.12.17.25.25.39l.31.4c.06.06.11.13.17.2s.11.13.18.19a4.31,4.31,0,0,0,.37.37l.38.32.38.26.36.18a1.09,1.09,0,0,0,.3.13,1.22,1.22,0,0,0,.27.09l.2,0a.62.62,0,0,0,.16,0l-.18-.11Z"/><path class="cls-3" d="M12.06,138.07l.1,0L12,138A.35.35,0,0,1,12.06,138.07Z"/><path class="cls-3" d="M12.06,138.07c-9.75-5.3-10.18,5.74-10.18,5.74l10.29,5.93-.19-.11,10.29,5.93S21.82,144,12.06,138.07Z"/><path class="cls-1" d="M12.19,137.34l-.42-.25a10,10,0,0,0-4.56-1.41c-2.34-.05-5.28,1.26-6,7.72l.76.54c.5-4.86,2.34-7.29,5.5-7.23a10,10,0,0,1,4.63,1.55h0a20.5,20.5,0,0,1,8.63,10.84,22.71,22.71,0,0,1,1.32,6.37l.74.42A23.3,23.3,0,0,0,21.43,149,22.36,22.36,0,0,0,12.19,137.34Z"/><path class="cls-1" d="M9.24,138.16l-.11,0-.25-.05a1.81,1.81,0,0,0-.27-.06l-.3,0L8,138H7.45l-.16,0a1.25,1.25,0,0,0-.19,0l-.18,0-.17.05-.18.06-.19,0-.16.08a3.9,3.9,0,0,0-.66.38,1.53,1.53,0,0,0-.3.25,2.6,2.6,0,0,0-.29.28,1.85,1.85,0,0,0-.14.14l-.13.16c-.08.1-.15.21-.24.31s-.27.45-.38.68a6.46,6.46,0,0,0-.29.67c-.08.22-.14.43-.19.62a3.22,3.22,0,0,0-.12.5c0,.15,0,.27,0,.35l0,.12a.82.82,0,0,1,0-.11,1.48,1.48,0,0,1,.1-.3c0-.13.1-.28.16-.45s.15-.36.25-.55a6,6,0,0,1,.33-.6,6,6,0,0,1,.41-.62c.15-.19.33-.39.5-.57l.28-.26.3-.23a4.06,4.06,0,0,1,.63-.38l.34-.15.16-.06.18-.05.16,0,.16,0,.18,0,.16,0c.21,0,.43,0,.63,0h.29a1.06,1.06,0,0,1,.26,0h.4c.28.05.43.06.43.06l-.4-.13Z"/><path class="cls-1" d="M20.54,151.93c0-.16-.05-.36-.1-.58a7.24,7.24,0,0,0-.16-.78c-.08-.29-.15-.6-.25-.93s-.22-.67-.36-1-.27-.73-.43-1.1c-.09-.18-.17-.37-.27-.56l-.12-.27-.14-.28c-.19-.36-.39-.73-.59-1.07s-.42-.68-.63-1-.42-.6-.63-.87l-.15-.2-.15-.19c-.1-.12-.19-.25-.29-.35s-.35-.42-.52-.59-.28-.32-.4-.43l-.35-.35s.11.15.33.41a5.55,5.55,0,0,1,.37.47c.16.18.32.4.49.63s.18.24.27.36l.14.2.15.21c.19.27.37.57.57.87s.21.32.31.49l.15.24c0,.08.08.17.14.25.2.34.39.69.56,1.05l.14.26.13.27.25.53c.05.09.08.18.12.27l.12.27c.07.17.15.35.21.52.14.35.26.68.38,1s.2.63.29.91.16.53.22.77a3.29,3.29,0,0,1,.14.59,3.42,3.42,0,0,1,.11.51,1.09,1.09,0,0,0,0-.12A2.12,2.12,0,0,0,20.54,151.93Z"/><path class="cls-1" d="M12.51,141.82l-.17-.1-.19-.1-.41-.21-.47-.2a4.74,4.74,0,0,0-.5-.15,4.42,4.42,0,0,0-.5-.1l-.13,0H9.78a1.77,1.77,0,0,0-.23,0l-.21,0a2.34,2.34,0,0,0-.4.12l-.17.07-.15.09-.14.1-.11.1-.09.1-.07.08a1.15,1.15,0,0,0-.08.15l0,.06a.11.11,0,0,1,.05,0,.59.59,0,0,1,.11-.09.75.75,0,0,1,.2-.11.27.27,0,0,1,.12-.06l.16-.06a2.62,2.62,0,0,1,.33-.09c.12,0,.26,0,.39,0h.22a1.62,1.62,0,0,1,.22,0h.23l.12,0,.12,0a2.57,2.57,0,0,1,.47.08,3.74,3.74,0,0,1,.48.12l.44.12.42.15.17.06.16.06.28.11.23.08-.23-.16Z"/><path class="cls-1" d="M8,139.88l-.16,0a.55.55,0,0,0-.18.06.16.16,0,0,0-.09,0l-.09,0-.18.11a1.33,1.33,0,0,0-.19.14.9.9,0,0,0-.18.16.41.41,0,0,1-.09.1.86.86,0,0,0-.07.1,2.1,2.1,0,0,0-.15.22,1.88,1.88,0,0,0-.14.24c0,.09-.09.18-.13.27a5.71,5.71,0,0,0-.21.58c-.05.19-.1.41-.14.61s-.07.41-.08.61a5.54,5.54,0,0,0,0,.56c0,.36,0,.67,0,.89s0,.35,0,.35,0-.11,0-.31a3.06,3.06,0,0,1,.05-.36,4.16,4.16,0,0,1,.06-.44c0-.16.06-.34.1-.52s.09-.37.12-.55.11-.38.17-.57.14-.36.21-.54a2,2,0,0,1,.11-.26c0-.07.08-.16.13-.24L7,141a.53.53,0,0,0,.06-.1l.08-.1.07-.09.08-.09a1.1,1.1,0,0,1,.16-.15l.05-.05.1-.08.09-.06.07-.05L8,140l.24-.09.23,0-.26,0Z"/><path class="cls-1" d="M19.1,151.72c0-.19-.09-.4-.15-.62s-.13-.46-.2-.7-.17-.5-.26-.75-.2-.52-.3-.78-.11-.25-.16-.38-.11-.25-.18-.38-.11-.24-.18-.36l-.19-.35-.19-.33-.1-.17-.1-.15c-.07-.09-.13-.19-.19-.28l-.19-.26a1.92,1.92,0,0,0-.18-.22l-.16-.2-.28-.29-.25-.23.23.28c.06.09.15.2.24.34l.15.21.15.24a2.26,2.26,0,0,1,.16.26c.07.09.12.19.18.28A.6.6,0,0,0,17,147c0,.06.05.11.07.17a.6.6,0,0,1,.09.15c0,.06.06.12.09.17l.34.69c.06.12.11.25.16.37A4,4,0,0,0,18,149c.1.24.2.49.28.74s.19.49.27.72.16.47.24.69.14.42.19.61c.12.38.21.7.29.92s.1.35.1.35,0-.11,0-.33S19.19,152.11,19.1,151.72Z"/><path class="cls-1" d="M16.34,149.4c-.08-.15-.17-.32-.26-.51s-.2-.38-.32-.59-.25-.42-.4-.63l-.47-.64c-.09-.1-.16-.21-.25-.3l-.14-.15-.13-.15c-.18-.18-.36-.36-.55-.52a4.34,4.34,0,0,0-.54-.44c-.17-.13-.35-.24-.51-.34a5.07,5.07,0,0,0-.45-.24,3,3,0,0,0-.68-.23l-.24,0,.25.12.29.16.38.22c.13.09.28.18.44.3a3.87,3.87,0,0,1,.48.37c.17.13.34.28.51.43s.35.33.51.51l.13.13.12.15.24.28a6.15,6.15,0,0,1,.46.58c.07.09.13.2.21.29s.14.19.2.29l.09.14a.67.67,0,0,1,.09.14c.06.09.12.17.17.26l.28.47a4,4,0,0,1,.21.38c.11.21.19.33.19.33l-.14-.36C16.46,149.69,16.4,149.56,16.34,149.4Z"/><path class="cls-1" d="M11.64,143.21l-.19-.05-.2,0-.23,0h-.48l-.23,0-.24.06a1.7,1.7,0,0,0-.24.09,1.27,1.27,0,0,0-.23.12l-.11.06-.1.07a2.66,2.66,0,0,0-.4.34,2.57,2.57,0,0,0-.34.4,3.49,3.49,0,0,0-.28.43c-.07.14-.15.29-.21.42s-.1.27-.15.4-.06.22-.09.32-.07.29-.07.29a2.37,2.37,0,0,0,.12-.23c.08-.15.2-.36.34-.59l.25-.36.3-.37a3.85,3.85,0,0,1,.35-.35,2.42,2.42,0,0,1,.39-.31l.1-.07.1-.07.22-.11a1,1,0,0,1,.21-.1l.23-.08a1.66,1.66,0,0,0,.21-.06l.21,0,.43,0h.36l.29,0,.27.05-.28-.13Z"/><path class="cls-1" d="M15.64,143.26l-.15-.21-.19-.23-.2-.24-.22-.23-.24-.25c-.08-.08-.17-.15-.25-.24l-.27-.23-.14-.11a.4.4,0,0,0-.14-.11c-.17-.15-.37-.29-.55-.42l-.58-.36c-.18-.11-.36-.2-.54-.29l-.51-.24-.45-.17a2.54,2.54,0,0,0-.38-.11l-.29-.07a1.15,1.15,0,0,0-.25,0l.27.12.67.33.46.24.48.27.54.32c.18.12.37.24.54.37l.56.38.26.21a1.27,1.27,0,0,1,.25.21,1.73,1.73,0,0,1,.25.21,1.21,1.21,0,0,1,.24.21c.08.06.15.14.23.21s.14.13.2.2.25.25.35.37l.28.3.22.27a2.86,2.86,0,0,0-.2-.32A4.06,4.06,0,0,0,15.64,143.26Z"/><path class="cls-1" d="M13.44,148.38l-.27-.21a3.4,3.4,0,0,0-.3-.23l-.36-.22a3.34,3.34,0,0,0-.38-.17,2.84,2.84,0,0,0-.38-.13,2.5,2.5,0,0,0-.38-.06H11a1.57,1.57,0,0,0-.3.05l-.25.1-.07,0-.12.09a.85.85,0,0,0-.14.11.56.56,0,0,0-.1.13l0,0,.1,0,.17,0,.11,0h.11l.13,0h.13c.11,0,.21,0,.31,0h.16l.18,0,.08,0h0l.22.05a2.35,2.35,0,0,1,.35.11l.35.13.34.15.15.08.15.08a2.8,2.8,0,0,1,.25.14l.2.12.18.09-.16-.16A1.17,1.17,0,0,1,13.44,148.38Z"/><path class="cls-3" d="M110.47,161.52l.19-.11-.09,0A.7.7,0,0,1,110.47,161.52Z"/><path class="cls-3" d="M110.65,149.77l-10.28,5.95s.45,11,10.2,5.72c9.74-5.95,10.17-17.5,10.17-17.5l-10.28,5.95Z"/><path class="cls-1" d="M115.11,157.55a16.4,16.4,0,0,1-4.59,3.78l0,0c-4,2.18-6.94,1.88-8.62-.9a11.28,11.28,0,0,1-1.32-4.82l-.74.43a11.65,11.65,0,0,0,1.42,5.23c1.24,2.07,3.85,3.92,9.23,1a3.9,3.9,0,0,0,.41-.22,18.86,18.86,0,0,0,4.56-3.85,25.2,25.2,0,0,0,6-14.6l-.75.32A23.21,23.21,0,0,1,115.11,157.55Z"/><path class="cls-1" d="M119.09,147.34c0,.18-.1.39-.16.64s-.15.53-.26.84-.2.64-.32,1-.26.72-.41,1.09-.33.76-.51,1.15c-.08.2-.18.39-.27.58l-.3.58c-.2.38-.42.75-.63,1.11l-.34.53-.16.26-.18.25-.16.24-.16.23-.18.23-.16.21c-.22.29-.43.54-.63.78l-.29.33a2.52,2.52,0,0,1-.26.29l-.24.26a1.09,1.09,0,0,1-.1.11l-.1.1-.39.39s.15-.11.4-.33a.22.22,0,0,0,.1-.09l.11-.09.26-.23.27-.27.3-.3c.12-.12.22-.24.33-.36l.17-.19.17-.21.19-.21c0-.08.11-.15.17-.23l.18-.23.17-.25a1.44,1.44,0,0,0,.18-.25l.17-.25.19-.27c.05-.09.12-.18.17-.27.23-.37.45-.76.67-1.15l.3-.61.28-.6c0-.1.09-.2.14-.29s.07-.21.12-.31.15-.39.24-.59c.14-.39.28-.76.38-1.12s.21-.7.3-1,.14-.6.19-.85a5.7,5.7,0,0,0,.12-.64,2.93,2.93,0,0,0,0-.41.59.59,0,0,1,0-.14l0,.14C119.16,147,119.14,147.16,119.09,147.34Z"/><path class="cls-1" d="M106.93,161.49c-.15,0-.31,0-.49-.07a2,2,0,0,1-.26-.06l-.14,0-.15,0a5.12,5.12,0,0,1-.58-.21L105,161l-.15-.08-.14-.08a3.17,3.17,0,0,1-.56-.4l-.14-.1-.13-.12a3,3,0,0,1-.25-.25,1.67,1.67,0,0,1-.12-.13l-.12-.13a2.92,2.92,0,0,1-.21-.28,5,5,0,0,1-.38-.56c-.1-.2-.2-.38-.29-.57a5.23,5.23,0,0,1-.22-.51,2.57,2.57,0,0,1-.14-.42,3.13,3.13,0,0,1-.12-.4V157c0,.08,0,.19,0,.33s0,.29.1.48a4,4,0,0,0,.17.57,4.78,4.78,0,0,0,.26.64,4.86,4.86,0,0,0,.34.63c.14.2.29.4.45.59a3.19,3.19,0,0,0,.26.26l.12.12.14.12a5.46,5.46,0,0,0,.59.39,3.52,3.52,0,0,0,.63.27,3.42,3.42,0,0,0,.63.16l.15,0,.15,0,.29,0a4.25,4.25,0,0,0,.51,0,2.25,2.25,0,0,0,.4,0l.37-.06-.34,0C107.19,161.53,107.07,161.5,106.93,161.49Z"/><path class="cls-1" d="M114.37,153.41c-.05.1-.12.22-.2.35s-.07.13-.12.2-.09.15-.14.23-.23.31-.35.47-.25.34-.39.51l-.22.26-.22.26-.23.25a.68.68,0,0,1-.12.12l-.12.12c-.16.17-.31.33-.47.47s-.32.31-.48.43-.3.27-.44.38l-.41.33-.18.15-.16.13c-.12.07-.2.15-.28.2l-.22.19.23-.12.28-.13a.83.83,0,0,1,.16-.09l.19-.12.42-.27.46-.35c.16-.12.33-.27.5-.42a5.61,5.61,0,0,0,.5-.48l.13-.13a.69.69,0,0,0,.11-.13l.25-.27.23-.28a2.55,2.55,0,0,0,.21-.28c.14-.19.28-.38.4-.57s.12-.18.17-.27l.15-.26.14-.26a2.26,2.26,0,0,1,.11-.22.93.93,0,0,1,.09-.2l.07-.18c0-.1.06-.19.09-.24a.33.33,0,0,1,0-.08.34.34,0,0,0,0,.08Z"/><path class="cls-1" d="M116.74,147.72a3.5,3.5,0,0,1,0,.41c0,.16,0,.33-.06.53s-.06.4-.1.63-.08.46-.13.69-.1.51-.16.76-.14.52-.2.78l-.13.39a2.91,2.91,0,0,1-.12.39l-.14.38-.06.19s0,.12-.08.17a1.71,1.71,0,0,1-.07.18l-.08.18-.16.33-.07.16-.08.15a1,1,0,0,0-.07.15l-.09.14c-.1.19-.2.34-.29.49l-.25.37-.22.31.26-.26.27-.33c0-.07.1-.15.16-.22a2.4,2.4,0,0,0,.18-.26l.09-.14a1.7,1.7,0,0,0,.1-.14c.06-.1.11-.21.17-.32a3.9,3.9,0,0,0,.19-.35c.06-.11.11-.24.18-.36a1.13,1.13,0,0,1,.09-.2c0-.06.05-.12.07-.19l.15-.4.15-.41c0-.13.08-.27.13-.41s.13-.55.2-.82a7.28,7.28,0,0,0,.13-.77,6.57,6.57,0,0,0,.09-.71c0-.22,0-.43.05-.63,0-.37,0-.68,0-.89s0-.32,0-.32S116.77,147.5,116.74,147.72Z"/><path class="cls-1" d="M106.33,158.53l-.15,0-.15-.06a.67.67,0,0,1-.17-.08l-.17-.08-.09-.06-.08-.06-.09-.06-.08-.06a3.28,3.28,0,0,1-.34-.31,1.41,1.41,0,0,0-.17-.18l-.15-.19a2.46,2.46,0,0,1-.3-.4c-.09-.13-.17-.27-.26-.41s-.17-.28-.24-.42-.14-.26-.19-.38-.23-.46-.29-.6l-.1-.24a2.9,2.9,0,0,0,0,.3c0,.17.09.43.18.71a2,2,0,0,0,.15.45c.06.15.12.31.2.47a5.2,5.2,0,0,0,.25.46,3.19,3.19,0,0,0,.3.42c0,.07.12.13.17.2l.17.17.19.15.19.14c.06,0,.12.08.19.11l.1,0,.1,0a.6.6,0,0,0,.19.06l.19,0,.17,0h.16l.28,0,.25,0-.22,0Z"/><path class="cls-1" d="M110.69,154.49l-.37.21-.44.21-.49.19a3.43,3.43,0,0,1-.5.14,3.47,3.47,0,0,1-.52.08l-.12,0h-.37a3.06,3.06,0,0,1-.45-.06,1.08,1.08,0,0,1-.21-.05l-.21,0a.1.1,0,0,0-.06,0l-.11,0-.16-.07a2.49,2.49,0,0,1-.29-.15,1.06,1.06,0,0,1-.22-.13l-.19-.11.14.19c0,.06.12.12.18.2l.25.22a3.15,3.15,0,0,0,.33.22,2.09,2.09,0,0,0,.4.17,2.34,2.34,0,0,0,.46.09,1.09,1.09,0,0,0,.25,0h.28a2.69,2.69,0,0,0,.54-.1,3.86,3.86,0,0,0,.54-.19,4.48,4.48,0,0,0,1-.54,4.84,4.84,0,0,0,.67-.54l.24-.24-.25.18Z"/><path class="cls-1" d="M114.32,149.89l-.25.64-.3.72c-.1.24-.23.49-.35.74l-.38.76-.1.19-.11.19c-.07.12-.14.24-.22.36a3.24,3.24,0,0,1-.21.35l-.23.33c-.07.1-.13.21-.21.31l-.21.29c-.15.19-.29.36-.43.51a.48.48,0,0,1-.09.11l-.1.11-.17.19c-.11.11-.2.22-.29.3l-.26.25a3.28,3.28,0,0,0,.27-.19l.32-.24.18-.17a1.19,1.19,0,0,0,.2-.19,2.5,2.5,0,0,0,.23-.23c.08-.08.15-.17.24-.25a3.07,3.07,0,0,1,.24-.29l.24-.32c.07-.1.16-.22.23-.34l.24-.35c.08-.13.15-.26.23-.38l.11-.2.11-.2a7.24,7.24,0,0,0,.39-.79c.13-.27.24-.53.34-.79s.19-.51.28-.75.15-.46.21-.67.1-.39.15-.56.06-.31.09-.43a3.26,3.26,0,0,0,.06-.37l-.11.38Z"/><path class="cls-1" d="M111.4,158.39l-.44.29c-.16.1-.34.19-.5.3l-.54.29-.54.27-.56.24-.26.1-.25.09-.25.08-.24.06a.91.91,0,0,1-.21,0l-.22,0-.35,0h-.5l.2.08.25.07.15,0h.39l.23,0,.24,0,.25-.06.26-.07.14,0,.14-.05.56-.24.57-.29.54-.34A5.06,5.06,0,0,0,111,159c.16-.12.32-.24.45-.36a4.26,4.26,0,0,0,.38-.32l.29-.26.25-.24-.26.18Z"/><path class="cls-1" d="M112.45,149.53l-.16.23-.12.14-.11.15c0,.06-.09.11-.13.16s-.08.12-.13.17l-.31.35-.16.17c-.06.06-.11.12-.17.17l-.09.09-.09.08-.18.17-.35.3-.35.27-.32.23-.17.1a.71.71,0,0,0-.14.1l-.26.15-.2.11-.18.11.17,0,.2,0a2.38,2.38,0,0,0,.26-.08,1.59,1.59,0,0,0,.3-.14c.13-.05.24-.12.37-.18s.24-.17.37-.26l.38-.32.38-.37.17-.19.18-.21.3-.4c.09-.13.17-.26.25-.39a.75.75,0,0,0,.1-.17,1.4,1.4,0,0,0,.09-.17c.06-.1.1-.19.14-.27a2.52,2.52,0,0,0,.1-.24.14.14,0,0,0,0,.06S112.5,149.47,112.45,149.53Z"/><path class="cls-3" d="M110.56,138.78a.35.35,0,0,1,.09-.07l-.19.11Z"/><path class="cls-3" d="M110.56,138.78c-9.75,5.95-10.19,17.5-10.19,17.5l10.28-5.94-.18.11,10.27-5.94S120.3,133.47,110.56,138.78Z"/><path class="cls-1" d="M115.4,136.38a10.06,10.06,0,0,0-4.55,1.42l-.42.25a22.28,22.28,0,0,0-9.22,11.69,23.35,23.35,0,0,0-1.41,6.87l.74-.41a22.86,22.86,0,0,1,1.31-6.38A20.43,20.43,0,0,1,110.47,139l0,0a9.84,9.84,0,0,1,4.59-1.53c3.17-.07,5,2.36,5.52,7.21l.75-.54C120.7,137.63,117.75,136.33,115.4,136.38Z"/><path class="cls-1" d="M119.15,143a3.39,3.39,0,0,0-.13-.5c0-.19-.11-.4-.19-.62a3.94,3.94,0,0,0-.3-.67,6.42,6.42,0,0,0-.37-.68c-.09-.1-.15-.22-.24-.32l-.13-.15-.14-.14c-.08-.1-.19-.19-.27-.28a3.65,3.65,0,0,0-.31-.24,3.72,3.72,0,0,0-.67-.38c-.05,0-.12-.05-.17-.09l-.19-.05-.17-.06-.18,0-.17,0-.18,0-.17,0-.19,0h-.34l-.33,0-.3.05-.27.05-.26.06-.11,0-.1,0-.4.14.39-.05.1,0h.1l.24,0h.55a4.77,4.77,0,0,1,.63.06l.16,0,.18,0,.16,0,.16.05.18,0,.16.07.34.14a5.85,5.85,0,0,1,.63.38l.3.23.28.26c.17.18.34.38.5.57a7.23,7.23,0,0,1,.41.61c.13.21.23.41.33.6s.18.39.25.56.13.32.17.45.07.22.1.3l0,.11s0-.05,0-.12S119.17,143.12,119.15,143Z"/><path class="cls-1" d="M106.87,142.84c-.16.17-.33.37-.52.59s-.18.23-.28.35l-.15.19-.15.2c-.22.27-.42.57-.63.88s-.43.65-.63,1-.4.71-.59,1.08l-.14.27-.12.28a5.69,5.69,0,0,0-.26.56c-.16.37-.31.73-.44,1.1s-.24.7-.34,1-.19.64-.27.93-.12.54-.16.77-.07.43-.1.59,0,.29,0,.37v.13s0-.19.11-.51c0-.17.08-.37.14-.59s.14-.49.23-.78.19-.58.29-.9.23-.65.37-1c.06-.17.14-.35.22-.53l.11-.26a1.59,1.59,0,0,0,.12-.27c.08-.18.17-.36.25-.53l.13-.27.14-.27c.17-.36.36-.7.56-1l.14-.25.15-.25.3-.48c.2-.31.39-.61.58-.88l.15-.21.14-.19c.08-.13.17-.25.26-.37s.34-.45.49-.62a4.47,4.47,0,0,1,.38-.48l.33-.41-.36.35Z"/><path class="cls-1" d="M114.42,142.34l-.08-.09-.09-.1-.11-.1L114,142l-.15-.09-.16-.08c-.13,0-.27-.08-.41-.12l-.21,0a.55.55,0,0,0-.22,0h-.37l-.12,0a2.3,2.3,0,0,0-.51.1,2.88,2.88,0,0,0-.5.15l-.46.2-.42.21-.19.1-.16.1-.27.18a1.85,1.85,0,0,0-.24.16l.22-.09a1.61,1.61,0,0,0,.28-.1l.16-.06a.76.76,0,0,1,.18-.06l.41-.15.44-.13a4.15,4.15,0,0,1,.48-.11,2.54,2.54,0,0,1,.48-.09l.11,0h.79a3.74,3.74,0,0,1,.39.05l.35.09a.84.84,0,0,0,.14.06l.12.06.21.11.11.09a.11.11,0,0,0,0,0,.17.17,0,0,0,0-.06S114.45,142.4,114.42,142.34Z"/><path class="cls-1" d="M116.74,143.86a4.36,4.36,0,0,0-.09-.6,4.47,4.47,0,0,0-.14-.61c-.06-.2-.14-.39-.2-.58a2,2,0,0,1-.12-.26,2.13,2.13,0,0,0-.16-.25c0-.07-.1-.16-.15-.22a.86.86,0,0,0-.07-.1s-.06-.07-.09-.09a1,1,0,0,0-.18-.17,1,1,0,0,0-.18-.13l-.18-.11-.13-.05-.06,0-.17,0-.17,0h-.27l-.25,0,.21.06.25.08a1.71,1.71,0,0,1,.29.16l.09,0,.07.05.08.06.07.07.17.15a.35.35,0,0,0,.07.09l.08.1.07.09a1.05,1.05,0,0,1,.07.11,2.14,2.14,0,0,1,.13.22,1.36,1.36,0,0,1,.13.24l.13.25c.06.18.13.36.2.54s.11.38.16.57.09.37.12.55.07.36.11.52.05.31.06.45,0,.25,0,.35,0,.31,0,.31,0-.13,0-.35,0-.53,0-.88C116.78,144.25,116.76,144.06,116.74,143.86Z"/><path class="cls-1" d="M106.26,146.51l-.17.19c-.06.07-.11.15-.17.23l-.19.25-.19.29-.1.15s-.06.1-.1.16-.12.22-.19.33-.12.24-.19.36-.12.23-.18.36-.12.25-.18.38-.11.25-.16.38a6.11,6.11,0,0,0-.3.77c-.09.26-.18.51-.25.75s-.14.48-.2.7a4.37,4.37,0,0,0-.15.63c-.09.38-.14.7-.18.92s0,.34,0,.34,0-.12.1-.35.16-.55.29-.92c0-.2.12-.4.19-.62s.16-.44.23-.68l.27-.72c.09-.26.19-.5.3-.75l.15-.37c.06-.12.11-.24.16-.36l.34-.7s0-.1.09-.16a.51.51,0,0,1,.09-.16s0-.1.07-.16a1.19,1.19,0,0,0,.09-.15,1.92,1.92,0,0,1,.18-.28,1.75,1.75,0,0,1,.16-.27,2.52,2.52,0,0,1,.15-.24l.15-.21c.09-.13.18-.24.24-.34l.22-.28-.25.23Z"/><path class="cls-1" d="M110.31,145.6a5.07,5.07,0,0,0-.45.24c-.16.1-.34.21-.51.34a4.34,4.34,0,0,0-.54.44,5.39,5.39,0,0,0-.54.53l-.14.14-.14.14c-.09.11-.16.21-.25.31s-.32.42-.47.64-.27.42-.4.63-.22.41-.32.59-.18.36-.25.52l-.18.4-.14.35s.08-.12.19-.33.13-.23.21-.37.18-.31.29-.48a2.85,2.85,0,0,1,.17-.26,1,1,0,0,1,.08-.14,1.1,1.1,0,0,0,.09-.14c.06-.1.13-.19.2-.29l.21-.29c.14-.19.29-.39.46-.58s.16-.19.24-.29l.12-.13.13-.14a6,6,0,0,1,.51-.5,4.93,4.93,0,0,1,.5-.44c.17-.14.33-.27.49-.38s.3-.2.44-.29l.38-.23.29-.15.25-.12a1,1,0,0,0-.24,0A4.07,4.07,0,0,0,110.31,145.6Z"/><path class="cls-1" d="M114.62,146.21q-.08-.18-.15-.39c-.07-.14-.14-.29-.22-.43A3.39,3.39,0,0,0,114,145c-.1-.13-.22-.27-.34-.4a4.13,4.13,0,0,0-.39-.34l-.11-.07-.12-.06a2.39,2.39,0,0,0-.22-.12l-.24-.08-.24-.06-.24,0h-.48l-.22,0-.2.05-.19,0-.32.12-.27.13.26,0,.29,0h.37l.42,0,.22,0a1.05,1.05,0,0,0,.21.06l.23.08.21.09.21.12.12.06.1.07c.12.1.25.2.37.32a2.32,2.32,0,0,1,.35.35l.3.36.26.37c.13.22.26.43.34.58s.11.24.11.24a1.8,1.8,0,0,0-.06-.3C114.68,146.44,114.66,146.33,114.62,146.21Z"/><path class="cls-1" d="M111.79,140.52l-.38.12a3.83,3.83,0,0,0-.45.18,3.69,3.69,0,0,0-.51.23c-.18.09-.36.18-.54.29s-.38.24-.57.36a4.81,4.81,0,0,0-.56.42l-.14.11-.14.11-.26.23c-.09.09-.18.16-.25.24l-.24.25c-.09.08-.15.16-.23.24a2.31,2.31,0,0,0-.2.24l-.19.22L107,144a4.06,4.06,0,0,0-.25.35l-.2.32.23-.27.27-.31.35-.36a2.09,2.09,0,0,1,.22-.2,2.18,2.18,0,0,1,.21-.22l.24-.2.24-.22.26-.2.26-.2c.18-.14.37-.27.56-.4l.54-.36.54-.32.5-.27.44-.24.68-.34.26-.12-.25,0Z"/><path class="cls-1" d="M112.35,148.32l-.09-.06-.1-.06-.25-.09a1.57,1.57,0,0,0-.3-.05h-.36a2.41,2.41,0,0,0-.37.07,2.84,2.84,0,0,0-.38.13,3.34,3.34,0,0,0-.38.17l-.36.22a3.4,3.4,0,0,0-.3.23,2,2,0,0,0-.26.21l-.2.19-.17.16.18-.09.2-.12a2,2,0,0,1,.26-.14l.14-.08a.8.8,0,0,1,.16-.08l.33-.15.35-.14c.11,0,.24-.08.35-.1l.18,0,.09,0h.08l.18,0,.16,0h.57l.11,0h.11l.17.05.11,0h0a.71.71,0,0,0-.1-.12A.87.87,0,0,0,112.35,148.32Z"/><path class="cls-4" d="M100.28,0C43.34,15.31,48.47,56.55,48.47,56.55,46.94,38.88,33.21,36.1,33.21,36.1c8.14,14.73-3,23.39-3,23.39S8.83,71.19,10.9,100.11s30.93,30.5,30.93,30.5,32.62,8.66,51.49-7,6-44.83-7.74-77.38S100.28,0,100.28,0Z"/><path class="cls-4" d="M64,142.39c-3.63-3.95,19.76-13.13,19.76-13.13l-50.92-.6Z"/><path class="cls-5" d="M70.32,89.32a63.08,63.08,0,0,1,.29,7.35,12.74,12.74,0,0,1-.29-7.35c-.78-8.21-3.58-21-13.57-26.13,0,0-4.14-2.4-13.61-5.11,0,0,15.26,7,9.17,23.69,0,0-9,13.11-22.11,21.31s-3.19,23-3.19,23l37,16.26s-.29-4.3,11-9.29c0,0,20.07-8.33,18.32-26.24S78.24,85.47,77.84,71.57C77.84,71.57,71.89,81.17,70.32,89.32Z"/><path class="cls-5" d="M70.61,96.67a63.08,63.08,0,0,0-.29-7.35A12.74,12.74,0,0,0,70.61,96.67Z"/><path class="cls-5" d="M48.3,77.9c-6.67,13.93-20.92,19.22-24.45,33.26S53.64,91.05,53.64,91.05l2.27-24.54-11-7.25C48,61.6,53.28,67.51,48.3,77.9Z"/><path class="cls-5" d="M44.92,59.26a12.12,12.12,0,0,0-1.78-1.18Z"/></g></g></svg>