<svg xmlns="http://www.w3.org/2000/svg" viewBox="0 0 24.18 20.23"><defs><style>.cls-1{isolation:isolate;}.cls-2{fill:#e5a667;}.cls-3{fill:#b5774a;}.cls-4{fill:#c0864f;}.cls-5{fill:#999179;mix-blend-mode:multiply;}.cls-6{fill:#e84a5f;}.cls-7{fill:#cf4255;}.cls-8{fill:#da4559;}.cls-9{fill:#c13d4f;}</style></defs><title>eplekasse_01</title><g class="cls-1"><g id="Layer_2" data-name="Layer 2"><g id="Layer_1-2" data-name="Layer 1"><polygon class="cls-2" points="5.98 9.49 7.47 8.63 8.01 8.94 14.13 12.47 12.63 13.33 5.98 9.49"/><polygon class="cls-3" points="7.47 8.63 5.98 9.49 4.08 8.39 11.55 4.08 11.55 6.9 11.41 6.98 10.87 6.67 8.42 8.08 8.42 8.71 8.01 8.94 7.47 8.63"/><polygon class="cls-2" points="8.42 8.08 10.87 6.67 11.41 6.98 17.52 10.51 15.08 11.92 8.42 8.08"/><polygon class="cls-4" points="8.42 8.71 8.42 8.08 15.08 11.92 14.53 12.23 8.42 8.71"/><polygon class="cls-4" points="11.55 6.9 11.55 4.08 20.1 9.02 17.66 10.43 11.55 6.9"/><polygon class="cls-2" points="20.1 9.02 11.55 4.08 12.09 3.76 20.65 8.71 20.1 9.02"/><polygon class="cls-2" points="12.09 3.76 11.55 4.08 4.08 8.39 3.53 8.08 11.55 3.45 12.09 3.76"/><polygon class="cls-4" points="20.65 8.71 12.09 3.76 11.55 3.45 11.55 0.63 23.09 7.29 20.65 8.71"/><polygon class="cls-3" points="11.55 0.63 11.55 3.45 3.53 8.08 1.09 6.67 11.55 0.63"/><polygon class="cls-2" points="23.09 7.29 11.55 0.63 12.09 0.31 23.63 6.98 23.09 7.29"/><polygon class="cls-2" points="12.09 0.31 11.55 0.63 1.09 6.67 0.54 6.98 0 6.67 11.55 0 12.09 0.31"/><polygon class="cls-2" points="0.54 6.98 1.09 6.67 3.53 8.08 4.08 8.39 5.98 9.49 12.63 13.33 12.09 13.64 0.54 6.98"/><polygon class="cls-4" points="0.54 6.98 12.09 13.64 12.09 16.47 1.09 10.12 0.54 9.8 0.54 6.98"/><polygon class="cls-4" points="0.54 6.98 0.54 9.8 0 9.49 0 6.67 0.54 6.98"/><polygon class="cls-2" points="12.09 13.64 12.63 13.33 14.13 12.47 14.53 12.23 15.08 11.92 17.52 10.51 17.66 10.43 20.1 9.02 20.65 8.71 23.09 7.29 23.63 6.98 24.18 7.29 12.63 13.96 12.09 13.64"/><polygon class="cls-4" points="12.09 16.47 12.09 13.64 12.63 13.96 12.63 16.78 12.09 16.47"/><polygon class="cls-4" points="12.09 19.92 0.54 13.25 0.54 10.43 12.09 17.1 12.09 19.92"/><polygon class="cls-4" points="0.54 10.43 0.54 13.25 0 12.94 0 10.12 0.54 10.43"/><polygon class="cls-2" points="12.09 17.1 0.54 10.43 1.09 10.12 12.09 16.47 12.63 16.78 12.09 17.1"/><polygon class="cls-2" points="1.09 10.12 0.54 10.43 0 10.12 0.54 9.8 1.09 10.12"/><polygon class="cls-2" points="12.09 17.1 12.63 16.78 23.63 10.43 24.18 10.74 12.63 17.41 12.09 17.1"/><polygon class="cls-4" points="12.09 19.92 12.09 17.1 12.63 17.41 12.63 20.23 12.09 19.92"/><polygon class="cls-3" points="12.63 20.23 12.63 17.41 24.18 10.74 24.18 13.57 12.63 20.23"/><polygon class="cls-3" points="12.63 16.78 12.63 13.96 24.18 7.29 24.18 10.12 23.63 10.43 12.63 16.78"/><polygon class="cls-5" points="11.55 0.63 16.84 10.12 11.75 12.82 5.98 9.49 1.09 6.67 11.55 0.63"/><circle class="cls-6" cx="3.29" cy="6.03" r="1.65"/><circle class="cls-7" cx="5.73" cy="7.48" r="1.65"/><circle class="cls-6" cx="10.6" cy="5.83" r="1.65"/><circle class="cls-7" cx="12.09" cy="8.34" r="1.65"/><path class="cls-8" d="M10.69,8A1.65,1.65,0,1,1,9,6.38,1.66,1.66,0,0,1,10.69,8Z"/><path class="cls-6" d="M13,2.59A1.66,1.66,0,1,1,11.32.93,1.65,1.65,0,0,1,13,2.59Z"/><circle class="cls-9" cx="13.52" cy="6.03" r="1.65"/><circle class="cls-7" cx="17.06" cy="6.03" r="1.65"/><circle class="cls-6" cx="7.39" cy="3.95" r="1.65"/><circle class="cls-6" cx="10.6" cy="10.31" r="1.65"/><circle class="cls-6" cx="13.5" cy="11.17" r="1.65"/><circle class="cls-6" cx="14.67" cy="8.34" r="1.65"/><circle class="cls-6" cx="18.14" cy="7.72" r="1.65"/><circle class="cls-6" cx="21.19" cy="6.89" r="1.65"/><circle class="cls-6" cx="14.67" cy="3.44" r="1.65"/></g></g></g></svg>