<svg xmlns="http://www.w3.org/2000/svg" viewBox="0 0 70.02 84.3"><defs><style>.cls-1{fill:#e25928;}</style></defs><title>flamme_innerst</title><g id="Layer_2" data-name="Layer 2"><g id="Layer_1-2" data-name="Layer 1"><path class="cls-1" d="M69.91,48.77C68.17,30.85,54.83,27.38,54.43,13.49c0,0-5.94,9.6-7.52,17.75a63.08,63.08,0,0,1,.29,7.35,12.83,12.83,0,0,1-.29-7.35c-.77-8.22-3.58-21-13.56-26.14,0,0-4.15-2.39-13.62-5.1a20,20,0,0,1,4,2.62L21.52,1.18c3,2.34,8.35,8.25,3.37,18.64C18.29,33.61,4.25,38.94.55,52.68-1.69,60.14,3.6,68.05,3.6,68.05l37,16.25S40.27,80,51.58,75C51.58,75,71.65,66.69,69.91,48.77Z"/></g></g></svg>