<svg xmlns="http://www.w3.org/2000/svg" viewBox="0 0 36.4 80.33"><defs><style>.cls-1{fill:#4b920e;}</style></defs><title>gress_01</title><g id="Layer_2" data-name="Layer 2"><g id="Layer_1-2" data-name="Layer 1"><path class="cls-1" d="M31.88,51.56a13.79,13.79,0,0,0-4.5,1.93L22.87,56.1a11,11,0,0,0-2.77,2,8,8,0,0,0-1.46,2.78l.57-6.19a36.71,36.71,0,0,1,1.42-8.28c.85-2.5,2.23-4.81,2.83-7.38,1.14-4.87-.68-10.09.62-14.92,1.05-3.9,4-7,6.28-10.29A38.08,38.08,0,0,0,36.4,0c-5.48,6.05-9.14,13.47-12.74,20.78a30.33,30.33,0,0,0-2.82,7.28,23.82,23.82,0,0,0-.38,4c0-.29-.09-.58-.15-.88A13.46,13.46,0,0,0,14,22a21.49,21.49,0,0,0-7.18-1.94c4.19.7,7.28,4.47,8.55,8.48s1.12,8.3,1.25,12.51a92.1,92.1,0,0,0,.83,9.66,68,68,0,0,0-1.26,11.57,9.65,9.65,0,0,0-1-1.77c-.44-.61-.87-1.24-1.25-1.88a9.61,9.61,0,0,0-1-1.52,8.29,8.29,0,0,0-3.47-2.38,10.08,10.08,0,0,0-2.84-.44,8.88,8.88,0,0,0-4,.68,4.54,4.54,0,0,0-2.58,3,8,8,0,0,1,7.45-1.85,11.32,11.32,0,0,1,6.33,4.62,17.83,17.83,0,0,1,2.46,5.48c.23,4.55,1.19,9,1.33,13.53a.61.61,0,0,0,.11.4.55.55,0,0,0,.3.16,2.06,2.06,0,0,0,1.34-.12.36.36,0,0,0,.17-.15c0-.08,0-.18,0-.27a13.52,13.52,0,0,1-1.66-5.67,42.78,42.78,0,0,1,.24-6.5c.07-.73.14-1.46.2-2.19l2.26-3.23a8.31,8.31,0,0,1,1.6-1.89c1.24-1,2.91-1.17,4.27-2a9.6,9.6,0,0,0,3.29-3.84,3.51,3.51,0,0,1,1.27-1.52,3.36,3.36,0,0,1,1.81-.19l3.62.27A4.66,4.66,0,0,0,31.88,51.56Z"/></g></g></svg>