<svg xmlns="http://www.w3.org/2000/svg" viewBox="0 0 68.3 75.14"><defs><style>.cls-1{fill:#35920e;}</style></defs><title>gress_02</title><g id="Layer_2" data-name="Layer 2"><g id="Layer_1-2" data-name="Layer 1"><path class="cls-1" d="M24.9,24.65c6.32,7,10.23,15.75,13.87,24.43A31.66,31.66,0,0,1,41.06,56c0-1.3,0-2.61,0-3.91V50.86c0-6.76-.7-13.59-.7-20.41a47.93,47.93,0,0,1,1.26-11.89C43.33,11.8,47.26,5.83,51.14,0c-1,1.51-1.21,4.49-1.67,6.24-.59,2.2-1.14,4.4-1.68,6.62-1,4.3-2,8.62-2.65,13-1,5.95-1,11.79-1.77,17.71-.27,2.11-.48,4.22-.66,6.33.67-1.14,1.2-2.35,1.76-3.55a27.09,27.09,0,0,1,4.2-6.65,12.5,12.5,0,0,1,6.66-4,8.69,8.69,0,0,1,5.59.78,5.15,5.15,0,0,0-2.67-.2A11,11,0,0,0,54,38.5,31.06,31.06,0,0,0,46.55,46c-1.48,2.2-2.58,4.65-4.08,6.82-.18,2.59-.33,5.18-.4,7.78,0,1.09-.07,2.17-.1,3.25a31,31,0,0,1,4-8.39,16.17,16.17,0,0,1,4.26-5.12c2.88-2,6.64-1.82,10.12-1.61a13.61,13.61,0,0,1,3.92.62c1.37.49,2.57,1.42,4,1.71a23.32,23.32,0,0,0-18,3.3,20,20,0,0,0-5.56,5.87v.11s0-.06,0-.09A18.71,18.71,0,0,0,42,67.92V68c.11,1.3.42,2.61.63,3.89.15.89.28,1.79.46,2.67a.27.27,0,0,1-.15.3,1.58,1.58,0,0,1-1.42.15.68.68,0,0,1-.38-.31,2.53,2.53,0,0,1,0-.27c0-.31.08-2.91.08-3.93,0-1.28,0-2.56,0-3.84-.42-1.14-.51-2.42-.82-3.61A17.63,17.63,0,0,0,36.93,57c-1.26-1.65-2.56-3.26-3.89-4.85,1.76,1.73,4,2.94,5.58,4.86a14,14,0,0,1,2.52,5.84c0-.78,0-1.55,0-2.33-.17-6.45-3.52-12.4-6.75-18-2.19-3.81-4-7.81-6.81-11.21a80.86,80.86,0,0,0-7.74-8.18c-2.71-2.5-5.93-4-9.24-5.59S3.73,14.22,0,13.71C9.36,12.68,18.58,17.67,24.9,24.65Z"/></g></g></svg>