<svg xmlns="http://www.w3.org/2000/svg" viewBox="0 0 23.89 19.99"><defs><style>.cls-1{isolation:isolate;}.cls-2{fill:#e5a667;}.cls-3{fill:#b5774a;}.cls-4{fill:#c0864f;}.cls-5{fill:#999179;mix-blend-mode:multiply;}</style></defs><title>kasse_01</title><g class="cls-1"><g id="Layer_2" data-name="Layer 2"><g id="Layer_1-2" data-name="Layer 1"><polygon class="cls-2" points="5.91 9.38 7.38 8.52 7.92 8.83 13.96 12.32 12.48 13.17 5.91 9.38"/><polygon class="cls-3" points="7.38 8.52 5.91 9.38 4.03 8.29 11.41 4.03 11.41 6.82 11.27 6.89 10.74 6.58 8.32 7.98 8.32 8.6 7.92 8.83 7.38 8.52"/><polygon class="cls-2" points="8.32 7.98 10.74 6.58 11.27 6.89 17.31 10.38 14.89 11.78 8.32 7.98"/><polygon class="cls-4" points="8.32 8.6 8.32 7.98 14.89 11.78 14.36 12.09 8.32 8.6"/><polygon class="cls-4" points="11.41 6.82 11.41 4.03 19.86 8.91 17.45 10.3 11.41 6.82"/><polygon class="cls-2" points="19.86 8.91 11.41 4.03 11.94 3.72 20.4 8.6 19.86 8.91"/><polygon class="cls-2" points="11.94 3.72 11.41 4.03 4.03 8.29 3.49 7.98 11.41 3.41 11.94 3.72"/><polygon class="cls-4" points="20.4 8.6 11.94 3.72 11.41 3.41 11.41 0.62 22.81 7.21 20.4 8.6"/><polygon class="cls-3" points="11.41 0.62 11.41 3.41 3.49 7.98 1.07 6.58 11.41 0.62"/><polygon class="cls-2" points="22.81 7.21 11.41 0.62 11.94 0.31 23.35 6.89 22.81 7.21"/><polygon class="cls-2" points="11.94 0.31 11.41 0.62 1.07 6.58 0.54 6.89 0 6.58 11.41 0 11.94 0.31"/><polygon class="cls-2" points="0.54 6.89 1.07 6.58 3.49 7.98 4.03 8.29 5.91 9.38 12.48 13.17 11.94 13.48 0.54 6.89"/><polygon class="cls-4" points="0.54 6.89 11.94 13.48 11.94 16.27 1.07 9.99 0.54 9.68 0.54 6.89"/><polygon class="cls-4" points="0.54 6.89 0.54 9.68 0 9.38 0 6.58 0.54 6.89"/><polygon class="cls-2" points="11.94 13.48 12.48 13.17 13.96 12.32 14.36 12.09 14.89 11.78 17.31 10.38 17.45 10.3 19.86 8.91 20.4 8.6 22.81 7.21 23.35 6.89 23.89 7.21 12.48 13.79 11.94 13.48"/><polygon class="cls-4" points="11.94 16.27 11.94 13.48 12.48 13.79 12.48 16.58 11.94 16.27"/><polygon class="cls-4" points="11.94 19.68 0.54 13.09 0.54 10.3 11.94 16.89 11.94 19.68"/><polygon class="cls-4" points="0.54 10.3 0.54 13.09 0 12.78 0 9.99 0.54 10.3"/><polygon class="cls-2" points="11.94 16.89 0.54 10.3 1.07 9.99 11.94 16.27 12.48 16.58 11.94 16.89"/><polygon class="cls-2" points="1.07 9.99 0.54 10.3 0 9.99 0.54 9.68 1.07 9.99"/><polygon class="cls-2" points="11.94 16.89 12.48 16.58 23.35 10.3 23.89 10.61 12.48 17.2 11.94 16.89"/><polygon class="cls-4" points="11.94 19.68 11.94 16.89 12.48 17.2 12.48 19.99 11.94 19.68"/><polygon class="cls-3" points="12.48 19.99 12.48 17.2 23.89 10.61 23.89 13.4 12.48 19.99"/><polygon class="cls-3" points="12.48 16.58 12.48 13.79 23.89 7.21 23.89 9.99 23.35 10.3 12.48 16.58"/><polygon class="cls-5" points="11.41 0.62 16.64 9.99 11.61 12.67 5.91 9.38 1.07 6.58 11.41 0.62"/></g></g></g></svg>