<svg xmlns="http://www.w3.org/2000/svg" viewBox="0 0 52.58 83.76"><title>note_01</title><g id="Layer_2" data-name="Layer 2"><g id="Layer_1-2" data-name="Layer 1"><path d="M34.13,18.39a11.86,11.86,0,0,1-5.71-7,20.25,20.25,0,0,1-.89-3.75c-.08-.57-.12-4.42-.16-5a5.55,5.55,0,0,0-.15-1.48C26.91.31,25.11-.18,24.27.06c-.65.19-.65,1-.61,1.57.06.84.06,4.94.06,5.78,0,1.69,0,3.38,0,5.07,0,2.21,0,4.42,0,6.63l0,7.64,0,8.09c0,2.67,0,5.33,0,8l0,7.35c0,2.05,0,4.11,0,6.16v4.4c0,.7,0,1.4,0,2.1a.33.33,0,0,0,0,.1c-3.59-1.79-9.07-1.47-14.24,1.22C2.11,67.9-1.71,74.76.74,79.48s8.67,5.75,15.84,2c6-3.11,9.92-8.41,9.9-12.81V25.62C35.24,25.35,43.36,36,43.36,36c8.17,14.4-5.09,28.75-5.09,28.75-.87,2.72.92,2.14.92,2.14C43.88,64,49.33,55.1,49.33,55.1,61.87,34.15,34.13,18.39,34.13,18.39Z"/></g></g></svg>