<svg xmlns="http://www.w3.org/2000/svg" viewBox="0 0 77.21 93.98"><title>note_03</title><g id="Layer_2" data-name="Layer 2"><g id="Layer_1-2" data-name="Layer 1"><path d="M73.28.58V.63l-49.09,10a.82.82,0,0,0-.66.81V73.31c-3.59-1.79-9.07-1.46-14.24,1.22C2.11,78.27-1.71,85.12.74,89.84S11,95.37,18.18,91.64c6-3.12,9.93-8.42,9.9-12.81V24.12a.73.73,0,0,1,.58-.72l43.75-8.87a.72.72,0,0,1,.87.71V60.87C69.69,59.09,64.2,59.41,59,62.1c-7.18,3.73-11,10.58-8.55,15.31s10.26,5.52,17.44,1.79c6-3.11,9.63-8.4,9.25-12.81h0V.82a.83.83,0,0,0-1-.81Z"/></g></g></svg>