<svg xmlns="http://www.w3.org/2000/svg" viewBox="0 0 53.34 83.72"><title>note_02</title><g id="Layer_2" data-name="Layer 2"><g id="Layer_1-2" data-name="Layer 1"><path d="M52.54,39.17c-.16-.52-.35-1-.56-1.52a15.14,15.14,0,0,0,.81-8.47c-2.39-7.44-9.28-13.62-15.91-17.73C31.43,8.06,29,7.19,27.35,2A5,5,0,0,0,27.11.93.86.86,0,0,0,27,.73v0h0A2.93,2.93,0,0,0,24.27.09c-.65.19-.62,1-.62,1.57,0,.14,0,.28,0,.41l-.13,60.81c-3.59-1.79-9.07-1.29-14.24,1.39C2.11,68-1.71,74.86.74,79.58S11,85.11,18.18,81.38c6-3.12,8.32-8.26,8.3-12.65V22.81A34,34,0,0,0,31,25.22c9.49,4.34,20.56,16,16.7,26.43-.52,1.4-2.1,4-2.79,5.33-1.58,3,2.49,2.18,4.12-.23C52.66,51.39,54.5,45.27,52.54,39.17ZM36.64,21.44a45.4,45.4,0,0,1-9.19-7.28c.84.43,1.82.42,3.78,1.07,9.91,3.25,16.54,7.39,18,17.32,0,0,0,.09,0,.26A43.87,43.87,0,0,0,36.64,21.44Z"/></g></g></svg>