<svg xmlns="http://www.w3.org/2000/svg" viewBox="0 0 85.08 146.48"><defs><style>.cls-1{fill:#49661c;}.cls-2{fill:#61870f;}.cls-3{fill:#6da50a;}.cls-4{fill:#c49757;}.cls-5{fill:#93631c;}.cls-6{fill:#af7e2f;}.cls-7{fill:#7a593f;}</style></defs><title>palme_01</title><g id="Layer_2" data-name="Layer 2"><g id="Layer_1-2" data-name="Layer 1"><polygon class="cls-1" points="37.39 1.34 35.47 6.22 40.62 29.89 41.13 5.15 44.59 0 37.39 1.34"/><path class="cls-2" d="M39.36,6.23l7.83-1.08-1.9,33.42s-4.21-.93-4.19,0S39.36,6.23,39.36,6.23Z"/><polygon class="cls-1" points="5.92 16.65 3.02 25.48 7.35 45.94 10.03 27.02 16.08 12.36 5.92 16.65"/><polygon class="cls-1" points="66.47 3.81 72.13 18.95 70.47 32.98 63.34 16.11 59.2 7.51 59.71 5.15 66.47 3.81"/><polygon class="cls-2" points="52.27 39.5 59.71 5.15 52.59 2.4 39.28 32 43.79 41.5 52.27 39.5"/><polygon class="cls-1" points="39.28 47 52.27 39.5 69.82 12.36 63.34 16.11 39.28 47"/><polygon class="cls-3" points="78.6 37.39 85.08 33.64 69.82 12.36 63.34 16.11 78.6 37.39"/><polygon class="cls-2" points="78.6 37.39 85.08 33.64 81.47 49.35 78.6 37.39"/><polygon class="cls-3" points="59.71 5.15 66.47 3.81 59.71 1.34 52.59 2.4 59.71 5.15"/><polygon class="cls-2" points="35.64 34.1 23.13 15.56 12.81 21.19 26.29 39.5 34.36 46.64 35.64 34.1"/><polygon class="cls-3" points="23.13 15.56 16.08 12.36 5.92 16.65 12.81 21.19 23.13 15.56"/><polygon class="cls-2" points="41.58 35.51 38.56 8.4 29.7 9.26 30.31 37.17 41.58 35.51"/><polygon class="cls-3" points="38.56 8.4 31.15 3.19 25.81 3.83 29.7 9.26 38.56 8.4"/><polygon class="cls-1" points="25.81 3.83 21.1 9.26 21.1 14.64 23.13 15.56 26.93 21.19 28.26 11.75 29.7 9.26 25.81 3.83"/><polygon class="cls-1" points="26.29 39.5 30.45 43.18 34.18 44.74 33.3 35.65 28.26 29.89 19.95 27.8 26.29 39.5"/><polygon class="cls-3" points="28.26 29.89 14.53 30.62 9.27 27.8 19.95 27.8 28.26 29.89"/><polygon class="cls-2" points="9.27 27.8 0 37.39 0.33 50.38 7.11 40.99 14.53 30.62 9.27 27.8"/><polygon class="cls-1" points="44.59 47 34.36 46.64 33.23 44.02 31.15 26.73 43.28 26.01 44.59 47"/><polygon class="cls-1" points="51.76 43.94 49.49 45.99 44.59 47 43.28 45.6 46.59 18.95 57.8 18.95 51.76 43.94"/><polygon class="cls-3" points="57.8 18.95 66.47 29.89 57.21 33.93 46.59 18.95 57.8 18.95"/><polygon class="cls-2" points="66.47 29.89 68.33 43.29 65.82 55.1 59.93 44.16 57.21 33.93 66.47 29.89"/><polygon class="cls-3" points="39.36 6.22 37.39 1.34 44.59 0 47.19 5.15 39.36 6.22"/><path class="cls-4" d="M43.11,47.36c0,2.42-.85,4.39-1.9,4.39s-1.91-2-1.91-4.39S39,42.29,40,42.29,43.11,44.93,43.11,47.36Z"/><path class="cls-5" d="M41.36,83.05V51s1.17-9.17,7.33-10.05L48.17,47v32.1Z"/><path class="cls-6" d="M41.36,83.05V51s-2-9.48-8.16-9.74L34.56,47v32.1Z"/><path class="cls-4" d="M41.36,59.32a19.77,19.77,0,0,0-4.75-12.79A11.38,11.38,0,0,0,29.8,42.6c-2.2-.19,4.76,7.07,4.76,12.79S41.36,65.87,41.36,59.32Z"/><path class="cls-6" d="M41.36,64.38c0-6.55-6.34-12.37-9.51-11.76-2.25.43,2.71,2.1,2.71,7.83S41.36,70.92,41.36,64.38Z"/><path class="cls-4" d="M41.36,69.43c0-6.55-2.7-7.83-2.7-7.83S33.48,57,31.85,57.67s2.71,2.11,2.71,7.83S41.36,76,41.36,69.43Z"/><path class="cls-6" d="M41.36,74.14c0-6.54-2.7-7.82-2.7-7.82s-6-5.35-6.81-3.93,2.71,2.1,2.71,7.82S41.36,80.69,41.36,74.14Z"/><path class="cls-4" d="M41.36,79.3c0-6.55-2.7-7.83-2.7-7.83s-5.91-5.4-6.81-3.93,2.71,2.1,2.71,7.83C34.56,79.12,41.36,82.89,41.36,79.3Z"/><path class="cls-7" d="M41.36,59.22c0-6.55,2.47-10.33,4.17-12.2s5.81-5.08,9.68-2.93c0,0-7,5.48-7,11.2S41.36,65.77,41.36,59.22Z"/><path class="cls-5" d="M41.36,64.38c0-6.55,2.71-7.83,2.71-7.83s5.8-5.29,6.8-3.93-2.7,2.1-2.7,7.83S41.36,70.92,41.36,64.38Z"/><path class="cls-7" d="M41.36,69.33c0-6.55,2.71-7.83,2.71-7.83s5.91-5.31,6.8-3.93-2.7,2.1-2.7,7.83S41.36,75.87,41.36,69.33Z"/><path class="cls-5" d="M41.36,74.14c0-6.54,2.71-7.82,2.71-7.82s6.8-5.35,6.8-3.93-2.7,2.1-2.7,7.82S41.36,80.69,41.36,74.14Z"/><path class="cls-7" d="M41.36,79.3c0-6.55,2.71-7.83,2.71-7.83s6.63-5.51,6.8-3.93-2.7,2.1-2.7,7.83C48.17,79.12,41.36,82.89,41.36,79.3Z"/><path class="cls-6" d="M41.36,83.05a10.41,10.41,0,0,0-2.7-6s-5.91-5.4-6.81-3.93c-.78,1.29,2,2,2.71,6Z"/><path class="cls-5" d="M41.36,83.05c.57-4.41,2.71-6,2.71-6s6.63-5.51,6.8-3.93c.15,1.38-2.15,2-2.7,6Z"/><polygon class="cls-5" points="41.36 114.44 41.36 82.34 48.17 78.41 48.17 110.51 41.36 114.44"/><polygon class="cls-6" points="41.36 114.44 41.36 82.34 34.55 78.41 34.55 110.51 41.36 114.44"/><path class="cls-4" d="M41.36,90.49c0-6.54-2.7-7.82-2.7-7.82S33.48,78,31.85,78.74s2.71,2.1,2.71,7.82S41.36,97,41.36,90.49Z"/><path class="cls-7" d="M41.36,90.39c0-6.55,2.71-7.83,2.71-7.83s5.91-5.3,6.8-3.93-2.7,2.11-2.7,7.83S41.36,96.94,41.36,90.39Z"/><path class="cls-6" d="M41.36,95.77C41.36,89.22,35,83.4,31.85,84c-2.25.43,2.71,2.1,2.71,7.83S41.36,102.31,41.36,95.77Z"/><path class="cls-4" d="M41.36,100.82c0-6.55-2.7-7.83-2.7-7.83s-5.18-4.63-6.81-3.93,2.71,2.11,2.71,7.83S41.36,107.37,41.36,100.82Z"/><path class="cls-6" d="M41.36,105.53c0-6.54-2.7-7.82-2.7-7.82s-6-5.35-6.81-3.93,2.71,2.1,2.71,7.82S41.36,112.08,41.36,105.53Z"/><path class="cls-4" d="M41.36,110.69c0-6.55-2.7-7.83-2.7-7.83s-5.91-5.4-6.81-3.93,2.71,2.1,2.71,7.83C34.56,110.51,41.36,114.28,41.36,110.69Z"/><path class="cls-5" d="M41.36,95.77c0-6.55,2.71-7.83,2.71-7.83s5.8-5.29,6.8-3.93-2.7,2.1-2.7,7.83S41.36,102.31,41.36,95.77Z"/><path class="cls-7" d="M41.36,100.72c0-6.55,2.71-7.83,2.71-7.83S50,87.58,50.87,89s-2.7,2.1-2.7,7.83S41.36,107.26,41.36,100.72Z"/><path class="cls-5" d="M41.36,105.53c0-6.54,2.71-7.82,2.71-7.82s6.8-5.35,6.8-3.93-2.7,2.1-2.7,7.82S41.36,112.08,41.36,105.53Z"/><path class="cls-7" d="M41.36,110.69c0-6.55,2.71-7.83,2.71-7.83s6.63-5.51,6.8-3.93-2.7,2.1-2.7,7.83C48.17,110.51,41.36,114.28,41.36,110.69Z"/><path class="cls-6" d="M41.36,114.44a10.41,10.41,0,0,0-2.7-6s-5.91-5.4-6.81-3.93c-.78,1.29,2,2,2.71,6Z"/><path class="cls-5" d="M41.36,114.44c.57-4.41,2.71-6,2.71-6s6.63-5.51,6.8-3.93c.15,1.38-2.15,2-2.7,6Z"/><polygon class="cls-5" points="41.36 146.48 41.36 114.38 48.17 110.45 48.17 142.55 41.36 146.48"/><polygon class="cls-6" points="41.36 146.48 41.36 114.38 34.55 110.45 34.55 142.55 41.36 146.48"/><path class="cls-4" d="M41.36,122.53c0-6.54-2.7-7.82-2.7-7.82s-5.18-4.63-6.81-3.93,2.71,2.1,2.71,7.82S41.36,129.08,41.36,122.53Z"/><path class="cls-7" d="M41.36,122.43c0-6.54,2.71-7.83,2.71-7.83s5.91-5.3,6.8-3.93-2.7,2.11-2.7,7.83S41.36,129,41.36,122.43Z"/><path class="cls-6" d="M41.36,127.81c0-6.55-6.34-12.37-9.51-11.76-2.25.43,2.71,2.1,2.71,7.83S41.36,134.35,41.36,127.81Z"/><path class="cls-4" d="M41.36,132.86c0-6.55-2.7-7.83-2.7-7.83s-5.18-4.63-6.81-3.93,2.71,2.11,2.71,7.83S41.36,139.41,41.36,132.86Z"/><path class="cls-6" d="M41.36,137.57c0-6.54-2.7-7.82-2.7-7.82s-6-5.35-6.81-3.93,2.71,2.1,2.71,7.82S41.36,144.12,41.36,137.57Z"/><path class="cls-4" d="M41.36,142.73c0-6.55-2.7-7.83-2.7-7.83s-5.91-5.4-6.81-3.93,2.71,2.1,2.71,7.83C34.56,142.55,41.36,146.32,41.36,142.73Z"/><path class="cls-5" d="M41.36,127.81c0-6.55,2.71-7.83,2.71-7.83s5.8-5.29,6.8-3.93-2.7,2.1-2.7,7.83S41.36,134.35,41.36,127.81Z"/><path class="cls-7" d="M41.36,132.76c0-6.55,2.71-7.83,2.71-7.83s5.91-5.31,6.8-3.93-2.7,2.1-2.7,7.83S41.36,139.3,41.36,132.76Z"/><path class="cls-5" d="M41.36,137.57c0-6.54,2.71-7.82,2.71-7.82s6.8-5.35,6.8-3.93-2.7,2.1-2.7,7.82S41.36,144.12,41.36,137.57Z"/><path class="cls-7" d="M41.36,142.73c0-6.55,2.71-7.83,2.71-7.83s6.63-5.51,6.8-3.93-2.7,2.1-2.7,7.83C48.17,142.55,41.36,146.32,41.36,142.73Z"/><path class="cls-6" d="M41.36,146.48a10.41,10.41,0,0,0-2.7-6s-5.91-5.4-6.81-3.93c-.78,1.29,2,2,2.71,6Z"/><path class="cls-5" d="M41.36,146.48c.57-4.41,2.71-6,2.71-6s6.63-5.51,6.8-3.93c.15,1.38-2.15,2-2.7,6Z"/><polygon class="cls-2" points="43.28 26.01 35.64 33.21 17.63 52.06 26.4 32 31.15 26.73 43.28 26.01"/><polygon class="cls-3" points="43.28 26.01 35.64 33.21 26.4 32 31.15 26.73 43.28 26.01"/></g></g></svg>