<svg xmlns="http://www.w3.org/2000/svg" viewBox="0 0 79.83 76.29"><defs><style>.cls-1{fill:#49661c;}.cls-2{fill:#61870f;}.cls-3{fill:#6da50a;}.cls-4{fill:#c49757;}.cls-5{fill:#93631c;}.cls-6{fill:#af7e2f;}.cls-7{fill:#7a593f;}</style></defs><title>palme_02</title><g id="Layer_2" data-name="Layer 2"><g id="Layer_1-2" data-name="Layer 1"><polygon class="cls-1" points="72.18 15.32 77.17 21.48 77.17 32.79 68.73 24.05 63.63 11.7 72.18 15.32"/><polygon class="cls-1" points="18.33 3.94 11.91 16.41 23.8 14.86 27.29 7.62 26.86 5.62 18.33 3.94"/><polygon class="cls-2" points="33.13 34.57 26.86 5.62 39.6 1.66 44.08 28.25 40.28 36.26 33.13 34.57"/><polygon class="cls-1" points="44.08 40.89 33.13 34.57 12.86 8.54 23.8 14.86 44.08 40.89"/><polygon class="cls-3" points="10.95 32.79 0 26.47 12.86 8.54 23.8 14.86 10.95 32.79"/><polygon class="cls-2" points="10.95 32.79 0 26.47 8.53 42.87 10.95 32.79"/><polygon class="cls-3" points="26.86 5.62 18.33 3.94 28.47 0 39.6 1.66 26.86 5.62"/><polygon class="cls-2" points="47.15 30.02 57.68 14.4 66.38 19.14 55.03 34.57 48.22 40.58 47.15 30.02"/><polygon class="cls-3" points="57.68 14.4 63.63 11.7 72.18 15.32 66.38 19.14 57.68 14.4"/><polygon class="cls-2" points="39.6 30.83 42.14 8 52.15 9.09 51.64 32.61 39.6 30.83"/><polygon class="cls-3" points="42.14 8 48.06 3.42 55.43 4.52 52.15 9.09 42.14 8"/><polygon class="cls-1" points="55.43 4.52 59.39 9.09 59.39 13.62 57.68 14.4 54.49 19.14 53.36 11.19 52.15 9.09 55.43 4.52"/><polygon class="cls-1" points="55.03 34.57 49.17 40.04 48.22 40.58 53.36 26.47 60.37 24.71 55.03 34.57"/><polygon class="cls-3" points="53.36 26.47 64.93 27.09 69.37 24.71 60.37 24.71 53.36 26.47"/><polygon class="cls-2" points="69.37 24.71 77.17 32.79 79.83 40.89 71.19 35.82 64.93 27.09 69.37 24.71"/><polygon class="cls-1" points="39.6 40.89 42.32 45.67 49.17 38.38 50.93 23.81 40.71 23.2 39.6 40.89"/><polygon class="cls-1" points="33.56 38.31 35.47 40.04 39.6 40.89 40.71 39.71 37.92 17.26 28.47 17.26 33.56 38.31"/><polygon class="cls-3" points="28.47 17.26 21.17 26.47 28.97 29.88 37.92 17.26 28.47 17.26"/><polygon class="cls-2" points="21.17 26.47 19.6 37.77 21.72 47.72 26.68 38.49 28.97 29.88 21.17 26.47"/><path class="cls-4" d="M44.08,40.38c0,2.44-.86,4.42-1.92,4.42s-1.92-2-1.92-4.42-.34-5.1.72-5.1S44.08,37.94,44.08,40.38Z"/><path class="cls-5" d="M42.32,76.29V44s1.18-9.22,7.37-10.11L49.17,40v32.3Z"/><path class="cls-6" d="M42.32,76.29V44s-2-9.53-8.22-9.8L35.47,40v32.3Z"/><path class="cls-4" d="M42.32,52.42a19.92,19.92,0,0,0-4.78-12.87,11.47,11.47,0,0,0-6.85-4c-2.22-.19,4.78,7.12,4.78,12.87S42.32,59,42.32,52.42Z"/><path class="cls-6" d="M42.32,57.51c0-6.59-6.38-12.45-9.57-11.84-2.27.44,2.72,2.12,2.72,7.88S42.32,64.09,42.32,57.51Z"/><path class="cls-4" d="M42.32,62.59c0-6.59-2.72-7.88-2.72-7.88s-5.21-4.66-6.85-4,2.72,2.12,2.72,7.88S42.32,69.18,42.32,62.59Z"/><path class="cls-6" d="M42.32,67.33c0-6.58-2.72-7.87-2.72-7.87s-6.05-5.38-6.85-4,2.72,2.12,2.72,7.88S42.32,73.92,42.32,67.33Z"/><path class="cls-4" d="M42.32,72.52c0-6.59-2.72-7.88-2.72-7.88s-5.94-5.43-6.85-4,2.72,2.12,2.72,7.88C35.47,72.34,42.32,76.14,42.32,72.52Z"/><path class="cls-7" d="M42.32,52.32c0-6.59,2.48-10.4,4.19-12.28s5.85-5.11,9.75-2.95c0,0-7.09,5.51-7.09,11.27S42.32,58.9,42.32,52.32Z"/><path class="cls-5" d="M42.32,57.51c0-6.59,2.72-7.88,2.72-7.88s5.84-5.32,6.85-4-2.72,2.12-2.72,7.88S42.32,64.09,42.32,57.51Z"/><path class="cls-7" d="M42.32,62.49c0-6.59,2.72-7.88,2.72-7.88s6-5.34,6.85-4-2.72,2.11-2.72,7.87S42.32,69.07,42.32,62.49Z"/><path class="cls-5" d="M42.32,67.33c0-6.58,2.72-7.87,2.72-7.87s6.85-5.38,6.85-4-2.72,2.12-2.72,7.88S42.32,73.92,42.32,67.33Z"/><path class="cls-7" d="M42.32,72.52c0-6.59,2.72-7.88,2.72-7.88s6.68-5.54,6.85-4-2.72,2.12-2.72,7.88C49.17,72.34,42.32,76.14,42.32,72.52Z"/><path class="cls-6" d="M42.32,76.29a10.42,10.42,0,0,0-2.72-6s-5.94-5.44-6.85-4c-.79,1.29,2,2,2.72,6Z"/><path class="cls-5" d="M42.32,76.29c.57-4.43,2.72-6,2.72-6s6.68-5.54,6.85-4c.15,1.38-2.17,2-2.72,6Z"/><polygon class="cls-2" points="40.71 23.2 47.15 29.27 50.93 47.04 53.36 26.47 50.93 23.81 40.71 23.2"/><polygon class="cls-3" points="40.71 23.2 47.15 29.27 53.36 26.47 50.93 23.81 40.71 23.2"/></g></g></svg>