<svg xmlns="http://www.w3.org/2000/svg" xmlns:xlink="http://www.w3.org/1999/xlink" viewBox="0 0 41.6 24.62"><defs><style>.cls-1{fill:url(#linear-gradient);}.cls-2{fill:url(#linear-gradient-2);}.cls-3{fill:url(#linear-gradient-3);}.cls-4{fill:url(#linear-gradient-4);}.cls-5{fill:url(#linear-gradient-5);}.cls-6{fill:url(#linear-gradient-6);}.cls-7{fill:url(#linear-gradient-7);}.cls-8{fill:url(#linear-gradient-8);}.cls-9{fill:#ffe5c7;}.cls-10{fill:url(#linear-gradient-9);}.cls-11{fill:url(#linear-gradient-10);}.cls-12{fill:url(#linear-gradient-11);}.cls-13{fill:url(#linear-gradient-12);}.cls-14{fill:url(#linear-gradient-13);}.cls-15{fill:url(#linear-gradient-14);}.cls-16{fill:#d4b28c;}.cls-17{fill:url(#linear-gradient-15);}.cls-18{fill:url(#linear-gradient-16);}.cls-19{fill:url(#linear-gradient-17);}.cls-20{fill:url(#linear-gradient-18);}.cls-21{fill:url(#linear-gradient-19);}.cls-22{fill:url(#linear-gradient-20);}.cls-23{fill:url(#linear-gradient-21);}.cls-24{fill:url(#linear-gradient-22);}.cls-25{fill:url(#linear-gradient-23);}.cls-26{fill:url(#linear-gradient-24);}.cls-27{fill:url(#linear-gradient-25);}.cls-28{fill:url(#linear-gradient-26);}.cls-29{fill:url(#linear-gradient-27);}</style><linearGradient id="linear-gradient" x1="1015.97" y1="1300.01" x2="1016.75" y2="1300.01" gradientTransform="matrix(0.5, -0.87, -0.87, -0.5, 639.38, 1533.72)" gradientUnits="userSpaceOnUse"><stop offset="0" stop-color="#b7694c"/><stop offset="0.43" stop-color="#b4674a"/><stop offset="0.74" stop-color="#ab5f43"/><stop offset="1" stop-color="#9c5439"/></linearGradient><linearGradient id="linear-gradient-2" x1="1021.87" y1="1296.83" x2="1016.34" y2="1300.02" gradientTransform="matrix(0.5, -0.87, -0.87, -0.5, 639.38, 1533.72)" gradientUnits="userSpaceOnUse"><stop offset="0" stop-color="#b7694c"/><stop offset="0.39" stop-color="#b4674b"/><stop offset="0.69" stop-color="#aa6247"/><stop offset="0.97" stop-color="#995941"/><stop offset="1" stop-color="#975840"/></linearGradient><linearGradient id="linear-gradient-3" x1="1034.18" y1="-1755.62" x2="1039.62" y2="-1755.62" gradientTransform="matrix(0.5, 0.87, 0.87, -0.5, 1022.49, -1771.54)" xlink:href="#linear-gradient"/><linearGradient id="linear-gradient-4" x1="712.76" y1="614.57" x2="716.59" y2="618.4" gradientTransform="matrix(0.5, -0.87, -0.87, -0.5, 197.79, 931.11)" gradientUnits="userSpaceOnUse"><stop offset="0" stop-color="#9c5439"/><stop offset="1" stop-color="#b7694c"/></linearGradient><linearGradient id="linear-gradient-5" x1="1033.66" y1="-1756.43" x2="1040.15" y2="-1756.43" gradientTransform="matrix(0.5, 0.87, 0.87, -0.5, 1022.49, -1771.54)" gradientUnits="userSpaceOnUse"><stop offset="0" stop-color="#9c5439"/><stop offset="0.26" stop-color="#ab5f43"/><stop offset="0.57" stop-color="#b4674a"/><stop offset="1" stop-color="#b7694c"/></linearGradient><linearGradient id="linear-gradient-6" x1="711.81" y1="614.51" x2="716.38" y2="619.08" gradientTransform="matrix(0.5, -0.87, -0.87, -0.5, 197.79, 931.11)" xlink:href="#linear-gradient-5"/><linearGradient id="linear-gradient-7" x1="18.31" y1="10.52" x2="22.08" y2="17.04" gradientUnits="userSpaceOnUse"><stop offset="0" stop-color="#e8caa7"/><stop offset="0.06" stop-color="#f0d3b2"/><stop offset="0.16" stop-color="#f9ddbd"/><stop offset="0.3" stop-color="#fee2c4"/><stop offset="0.7" stop-color="#ffe4c6"/><stop offset="0.87" stop-color="#ffddb6"/><stop offset="1" stop-color="#ffd6a8"/></linearGradient><linearGradient id="linear-gradient-8" x1="1034.19" y1="-1763.38" x2="1039.61" y2="-1763.38" gradientTransform="matrix(0.5, 0.87, 0.87, -0.5, 1022.49, -1771.54)" gradientUnits="userSpaceOnUse"><stop offset="0" stop-color="#ffe5c7"/><stop offset="0.4" stop-color="#ffe1be"/><stop offset="1" stop-color="#ffd6a8"/></linearGradient><linearGradient id="linear-gradient-9" x1="1033.66" y1="-1772.18" x2="1040.15" y2="-1772.18" xlink:href="#linear-gradient-5"/><linearGradient id="linear-gradient-10" x1="698.17" y1="622.38" x2="702.75" y2="626.95" gradientTransform="matrix(0.5, -0.87, -0.87, -0.5, 197.79, 931.11)" xlink:href="#linear-gradient-5"/><linearGradient id="linear-gradient-11" x1="1034.18" y1="-1773.01" x2="1039.62" y2="-1773.01" xlink:href="#linear-gradient-5"/><linearGradient id="linear-gradient-12" x1="697.7" y1="623.26" x2="701.53" y2="627.1" gradientTransform="matrix(0.5, -0.87, -0.87, -0.5, 197.79, 931.11)" xlink:href="#linear-gradient-5"/><linearGradient id="linear-gradient-13" x1="994.62" y1="1312.34" x2="995.4" y2="1312.34" xlink:href="#linear-gradient"/><linearGradient id="linear-gradient-14" x1="1000.52" y1="1309.16" x2="994.99" y2="1312.35" gradientTransform="matrix(0.5, -0.87, -0.87, -0.5, 639.38, 1533.72)" xlink:href="#linear-gradient-5"/><linearGradient id="linear-gradient-15" x1="1015.97" y1="1283.58" x2="1016.75" y2="1283.58" xlink:href="#linear-gradient"/><linearGradient id="linear-gradient-16" x1="1021.87" y1="1280.4" x2="1016.34" y2="1283.59" xlink:href="#linear-gradient-2"/><linearGradient id="linear-gradient-17" x1="1048.41" y1="-1747.41" x2="1053.85" y2="-1747.41" gradientTransform="matrix(0.5, 0.87, 0.87, -0.5, 1022.49, -1771.54)" xlink:href="#linear-gradient"/><linearGradient id="linear-gradient-18" x1="712.76" y1="598.14" x2="716.59" y2="601.97" xlink:href="#linear-gradient-4"/><linearGradient id="linear-gradient-19" x1="1047.89" y1="-1748.22" x2="1054.37" y2="-1748.22" xlink:href="#linear-gradient-5"/><linearGradient id="linear-gradient-20" x1="711.81" y1="598.08" x2="716.38" y2="602.65" gradientTransform="matrix(0.5, -0.87, -0.87, -0.5, 197.79, 931.11)" xlink:href="#linear-gradient-5"/><linearGradient id="linear-gradient-21" x1="1048.42" y1="-1755.16" x2="1053.84" y2="-1755.16" xlink:href="#linear-gradient-8"/><linearGradient id="linear-gradient-22" x1="1047.89" y1="-1763.96" x2="1054.37" y2="-1763.96" xlink:href="#linear-gradient-5"/><linearGradient id="linear-gradient-23" x1="698.17" y1="605.95" x2="702.75" y2="610.53" gradientTransform="matrix(0.5, -0.87, -0.87, -0.5, 197.79, 931.11)" xlink:href="#linear-gradient-5"/><linearGradient id="linear-gradient-24" x1="1048.41" y1="-1764.8" x2="1053.85" y2="-1764.8" xlink:href="#linear-gradient-5"/><linearGradient id="linear-gradient-25" x1="697.7" y1="606.84" x2="701.53" y2="610.67" gradientTransform="matrix(0.5, -0.87, -0.87, -0.5, 197.79, 931.11)" xlink:href="#linear-gradient-5"/><linearGradient id="linear-gradient-26" x1="994.62" y1="1295.91" x2="995.4" y2="1295.91" xlink:href="#linear-gradient"/><linearGradient id="linear-gradient-27" x1="1000.52" y1="1292.73" x2="994.99" y2="1295.92" gradientTransform="matrix(0.5, -0.87, -0.87, -0.5, 639.38, 1533.72)" xlink:href="#linear-gradient-5"/></defs><title>papyrus_01</title><g id="Layer_2" data-name="Layer 2"><g id="Layer_1-2" data-name="Layer 1"><path class="cls-1" d="M21.68,3.06c-.1-.07-.19-.07-.25,0a.33.33,0,0,0-.08.28.92.92,0,0,0,.39.67.36.36,0,0,0,.28.07c.08,0,.12-.1.11-.23A1.16,1.16,0,0,0,21.68,3.06Z"/><path class="cls-2" d="M27,.08A.32.32,0,0,0,26.7,0a13.86,13.86,0,0,0-2.77,1.23,13.3,13.3,0,0,0-2.5,1.81c.06-.06.15-.06.25,0a1.16,1.16,0,0,1,.45.78c0,.13,0,.21-.11.23a14.43,14.43,0,0,0,5.27-3,.33.33,0,0,0,.08-.28A.92.92,0,0,0,27,.08Z"/><path class="cls-3" d="M20.57,2a1.62,1.62,0,0,0-1-.24.76.76,0,0,0-.33.11,1.35,1.35,0,0,0-.56,1.25,4.26,4.26,0,0,0,1.92,3.33,1.34,1.34,0,0,0,1.36.13.93.93,0,0,0,.27-.22,1.61,1.61,0,0,0,.3-1A4.29,4.29,0,0,0,20.57,2Z"/><path class="cls-4" d="M21,1.75a1.37,1.37,0,0,0-1.36-.13l-.44.25A1.39,1.39,0,0,1,20.57,2,4.29,4.29,0,0,1,22.5,5.34a1.37,1.37,0,0,1-.57,1.24l.44-.25a1.36,1.36,0,0,0,.56-1.24A4.27,4.27,0,0,0,21,1.75Z"/><path class="cls-5" d="M19.87,2a1.89,1.89,0,0,0-1.23-.29,1.34,1.34,0,0,0-.4.13,1.63,1.63,0,0,0-.67,1.49,5.06,5.06,0,0,0,2.3,4,1.6,1.6,0,0,0,1.62.16,1.14,1.14,0,0,0,.31-.27A1.88,1.88,0,0,0,22.16,6,5.1,5.1,0,0,0,19.87,2Z"/><path class="cls-6" d="M20.42,1.67a1.62,1.62,0,0,0-1.63-.16l-.55.31A1.68,1.68,0,0,1,19.87,2a5.1,5.1,0,0,1,2.29,4,1.63,1.63,0,0,1-.67,1.48L22,7.13a1.63,1.63,0,0,0,.67-1.49A5.08,5.08,0,0,0,20.42,1.67Z"/><polygon class="cls-7" points="19.48 20.79 7.76 14.02 20.76 6.52 32.49 13.28 19.48 20.79"/><path class="cls-8" d="M8,14.63,21.09,7.06a1.36,1.36,0,0,0,.56-1.24,4.27,4.27,0,0,0-1.83-3.27h0a1.43,1.43,0,0,0-1.44-.18L5.26,9.94a1.44,1.44,0,0,1,1.45.18,4.26,4.26,0,0,1,1.82,3.27A1.34,1.34,0,0,1,8,14.63Z"/><path class="cls-9" d="M8.09,14.76a1.43,1.43,0,0,0,.6-1.32,4.49,4.49,0,0,0-2-3.53,1.4,1.4,0,0,0-1.44-.14,1.43,1.43,0,0,0-.6,1.32C4.61,13.19,6.82,15.5,8.09,14.76Z"/><path class="cls-10" d="M6.23,9.86A1.88,1.88,0,0,0,5,9.56a1.07,1.07,0,0,0-.39.14,1.59,1.59,0,0,0-.67,1.48,5.05,5.05,0,0,0,2.29,4,1.6,1.6,0,0,0,1.62.17A1.06,1.06,0,0,0,8.17,15a1.94,1.94,0,0,0,.36-1.21A5.09,5.09,0,0,0,6.23,9.86Z"/><path class="cls-11" d="M6.78,9.54a1.6,1.6,0,0,0-1.62-.16l-.55.32a1.64,1.64,0,0,1,1.62.16,5.09,5.09,0,0,1,2.3,4,1.66,1.66,0,0,1-.68,1.49L8.4,15a1.61,1.61,0,0,0,.67-1.49A5.05,5.05,0,0,0,6.78,9.54Z"/><path class="cls-12" d="M5.51,10.7a1.57,1.57,0,0,0-1-.25.93.93,0,0,0-.33.12,1.34,1.34,0,0,0-.56,1.24,4.24,4.24,0,0,0,1.92,3.33,1.35,1.35,0,0,0,1.36.14,1,1,0,0,0,.26-.23,1.59,1.59,0,0,0,.3-1A4.26,4.26,0,0,0,5.51,10.7Z"/><path class="cls-13" d="M6,10.45a1.37,1.37,0,0,0-1.37-.14l-.43.26a1.37,1.37,0,0,1,1.36.13A4.26,4.26,0,0,1,7.43,14a1.38,1.38,0,0,1-.56,1.25L7.31,15a1.37,1.37,0,0,0,.56-1.25A4.24,4.24,0,0,0,6,10.45Z"/><path class="cls-14" d="M.33,15.39a.2.2,0,0,0-.25,0,.36.36,0,0,0-.08.29.88.88,0,0,0,.39.66.37.37,0,0,0,.28.08c.08,0,.12-.1.11-.23A1.16,1.16,0,0,0,.33,15.39Z"/><path class="cls-15" d="M5.63,12.41a.32.32,0,0,0-.28-.07,13.5,13.5,0,0,0-2.77,1.22,14.37,14.37,0,0,0-2.5,1.81.2.2,0,0,1,.25,0,1.16,1.16,0,0,1,.45.78c0,.13,0,.2-.11.23a14.43,14.43,0,0,0,5.27-3A.35.35,0,0,0,6,13.07.88.88,0,0,0,5.63,12.41Z"/><polygon class="cls-16" points="20.32 8.25 24.22 10.5 23.89 10.69 19.99 8.44 20.32 8.25"/><polygon class="cls-16" points="29.49 13.54 29.15 13.73 25.25 11.48 25.59 11.29 29.49 13.54"/><polygon class="cls-16" points="19.4 8.78 23.3 11.03 22.96 11.22 19.06 8.97 19.4 8.78"/><polygon class="cls-16" points="28.57 14.07 28.23 14.27 24.33 12.01 24.67 11.82 28.57 14.07"/><polygon class="cls-16" points="18.48 9.31 22.38 11.56 22.04 11.76 18.14 9.51 18.48 9.31"/><polygon class="cls-16" points="27.64 14.6 27.31 14.8 23.41 12.55 23.74 12.35 27.64 14.6"/><polygon class="cls-16" points="17.55 9.84 21.45 12.1 21.12 12.29 17.22 10.04 17.55 9.84"/><polygon class="cls-16" points="26.72 15.14 26.39 15.33 22.49 13.08 22.82 12.89 26.72 15.14"/><polygon class="cls-16" points="16.63 10.38 20.53 12.63 20.2 12.82 16.3 10.57 16.63 10.38"/><polygon class="cls-16" points="25.8 15.67 25.46 15.86 21.56 13.61 21.9 13.42 25.8 15.67"/><polygon class="cls-16" points="15.71 10.91 19.61 13.16 19.27 13.36 15.37 11.1 15.71 10.91"/><polygon class="cls-16" points="24.88 16.2 24.54 16.4 20.64 14.14 20.98 13.95 24.88 16.2"/><polygon class="cls-16" points="14.79 11.44 18.69 13.69 18.35 13.89 14.45 11.64 14.79 11.44"/><polygon class="cls-16" points="23.95 16.73 23.62 16.93 19.72 14.68 20.05 14.48 23.95 16.73"/><polygon class="cls-16" points="13.86 11.97 17.76 14.23 17.43 14.42 13.53 12.17 13.86 11.97"/><polygon class="cls-16" points="23.03 17.27 22.69 17.46 18.79 15.21 19.13 15.02 23.03 17.27"/><polygon class="cls-16" points="12.94 12.51 16.84 14.76 16.5 14.95 12.6 12.7 12.94 12.51"/><polygon class="cls-16" points="22.11 17.8 21.77 17.99 17.87 15.74 18.21 15.55 22.11 17.8"/><polygon class="cls-16" points="12.02 13.04 15.92 15.29 15.58 15.49 11.68 13.23 12.02 13.04"/><polygon class="cls-16" points="21.18 18.33 20.85 18.53 16.95 16.28 17.29 16.08 21.18 18.33"/><path class="cls-17" d="M35.91,11.28c-.11-.07-.2-.07-.25,0a.34.34,0,0,0-.08.28.86.86,0,0,0,.38.67.34.34,0,0,0,.29.07c.07,0,.12-.1.11-.23A1.16,1.16,0,0,0,35.91,11.28Z"/><path class="cls-18" d="M41.21,8.3a.34.34,0,0,0-.28-.08,14.57,14.57,0,0,0-2.77,1.23,14.37,14.37,0,0,0-2.5,1.81c.05,0,.14,0,.25,0a1.16,1.16,0,0,1,.45.77c0,.13,0,.21-.11.23a14.41,14.41,0,0,0,5.27-3A.4.4,0,0,0,41.59,9,.84.84,0,0,0,41.21,8.3Z"/><path class="cls-19" d="M34.8,10.22a1.58,1.58,0,0,0-1-.25,1.17,1.17,0,0,0-.33.11,1.36,1.36,0,0,0-.57,1.25,4.22,4.22,0,0,0,1.93,3.33,1.35,1.35,0,0,0,1.36.14,1,1,0,0,0,.26-.23,1.61,1.61,0,0,0,.3-1A4.24,4.24,0,0,0,34.8,10.22Z"/><path class="cls-20" d="M35.23,10a1.35,1.35,0,0,0-1.36-.14l-.43.25a1.37,1.37,0,0,1,1.36.14,4.24,4.24,0,0,1,1.92,3.33,1.38,1.38,0,0,1-.56,1.25l.43-.25a1.37,1.37,0,0,0,.57-1.25A4.22,4.22,0,0,0,35.23,10Z"/><path class="cls-21" d="M34.09,10.2a1.88,1.88,0,0,0-1.23-.3,1.07,1.07,0,0,0-.39.14,1.61,1.61,0,0,0-.67,1.48,5.1,5.1,0,0,0,2.29,4,1.64,1.64,0,0,0,1.63.16,1.16,1.16,0,0,0,.31-.28,1.86,1.86,0,0,0,.36-1.21A5.06,5.06,0,0,0,34.09,10.2Z"/><path class="cls-22" d="M34.64,9.88A1.62,1.62,0,0,0,33,9.72l-.55.32a1.64,1.64,0,0,1,1.62.16,5.06,5.06,0,0,1,2.3,4,1.68,1.68,0,0,1-.67,1.49l.54-.32a1.61,1.61,0,0,0,.68-1.49A5.06,5.06,0,0,0,34.64,9.88Z"/><path class="cls-23" d="M22.2,22.84l13.11-7.57A1.34,1.34,0,0,0,35.87,14a4.27,4.27,0,0,0-1.82-3.26h0a1.42,1.42,0,0,0-1.45-.19L19.49,18.15a1.4,1.4,0,0,1,1.44.19,4.25,4.25,0,0,1,1.83,3.26A1.34,1.34,0,0,1,22.2,22.84Z"/><path class="cls-9" d="M22.32,23a1.44,1.44,0,0,0,.6-1.32,4.52,4.52,0,0,0-2-3.54A1.47,1.47,0,0,0,19.43,18a1.42,1.42,0,0,0-.59,1.32C18.84,21.4,21,23.71,22.32,23Z"/><path class="cls-24" d="M20.46,18.07a2,2,0,0,0-1.23-.3,1.21,1.21,0,0,0-.39.14,1.6,1.6,0,0,0-.68,1.48,5.07,5.07,0,0,0,2.3,4,1.62,1.62,0,0,0,1.62.16,1.14,1.14,0,0,0,.31-.27A1.89,1.89,0,0,0,22.75,22,5.08,5.08,0,0,0,20.46,18.07Z"/><path class="cls-25" d="M21,17.75a1.64,1.64,0,0,0-1.63-.16l-.54.32a1.64,1.64,0,0,1,1.62.16,5.08,5.08,0,0,1,2.29,4,1.64,1.64,0,0,1-.67,1.49l.55-.32a1.61,1.61,0,0,0,.67-1.48A5.1,5.1,0,0,0,21,17.75Z"/><path class="cls-26" d="M19.74,18.91a1.58,1.58,0,0,0-1-.24.76.76,0,0,0-.32.11A1.34,1.34,0,0,0,17.81,20a4.26,4.26,0,0,0,1.93,3.34,1.37,1.37,0,0,0,1.36.13.94.94,0,0,0,.26-.23,1.58,1.58,0,0,0,.3-1A4.27,4.27,0,0,0,19.74,18.91Z"/><path class="cls-27" d="M20.17,18.66a1.37,1.37,0,0,0-1.36-.13l-.43.25a1.4,1.4,0,0,1,1.36.13,4.27,4.27,0,0,1,1.92,3.34,1.36,1.36,0,0,1-.56,1.24l.43-.25A1.34,1.34,0,0,0,22.1,22,4.31,4.31,0,0,0,20.17,18.66Z"/><path class="cls-28" d="M14.56,23.6c-.11-.07-.2-.07-.25,0a.33.33,0,0,0-.08.28.88.88,0,0,0,.38.67.38.38,0,0,0,.29.07c.07,0,.12-.1.11-.23A1.2,1.2,0,0,0,14.56,23.6Z"/><path class="cls-29" d="M19.86,20.62a.38.38,0,0,0-.29-.07,14.19,14.19,0,0,0-2.76,1.23,13.3,13.3,0,0,0-2.5,1.81c0-.06.14-.06.25,0a1.2,1.2,0,0,1,.45.78c0,.13,0,.21-.11.23a14.43,14.43,0,0,0,5.27-3,.36.36,0,0,0,.07-.28A.88.88,0,0,0,19.86,20.62Z"/></g></g></svg>