<svg xmlns="http://www.w3.org/2000/svg" xmlns:xlink="http://www.w3.org/1999/xlink" viewBox="0 0 23.38 43.84"><defs><style>.cls-1{fill:url(#linear-gradient);}.cls-2{fill:url(#linear-gradient-2);}.cls-3{fill:url(#linear-gradient-3);}.cls-4{fill:url(#linear-gradient-4);}.cls-5{fill:url(#linear-gradient-5);}.cls-6{fill:url(#linear-gradient-6);}.cls-7{fill:url(#linear-gradient-7);}.cls-8{fill:url(#linear-gradient-8);}.cls-9{fill:#ffe5c7;}.cls-10{fill:url(#linear-gradient-9);}.cls-11{fill:url(#linear-gradient-10);}.cls-12{fill:url(#linear-gradient-11);}.cls-13{fill:url(#linear-gradient-12);}.cls-14{fill:url(#linear-gradient-13);}.cls-15{fill:url(#linear-gradient-14);}.cls-16{fill:url(#linear-gradient-15);}.cls-17{fill:url(#linear-gradient-16);}.cls-18{fill:url(#linear-gradient-17);}.cls-19{fill:url(#linear-gradient-18);}.cls-20{fill:url(#linear-gradient-19);}.cls-21{fill:url(#linear-gradient-20);}.cls-22{fill:url(#linear-gradient-21);}.cls-23{fill:url(#linear-gradient-22);}.cls-24{fill:url(#linear-gradient-23);}.cls-25{fill:url(#linear-gradient-24);}.cls-26{fill:url(#linear-gradient-25);}.cls-27{fill:url(#linear-gradient-26);}.cls-28{fill:url(#linear-gradient-27);}</style><linearGradient id="linear-gradient" x1="3151.53" y1="1301.84" x2="3152.39" y2="1301.84" gradientTransform="translate(2706.94 -2051.21) rotate(120)" gradientUnits="userSpaceOnUse"><stop offset="0" stop-color="#b7694c"/><stop offset="0.43" stop-color="#b4674a"/><stop offset="0.74" stop-color="#ab5f43"/><stop offset="1" stop-color="#9c5439"/></linearGradient><linearGradient id="linear-gradient-2" x1="3155.48" y1="1300.97" x2="3154.47" y2="1299.23" gradientTransform="translate(2706.94 -2051.21) rotate(120)" gradientUnits="userSpaceOnUse"><stop offset="0" stop-color="#d97c5a"/><stop offset="0.33" stop-color="#c06c4d"/><stop offset="0.75" stop-color="#a65a3e"/><stop offset="1" stop-color="#9c5439"/></linearGradient><linearGradient id="linear-gradient-3" x1="0.58" y1="25.97" x2="6.56" y2="25.97" gradientTransform="matrix(1, 0, 0, 1, 0, 0)" xlink:href="#linear-gradient"/><linearGradient id="linear-gradient-4" x1="2848.09" y1="616.24" x2="2852.3" y2="620.45" gradientTransform="translate(1964.27 -2132.33) rotate(120)" gradientUnits="userSpaceOnUse"><stop offset="0" stop-color="#9c5439"/><stop offset="1" stop-color="#b7694c"/></linearGradient><linearGradient id="linear-gradient-5" x1="0" y1="25.08" x2="7.13" y2="25.08" gradientTransform="matrix(1, 0, 0, 1, 0, 0)" xlink:href="#linear-gradient"/><linearGradient id="linear-gradient-6" x1="2851.77" y1="621.7" x2="2848.2" y2="615.52" gradientTransform="translate(1964.27 -2132.33) rotate(120)" xlink:href="#linear-gradient-2"/><linearGradient id="linear-gradient-7" x1="-431.56" y1="-189.73" x2="-426.09" y2="-180.26" gradientTransform="matrix(0.5, -0.29, 0.87, 1.5, 386.73, 174.43)" gradientUnits="userSpaceOnUse"><stop offset="0" stop-color="#e8caa7"/><stop offset="0.06" stop-color="#f0d3b2"/><stop offset="0.16" stop-color="#f9ddbd"/><stop offset="0.3" stop-color="#fee2c4"/><stop offset="0.7" stop-color="#ffe4c6"/><stop offset="0.87" stop-color="#ffddb6"/><stop offset="1" stop-color="#ffd6a8"/></linearGradient><linearGradient id="linear-gradient-8" x1="0.59" y1="17.44" x2="6.55" y2="17.44" gradientUnits="userSpaceOnUse"><stop offset="0" stop-color="#ffe5c7"/><stop offset="0.4" stop-color="#ffe1be"/><stop offset="1" stop-color="#ffd6a8"/></linearGradient><linearGradient id="linear-gradient-9" x1="0" y1="7.76" x2="7.13" y2="7.76" gradientTransform="matrix(1, 0, 0, 1, 0, 0)" xlink:href="#linear-gradient"/><linearGradient id="linear-gradient-10" x1="2836.77" y1="630.35" x2="2833.21" y2="624.18" gradientTransform="translate(1964.27 -2132.33) rotate(120)" xlink:href="#linear-gradient-2"/><linearGradient id="linear-gradient-11" x1="0.58" y1="6.85" x2="6.56" y2="6.85" gradientTransform="matrix(1, 0, 0, 1, 0, 0)" xlink:href="#linear-gradient"/><linearGradient id="linear-gradient-12" x1="2835.49" y1="630.43" x2="2832.49" y2="625.25" gradientTransform="translate(1964.27 -2132.33) rotate(120)" xlink:href="#linear-gradient-2"/><linearGradient id="linear-gradient-13" x1="3128.05" y1="1315.4" x2="3128.91" y2="1315.4" xlink:href="#linear-gradient"/><linearGradient id="linear-gradient-14" x1="3132" y1="1314.53" x2="3130.99" y2="1312.79" xlink:href="#linear-gradient-2"/><linearGradient id="linear-gradient-15" x1="3151.53" y1="1283.08" x2="3152.39" y2="1283.08" xlink:href="#linear-gradient"/><linearGradient id="linear-gradient-16" x1="3155.48" y1="1282.21" x2="3154.47" y2="1280.47" xlink:href="#linear-gradient-2"/><linearGradient id="linear-gradient-17" x1="16.82" y1="35.35" x2="22.81" y2="35.35" gradientTransform="matrix(1, 0, 0, 1, 0, 0)" xlink:href="#linear-gradient"/><linearGradient id="linear-gradient-18" x1="2848.09" y1="597.48" x2="2852.3" y2="601.69" xlink:href="#linear-gradient-4"/><linearGradient id="linear-gradient-19" x1="16.25" y1="34.46" x2="23.38" y2="34.46" gradientTransform="matrix(1, 0, 0, 1, 0, 0)" xlink:href="#linear-gradient"/><linearGradient id="linear-gradient-20" x1="2851.77" y1="602.94" x2="2848.2" y2="596.76" gradientTransform="translate(1964.27 -2132.33) rotate(120)" xlink:href="#linear-gradient-2"/><linearGradient id="linear-gradient-21" x1="16.84" y1="26.82" x2="22.79" y2="26.82" xlink:href="#linear-gradient-8"/><linearGradient id="linear-gradient-22" x1="16.25" y1="17.14" x2="23.38" y2="17.14" gradientTransform="matrix(1, 0, 0, 1, 0, 0)" xlink:href="#linear-gradient"/><linearGradient id="linear-gradient-23" x1="2836.77" y1="611.59" x2="2833.21" y2="605.41" gradientTransform="translate(1964.27 -2132.33) rotate(120)" xlink:href="#linear-gradient-2"/><linearGradient id="linear-gradient-24" x1="16.82" y1="16.23" x2="22.81" y2="16.23" gradientTransform="matrix(1, 0, 0, 1, 0, 0)" xlink:href="#linear-gradient"/><linearGradient id="linear-gradient-25" x1="2835.49" y1="611.67" x2="2832.49" y2="606.49" gradientTransform="translate(1964.27 -2132.33) rotate(120)" xlink:href="#linear-gradient-2"/><linearGradient id="linear-gradient-26" x1="3128.05" y1="1296.64" x2="3128.91" y2="1296.64" xlink:href="#linear-gradient"/><linearGradient id="linear-gradient-27" x1="3132" y1="1295.77" x2="3130.99" y2="1294.03" xlink:href="#linear-gradient-2"/></defs><title>papyrus_02</title><g id="Layer_2" data-name="Layer 2"><g id="Layer_1-2" data-name="Layer 1"><path class="cls-1" d="M3.07,27.67c-.13-.06-.17-.15-.15-.23a.37.37,0,0,1,.22-.23,1,1,0,0,1,.85,0,.39.39,0,0,1,.23.23.23.23,0,0,1-.16.23A1.31,1.31,0,0,1,3.07,27.67Z"/><path class="cls-2" d="M3.15,34.36a.39.39,0,0,1-.23-.23,16.16,16.16,0,0,1,0-6.69c0,.08,0,.17.15.23a1.31,1.31,0,0,0,1,0,.23.23,0,0,0,.16-.23,15.88,15.88,0,0,1,0,6.69.39.39,0,0,1-.23.23A1,1,0,0,1,3.15,34.36Z"/><path class="cls-3" d="M1.45,27.19a1.72,1.72,0,0,1-.8-.84A.83.83,0,0,1,.58,26a1.47,1.47,0,0,1,.87-1.22,4.7,4.7,0,0,1,4.23,0A1.48,1.48,0,0,1,6.56,26a1,1,0,0,1-.07.38,1.75,1.75,0,0,1-.81.84A4.64,4.64,0,0,1,1.45,27.19Z"/><path class="cls-4" d="M1.45,27.75a1.47,1.47,0,0,1-.87-1.23V26a1.49,1.49,0,0,0,.87,1.22,4.64,4.64,0,0,0,4.23,0A1.5,1.5,0,0,0,6.56,26v.55a1.48,1.48,0,0,1-.88,1.23A4.7,4.7,0,0,1,1.45,27.75Z"/><path class="cls-5" d="M1,26.54a2.11,2.11,0,0,1-.95-1A1.2,1.2,0,0,1,0,25.08a1.78,1.78,0,0,1,1-1.46,5.61,5.61,0,0,1,5.05,0,1.74,1.74,0,0,1,1,1.46,1,1,0,0,1-.08.45,2,2,0,0,1-1,1A5.58,5.58,0,0,1,1,26.54Z"/><path class="cls-6" d="M1,27.23a1.78,1.78,0,0,1-1-1.46v-.69a1.82,1.82,0,0,0,1,1.46,5.58,5.58,0,0,0,5.05,0,1.77,1.77,0,0,0,1-1.45v.69a1.74,1.74,0,0,1-1,1.46A5.55,5.55,0,0,1,1,27.23Z"/><path class="cls-7" d="M20.41,33.22s-1.5-.69-3.34-1.62c-.89-.45-1.45-2.06-2.58-2a3.81,3.81,0,0,1-2.71-1s-2.6-3-4.22-3.07-4.17-2.15-4.17-2.15V7.77a6.61,6.61,0,0,1,1.67.8C5.94,9.15,6.9,10.2,7.73,10s1.66,1.28,2.6,2.22a2,2,0,0,0,1.26.47,1.22,1.22,0,0,1,.56.17,11.94,11.94,0,0,1,2,1.3c.83.69,2.2.71,3,1.54a6.07,6.07,0,0,0,3.32,1.86Z"/><path class="cls-8" d="M6.55,8.25V24.91a1.47,1.47,0,0,1-.87,1.21,4.7,4.7,0,0,1-4.12.06h0a1.58,1.58,0,0,1-1-1.27V8.25a1.55,1.55,0,0,0,1,1.27,4.69,4.69,0,0,0,4.12,0A1.48,1.48,0,0,0,6.55,8.25Z"/><path class="cls-9" d="M6.74,8.29a1.58,1.58,0,0,1-.93,1.3,4.94,4.94,0,0,1-4.49,0,1.58,1.58,0,0,1-.93-1.3A1.58,1.58,0,0,1,1.32,7C3.32,5.84,6.74,6.67,6.74,8.29Z"/><path class="cls-10" d="M1,9.22a2.11,2.11,0,0,1-.95-1A1.2,1.2,0,0,1,0,7.76,1.78,1.78,0,0,1,1,6.31a5.55,5.55,0,0,1,5.05,0,1.74,1.74,0,0,1,1,1.45,1,1,0,0,1-.08.45,2.09,2.09,0,0,1-1,1A5.61,5.61,0,0,1,1,9.22Z"/><path class="cls-11" d="M1,9.92A1.79,1.79,0,0,1,0,8.46v-.7A1.81,1.81,0,0,0,1,9.22a5.61,5.61,0,0,0,5.05,0,1.77,1.77,0,0,0,1-1.46v.7a1.75,1.75,0,0,1-1,1.46A5.61,5.61,0,0,1,1,9.92Z"/><path class="cls-12" d="M1.45,8.07a1.74,1.74,0,0,1-.8-.85.81.81,0,0,1-.07-.37,1.45,1.45,0,0,1,.87-1.22,4.67,4.67,0,0,1,4.23,0,1.48,1.48,0,0,1,.88,1.23,1,1,0,0,1-.07.37,1.76,1.76,0,0,1-.81.85A4.7,4.7,0,0,1,1.45,8.07Z"/><path class="cls-13" d="M1.45,8.62A1.47,1.47,0,0,1,.58,7.4V6.85a1.5,1.5,0,0,0,.87,1.22,4.7,4.7,0,0,0,4.23,0,1.51,1.51,0,0,0,.88-1.22V7.4a1.48,1.48,0,0,1-.88,1.22A4.67,4.67,0,0,1,1.45,8.62Z"/><path class="cls-14" d="M3.07.56C2.94.5,2.9.41,2.92.33S3,.16,3.14.1A1,1,0,0,1,4,.1a.37.37,0,0,1,.23.23.23.23,0,0,1-.16.23A1.31,1.31,0,0,1,3.07.56Z"/><path class="cls-15" d="M3.15,7.25A.42.42,0,0,1,2.92,7,15.56,15.56,0,0,1,2.57,3.7,15.35,15.35,0,0,1,2.92.33c0,.08,0,.17.15.23a1.31,1.31,0,0,0,1,0A.23.23,0,0,0,4.22.33,15.88,15.88,0,0,1,4.22,7,.42.42,0,0,1,4,7.25,1,1,0,0,1,3.15,7.25Z"/><path class="cls-16" d="M19.32,37.05a.23.23,0,0,1-.16-.23.39.39,0,0,1,.23-.23,1,1,0,0,1,.85,0,.4.4,0,0,1,.22.23c0,.08,0,.17-.15.23A1.31,1.31,0,0,1,19.32,37.05Z"/><path class="cls-17" d="M19.39,43.74a.4.4,0,0,1-.22-.23,15.17,15.17,0,0,1-.36-3.31,16.11,16.11,0,0,1,.35-3.38.23.23,0,0,0,.16.23,1.31,1.31,0,0,0,1,0c.12-.06.17-.15.15-.23a15.88,15.88,0,0,1,0,6.69.39.39,0,0,1-.23.23A1,1,0,0,1,19.39,43.74Z"/><path class="cls-18" d="M17.7,36.58a1.81,1.81,0,0,1-.81-.85,1.22,1.22,0,0,1-.07-.38,1.48,1.48,0,0,1,.88-1.22,4.7,4.7,0,0,1,4.23,0,1.5,1.5,0,0,1,.88,1.22,1,1,0,0,1-.08.38,1.68,1.68,0,0,1-.8.84A4.67,4.67,0,0,1,17.7,36.58Z"/><path class="cls-19" d="M17.7,37.13a1.48,1.48,0,0,1-.88-1.22v-.56a1.53,1.53,0,0,0,.88,1.23,4.67,4.67,0,0,0,4.23,0,1.5,1.5,0,0,0,.88-1.22v.56a1.48,1.48,0,0,1-.88,1.22A4.7,4.7,0,0,1,17.7,37.13Z"/><path class="cls-20" d="M17.29,35.92a2.09,2.09,0,0,1-1-1,1.42,1.42,0,0,1-.08-.45,1.78,1.78,0,0,1,1-1.46,5.61,5.61,0,0,1,5.05,0,1.78,1.78,0,0,1,1,1.46,1.42,1.42,0,0,1-.08.45,2.09,2.09,0,0,1-1,1A5.61,5.61,0,0,1,17.29,35.92Z"/><path class="cls-21" d="M17.29,36.61a1.78,1.78,0,0,1-1-1.45v-.7a1.82,1.82,0,0,0,1,1.46,5.61,5.61,0,0,0,5.05,0,1.82,1.82,0,0,0,1-1.46v.7a1.78,1.78,0,0,1-1,1.45A5.55,5.55,0,0,1,17.29,36.61Z"/><path class="cls-22" d="M22.79,17.63V34.29a1.47,1.47,0,0,1-.87,1.21,4.68,4.68,0,0,1-4.11.06h0a1.58,1.58,0,0,1-1-1.27V17.63a1.55,1.55,0,0,0,1,1.27,4.67,4.67,0,0,0,4.11,0A1.48,1.48,0,0,0,22.79,17.63Z"/><path class="cls-9" d="M23,17.67a1.58,1.58,0,0,1-.93,1.3,4.94,4.94,0,0,1-4.49,0,1.58,1.58,0,0,1-.93-1.3,1.58,1.58,0,0,1,.93-1.29C19.57,15.22,23,16.05,23,17.67Z"/><path class="cls-23" d="M17.29,18.6a2.09,2.09,0,0,1-1-1,1.42,1.42,0,0,1-.08-.45,1.78,1.78,0,0,1,1-1.45,5.55,5.55,0,0,1,5.05,0,1.78,1.78,0,0,1,1,1.45,1.42,1.42,0,0,1-.08.45,2.09,2.09,0,0,1-1,1A5.61,5.61,0,0,1,17.29,18.6Z"/><path class="cls-24" d="M17.29,19.3a1.79,1.79,0,0,1-1-1.46v-.7a1.81,1.81,0,0,0,1,1.46,5.61,5.61,0,0,0,5.05,0,1.81,1.81,0,0,0,1-1.46v.7a1.79,1.79,0,0,1-1,1.46A5.61,5.61,0,0,1,17.29,19.3Z"/><path class="cls-25" d="M17.7,17.45a1.76,1.76,0,0,1-.81-.85,1.21,1.21,0,0,1-.07-.37A1.47,1.47,0,0,1,17.7,15a4.64,4.64,0,0,1,4.23,0,1.48,1.48,0,0,1,.88,1.22,1,1,0,0,1-.08.37,1.69,1.69,0,0,1-.8.85A4.7,4.7,0,0,1,17.7,17.45Z"/><path class="cls-26" d="M17.7,18a1.48,1.48,0,0,1-.88-1.22v-.55a1.51,1.51,0,0,0,.88,1.22,4.7,4.7,0,0,0,4.23,0,1.51,1.51,0,0,0,.88-1.22v.55A1.48,1.48,0,0,1,21.93,18,4.64,4.64,0,0,1,17.7,18Z"/><path class="cls-27" d="M19.32,9.94a.23.23,0,0,1-.16-.23.37.37,0,0,1,.23-.23,1,1,0,0,1,.85,0,.38.38,0,0,1,.22.23c0,.08,0,.17-.15.23A1.31,1.31,0,0,1,19.32,9.94Z"/><path class="cls-28" d="M19.39,16.63a.43.43,0,0,1-.22-.23,15.21,15.21,0,0,1-.36-3.32,16.08,16.08,0,0,1,.35-3.37.23.23,0,0,0,.16.23,1.31,1.31,0,0,0,1,0c.12-.06.17-.15.15-.23a15.88,15.88,0,0,1,0,6.69.42.42,0,0,1-.23.23A1,1,0,0,1,19.39,16.63Z"/></g></g></svg>