<svg xmlns="http://www.w3.org/2000/svg" xmlns:xlink="http://www.w3.org/1999/xlink" viewBox="0 0 13.13 8.67"><defs><style>.cls-1{fill:#956f50;}.cls-2{fill:#69472a;}.cls-3{fill:url(#Безымянный_градиент_10);}</style><linearGradient id="Безымянный_градиент_10" x1="-0.26" y1="6.82" x2="2.99" y2="6.82" gradientTransform="matrix(-1, 0, 0, 1, 12.87, 0)" gradientUnits="userSpaceOnUse"><stop offset="0" stop-color="#fb4c3c"/><stop offset="1" stop-color="#fd6b1c"/></linearGradient></defs><title>pil_01</title><g id="Layer_2" data-name="Layer 2"><g id="Layer_1-2" data-name="Layer 1"><path class="cls-1" d="M10.1,6.36a.45.45,0,0,1-.19-.05L1,1A.37.37,0,0,1,.85.51.37.37,0,0,1,1.36.38l8.93,5.29a.37.37,0,0,1,.13.51A.38.38,0,0,1,10.1,6.36Z"/><polygon class="cls-2" points="2.15 0.29 1.42 0.84 1.29 1.75 0 0 2.15 0.29"/><polygon class="cls-3" points="9.9 6.06 9.88 7.69 10.21 7.89 10.23 6.26 10.56 6.45 10.54 8.08 10.87 8.28 10.88 6.65 11.21 6.84 11.2 8.47 11.52 8.66 11.54 7.04 11.88 7.24 12.05 6.95 11.71 6.75 13.13 5.95 12.8 5.76 11.38 6.55 11.05 6.36 12.48 5.56 12.15 5.37 10.73 6.17 10.4 5.97 11.82 5.17 11.49 4.98 10.07 5.78 9.9 6.06"/></g></g></svg>