<svg xmlns="http://www.w3.org/2000/svg" viewBox="0 0 183.77 157.07"><defs><style>.cls-1{fill:#badfe5;}.cls-2{fill:#fff;}</style></defs><title>sky_01</title><g id="Layer_2" data-name="Layer 2"><g id="Layer_1-2" data-name="Layer 1"><g id="cloud"><path class="cls-1" d="M177.59,32.1,167.11,26v0c-3.74-2.44-9.2-2.21-15.3,1.32L148,29.59a16.2,16.2,0,0,0-2-7.8h4.7l-10.18-5.86h0a16.12,16.12,0,0,0-16.84-.48l-9,5.13a27.74,27.74,0,0,0-3.23-12h4.9L105.19,2.07h0C99.38-1.21,91.39-.71,82.55,4.39,64.75,14.67,50.31,39.67,50.31,60.24v3.65L39.54,70.11A38.27,38.27,0,0,0,20.4,103.26C9.13,109.77,0,124.93,0,137.13c0,6,2.21,10.14,5.78,12.06h0l11.08,6.39.47-6.65a26,26,0,0,0,3.07-1.49L151.79,71.57c11.27-6.5,20.4-21.67,20.41-33.87a18.77,18.77,0,0,0-.8-5.6Z"/><path class="cls-2" d="M163.38,34.06l-3.81,2.2a16.26,16.26,0,0,0-24.29-14.13l-9,5.12C125.15,8.5,111.2,1.2,94.13,11.06,76.32,21.34,61.88,46.34,61.88,66.91v3.65L51.11,76.78A38.28,38.28,0,0,0,32,109.94c-11.27,6.5-20.4,21.66-20.4,33.86S20.7,160.62,32,154.12l131.4-75.87c11.26-6.51,20.4-21.67,20.4-33.87S174.65,27.56,163.38,34.06Z"/></g></g></g></svg>