<svg xmlns="http://www.w3.org/2000/svg" viewBox="0 0 69.27 44.94"><defs><style>.cls-1{isolation:isolate;}.cls-2{fill:#a94911;}.cls-3{fill:#fcc07e;}.cls-4{fill:#faa819;}.cls-5{fill:#f6921e;}</style></defs><title>solur_01</title><g id="Layer_2" data-name="Layer 2"><g id="Layer_1-2" data-name="Layer 1"><g class="cls-1"><path class="cls-2" d="M.07,26.3h0c0,.18,0,.36.07.54a.59.59,0,0,1,0,.13c0,.17.06.35.1.52v0c0,.18.09.35.13.53a.93.93,0,0,1,0,.13l.15.51v0c.06.17.12.35.19.52a.69.69,0,0,0,0,.13c.06.16.13.33.2.49v0l.24.52.06.13.25.47,0,0c.1.17.19.34.29.5l.08.13.29.46,0,0c.11.17.23.33.35.49l.09.12c.1.15.22.3.33.45l0,0,.39.48.1.12L4,34.3l.05.06.44.46.11.11.42.41.06.06.48.44.13.11.46.39.06.06.54.43.13.1.49.37.08.06.58.41a.71.71,0,0,1,.14.1l.53.35.09.06.62.39.16.09.56.33.1.06.66.37.16.09.6.31.11.06.7.34.17.08.63.29.13.06.73.32.18.07.66.27.1,0h0l.87.33.18.07.89.31.12,0,.87.28.12,0,.93.28.1,0,.12,0,.64.18.16,0,.81.21.2.05.63.15.25,0,.72.16.1,0h0l1.39.27h0c.48.09,1,.17,1.45.24l.54.08.41.06.28,0,1,.12.13,0,.89.09.31,0,.31,0h.21l1.31.1h.18c.49,0,1,0,1.46.06h2l1.57,0h.22l.61,0h.27l.68,0h.16l.83,0,.22,0,.62,0h.24l1-.1h.07l.89-.11.21,0,.93-.12.13,0,.83-.13.12,0h0l1.38-.25h.06l1.41-.29.07,0,1.32-.31.13,0,1.25-.34.08,0,.11,0,.48-.14.23-.07.65-.2h0l.68-.22.21-.08.46-.16.24-.08.44-.17.23-.08.49-.19.16-.06.64-.26.15-.07.48-.2.22-.1.41-.19.22-.1.42-.2.19-.09.57-.28h0l.58-.31.18-.09.4-.22.2-.12.37-.21.19-.11.41-.25.14-.09.52-.33,0,0,.15-.09.31-.21.19-.13.28-.2.19-.14.27-.19.19-.15.25-.19.19-.15.24-.2.19-.15.24-.2.18-.16.23-.2.17-.16.23-.21.13-.12,0,0c.16-.15.32-.3.47-.46l.11-.11c.13-.13.26-.27.38-.41l.09-.09.42-.49.09-.11c.12-.14.23-.28.34-.43l.06-.07,0,0q.18-.23.33-.45l0-.06.27-.39.09-.15.21-.32.09-.16.21-.36,0-.09v0l.15-.28c0-.05,0-.1.08-.14s.14-.29.2-.43.18-.4.26-.6,0-.12.08-.19.08-.19.11-.28l0-.14.06-.17c0-.16.1-.31.14-.46a.65.65,0,0,0,0-.13c.06-.2.11-.39.15-.58l0-.13.06-.29,0-.16,0-.18c0-.16,0-.31.07-.47s0-.08,0-.12,0-.38,0-.57a.76.76,0,0,1,0-.15c0-.09,0-.18,0-.27V19.77c0,.18,0,.36,0,.54a.66.66,0,0,0,0,.14c0,.19,0,.38,0,.58,0,0,0,.08,0,.12s0,.3-.07.46l0,.18-.09.45,0,.14q-.06.29-.15.57a.5.5,0,0,1,0,.13c0,.16-.09.31-.14.46l-.06.18-.16.42c0,.06,0,.12-.08.19s-.16.4-.26.6-.13.28-.2.42l-.08.14-.15.28-.06.11-.21.37-.09.15-.21.32-.09.15-.27.4,0,.06a4.59,4.59,0,0,1-.33.44.76.76,0,0,1-.08.11l-.34.42-.09.12-.42.48-.09.1-.38.41-.11.1c-.15.16-.31.32-.47.47l-.15.14-.23.22-.17.15-.23.21-.18.15-.24.2-.19.16-.24.19-.19.15-.25.2-.19.14-.27.2-.19.14-.28.19-.19.13-.31.21-.17.11-.52.34-.14.08-.41.25-.19.11-.37.22-.2.11-.4.22-.18.1-.58.3h0l-.57.29-.19.09-.42.2-.22.1-.41.19-.22.09-.48.21-.15.06-.64.26-.16.06-.49.19-.23.09-.44.16-.24.09-.46.16-.21.07-.68.22h0l-.65.21-.23.06-.48.14-.19.06L48.64,38l-.14,0-1.32.32h-.07c-.46.11-.93.2-1.41.3h-.06l-1.38.25-.18,0-.81.13-.14,0-.93.13-.21,0-.89.1H41l-.94.09-.25,0-.62.06H39l-.83.06H38l-.68,0h-.27l-.61,0h-.22l-1.57,0h-2l-1.46-.07h-.18l-1.31-.09-.53-.05-.3,0c-.3,0-.59-.06-.89-.09H27.9l-1-.13-.28,0L25.67,39l-1.45-.24h0c-.46-.08-.93-.17-1.38-.27l-.13,0L22,38.27l-.25-.06-.63-.15-.2-.05-.81-.2-.16-.05-.64-.17-.22-.06-.93-.28-.12,0-.87-.28-.12,0-.89-.32-.18-.06-.87-.33-.13,0-.66-.27-.18-.08-.73-.32-.13-.05-.62-.29L12.44,35l-.7-.34-.11-.06-.6-.31-.16-.09-.66-.36-.1-.06-.56-.33-.16-.1L8.77,33l-.09-.06-.53-.35L8,32.48c-.2-.13-.39-.27-.58-.41l-.08,0-.49-.38-.13-.1-.54-.43-.06-.06c-.16-.12-.31-.25-.46-.38a.69.69,0,0,0-.13-.11l-.48-.45L5,30.06l-.42-.41-.11-.12c-.15-.15-.3-.3-.44-.46L4,29l-.38-.43-.1-.11L3.11,28l0-.05-.34-.44a.83.83,0,0,0-.08-.12L2.3,26.9l0,0L2,26.39l-.08-.12-.29-.51,0,0-.25-.48-.06-.13L1,24.61v0c-.07-.17-.14-.33-.2-.49a.78.78,0,0,1,0-.14c-.07-.17-.13-.34-.19-.52v0l-.15-.5a.5.5,0,0,0,0-.13c0-.18-.09-.36-.13-.54h0c0-.18-.07-.35-.1-.52a.68.68,0,0,0,0-.14c0-.18-.05-.36-.07-.54h0c0-.17,0-.35,0-.53v-.14c0-.18,0-.36,0-.54v5.28c0,.18,0,.37,0,.55v.13C0,25.94.05,26.12.07,26.3Z" transform="translate(0)"/></g><path class="cls-2" d="M22.36,6.76l1.82-.6-.41-.4-.42.14L22,4.52l-.46.15a.48.48,0,0,1-.2.28,1.52,1.52,0,0,1-.46.23l-.06,0,.39.39.11,0a1.43,1.43,0,0,0,.31-.12l.79.79L22,6.36Z" transform="translate(0)"/><path class="cls-2" d="M8.1,13l0,0,.67.23.07-.06A.76.76,0,0,0,9,13l1.37.46-.25.24.7.24,1.05-1.05-.7-.23-.24.24-2.4-.79-.26.26a.35.35,0,0,1,.06.29A.58.58,0,0,1,8.1,13Z" transform="translate(0)"/><path class="cls-2" d="M47.77,32.76a.86.86,0,0,1,.27,0,.67.67,0,0,1,.28.06l.76-.29a1.56,1.56,0,0,0-.79-.21h-.07a3.05,3.05,0,0,0-.95.16,1.43,1.43,0,0,0-.78.49.41.41,0,0,0,.09.54,1.17,1.17,0,0,0,.74.31h.21a2.25,2.25,0,0,0,.76-.13,1.41,1.41,0,0,0,.59-.33l.33.35L48.12,34,47.94,34l-.51.17.46.45,2.23-.74-.82-.94-.79.09a.5.5,0,0,1-.31.24.75.75,0,0,1-.26,0h-.07a.49.49,0,0,1-.29-.13q-.12-.12-.06-.21A.47.47,0,0,1,47.77,32.76Z" transform="translate(0)"/><path class="cls-2" d="M61.31,19.5,61.24,19a1.58,1.58,0,0,0-.92.24.72.72,0,0,0-.3.62.79.79,0,0,0,.29.63,1.2,1.2,0,0,0,.79.24,1.44,1.44,0,0,0,.54-.1.55.55,0,0,0,.29-.29.48.48,0,0,0,.27.23,1.06,1.06,0,0,0,.45.08,1.22,1.22,0,0,0,.7-.19.71.71,0,0,0,.28-.6.74.74,0,0,0-.26-.59,1.29,1.29,0,0,0-.78-.23l-.05.54c.26,0,.39.09.39.23a.18.18,0,0,1-.09.15.53.53,0,0,1-.26.06.43.43,0,0,1-.3-.09.26.26,0,0,1-.11-.19H61.6c0,.22-.16.33-.44.33a.62.62,0,0,1-.29-.06.2.2,0,0,1-.12-.19C60.75,19.61,60.94,19.51,61.31,19.5Z" transform="translate(0)"/><path class="cls-2" d="M59.07,12a.69.69,0,0,1-.22,0h-.12a5.1,5.1,0,0,1-.72-.15,5,5,0,0,0-.58-.12,3.73,3.73,0,0,0-.46,0h0a3.17,3.17,0,0,0-.87.15l-.09,0,1.4,1.39,1-.3L58,12.58l-.26.08-.55-.55h0a1.37,1.37,0,0,1,.34,0l.61.2a3.26,3.26,0,0,0,.86.23h.14a1.49,1.49,0,0,0,.43-.07c.27-.09.43-.23.47-.41a.69.69,0,0,0-.26-.59,1.59,1.59,0,0,0-.69-.4,1.37,1.37,0,0,0-.36,0,2.1,2.1,0,0,0-.58.09l.42.46a1,1,0,0,1,.32-.06.37.37,0,0,1,.3.11c.06.06.08.11.05.16A.26.26,0,0,1,59.07,12Z" transform="translate(0)"/><path class="cls-3" d="M37.87,19.87c0-1-1.45-1.86-3.23-1.86s-3.23.83-3.23,1.86,1.44,1.85,3.23,1.85S37.87,20.89,37.87,19.87Z" transform="translate(0)"/><path class="cls-3" d="M43.84,2.07,41,8.09a28.22,28.22,0,0,1,8.2,2.71l7.68-4.41A42.09,42.09,0,0,0,43.84,2.07Zm5,5.06-.4.4-1.82-.6.41-.4.43.14.79-.79a1.57,1.57,0,0,1-.34-.09.23.23,0,0,1-.1,0l.38-.38.06,0a2.36,2.36,0,0,0,.59.11H49a1.28,1.28,0,0,0,.36,0l.46.15L48.38,7Z" transform="translate(0)"/><path class="cls-2" d="M19.28,7.78l1.82-.6-.4-.4-.42.14L18.89,5.54l-.45.15a.46.46,0,0,1-.2.27,1.38,1.38,0,0,1-.47.24l-.06,0,.39.39.12,0a1.54,1.54,0,0,0,.3-.12l.79.79-.43.14Z" transform="translate(0)"/><path class="cls-3" d="M25.43,2.07A42.58,42.58,0,0,0,12.36,6.39l7.69,4.41a28.17,28.17,0,0,1,8.19-2.71ZM19.28,7.78l-.4-.4.43-.14-.79-.79a1.54,1.54,0,0,1-.3.12l-.12,0-.39-.39.06,0A1.38,1.38,0,0,0,18.24,6a.46.46,0,0,0,.2-.27l.45-.15,1.39,1.38.42-.14.4.4Zm3.08-1-.4-.4.43-.14-.79-.79a1.43,1.43,0,0,1-.31.12l-.11,0-.39-.39.06,0A1.52,1.52,0,0,0,21.31,5a.48.48,0,0,0,.2-.28L22,4.52,23.35,5.9l.42-.14.41.4Z" transform="translate(0)"/><path class="cls-3" d="M12.14,11.53h0a.34.34,0,0,0,.27-.08c.06-.06,0-.12,0-.19a2.78,2.78,0,0,0-.69-.29,3.55,3.55,0,0,0-.8-.2h0a.34.34,0,0,0-.27.08c-.06.05,0,.11,0,.19a2.76,2.76,0,0,0,.7.29A3.39,3.39,0,0,0,12.14,11.53Z" transform="translate(0)"/><path class="cls-2" d="M10.77,11.9a3.41,3.41,0,0,0,1.05.18l.31,0a1.58,1.58,0,0,0,1-.39.53.53,0,0,0,.13-.66,1.57,1.57,0,0,0-.94-.61,3.3,3.3,0,0,0-1-.18l-.31,0a1.58,1.58,0,0,0-1,.39.52.52,0,0,0-.12.67A1.54,1.54,0,0,0,10.77,11.9Zm-.16-1.05a.34.34,0,0,1,.27-.08h0a3.55,3.55,0,0,1,.8.2,2.78,2.78,0,0,1,.69.29c.09.07.11.13,0,.19a.34.34,0,0,1-.27.08h0a3.39,3.39,0,0,1-.79-.2,2.76,2.76,0,0,1-.7-.29C10.57,11,10.55,10.9,10.61,10.85Z" transform="translate(0)"/><path class="cls-3" d="M18.83,11.5,11.14,7.09a19.72,19.72,0,0,0-7.54,7.5L14.1,16.2A13.14,13.14,0,0,1,18.83,11.5Zm-8,2.42-.7-.24.25-.24L9,13a.76.76,0,0,1-.16.2l-.07.06L8.07,13l0,0a.58.58,0,0,0,.2-.34.35.35,0,0,0-.06-.29l.26-.26,2.4.79.24-.24.7.23Zm2.3-2.25a1.58,1.58,0,0,1-1,.39l-.31,0a3.41,3.41,0,0,1-1.05-.18,1.54,1.54,0,0,1-.92-.6.52.52,0,0,1,.12-.67,1.58,1.58,0,0,1,1-.39l.31,0a3.3,3.3,0,0,1,1,.18,1.57,1.57,0,0,1,.94.61A.53.53,0,0,1,13.09,11.67Z" transform="translate(0)"/><path class="cls-3" d="M66.11,24.19a10.84,10.84,0,0,0,0-8.65l-10.5,1.61a7.23,7.23,0,0,1,0,5.43Zm-5.79-5a1.58,1.58,0,0,1,.92-.24l.07.52c-.37,0-.56.11-.56.3a.2.2,0,0,0,.12.19.62.62,0,0,0,.29.06c.28,0,.43-.11.44-.33h.57a.26.26,0,0,0,.11.19.43.43,0,0,0,.3.09.53.53,0,0,0,.26-.06.18.18,0,0,0,.09-.15c0-.14-.13-.22-.39-.23l.05-.54a1.29,1.29,0,0,1,.78.23.74.74,0,0,1,.26.59.71.71,0,0,1-.28.6,1.22,1.22,0,0,1-.7.19,1.06,1.06,0,0,1-.45-.08.48.48,0,0,1-.27-.23.55.55,0,0,1-.29.29,1.44,1.44,0,0,1-.54.1,1.2,1.2,0,0,1-.79-.24.79.79,0,0,1-.29-.63A.72.72,0,0,1,60.32,19.22Z" transform="translate(0)"/><path class="cls-2" d="M51,19.87c0-5.16-7.32-9.36-16.31-9.36s-16.32,4.2-16.32,9.36,7.32,9.35,16.32,9.35S51,25,51,19.87Zm-30.05,0c0-4.35,6.16-7.88,13.74-7.88s13.73,3.53,13.73,7.88-6.16,7.87-13.73,7.87S20.9,24.21,20.9,19.87Z" transform="translate(0)"/><path class="cls-4" d="M18.83,28.23c.39.25.8.48,1.22.7a28,28,0,0,0,8.19,2.71l.83.14.84.12a37.83,37.83,0,0,0,4.74.3,36.69,36.69,0,0,0,4.72-.3c.56-.07,1.11-.16,1.66-.26a28.17,28.17,0,0,0,8.19-2.71c.42-.22.83-.45,1.22-.7a13,13,0,0,0,4.73-4.7,4.16,4.16,0,0,0,.24-.47l.21-.48a7.23,7.23,0,0,0,0-5.43,9.12,9.12,0,0,0-.45-.95,13.12,13.12,0,0,0-4.73-4.7c-.39-.24-.79-.48-1.21-.7A28.22,28.22,0,0,0,41,8.09L40.2,8l-.83-.12a38.11,38.11,0,0,0-4.75-.3,36.69,36.69,0,0,0-4.72.3c-.56.07-1.11.16-1.66.26a28.17,28.17,0,0,0-8.19,2.71c-.42.22-.83.46-1.22.7a13.14,13.14,0,0,0-4.73,4.7l-.24.47c-.07.16-.14.32-.2.48a7.23,7.23,0,0,0,0,5.43,9.12,9.12,0,0,0,.45,1A13.12,13.12,0,0,0,18.83,28.23ZM34.64,10.51c9,0,16.31,4.2,16.31,9.36s-7.32,9.35-16.31,9.35S18.32,25,18.32,19.87,25.64,10.51,34.64,10.51Z" transform="translate(0)"/><path class="cls-4" d="M48.37,19.87c0-4.35-6.16-7.88-13.73-7.88S20.9,15.52,20.9,19.87s6.16,7.87,13.74,7.87S48.37,24.21,48.37,19.87Zm-17,0c0-1,1.44-1.86,3.23-1.86s3.23.83,3.23,1.86-1.45,1.85-3.23,1.85S31.41,20.89,31.41,19.87Z" transform="translate(0)"/><polygon class="cls-3" points="58.1 27.69 58.93 27.96 58.57 27.22 58.1 27.69"/><path class="cls-3" d="M34.9,35.22c0-.3-.16-.45-.47-.45s-.36.08-.36.26a.26.26,0,0,0,.1.2.5.5,0,0,0,.29.08A1.19,1.19,0,0,0,34.9,35.22Z" transform="translate(0)"/><path class="cls-5" d="M34.66,39.73C50,39.73,63.94,33.88,68.08,25c5-10.6-6-21.49-24.48-24.33a59.45,59.45,0,0,0-9-.68C19.32,0,5.33,5.85,1.19,14.73c-4.95,10.59,6,21.48,24.48,24.32A59.45,59.45,0,0,0,34.66,39.73Zm-22.3-6.39,7.69-4.41c-.43-.22-.83-.45-1.22-.7l-7.68,4.41A19.77,19.77,0,0,1,3.6,25.15l10.5-1.62a9.12,9.12,0,0,1-.45-1L3.15,24.19a10.88,10.88,0,0,1,0-8.65l10.5,1.61c.06-.16.13-.32.2-.48l.24-.47L3.6,14.59a19.72,19.72,0,0,1,7.54-7.5l7.69,4.41c.39-.24.8-.48,1.22-.7L12.36,6.39A42.58,42.58,0,0,1,25.43,2.07l2.81,6c.55-.1,1.1-.19,1.66-.26l-2.81-6a54.62,54.62,0,0,1,7.53-.51,55.19,55.19,0,0,1,7.56.51l-2.81,6L40.2,8l.83.14,2.81-6A42.09,42.09,0,0,1,56.91,6.39L49.23,10.8c.42.22.82.46,1.21.7l7.69-4.41a19.83,19.83,0,0,1,7.54,7.5L55.17,16.2a9.12,9.12,0,0,1,.45.95l10.5-1.61a10.84,10.84,0,0,1,0,8.65L55.62,22.58l-.21.48a4.16,4.16,0,0,1-.24.47l10.5,1.62a19.7,19.7,0,0,1-7.54,7.49l-7.69-4.41c-.39.25-.8.48-1.22.7l7.69,4.41a42.76,42.76,0,0,1-13.07,4.33l-2.81-6c-.55.1-1.1.19-1.66.26l2.81,6a54.61,54.61,0,0,1-7.53.52,55.32,55.32,0,0,1-7.56-.52l2.82-6-.84-.12-.83-.14-2.81,6A42.18,42.18,0,0,1,12.36,33.34Z" transform="translate(0)"/><path class="cls-2" d="M47,6.53l-.41.4,1.82.6.4-.4L48.38,7l1.39-1.38-.46-.15a1.28,1.28,0,0,1-.36,0H48.8a2.36,2.36,0,0,1-.59-.11l-.06,0-.38.38a.23.23,0,0,0,.1,0,1.57,1.57,0,0,0,.34.09l-.79.79Z" transform="translate(0)"/><path class="cls-3" d="M18.83,28.23a13.12,13.12,0,0,1-4.73-4.7L3.6,25.15a19.77,19.77,0,0,0,7.55,7.49Zm-8.21.33a1.62,1.62,0,0,1-1.14-.49c-.23-.23-.33-.43-.3-.61s.18-.3.43-.39a1.26,1.26,0,0,1,.92.06.29.29,0,0,1,0-.31.65.65,0,0,1,.38-.25,1.61,1.61,0,0,1,.48-.08,1.57,1.57,0,0,1,.37.05,1.78,1.78,0,0,1,.84.5c.25.25.36.47.31.65a.6.6,0,0,1-.46.39,1.29,1.29,0,0,1-.43.07,1.36,1.36,0,0,1-.61-.14.34.34,0,0,1,0,.26.6.6,0,0,1-.32.21A1.32,1.32,0,0,1,10.62,28.56Z" transform="translate(0)"/><path class="cls-3" d="M11.64,27.61a.85.85,0,0,0,.23,0,.36.36,0,0,0,.22-.16.21.21,0,0,0-.07-.21.52.52,0,0,0-.28-.13h-.1a.79.79,0,0,0-.25.05.32.32,0,0,0-.22.15c0,.06,0,.13.06.2a.6.6,0,0,0,.3.14Z" transform="translate(0)"/><path class="cls-3" d="M10.39,28a.63.63,0,0,0,.19,0c.1,0,.16-.08.18-.13s0-.12-.06-.19a.46.46,0,0,0-.22-.11h-.1l-.21,0a.33.33,0,0,0-.19.14.15.15,0,0,0,0,.17.49.49,0,0,0,.25.12Z" transform="translate(0)"/><path class="cls-2" d="M9.61,27.07c-.25.09-.4.22-.43.39s.07.38.3.61a1.62,1.62,0,0,0,1.14.49,1.32,1.32,0,0,0,.44-.08.6.6,0,0,0,.32-.21.34.34,0,0,0,0-.26,1.36,1.36,0,0,0,.61.14,1.29,1.29,0,0,0,.43-.07.6.6,0,0,0,.46-.39c.05-.18-.06-.4-.31-.65a1.78,1.78,0,0,0-.84-.5,1.57,1.57,0,0,0-.37-.05,1.61,1.61,0,0,0-.48.08.65.65,0,0,0-.38.25.29.29,0,0,0,0,.31,1.26,1.26,0,0,0-.92-.06Zm1.56.2a.32.32,0,0,1,.22-.15.79.79,0,0,1,.25-.05h.1a.52.52,0,0,1,.28.13.21.21,0,0,1,.07.21.36.36,0,0,1-.22.16.85.85,0,0,1-.23,0h-.11a.6.6,0,0,1-.3-.14C11.16,27.4,11.14,27.33,11.17,27.27Zm-1,.29.21,0h.1a.46.46,0,0,1,.22.11c.07.07.09.13.06.19s-.08.09-.18.13a.63.63,0,0,1-.19,0h-.11a.49.49,0,0,1-.25-.12.15.15,0,0,1,0-.17A.33.33,0,0,1,10.17,27.56Z" transform="translate(0)"/><path class="cls-3" d="M65.67,25.15l-10.5-1.62a13,13,0,0,1-4.73,4.7l7.69,4.41A19.7,19.7,0,0,0,65.67,25.15Zm-6.54,3.58-1.56-.52-.18.18-.54-.18L57,28l-.38-.13-.18.18-.61-.2.91-.91.62.2-.21.21.38.13.74-.73.73.11.64,1.3Z" transform="translate(0)"/><path class="cls-2" d="M56.77,27l-.91.91.61.2.18-.18L57,28l-.18.18.54.18.18-.18,1.56.52.54-.54L59,26.89l-.73-.11-.74.73-.38-.13.21-.21Zm1.8.25.36.74-.83-.27Z" transform="translate(0)"/><path class="cls-3" d="M20.05,28.93l-7.69,4.41a42.18,42.18,0,0,0,13.07,4.33l2.81-6A28,28,0,0,1,20.05,28.93Zm2.34,4.18L22,33a8.15,8.15,0,0,1-2,.67l1.08.35.24-.24.61.2-.6.6-2.43-.81.33-.33A7,7,0,0,0,21,32.66l-.39-.13.4-.4,1.75.58Z" transform="translate(0)"/><path class="cls-2" d="M18.91,33.75l2.43.81.6-.6-.61-.2-.24.24L20,33.65A8.15,8.15,0,0,0,22,33l.39.13.4-.4L21,32.13l-.4.4.39.13a7,7,0,0,1-1.79.76Z" transform="translate(0)"/><path class="cls-3" d="M42.18,37.92l-2.81-6a36.69,36.69,0,0,1-4.72.3,37.83,37.83,0,0,1-4.74-.3l-2.82,6a55.32,55.32,0,0,0,7.56.52A54.61,54.61,0,0,0,42.18,37.92Zm-8.69-1.61a.71.71,0,0,1-.44-.38l.88,0a.5.5,0,0,0,.43.16.45.45,0,0,0,.52-.46,1.94,1.94,0,0,1-.72.12,1.7,1.7,0,0,1-.81-.18.51.51,0,0,1-.32-.46c0-.21.13-.38.4-.51a2.5,2.5,0,0,1,2.11.07.86.86,0,0,1,.45.79.86.86,0,0,1-.41.74,2.23,2.23,0,0,1-1.22.27A2.68,2.68,0,0,1,33.49,36.31Z" transform="translate(0)"/><path class="cls-2" d="M34.36,36.05a.5.5,0,0,1-.43-.16l-.88,0a.71.71,0,0,0,.44.38,2.68,2.68,0,0,0,.87.12,2.23,2.23,0,0,0,1.22-.27.86.86,0,0,0,.41-.74.86.86,0,0,0-.45-.79,2.5,2.5,0,0,0-2.11-.07c-.27.13-.4.3-.4.51a.51.51,0,0,0,.32.46,1.7,1.7,0,0,0,.81.18,1.94,1.94,0,0,0,.72-.12A.45.45,0,0,1,34.36,36.05Zm.1-.74a.5.5,0,0,1-.29-.08.26.26,0,0,1-.1-.2c0-.18.12-.26.36-.26s.47.15.47.45A1.19,1.19,0,0,1,34.46,35.31Z" transform="translate(0)"/><path class="cls-3" d="M49.22,28.93A28.17,28.17,0,0,1,41,31.64l2.81,6a42.76,42.76,0,0,0,13.07-4.33Zm-1.79,5.19.51-.17.18.08,1.09-.36-.33-.35a1.41,1.41,0,0,1-.59.33,2.25,2.25,0,0,1-.76.13h-.21a1.17,1.17,0,0,1-.74-.31.41.41,0,0,1-.09-.54,1.43,1.43,0,0,1,.78-.49,3.05,3.05,0,0,1,.95-.16h.07a1.56,1.56,0,0,1,.79.21l-.76.29a.67.67,0,0,0-.28-.06.86.86,0,0,0-.27,0,.47.47,0,0,0-.25.16q-.06.09.06.21a.49.49,0,0,0,.29.13h.07a.75.75,0,0,0,.26,0,.5.5,0,0,0,.31-.24l.79-.09.82.94-2.23.74Z" transform="translate(0)"/><path class="cls-2" d="M31.86,4.94V5.4H34V4.94h-.48V3.35H33a1.07,1.07,0,0,1-.41.17,2.37,2.37,0,0,1-.61.08h-.07V4H32l.37,0v.91Z" transform="translate(0)"/><path class="cls-2" d="M36.53,4.09a4.23,4.23,0,0,1-.6.29,2.46,2.46,0,0,0-.46.23,1.29,1.29,0,0,0-.3.22.69.69,0,0,0-.21.51V5.4h2.79l0-.63h-.72l0,.17h-1.1a.56.56,0,0,1,.24-.16,4.26,4.26,0,0,1,.61-.2,2.87,2.87,0,0,0,.77-.32.4.4,0,0,0,.2-.32c0-.17-.13-.32-.39-.43a2.64,2.64,0,0,0-1-.16,2.61,2.61,0,0,0-1,.14A.56.56,0,0,0,35,4l.9,0c0-.19.13-.29.39-.29a.49.49,0,0,1,.27.06.17.17,0,0,1,.09.14A.22.22,0,0,1,36.53,4.09Z" transform="translate(0)"/><path class="cls-3" d="M39.37,7.83l2.81-6a55.19,55.19,0,0,0-7.56-.51,54.62,54.62,0,0,0-7.53.51l2.81,6a36.69,36.69,0,0,1,4.72-.3A38.11,38.11,0,0,1,39.37,7.83Zm-2.8-4.06a.49.49,0,0,0-.27-.06c-.26,0-.39.1-.39.29L35,4a.56.56,0,0,1,.4-.49,2.61,2.61,0,0,1,1-.14,2.64,2.64,0,0,1,1,.16c.26.11.39.26.39.43a.4.4,0,0,1-.2.32,2.87,2.87,0,0,1-.77.32,4.26,4.26,0,0,0-.61.2.56.56,0,0,0-.24.16H37l0-.17h.72l0,.63H35V5.34a.69.69,0,0,1,.21-.51,1.29,1.29,0,0,1,.3-.22,2.46,2.46,0,0,1,.46-.23,4.23,4.23,0,0,0,.6-.29.22.22,0,0,0,.13-.18A.17.17,0,0,0,36.57,3.77ZM34,5.4h-2.1V4.94h.5V4l-.37,0h-.13V3.6h.07a2.37,2.37,0,0,0,.61-.08A1.07,1.07,0,0,0,33,3.35h.53V4.94H34Z" transform="translate(0)"/><path class="cls-3" d="M65.67,14.59a19.83,19.83,0,0,0-7.54-7.5L50.44,11.5a13.12,13.12,0,0,1,4.73,4.7Zm-9.6-2.77a3.17,3.17,0,0,1,.87-.15h0a3.73,3.73,0,0,1,.46,0,5,5,0,0,1,.58.12,5.1,5.1,0,0,0,.72.15h.12a.69.69,0,0,0,.22,0,.26.26,0,0,0,.17-.12c0-.05,0-.1-.05-.16a.37.37,0,0,0-.3-.11,1,1,0,0,0-.32.06l-.42-.46a2.1,2.1,0,0,1,.58-.09,1.37,1.37,0,0,1,.36,0,1.59,1.59,0,0,1,.69.4.69.69,0,0,1,.26.59c0,.18-.2.32-.47.41a1.49,1.49,0,0,1-.43.07H59a3.26,3.26,0,0,1-.86-.23l-.61-.2a1.37,1.37,0,0,0-.34,0h0l.55.55.26-.08.36.36-1,.3L56,11.85Z" transform="translate(0)"/><path class="cls-3" d="M7.16,19.94a.18.18,0,0,0,.13-.16.36.36,0,0,0-.15-.26c-.53,0-.79.09-.79.27s.15.21.46.21A.82.82,0,0,0,7.16,19.94Z" transform="translate(0)"/><path class="cls-2" d="M8.31,20.08l.07.5A1.15,1.15,0,0,0,9,20.32a.64.64,0,0,0,.21-.49.75.75,0,0,0-.48-.7,3,3,0,0,0-1.28-.24,3,3,0,0,0-1.38.26.78.78,0,0,0-.47.66.68.68,0,0,0,.33.55,1.51,1.51,0,0,0,.91.24,1.6,1.6,0,0,0,.8-.19A.54.54,0,0,0,8,20a.52.52,0,0,0-.22-.42c.55,0,.82.11.82.3S8.5,20,8.31,20.08Zm-1.15-.14a.82.82,0,0,1-.35.06c-.31,0-.46-.07-.46-.21s.26-.27.79-.27a.36.36,0,0,1,.15.26A.18.18,0,0,1,7.16,19.94Z" transform="translate(0)"/><path class="cls-3" d="M3.16,15.54a10.88,10.88,0,0,0,0,8.65l10.5-1.61a7.23,7.23,0,0,1,0-5.43ZM9,20.32a1.15,1.15,0,0,1-.66.26l-.07-.5c.19,0,.28-.13.28-.25s-.27-.29-.82-.3A.52.52,0,0,1,8,20a.54.54,0,0,1-.31.46,1.6,1.6,0,0,1-.8.19A1.51,1.51,0,0,1,6,20.36a.68.68,0,0,1-.33-.55.78.78,0,0,1,.47-.66,3,3,0,0,1,1.38-.26,3,3,0,0,1,1.28.24.75.75,0,0,1,.48.7A.64.64,0,0,1,9,20.32Z" transform="translate(0)"/></g></g></svg>