<svg xmlns="http://www.w3.org/2000/svg" viewBox="0 0 85.23 57.07"><defs><style>.cls-1{fill:#a9bcb8;}.cls-2{fill:#5d746f;}.cls-3{fill:#869b96;}.cls-4{fill:#bed6d2;}.cls-5{fill:#75938b;}.cls-6{fill:#516661;}</style></defs><title>stein</title><g id="Layer_2" data-name="Layer 2"><g id="Layer_1-2" data-name="Layer 1"><path class="cls-1" d="M.07,47.17c.11-1,.37-2.13.64-3.39.79-3.63,2.18-7.09,3-10.72C5.13,26.48,6.36,19.79,8.87,13.5c1.46-3.66,5.79-5.05,9.29-6.9,3.26-1.72,6.69-4.2,10.07-4.25s7.44,1.67,11,1.91c3.23.21,5.2-.9,8.57-1.83C52,1.27,56.39,1.11,60.74.71c1.69-.15,4.75-1,6.45-.58,4.06,1.09,7.64,7.7,11,10.28-1.15,3.23,1.46,8.4,2.12,11.65,1.15,5.61,2.12,11.21,3.11,16.84.39,2.22,2.37,5,1.61,7-.58,1.53-4.28,3.74-5.53,4.64-3.08,2.23-7.65,6-11.55,6.49-4.11.49-10.32-1.71-14.41-2.38S45.19,52.2,41.3,52.06c-5.48-.19-11,.24-16.56.36-7,.15-13.9.95-20.82-.35C.38,51.4-.23,49.72.07,47.17Z"/><path class="cls-2" d="M50.45,36.44c.23,6-1.36,11.3-3,16.74,2.06.53,4.12,1.12,6.09,1.44,4.09.67,10.3,2.87,14.41,2.38,3.9-.47,8.47-4.26,11.55-6.49,1.25-.9,5-3.11,5.53-4.64.76-2-1.22-4.75-1.61-7-1-5.63-2-11.23-3.11-16.84-.66-3.25-3.27-8.42-2.12-11.65A12.1,12.1,0,0,1,77,9.31,24.84,24.84,0,0,1,70.18,13c-3.31,1.13-7.07,1-10.51,1.41-3,.35-6.83,1.65-9.83,1.27C49.78,22.66,50.19,29.49,50.45,36.44Z"/><path class="cls-3" d="M47.48,53.18c1.61-5.44,3.2-10.75,3-16.74-.25-6.62-.62-13.12-.61-19.74a4.92,4.92,0,0,0-1.23-1.61c-.84-.67-3-.88-4.12-1.28-3-1.06-5.8-2.33-8.68-3.6-7.17-3.18-11.19.64-18.35,1.65a55,55,0,0,1-7.86.3,6.68,6.68,0,0,0-.73,1.34c-2.51,6.29-3.74,13-5.18,19.56-.8,3.63-2.19,7.09-3,10.72C.44,45,.18,46.17.07,47.17c-.3,2.55.31,4.23,3.85,4.9,6.92,1.3,13.86.5,20.82.35,5.51-.12,11.08-.55,16.56-.36A32.48,32.48,0,0,1,48,53.32Z"/><path class="cls-4" d="M17.46,11.86c7.16-1,11.18-4.83,18.35-1.65,2.88,1.27,5.72,2.54,8.68,3.6,1.1.4,3.28.61,4.12,1.28a4.92,4.92,0,0,1,1.23,1.61v-1c3,.38,6.8-.92,9.83-1.27,3.44-.4,7.2-.28,10.51-1.41A24.84,24.84,0,0,0,77,9.31l0,0c-1.14-1.11-2.29-2.54-3.49-3.95-4.1,3.35-8.39,6.08-14,6.85-4.47.61-9.81.93-14.08,0-4.66-1.06-8.94-3.65-13.53-4.67-5.17-1.14-11.43,2.91-17.43,4.59A28.38,28.38,0,0,0,17.46,11.86Z"/><path class="cls-5" d="M7.12,49.89C6.43,48.94,4.37,47,4.17,46c-.43-2.1,1.38-5.75,1.63-8,.29-2.67-.4-7.58,2.7-8.54.47-.14,5.84,9.28,6.84,10.23,1.92,1.83,4.33,2.39,6.85,2.89,4.24.84,4,1.05,4.24,5.6-4.86.68-10.65-.55-15.24.7C9.55,49.25,9,50.38,7.12,49.89Z"/><path class="cls-5" d="M38.39,15.25c1.88.6,4.07,1.76,6.06,1.88a30.27,30.27,0,0,1,1.23,6.23c0,2.43-1.14,5-1.57,7.38-.84-.22-1.73-.18-2.59-.44,0-1.51.86-3.74.23-5.19-.35-.8-1.72-1.79-2.29-2.45A17.42,17.42,0,0,1,37.28,20c-.66-1.16-.67-2.53-1.57-3.53s-3-1.36-1.91-2.81C35.49,14.16,37,14.84,38.39,15.25Z"/><path class="cls-6" d="M59.67,14.43c-3,.35-6.83,1.65-9.83,1.27-.06,7,.35,13.79.61,20.74a31,31,0,0,1-.12,4,17.37,17.37,0,0,0,1-3.48c.66-3.85.85-8.84,2.74-12.33a23.79,23.79,0,0,1,7-7.26c3.25-2,7.53-2.59,10.6-4.95h0c-.51.22-1,.43-1.54.61C66.87,14.15,63.11,14,59.67,14.43Z"/></g></g></svg>