<svg xmlns="http://www.w3.org/2000/svg" viewBox="0 0 179.84 71.64"><defs><style>.cls-1{fill:#c49a79;}</style></defs><title>sti_01</title><g id="Layer_2" data-name="Layer 2"><g id="Layer_1-2" data-name="Layer 1"><path class="cls-1" d="M21.6,33.83c0,1.47,2.45,2.65,5.48,2.65s5.48-1.18,5.48-2.65-2.45-2.66-5.48-2.66S21.6,32.36,21.6,33.83Z"/><path class="cls-1" d="M21.6,23.23c0,1.46,2.45,2.66,5.48,2.66s5.48-1.2,5.48-2.66-2.45-2.67-5.48-2.67S21.6,21.76,21.6,23.23Z"/><path class="cls-1" d="M50.61,32.07c0,1.47,2.45,2.66,5.48,2.66s5.48-1.19,5.48-2.66-2.46-2.65-5.48-2.65S50.61,30.6,50.61,32.07Z"/><path class="cls-1" d="M0,14c0,1.47,2.45,2.66,5.48,2.66S11,15.49,11,14s-2.45-2.65-5.48-2.65S0,12.55,0,14Z"/><path class="cls-1" d="M.85,25.89c0,1.47,2.45,2.65,5.48,2.65s5.48-1.18,5.48-2.65-2.45-2.66-5.48-2.66S.85,24.42.85,25.89Z"/><path class="cls-1" d="M68.85,22.46c0,1.47,2.46,2.66,5.48,2.66s5.48-1.19,5.48-2.66-2.45-2.66-5.48-2.66S68.85,21,68.85,22.46Z"/><path class="cls-1" d="M68.85,11.86c0,1.47,2.46,2.66,5.48,2.66s5.48-1.19,5.48-2.66S77.36,9.2,74.33,9.2,68.85,10.39,68.85,11.86Z"/><path class="cls-1" d="M97.86,20.7c0,1.47,2.45,2.67,5.48,2.67s5.48-1.2,5.48-2.67-2.46-2.65-5.48-2.65S97.86,19.24,97.86,20.7Z"/><path class="cls-1" d="M47.25,2.65c0,1.47,2.45,2.67,5.48,2.67s5.48-1.2,5.48-2.67S55.76,0,52.73,0,47.25,1.19,47.25,2.65Z"/><path class="cls-1" d="M48.1,14.52c0,1.47,2.45,2.65,5.48,2.65s5.48-1.18,5.48-2.65-2.45-2.66-5.48-2.66S48.1,13.05,48.1,14.52Z"/><path class="cls-1" d="M98.86,69c0,1.46,2.46,2.65,5.49,2.65s5.48-1.19,5.48-2.65-2.46-2.67-5.48-2.67S98.86,67.52,98.86,69Z"/><path class="cls-1" d="M98.86,58.38c0,1.47,2.46,2.66,5.49,2.66s5.48-1.19,5.48-2.66-2.46-2.66-5.48-2.66S98.86,56.91,98.86,58.38Z"/><path class="cls-1" d="M127.87,67.23c0,1.47,2.45,2.66,5.48,2.66s5.48-1.19,5.48-2.66-2.45-2.66-5.48-2.66S127.87,65.76,127.87,67.23Z"/><path class="cls-1" d="M77.26,49.18c0,1.47,2.46,2.66,5.49,2.66s5.48-1.19,5.48-2.66-2.46-2.66-5.48-2.66S77.26,47.71,77.26,49.18Z"/><path class="cls-1" d="M78.11,61c0,1.47,2.46,2.66,5.48,2.66s5.48-1.19,5.48-2.66-2.45-2.66-5.48-2.66S78.11,59.57,78.11,61Z"/><path class="cls-1" d="M139.88,56.43c0,1.47,2.45,2.65,5.48,2.65s5.48-1.18,5.48-2.65-2.46-2.66-5.48-2.66S139.88,55,139.88,56.43Z"/><path class="cls-1" d="M139.88,45.82c0,1.47,2.45,2.67,5.48,2.67s5.48-1.2,5.48-2.67-2.46-2.66-5.48-2.66S139.88,44.36,139.88,45.82Z"/><path class="cls-1" d="M168.88,54.67c0,1.47,2.45,2.66,5.48,2.66s5.48-1.19,5.48-2.66S177.39,52,174.36,52,168.88,53.2,168.88,54.67Z"/><path class="cls-1" d="M118.28,36.62c0,1.47,2.45,2.66,5.48,2.66s5.48-1.19,5.48-2.66S126.78,34,123.76,34,118.28,35.15,118.28,36.62Z"/><path class="cls-1" d="M119.12,48.49c0,1.46,2.46,2.65,5.48,2.65s5.49-1.19,5.49-2.65-2.46-2.67-5.49-2.67S119.12,47,119.12,48.49Z"/></g></g></svg>