<svg xmlns="http://www.w3.org/2000/svg" viewBox="0 0 175.14 284.44"><defs><style>.cls-1{fill:#3f2203;}.cls-2{fill:#69472a;}.cls-3{fill:#2b2c2b;}.cls-4{fill:#535453;}.cls-5{fill:#7f807f;}.cls-6,.cls-8{opacity:0.27;fill:#eaeaea;font-family:PeskyPhoenicians, Pesky Phoenicians;}.cls-6{font-size:11.77px;}.cls-7{letter-spacing:0.15em;}.cls-8{font-size:8.12px;}.cls-9{letter-spacing:0.15em;}</style></defs><title>tavle</title><g id="Layer_2" data-name="Layer 2"><g id="Layer_1-2" data-name="Layer 1"><polygon class="cls-1" points="32.86 284.44 54.75 271.8 32.86 259.16 10.97 271.8 32.86 284.44"/><polygon class="cls-1" points="32.86 284.44 32.86 233.88 10.97 221.24 10.97 271.8 32.86 284.44"/><polygon class="cls-2" points="32.86 233.88 54.75 221.24 54.75 271.8 32.86 284.44 32.86 233.88"/><polygon class="cls-1" points="131.35 227.59 131.35 177.03 109.46 164.38 109.46 214.95 131.35 227.59"/><polygon class="cls-2" points="131.35 177.03 153.24 164.38 153.24 214.95 131.35 227.59 131.35 177.03"/><polygon class="cls-3" points="43.78 252.81 0 227.53 131.35 151.69 175.14 176.97 43.78 252.81"/><polygon class="cls-3" points="43.78 252.81 43.78 101.12 0 75.84 0 227.53 43.78 252.81"/><polygon class="cls-4" points="43.78 101.12 175.14 25.28 175.14 176.97 43.78 252.81 43.78 101.12"/><polygon class="cls-5" points="0 75.84 43.78 101.12 175.14 25.28 131.35 0 0 75.84"/><text class="cls-6" transform="matrix(0.87, -0.5, 0, 1, 54.82, 113.74)">tax<tspan class="cls-7" x="20.95" y="0">h</tspan><tspan x="28.85" y="0">ila con lorem</tspan><tspan x="0" y="14.13">ipsum albus humlesnurr</tspan><tspan x="0" y="28.25">lupus con gito ergo </tspan><tspan x="0" y="42.38">sum</tspan></text><text class="cls-8" transform="matrix(0.87, -0.5, 0, 1, 87.67, 138.53)">tax<tspan class="cls-9" x="14.46" y="0">h</tspan><tspan x="19.9" y="0">ila con lorem</tspan><tspan x="0" y="9.75">ipsum albus humlesnurr</tspan><tspan x="0" y="19.49">lupus con gito ergo </tspan><tspan x="0" y="29.24">sum</tspan></text><text class="cls-8" transform="matrix(0.87, -0.5, 0, 1, 60.3, 195.91)">tax<tspan class="cls-9" x="14.46" y="0">h</tspan><tspan x="19.9" y="0">ila con lorem</tspan><tspan x="0" y="9.75">ipsum albus humlesnurr</tspan><tspan x="0" y="19.49">lupus con gito ergo </tspan><tspan x="0" y="29.24">sum</tspan></text></g></g></svg>