<svg xmlns="http://www.w3.org/2000/svg" viewBox="0 0 23.29 31.5"><defs><style>.cls-1{fill:#ffd399;}.cls-2{fill:#e6ab5c;}.cls-3{fill:#ffc77b;}.cls-4{fill:#bf3f00;}.cls-5{fill:#8c5d11;}.cls-6{fill:#c98618;}.cls-7{fill:#f5b967;}.cls-8{fill:#faddb2;}.cls-9{fill:#fff1c4;}.cls-10{fill:#b07515;}</style></defs><title>tromme_01</title><g id="Layer_2" data-name="Layer 2"><g id="Layer_1-2" data-name="Layer 1"><polygon class="cls-1" points="15.41 22.92 15.74 23.42 14.85 23.85 13.85 24.15 12.76 24.34 12.91 23.93 12.98 23.7 13.69 23.58 14.61 23.3 15.41 22.92"/><polygon class="cls-1" points="11.64 23.81 11.66 24.4 10.52 24.34 9.44 24.15 8.42 23.84 8.69 23.3 9.61 23.58 10.61 23.75 11.64 23.81"/><polygon class="cls-2" points="21.92 12.82 21.69 13.97 21.38 15.07 20.98 16.13 20.49 17.16 19.89 18.17 19.58 18.6 19.71 18.23 19.79 17.9 20.25 16.98 20.63 16 20.92 14.96 21.14 13.88 21.32 12.84 22.01 12.09 21.92 12.82"/><polygon class="cls-2" points="11.69 23.99 11.66 24.4 11.64 23.81 11.64 16.1 11.64 15.81 11.67 15.81 11.7 16.47 11.69 23.99"/><polygon class="cls-2" points="19.19 14.18 19.12 14.68 19.06 15.88 18.95 17 18.79 18.05 18.57 19.02 18.29 19.93 17.94 20.76 17.51 21.52 17.01 22.22 16.43 22.84 15.74 23.42 15.41 22.92 16.06 22.37 16.62 21.77 17.1 21.1 17.51 20.36 17.85 19.56 18.12 18.69 18.33 17.74 18.49 16.72 18.59 15.62 18.65 14.43 18.65 14.43 19.19 14.18"/><polygon class="cls-2" points="6.39 18.42 6.56 19.34 6.77 20.18 7.04 20.95 7.36 21.65 7.74 22.27 8.18 22.82 8.69 23.3 8.42 23.84 7.87 23.33 7.41 22.76 7.02 22.12 6.68 21.4 6.41 20.6 6.19 19.73 6.01 18.77 5.89 17.74 5.8 16.63 5.75 15.44 5.7 14.85 6.14 14.98 6.14 15.14 6.18 16.32 6.27 17.41 6.39 18.42"/><polygon class="cls-3" points="1.41 12.8 1.55 13.95 1.37 12.89 1.22 11.7 1.21 11.6 1.32 11.58 1.32 11.59 1.41 12.8"/><polygon class="cls-2" points="5.43 20.81 5.85 21.57 5.93 21.68 5.04 20.86 4.24 20 3.55 19.09 2.96 18.15 2.48 17.18 2.08 16.16 1.78 15.09 1.56 13.97 1.55 13.95 1.41 12.8 1.32 11.59 1.32 11.58 1.67 11.51 1.94 11.8 2 12.73 2.15 13.88 2.37 14.96 2.66 16 3.04 16.98 3.51 17.93 3.98 18.82 4.52 19.66 5.14 20.46 5.4 20.73 5.43 20.81"/><polygon class="cls-4" points="21.14 13.88 20.92 14.96 20.63 16 20.25 16.98 19.79 17.9 19.96 17.23 20.16 16.16 20.28 15.02 20.35 13.82 20.43 13.46 21.3 12.85 21.32 12.84 21.14 13.88"/><polygon class="cls-4" points="18.65 14.43 18.59 15.62 18.49 16.72 18.33 17.74 18.12 18.69 17.85 19.56 17.51 20.36 17.1 21.1 16.62 21.77 16.06 22.37 15.41 22.92 14.61 23.3 13.69 23.58 12.98 23.7 13.07 23.43 13.2 22.84 13.32 22.18 13.41 21.42 13.49 20.58 13.55 19.66 13.57 19.14 13.64 16.36 13.7 15.7 13.91 15.69 16.02 15.32 16.02 14.79 17.64 14.29 18.16 14.66 18.65 14.43 18.65 14.43"/><polygon class="cls-4" points="11.64 16.1 11.64 23.81 10.61 23.75 9.61 23.58 8.69 23.3 8.18 22.82 7.74 22.27 7.36 21.65 7.04 20.95 6.77 20.18 6.56 19.34 6.39 18.42 6.27 17.41 6.18 16.32 6.14 15.14 6.14 14.98 7.13 15.29 7.51 14.87 9.46 15.2 9.46 15.69 11.64 15.81 11.64 16.1"/><polygon class="cls-4" points="5.08 19.98 5.4 20.73 5.14 20.46 4.52 19.66 3.98 18.82 3.51 17.93 3.04 16.98 2.66 16 2.37 14.96 2.15 13.88 2 12.73 1.94 11.8 2.03 11.9 2.04 12.89 3.43 13.86 4.14 14.2 4.25 14.73 4.31 15.92 4.42 17.05 4.58 18.1 4.8 19.07 5.08 19.98"/><polygon class="cls-5" points="18.18 12.2 18.16 14.66 17.64 14.29 17.66 11.83 18.18 12.2"/><polygon class="cls-5" points="7.5 12.41 7.51 14.87 7.13 15.29 7.12 12.83 7.5 12.41"/><polygon class="cls-5" points="1.67 11.51 1.32 11.58 1.21 11.6 0.89 11.66 0.86 9.19 1.64 9.05 1.67 11.51"/><polygon class="cls-5" points="1.03 5.2 0.98 5.46 0.94 5.46 0.92 4.08 1.52 4.26 1.03 5.2"/><polygon class="cls-5" points="13.84 0.13 13.84 0.34 13.8 0.33 13.84 0.13"/><polygon class="cls-5" points="7.38 0.71 7.38 0.71 7.27 0.75 7.27 0.5 7.38 0.71"/><polygon class="cls-5" points="21.28 2.93 21.27 3.63 20.82 3.15 21.28 2.93"/><polygon class="cls-5" points="23.07 7.94 23.05 10.4 22.35 10.36 22.35 10.36 22.36 9.28 22.25 9.24 22.25 9.24 22.26 7.88 23.07 7.94"/><polygon class="cls-6" points="11.64 12.88 13.76 12.76 15.79 12.41 16.02 12.86 13.92 13.23 11.64 13.36 9.45 13.23 9.53 12.76 11.64 12.88"/><polygon class="cls-6" points="5.63 11.83 7.5 12.41 7.12 12.83 5.18 12.23 3.41 11.4 2.01 10.43 2.65 10.12 3.99 11.06 5.63 11.83"/><polygon class="cls-7" points="6.64 1.6 5.27 2.25 5.14 2.32 4.93 2.46 4.93 2.46 4.59 2.62 3.35 3.49 2.44 4.48 1.87 5.55 1.7 6.54 1.68 6.41 1.87 5.29 2.44 4.22 3.35 3.23 4.59 2.36 6.11 1.65 7.83 1.12 9.7 0.8 11.64 0.69 13.59 0.8 15.46 1.12 17.18 1.65 18.69 2.36 19.93 3.23 20.86 4.22 21.42 5.29 21.61 6.41 21.59 6.54 21.42 5.55 20.86 4.48 19.93 3.49 18.69 2.62 18.36 2.46 18.15 2.32 18.02 2.25 16.65 1.6 15.1 1.12 13.4 0.83 11.64 0.73 9.89 0.83 8.2 1.12 6.64 1.6"/><polygon class="cls-6" points="21.33 10.39 19.88 11.4 18.18 12.2 17.66 11.83 19.3 11.06 20.64 10.12 21.64 9.05 22.25 9.24 22.36 9.28 21.33 10.39"/><polygon class="cls-6" points="23.07 5.38 23.29 6.68 23.07 7.94 22.26 7.88 22.47 6.67 22.47 6.41 22.26 5.2 21.77 4.28 22.43 4.17 23.07 5.38"/><polygon class="cls-6" points="19.3 2.02 17.66 1.25 15.98 0.73 16.17 0.53 18.11 1.13 19.88 1.96 21.28 2.93 20.82 3.15 20.64 2.96 19.3 2.02"/><polygon class="cls-6" points="9.53 0.32 7.5 0.67 7.38 0.71 7.27 0.5 9.37 0.13 11.64 0 13.84 0.13 13.8 0.33 13.76 0.32 11.64 0.2 9.53 0.32"/><polygon class="cls-6" points="5.4 1.35 3.99 2.02 2.65 2.96 1.64 4.04 1.52 4.26 0.92 4.08 1.96 2.97 3.41 1.96 5.11 1.15 5.4 1.35"/><polygon class="cls-6" points="1.03 7.88 1.64 9.05 0.86 9.19 0.22 7.98 0 6.68 0.21 5.42 0.94 5.46 0.98 5.46 0.82 6.41 0.82 6.67 1.03 7.88"/><polygon class="cls-7" points="5.63 11.57 7.5 12.15 9.53 12.5 11.64 12.62 13.76 12.5 15.79 12.15 17.66 11.57 19.3 10.8 20.64 9.86 21.64 8.79 22.26 7.62 22.47 6.41 22.47 6.67 22.26 7.88 22.25 9.24 22.25 9.24 21.64 9.05 20.64 10.12 19.3 11.06 17.66 11.83 17.64 14.29 16.02 14.79 16.02 12.86 15.79 12.41 13.76 12.76 11.64 12.88 9.53 12.76 9.45 13.23 9.46 15.2 7.51 14.87 7.5 12.41 5.63 11.83 3.99 11.06 2.65 10.12 2.01 10.43 2.03 11.9 1.94 11.8 1.67 11.51 1.64 9.05 1.03 7.88 0.82 6.67 0.82 6.41 1.03 7.62 1.64 8.79 2.65 9.86 3.99 10.8 5.63 11.57"/><path class="cls-3" d="M5.63,1.25,7.27.75l.11,0h0l.12,0,2-.35L11.64.2l2.12.12h.08l1.95.33L16,.73l1.68.52L19.3,2,20.65,3l.17.19.45.48.37.41.13.24.49.92.21,1.21-.21,1.21-.62,1.17-1,1.07-1.35.94-1.64.77-1.87.58-2,.35-2.12.12L9.53,12.5l-2-.35-1.87-.58L4,10.8,2.65,9.86l-1-1.07L1,7.62.82,6.41l.16-1L1,5.2l.49-.94L1.64,4,2.65,3,4,2,5.4,1.35Zm.48,9.91,1.72.53L9.7,12l1.94.11L13.59,12l1.87-.32,1.72-.53,1.51-.71,1.24-.87.93-1,.56-1.07.17-1,0-.13-.19-1.12-.56-1.07-.93-1-1.24-.87-1.51-.71-1.72-.53L13.59.8,11.64.69,9.7.8l-1.87.32-1.72.53-1.52.71-1.23.87-.92,1L1.87,5.29,1.68,6.41l0,.13.17,1,.57,1.07.92,1,1.23.87Z"/><polygon class="cls-4" points="7.83 11.69 6.11 11.16 4.59 10.45 3.35 9.58 2.44 8.59 1.87 7.52 1.7 6.54 1.87 5.55 2.44 4.48 3.35 3.49 4.59 2.62 4.93 2.46 3.99 3.12 3.15 4.03 3.03 4.2 2.5 5.2 2.46 5.41 2.28 6.46 2.28 6.67 2.46 7.71 2.99 8.72 3.86 9.65 5.03 10.46 6.44 11.13 8.06 11.63 9.82 11.93 11.64 12.04 13.47 11.93 15.23 11.63 16.85 11.13 18.27 10.46 19.43 9.65 20.29 8.72 20.83 7.71 21.01 6.67 21.01 6.46 20.83 5.41 20.79 5.2 20.26 4.2 20.15 4.03 19.3 3.12 18.36 2.46 18.69 2.62 19.93 3.49 20.86 4.48 21.42 5.55 21.59 6.54 21.42 7.52 20.86 8.59 19.93 9.58 18.69 10.45 17.18 11.16 15.46 11.69 13.59 12.01 11.64 12.12 9.7 12.01 7.83 11.69"/><polygon class="cls-8" points="21.01 6.46 21.01 6.67 20.83 7.71 20.29 8.72 19.43 9.65 18.27 10.46 16.85 11.13 15.23 11.63 13.47 11.93 11.64 12.04 9.82 11.93 8.06 11.63 6.44 11.13 5.03 10.46 3.86 9.65 3.26 9.01 2.99 8.72 2.46 7.71 2.28 6.67 2.28 6.46 2.46 5.41 2.5 5.2 3.03 4.2 3.15 4.03 3.99 3.12 4.93 2.46 4.93 2.46 5.14 2.32 5.27 2.25 6.64 1.6 8.2 1.12 9.89 0.83 11.64 0.73 13.4 0.83 15.1 1.12 16.65 1.6 18.02 2.25 18.15 2.32 18.36 2.46 19.17 3.03 19.3 3.12 20.15 4.03 20.26 4.2 20.79 5.2 20.83 5.41 21.01 6.46"/><polygon class="cls-9" points="20.28 5.73 20.28 5.94 20.1 6.98 19.57 7.99 18.71 8.92 17.54 9.73 16.12 10.4 14.5 10.9 12.75 11.2 10.92 11.31 9.09 11.2 7.34 10.9 5.72 10.4 4.3 9.73 3.26 9.01 2.99 8.72 2.46 7.71 2.28 6.67 2.28 6.46 2.46 5.41 2.5 5.2 3.03 4.2 3.15 4.03 3.99 3.12 4.93 2.46 4.93 2.46 5.14 2.32 5.27 2.25 6.64 1.6 8.2 1.12 9.89 0.83 11.64 0.73 13.4 0.83 15.1 1.12 16.65 1.6 18.02 2.25 18.15 2.32 18.36 2.46 19.17 3.03 19.42 3.3 19.54 3.47 20.06 4.47 20.1 4.68 20.28 5.73"/><polygon class="cls-10" points="23.05 10.4 23.07 7.94 23.29 6.68 23.26 9.15 23.05 10.4"/><polygon class="cls-10" points="0.86 9.19 0.89 11.66 0.25 10.45 0.03 9.15 0 6.68 0.22 7.98 0.86 9.19"/><polygon class="cls-10" points="7.12 12.83 7.13 15.29 6.14 14.98 5.7 14.85 5.7 14.85 5.19 14.69 4.14 14.2 3.43 13.86 2.04 12.89 2.03 11.9 2.01 10.43 3.41 11.4 5.18 12.23 7.12 12.83"/><polygon class="cls-10" points="13.7 15.7 11.67 15.81 11.64 15.81 9.46 15.69 9.46 15.2 9.45 13.23 11.64 13.36 13.92 13.23 16.02 12.86 16.02 14.79 16.02 15.32 13.91 15.69 13.7 15.7"/><polygon class="cls-10" points="18.16 14.66 18.18 12.2 19.88 11.4 21.33 10.39 22.36 9.28 22.35 10.36 22.34 11.74 22.01 12.09 21.32 12.84 21.3 12.85 20.43 13.46 19.86 13.86 19.19 14.18 18.65 14.43 18.16 14.66"/><polygon class="cls-3" points="19.38 19.17 18.97 20.04 18.47 20.85 17.89 21.61 17.21 22.3 16.44 22.94 16.32 23.02 15.74 23.42 16.43 22.84 17.01 22.22 17.51 21.52 17.94 20.76 18.29 19.93 18.57 19.02 18.79 18.05 18.95 17 19.06 15.88 19.12 14.68 19.19 14.18 19.86 13.86 20.43 13.46 20.35 13.82 20.28 15.02 20.16 16.16 19.96 17.23 19.79 17.9 19.71 18.23 19.58 18.6 19.57 18.61 19.38 19.17"/><polygon class="cls-3" points="6.35 22.26 6.01 21.8 6.01 21.79 5.94 21.69 5.93 21.68 5.85 21.57 5.43 20.81 5.4 20.73 5.08 19.98 4.8 19.07 4.58 18.1 4.42 17.05 4.31 15.92 4.25 14.73 4.14 14.2 5.19 14.69 5.7 14.85 5.7 14.85 5.75 15.44 5.8 16.63 5.89 17.74 6.01 18.77 6.19 19.73 6.41 20.6 6.68 21.4 7.02 22.12 7.41 22.76 7.87 23.33 8.42 23.84 8.37 23.95 8.3 23.93 7.57 23.44 6.92 22.88 6.35 22.26"/><polygon class="cls-3" points="11.66 24.4 11.69 23.99 11.7 16.47 11.67 15.81 13.7 15.7 13.64 16.36 13.57 19.14 13.55 19.66 13.49 20.58 13.41 21.42 13.32 22.18 13.2 22.84 13.07 23.43 12.98 23.7 12.91 23.93 12.76 24.34 13.85 24.15 14.85 23.85 15.74 23.42 14.99 23.93 14.27 24.26 13.46 24.51 12.57 24.66 11.64 24.72 10.72 24.66 9.84 24.51 9.02 24.26 8.37 23.95 8.42 23.84 9.44 24.15 10.52 24.34 11.66 24.4"/><polygon class="cls-4" points="7.53 23.48 8.26 23.96 8.33 23.99 8.98 24.29 9.81 24.53 10.7 24.68 11.62 24.72 12.54 24.66 13.42 24.49 14.24 24.23 14.95 23.89 15.7 23.38 16.28 22.97 17.37 27.01 17.49 27.66 17.5 27.87 17.4 28.53 17.33 28.71 17.01 29.33 16.48 29.91 16.36 30.02 15.66 30.51 14.81 30.92 13.85 31.23 12.79 31.43 11.69 31.5 10.59 31.45 9.53 31.28 8.56 30.99 7.7 30.6 6.99 30.12 6.87 30.02 6.33 29.45 5.99 28.84 5.92 28.66 5.8 28 5.81 27.8 5.91 27.14 6.92 23.07 7.53 23.48"/></g></g></svg>