<svg xmlns="http://www.w3.org/2000/svg" viewBox="0 0 260.58 241.55"><defs><style>.cls-1{isolation:isolate;}.cls-2{fill:#72450a;}.cls-3{fill:#95c42f;}.cls-4{fill:#593608;}.cls-5{fill:#945a0c;}.cls-6,.cls-7{fill:#87520c;}.cls-7,.cls-9{mix-blend-mode:screen;}.cls-8{fill:#d0d0d0;mix-blend-mode:multiply;}</style></defs><title>verden_01</title><g class="cls-1"><g id="Layer_2" data-name="Layer 2"><g id="Layer_1-2" data-name="Layer 1"><path class="cls-2" d="M256.34,92.94l-.13.09c-.27.19-.54.37-.82.54A48.21,48.21,0,0,1,243.48,99c-2.81.84-6.87.28-9.17,2.38a2.59,2.59,0,0,0-.32.36.18.18,0,0,0-.05.07,1.53,1.53,0,0,0-.21.37c-.5,1.11.06,2.31-.88,3.41-1.11,1.3-3.47,1.55-5,2a19.85,19.85,0,0,0-9.28,5.47c-2.5,2.62-4.28,5.93-7.09,8.23s-6.87,3.7-9.42,1.13c-3-.29-6.34-.47-8.62,1.48-1.17,1-1.88,2.45-3,3.53-1.69,1.66-4.11,2.29-6.38,3A88.64,88.64,0,0,0,160.69,141c-3.42,2.21-6.73,4.7-10,7a9.34,9.34,0,0,0-3.2,4.19c-.47,1.22-.17,2.62-.83,3.79a13.08,13.08,0,0,1-2.4,2.48c-2.57,2.51-4.28,2.3-7.66,1.86a8.91,8.91,0,0,0-2.92.3,5.4,5.4,0,0,1-5.48-2.34,19.35,19.35,0,0,0-5.7-4.62c-3.29-2-6.5-4.19-10.15-5.48-.89-.31-1.81-.53-2.73-.77h0c-1.62-.42-3.26-.79-4.84-1.27l-.12,0c-.41-.13-.81-.27-1.2-.41l-.39-.15q-.48-.19-1-.42c-.13-.06-.26-.11-.38-.18a12.73,12.73,0,0,1-1.25-.69c-2.74-1.75-4.75-4.55-7.64-6A9.58,9.58,0,0,1,90.61,137a3.67,3.67,0,0,1-.43-.47l-.09-.14a2.23,2.23,0,0,1-.19-.32l-.07-.16a2,2,0,0,1-.1-.32l0-.13a3.22,3.22,0,0,1,0-.43.07.07,0,0,1,0-.05,2.58,2.58,0,0,1,0-.39l0-.16c0-.09,0-.18.07-.28a1.21,1.21,0,0,0,.05-.18l.09-.26c.05-.19.11-.37.17-.55h0a2.51,2.51,0,0,0-.19-2.25c-1.49-2.28-4.87-.94-7-.85a25.87,25.87,0,0,1-8.22-.8c-5.47-1.57-10-5.49-13.53-9.94-1.87-2.36-3.55-4.92-5.89-6.82-8.09-6.62-20.89-3.21-29.68-8.86-4.9-3.16-8.06-8.87-13.51-10.95s-7.95-2.59-8.16-8.79c-.08,0,1.22,15.21,1.51,18.64a3,3,0,0,0,.46,1.35c2,3.3,6.24,7.91,8,11s2.73,5.83,1.53,9.37a1.77,1.77,0,0,0-.13.84,1.59,1.59,0,0,0,.34.64c.63.88,1.27,1.76,1.91,2.63a1.35,1.35,0,0,0,.44.45,1.14,1.14,0,0,0,.52.09c1.19,0,2.46-.31,3.55.17,3.4,1.5,4.5,8.84,5.33,11.88s2.69,26.73,2.09,29.86a13.4,13.4,0,0,1,5.05,3.34,11.05,11.05,0,0,1,4-1.88c1-.24-.7,8.88-.66,9.34a6.07,6.07,0,0,0,.58,2.11,1.39,1.39,0,0,0-.26,1c0,5.06,1.89,5.41,6,7s6.31,5.71,9.9,8c6.44,4.15,15.82,1.65,21.75,6.49a30.87,30.87,0,0,1,4.31,5c2.6,3.26,5.91,6.13,9.92,7.28a19.09,19.09,0,0,0,6,.59c1.57-.07,4-1.05,5.14.62s-1.27,2.84.49,4.46a6.92,6.92,0,0,0,1.63.94c2.12,1.09,3.59,3.13,5.59,4.42,2.59,1.65,5.81,1.88,8.7,2.91a40.75,40.75,0,0,1,7.44,4,14.18,14.18,0,0,1,4.18,3.39,3.94,3.94,0,0,0,4,1.71,6.64,6.64,0,0,1,2.14-.22c2.48.33,3.73.48,5.61-1.36a9.47,9.47,0,0,0,1.76-1.82c.49-.85.27-1.88.61-2.78a6.94,6.94,0,0,1,2.34-3.09c2.41-1.7,4.83-3.53,7.34-5.15a65,65,0,0,1,17.12-7.83,10.57,10.57,0,0,0,4.68-2.17c.81-.79,1.33-1.85,2.19-2.58,1.66-1.43,4.12-1.3,6.31-1.09,1.87,1.89,4.84.85,6.9-.83s3.36-4.1,5.2-6a14.49,14.49,0,0,1,6.8-4c1.13-.3,2.86-.49,3.67-1.44S206,199,207,198a3.72,3.72,0,0,1,1-.61c1.41-.67,3.25-.67,4.82-.93l.17,0c.27,0,.53-.11.77-.18a34.82,34.82,0,0,0,8.73-4,8.21,8.21,0,0,0,3.17-3,9.49,9.49,0,0,0,.58-4.83c0-1.94-.28-12.25.58-14,.7-1.43,1.93-22.53,3.05-23.67A38.06,38.06,0,0,0,237,136.38c1.76-3.57,3.19-7.33,4.8-11.14,3.55-8.36,8.55-15.79,12.71-23.84,1.45-2.81,4.17-7.08,4.15-10.48A12.28,12.28,0,0,1,256.34,92.94Z"/><path class="cls-3" d="M127.25,9.28a4.72,4.72,0,0,1-1.18.16,1.6,1.6,0,0,0-.66.08,1.44,1.44,0,0,0-.56.65c-4.21,7.47-14.35,5.4-20.88,9.37-4.25,2.58-7,7-11,10-2.91,2.24-6.35,3.66-9.62,5.32a67.29,67.29,0,0,0-10.32,6.49c-1.51,1.16-3.78,2.53-4.87,4.11-.82,1.19-1.09,2.94-1.64,4.49-.2.59-5.77,1.66-6.47,1.9-2.72.94-5.39,2-8,3.23-9.16,4.19-16.7,11.53-26.4,14.19a21,21,0,0,0-6.07,2.18c-3.11,2-4.56,6-7.59,8.1a11.12,11.12,0,0,1-6.28,1.86,2,2,0,0,0-1.4.34,1.83,1.83,0,0,0-.41,1.38c0,6.9,2.59,7.39,8.18,9.52s8.61,7.79,13.51,10.95c8.79,5.65,21.59,2.24,29.68,8.86,2.34,1.9,4,4.46,5.89,6.82,3.54,4.45,8.06,8.37,13.53,9.94a25.87,25.87,0,0,0,8.22.8c2.14-.09,5.52-1.43,7,.85,1.37,2.09-1.72,3.88.67,6.09a9.58,9.58,0,0,0,2.22,1.28c2.89,1.48,4.9,4.28,7.64,6,3.53,2.25,7.92,2.57,11.87,4,3.65,1.29,6.86,3.49,10.15,5.48a19.51,19.51,0,0,1,5.7,4.62,5.38,5.38,0,0,0,5.48,2.34,8.91,8.91,0,0,1,2.92-.3c3.38.44,5.09.65,7.66-1.85a13.13,13.13,0,0,0,2.4-2.49c.66-1.17.36-2.57.83-3.79a9.46,9.46,0,0,1,3.2-4.23c3.28-2.32,6.59-4.81,10-7a88.64,88.64,0,0,1,23.37-10.69c2.27-.66,4.69-1.29,6.38-3,1.1-1.08,1.81-2.53,3-3.53,2.28-2,5.63-1.77,8.62-1.48,2.55,2.57,6.61,1.16,9.42-1.13s4.59-5.61,7.09-8.23a19.85,19.85,0,0,1,9.28-5.47c1.55-.41,3.91-.66,5-2s0-2.9,1.46-4.21c2.3-2.1,6.36-1.54,9.17-2.38a48.21,48.21,0,0,0,11.91-5.43,11.37,11.37,0,0,0,4.33-4.15c1-2,.91-4.35.78-6.59L239.75,71.27c-2.76-1.54-5.6-3.14-7.6-5.6-2.14-2.62-3.13-6-5.08-8.75-7-9.92-22.51-8.1-32.62-14.84-3.29-2.19-5.93-5.26-9.19-7.5a31.11,31.11,0,0,0-14.15-4.81c-1.36-.16-12.87.23-12.64-1.45a9.53,9.53,0,0,0-3-8.74c-2.61-2.48-6.09-3.79-9.47-5-2.77-1-6.2-1.75-8.31-3.63s-3.39-3.79-6.58-3.06C129.8,8.17,128.57,9,127.25,9.28Z"/><path class="cls-2" d="M213.75,196.27a34.82,34.82,0,0,0,8.73-4,8.21,8.21,0,0,0,3.17-3,5.64,5.64,0,0,0,.48-1.49c.05-1.06.08-2.15.1-3.34,0-1.94-.28-12.25.58-14,.7-1.43,1.93-22.53,3.05-23.67A38.06,38.06,0,0,0,237,136.38c1.76-3.57,3.19-7.33,4.8-11.14,3.55-8.36,8.55-15.79,12.71-23.84,1.45-2.81,4.17-7.08,4.15-10.48a14.84,14.84,0,0,1-3.29,2.65A48.21,48.21,0,0,1,243.48,99c-2.81.84-6.87.28-9.17,2.38-1.44,1.31-.29,2.84-1.46,4.21-.41.47-5.36,15.84-9.15,22.42-1.73,3-3.74,5.94-4.52,9.32-.56,2.43-.45,5-.93,7.42-.78,4.05-3.11,27.6-4.95,31.29-3.53,7-4,14.12-5.31,21.37C209.7,196.6,212,196.78,213.75,196.27Z"/><path class="cls-4" d="M196.46,205.63q1.18-5.5,2.35-11c.84-3.91,1.49-8.56-1.3-11.42a24.69,24.69,0,0,1-2.53-2.36,8.11,8.11,0,0,1-1.16-3c-1.07-4.39-2.07-29.3.2-33.22,1.43-2.47,4-4.2,5.13-6.85.8-1.91.72-4.06.8-6.13.13-3.12,1.49-6.27,1.62-9.3l.47,0c-3-.29-6.34-.47-8.62,1.48-1.17,1-1.88,2.45-3,3.53a7.7,7.7,0,0,1-1.71,1.24c-.93,7.14-1.81,34.16-1,41.54.75,6.46,2.58,12.94,1.59,19.36-.9,5.91-4.1,11.17-6.26,16.74a50.18,50.18,0,0,0-2.14,7,21.73,21.73,0,0,1,2.43.12c1.87,1.89,4.84.85,6.9-.83s3.36-4.1,5.2-6a12,12,0,0,1,1-.92Z"/><path class="cls-5" d="M208,197.41c1.27-7.25,1.78-14.33,5.31-21.37,1.84-3.69,4.17-27.24,4.95-31.29.48-2.45.37-5,.93-7.42C220,134,222,131,223.7,128c3.79-6.58,8.74-21.95,9.15-22.42-1.11,1.3-3.47,1.55-5,2a19.85,19.85,0,0,0-9.28,5.47c-2.5,2.62-4.28,5.93-7.09,8.23s-6.87,3.7-9.42,1.13l-.47,0c-.13,3-1.49,6.18-1.62,9.3-.08,2.07,0,4.22-.8,6.13-1.1,2.65-3.7,4.38-5.13,6.85-2.27,3.92-1.27,28.83-.2,33.22a8.11,8.11,0,0,0,1.16,3,24.69,24.69,0,0,0,2.53,2.36c2.79,2.86,2.14,7.51,1.3,11.42q-1.17,5.51-2.35,11a14.61,14.61,0,0,1,5.83-3.09c1.13-.3,2.86-.49,3.67-1.44S206,199,207,198a3.72,3.72,0,0,1,1-.61Z"/><path class="cls-6" d="M181,213.28a50.18,50.18,0,0,1,2.14-7c2.16-5.57,5.36-10.83,6.26-16.74,1-6.42-.84-12.9-1.59-19.36-.85-7.38,0-34.4,1-41.54a22.1,22.1,0,0,1-4.67,1.71A88.64,88.64,0,0,0,160.69,141c-3.42,2.21-6.73,4.7-10,7a9.34,9.34,0,0,0-3.2,4.19c-.46,1.2-.18,2.57-.8,3.73a17.39,17.39,0,0,0,2.39,7.2c2.65,4.16,7.54,27.13,8.39,32,.43,2.44-.27,4.91-1,7.28l-2.73,9.3c-.48,1.65-1,3.3-1.45,5l-1.89,6.42c-.71,2.44-1.43,4.87-2.14,7.31,1.58-1.14,3.18-2.29,4.81-3.34a65,65,0,0,1,17.12-7.83,10.57,10.57,0,0,0,4.68-2.17c.81-.79,1.33-1.85,2.19-2.58a5.87,5.87,0,0,1,3.89-1.21Z"/><path class="cls-5" d="M148.28,230.41c.71-2.44,1.43-4.87,2.14-7.31l1.89-6.42c.48-1.65,1-3.3,1.45-5l2.73-9.3c.7-2.37,1.4-4.84,1-7.28-.85-4.85-5.74-27.82-8.39-32a17.39,17.39,0,0,1-2.39-7.2l0,.06a13.08,13.08,0,0,1-2.4,2.48c-2.57,2.51-4.28,4.3-7.66,3.86-1.15-.15-1.83-1.87-2.92-1.7a5.4,5.4,0,0,1-5.48-2.34,12,12,0,0,0-1.87-2c-.27,1.09-.55,2.13-.84,3.07-.44,1.39-.87,22.85-.87,24.3a18.71,18.71,0,0,0,1.23,5.27,31.49,31.49,0,0,1,.86,15.06,19.56,19.56,0,0,0-.57,4.22c.11,2.72,2.27,5.51,5,5.4,1.32-.06,2.92-.66,3.78.34.6.71.38,1.77.17,2.67a32.82,32.82,0,0,0-.05,14.82l-8.15,0a7,7,0,0,1-1.3,5.24,13,13,0,0,1,3.7,3.08,3.94,3.94,0,0,0,4,1.71,6.64,6.64,0,0,1,2.14-.22c2.48.33,3.73.48,5.61-1.36a9.47,9.47,0,0,0,1.76-1.82c.49-.85.27-1.88.61-2.78a6.94,6.94,0,0,1,2.34-3.09l2.53-1.81Z"/><path class="cls-2" d="M126.88,231.46l8.15,0a32.82,32.82,0,0,1,.05-14.82c.21-.9.43-2-.17-2.67-.86-1-2.46-.4-3.78-.34-2.73.11-4.89-2.68-5-5.4a19.56,19.56,0,0,1,.57-4.22,31.49,31.49,0,0,0-.86-15.06,18.71,18.71,0,0,1-1.23-5.27c0-1.45.43-22.91.87-24.3.29-.94.57-2,.84-3.07a28.7,28.7,0,0,0-3.83-2.65c-3.29-2-6.5-4.19-10.15-5.48-2.5-.88-5.17-1.3-7.69-2.08,0,1.24,0,22.48,0,23.72a24,24,0,0,0,.29,5,33.78,33.78,0,0,0,1.77,5.22,44.87,44.87,0,0,1,2.52,21.41c-.33,2.58-.87,5.27,0,7.71.73,2,2.31,3.56,3.53,5.32a16,16,0,0,1,2.57,11.7c-2.75-.1-6.14.27-7.81,2.1a13.35,13.35,0,0,0,1.47,1.13c2.59,1.65,5.81,1.88,8.7,2.91a40.75,40.75,0,0,1,7.44,4l.48.31A7,7,0,0,0,126.88,231.46Z"/><path class="cls-6" d="M115.3,226.24a16,16,0,0,0-2.57-11.7c-1.22-1.76-2.8-3.31-3.53-5.32-.88-2.44-.34-5.13,0-7.71a44.87,44.87,0,0,0-2.52-21.41,33.78,33.78,0,0,1-1.77-5.22,24,24,0,0,1-.29-5c0-1.24,0-22.48,0-23.72a17.18,17.18,0,0,1-4.18-1.85c-2.74-1.75-4.75-4.55-7.64-6A9.58,9.58,0,0,1,90.61,137a2.68,2.68,0,0,1-.91-1.53l0,0a15,15,0,0,0-.35,5.23c.5,9.1,2,38.13,4.57,46.89,1.78,6.18,4.07,12.27,4.71,18.67.36,3.69.17,7.47,1.14,11,.14.49.29,1,.43,1.48a2,2,0,0,1,1.07.82c1,1.53-1.27,2.84.49,4.46a6.92,6.92,0,0,0,1.63.94,22.21,22.21,0,0,1,4.12,3.29C109.16,226.51,112.55,226.14,115.3,226.24Z"/><path class="cls-6" d="M100.18,218.83c-.14-.5-.29-1-.43-1.48-1-3.58-.78-7.36-1.14-11-.64-6.4-2.93-12.49-4.71-18.67-2.53-8.76-4.07-37.79-4.57-46.89a15,15,0,0,1,.35-5.23l0,0v0s0,0,0-.05a3.22,3.22,0,0,1,0-.43.07.07,0,0,1,0-.05,2.58,2.58,0,0,1,0-.39l0-.16c0-.09,0-.18.07-.28a1.21,1.21,0,0,0,.05-.18l.09-.26c.05-.19.11-.37.17-.55h0a2.51,2.51,0,0,0-.19-2.25c-1.49-2.28-4.87-.94-7-.85a25.87,25.87,0,0,1-8.22-.8c-5.47-1.57-10-5.49-13.53-9.94-1-1.3-2-2.66-3.07-3.94-.67,9.62,4.6,25.16,6.29,30,1.58,4.53,3.47,29,4.56,33.66,1.42,6.05,1.51,12.43,3.72,18.25,1.27,3.38,3.23,6.54,4.3,10,1.17,1.21,2.14,2.62,3.19,3.95,2.6,3.26,5.91,6.13,9.92,7.28a19.09,19.09,0,0,0,6,.59c1.21-.06,3-.65,4.21-.14Z"/><path class="cls-7" d="M260.5,82.88a9.33,9.33,0,0,1-.85,4.79,11.09,11.09,0,0,1-4.32,3.89,48.94,48.94,0,0,1-11.91,5.09c-2.8.79-6.86.27-9.16,2.24-1.44,1.23-.29,2.67-1.46,4s-3.47,1.46-5,1.84a20.18,20.18,0,0,0-9.27,5.14c-2.5,2.46-4.28,5.57-7.09,7.72S204.56,121,202,118.6c-3-.27-6.33-.44-8.61,1.39-1.17.94-1.88,2.3-3,3.31-1.7,1.56-4.11,2.16-6.39,2.78a91.59,91.59,0,0,0-23.36,10c-3.41,2.07-6.72,4.41-10,6.59a8.88,8.88,0,0,0-3.19,4c-.48,1.14-.18,2.46-.84,3.56a12.65,12.65,0,0,1-2.4,2.33c-2.57,2.35-4.27,2.16-7.66,1.74a9.42,9.42,0,0,0-2.91.28,5.51,5.51,0,0,1-5.47-2.19,19.17,19.17,0,0,0-5.71-4.34c-3.28-1.87-6.49-3.93-10.14-5.14-3.94-1.31-8.33-1.62-11.86-3.73-2.74-1.65-4.75-4.27-7.64-5.66a10.08,10.08,0,0,1-2.22-1.2L90.3,132c.08,1.65-1.66,3.18.31,5a9.58,9.58,0,0,0,2.22,1.28c2.89,1.48,4.9,4.28,7.64,6,3.53,2.25,7.92,2.57,11.87,4,3.65,1.29,6.86,3.49,10.15,5.48a19.51,19.51,0,0,1,5.7,4.62,5.38,5.38,0,0,0,5.48,2.34,8.91,8.91,0,0,1,2.92-.3c3.38.44,5.09.65,7.66-1.85a13.13,13.13,0,0,0,2.4-2.49c.66-1.17.36-2.57.83-3.79a9.46,9.46,0,0,1,3.2-4.23c3.28-2.32,6.59-4.81,10-7a88.64,88.64,0,0,1,23.37-10.69c2.27-.66,4.69-1.29,6.38-3,1.1-1.08,1.81-2.53,3-3.53,2.28-2,5.63-1.77,8.62-1.48,2.55,2.57,6.61,1.16,9.42-1.13s4.59-5.61,7.09-8.23a19.85,19.85,0,0,1,9.28-5.47c1.55-.41,3.91-.66,5-2s0-2.9,1.46-4.21c2.3-2.1,6.36-1.54,9.17-2.38a48.21,48.21,0,0,0,11.91-5.43,11.37,11.37,0,0,0,4.33-4.15C260.72,87.44,260.63,85.1,260.5,82.88Z"/><path class="cls-7" d="M90,126.6c-1.49-2.14-4.88-.88-7-.79a27.69,27.69,0,0,1-8.22-.76c-5.47-1.47-10-5.15-13.53-9.33-1.87-2.21-3.55-4.62-5.88-6.4-8.09-6.21-20.88-3-29.67-8.32-4.9-3-8-8.32-13.5-10.28s-8-2.44-8.15-8.35a3,3,0,0,0-.09.79c0,6.9,2.59,7.39,8.18,9.52s8.61,7.79,13.51,10.95c8.79,5.65,21.59,2.24,29.68,8.86,2.34,1.9,4,4.46,5.89,6.82,3.54,4.45,8.06,8.37,13.53,9.94a25.87,25.87,0,0,0,8.22.8c2-.09,5.18-1.29,6.77.54C89.67,129.24,90.93,128,90,126.6Z"/><path class="cls-2" d="M193.42,123.86l0,0h0Z"/><path class="cls-2" d="M189.36,213.25l0,0Z"/><path class="cls-2" d="M208.46,123.07c-2.26,1-4.69,1.06-6.42-.69l-.47,0c-.13,3-1.49,6.18-1.62,9.3-.08,2.07,0,4.22-.8,6.13-1.1,2.65-3.7,4.38-5.13,6.85-2.27,3.92-1.27,28.83-.2,33.22a8.11,8.11,0,0,0,1.16,3,24.69,24.69,0,0,0,2.53,2.36c2.79,2.86,2.14,7.51,1.3,11.42q-1.17,5.51-2.35,11h0a12,12,0,0,0-1,.92,14,14,0,0,1,2.88-2.32l2.73-13.8a17.27,17.27,0,0,0,.48-5c-.43-4.32-4.07-7.88-4.28-12.22s2.9-27.88,5.15-31.53C205.89,136.07,207.48,129.64,208.46,123.07Z"/><path class="cls-2" d="M98.61,206.3c-.64-6.4-2.93-12.49-4.71-18.67-2.53-8.76-4.07-37.79-4.57-46.89a15,15,0,0,1,.35-5.23l0,0v0s0,0,0-.05a3.22,3.22,0,0,1,0-.43.07.07,0,0,1,0-.05,2.58,2.58,0,0,1,0-.39l0-.16c0-.09,0-.18.07-.28a1.21,1.21,0,0,0,.05-.18l.09-.26c.05-.19.11-.37.17-.55h0a2.51,2.51,0,0,0-.19-2.25c-1.49-2.28-4.87-.94-7-.85a25.87,25.87,0,0,1-8.22-.8l-.52-.17c.38,3,1.16,6.16,1.52,8.88.75,5.67,1.52,31.41,3.75,36.67,1.94,4.58,4.94,8.67,6.66,13.33a26.49,26.49,0,0,1,.17,17.68,31.35,31.35,0,0,0-1.56,4.84,17.27,17.27,0,0,0,.09,5.27,16.44,16.44,0,0,0,5.27,2.69,19.09,19.09,0,0,0,6,.59c.52,0,1.15-.15,1.78-.24.49-1.15,1-2.3,1.44-3.45C98.84,212.37,98.9,209.31,98.61,206.3Z"/><path class="cls-4" d="M223,109.56l1-.52Z"/><path class="cls-4" d="M224.35,108.83l.7-.32Z"/><path class="cls-4" d="M226.65,107.9c.39-.13.78-.25,1.18-.35C227.43,107.65,227,107.77,226.65,107.9Z"/><path class="cls-4" d="M225.5,108.33l.77-.29Z"/><path class="cls-4" d="M222,110.18l.42-.26Z"/><path class="cls-4" d="M234.31,101.38a2.59,2.59,0,0,0-.32.36.18.18,0,0,0-.05.07,1.53,1.53,0,0,0-.21.37c-.5,1.11.06,2.31-.88,3.41-.41.47-5.36,15.84-9.15,22.42-1.73,3-3.74,5.94-4.52,9.32-.48,2.06-.47,4.2-.75,6.29a6.49,6.49,0,0,1,.95-1.49c.87-1,2.1-1.68,2.92-2.73,1.49-1.92,1.34-4.58,1.83-7,1.28-6.26,7-10.45,10.6-15.73,1.68-2.46,4.88-10.16,6.1-17.24C238.49,99.73,236,99.88,234.31,101.38Z"/><path class="cls-4" d="M221,110.85l.34-.25Z"/><path class="cls-4" d="M99.75,217.35c-1-3.58-.78-7.36-1.14-11-.64-6.4-2.93-12.49-4.71-18.67-2.53-8.76-4.07-37.79-4.57-46.89a15,15,0,0,1,.35-5.23l0,0v0s0,0,0-.05a3.22,3.22,0,0,1,0-.43.07.07,0,0,1,0-.05,2.58,2.58,0,0,1,0-.39l0-.16c0-.09,0-.18.07-.28a1.21,1.21,0,0,0,.05-.18l.09-.26c.05-.19.11-.37.17-.55h0a2.51,2.51,0,0,0-.19-2.25c-1.49-2.28-4.87-.94-7-.85-.61,0-1.24,0-1.86,0,.1,1.92.11,3.85.11,5.79a25,25,0,0,0,.15,6,21.79,21.79,0,0,0,1.83,4.75c5.15,10.94,9.14,42.41,11.89,54.19a39.17,39.17,0,0,1,1.28,8.72A22.36,22.36,0,0,1,94.22,219q.94,0,1.89,0c1.21-.06,3-.65,4.21-.14l-.14-.06C100,218.33,99.89,217.84,99.75,217.35Z"/><path class="cls-6" d="M149.21,202.89l-3.92-8c-1.46.59-2,2.42-1.91,4s.63,3.12.53,4.7c-.19,3.29-3.09,6.36-2,9.48a11.68,11.68,0,0,1,.85,2.31,5,5,0,0,1-.63,2.5,32.37,32.37,0,0,0-2.44,9.72c-.29,3.21-.23,6.8-2.43,9.15-2,2.11-5,2.45-7.95,3h0a3.94,3.94,0,0,0,4,1.71,6.64,6.64,0,0,1,2.14-.22c2.48.33,3.73.48,5.61-1.36a9.47,9.47,0,0,0,1.76-1.82c.49-.85.27-1.88.61-2.78a7.06,7.06,0,0,1,1.85-2.67c0-1.31,0-2.62.05-3.92a45.78,45.78,0,0,1,.4-6.2,54.83,54.83,0,0,1,1.77-6.89q1.26-4.35,2.21-8.78a6,6,0,0,0,.2-2.06A6.55,6.55,0,0,0,149.21,202.89Z"/><path class="cls-2" d="M180.61,138.22c-.68,0-.84.93-1,1.59-.54,2.41-3.43,3.5-4.6,5.68-1.39,2.61.07,25.92-.81,28.74s-3.83,4.4-6.06,6.38a16,16,0,0,0-5.24,10.12c-.41,3.73.51,7.58-.4,11.21a36.08,36.08,0,0,1-2.27,5.6c-2.38,5.45-3.14,11.4-3.54,17.36,1.85-1,3.74-2,5.68-2.81l.59-3.49c.82-4.92,2.09-10.5,6.44-12.94a27.31,27.31,0,0,1-.49-13.14c1.36.4,1.78,2.17,1.58,3.58s-.77,2.82-.44,4.21,1.53,2.43,2,3.79a7.42,7.42,0,0,1,.1,3.15q-.63,5.9-1.25,11.8a9.18,9.18,0,0,0,4-2c.81-.79,1.33-1.85,2.19-2.58a4.63,4.63,0,0,1,2-1q1.16-5.25,2.1-10.55a3.72,3.72,0,0,0-.14-2.47c-.29-.5-.8-.84-1.07-1.35a3.56,3.56,0,0,1,0-2.45c1.44-6.34.91-12.29-.2-18.61-.41-2.33.32-3.34.6-5.51.38-2.87-.73-24.41.8-27.17A6.67,6.67,0,0,0,180.61,138.22Z"/><path class="cls-4" d="M120.77,159.92a26,26,0,0,0,1.42-6.39c-3.18-1.95-6.31-4.05-9.85-5.3-1.55-.55-3.16-.89-4.76-1.29,0,3,1.25,26.71,2,28.75a42.43,42.43,0,0,1,1.45,4.1c-4.5-17.64-.14-16.4.57,5.46q.24,6.93.46,13.85c.14,4.25.52,9,3.78,11.79,1.15-.16,1.13-1.83.83-3a35.3,35.3,0,0,1,1.69-22.45C119.13,183.63,120.08,161.81,120.77,159.92Z"/><path class="cls-6" d="M56.36,193.5c-2-1.41-3-3.66-5-5.07a70.83,70.83,0,0,1-7.5-5.86,3.17,3.17,0,0,1-.71-.84,3.55,3.55,0,0,1-.21-1.89,31.43,31.43,0,0,0-.64-8.43,2.15,2.15,0,0,1,0-1.35,2,2,0,0,1,.94-.86c.68-.39,1.38-20.75,2.1-21.07a4,4,0,0,0,2-5.09c-2.33-5.84-5.66-11.26-7.45-17.22a5.53,5.53,0,0,0-1.19-2.47,5.11,5.11,0,0,0-2.43-1.07c-1.9-.48-3.83-.88-5.72-1.42-5.46-1.58-4.68-15.47-4.78-16.9l0-.26h0l-.14-.08c-4.9-3.16-8.06-8.87-13.51-10.95l-1.45-.55a63.7,63.7,0,0,0,3.5,11.64,59.69,59.69,0,0,0,12.56,19.58,6.7,6.7,0,0,0,1.84,1.52c1.48.74,3.32.38,4.82,1.09,1.81.84,2.62,2.94,3.25,4.83l2.69,8a6.51,6.51,0,0,1,.49,2.56c-.11,1.57-1.3,2.87-1.55,4.42-.16,1,.07,22,.21,23a17.55,17.55,0,0,1,.12,3.47c1-.11-.72,8.87-.68,9.33a6.07,6.07,0,0,0,.58,2.11,1.39,1.39,0,0,0-.26,1c0,5.06,1.89,5.41,6,7s6.31,5.71,9.9,8c4.18,2.69,9.58,2.59,14.49,3.51,0-.43.05-.86.05-1.28C66.6,196.11,60.86,196.73,56.36,193.5Z"/><path class="cls-4" d="M69,179c-1.09-4.68-3-29.13-4.56-33.66-1.69-4.82-7-20.36-6.29-30a19.85,19.85,0,0,0-2.82-2.88,18.23,18.23,0,0,0-6.4-3.26c2.19,8.41,5.2,16.81,7.51,25A61.73,61.73,0,0,0,59.33,143c1.3,2.89,3,25.56,4.49,28.39a91,91,0,0,1,4.55,11.32l2.36,6.74C70.15,186,69.77,182.44,69,179Z"/><path class="cls-7" d="M39.79,139.52c-.95-2.85-1.7-6.31-2.66-9.16-.67-2-1.53-4.26-3.46-5.16-1.6-.75-2.2-.4-3.78-1.18a34.66,34.66,0,0,1-4.59-3.17c-4.44-7.13-7.57-11.93-10.36-21.51-.63-2.15-1.75-4.06-2-6.3l-3-1.17c.69,4.49,3.81,7.39,4.19,11.9.3,3.7,7.11,14.13,12.56,19.58a6.7,6.7,0,0,0,1.84,1.52c1.48.74,3.32.38,4.82,1.09,1.81.84,2.62,2.94,3.25,4.83l2.69,8a6.51,6.51,0,0,1,.49,2.56C39.87,140.45,40.09,140.41,39.79,139.52Z"/><path class="cls-8" d="M170.21,219.24a10.57,10.57,0,0,0,4.68-2.17c.81-.79,1.33-1.85,2.19-2.58,1.66-1.43,4.12-1.3,6.31-1.09,1.87,1.89,4.84.85,6.9-.83s3.36-4.1,5.2-6a14.49,14.49,0,0,1,6.8-4c1.13-.3,2.86-.49,3.67-1.44S206,199,207,198a3.72,3.72,0,0,1,1-.61c1.41-.67,3.25-.67,4.82-.93l.17,0c.27,0,.53-.11.77-.18a34.82,34.82,0,0,0,8.73-4,8.21,8.21,0,0,0,3.17-3,9.49,9.49,0,0,0,.58-4.83c0-1.46-.15-7.69.14-11.41-3.48,1-8.54,1.76-11.41-.29-3,7.16-9.1,7.68-16.1,8.23l-7.67.6a35.26,35.26,0,0,1-5.5,8.13,6.87,6.87,0,0,1-2.77,2.08c-1.36.45-2.83.09-4.25.1-5.23.07-8.91,4.93-13.29,7.8s-9.9,3.8-14.61,6.26c-3.76,2-7,4.87-10.59,7.05s-8.08,3.65-12.11,2.32c-6.34-2.09-9.48-10.25-16-11.51-3.35-.64-6.89.73-10.18-.18-5.1-1.41-7.41-7.55-12.12-10C86.2,191.82,82,192.41,78,192.15s-8.55-2.1-9.32-6c-3.06-15.56-24.47-40.44-40.14-42.82l-.36-.05c.84,2.46,1.79,25.16,1.34,27.51a13.4,13.4,0,0,1,5.05,3.34,11.05,11.05,0,0,1,4-1.88c1-.24-.7,8.88-.66,9.34a6.07,6.07,0,0,0,.58,2.11,1.39,1.39,0,0,0-.26,1c0,5.06,1.89,5.41,6,7s6.31,5.71,9.9,8c6.44,4.15,15.82,1.65,21.75,6.49a30.87,30.87,0,0,1,4.31,5c2.6,3.26,5.91,6.13,9.92,7.28a19.09,19.09,0,0,0,6,.59c1.57-.07,4-1.05,5.14.62s-1.27,2.84.49,4.46a6.92,6.92,0,0,0,1.63.94c2.12,1.09,3.59,3.13,5.59,4.42,2.59,1.65,5.81,1.88,8.7,2.91a40.75,40.75,0,0,1,7.44,4,14.18,14.18,0,0,1,4.18,3.39,3.94,3.94,0,0,0,4,1.71,6.64,6.64,0,0,1,2.14-.22c2.48.33,3.73.48,5.61-1.36a9.47,9.47,0,0,0,1.76-1.82c.49-.85.27-1.88.61-2.78a6.94,6.94,0,0,1,2.34-3.09c2.41-1.7,4.83-3.53,7.34-5.15A65,65,0,0,1,170.21,219.24Z"/><g class="cls-9"><path class="cls-6" d="M94.4,188.09c-1.65-7.8-3.08-36.3-2.06-42.91.28-1.83-.78-4.52-.75-6.38,0-.37,0-.75,0-1.13a4.59,4.59,0,0,1-1-.68,2.68,2.68,0,0,1-.91-1.53l0,0a15,15,0,0,0-.35,5.23c.5,9.1,2,38.13,4.57,46.89.48,1.67,1,3.34,1.52,5C95.07,191.13,94.72,189.61,94.4,188.09Z"/></g><path class="cls-7" d="M227.83,107.55l-.3.09c0,2.85.08,5.77-1.38,7.77-.76,1-2.07,1.51-3,2.36-1.35,1.19.78,3.51.32,5.26-1.21,4.64-4.88,8.87-5.46,13.63a83.69,83.69,0,0,0-.59,11.08,17.31,17.31,0,0,0,.86-3c.48-2.45.37-5,.93-7.42C220,134,222,131,223.7,128c3.79-6.58,8.74-21.95,9.15-22.42C231.74,106.89,229.38,107.14,227.83,107.55Z"/><path class="cls-3" d="M134.64,5.55v9L39.78,69.28l-3.42,2L8.13,87.54,5,85.76,2.67,84.39l-1-.6A3.7,3.7,0,0,0,.35,83.3a.44.44,0,0,1-.27-.18c-.5-.85,1.41-4,1.64-4.54A2.77,2.77,0,0,1,3.6,80.93c.39-1.76.71-3.48.92-5.18,1.18.4,1.76,1.78,1.51,3.54.68-1.83,1.18-3.56.38-4.66,1.15.16,1.76,1.18,2.32,2.17a23.94,23.94,0,0,1,1.41-2.41c-.52.79-.56,2.41-.74,3.18a.5.5,0,0,0,0,.12A14.9,14.9,0,0,0,9,79.41a13.17,13.17,0,0,0,.77-1.24c1-1.83,1.92-4.14,1.77-5.54A2.37,2.37,0,0,1,13,74.86c.19-1.32.91-2.2,1.49-3.55a6.67,6.67,0,0,0,.37,2c.09-.15.16-.31.24-.46l.07-.13c.29-.56.54-1.12.76-1.67.1-.26.2-.51.29-.76a5.26,5.26,0,0,0-.13.76,2,2,0,0,0,.74,2,10.84,10.84,0,0,1,.47-1.93,9.55,9.55,0,0,1,.35-.92,7.55,7.55,0,0,1,.56-1,13.24,13.24,0,0,0,.95-1.74,13.67,13.67,0,0,0-.52,1.74,9.22,9.22,0,0,0-.27,1.95,3.27,3.27,0,0,0,0,.54c.09-.17.18-.36.25-.53.31-.63.61-1.24.89-1.87a14.14,14.14,0,0,0,.78,1.31.41.41,0,0,0,.12.17,2.71,2.71,0,0,0,.35.4l.3.24a.93.93,0,0,1,0-.24c0-.29.11-.57.14-.85a2.42,2.42,0,0,0-.15-1.11,4.87,4.87,0,0,0-.21-.53,2.08,2.08,0,0,1,.93.54,2.59,2.59,0,0,1,.66,1,4.1,4.1,0,0,1,.14.5c0-.1.08-.19.11-.3.17-.42.35-.84.51-1.25q.39-.94.69-1.86a11.82,11.82,0,0,0,.24,1.85,10.43,10.43,0,0,1,.75-1.42,7,7,0,0,0,.26-.89A11.78,11.78,0,0,0,25.82,64c.27-.22.44,0,.52.23a10.74,10.74,0,0,1,.56,3.1,9.15,9.15,0,0,0,.43-1.44l0-.11A8.49,8.49,0,0,1,28.31,64a14.57,14.57,0,0,0,1.62-2.63,9.14,9.14,0,0,0-.88,5.12c.13-.7.28-1.39.42-2.07a4.13,4.13,0,0,1,1.22.62c.14-.6.29-1.21.44-1.82a7,7,0,0,0,.24-1.35,1.25,1.25,0,0,0-.19-.75,5.07,5.07,0,0,1,1.6,3.08c0,.11,0,.23,0,.34s0,.06,0,.09a4.81,4.81,0,0,1,.12-.48c0-.17.08-.35.13-.53.2-.75.44-1.5.69-2.27a.27.27,0,0,1,.41.13c.23.4.49.79.73,1.19l.16.29c-.05-1.63.91-3.7,1.81-5.59A24,24,0,0,0,36.7,62a4.66,4.66,0,0,1,.5-2,3.13,3.13,0,0,1,.31.39l0,0a1.65,1.65,0,0,0,.22.24c.24.22.6.3.86.51a11.81,11.81,0,0,0,.6-3.62c0,.37.46.77.6,1s.35.93.56,1.36c-.09-.22.49-1.38.59-1.71a8.62,8.62,0,0,0,.38-2.3,3.2,3.2,0,0,1,1.4,1.13c.2.23.38.48.54.7,0,0,.1-.26.23-.59.25-.62.65-1.57.72-1.75a13.63,13.63,0,0,1,1.84-2.71,9.26,9.26,0,0,0-.89,4.94c.12,0,.2.06.2.2A24.75,24.75,0,0,1,46.66,55a1.55,1.55,0,0,0,.76.92A.9.9,0,0,0,48,56v-.05a6.32,6.32,0,0,1,.38-1.29c.46-.91,1-1.84,1.56-2.74a8.15,8.15,0,0,0-.13,3.71A11.51,11.51,0,0,0,50.73,53a2.27,2.27,0,0,0,.29.52l.24.4c.17.27.41.42.53.71.06-.48.47-1,.59-1.44a4.53,4.53,0,0,0,.17-1.74A2.32,2.32,0,0,0,52,50.28h.69c.91,0,1.22.32,1.39,1.24a9.64,9.64,0,0,1,.37,1.07,8.36,8.36,0,0,1,.6-2.2c0-.11.11-.33.17-.57a.29.29,0,0,1,0-.09c.12-.4.2-.86.07-.91A31.39,31.39,0,0,1,58.37,50a5.4,5.4,0,0,0-1.21-2.37,2.47,2.47,0,0,1,2.13,1.3,1.55,1.55,0,0,0,0-.15l.12-.3a13.18,13.18,0,0,1,3-4.92c-.67.66-.53,2.09-.58,2.68a3.62,3.62,0,0,0,.27,2.32,14.61,14.61,0,0,0,.67-1.64,24.76,24.76,0,0,1,1.17-2.37,6.18,6.18,0,0,1,1.14-1.67,19,19,0,0,0-.65,2.63,3,3,0,0,0,.09.76,4.92,4.92,0,0,0,.68,1.48c.09-.32.19-.68.31-1.07l.14-.41c.62-1.86,1.46-4.12.49-4.81a3.36,3.36,0,0,1,1.12.11,1.31,1.31,0,0,1,.46.22c.47.38.39,1.61.89,1.86.45-.94.72-1.92,1.15-2.87a15,15,0,0,1,1.55-2.95A43.32,43.32,0,0,0,70.11,43a15.55,15.55,0,0,1,2.55-4.26A10.66,10.66,0,0,0,72.37,42a6.45,6.45,0,0,1,.89-2.24A15.38,15.38,0,0,0,74.33,37c.11.06.12.26.13.44,0,.66,0,1.38.08,2,.09-.12.14-.28.25-.44a21,21,0,0,0,1.55-2.45,1.66,1.66,0,0,1-.07.52,12.14,12.14,0,0,0-.37,2.08c.32-.61.63-1.22,1-1.83a3.71,3.71,0,0,0,0,1.1c0,.23.08.32.33.2a2.61,2.61,0,0,0,1.1-3.22.62.62,0,0,1,.76,0,5.9,5.9,0,0,1,1.06.88c.33-.73.64-1.48,1-2.21a2.82,2.82,0,0,0,.36,2.05,4.81,4.81,0,0,0,.66-3.33c.08.28.48.48.63.72.33.51.89.5,1.26.92a.56.56,0,0,0,.11-.19c.68-1.75,1.05-3.36.24-4.34a2.4,2.4,0,0,1,1.84,1.94,12.41,12.41,0,0,1,1.64-3.3,23,23,0,0,0,0,3c.76-1.19,1.57-2.34,2.42-3.43a3.89,3.89,0,0,0-.37,2.29c.14.68.44.9,1.13.54a20.46,20.46,0,0,1,1.48-3.62c.43-1,.67-2.17.29-2.71a5.58,5.58,0,0,1,1.55,3.74,5.87,5.87,0,0,0,1.16-4.28A22.92,22.92,0,0,1,96.65,28c0-.6.69-1.44.9-2.13.36-1.33.29-2.55-.63-2.83a1,1,0,0,1,.9.32c.69.59,1.62,1,1.88,2-.15-.56,1-2.78,1.4-3.47.67-1.21,1.48-2.47,2.23-3.68a9.2,9.2,0,0,0-.91,6.79c.7-2.35,2.21-4.45,1.9-6.53a2.54,2.54,0,0,1,.81,1.84,14.59,14.59,0,0,0,.33,2.27c.7-1.56,1.44-3.12,2.18-4.68a4.58,4.58,0,0,1,1-1.43c-.4,1-.76,2.09-1.07,3.11a15.27,15.27,0,0,0-.23,2.25c1-1.18,2.51-3.14,2-4.39.31.18.67.24,1,.43a1.81,1.81,0,0,1,.49,1.84,6.71,6.71,0,0,1,.87-1.56c.28-.46.57-.89.85-1.37a17.94,17.94,0,0,1,1.78-2.56,11.22,11.22,0,0,0-1.11,3.65l2.25-3.43c.16.68.31,1.38.42,2.1a12.14,12.14,0,0,0,1.66-3.06c-.23,1-1.1,3.35.18,3l.11-.07c.55-.31.68-.92.94-1.51a10.41,10.41,0,0,0,.76-2.15c.12-.7.21-1.39.26-2,.62.76.39,2.37.62,3.56A17.74,17.74,0,0,0,122.6,10c0,.73,0,1.53.44,1.86a6.75,6.75,0,0,0,1.15-3.65,17.94,17.94,0,0,0,.37,1.77,6.8,6.8,0,0,1-.33,1.94,8.49,8.49,0,0,1,1-1.46,2.74,2.74,0,0,0,.63-1.4A2.53,2.53,0,0,0,125.74,8c.58.1.66,1,1.07,1.42,0,0,.09.07.16,0l.1-.12c.11-.26.19-.51.29-.75a9.17,9.17,0,0,1,1.09-2c.08.84.35,1.5.39,2.35,0,.22,0,.43,0,.64a2.74,2.74,0,0,0,.15-.46,11.29,11.29,0,0,0,.5-2.37,11.85,11.85,0,0,1,.19-1.82,3.76,3.76,0,0,1,1.06-1.87,13.29,13.29,0,0,0,.46,3.43,6.37,6.37,0,0,0,.2.75,1.61,1.61,0,0,1,.05-.66c.07-.39.19-.83.25-1.1a15.13,15.13,0,0,1,.59-1.93A9.4,9.4,0,0,1,134.56,0c0,.12-.41,1.66-.45,1.81a5.81,5.81,0,0,0-.27,1.9A2.24,2.24,0,0,0,134.64,5.55Z"/><path class="cls-3" d="M128,6.48v8.73l93.31,53.45,3.36,1.91,27.76,15.9,3-1.74,2.34-1.33,1-.59a3.68,3.68,0,0,1,1.26-.47.46.46,0,0,0,.26-.18c.49-.82-1.38-3.94-1.61-4.42A2.66,2.66,0,0,0,256.85,80a50.21,50.21,0,0,1-.9-5c-1.17.39-1.74,1.74-1.49,3.45-.67-1.78-1.16-3.47-.38-4.54C253,74,252.36,75,251.8,76a22.82,22.82,0,0,0-1.38-2.35,10.39,10.39,0,0,1,.72,3.1.74.74,0,0,1,0,.12,12.5,12.5,0,0,1,.42,1.68c-.25-.37-.5-.77-.75-1.21-1-1.78-1.88-4-1.74-5.41a2.3,2.3,0,0,0-1.52,2.18c-.2-1.29-.9-2.14-1.47-3.46a6.71,6.71,0,0,1-.36,2,4.92,4.92,0,0,1-.24-.45l-.07-.13c-.29-.54-.53-1.09-.75-1.62l-.28-.75a4.94,4.94,0,0,1,.13.75,1.92,1.92,0,0,1-.73,1.9,10.44,10.44,0,0,0-.47-1.89,7.77,7.77,0,0,0-.34-.9,7.18,7.18,0,0,0-.55-1,14,14,0,0,1-.94-1.7,13.14,13.14,0,0,1,.52,1.7,9.4,9.4,0,0,1,.26,1.9,3.15,3.15,0,0,1,0,.53c-.09-.17-.17-.35-.25-.52-.3-.61-.59-1.21-.87-1.82a14.21,14.21,0,0,1-.76,1.27.81.81,0,0,1-.12.18,4.14,4.14,0,0,1-.35.38,1.76,1.76,0,0,1-.29.24,1,1,0,0,0,0-.24c0-.28-.11-.56-.14-.82a2.33,2.33,0,0,1,.15-1.09,4.5,4.5,0,0,1,.2-.51,1.94,1.94,0,0,0-.91.52,2.49,2.49,0,0,0-.65,1c-.05.16-.1.32-.14.5,0-.1-.07-.2-.1-.3-.18-.41-.35-.82-.51-1.22-.25-.61-.47-1.22-.68-1.82a10.27,10.27,0,0,1-.24,1.81,9.34,9.34,0,0,0-.73-1.38,6.82,6.82,0,0,1-.26-.88,11.1,11.1,0,0,1-.61-2.81c-.27-.21-.44,0-.52.23a11,11,0,0,0-.55,3,8.37,8.37,0,0,1-.42-1.4l0-.1a7.51,7.51,0,0,0-.94-1.7A14.89,14.89,0,0,1,231,61a8.88,8.88,0,0,1,.87,5c-.13-.68-.28-1.35-.42-2a4.19,4.19,0,0,0-1.19.61c-.14-.59-.29-1.18-.43-1.77a6.68,6.68,0,0,1-.24-1.33,1.17,1.17,0,0,1,.18-.72,4.91,4.91,0,0,0-1.57,3c0,.11,0,.22-.05.33a.47.47,0,0,1,0,.09c0-.15-.07-.3-.11-.46s-.09-.34-.13-.53c-.2-.72-.43-1.46-.68-2.21a.27.27,0,0,0-.41.13L226,62.21l-.16.29c0-1.59-.9-3.61-1.78-5.46a23,23,0,0,1,.2,4.49,4.55,4.55,0,0,0-.49-1.92,2.69,2.69,0,0,0-.3.37s0,0,0,0a1.65,1.65,0,0,1-.22.24c-.24.21-.59.29-.84.49a11.19,11.19,0,0,1-.59-3.52c0,.36-.45.74-.59,1s-.35.91-.55,1.33a7.66,7.66,0,0,0-.59-1.67,8.58,8.58,0,0,1-.37-2.24,3.07,3.07,0,0,0-1.38,1.1c-.19.22-.37.47-.53.68,0,0-.1-.26-.22-.58-.25-.61-.64-1.52-.72-1.71a13.33,13.33,0,0,0-1.8-2.63,9,9,0,0,1,.88,4.81.18.18,0,0,0-.21.2,22.12,22.12,0,0,0-1.25-2.79,1.46,1.46,0,0,1-.74.89.87.87,0,0,1-.58,0v0a6.1,6.1,0,0,0-.38-1.26c-.45-.88-1-1.79-1.53-2.67a7.77,7.77,0,0,1,.13,3.62,11,11,0,0,1-.89-2.56,2.08,2.08,0,0,1-.29.51c-.11.19-.21.33-.24.39-.16.27-.4.41-.52.69-.06-.47-.46-.93-.58-1.4a4.31,4.31,0,0,1-.17-1.7,2.37,2.37,0,0,1,.57-1.14h-.68c-.89,0-1.19.31-1.36,1.21a8,8,0,0,0-.36,1,8.63,8.63,0,0,0-.59-2.14,4,4,0,0,1-.17-.56s0,0,0-.08c-.11-.4-.2-.85-.07-.89a29.44,29.44,0,0,0-3,1.11,5.34,5.34,0,0,1,1.19-2.32,2.47,2.47,0,0,0-2.09,1.27s0-.07-.05-.15-.07-.19-.11-.28a12.81,12.81,0,0,0-2.91-4.8c.66.64.52,2,.57,2.61a3.5,3.5,0,0,1-.27,2.26c-.06,0-.6-1.46-.66-1.59a20.82,20.82,0,0,0-1.15-2.32,5.87,5.87,0,0,0-1.12-1.62,19.15,19.15,0,0,1,.64,2.56,2.89,2.89,0,0,1-.09.74,4.78,4.78,0,0,1-.67,1.44c-.08-.31-.18-.66-.3-1l-.14-.4c-.61-1.82-1.43-4-.48-4.69a3.24,3.24,0,0,0-1.1.11,1,1,0,0,0-.45.21c-.47.37-.39,1.57-.88,1.82-.44-.92-.71-1.87-1.13-2.8a14.76,14.76,0,0,0-1.53-2.89,43.78,43.78,0,0,1,1.19,5.13,15.55,15.55,0,0,0-2.51-4.16,10.48,10.48,0,0,1,.28,3.18,6.28,6.28,0,0,0-.87-2.19,14.79,14.79,0,0,1-1.06-2.73c-.11.07-.12.26-.13.43,0,.65,0,1.35-.07,2-.09-.12-.14-.28-.25-.43a20.9,20.9,0,0,1-1.52-2.39,1.49,1.49,0,0,0,.06.5,10.74,10.74,0,0,1,.37,2c-.31-.59-.62-1.19-1-1.79a3.6,3.6,0,0,1,0,1.08c-.05.23-.08.31-.33.2a2.56,2.56,0,0,1-1.09-3.14.59.59,0,0,0-.74,0,5,5,0,0,0-1,.85c-.33-.71-.63-1.44-.95-2.16,0,1,0,1.45-.36,2a4.68,4.68,0,0,1-.65-3.25c-.08.28-.47.47-.62.71-.32.5-.87.49-1.24.9a.52.52,0,0,1-.1-.18c-.67-1.71-1-3.28-.24-4.25a2.38,2.38,0,0,0-1.81,1.89A12.08,12.08,0,0,0,174.05,29,20.37,20.37,0,0,1,174,31.9a38.79,38.79,0,0,0-2.38-3.35,3.81,3.81,0,0,1,.37,2.24c-.14.66-.43.87-1.11.52a20.33,20.33,0,0,0-1.46-3.53c-.42-1-.65-2.12-.29-2.64a5.38,5.38,0,0,0-1.51,3.65,5.67,5.67,0,0,1-1.15-4.18,22.51,22.51,0,0,0-1.13,3.73c0-.59-.68-1.41-.88-2.08-.36-1.3-.29-2.49.61-2.76a1,1,0,0,0-.88.31c-.68.58-1.59,1-1.85,2,.15-.55-1-2.72-1.38-3.39-.66-1.17-1.45-2.4-2.19-3.59a8.93,8.93,0,0,1,.9,6.63c-.69-2.29-2.18-4.34-1.88-6.37a2.52,2.52,0,0,0-.79,1.79,13.82,13.82,0,0,1-.33,2.21c-.69-1.51-1.41-3-2.14-4.56a4.53,4.53,0,0,0-.94-1.4c.4,1,.76,2,1.06,3a14.5,14.5,0,0,1,.22,2.2c-1-1.16-2.46-3.07-2-4.29-.3.18-.66.24-.94.42a1.81,1.81,0,0,0-.48,1.8,6.19,6.19,0,0,0-.85-1.52c-.28-.45-.56-.88-.84-1.34a17.74,17.74,0,0,0-1.75-2.5,10.69,10.69,0,0,1,1.09,3.56l-2.21-3.34c-.16.66-.31,1.34-.42,2a11.45,11.45,0,0,1-1.62-3c.22,1,1.07,3.27-.19,2.91l-.1-.06c-.54-.3-.67-.9-.93-1.47a10.52,10.52,0,0,1-.74-2.1c-.12-.68-.21-1.36-.26-2-.6.75-.38,2.32-.6,3.48a17.19,17.19,0,0,1-2.2-4.11c0,.72,0,1.5-.43,1.82a6.45,6.45,0,0,1-1.13-3.57,17.18,17.18,0,0,1-.37,1.73,6.4,6.4,0,0,0,.32,1.89,7.93,7.93,0,0,0-1-1.42,2.72,2.72,0,0,1-.62-1.37,2.55,2.55,0,0,1,.13-1.11c-.57.1-.65,1-1.06,1.39a.09.09,0,0,1-.15,0,.31.31,0,0,1-.09-.11c-.11-.25-.2-.5-.3-.73a8.52,8.52,0,0,0-1.06-1.91c-.09.82-.35,1.46-.39,2.29,0,.22,0,.42,0,.62a4.59,4.59,0,0,1-.15-.44A11.52,11.52,0,0,1,133,7.65a11.48,11.48,0,0,0-.19-1.79,3.53,3.53,0,0,0-1-1.81,13.08,13.08,0,0,1-.46,3.34,4.64,4.64,0,0,1-.2.73,1.65,1.65,0,0,0,0-.64c-.08-.39-.2-.81-.25-1.07a14.53,14.53,0,0,0-.58-1.89,9.1,9.1,0,0,0-2.22-3.45c0,.12.4,1.62.44,1.76a5.52,5.52,0,0,1,.26,1.86A2.13,2.13,0,0,1,128,6.48Z"/></g></g></g></svg>