<svg xmlns="http://www.w3.org/2000/svg" viewBox="0 0 60.13 47.26"><defs><style>.cls-1{fill:#f4f4f4;}.cls-2{fill:#655a66;}.cls-3{fill:#483e49;}.cls-4{fill:#d7d4d8;}.cls-5{fill:#3d2a2d;}.cls-6{fill:#523e41;}.cls-7{fill:#9a949b;}.cls-8{fill:#2d201d;}.cls-9{fill:#45332f;}.cls-10{fill:#9e7d77;}.cls-11{fill:#aa8480;}.cls-12{fill:#c6a39e;}.cls-13{fill:#504751;}.cls-14{fill:#b1aab2;}.cls-15{fill:#c0bcc1;}.cls-16{fill:#cdc8ce;}.cls-17{fill:#e8e8e8;}.cls-18{fill:#746d75;}.cls-19{fill:#544a45;}.cls-20{fill:#7d676b;}.cls-21{fill:#766377;}.cls-22{fill:#604b50;}.cls-23{fill:#c5c1c6;}.cls-24{fill:#dd8d45;}.cls-25{fill:#c9c7c9;}</style></defs><title>bil_01</title><g id="Layer_2" data-name="Layer 2"><g id="Layer_1-2" data-name="Layer 1"><polygon class="cls-1" points="41.65 9.17 25.66 0 10.62 8.46 26.57 17.82 41.65 9.17"/><polygon class="cls-2" points="60.13 31.09 58.31 30.06 57.48 30.48 59.52 32.76 60.12 32.47 60.13 31.09"/><polygon class="cls-3" points="6.22 17.07 1.59 19.36 2.07 23.15 7.41 20.05 6.22 17.07"/><polygon class="cls-3" points="4.63 16.05 0 18.34 0.85 20.82 5.82 19.04 4.63 16.05"/><polygon class="cls-4" points="41.6 9.04 26.51 17.76 29.66 30.11 48.22 19.42 41.6 9.04"/><polygon class="cls-5" points="42.04 9.73 26.74 18.68 29.81 30.12 48.23 19.41 42.04 9.73"/><polygon class="cls-6" points="41.92 10.5 27.29 18.85 29.81 28.27 46.98 18.22 41.92 10.5"/><polygon class="cls-4" points="47.6 18.33 29.37 28.99 30.19 32.48 49.54 20.75 47.6 18.33"/><polygon class="cls-7" points="34.27 34.17 29.64 36.47 30.11 40.26 35.45 37.16 34.27 34.17"/><path class="cls-8" d="M39.65,43.7A8,8,0,0,0,36,37.47,2.85,2.85,0,0,0,33.91,37c-.12,0-2.06,1.11-2.11,1.14a2.55,2.55,0,0,0-.8,2.16,8,8,0,0,0,3.61,6.23,2.76,2.76,0,0,0,2.25.39,8.94,8.94,0,0,0,2.35-1.52A3.18,3.18,0,0,0,39.65,43.7Z"/><path class="cls-9" d="M30.6,40.53a8,8,0,0,0,3.61,6.23c2,1.16,3.61.23,3.61-2.06a7.94,7.94,0,0,0-3.61-6.22C32.22,37.32,30.6,38.24,30.6,40.53Z"/><path class="cls-10" d="M34.21,39.69c-1.41-.81-2.55-.16-2.55,1.46a5.64,5.64,0,0,0,2.55,4.4c1.41.81,2.55.16,2.55-1.46A5.62,5.62,0,0,0,34.21,39.69Zm.06,5.49a5.13,5.13,0,0,1-2.33-4c0-1.48,1-2.07,2.33-1.33a5.13,5.13,0,0,1,2.32,4C36.59,45.32,35.55,45.92,34.27,45.18Z"/><path class="cls-10" d="M32.3,41.37a4.51,4.51,0,0,0,2.05,3.53c1.13.65,2,.13,2-1.17a4.51,4.51,0,0,0-2-3.53C33.22,39.55,32.3,40.07,32.3,41.37Z"/><path class="cls-8" d="M35.28,43.09a1.13,1.13,0,0,0,.52.89c.28.17.52,0,.52-.29a1.16,1.16,0,0,0-.52-.9C35.51,42.62,35.28,42.76,35.28,43.09Z"/><path class="cls-8" d="M32.4,41.42a1.15,1.15,0,0,0,.52.9c.28.17.52,0,.52-.3a1.14,1.14,0,0,0-.52-.89C32.63,41,32.4,41.09,32.4,41.42Z"/><path class="cls-8" d="M34.36,43.61c-.29-.17-.52,0-.52.3a1.13,1.13,0,0,0,.52.89c.28.17.52,0,.52-.29A1.18,1.18,0,0,0,34.36,43.61Z"/><path class="cls-8" d="M34.36,40.31c-.29-.17-.52,0-.52.29a1.15,1.15,0,0,0,.52.9c.28.16.52,0,.52-.3A1.14,1.14,0,0,0,34.36,40.31Z"/><path class="cls-8" d="M33.71,42.93c-.21-.36-.53-.55-.74-.43s-.2.49,0,.84.53.54.74.43S33.91,43.28,33.71,42.93Z"/><path class="cls-8" d="M35.74,41.76c-.2-.35-.53-.54-.73-.42s-.21.49,0,.84.53.54.73.43S35.94,42.11,35.74,41.76Z"/><path class="cls-8" d="M33.71,41.43c.2-.11.2-.49,0-.84s-.53-.54-.74-.43-.2.5,0,.85S33.5,41.55,33.71,41.43Z"/><path class="cls-8" d="M35.74,44.94c.2-.11.2-.49,0-.84s-.53-.54-.73-.42-.21.49,0,.84S35.54,45.06,35.74,44.94Z"/><path class="cls-11" d="M33.1,42a2.44,2.44,0,0,0,1.11,1.91c.61.35,1.11.07,1.11-.63a2.44,2.44,0,0,0-1.11-1.91C33.6,41,33.1,41.28,33.1,42Z"/><path class="cls-12" d="M32.94,42.08A2.44,2.44,0,0,0,34.05,44c.61.35,1.1.07,1.1-.64a2.43,2.43,0,0,0-1.1-1.91C33.43,41.1,32.94,41.38,32.94,42.08Z"/><polygon class="cls-7" points="6.93 16.25 2.3 18.54 2.72 22.32 8.11 19.23 6.93 16.25"/><path class="cls-8" d="M11.69,27.92a8,8,0,0,0-3.61-6.23A2.85,2.85,0,0,0,6,21.26c-.13,0-2.07,1.1-2.11,1.14A2.52,2.52,0,0,0,3,24.56a8,8,0,0,0,3.61,6.23,2.75,2.75,0,0,0,2.24.39,8.78,8.78,0,0,0,2.35-1.52A3.09,3.09,0,0,0,11.69,27.92Z"/><path class="cls-9" d="M2.64,24.75A7.94,7.94,0,0,0,6.25,31c2,1.15,3.61.23,3.61-2.06a8,8,0,0,0-3.61-6.23C4.25,21.54,2.64,22.46,2.64,24.75Z"/><path class="cls-10" d="M6.25,23.91c-1.41-.81-2.55-.16-2.55,1.46a5.64,5.64,0,0,0,2.55,4.4c1.41.81,2.55.16,2.55-1.46A5.61,5.61,0,0,0,6.25,23.91Zm.06,5.49a5.13,5.13,0,0,1-2.33-4c0-1.48,1-2.07,2.33-1.33a5.13,5.13,0,0,1,2.32,4C8.63,29.54,7.59,30.14,6.31,29.4Z"/><path class="cls-10" d="M4.34,25.59a4.52,4.52,0,0,0,2.05,3.53c1.13.65,2,.13,2-1.17a4.49,4.49,0,0,0-2-3.53C5.26,23.77,4.34,24.29,4.34,25.59Z"/><path class="cls-8" d="M7.31,27.3a1.18,1.18,0,0,0,.52.9c.29.17.52,0,.52-.3A1.12,1.12,0,0,0,7.83,27C7.55,26.84,7.31,27,7.31,27.3Z"/><path class="cls-8" d="M4.43,25.64a1.18,1.18,0,0,0,.52.9c.29.16.52,0,.52-.3a1.15,1.15,0,0,0-.52-.9C4.67,25.18,4.43,25.31,4.43,25.64Z"/><path class="cls-8" d="M6.39,27.83a.32.32,0,0,0-.52.29,1.18,1.18,0,0,0,.52.9c.29.17.52,0,.52-.29A1.13,1.13,0,0,0,6.39,27.83Z"/><path class="cls-8" d="M6.39,24.52c-.28-.16-.52,0-.52.3a1.18,1.18,0,0,0,.52.9c.29.16.52,0,.52-.3A1.15,1.15,0,0,0,6.39,24.52Z"/><path class="cls-8" d="M5.74,27.14c-.2-.35-.53-.54-.73-.42s-.21.49,0,.84.53.54.73.43S6,27.49,5.74,27.14Z"/><path class="cls-8" d="M7.78,26c-.2-.35-.53-.54-.74-.42s-.2.49,0,.84.54.54.74.43S8,26.33,7.78,26Z"/><path class="cls-8" d="M5.74,25.65c.21-.11.21-.49,0-.84s-.53-.54-.73-.43-.21.5,0,.85S5.54,25.77,5.74,25.65Z"/><path class="cls-8" d="M7.78,29.16c.2-.11.2-.49,0-.84s-.53-.54-.74-.43-.2.5,0,.85S7.58,29.28,7.78,29.16Z"/><path class="cls-11" d="M5.14,26.2a2.44,2.44,0,0,0,1.11,1.91c.61.35,1.11.07,1.11-.63a2.44,2.44,0,0,0-1.11-1.91C5.64,25.21,5.14,25.5,5.14,26.2Z"/><path class="cls-12" d="M5,26.3a2.43,2.43,0,0,0,1.11,1.91c.61.36,1.11.07,1.11-.63a2.44,2.44,0,0,0-1.11-1.91C5.47,25.32,5,25.6,5,26.3Z"/><polygon class="cls-7" points="59.73 30.33 41.09 41.13 39.08 44.57 57.71 33.77 59.73 30.33"/><polygon class="cls-13" points="60.13 32.47 41.13 43.48 40.82 44.15 59.73 33.21 60.13 32.47"/><polygon class="cls-14" points="60.09 27.56 41.48 38.36 41.12 41.18 59.74 30.33 60.09 27.56"/><polygon class="cls-15" points="60.07 27.31 41.23 37.6 41.4 38.44 60.1 27.57 60.07 27.31"/><polygon class="cls-16" points="48.51 19.65 29.39 30.09 41.42 38.16 60.06 27.35 48.51 19.65"/><path class="cls-4" d="M.68,14.71.13,16.6,2,21.89l.76.43c.57-1.51,2.09-1.95,3.89-.91a9.1,9.1,0,0,1,4.14,7.13v.1l.15.53,19,11,.23.11a4.84,4.84,0,0,1,0-.53c0-2.62,1.85-3.68,4.14-2.36a9.19,9.19,0,0,1,4.12,6.79l.75.44,2.12-3.52.24-2.74Z"/><polygon class="cls-17" points="41.27 39.16 1 15.82 1.1 15.64 41.38 38.98 41.27 39.16"/><polygon class="cls-17" points="31.01 37.19 9.37 24.51 9.54 24.36 31.21 36.99 31.01 37.19"/><polygon class="cls-7" points="41.66 41.64 39.85 40.61 39.02 41.04 41.06 43.32 41.66 43.03 41.66 41.64"/><polygon class="cls-18" points="2.07 19.53 0.01 18.34 0.5 21.36 2.07 23.17 2.07 19.53"/><polygon class="cls-9" points="26.03 37.62 12.41 29.73 8.88 19.28 9.05 19.3 12.54 29.59 25.85 37.31 26.54 28.63 26.73 28.76 26.03 37.62"/><polygon class="cls-9" points="17.44 32.59 17.23 32.47 17.23 23.07 17.44 23.19 17.44 32.59"/><polygon class="cls-17" points="30.01 39.42 10.88 28.38 11.08 29.43 29.9 40.3 30.01 39.42"/><polygon class="cls-19" points="59.85 27.95 41.74 38.5 41.54 40.63 59.37 30.23 59.85 27.95"/><polygon class="cls-4" points="29.71 29.96 26.55 17.71 10.65 8.44 1.71 13.89 29.71 29.96"/><polygon class="cls-17" points="41.42 38.13 29.72 29.87 1.71 13.89 0.68 14.71 41.47 38.37 41.42 38.13"/><polygon class="cls-9" points="26.09 18.09 13.73 10.96 9.05 15.04 9.3 17.8 28.09 28.65 28.46 27.73 26.09 18.09"/><polygon class="cls-20" points="25.58 18.33 14.01 11.65 9.69 15.22 9.94 17.72 27.52 27.87 27.86 27.04 25.58 18.33"/><polygon class="cls-17" points="13.93 10.34 6.48 16.71 1.71 13.89 10.65 8.44 13.93 10.34"/><polygon class="cls-9" points="27.73 28.2 27.6 28 26.46 29.6 26.59 29.79 27.73 28.2"/><polygon class="cls-9" points="9.82 17.78 9.7 17.59 8.92 19.39 9.05 19.58 9.82 17.78"/><polygon class="cls-9" points="9.04 17.58 7.16 16.5 8.81 15.38 9.04 17.58"/><polygon class="cls-9" points="20.18 14.95 19.14 14.28 17.65 22.28 18.69 22.95 20.18 14.95"/><polygon class="cls-4" points="19.86 14.39 19.51 14.17 17.86 22.83 18.25 23.11 19.86 14.39"/><path class="cls-17" d="M30.17,40.05c0-2.77,1.82-3.89,4.06-2.5a9.91,9.91,0,0,1,4,6.6l.75.45a11.34,11.34,0,0,0-4.58-7.79c-2.55-1.59-4.62-.31-4.62,2.85,0,.18,0,.37,0,.55l.4.24C30.18,40.32,30.17,40.18,30.17,40.05Z"/><polygon class="cls-9" points="18.07 22.86 17.94 22.67 17.24 24.23 17.37 24.43 18.07 22.86"/><path class="cls-21" d="M5.29,14.83a.92.92,0,0,0-.24-1.21A.8.8,0,0,0,4,14.07a.93.93,0,0,0,.25,1.22A.79.79,0,0,0,5.29,14.83Z"/><path class="cls-17" d="M5.21,14.78a.81.81,0,0,0-.22-1,.7.7,0,0,0-.93.4.82.82,0,0,0,.22,1A.69.69,0,0,0,5.21,14.78Z"/><polygon class="cls-2" points="59.79 31.14 40.79 42.14 41.13 43.48 60.13 32.48 59.79 31.14"/><polygon class="cls-18" points="40.85 42.09 39.02 41.03 39.02 43.13 40.8 44.16 41.21 43.42 40.85 42.09"/><polygon class="cls-22" points="45.64 16.81 41.73 10.61 37.68 12.93 45.69 17.55 45.64 16.81"/><polygon class="cls-5" points="38.37 14.13 35.74 15.27 35.68 16.31 38.31 15.16 38.37 14.13"/><polygon class="cls-5" points="36.9 13.24 36.66 13.29 37.33 14.86 37.56 14.8 36.9 13.24"/><path class="cls-17" d="M6.85,20.81c-2.14-1.46-4-.83-4.63,1.31l.55.29c.67-1.55,2.17-1.93,3.91-.75,2.1,1.43,3.85,4.67,4.22,7.61l.8.52C11.36,26.35,9.32,22.49,6.85,20.81Z"/><polygon class="cls-23" points="48.17 19.21 29.53 30.01 60.07 27.33 48.17 19.21"/><polygon class="cls-24" points="39.59 38.48 38.35 37.69 38.35 38.24 39.59 39.03 39.59 38.48"/><path class="cls-17" d="M43.74,38.35c0-.55-.39-.76-.88-.48A2,2,0,0,0,42,39.38c0,.56.38.77.88.49A2,2,0,0,0,43.74,38.35Z"/><path class="cls-17" d="M59.7,29c0-.52-.37-.73-.84-.46A1.91,1.91,0,0,0,58,30c0,.52.36.73.83.46A1.9,1.9,0,0,0,59.7,29Z"/><rect class="cls-5" x="32.74" y="25.45" width="2.42" height="0.15" transform="translate(-5.64 40.93) rotate(-58.19)"/><polygon class="cls-5" points="43.75 20.51 43.76 20.36 41.41 20.53 41.4 20.68 43.75 20.51"/><polygon class="cls-5" points="37.3 23.93 32.43 24.88 32.52 25.22 37.29 24.18 37.3 23.93"/><polygon class="cls-5" points="42.43 19.4 39.67 22.53 39.9 22.71 42.55 19.57 42.43 19.4"/><path class="cls-25" d="M43.13,38.54c0-.32-.22-.44-.5-.27a1.08,1.08,0,0,0-.52.86c0,.31.21.44.5.27A1.15,1.15,0,0,0,43.13,38.54Z"/><path class="cls-25" d="M59.08,29.27c0-.29-.2-.41-.47-.25a1,1,0,0,0-.48.8c0,.29.2.41.46.26A1.1,1.1,0,0,0,59.08,29.27Z"/><polygon class="cls-17" points="30.08 30.68 26.55 17.71 25.79 17.21 28.81 29.99 30.08 30.68"/></g></g></svg>