<svg xmlns="http://www.w3.org/2000/svg" viewBox="0 0 118.43 95.73"><defs><style>.cls-1{fill:#7e676b;}.cls-2{fill:#7c7429;}.cls-3{fill:#b29ea5;}.cls-4{fill:#3d2a2d;}.cls-5{fill:#493336;}.cls-6{fill:#af979b;}.cls-7{fill:#997f85;}.cls-8{fill:#ceb2b8;}.cls-9{fill:#382428;}.cls-10{fill:#f4eaed;}.cls-11{fill:#d3c5cb;}.cls-12{fill:#827077;}.cls-13{fill:#f40000;}.cls-14{fill:#ccbec2;}.cls-15{fill:#523e41;}.cls-16{fill:#604b50;}.cls-17{fill:#e7e3e4;}.cls-18{fill:#9b0505;}.cls-19{fill:#eae1e4;}.cls-20{fill:#6d4e53;}.cls-21{fill:#c1b6ba;}.cls-22{fill:#baaf49;}.cls-23,.cls-25{fill:#968387;}.cls-23{opacity:0.1;}.cls-24{fill:#8e8086;}.cls-25{opacity:0.5;}.cls-26{fill:#e27830;}.cls-27{fill:#fff5f8;}.cls-28{fill:#333;}.cls-29{fill:#d8d6d7;}.cls-30{fill:#baafb5;}.cls-31{opacity:0.88;}.cls-32{fill:#fff;}</style></defs><title>buss_01</title><g id="Layer_2" data-name="Layer 2"><g id="Layer_1-2" data-name="Layer 1"><polygon class="cls-1" points="2.86 38.93 0 40.37 0 41.04 2.86 39.59 2.86 38.93"/><polygon class="cls-2" points="13.99 49.01 17.5 47.41 14.14 46.77 13.99 49.01"/><polygon class="cls-3" points="115.57 81.61 114.5 80.98 114.69 82.13 115.57 81.61"/><polygon class="cls-4" points="77.22 85.8 80.61 83.89 76.83 83.18 77.22 85.8"/><path class="cls-5" d="M85.35,89.2a6.37,6.37,0,0,0-2.85-5A2,2,0,0,0,80.37,84v-.1L78.5,85a1.89,1.89,0,0,0-1.09,2A6.4,6.4,0,0,0,80.26,92a1.93,1.93,0,0,0,2.26.1l1.79-1A1.91,1.91,0,0,0,85.35,89.2Z"/><path class="cls-5" d="M85.35,89.2a6.37,6.37,0,0,0-2.85-5c-1.6-1-2.91-.22-2.93,1.62a6.41,6.41,0,0,0,2.85,5.06C84,91.78,85.33,91.05,85.35,89.2Z"/><path class="cls-5" d="M83.19,90.39a6.39,6.39,0,0,0-2.85-5.06c-1.6-1-2.91-.22-2.93,1.63A6.4,6.4,0,0,0,80.26,92C81.86,93,83.17,92.23,83.19,90.39Z"/><polygon class="cls-5" points="82.22 92.28 84.53 91.03 82.84 90.01 82.22 92.28"/><polygon class="cls-5" points="80.19 85.71 78.21 85.17 80.38 83.86 80.19 85.71"/><path class="cls-6" d="M82.11,90.05a4.51,4.51,0,0,0-2-3.56c-1.12-.66-2-.15-2.06,1.15a4.51,4.51,0,0,0,2,3.55C81.18,91.86,82.1,91.34,82.11,90.05Z"/><path class="cls-7" d="M81,89.9A6.11,6.11,0,0,1,81.84,91a1.69,1.69,0,0,0,.27-1,4.51,4.51,0,0,0-2-3.56c-1.12-.66-2-.15-2.06,1.15a2.61,2.61,0,0,0,.08.72A4.57,4.57,0,0,1,81,89.9Z"/><path class="cls-8" d="M81.28,89.55a2.69,2.69,0,0,0-1.18-2.1c-.67-.39-1.21-.09-1.22.68a2.64,2.64,0,0,0,1.19,2.1C80.73,90.63,81.27,90.32,81.28,89.55Z"/><path class="cls-9" d="M82.5,84.15A2,2,0,0,0,80.37,84v-.1L78.5,85l-.06,0c1.49-.74,6.19,3.22,4.41,6.91l1.46-.79a1.91,1.91,0,0,0,1-1.94A6.37,6.37,0,0,0,82.5,84.15Z"/><path class="cls-5" d="M81.19,87.92A.55.55,0,0,0,81,87.5c-.13-.08-.24,0-.24.14a.53.53,0,0,0,.23.41C81.08,88.13,81.19,88.07,81.19,87.92Z"/><path class="cls-5" d="M81.7,88.79a.55.55,0,0,0-.23-.42c-.14-.07-.24,0-.24.14a.51.51,0,0,0,.23.41C81.59,89,81.7,88.94,81.7,88.79Z"/><path class="cls-5" d="M81.94,89.71a.51.51,0,0,0-.23-.41c-.13-.08-.24,0-.24.13a.51.51,0,0,0,.23.41C81.84,89.92,81.94,89.86,81.94,89.71Z"/><path class="cls-5" d="M81.87,90.51a.51.51,0,0,0-.23-.41c-.14-.08-.24,0-.24.13a.49.49,0,0,0,.23.41C81.76,90.72,81.87,90.66,81.87,90.51Z"/><path class="cls-5" d="M81.43,91a.49.49,0,0,0-.23-.41c-.13-.08-.24,0-.24.13a.5.5,0,0,0,.24.41C81.33,91.23,81.43,91.17,81.43,91Z"/><path class="cls-5" d="M80.66,91a.56.56,0,0,0-.24-.42c-.13-.08-.23,0-.24.14a.54.54,0,0,0,.24.41C80.55,91.16,80.66,91.1,80.66,91Z"/><path class="cls-5" d="M80,90.54a.54.54,0,0,0-.24-.42c-.13-.08-.24,0-.24.13a.56.56,0,0,0,.24.42C79.85,90.75,80,90.69,80,90.54Z"/><path class="cls-5" d="M79.28,89.91a.54.54,0,0,0-.24-.42c-.13-.08-.24,0-.24.13A.56.56,0,0,0,79,90C79.17,90.12,79.28,90.06,79.28,89.91Z"/><path class="cls-5" d="M78.82,89a.54.54,0,0,0-.24-.42c-.13-.08-.24,0-.24.13a.56.56,0,0,0,.24.42C78.71,89.2,78.82,89.14,78.82,89Z"/><path class="cls-5" d="M78.72,88.06a.53.53,0,0,0-.23-.41c-.14-.08-.24,0-.24.13a.52.52,0,0,0,.23.42C78.61,88.27,78.72,88.21,78.72,88.06Z"/><path class="cls-5" d="M78.94,87.24a.56.56,0,0,0-.24-.42c-.13-.07-.24,0-.24.14a.54.54,0,0,0,.24.41C78.83,87.45,78.94,87.39,78.94,87.24Z"/><path class="cls-5" d="M79.54,86.92a.5.5,0,0,0-.23-.41c-.13-.08-.24,0-.24.13a.55.55,0,0,0,.23.42C79.44,87.14,79.54,87.08,79.54,86.92Z"/><path class="cls-5" d="M80.39,87.19a.51.51,0,0,0-.23-.41c-.13-.08-.24,0-.24.13a.51.51,0,0,0,.23.41C80.28,87.4,80.39,87.34,80.39,87.19Z"/><path class="cls-5" d="M22.14,52.41a6.42,6.42,0,0,0-2.86-5.06,2,2,0,0,0-2.13-.19v-.1L15.28,48.2a1.91,1.91,0,0,0-1.09,2,6.42,6.42,0,0,0,2.86,5.06,1.94,1.94,0,0,0,2.26.1l1.79-1A1.92,1.92,0,0,0,22.14,52.41Z"/><path class="cls-5" d="M22.14,52.41a6.42,6.42,0,0,0-2.86-5.06c-1.59-1-2.91-.22-2.93,1.63A6.44,6.44,0,0,0,19.21,54C20.81,55,22.12,54.26,22.14,52.41Z"/><path class="cls-5" d="M20,53.59a6.44,6.44,0,0,0-2.86-5.06c-1.59-.94-2.91-.21-2.93,1.63a6.42,6.42,0,0,0,2.86,5.06C18.65,56.17,20,55.44,20,53.59Z"/><polygon class="cls-5" points="19 55.48 21.31 54.23 19.62 53.22 19 55.48"/><polygon class="cls-5" points="16.97 48.92 15 48.38 17.16 47.06 16.97 48.92"/><path class="cls-6" d="M18.9,53.25a4.52,4.52,0,0,0-2-3.55c-1.12-.67-2-.15-2.06,1.14a4.55,4.55,0,0,0,2,3.56C18,55.06,18.88,54.55,18.9,53.25Z"/><path class="cls-7" d="M17.8,53.11a5.74,5.74,0,0,1,.82,1.14,1.8,1.8,0,0,0,.28-1,4.52,4.52,0,0,0-2-3.55c-1.12-.67-2-.15-2.06,1.14a3.71,3.71,0,0,0,.08.73A4.54,4.54,0,0,1,17.8,53.11Z"/><path class="cls-8" d="M18.07,52.76a2.64,2.64,0,0,0-1.19-2.1c-.66-.4-1.21-.09-1.22.67a2.73,2.73,0,0,0,1.19,2.11C17.52,53.83,18.06,53.53,18.07,52.76Z"/><path class="cls-9" d="M19.28,47.35a2,2,0,0,0-2.13-.19v-.1L15.28,48.2l-.06,0c1.5-.75,6.2,3.21,4.42,6.91l1.46-.79a1.92,1.92,0,0,0,1-1.94A6.42,6.42,0,0,0,19.28,47.35Z"/><path class="cls-5" d="M18,51.12a.54.54,0,0,0-.24-.41c-.13-.08-.24,0-.24.13a.56.56,0,0,0,.24.42C17.87,51.34,18,51.28,18,51.12Z"/><path class="cls-5" d="M18.49,52a.54.54,0,0,0-.24-.42c-.13-.08-.24,0-.24.13a.54.54,0,0,0,.24.42C18.38,52.21,18.49,52.15,18.49,52Z"/><path class="cls-5" d="M18.73,52.92a.53.53,0,0,0-.24-.42c-.13-.08-.23,0-.24.13a.54.54,0,0,0,.24.42C18.62,53.13,18.73,53.07,18.73,52.92Z"/><path class="cls-5" d="M18.66,53.72a.56.56,0,0,0-.24-.42c-.13-.08-.24,0-.24.14a.54.54,0,0,0,.24.41C18.55,53.93,18.66,53.87,18.66,53.72Z"/><path class="cls-5" d="M18.22,54.23a.51.51,0,0,0-.24-.42c-.13-.08-.23,0-.23.13a.5.5,0,0,0,.23.42C18.11,54.44,18.22,54.38,18.22,54.23Z"/><path class="cls-5" d="M17.45,54.15a.54.54,0,0,0-.24-.41c-.13-.08-.24,0-.24.13a.53.53,0,0,0,.24.42C17.34,54.36,17.44,54.31,17.45,54.15Z"/><path class="cls-5" d="M16.74,53.74a.51.51,0,0,0-.23-.41c-.13-.08-.24,0-.24.13a.55.55,0,0,0,.23.42C16.63,54,16.74,53.89,16.74,53.74Z"/><path class="cls-5" d="M16.06,53.11a.51.51,0,0,0-.23-.41c-.13-.08-.24,0-.24.13a.55.55,0,0,0,.23.42C16,53.32,16.06,53.26,16.06,53.11Z"/><path class="cls-5" d="M15.6,52.19a.55.55,0,0,0-.23-.42c-.13-.07-.24,0-.24.14a.51.51,0,0,0,.23.41C15.5,52.4,15.6,52.34,15.6,52.19Z"/><path class="cls-5" d="M15.51,51.27a.56.56,0,0,0-.24-.42c-.13-.07-.24,0-.24.14a.54.54,0,0,0,.24.41C15.4,51.48,15.51,51.42,15.51,51.27Z"/><path class="cls-5" d="M15.72,50.45a.53.53,0,0,0-.23-.42c-.13-.08-.24,0-.24.13a.55.55,0,0,0,.23.42C15.62,50.66,15.72,50.6,15.72,50.45Z"/><path class="cls-5" d="M16.33,50.13a.53.53,0,0,0-.24-.42c-.13-.07-.23,0-.23.14a.49.49,0,0,0,.23.41C16.22,50.34,16.33,50.28,16.33,50.13Z"/><path class="cls-5" d="M17.18,50.4a.56.56,0,0,0-.24-.42c-.13-.08-.23,0-.24.13a.54.54,0,0,0,.24.42C17.07,50.61,17.18,50.55,17.18,50.4Z"/><polygon class="cls-10" points="114.95 54.68 20.98 0.4 1.28 11.1 95.4 65.75 114.95 54.68"/><polygon class="cls-11" points="73.63 48.74 75.64 48.36 88.02 41.28 61.92 26.15 59.74 26.25 49.77 34.59 73.63 48.74"/><path class="cls-12" d="M118.31,59.8a.23.23,0,0,0-.18,0,.13.13,0,0,0-.07-.06.21.21,0,0,0-.24,0l-.48.25c-.21-.62-.83-1.08-2.76-.73l-.16.32c1.75-.32,2.36,0,2.57.6l-.79.43a.45.45,0,0,0-.24.4V65.4a.23.23,0,0,0,.12.2.28.28,0,0,0,.18,0,.13.13,0,0,0,.07.06.26.26,0,0,0,.24,0l1.65-.89a.39.39,0,0,0,.21-.35V60A.24.24,0,0,0,118.31,59.8Z"/><polygon class="cls-13" points="114.62 55.28 94.22 66.51 93.49 89.56 94.22 95.4 114.62 83.97 114.62 55.28"/><polygon class="cls-14" points="114.62 58.19 94.22 69.97 94.22 89.28 114.62 77.5 114.62 58.19"/><polygon class="cls-3" points="115.57 81.6 94.44 93.8 94.44 95.73 115.57 83.53 115.57 81.6"/><polygon class="cls-4" points="114.62 58 93.86 69.78 94.21 87.63 114.62 75.85 114.62 58"/><polygon class="cls-15" points="114.18 59.39 94.97 70.48 94.97 86.41 114.18 75.32 114.18 59.39"/><polygon class="cls-16" points="114.18 72.86 102.68 66 114.18 59.39 114.18 72.86"/><polygon class="cls-15" points="108.42 62.78 107.89 63.02 107.89 72.28 108.42 72.28 108.42 62.78"/><polygon class="cls-13" points="114.81 56.03 94.34 67.55 94.67 70.12 114.86 58.48 114.81 56.03"/><polygon class="cls-4" points="114.89 54.62 95.32 65.67 94.67 69.63 115.07 57.85 114.89 54.62"/><path class="cls-13" d="M17.26,47.85A6,6,0,0,1,20,52.47L77.36,85.58a1.67,1.67,0,0,1,2.7-1.22,6.06,6.06,0,0,1,3.35,4.69l10.81,6.26V88.57L92.75,66.29.36,15.66l0,25.49L14.08,49C14.31,47.65,15.46,46.88,17.26,47.85Z"/><polygon class="cls-13" points="94.22 89.27 94.22 87.64 93.51 74.62 0.31 20.21 0.31 35.01 39.73 57.79 47.4 62.22 94.22 89.27"/><polygon class="cls-5" points="94.22 69.36 4.05 17.31 4.05 31.77 42 53.67 48.66 61.32 94.22 87.63 94.22 69.36"/><polygon class="cls-14" points="115.58 81.61 114.65 81.42 94.08 93.3 94.73 93.66 115.58 81.61"/><polygon class="cls-10" points="95.48 93.25 94.2 93.23 93.64 92.93 93.23 93.17 94.44 93.84 95.48 93.25"/><polygon class="cls-17" points="94.44 93.84 93.23 93.16 93.23 95.04 94.44 95.73 94.44 93.84"/><polygon class="cls-18" points="73.14 44.28 49.61 30.69 46.62 33.19 73.64 48.79 73.14 44.28"/><polygon class="cls-1" points="93.2 69.86 86.07 65.73 86.07 82.1 93.2 86.22 93.2 69.86"/><polygon class="cls-1" points="58.2 49.59 42.74 40.72 42.74 52.89 48.8 60.17 58.17 65.89 58.2 49.59"/><polygon class="cls-1" points="41.82 40.19 31.05 33.98 31.05 46.33 41.82 52.54 41.82 40.19"/><polygon class="cls-1" points="15.63 25.06 4.58 18.86 4.58 31.21 15.63 37.41 15.63 25.06"/><polygon class="cls-19" points="1.28 11.02 95.62 65.49 94.67 70.12 0.38 15.65 1.28 11.02"/><polygon class="cls-20" points="93.23 65.41 94.4 66.08 94.4 68.7 93.23 68.03 93.23 65.41"/><polygon class="cls-5" points="67.54 55.97 58.42 50.7 58.42 74.72 67.54 79.99 67.54 55.97"/><polygon class="cls-18" points="0.35 15.17 94.67 69.62 94.67 70.12 0.35 15.67 0.35 15.17"/><path class="cls-17" d="M14.19,48.63,0,40.38V41L14.08,49.2A3.2,3.2,0,0,1,14.19,48.63Z"/><path class="cls-17" d="M83.25,88.64a6,6,0,0,1,.11.7l11,6.37v-.63Z"/><polygon class="cls-21" points="98.06 64.88 97.74 67.07 112.05 58.81 111.86 57.06 98.06 64.88"/><polygon class="cls-18" points="52.4 30.98 46.35 27.48 45.58 28.13 52.52 32.13 52.4 30.98"/><polygon class="cls-13" points="54.9 29.59 48.83 26.08 46.34 27.49 52.4 31.02 54.9 29.59"/><polygon class="cls-22" points="59.05 27.6 53.84 30.61 54.11 32.95 61.02 28.94 59.05 27.6"/><polygon class="cls-13" points="82.87 38.88 59.24 25.23 49.55 30.73 73.15 44.47 82.87 38.88"/><polygon class="cls-13" points="50.09 30.78 59.55 25.41 59.24 25.23 49.55 30.73 73.15 44.47 73.38 44.34 50.09 30.78"/><polygon class="cls-10" points="76.97 38.39 73.1 40.62 73.38 40.77 77.24 38.55 76.97 38.39"/><polygon class="cls-10" points="76.09 37.96 72.23 40.18 72.5 40.34 76.37 38.12 76.09 37.96"/><polygon class="cls-10" points="75 37.52 71.14 39.74 71.41 39.9 75.28 37.68 75 37.52"/><polygon class="cls-18" points="82.81 38.85 73.1 44.46 73.6 48.81 86.47 41.35 82.81 38.85"/><polygon class="cls-23" points="94.89 78.29 114.18 75.32 94.97 86.41 94.89 78.29"/><rect class="cls-4" x="105.23" y="64.14" width="0.71" height="16.48"/><polygon class="cls-5" points="97.04 88.71 94.24 90.33 94.24 92.72 97.04 91.11 97.04 88.71"/><polygon class="cls-5" points="114.64 78.39 111.84 80 111.84 82.4 114.64 80.78 114.64 78.39"/><polygon class="cls-5" points="92.73 90.34 91.68 89.73 91.68 90.38 92.73 90.99 92.73 90.34"/><polygon class="cls-1" points="67.75 71.58 85.37 81.71 85.37 65.35 67.75 55.22 67.75 71.58"/><polygon class="cls-1" points="30.27 33.55 16.34 25.48 16.34 37.83 30.27 45.9 30.27 33.55"/><polygon class="cls-5" points="109 81.74 102.14 85.78 102.14 88.05 109 84.02 109 81.74"/><polygon class="cls-24" points="108.81 86.25 104.08 89.03 104.08 90.6 108.81 87.82 108.81 86.25"/><polygon class="cls-18" points="15.94 24.19 14.98 18.88 1.28 11.02 0.35 15.19 15.94 24.19"/><polygon class="cls-13" points="34.01 7.85 20.37 0 1.32 11.01 14.96 18.86 34.01 7.85"/><polygon class="cls-5" points="45.98 42.14 45.47 41.92 45.47 44.36 45.98 44.36 45.98 42.14"/><polygon class="cls-5" points="55.07 47.42 54.56 47.2 54.56 49.64 55.07 49.64 55.07 47.42"/><polygon class="cls-4" points="109.25 63.7 106.48 65.25 106.48 66.7 109.25 65.15 109.25 63.7"/><polygon class="cls-1" points="67.11 54.83 58.78 50.02 58.85 72.2 67.18 77 67.11 54.83"/><polygon class="cls-25" points="93.2 86.22 93.2 77.64 86.07 72.61 86.07 82.1 93.2 86.22"/><polygon class="cls-25" points="42.74 42.04 42.74 52.81 58.17 65.15 58.19 52.94 42.74 42.04"/><polygon class="cls-25" points="32.55 34.84 31.05 33.98 31.05 43.47 41.82 52.08 41.82 41.39 32.55 34.84"/><polygon class="cls-25" points="4.58 18.86 4.58 22.32 15.63 31.16 15.63 25.06 4.58 18.86"/><polygon class="cls-25" points="85.37 81.71 85.37 72.11 67.75 59.68 67.75 71.58 85.37 81.71"/><polygon class="cls-25" points="16.34 25.48 16.34 31.72 30.27 42.85 30.27 33.55 16.34 25.48"/><polygon class="cls-25" points="58.79 53.36 58.83 65.67 67.16 72.33 67.12 59.24 58.79 53.36"/><rect class="cls-5" x="62.63" y="52.21" width="0.52" height="23.03"/><polygon class="cls-14" points="96.82 89.1 94.48 90.44 94.48 92.34 96.83 90.94 96.82 89.1"/><polygon class="cls-14" points="114.41 78.73 112.08 80.07 112.08 81.98 114.42 80.58 114.41 78.73"/><polygon class="cls-26" points="114.42 78.73 113.74 79.12 113.74 81 114.43 80.59 114.42 78.73"/><polygon class="cls-18" points="1.48 10.93 1.25 11.02 1.23 11.29 15.1 19.3 15.1 18.79 1.48 10.93"/><polygon class="cls-27" points="95.5 65.21 15.1 18.79 15.1 19.3 95.5 65.71 95.5 65.21"/><polygon class="cls-5" points="45.47 43.87 45.47 46.13 55.07 51.68 55.07 49.42 45.47 43.87"/><polygon class="cls-1" points="20.63 4.27 23.11 2.83 25.61 4.25 23.09 5.7 20.63 4.27"/><polygon class="cls-18" points="20.63 4.12 23.11 2.69 25.57 3.64 23.05 5.09 20.63 4.12"/><polygon class="cls-19" points="47.68 67.59 53.57 71.03 53.57 67.57 47.68 64.17 47.68 67.59"/><polygon class="cls-28" points="53.37 67.58 47.86 64.4 47.86 67.57 53.37 70.75 53.37 67.58"/><rect class="cls-5" x="62.92" y="65.88" width="0.29" height="10.18" transform="translate(-29.85 90.47) rotate(-60.23)"/><polygon class="cls-5" points="67.3 72.35 58.47 67.29 58.61 67.04 67.44 72.09 67.3 72.35"/><rect class="cls-5" x="62.7" y="63.15" width="0.29" height="10.18" transform="translate(-27.59 88.9) rotate(-60.23)"/><polygon class="cls-26" points="95.39 89.92 94.48 90.44 94.48 92.34 95.39 91.8 95.39 89.92"/><path class="cls-14" d="M101.94,88.4V85.66l7.26-4.27v2.74Zm.4-2.51V87.7l6.46-3.8V82.09Z"/><path class="cls-29" d="M91.89,73.63a.26.26,0,0,0-.13-.23.24.24,0,0,0-.26,0l-1.72,1a.53.53,0,0,0-.27.46v5a.26.26,0,0,0,.13.23.24.24,0,0,0,.26,0l1.76-1a.46.46,0,0,0,.23-.4Z"/><path class="cls-30" d="M92.16,73.72A.25.25,0,0,0,92,73.5a.26.26,0,0,0-.27,0l-1.72,1a.52.52,0,0,0-.26.45v5a.26.26,0,0,0,.13.23.3.3,0,0,0,.26,0l1.76-1a.45.45,0,0,0,.23-.39Z"/><path class="cls-30" d="M90.93,75h-.29v-.09c0-1,0-2.47,2.51-3.86l.14.26c-2.36,1.3-2.36,2.57-2.36,3.6Z"/><polygon class="cls-5" points="32.49 34.59 23.37 29.32 23.37 54.29 32.49 59.55 32.49 34.59"/><polygon class="cls-1" points="32.06 34.39 23.73 29.59 23.8 51.77 32.13 56.57 32.06 34.39"/><polygon class="cls-25" points="32.06 34.39 23.73 29.59 23.76 37.62 32.09 44.24 32.06 34.39"/><rect class="cls-5" x="27.58" y="31.78" width="0.52" height="23.03"/><polygon class="cls-5" points="32.36 53.19 23.52 48.13 23.67 47.88 32.5 52.93 32.36 53.19"/><rect class="cls-5" x="27.76" y="44.17" width="0.29" height="10.18" transform="translate(-28.71 49.02) rotate(-60.23)"/><rect class="cls-5" x="27.65" y="42.72" width="0.29" height="10.18" transform="translate(-27.5 48.19) rotate(-60.22)"/><path class="cls-17" d="M77.42,85.28,19.91,52a5.9,5.9,0,0,1,.1.7L77.32,85.85A2.41,2.41,0,0,1,77.42,85.28Z"/><polygon class="cls-4" points="107.64 62.92 107.43 62.97 107.91 64.91 108.12 64.86 107.64 62.92"/><rect class="cls-14" x="101.6" y="84.3" width="7.94" height="0.4" transform="translate(-28.23 64.97) rotate(-30.37)"/><rect class="cls-14" x="101.6" y="85.01" width="7.94" height="0.4" transform="matrix(0.86, -0.51, 0.51, 0.86, -28.6, 65.09)"/><polygon class="cls-3" points="108.61 86.55 104.31 89.08 104.31 90.31 108.61 87.78 108.61 86.55"/><polygon class="cls-14" points="105.37 88.84 104.54 89.33 104.54 89.95 105.37 89.45 105.37 88.84"/><polygon class="cls-14" points="106.38 88.21 105.56 88.7 105.56 89.32 106.38 88.83 106.38 88.21"/><polygon class="cls-14" points="107.42 87.6 106.6 88.09 106.6 88.71 107.42 88.22 107.42 87.6"/><polygon class="cls-14" points="108.44 86.98 107.62 87.48 107.62 88.09 108.44 87.6 108.44 86.98"/><g class="cls-31"><polygon class="cls-32" points="8.32 36.18 7.11 42.54 8.12 43.13 9.32 36.74 8.32 36.18"/><polygon class="cls-32" points="10.51 37.55 9.3 43.91 10.32 44.49 11.51 38.1 10.51 37.55"/><polygon class="cls-32" points="6.22 37.98 6.39 36.98 12.91 40.76 12.71 41.74 6.22 37.98"/><polygon class="cls-32" points="5.96 39.93 6.14 38.93 12.65 42.71 12.46 43.69 5.96 39.93"/></g></g></g></svg>