<svg xmlns="http://www.w3.org/2000/svg" xmlns:xlink="http://www.w3.org/1999/xlink" viewBox="0 0 184.69 121.22"><defs><style>.cls-1{isolation:isolate;}.cls-2{fill:url(#Áåçûìÿííûé_ãðàäèåíò_35);}.cls-3{fill:#d9d9d9;}.cls-4{fill:url(#Áåçûìÿííûé_ãðàäèåíò_37);}.cls-29,.cls-5{fill:#4d4d4d;}.cls-6{fill:url(#Áåçûìÿííûé_ãðàäèåíò_39);}.cls-7{fill:url(#Áåçûìÿííûé_ãðàäèåíò_35-2);}.cls-8{fill:url(#Áåçûìÿííûé_ãðàäèåíò_37-2);}.cls-9{fill:url(#Áåçûìÿííûé_ãðàäèåíò_39-2);}.cls-10{fill:url(#Áåçûìÿííûé_ãðàäèåíò_35-3);}.cls-11{fill:url(#Áåçûìÿííûé_ãðàäèåíò_37-3);}.cls-12{fill:url(#Áåçûìÿííûé_ãðàäèåíò_39-3);}.cls-13{fill:url(#Áåçûìÿííûé_ãðàäèåíò_35-4);}.cls-14{fill:url(#Áåçûìÿííûé_ãðàäèåíò_37-4);}.cls-15{fill:url(#Áåçûìÿííûé_ãðàäèåíò_39-4);}.cls-16{fill:#e9e9e5;}.cls-17{fill:#ccc;}.cls-17,.cls-20{mix-blend-mode:multiply;}.cls-18{fill:#d4d6c8;}.cls-19{fill:#52524e;}.cls-20{fill:#999;}.cls-21{fill:#9a9b94;}.cls-22{fill:#7ac29f;}.cls-23{fill:#588c73;}.cls-24{fill:#262626;}.cls-25{fill:#1a1a1a;}.cls-26{fill:#404040;}.cls-27{fill:#d96459;}.cls-28{fill:url(#Áåçûìÿííûé_ãðàäèåíò_11);}.cls-29{mix-blend-mode:screen;}.cls-30{fill:url(#Áåçûìÿííûé_ãðàäèåíò_11-2);}.cls-31{fill:url(#Áåçûìÿííûé_ãðàäèåíò_11-3);}.cls-32{fill:url(#Áåçûìÿííûé_ãðàäèåíò_11-4);}.cls-33{fill:#333;}</style><linearGradient id="Áåçûìÿííûé_ãðàäèåíò_35" x1="262.59" y1="903.68" x2="276.37" y2="903.68" gradientTransform="matrix(-0.48, -0.88, 0.88, -0.48, -607.14, 734.47)" gradientUnits="userSpaceOnUse"><stop offset="0.17" stop-color="#999"/><stop offset="0.18" stop-color="#bfbfbf"/><stop offset="0.4" stop-color="#bfbfbf"/><stop offset="0.4" stop-color="#f2f2f2"/><stop offset="0.91" stop-color="#f2f2f2"/><stop offset="0.92" stop-color="#bfbfbf"/></linearGradient><linearGradient id="Áåçûìÿííûé_ãðàäèåíò_37" x1="262.58" y1="890.87" x2="275.78" y2="890.87" gradientTransform="matrix(-0.48, -0.88, 0.88, -0.48, -607.14, 734.47)" gradientUnits="userSpaceOnUse"><stop offset="0.17" stop-color="#666"/><stop offset="0.18" stop-color="#8c8c8c"/><stop offset="0.4" stop-color="#8c8c8c"/><stop offset="0.4" stop-color="#bfbfbf"/><stop offset="0.91" stop-color="#bfbfbf"/><stop offset="0.92" stop-color="#8c8c8c"/></linearGradient><linearGradient id="Áåçûìÿííûé_ãðàäèåíò_39" x1="83.46" y1="74.05" x2="89.63" y2="64.11" gradientTransform="matrix(-1, 0, 0, 1, 127.74, 0)" gradientUnits="userSpaceOnUse"><stop offset="0.08" stop-color="#737373"/><stop offset="0.09" stop-color="#a5a5a5"/><stop offset="0.6" stop-color="#a5a5a5"/><stop offset="0.6" stop-color="#737373"/><stop offset="0.82" stop-color="#737373"/><stop offset="0.83" stop-color="#4d4d4d"/></linearGradient><linearGradient id="Áåçûìÿííûé_ãðàäèåíò_35-2" x1="277.48" y1="895.46" x2="291.26" y2="895.46" xlink:href="#Áåçûìÿííûé_ãðàäèåíò_35"/><linearGradient id="Áåçûìÿííûé_ãðàäèåíò_37-2" x1="277.48" y1="882.65" x2="290.67" y2="882.65" xlink:href="#Áåçûìÿííûé_ãðàäèåíò_37"/><linearGradient id="Áåçûìÿííûé_ãðàäèåíò_39-2" x1="97.85" y1="64.98" x2="104.02" y2="55.04" xlink:href="#Áåçûìÿííûé_ãðàäèåíò_39"/><linearGradient id="Áåçûìÿííûé_ãðàäèåíò_35-3" x1="208.95" y1="936.1" x2="222.72" y2="936.1" xlink:href="#Áåçûìÿííûé_ãðàäèåíò_35"/><linearGradient id="Áåçûìÿííûé_ãðàäèåíò_37-3" x1="208.94" y1="923.29" x2="222.13" y2="923.29" xlink:href="#Áåçûìÿííûé_ãðàäèåíò_37"/><linearGradient id="Áåçûìÿííûé_ãðàäèåíò_39-3" x1="29.15" y1="105.34" x2="35.32" y2="95.41" xlink:href="#Áåçûìÿííûé_ãðàäèåíò_39"/><linearGradient id="Áåçûìÿííûé_ãðàäèåíò_35-4" x1="194.06" y1="945.76" x2="207.83" y2="945.76" xlink:href="#Áåçûìÿííûé_ãðàäèåíò_35"/><linearGradient id="Áåçûìÿííûé_ãðàäèåíò_37-4" x1="194.05" y1="932.96" x2="207.24" y2="932.96" xlink:href="#Áåçûìÿííûé_ãðàäèåíò_37"/><linearGradient id="Áåçûìÿííûé_ãðàäèåíò_39-4" x1="13.49" y1="113.71" x2="19.66" y2="103.77" xlink:href="#Áåçûìÿííûé_ãðàäèåíò_39"/><linearGradient id="Áåçûìÿííûé_ãðàäèåíò_11" x1="79.11" y1="96.21" x2="82.84" y2="101.35" gradientTransform="matrix(-1, 0, 0, 1, 127.74, 0)" gradientUnits="userSpaceOnUse"><stop offset="0" stop-color="#4d4d4d"/><stop offset="1" stop-color="#1a1a1a"/></linearGradient><linearGradient id="Áåçûìÿííûé_ãðàäèåíò_11-2" x1="46.24" y1="88.06" x2="50.49" y2="85.3" xlink:href="#Áåçûìÿííûé_ãðàäèåíò_11"/><linearGradient id="Áåçûìÿííûé_ãðàäèåíò_11-3" x1="55.57" y1="93.96" x2="59.82" y2="91.2" xlink:href="#Áåçûìÿííûé_ãðàäèåíò_11"/><linearGradient id="Áåçûìÿííûé_ãðàäèåíò_11-4" x1="64.67" y1="99.48" x2="68.93" y2="96.72" xlink:href="#Áåçûìÿííûé_ãðàäèåíò_11"/></defs><title>fly_01</title><g class="cls-1"><g id="Layer_2" data-name="Layer 2"><g id="Layer_1-2" data-name="Layer 1"><path class="cls-2" d="M60,50.53l-20.47,12,.38.69a5.05,5.05,0,0,0-.22,1.43,10.29,10.29,0,0,0,4.49,8.17,4.85,4.85,0,0,0,1.34.57l.37.67L66.63,61.89A3.39,3.39,0,0,0,67.93,59a10.29,10.29,0,0,0-4.49-8.17A3.13,3.13,0,0,0,60,50.53Z"/><path class="cls-3" d="M42.78,62.87A10.29,10.29,0,0,1,47.27,71c-.05,3-2.16,4.16-4.7,2.63a10.32,10.32,0,0,1-4.49-8.17C38.14,62.51,40.24,61.34,42.78,62.87Z"/><path class="cls-4" d="M39.3,62.61,38,63.33l.38.69a5.05,5.05,0,0,0-.22,1.43,10.29,10.29,0,0,0,4.49,8.17,4.85,4.85,0,0,0,1.34.57l.37.67L46,74A3.4,3.4,0,0,0,47.26,71a10.29,10.29,0,0,0-4.49-8.17A3.14,3.14,0,0,0,39.3,62.61Z"/><path class="cls-5" d="M41.31,63.69a10.29,10.29,0,0,1,4.49,8.17c0,3-2.16,4.16-4.7,2.63a10.32,10.32,0,0,1-4.49-8.17C36.67,63.33,38.77,62.16,41.31,63.69Z"/><path class="cls-6" d="M43.21,74.5c1.18,0,1.9-1,1.93-2.65A9.6,9.6,0,0,0,41,64.26a3.54,3.54,0,0,0-1.77-.58c-1.17,0-1.89,1-1.93,2.65a9.58,9.58,0,0,0,4.18,7.59,3.48,3.48,0,0,0,1.76.58Z"/><path class="cls-7" d="M45.58,41.46l-20.48,12,.39.69a4.76,4.76,0,0,0-.23,1.43,10.33,10.33,0,0,0,4.5,8.17,5,5,0,0,0,1.34.58l.36.66L52.23,52.83a3.4,3.4,0,0,0,1.31-2.94,10.34,10.34,0,0,0-4.49-8.17C47.68,40.9,46.44,40.86,45.58,41.46Z"/><path class="cls-3" d="M28.39,53.8A10.29,10.29,0,0,1,32.88,62c-.06,3-2.16,4.16-4.7,2.63a10.29,10.29,0,0,1-4.49-8.17C23.75,53.45,25.85,52.27,28.39,53.8Z"/><path class="cls-8" d="M24.91,53.54l-1.28.72L24,55a4.76,4.76,0,0,0-.23,1.43,10.33,10.33,0,0,0,4.5,8.17,5,5,0,0,0,1.34.58l.36.66,1.58-.88A3.4,3.4,0,0,0,32.87,62a10.29,10.29,0,0,0-4.49-8.17C27,53,25.77,52.94,24.91,53.54Z"/><path class="cls-5" d="M26.92,54.62a10.29,10.29,0,0,1,4.49,8.17c-.06,3-2.16,4.16-4.7,2.63a10.29,10.29,0,0,1-4.49-8.17C22.28,54.27,24.38,53.09,26.92,54.62Z"/><path class="cls-9" d="M28.82,65.43c1.17,0,1.89-1,1.93-2.65a9.61,9.61,0,0,0-4.17-7.59,3.54,3.54,0,0,0-1.77-.58c-1.18,0-1.9,1-1.93,2.65a9.6,9.6,0,0,0,4.17,7.59,3.54,3.54,0,0,0,1.77.58Z"/><path class="cls-10" d="M114.28,81.83l-20.47,12,.38.69A5,5,0,0,0,94,95.92a10.29,10.29,0,0,0,4.49,8.18,4.78,4.78,0,0,0,1.35.57l.36.67,20.77-12.15a3.39,3.39,0,0,0,1.3-2.93,10.29,10.29,0,0,0-4.49-8.17C116.38,81.26,115.14,81.22,114.28,81.83Z"/><path class="cls-3" d="M97.09,94.17a10.29,10.29,0,0,1,4.49,8.17c0,3-2.16,4.16-4.7,2.63a10.35,10.35,0,0,1-4.49-8.18C92.45,93.81,94.55,92.64,97.09,94.17Z"/><path class="cls-11" d="M93.62,93.91l-1.28.72.38.69a5.05,5.05,0,0,0-.22,1.43A10.29,10.29,0,0,0,97,104.92a4.78,4.78,0,0,0,1.35.57l.36.67,1.57-.89a3.36,3.36,0,0,0,1.3-2.93,10.29,10.29,0,0,0-4.49-8.17A3.11,3.11,0,0,0,93.62,93.91Z"/><ellipse class="cls-5" cx="95.52" cy="100.39" rx="3.81" ry="6.59" transform="translate(-36.39 57.95) rotate(-28.59)"/><path class="cls-12" d="M97.52,105.8c1.18,0,1.9-1,1.93-2.65a9.6,9.6,0,0,0-4.17-7.59A3.54,3.54,0,0,0,93.51,95c-1.17,0-1.89,1-1.92,2.65a9.54,9.54,0,0,0,4.17,7.59,3.48,3.48,0,0,0,1.76.58Z"/><path class="cls-13" d="M129.94,90.19l-20.48,12,.39.69a4.72,4.72,0,0,0-.22,1.43,10.29,10.29,0,0,0,4.49,8.17,4.61,4.61,0,0,0,1.34.57l.37.67,20.76-12.14a3.4,3.4,0,0,0,1.31-2.94,10.34,10.34,0,0,0-4.49-8.17C132,89.63,130.8,89.59,129.94,90.19Z"/><path class="cls-3" d="M112.75,102.53a10.29,10.29,0,0,1,4.49,8.17c-.06,3-2.16,4.16-4.7,2.63a10.29,10.29,0,0,1-4.49-8.17C108.11,102.18,110.21,101,112.75,102.53Z"/><path class="cls-14" d="M109.27,102.27,108,103l.39.69a5.1,5.1,0,0,0-.23,1.43,10.33,10.33,0,0,0,4.5,8.17,4.61,4.61,0,0,0,1.34.57l.36.67,1.58-.88a3.42,3.42,0,0,0,1.3-2.94,10.29,10.29,0,0,0-4.49-8.17C111.37,101.71,110.14,101.67,109.27,102.27Z"/><path class="cls-5" d="M111.28,103.35a10.29,10.29,0,0,1,4.49,8.17c-.06,3-2.16,4.16-4.7,2.63a10.29,10.29,0,0,1-4.49-8.17C106.64,103,108.74,101.82,111.28,103.35Z"/><path class="cls-15" d="M113.18,114.16c1.17,0,1.9-1,1.93-2.65a9.6,9.6,0,0,0-4.17-7.59,3.54,3.54,0,0,0-1.77-.58c-1.18,0-1.9,1-1.93,2.65a9.6,9.6,0,0,0,4.17,7.59,3.54,3.54,0,0,0,1.77.58Z"/><polygon class="cls-16" points="136.53 34.9 151.28 26.87 120.22 14.18 114.57 17.5 136.53 34.9"/><polygon class="cls-17" points="114.57 17.5 142.67 23.1 136.53 34.9 114.57 17.5"/><polygon class="cls-18" points="114.57 17.5 114.57 19.21 136.53 36.61 136.53 34.9 114.57 17.5"/><polygon class="cls-18" points="141.44 7.18 153.87 0 153.87 51 141.44 58.17 135.7 47.95 135.7 38.29 141.44 7.18"/><polygon class="cls-19" points="142.24 7.63 154.67 0.45 154.67 51.45 142.24 58.62 136.51 48.4 136.51 38.74 142.24 7.63"/><polygon class="cls-20" points="154.59 45.21 142.24 58.62 136.51 48.4 136.51 38.74 138.12 37.31 154.59 45.21"/><polygon class="cls-16" points="154.67 0.45 153.87 0 141.44 7.18 142.24 7.63 154.67 0.45"/><polygon class="cls-21" points="141.44 58.17 142.24 58.62 136.51 48.4 135.7 47.95 141.44 58.17"/><path class="cls-22" d="M38.42,113.59c.1.18.53.22.7.28l.31.08h0l.46.1-.17,0C39.32,113.87,38.86,113.75,38.42,113.59Zm1.75.51a6.18,6.18,0,0,0,1,.14,5.82,5.82,0,0,0,.59,0c.29,0,.58,0,.87,0l.39,0a2.85,2.85,0,0,0,.4,0h0a37.34,37.34,0,0,0,4.31-.86,120.82,120.82,0,0,0,14.9-5,64,64,0,0,0,16.89-9.44c4-3.23,8.09-6.49,12.07-9.79,3.69-3.05,38-31.94,41.14-35.61A37.57,37.57,0,0,0,137,47.64a13.75,13.75,0,0,0,1.31-3,20.37,20.37,0,0,0,.47-2,8.05,8.05,0,0,0,.11-1.09,3,3,0,0,0,0-.52,3.34,3.34,0,0,1-.28,1.2c-.51,1.17-8.72,7-12,8.88-4.11,2.28-7.92,5.31-11.77,8-10.75,7.49-21.46,15-32.19,22.57-2.9,2-6,3.35-9.15,5a101.46,101.46,0,0,0-10.09,6.12A103.22,103.22,0,0,0,45.67,108.2c-1.29,1.42-2.25,3.1-3.54,4.5l-.3.31c-.13.13-.25.25-.39.37l-.41.35A1.27,1.27,0,0,1,40.17,114.1Z"/><path class="cls-23" d="M41.44,113.38c.14-.12.26-.24.39-.37l.3-.31c.31-.33.59-.68.86-1h.07a2.85,2.85,0,0,0,.4,0h0a37.34,37.34,0,0,0,4.31-.86,120.82,120.82,0,0,0,14.9-5,64,64,0,0,0,16.89-9.44c4-3.23,8.09-6.49,12.07-9.79,3.69-3,38-31.94,41.14-35.61A37.57,37.57,0,0,0,137,45.1a14.32,14.32,0,0,0,1.07-2.28,2.61,2.61,0,0,0,.53-.64,3.34,3.34,0,0,0,.28-1.2,3,3,0,0,1,0,.52,8.05,8.05,0,0,1-.11,1.09,20.37,20.37,0,0,1-.47,2,13.75,13.75,0,0,1-1.31,3,37.57,37.57,0,0,1-4.24,5.79C129.67,57.1,95.34,86,91.65,89c-4,3.3-8,6.56-12.07,9.79a64,64,0,0,1-16.89,9.44,120.82,120.82,0,0,1-14.9,5,37.34,37.34,0,0,1-4.31.86h0a2.85,2.85,0,0,1-.4,0l-.39,0c-.29,0-.58,0-.87,0a5.82,5.82,0,0,1-.59,0,6.18,6.18,0,0,1-1-.14,1.27,1.27,0,0,0,.86-.37Z"/><path class="cls-23" d="M39.91,114.06l-.46-.1h0l-.31-.08c-.17-.06-.6-.1-.7-.28.44.16.9.28,1.32.42Z"/><path class="cls-16" d="M36.35,109.81a4.78,4.78,0,0,0,.78,3,2.79,2.79,0,0,0,1.29.84c.44.16.9.27,1.32.41l.17,0,.2,0h.06a1.28,1.28,0,0,0,.86-.38l.41-.35a4.51,4.51,0,0,0,.39-.37l.3-.31c1.29-1.4,2.25-3.08,3.54-4.5a57.42,57.42,0,0,1,5.66-5.37l1-.83a66.45,66.45,0,0,1,7.75-5.37c1.4-.87,4.51-2.56,4.62-2.62,2.56-1.37,68.57-46.49,71.39-49a8.9,8.9,0,0,0,2.49-2.77s0,0,0,0a3.34,3.34,0,0,0,.28-1.2,2.47,2.47,0,0,0-1-2.16c-1.27-1-3.08-.61-4.62-.18-7.72,2.11-39.62,20.12-60.81,32.5-5.35,3.13-10,5.9-13.44,8-3,1.8-5,3.07-5.75,3.56l-.11.09a40.62,40.62,0,0,0-9.25,9.66,49.18,49.18,0,0,0-5.69,10.12c-.08.17-.14.34-.21.52s-.25.62-.36.93l-.26.72c-.1.3-.2.62-.29.93l-.06.19A13.24,13.24,0,0,0,36.35,109.81Z"/><path class="cls-17" d="M59,79.1l16.9,5L72.43,71.14C67.08,74.27,62.42,77,59,79.1Z"/><path class="cls-24" d="M35.56,111.58l.65,1.27.38.75.36.7a2.55,2.55,0,0,0,.54,0c.7,0,1.41-.07,2.11-.08a1.32,1.32,0,0,0,1.23-1.26,2.73,2.73,0,0,0,0-.41,4.8,4.8,0,0,0-.68-2.3,4.73,4.73,0,0,0-1.67-1.76c-1.11-.64-2-.29-2.29.76C36.21,109.22,35.56,111.58,35.56,111.58Z"/><path class="cls-25" d="M36.59,113.6l.36.7a2.55,2.55,0,0,0,.54,0c.7,0,1.41-.07,2.11-.08a1.32,1.32,0,0,0,1.23-1.26Z"/><path class="cls-26" d="M35.56,111.58l.65,1.27,4-2.63a5.24,5.24,0,0,0-.67-.93,3.06,3.06,0,0,0-.36-.36h0a3.68,3.68,0,0,0-.38-.31l-.26-.16c-1.11-.64-2-.29-2.29.76C36.21,109.22,35.56,111.58,35.56,111.58Z"/><path class="cls-21" d="M36.28,111.69l2.87-2.76h0a3.68,3.68,0,0,0-.38-.31Z"/><path class="cls-25" d="M37.67,113.51c0,.91-.84.9-1.51.67a1.23,1.23,0,0,1-.4-.19,1.13,1.13,0,0,1-.22-.27,2,2,0,0,1-.28-1.15,1.83,1.83,0,0,1,.3-1,.77.77,0,0,1,1,0A2.5,2.5,0,0,1,37.67,113.51Z"/><path class="cls-21" d="M35.6,112.37a.55.55,0,0,1,0-.36.5.5,0,0,1,.54-.27c.5.06.85.61,1,1.06a.89.89,0,0,1,0,.28c-.08.51-.79.46-1,.16A1.83,1.83,0,0,1,35.6,112.37Z"/><polygon class="cls-16" points="152.91 28.04 138.12 35.98 169.58 51.01 175.24 47.72 152.91 28.04"/><polygon class="cls-19" points="169.58 51.01 169.58 52.33 175.24 49.04 175.24 47.72 169.58 51.01"/><polygon class="cls-18" points="138.12 35.98 138.12 37.31 169.58 52.33 169.58 51.01 138.12 35.98"/><path class="cls-19" d="M162.82,117.3v3.15c2.92,1.55,8.87.69,13.36-1.9l8.51-4.92v-3.14l-8.51,4.91C171.69,118,165.74,118.86,162.82,117.3Z"/><path class="cls-16" d="M84.15,75.15l78.67,42.15c2.92,1.56,8.87.69,13.36-1.9l8.51-4.91-77-48.92Z"/><polygon class="cls-21" points="84.14 75.15 84.14 78.3 162.81 120.45 162.81 117.3 84.14 75.15"/><path class="cls-16" d="M8.51,17.83,0,22.74,72.37,68.12,95.89,54.54l-74-38.61C19,14.37,13,15.24,8.51,17.83Z"/><polygon class="cls-21" points="0 22.74 0 25.83 72.37 71.21 72.37 68.12 0 22.74"/><polygon class="cls-27" points="72.37 68.12 72.37 71.21 95.89 57.63 95.89 54.54 72.37 68.12"/><polygon class="cls-18" points="84.22 75.1 75.89 84.04 65.11 77.17 72.37 68.12 84.22 75.1"/><polygon class="cls-16" points="84.22 75.1 107.66 61.57 95.89 54.54 72.37 68.12 84.22 75.1"/><polygon class="cls-19" points="75.89 84.04 84.14 78.3 84.22 75.1 75.89 84.04"/><polygon class="cls-18" points="115.62 105.3 126.66 97.9 121.52 95.25 112.03 101.93 115.62 105.3"/><polygon class="cls-19" points="115.62 105.3 130.08 102.92 126.62 101.06 126.66 97.9 115.62 105.3"/><polygon class="cls-16" points="126.62 101.06 115.62 105.3 130.08 102.92 126.62 101.06"/><polygon class="cls-18" points="99.96 96.93 111 89.54 105.87 86.89 96.37 93.56 99.96 96.93"/><polygon class="cls-19" points="99.96 96.93 114.42 94.56 110.96 92.69 111 89.54 99.96 96.93"/><polygon class="cls-16" points="110.96 92.69 99.96 96.93 114.42 94.56 110.96 92.69"/><polygon class="cls-19" points="45.65 65.63 59.82 63.32 56.68 61.37 56.69 58.24 45.65 65.63"/><polygon class="cls-16" points="56.68 61.37 45.65 65.63 59.82 63.32 56.68 61.37"/><polygon class="cls-19" points="31.26 56.57 45.34 54.27 42.26 52.33 42.3 49.17 31.26 56.57"/><polygon class="cls-16" points="42.26 52.33 31.26 56.57 45.34 54.27 42.26 52.33"/><polygon class="cls-18" points="45.65 65.63 56.69 58.24 51.9 55.3 42.06 62.27 45.65 65.63"/><polygon class="cls-18" points="31.26 56.57 42.3 49.17 37.48 46.27 27.67 53.2 31.26 56.57"/><path class="cls-28" d="M41.27,98.33a1.54,1.54,0,0,0,.27.46l.18.23a8.78,8.78,0,0,0,.88.84,25.61,25.61,0,0,0,3.58,2.34l.64.39a3.78,3.78,0,0,0,3.12.6,3.7,3.7,0,0,0,1.84-1.78,4.59,4.59,0,0,0,.26-.49,2.22,2.22,0,0,0-.31-2.35,6.22,6.22,0,0,0-1-1.08,13.47,13.47,0,0,0-1.23-1,17.88,17.88,0,0,0-2.26-1.37l-.51-.28a3.9,3.9,0,0,0-3-.61,3.32,3.32,0,0,0-1.7,1.43l-.12.2a6.06,6.06,0,0,0-.65,1.38A1.78,1.78,0,0,0,41.27,98.33Z"/><path class="cls-22" d="M49.53,97a21,21,0,0,0-2.78-1.65,3.91,3.91,0,0,0-3-.62,3.32,3.32,0,0,0-1.69,1.44,6.65,6.65,0,0,0-.78,1.58c0,.11-.05.22-.07.33a2.08,2.08,0,0,1,.07-.85,6.85,6.85,0,0,1,.78-1.58,3.25,3.25,0,0,1,1.69-1.43,3.86,3.86,0,0,1,3,.61,22.12,22.12,0,0,1,2.78,1.65c1.13.84,2.92,2.23,2.7,3.79C52.06,99,50.54,97.77,49.53,97Z"/><path class="cls-29" d="M41.27,98.33a1.54,1.54,0,0,0,.27.46l9.21-1.3a13.47,13.47,0,0,0-1.23-1,17.88,17.88,0,0,0-2.26-1.37l-5.33.74a6.06,6.06,0,0,0-.65,1.38A1.78,1.78,0,0,0,41.27,98.33Z"/><path class="cls-29" d="M42.6,99.86a25.61,25.61,0,0,0,3.58,2.34l5.6-.79a4.59,4.59,0,0,0,.26-.49,2.22,2.22,0,0,0-.31-2.35Z"/><path class="cls-30" d="M77,85.52c1.47-2.22,5.61-2.48,5.43.52a4.36,4.36,0,0,1-2,3.33,2.68,2.68,0,0,1-3.32-.28A3,3,0,0,1,77,85.52Z"/><path class="cls-16" d="M79.92,89.08a4.33,4.33,0,0,0,2-3.33A1.94,1.94,0,0,0,81.24,84,1.89,1.89,0,0,1,82.47,86a4.36,4.36,0,0,1-2,3.33,2.76,2.76,0,0,1-3.05,0A2.92,2.92,0,0,0,79.92,89.08Z"/><path class="cls-31" d="M67.71,91.43c1.47-2.23,5.61-2.48,5.43.52a4.38,4.38,0,0,1-2,3.33A2.67,2.67,0,0,1,67.78,95,3,3,0,0,1,67.71,91.43Z"/><path class="cls-16" d="M70.59,95a4.34,4.34,0,0,0,2-3.33,1.94,1.94,0,0,0-.71-1.77A1.87,1.87,0,0,1,73.14,92a4.38,4.38,0,0,1-2,3.33,2.76,2.76,0,0,1-3,0A2.92,2.92,0,0,0,70.59,95Z"/><path class="cls-32" d="M58.6,97c1.47-2.23,5.62-2.48,5.43.52a4.34,4.34,0,0,1-2,3.33,2.68,2.68,0,0,1-3.33-.29A3,3,0,0,1,58.6,97Z"/><path class="cls-16" d="M61.48,100.51a4.34,4.34,0,0,0,2-3.33,1.94,1.94,0,0,0-.71-1.77A1.87,1.87,0,0,1,64,97.47a4.34,4.34,0,0,1-2,3.33,2.76,2.76,0,0,1-3,0A2.9,2.9,0,0,0,61.48,100.51Z"/><path class="cls-33" d="M117.79,108.06c.7-1,2.67-1.18,2.58.25a2.09,2.09,0,0,1-1,1.58,1.27,1.27,0,0,1-1.58-.14A1.43,1.43,0,0,1,117.79,108.06Z"/><path class="cls-33" d="M102.18,99c.7-1,2.67-1.17,2.58.25a2,2,0,0,1-1,1.58,1.26,1.26,0,0,1-1.57-.13A1.45,1.45,0,0,1,102.18,99Z"/><path class="cls-33" d="M48,67.32c.7-1,2.66-1.17,2.57.25a2,2,0,0,1-1,1.58A1.28,1.28,0,0,1,48,69,1.45,1.45,0,0,1,48,67.32Z"/><path class="cls-33" d="M33.6,58.44c.69-1.06,2.66-1.18,2.57.24a2,2,0,0,1-1,1.58,1.28,1.28,0,0,1-1.58-.13A1.44,1.44,0,0,1,33.6,58.44Z"/><path class="cls-33" d="M73.35,74.78c-.48.59-.46,1.32.05,1.63a1.47,1.47,0,0,0,1.79-.5c.49-.58.47-1.31,0-1.62A1.49,1.49,0,0,0,73.35,74.78Z"/></g></g></g></svg>