<svg xmlns="http://www.w3.org/2000/svg" viewBox="0 0 81.47 83.33"><defs><style>.cls-1{fill:#aac4e2;}.cls-2{fill:#523e41;}.cls-3{fill:#8e979b;}.cls-4{fill:#2c3135;}.cls-5{fill:#22272b;}.cls-6{fill:#b2462d;}.cls-7{fill:#43484c;}.cls-8{fill:#382a2a;}.cls-9{fill:#4c3c3b;}.cls-10{fill:#d1cabf;}.cls-11{fill:#e2dacf;}.cls-12{fill:#425775;}.cls-13{fill:#acb9bc;}.cls-14{fill:#e1e8ea;}.cls-15{fill:#becacc;}.cls-16{fill:#576f91;}.cls-17{fill:#ced8db;}.cls-18{fill:#3d2a2d;}.cls-19{fill:#e9f0f2;}.cls-20{fill:#6c83a8;}.cls-21{fill:#7e97bc;}.cls-22{fill:#8aa6ce;}.cls-23{fill:#aab7ba;}.cls-24{fill:#a0adaf;}.cls-25{fill:#555e63;}.cls-26{fill:#493336;}.cls-27{fill:#737e82;}.cls-28{fill:#576366;}.cls-29{fill:#5c7696;}.cls-30{fill:#dd8d36;}.cls-31{fill:#7d676b;}.cls-32{fill:#604b50;}.cls-33{fill:#3d494c;}</style></defs><title>lastebil_01</title><g id="Layer_2" data-name="Layer 2"><g id="Layer_1-2" data-name="Layer 1"><polygon class="cls-1" points="59.4 19.59 25.43 0 1.83 13.46 35.8 33.05 59.4 19.59"/><path class="cls-2" d="M79.48,49.28a.23.23,0,0,0-.1-.19.26.26,0,0,0-.21,0l-1,.61a.83.83,0,0,0-.43.73v2.71a.23.23,0,0,0,.11.2.24.24,0,0,0,.23,0l1.3-.75a.29.29,0,0,0,.14-.25Z"/><path class="cls-2" d="M79.67,49.36a.22.22,0,0,0-.1-.18.2.2,0,0,0-.21,0l-1,.6a.85.85,0,0,0-.42.74v2.71a.21.21,0,0,0,.11.19.24.24,0,0,0,.23,0l1.3-.75a.27.27,0,0,0,.14-.24Z"/><path class="cls-2" d="M79.11,49.6h-.26c0-.46-.1-.75-.31-.88s-.82-.07-1.57.32l-.12-.22c.85-.44,1.45-.55,1.82-.32A1.19,1.19,0,0,1,79.11,49.6Z"/><polygon class="cls-3" points="50.82 67.31 45.19 70.68 45.19 74.54 50.82 71.18 50.82 67.31"/><polygon class="cls-4" points="10.45 50 9.16 49.25 9.16 53.33 9.99 53.78 15.34 51.15 10.45 50"/><polygon class="cls-5" points="42.31 70.49 16.76 55.74 16.76 56.85 42.31 71.6 42.31 70.49"/><polygon class="cls-5" points="56.86 64.87 31.31 50.12 20.38 54.24 45.93 68.99 56.86 64.87"/><polygon class="cls-4" points="25.97 59.82 15.58 53.82 15.58 57.75 25.97 63.75 25.97 59.82"/><polygon class="cls-5" points="31.44 60.85 13.55 50.52 13.3 54.31 31.19 64.64 31.44 60.85"/><polygon class="cls-6" points="9.54 51.57 8.89 51.2 8.89 53.2 9.54 53.57 9.54 51.57"/><polygon class="cls-5" points="18.76 52.97 15.2 52.92 15.52 59.32 18.73 57.41 18.76 52.97"/><polygon class="cls-7" points="15.6 54.21 13.96 53.26 13.96 58.39 15.6 59.33 15.6 54.21"/><polygon class="cls-5" points="29.42 59.3 25.86 59.26 26.17 65.66 29.38 63.75 29.42 59.3"/><path class="cls-8" d="M25,63.39a7.56,7.56,0,0,0-3.43-5.92,2.26,2.26,0,0,0-2.65-.09,1.58,1.58,0,0,0-.64.4,2.2,2.2,0,0,0-1.33,2.34A7.56,7.56,0,0,0,20.33,66c1.15.66,2.16.6,2.78,0a1.41,1.41,0,0,0,.55-.3A2.2,2.2,0,0,0,25,63.39Z"/><path class="cls-9" d="M23.13,64.46a7.53,7.53,0,0,0-3.43-5.92c-1.89-1.09-3.43-.22-3.43,2a7.56,7.56,0,0,0,3.43,5.91C21.6,67.51,23.13,66.63,23.13,64.46Z"/><path class="cls-10" d="M22,63.79a5,5,0,0,0-2.29-3.93c-1.26-.73-2.28-.15-2.28,1.3a5,5,0,0,0,2.28,3.94C21,65.82,22,65.24,22,63.79Z"/><path class="cls-8" d="M20.16,60.6a.86.86,0,0,0-.3-.69c-.16-.09-.3.06-.3.34a.87.87,0,0,0,.3.68C20,61,20.16,60.88,20.16,60.6Z"/><path class="cls-8" d="M20.16,64.51a.86.86,0,0,0-.3-.69c-.16-.09-.3.06-.3.34a.87.87,0,0,0,.3.68C20,64.94,20.16,64.79,20.16,64.51Z"/><path class="cls-8" d="M21.57,63.71c.24.14.44.1.44-.09a.86.86,0,0,0-.44-.6c-.25-.14-.44-.11-.45.09A.88.88,0,0,0,21.57,63.71Z"/><path class="cls-8" d="M18.16,61.74c.24.14.44.1.44-.09a.86.86,0,0,0-.44-.6c-.25-.14-.44-.1-.44.09A.83.83,0,0,0,18.16,61.74Z"/><path class="cls-8" d="M20.86,64.58c.17.3.4.48.52.42s.07-.37-.1-.67-.41-.48-.53-.41S20.68,64.28,20.86,64.58Z"/><path class="cls-8" d="M18.45,60.42c.17.3.4.49.52.42s.07-.36-.1-.66-.41-.49-.52-.42S18.27,60.12,18.45,60.42Z"/><path class="cls-8" d="M18.45,62.7a.38.38,0,0,0-.1.54.39.39,0,0,0,.52.19.43.43,0,0,0-.42-.73Z"/><path class="cls-8" d="M20.85,61.32a.43.43,0,0,0,.43.74.4.4,0,0,0,.1-.55A.41.41,0,0,0,20.85,61.32Z"/><path class="cls-9" d="M20.84,63a2.18,2.18,0,0,0-1-1.7c-.54-.31-1-.06-1,.56a2.16,2.16,0,0,0,1,1.7C20.4,63.83,20.84,63.58,20.84,63Z"/><path class="cls-11" d="M20.53,63a2,2,0,0,0-.88-1.52c-.49-.28-.88,0-.88.51a1.94,1.94,0,0,0,.88,1.52C20.13,63.81,20.53,63.58,20.53,63Z"/><polygon class="cls-7" points="26.2 60.72 24.56 59.77 24.56 64.71 26.2 65.65 26.2 60.72"/><polygon class="cls-7" points="42.67 69.2 10.51 50.63 10.63 51.82 42.79 70.39 42.67 69.2"/><polygon class="cls-4" points="42.57 68.78 10.62 50.34 10.6 51.22 42.55 69.66 42.57 68.78"/><polygon class="cls-12" points="60.35 21.86 36.07 35.89 35.45 50.88 36.28 66.17 60.35 52.21 60.35 21.86"/><polygon class="cls-13" points="80.84 63.32 60.78 74.96 58.93 82.2 78.99 70.56 80.84 63.32"/><polygon class="cls-14" points="75.44 67.55 66.45 72.77 65.3 77.69 74.28 72.48 75.44 67.55"/><polygon class="cls-15" points="80.8 61.69 60.74 73.32 60.74 75.14 80.8 63.5 80.8 61.69"/><polygon class="cls-16" points="80.8 62.76 60.74 74.4 60.74 75.17 80.8 63.53 80.8 62.76"/><polygon class="cls-17" points="75.46 44.1 55.4 55.74 60.74 73.33 80.8 61.69 75.46 44.1"/><polygon class="cls-18" points="75.46 47.57 56.98 58.08 61.12 71.06 79.6 60.55 75.46 47.57"/><polygon class="cls-19" points="61.76 36.17 41.7 47.8 55.44 55.84 75.5 44.2 61.76 36.17"/><polygon class="cls-15" points="61.76 36.17 41.7 47.8 53.47 50.54 70.04 40.95 61.76 36.17"/><polygon class="cls-20" points="36.22 35.26 5.86 17.41 0.03 14.86 0.03 45.26 36.27 66.18 36.27 35.82 36.22 35.26"/><polygon class="cls-21" points="0.03 31.46 0.03 34.6 36.27 55.91 36.27 52.77 0.03 31.46"/><polygon class="cls-21" points="0.03 28.73 0.03 30 36.27 51.3 36.27 50.04 0.03 28.73"/><polygon class="cls-22" points="35.86 32.99 1.92 13.43 0 14.86 36.35 35.81 35.86 32.99"/><polygon class="cls-23" points="64.23 41.11 57.89 35.35 45.66 42.46 52.35 49.34 64.58 42.31 64.23 41.11"/><polygon class="cls-24" points="64.23 41.11 57.89 35.35 45.66 42.46 64.58 42.31 64.23 41.11"/><polygon class="cls-5" points="44.09 60.24 39.43 57.55 39.43 67.25 44.09 69.94 44.09 60.24"/><polygon class="cls-25" points="44.28 60.82 40 58.35 40 67.26 44.28 69.73 44.28 60.82"/><polygon class="cls-5" points="50.75 56.69 46.1 54 39.41 57.58 44.07 60.27 50.75 56.69"/><path class="cls-8" d="M54.35,79.47a8,8,0,0,0-3.62-6.24,2.4,2.4,0,0,0-2.8-.09,1.73,1.73,0,0,0-.68.42A2.34,2.34,0,0,0,45.85,76a8,8,0,0,0,3.62,6.24c1.21.7,2.28.64,2.94,0a1.63,1.63,0,0,0,.58-.31A2.34,2.34,0,0,0,54.35,79.47Z"/><path class="cls-9" d="M52.43,80.61a8,8,0,0,0-3.62-6.25c-2-1.15-3.62-.23-3.62,2.06a8,8,0,0,0,3.62,6.25C50.81,83.82,52.43,82.9,52.43,80.61Z"/><path class="cls-10" d="M51.25,79.91a5.32,5.32,0,0,0-2.41-4.16c-1.33-.77-2.41-.15-2.41,1.37a5.32,5.32,0,0,0,2.41,4.16C50.17,82.05,51.25,81.43,51.25,79.91Z"/><path class="cls-8" d="M49.3,76.53a.91.91,0,0,0-.32-.72c-.18-.1-.32.06-.32.35a.88.88,0,0,0,.32.72C49.15,77,49.3,76.83,49.3,76.53Z"/><path class="cls-8" d="M49.3,80.66a.91.91,0,0,0-.32-.72c-.18-.1-.32,0-.32.35A.88.88,0,0,0,49,81C49.15,81.11,49.3,81,49.3,80.66Z"/><path class="cls-8" d="M50.78,79.81c.26.15.46.11.46-.09a.9.9,0,0,0-.46-.64c-.26-.15-.47-.1-.47.1A.9.9,0,0,0,50.78,79.81Z"/><path class="cls-8" d="M47.18,77.74c.26.15.47.1.47-.1a.9.9,0,0,0-.47-.63c-.26-.15-.47-.11-.47.09A.91.91,0,0,0,47.18,77.74Z"/><path class="cls-8" d="M50,80.73c.18.32.43.51.55.44s.08-.38-.11-.69S50,80,49.92,80,49.84,80.42,50,80.73Z"/><path class="cls-8" d="M47.48,76.35c.19.31.43.51.56.44s.07-.39-.11-.7-.43-.51-.55-.44S47.3,76,47.48,76.35Z"/><path class="cls-8" d="M47.48,78.75a.45.45,0,0,0,.45.77A.41.41,0,0,0,48,79,.42.42,0,0,0,47.48,78.75Z"/><path class="cls-8" d="M50,77.3a.41.41,0,0,0-.1.57.38.38,0,1,0,.66-.37A.41.41,0,0,0,50,77.3Z"/><path class="cls-9" d="M50,79a2.31,2.31,0,0,0-1-1.8c-.57-.33-1-.06-1,.6a2.31,2.31,0,0,0,1,1.79C49.54,79.94,50,79.67,50,79Z"/><path class="cls-11" d="M49.68,79.09a2,2,0,0,0-.93-1.6c-.51-.3-.93-.06-.93.53a2,2,0,0,0,.93,1.6C49.26,79.92,49.68,79.68,49.68,79.09Z"/><path class="cls-17" d="M55.42,55.71,41.71,47.8V72.44l3.61,2.09c.31-2,2-2.66,4.09-1.47a9.11,9.11,0,0,1,4.09,6.19L59,82.42,60.86,75V73.32Z"/><polygon class="cls-14" points="55.42 55.72 41.71 47.8 41.71 62.27 60.86 73.32 55.42 55.72"/><path class="cls-26" d="M55.5,58.25a2,2,0,0,0-.86-1.13l-5.23-3c-.53-.3-.95-.08-.95.49v9.54a2.06,2.06,0,0,0,.95,1.6l9.31,5.37a.42.42,0,0,0,.52,0,.64.64,0,0,0,.06-.62Z"/><polygon class="cls-27" points="81.47 69.05 59.66 81.66 59.12 83.33 80.92 70.72 81.47 69.05"/><polygon class="cls-3" points="59.69 81.69 57.4 80.4 57.4 82.33 59.13 83.32 59.69 81.69"/><path class="cls-3" d="M45.39,74.54c.32-1.92,2-2.57,4-1.41s4.56,4.58,4.87,6.86l.35-.15a11.59,11.59,0,0,0-5.22-8.1c-2.69-1.55-4.9-.61-5.23,2.07l1,.93Z"/><path class="cls-14" d="M45.06,74.71c.31-1.92,2-2.57,3.95-1.42a8.86,8.86,0,0,1,4,6l1.27.74A11.56,11.56,0,0,0,49,71.91c-2.69-1.55-4.9-.61-5.22,2.07Z"/><polygon class="cls-28" points="47.1 52.77 42.79 50.28 42.79 61.76 47.1 64.25 47.1 52.77"/><polygon class="cls-17" points="46.6 53.64 42.74 51.4 42.74 61.71 46.6 63.95 46.6 53.64"/><polygon class="cls-19" points="46.44 53.82 42.71 51.67 42.71 61.6 46.44 63.75 46.44 53.82"/><polygon class="cls-29" points="59.32 19.53 35.87 32.98 36.35 35.79 60.35 21.86 59.32 19.53"/><polygon class="cls-17" points="52.03 48.17 45.69 42.42 45.69 45.5 52.38 49.37 52.03 48.17"/><polygon class="cls-23" points="64.27 41.11 52.06 48.14 52.36 49.36 64.56 42.33 64.27 41.11"/><polygon class="cls-30" points="57.61 74.94 56.45 74.31 56.45 74.97 57.61 75.61 57.61 74.94"/><path class="cls-31" d="M55.42,58.5a1.87,1.87,0,0,0-.79-1l-4.82-2.78c-.49-.28-.88-.08-.88.45v8.79a1.9,1.9,0,0,0,.88,1.48l8.57,4.95c.2.11.38.11.49,0a.57.57,0,0,0,.05-.57Z"/><polygon class="cls-2" points="75.15 48.01 57.15 58.23 61.18 70.88 79.18 60.65 75.15 48.01"/><path class="cls-32" d="M69.42,54.48l8.58,5c.19.12.37.12.48,0a.57.57,0,0,0,0-.57L75.9,50.38,75.15,48l-6.6,3.75V53A1.89,1.89,0,0,0,69.42,54.48Z"/><polygon class="cls-20" points="60.9 74.36 41.72 63.91 41.82 64.64 60.9 75.11 60.9 74.36"/><path class="cls-28" d="M63.38,76.67c0-.78-.55-1.09-1.23-.7a2.69,2.69,0,0,0-1.22,2.12c0,.78.55,1.09,1.22.7A2.7,2.7,0,0,0,63.38,76.67Z"/><path class="cls-28" d="M65.29,75.56c0-.47-.33-.65-.74-.42a1.64,1.64,0,0,0-.74,1.28c0,.47.33.66.74.43A1.66,1.66,0,0,0,65.29,75.56Z"/><path class="cls-14" d="M63.22,76.94c0-.57-.41-.79-.9-.51A2,2,0,0,0,61.43,78c0,.56.4.79.89.51A2,2,0,0,0,63.22,76.94Z"/><path class="cls-3" d="M62.49,77.13c0-.28-.2-.39-.45-.25a1,1,0,0,0-.45.77c0,.28.2.39.45.25A1,1,0,0,0,62.49,77.13Z"/><path class="cls-28" d="M79.59,67.24c0-.77-.55-1.09-1.23-.7a2.72,2.72,0,0,0-1.23,2.12c0,.78.55,1.09,1.23.7A2.7,2.7,0,0,0,79.59,67.24Z"/><path class="cls-14" d="M79.42,67.51c0-.56-.4-.79-.89-.51a2,2,0,0,0-.89,1.54c0,.57.4.79.89.51A2,2,0,0,0,79.42,67.51Z"/><path class="cls-3" d="M78.69,67.71c0-.29-.2-.4-.44-.26a1,1,0,0,0-.45.77c0,.28.2.4.45.25A1,1,0,0,0,78.69,67.71Z"/><path class="cls-14" d="M65.19,75.72c0-.34-.24-.48-.54-.31a1.2,1.2,0,0,0-.53.93c0,.34.23.48.53.3A1.16,1.16,0,0,0,65.19,75.72Z"/><path class="cls-3" d="M64.75,75.84c0-.18-.12-.24-.27-.16a.61.61,0,0,0-.27.47c0,.17.12.23.27.15A.59.59,0,0,0,64.75,75.84Z"/><path class="cls-28" d="M76.83,68.85c0-.47-.33-.66-.74-.42a1.62,1.62,0,0,0-.74,1.28c0,.47.33.66.74.42A1.64,1.64,0,0,0,76.83,68.85Z"/><path class="cls-14" d="M76.73,69c0-.34-.24-.47-.54-.3a1.18,1.18,0,0,0-.53.92c0,.34.24.48.53.31A1.18,1.18,0,0,0,76.73,69Z"/><path class="cls-3" d="M76.29,69.12c0-.17-.12-.24-.27-.15a.57.57,0,0,0-.27.46c0,.17.12.24.27.15A.57.57,0,0,0,76.29,69.12Z"/><path class="cls-14" d="M55.46,63.38a.21.21,0,0,0-.11-.18.2.2,0,0,0-.21,0l-1,.6a.86.86,0,0,0-.43.74v2.71a.23.23,0,0,0,.11.2.24.24,0,0,0,.23,0l1.31-.76a.29.29,0,0,0,.14-.24Z"/><path class="cls-8" d="M55.64,63.47a.23.23,0,0,0-.1-.19.26.26,0,0,0-.21,0l-1,.61a.83.83,0,0,0-.43.73v2.71a.23.23,0,0,0,.11.2.24.24,0,0,0,.23,0l1.3-.75a.29.29,0,0,0,.14-.25Z"/><path class="cls-8" d="M55.08,63.71h-.25a2.18,2.18,0,0,1,1.54-2.47l.11.23C55.24,62.08,55.08,62.48,55.08,63.71Z"/><polygon class="cls-18" points="69.18 53.32 66.03 55.01 66.17 56.61 69.31 54.92 69.18 53.32"/><polygon class="cls-18" points="67.49 52.05 67.3 52.25 67.3 54.49 67.49 54.29 67.49 52.05"/><polygon class="cls-18" points="67.14 61.91 66.92 61.88 66.48 68.5 66.8 68.42 67.14 61.91"/><polygon class="cls-18" points="66.69 60.52 66.44 60.63 68.08 65.18 68.34 65.07 66.69 60.52"/><polygon class="cls-18" points="70.38 59.82 70.56 59.7 74.25 64.66 73.94 64.74 70.38 59.82"/><polygon class="cls-18" points="70.06 58.53 70.33 58.5 71.23 62.8 70.97 62.84 70.06 58.53"/><polygon class="cls-33" points="74.68 68.51 66.89 73.03 66.07 76.79 73.87 72.27 74.68 68.51"/><polygon class="cls-14" points="70.93 70.55 70.62 70.5 69.91 74.76 70.22 74.81 70.93 70.55"/><polygon class="cls-14" points="71.51 69.94 70.25 70.64 69.97 72.4 71.23 71.7 71.51 69.94"/><polygon class="cls-33" points="71.22 70.4 70.44 70.83 70.26 71.94 71.04 71.5 71.22 70.4"/></g></g></svg>