<svg xmlns="http://www.w3.org/2000/svg" viewBox="0 0 168.85 113.17"><defs><style>.cls-1{fill:#e4edf2;}.cls-2{fill:#fffeff;}</style></defs><title>sky_01</title><g id="Layer_2" data-name="Layer 2"><g id="Layer_1-2" data-name="Layer 1"><path class="cls-1" d="M4.08,95.69A33.48,33.48,0,0,0,33.5,113.17H135.35a33.47,33.47,0,0,0,32.12-43C129.74,86.14,78,96,20.85,96Q12.37,96,4.08,95.69Z"/><path class="cls-2" d="M145.79,47.85a32.12,32.12,0,0,0-31.91-28.44,32.77,32.77,0,0,0-4.23.31,44.53,44.53,0,0,0-81.51,24.8c0,.71,0,1.41.06,2.11A33.46,33.46,0,0,0,4.08,95.69q8.29.28,16.77.29C78,96,129.74,86.14,167.47,70.19A33.59,33.59,0,0,0,145.79,47.85Z"/></g></g></svg>