<svg xmlns="http://www.w3.org/2000/svg" xmlns:xlink="http://www.w3.org/1999/xlink" viewBox="0 0 49.02 36.22"><defs><style>.cls-1{fill:#e37a03;}.cls-2{isolation:isolate;}.cls-3{clip-path:url(#clip-path);}.cls-4{clip-path:url(#clip-path-2);}.cls-5{clip-path:url(#clip-path-3);}.cls-6{fill:#ffc32b;}.cls-7{fill:#ac5f24;}.cls-8{fill:#ffca00;}.cls-9{fill:#120803;}</style><clipPath id="clip-path"><path class="cls-1" d="M10.64,30.64,18.22,35c-2.84-1.65-4.62-5-4.74-9.72L5.9,20.92C6,25.65,7.8,29,10.64,30.64Z"/></clipPath><clipPath id="clip-path-2"><path class="cls-1" d="M20.52,9.58l-7.58-4.4c-1.14-.67-2.72-.57-4.46.43L16.06,10C17.8,9,19.38,8.92,20.52,9.58Z"/></clipPath><clipPath id="clip-path-3"><path class="cls-1" d="M4,20.5l7.58,4.4c-1.13-.65-1.83-2-1.84-4A13.8,13.8,0,0,1,16.06,10L8.48,5.61A13.79,13.79,0,0,0,2.21,16.48C2.21,18.45,2.91,19.84,4,20.5Z"/></clipPath></defs><title>and_01</title><g id="Layer_2" data-name="Layer 2"><g id="Layer_1-2" data-name="Layer 1"><g class="cls-2"><polygon class="cls-1" points="49.02 4.4 41.44 0 16.45 14.42 24.03 18.83 49.02 4.4"/><g class="cls-2"><path class="cls-1" d="M10.64,30.64,18.22,35c-2.84-1.65-4.62-5-4.74-9.72L5.9,20.92C6,25.65,7.8,29,10.64,30.64Z"/><g class="cls-3"><g class="cls-2"><path class="cls-1" d="M13.48,25.32,5.9,20.92c0,.41,0,.81.07,1.2l7.58,4.4c0-.39-.06-.79-.07-1.2Z"/><path class="cls-1" d="M13.55,26.52,6,22.12c.37,4.1,2.08,7,4.67,8.52L18.22,35c-2.6-1.51-4.3-4.42-4.67-8.52Z"/></g></g></g><g class="cls-2"><path class="cls-1" d="M20.52,9.58l-7.58-4.4c-1.14-.67-2.72-.57-4.46.43L16.06,10C17.8,9,19.38,8.92,20.52,9.58Z"/><g class="cls-4"><path class="cls-1" d="M20.52,9.58l-7.58-4.4c-1.14-.67-2.72-.57-4.46.43L16.06,10c1.74-1,3.32-1.1,4.46-.44Z"/></g></g><g class="cls-2"><path class="cls-1" d="M4,20.5l7.58,4.4c-1.13-.65-1.83-2-1.84-4A13.8,13.8,0,0,1,16.06,10L8.48,5.61A13.79,13.79,0,0,0,2.21,16.48C2.21,18.45,2.91,19.84,4,20.5Z"/><g class="cls-5"><g class="cls-2"><path class="cls-1" d="M16.06,10,8.48,5.61A10.25,10.25,0,0,0,6.68,7l7.58,4.41A9.78,9.78,0,0,1,16.06,10Z"/><path class="cls-1" d="M14.26,11.36,6.68,7a14,14,0,0,0-4.47,9.53c0,.23,0,.45,0,.67l7.57,4.4c0-.21,0-.44,0-.67a14,14,0,0,1,4.48-9.52Z"/><path class="cls-1" d="M9.81,21.55l-7.57-4.4A4.06,4.06,0,0,0,4,20.5l7.58,4.4a4.09,4.09,0,0,1-1.81-3.35Z"/></g></g></g><path class="cls-6" d="M16.06,10A13.8,13.8,0,0,0,9.78,20.88c0,2.92,1.53,4.55,3.7,4.44.26,10.16,8.15,13.89,17.82,8.3S49,14.9,49,4.4L24,18.83,22.26,12.4C21.72,9.32,19.15,8.23,16.06,10Z"/></g><g class="cls-2"><polygon class="cls-7" points="8.35 19.69 8.35 21.1 0 23.05 0 21.64 8.35 19.69"/><polygon class="cls-8" points="8.35 19.69 0 21.64 3.35 16.8 8.35 19.69"/></g><path class="cls-9" d="M16.19,15.31c-.33-.19-.86.12-1.18.69s-.33,1.18,0,1.36.85-.12,1.18-.68S16.52,15.5,16.19,15.31Z"/><path class="cls-1" d="M43.66,12.09c0,6.11-4.86,13.89-10.88,17.4s-10.92,1.42-11-4.65Z"/></g></g></svg>