<svg xmlns="http://www.w3.org/2000/svg" xmlns:xlink="http://www.w3.org/1999/xlink" viewBox="0 0 63.85 55.96"><defs><style>.cls-1{fill:none;}.cls-2{isolation:isolate;}.cls-3,.cls-6{fill:#7c5331;}.cls-4{fill:url(#linear-gradient);}.cls-5{fill:#996841;}.cls-6{opacity:0.6;mix-blend-mode:multiply;}.cls-7{clip-path:url(#clip-path);}.cls-8{fill:#ededed;}.cls-9{fill:#cec6c0;}.cls-10{fill:url(#linear-gradient-2);}.cls-11{fill:url(#linear-gradient-3);}.cls-12{fill:#8e5f35;}.cls-13{fill:#b77b3e;}.cls-14{fill:#a66a2d;}.cls-15{fill:url(#linear-gradient-4);}.cls-16{fill:url(#linear-gradient-5);}.cls-17{fill:url(#linear-gradient-6);}.cls-18{clip-path:url(#clip-path-2);}.cls-19{fill:url(#linear-gradient-7);}</style><linearGradient id="linear-gradient" x1="-591.01" y1="1.23" x2="-586.74" y2="1.23" gradientTransform="matrix(-1, 0, 0, 1, -563.82, 0)" gradientUnits="userSpaceOnUse"><stop offset="0" stop-color="#b77b44"/><stop offset="0.35" stop-color="#bc8047"/><stop offset="0.78" stop-color="#ca9051"/><stop offset="1" stop-color="#d39a57"/></linearGradient><clipPath id="clip-path"><path class="cls-1" d="M25.68,3.66a.32.32,0,0,0,.18.33c.11,0,27,19.15,35.58,20.19.39.05,1.09-.62,1.09-1C45,15.32,26.88,2.75,26.83,2.69s-.31-.13-.54,0A1.27,1.27,0,0,0,25.68,3.66Z"/></clipPath><linearGradient id="linear-gradient-2" x1="-627.67" y1="22.42" x2="-623.41" y2="22.42" xlink:href="#linear-gradient"/><linearGradient id="linear-gradient-3" x1="-626.99" y1="31.6" x2="-583.41" y2="31.6" xlink:href="#linear-gradient"/><linearGradient id="linear-gradient-4" x1="-584.92" y1="18.82" x2="-598.92" y2="43.08" gradientTransform="matrix(-1, 0, 0, 1, -563.82, 0)" gradientUnits="userSpaceOnUse"><stop offset="0" stop-color="#e1a960"/><stop offset="0.11" stop-color="#ecb86e"/><stop offset="0.26" stop-color="#f6c87b"/><stop offset="0.39" stop-color="#facd80"/><stop offset="0.5" stop-color="#f3c377"/><stop offset="0.8" stop-color="#e4ae62"/><stop offset="1" stop-color="#dea65b"/></linearGradient><linearGradient id="linear-gradient-5" x1="-607.59" y1="42.81" x2="-564" y2="42.81" xlink:href="#linear-gradient"/><linearGradient id="linear-gradient-6" x1="-568.09" y1="14.48" x2="-563.82" y2="14.48" xlink:href="#linear-gradient"/><clipPath id="clip-path-2"><path class="cls-1" d="M2.82,16.87A.33.33,0,0,0,3,17.2c.11,0,27,19.14,35.58,20.18.39,0,1.09-.62,1.09-1C22.1,28.52,4,16,4,15.9s-.31-.14-.54,0A1.26,1.26,0,0,0,2.82,16.87Z"/></clipPath><linearGradient id="linear-gradient-7" x1="-604.75" y1="35.67" x2="-600.49" y2="35.67" xlink:href="#linear-gradient"/></defs><title>bro_01</title><g class="cls-2"><g id="Layer_2" data-name="Layer 2"><g id="Layer_1-2" data-name="Layer 1"><g id="_7" data-name="7"><g class="cls-2"><polygon class="cls-3" points="25.36 21.53 27.18 20.47 27.19 1.41 25.36 2.47 25.36 21.53"/><polygon class="cls-4" points="24.75 0 27.19 1.41 25.36 2.47 22.92 1.06 24.75 0"/><polygon class="cls-5" points="22.92 1.06 25.36 2.47 25.36 21.53 22.92 20.12 22.92 1.06"/></g><path class="cls-6" d="M25.68,3.66c0,.34.27.46.61.26a1.27,1.27,0,0,0,.62-1c0-.34-.28-.45-.62-.26A1.27,1.27,0,0,0,25.68,3.66Z"/><g class="cls-7"><path class="cls-8" d="M61.58,23.09a2.12,2.12,0,0,1-1.29.35,1.5,1.5,0,0,0,.75.35,3,3,0,0,0,1.1-.46A1,1,0,0,0,61.58,23.09Z"/><path class="cls-9" d="M60.29,23.39h.32l.35-.07h0l.21-.07.06,0,.16-.08,0,0,.08-.05h0a1.32,1.32,0,0,1,.33.08,1.2,1.2,0,0,1,.27.17l.06,0-.07.05a3.17,3.17,0,0,1-.64.32h0l0,0h0a2.73,2.73,0,0,1-.45.13h0a1.52,1.52,0,0,1-.38-.11,1.8,1.8,0,0,1-.4-.25l-.13-.11Zm1-.16a2.28,2.28,0,0,1,.47.29l.18-.09a1.84,1.84,0,0,0-.52-.27Zm.25-.14,0,0a2.38,2.38,0,0,1,.5.27l.09-.05A1,1,0,0,0,61.58,23.09Zm.14.47a1.63,1.63,0,0,0-.49-.28l-.19.07a2.31,2.31,0,0,0,.49.3ZM61,23.37a1.36,1.36,0,0,1-.29.06,2.42,2.42,0,0,0,.53.33l.24-.08A1.79,1.79,0,0,1,61,23.37Zm.09.42h0a2,2,0,0,1-.51-.35h-.26A1.5,1.5,0,0,0,61,23.79Z"/><path class="cls-8" d="M60.94,22.81a2.09,2.09,0,0,1-1.29.35,1.5,1.5,0,0,0,.75.35,3.08,3.08,0,0,0,1.11-.46A1,1,0,0,0,60.94,22.81Z"/><path class="cls-9" d="M59.65,23.1H60l.35-.07h0l.21-.07,0,0,.17-.08.05,0,.07,0h0a1.32,1.32,0,0,1,.33.08,1.6,1.6,0,0,1,.27.17l.05.05-.06.05a3.79,3.79,0,0,1-.64.32h0l0,0h0a2.73,2.73,0,0,1-.45.13h0a1.53,1.53,0,0,1-.39-.11,1.8,1.8,0,0,1-.4-.25l-.13-.12ZM60.7,23a2.17,2.17,0,0,1,.46.29l.19-.09a2,2,0,0,0-.52-.27Zm.24-.14,0,0a2.26,2.26,0,0,1,.51.27l.09-.05A1,1,0,0,0,60.94,22.81Zm.15.47A1.63,1.63,0,0,0,60.6,23l-.2.07a2.1,2.1,0,0,0,.49.29Zm-.77-.19a1.33,1.33,0,0,1-.3.06,2.88,2.88,0,0,0,.53.33l.24-.08A1.6,1.6,0,0,1,60.32,23.09Zm.08.42h0a2.15,2.15,0,0,1-.5-.35,1.22,1.22,0,0,1-.27,0A1.5,1.5,0,0,0,60.4,23.51Z"/><path class="cls-8" d="M60.31,22.53a2,2,0,0,1-1.29.34,1.44,1.44,0,0,0,.75.36,3.33,3.33,0,0,0,1.11-.46A1,1,0,0,0,60.31,22.53Z"/><path class="cls-9" d="M59,22.81a1.22,1.22,0,0,0,.27,0h0a1.93,1.93,0,0,0,.36-.06h0l.21-.07.06,0a1.19,1.19,0,0,0,.16-.08l.06,0,.07-.05h0a1.16,1.16,0,0,1,.32.08,1.2,1.2,0,0,1,.27.17l.06.06-.07,0a3.45,3.45,0,0,1-.64.32h0l0,0h0a3,3,0,0,1-.46.13h0a1.36,1.36,0,0,1-.39-.12,1.44,1.44,0,0,1-.39-.25l-.13-.12Zm1-.14a2.28,2.28,0,0,1,.47.29l.18-.09a1.84,1.84,0,0,0-.52-.27Zm.25-.14,0,0a2.38,2.38,0,0,1,.5.27l.1-.05A1,1,0,0,0,60.31,22.53Zm.14.47a1.63,1.63,0,0,0-.49-.28l-.2.07a2,2,0,0,0,.5.29Zm-.77-.19-.3.05a3,3,0,0,0,.53.34l.25-.08A1.64,1.64,0,0,1,59.68,22.81Zm.09.42h0a2,2,0,0,1-.51-.36H59A1.44,1.44,0,0,0,59.77,23.23Z"/><path class="cls-8" d="M59.68,22.25a2.13,2.13,0,0,1-1.3.33,1.47,1.47,0,0,0,.75.36,2.93,2.93,0,0,0,1.11-.45A1.05,1.05,0,0,0,59.68,22.25Z"/><path class="cls-9" d="M58.39,22.52a1.13,1.13,0,0,0,.26,0h.05a1.93,1.93,0,0,0,.36-.06h0l.21-.07.05,0,.17-.09,0,0,.08,0h0a1.32,1.32,0,0,1,.33.08,1.6,1.6,0,0,1,.27.17l.06.06-.07,0a3.79,3.79,0,0,1-.64.32h0a2.73,2.73,0,0,1-.45.13h0a1.35,1.35,0,0,1-.38-.12,1.53,1.53,0,0,1-.39-.25l-.13-.12Zm1-.14a2.82,2.82,0,0,1,.46.3l.19-.09a2,2,0,0,0-.52-.27Zm.25-.13,0,0a2.38,2.38,0,0,1,.5.27l.09-.05A1.05,1.05,0,0,0,59.68,22.25Zm.14.47a1.66,1.66,0,0,0-.49-.29l-.2.07a2.59,2.59,0,0,0,.49.3Zm-.77-.2-.3.05a2.52,2.52,0,0,0,.53.34l.24-.07A1.86,1.86,0,0,1,59.05,22.52Zm.08.42h0a2.19,2.19,0,0,1-.5-.36,1.22,1.22,0,0,1-.27,0A1.47,1.47,0,0,0,59.13,22.94Z"/><path class="cls-8" d="M59.05,22a2.16,2.16,0,0,1-1.3.33,1.58,1.58,0,0,0,.75.36,3.16,3.16,0,0,0,1.11-.45A1,1,0,0,0,59.05,22Z"/><path class="cls-9" d="M57.76,22.23h.31a1.7,1.7,0,0,0,.35-.06h0l.21-.07,0,0,.17-.09,0,0,.08,0h0a1,1,0,0,1,.33.09,1.1,1.1,0,0,1,.27.17l.05.05-.06,0a3.51,3.51,0,0,1-.65.32h0a2.67,2.67,0,0,1-.46.13h0a1.46,1.46,0,0,1-.39-.12,1.66,1.66,0,0,1-.39-.26l-.13-.11Zm1-.14a2.62,2.62,0,0,1,.46.3l.18-.09a1.79,1.79,0,0,0-.51-.27Zm.25-.13,0,0a2,2,0,0,1,.5.28l.09-.06A1,1,0,0,0,59.05,22Zm.13.47a1.5,1.5,0,0,0-.48-.29l-.2.07a2.31,2.31,0,0,0,.49.3Zm-.76-.2-.3.05a3,3,0,0,0,.52.34l.25-.07A1.86,1.86,0,0,1,58.42,22.23Zm.08.42h0a2,2,0,0,1-.5-.36,1.22,1.22,0,0,1-.27,0A1.58,1.58,0,0,0,58.5,22.65Z"/><path class="cls-8" d="M58.42,21.67a2.16,2.16,0,0,1-1.3.33,1.44,1.44,0,0,0,.75.36A3.24,3.24,0,0,0,59,21.91,1,1,0,0,0,58.42,21.67Z"/><path class="cls-9" d="M57.12,21.94h.32a1.7,1.7,0,0,0,.35-.06h0L58,21.8l.05,0,.17-.09.05,0,.08,0h0a1,1,0,0,1,.33.09,1.1,1.1,0,0,1,.27.17l0,.05L59,22a3.51,3.51,0,0,1-.65.32h0a3,3,0,0,1-.46.13h0a1.36,1.36,0,0,1-.39-.12,1.48,1.48,0,0,1-.39-.26L57,21.92Zm1.05-.14a2.62,2.62,0,0,1,.46.3l.18-.09a1.79,1.79,0,0,0-.51-.27Zm.25-.13,0,0a2.32,2.32,0,0,1,.5.28l.09-.06A1,1,0,0,0,58.42,21.67Zm.13.47a1.5,1.5,0,0,0-.48-.29l-.2.07a2.31,2.31,0,0,0,.49.3Zm-.76-.2-.3,0a2.66,2.66,0,0,0,.52.34l.25-.07A1.7,1.7,0,0,1,57.79,21.94Zm.08.42h0a2,2,0,0,1-.51-.36,2.25,2.25,0,0,1-.26,0A1.44,1.44,0,0,0,57.87,22.36Z"/><path class="cls-8" d="M57.79,21.38a2.07,2.07,0,0,1-1.3.31,1.46,1.46,0,0,0,.74.38,3.24,3.24,0,0,0,1.12-.45A1.05,1.05,0,0,0,57.79,21.38Z"/><path class="cls-9" d="M56.5,21.64h.31a1.7,1.7,0,0,0,.35-.06h0l.21-.06.05,0a.54.54,0,0,0,.17-.08l0,0,.08-.05h0a1,1,0,0,1,.32.09.89.89,0,0,1,.27.17l0,.05-.06,0a3.84,3.84,0,0,1-.65.32h0a3,3,0,0,1-.46.13h0a1.65,1.65,0,0,1-.38-.13,2,2,0,0,1-.39-.26l-.13-.12Zm1-.13a2.62,2.62,0,0,1,.46.3l.18-.09a1.79,1.79,0,0,0-.51-.27Zm.25-.13,0,0a2.32,2.32,0,0,1,.5.28l.09-.06A1.05,1.05,0,0,0,57.79,21.38Zm.13.47a1.62,1.62,0,0,0-.48-.29l-.2.06a2,2,0,0,0,.48.31Zm-.76-.21a1.34,1.34,0,0,1-.3.05,2.78,2.78,0,0,0,.52.35l.24-.07A1.62,1.62,0,0,1,57.16,21.64Zm.07.43h0a1.94,1.94,0,0,1-.49-.36h-.27A1.46,1.46,0,0,0,57.23,22.07Z"/><path class="cls-8" d="M57.16,21.08a2.07,2.07,0,0,1-1.3.31,1.57,1.57,0,0,0,.74.38,3.08,3.08,0,0,0,1.12-.44A1,1,0,0,0,57.16,21.08Z"/><path class="cls-9" d="M55.87,21.34h.31a1.93,1.93,0,0,0,.36-.06h0l.21-.06.06,0,.16-.07.06,0,.07,0h0a.9.9,0,0,1,.32.09,1,1,0,0,1,.27.18l.05.05-.06,0a3.1,3.1,0,0,1-.65.31h0l0,0h0a2.61,2.61,0,0,1-.46.11h0a1.36,1.36,0,0,1-.39-.12,2,2,0,0,1-.39-.26l-.13-.12Zm1-.13a2.25,2.25,0,0,1,.46.31l.18-.09a1.7,1.7,0,0,0-.51-.28Zm.25-.13,0,0a2.77,2.77,0,0,1,.5.29l.09-.06A1,1,0,0,0,57.16,21.08Zm.13.48a1.75,1.75,0,0,0-.48-.3l-.2.06a2,2,0,0,0,.49.31Zm-.76-.22a1.34,1.34,0,0,1-.3.05,3.14,3.14,0,0,0,.52.35l.24-.07A1.62,1.62,0,0,1,56.53,21.34Zm.07.43h0a1.94,1.94,0,0,1-.49-.36h-.27A1.57,1.57,0,0,0,56.6,21.77Z"/><path class="cls-8" d="M56.54,20.78a2.09,2.09,0,0,1-1.31.31,1.58,1.58,0,0,0,.75.38A3.33,3.33,0,0,0,57.09,21,1,1,0,0,0,56.54,20.78Z"/><path class="cls-9" d="M55.24,21h.31a1.93,1.93,0,0,0,.36-.06h0l.21-.06.06,0,.17-.07,0,0,.08-.05h0a.84.84,0,0,1,.33.1.93.93,0,0,1,.26.17l.06.06-.07,0a3.29,3.29,0,0,1-.65.3h0l0,0h0a2.61,2.61,0,0,1-.46.11h0a1.36,1.36,0,0,1-.39-.12,2,2,0,0,1-.39-.26L55.07,21Zm1-.12a2.44,2.44,0,0,1,.45.31l.19-.09a2,2,0,0,0-.51-.28Zm.25-.13,0,0a2.61,2.61,0,0,1,.49.29l.09-.05A1,1,0,0,0,56.54,20.78Zm.13.48a2,2,0,0,0-.49-.3L56,21a2,2,0,0,0,.48.31ZM55.9,21a1.34,1.34,0,0,1-.3.05,3.14,3.14,0,0,0,.52.35l.25-.07A1.67,1.67,0,0,1,55.9,21Zm.08.43h0a2,2,0,0,1-.5-.36h-.27A1.58,1.58,0,0,0,56,21.47Z"/><path class="cls-8" d="M55.91,20.48a2.07,2.07,0,0,1-1.3.31,1.36,1.36,0,0,0,.74.37,3.24,3.24,0,0,0,1.12-.42A1,1,0,0,0,55.91,20.48Z"/><path class="cls-9" d="M54.61,20.73h.32a1.23,1.23,0,0,0,.35-.05h0l.21-.06,0,0,.17-.07.06,0,.07-.05h0a.75.75,0,0,1,.32.1.89.89,0,0,1,.27.17l.05.06-.06,0a3.63,3.63,0,0,1-.66.3h0a2.27,2.27,0,0,1-.46.12h0a1.38,1.38,0,0,1-.77-.39l-.13-.12Zm1-.12a3,3,0,0,1,.46.31l.18-.09a1.7,1.7,0,0,0-.51-.28Zm.25-.13,0,0a2.77,2.77,0,0,1,.5.29l.09-.05A1,1,0,0,0,55.91,20.48ZM56,21a1.66,1.66,0,0,0-.48-.3l-.2.06a2,2,0,0,0,.48.31Zm-.76-.22-.3.05a2.75,2.75,0,0,0,.51.35l.25-.07A1.62,1.62,0,0,1,55.28,20.74Zm.07.42h0a2,2,0,0,1-.5-.36h-.26A1.36,1.36,0,0,0,55.35,21.16Z"/><path class="cls-8" d="M55.29,20.18a2.15,2.15,0,0,1-1.31.3,1.57,1.57,0,0,0,.74.38,3.24,3.24,0,0,0,1.12-.42A1,1,0,0,0,55.29,20.18Z"/><path class="cls-9" d="M54,20.42h.31a1.36,1.36,0,0,0,.36-.05h0l.21-.07.06,0,.17-.08,0,0,.08-.05h0a1,1,0,0,1,.33.1.93.93,0,0,1,.26.17l.06.06-.07,0a3.58,3.58,0,0,1-.65.3h0a2.1,2.1,0,0,1-.46.12h0a1.65,1.65,0,0,1-.38-.13,1.7,1.7,0,0,1-.39-.27l-.12-.12Zm1-.11a2.44,2.44,0,0,1,.45.31l.19-.09a2.33,2.33,0,0,0-.51-.28Zm.25-.13,0,0a2.61,2.61,0,0,1,.49.29l.09,0A1,1,0,0,0,55.29,20.18Zm.12.48a1.79,1.79,0,0,0-.48-.31l-.19.07a2.24,2.24,0,0,0,.47.31Zm-.76-.22-.3,0a2.36,2.36,0,0,0,.52.35l.24-.06A1.85,1.85,0,0,1,54.65,20.44Zm.07.42h0a2.25,2.25,0,0,1-.49-.37H54A1.57,1.57,0,0,0,54.72,20.86Z"/><path class="cls-8" d="M54.67,19.87a2.15,2.15,0,0,1-1.31.3,1.57,1.57,0,0,0,.74.38,3.08,3.08,0,0,0,1.12-.41A1,1,0,0,0,54.67,19.87Z"/><path class="cls-9" d="M53.37,20.11h.31a1.36,1.36,0,0,0,.36-.05h0l.21-.07.06,0,.17-.07.05,0,.08-.05h0a1.39,1.39,0,0,1,.33.1,1.09,1.09,0,0,1,.26.18l.05.06-.06,0a3.51,3.51,0,0,1-.66.29h0l0,0h0a2.61,2.61,0,0,1-.46.11h0a1.81,1.81,0,0,1-.39-.13,1.74,1.74,0,0,1-.38-.27l-.13-.12ZM54.42,20a2.29,2.29,0,0,1,.45.32l.18-.09a2,2,0,0,0-.51-.29Zm.25-.13,0,0a2.37,2.37,0,0,1,.49.3l.09-.05A1,1,0,0,0,54.67,19.87Zm.12.48a1.79,1.79,0,0,0-.48-.31l-.2.07a2.6,2.6,0,0,0,.48.31ZM54,20.13l-.3,0a2.75,2.75,0,0,0,.51.35l.25-.06A1.85,1.85,0,0,1,54,20.13Zm.07.42h0a1.84,1.84,0,0,1-.49-.38h-.27A1.57,1.57,0,0,0,54.1,20.55Z"/><path class="cls-8" d="M54.05,19.56a2.1,2.1,0,0,1-1.31.29,1.48,1.48,0,0,0,.73.39,3.16,3.16,0,0,0,1.13-.41A1,1,0,0,0,54.05,19.56Z"/><path class="cls-9" d="M52.74,19.8h.32a1.23,1.23,0,0,0,.35-.05h0l.21-.07.06,0,.17-.07,0,0,.08,0h0a1.39,1.39,0,0,1,.33.1,1.09,1.09,0,0,1,.26.18l0,.06-.07,0a3.19,3.19,0,0,1-.65.29h0l0,0h0a2.61,2.61,0,0,1-.46.11h0a1.46,1.46,0,0,1-.38-.14,1.7,1.7,0,0,1-.38-.26l-.13-.12Zm1-.11a2.12,2.12,0,0,1,.46.32l.18-.09a2,2,0,0,0-.51-.29Zm.26-.13,0,0a2.37,2.37,0,0,1,.49.3l.09-.05A1,1,0,0,0,54.05,19.56Zm.12.48a2,2,0,0,0-.48-.31l-.2.07a2.3,2.3,0,0,0,.48.31Zm-.76-.22-.3,0a2.75,2.75,0,0,0,.51.35l.25-.06A1.85,1.85,0,0,1,53.41,19.82Zm.06.42h0a2.22,2.22,0,0,1-.49-.38,1.15,1.15,0,0,1-.26,0A1.48,1.48,0,0,0,53.47,20.24Z"/><path class="cls-8" d="M53.42,19.25a2,2,0,0,1-1.3.29,1.48,1.48,0,0,0,.73.39A3.16,3.16,0,0,0,54,19.52,1,1,0,0,0,53.42,19.25Z"/><path class="cls-9" d="M52.13,19.48h.31a1.73,1.73,0,0,0,.35,0h0l.21-.07.06,0,.17-.07,0,0,.08-.05h0a1.39,1.39,0,0,1,.33.1,1,1,0,0,1,.26.19l0,.05-.07,0a3.45,3.45,0,0,1-.65.29h0l0,0h0a2.41,2.41,0,0,1-.46.11h0a1.65,1.65,0,0,1-.76-.41L52,19.46Zm1-.1a2,2,0,0,1,.45.32l.19-.09a2,2,0,0,0-.51-.29Zm.25-.13,0,0a2.23,2.23,0,0,1,.5.3l.09-.05A1,1,0,0,0,53.42,19.25Zm.12.48a1.74,1.74,0,0,0-.47-.31l-.2.07a2.07,2.07,0,0,0,.48.31Zm-.76-.22-.29,0a2.46,2.46,0,0,0,.51.35l.24-.06A1.85,1.85,0,0,1,52.78,19.51Zm.07.42h0a2,2,0,0,1-.49-.38h-.26A1.48,1.48,0,0,0,52.85,19.93Z"/><path class="cls-8" d="M52.81,18.94a2.14,2.14,0,0,1-1.31.28,1.48,1.48,0,0,0,.73.39,3,3,0,0,0,1.13-.4A1.08,1.08,0,0,0,52.81,18.94Z"/><path class="cls-9" d="M51.51,19.16h.31l.35,0h0l.21-.06.06,0,.17-.08.05,0,.08-.05h0a1.46,1.46,0,0,1,.32.1,1,1,0,0,1,.26.19l.05,0-.07,0a3.45,3.45,0,0,1-.65.29h0a2.61,2.61,0,0,1-.46.11h0a1.65,1.65,0,0,1-.76-.41l-.13-.12Zm1-.09a2.41,2.41,0,0,1,.45.32l.19-.09a2.16,2.16,0,0,0-.51-.29Zm.26-.13,0,0a2.4,2.4,0,0,1,.48.3l.1-.05A1.08,1.08,0,0,0,52.81,18.94Zm.11.48a1.74,1.74,0,0,0-.47-.31l-.2.06a2,2,0,0,0,.47.32Zm-.75-.23-.3,0a3.29,3.29,0,0,0,.5.36l.25-.06A1.9,1.9,0,0,1,52.17,19.19Zm.06.42h0a2.22,2.22,0,0,1-.49-.38H51.5A1.48,1.48,0,0,0,52.23,19.61Z"/><path class="cls-8" d="M52.19,18.62a2.06,2.06,0,0,1-1.31.28,1.48,1.48,0,0,0,.73.39,3.08,3.08,0,0,0,1.13-.39A1.05,1.05,0,0,0,52.19,18.62Z"/><path class="cls-9" d="M50.89,18.84h.31a2,2,0,0,0,.36,0h0l.21-.06.06,0a.91.91,0,0,0,.17-.08l.06,0,.07-.05h0a.94.94,0,0,1,.32.11,1.09,1.09,0,0,1,.26.18l0,.06-.07,0a4.09,4.09,0,0,1-.65.28h0l0,0h0a2.84,2.84,0,0,1-.46.1h0a1.65,1.65,0,0,1-.76-.41l-.13-.12Zm1-.09a2.28,2.28,0,0,1,.44.32l.19-.09a2.1,2.1,0,0,0-.5-.29Zm.25-.13,0,0a2.48,2.48,0,0,1,.49.31l.09-.05A1.05,1.05,0,0,0,52.19,18.62Zm.11.48a1.74,1.74,0,0,0-.47-.31l-.2.06a1.83,1.83,0,0,0,.48.32Zm-.75-.23-.3,0a2.88,2.88,0,0,0,.51.36l.24-.06A2.13,2.13,0,0,1,51.55,18.87Zm.06.42h0a2,2,0,0,1-.48-.38h-.27A1.48,1.48,0,0,0,51.61,19.29Z"/><path class="cls-8" d="M51.57,18.3a2.06,2.06,0,0,1-1.31.28A1.48,1.48,0,0,0,51,19a3.08,3.08,0,0,0,1.13-.39A1.05,1.05,0,0,0,51.57,18.3Z"/><path class="cls-9" d="M50.27,18.52h.31a2,2,0,0,0,.36,0h0l.21-.06.05,0,.18-.07,0,0,.07,0,0,0h0a1,1,0,0,1,.33.1,1,1,0,0,1,.26.19l0,.05-.07,0a4.15,4.15,0,0,1-.66.28h0l0,0h0A3.07,3.07,0,0,1,51,19h0a1.65,1.65,0,0,1-.76-.41l-.12-.12Zm1-.09a2.41,2.41,0,0,1,.45.32l.18-.08a1.85,1.85,0,0,0-.5-.3Zm.25-.13,0,0a2.48,2.48,0,0,1,.49.31l.09-.05A1.05,1.05,0,0,0,51.57,18.3Zm.12.48a1.91,1.91,0,0,0-.47-.31l-.2.06a2.36,2.36,0,0,0,.47.33Zm-.76-.23-.3,0a2.88,2.88,0,0,0,.51.36l.25-.06A2.19,2.19,0,0,1,50.93,18.55ZM51,19h0a2,2,0,0,1-.48-.38h-.27A1.48,1.48,0,0,0,51,19Z"/><path class="cls-8" d="M51,18a2.08,2.08,0,0,1-1.31.26,1.5,1.5,0,0,0,.72.4,3.16,3.16,0,0,0,1.14-.39A1,1,0,0,0,51,18Z"/><path class="cls-9" d="M49.66,18.19l.26,0h0l.35,0h0l.21-.06.06,0h0L50.8,18l.05,0,.08,0h0a.92.92,0,0,1,.32.1,1,1,0,0,1,.26.19l.05.05-.07,0a3.25,3.25,0,0,1-.66.29h0a3.07,3.07,0,0,1-.47.1h0a1.46,1.46,0,0,1-.38-.14,1.72,1.72,0,0,1-.37-.28l-.13-.12Zm1-.08a3,3,0,0,1,.45.32l.19-.08a1.9,1.9,0,0,0-.51-.3ZM51,18h0a2.34,2.34,0,0,1,.48.31l.1,0A1,1,0,0,0,51,18Zm.11.47a1.91,1.91,0,0,0-.47-.31l-.2.06a2.36,2.36,0,0,0,.47.33Zm-.76-.23a2.53,2.53,0,0,1-.3,0,2.54,2.54,0,0,0,.51.37l.25-.06A1.89,1.89,0,0,1,50.31,18.23Zm.06.42h0a2.23,2.23,0,0,1-.48-.38l-.26,0A1.5,1.5,0,0,0,50.37,18.65Z"/><path class="cls-8" d="M50.34,17.66a2.05,2.05,0,0,1-1.31.26,1.45,1.45,0,0,0,.73.4,2.94,2.94,0,0,0,1.13-.38A1.05,1.05,0,0,0,50.34,17.66Z"/><path class="cls-9" d="M49,17.86l.27,0h0l.36,0h0l.21-.06,0,0h0l.18-.07.05,0,.08-.05h0a1.21,1.21,0,0,1,.32.11,1.31,1.31,0,0,1,.26.19L51,18l-.07,0a3.06,3.06,0,0,1-.66.28h0a2,2,0,0,1-.46.1h0a1.46,1.46,0,0,1-.38-.14A1.78,1.78,0,0,1,49,18l-.12-.12Zm1.05-.07a2.28,2.28,0,0,1,.44.32l.19-.08a2.14,2.14,0,0,0-.5-.3Zm.25-.13,0,0a3.06,3.06,0,0,1,.49.31l.09,0A1.05,1.05,0,0,0,50.34,17.66Zm.11.48a2.25,2.25,0,0,0-.46-.32,1.17,1.17,0,0,1-.2.06,2,2,0,0,0,.46.33Zm-.75-.24a1.39,1.39,0,0,1-.3,0,2.85,2.85,0,0,0,.5.37l.25-.06A1.62,1.62,0,0,1,49.7,17.9Zm.06.42h0a2.23,2.23,0,0,1-.48-.38l-.27,0A1.45,1.45,0,0,0,49.76,18.32Z"/><path class="cls-8" d="M49.73,17.34a2.09,2.09,0,0,1-1.31.25,1.47,1.47,0,0,0,.72.41,3.24,3.24,0,0,0,1.14-.38A1,1,0,0,0,49.73,17.34Z"/><path class="cls-9" d="M48.43,17.53l.26,0h.05a2,2,0,0,0,.36,0h0a.79.79,0,0,0,.22-.06h0l.18-.08.05,0,.07,0,0,0h0a.76.76,0,0,1,.32.11,1,1,0,0,1,.26.19l0,.05-.07,0a3.8,3.8,0,0,1-.66.28h0a2.33,2.33,0,0,1-.46.09h0a1.48,1.48,0,0,1-.75-.42l-.13-.12Zm1-.07a1.92,1.92,0,0,1,.44.33l.19-.09a2.14,2.14,0,0,0-.5-.3Zm.25-.12h0a2.05,2.05,0,0,1,.48.32l.1-.05A1,1,0,0,0,49.73,17.34Zm.11.48a1.57,1.57,0,0,0-.47-.32l-.2.05a2.43,2.43,0,0,0,.47.34Zm-.75-.25-.3,0a2.53,2.53,0,0,0,.5.36l.25,0A1.7,1.7,0,0,1,49.09,17.57Zm0,.43h0a2.23,2.23,0,0,1-.48-.38l-.26,0A1.47,1.47,0,0,0,49.14,18Z"/><path class="cls-8" d="M49.12,17a2.13,2.13,0,0,1-1.32.25,1.52,1.52,0,0,0,.73.41,3.24,3.24,0,0,0,1.14-.38A1.05,1.05,0,0,0,49.12,17Z"/><path class="cls-9" d="M47.81,17.2l.27,0h.05a1.78,1.78,0,0,0,.35,0h0l.21-.05.06,0h0L49,17,49,17l.07,0h0a.94.94,0,0,1,.32.11,1,1,0,0,1,.26.19l0,.05-.07,0a4.15,4.15,0,0,1-.66.28h0a3.11,3.11,0,0,1-.46.1h0a1.46,1.46,0,0,1-.38-.14,1.49,1.49,0,0,1-.38-.28l-.12-.12Zm1.06-.07a2.26,2.26,0,0,1,.44.33l.19-.08a2.06,2.06,0,0,0-.5-.31Zm.25-.12,0,0a2.34,2.34,0,0,1,.48.31l.1-.05A1.05,1.05,0,0,0,49.12,17Zm.11.48a1.57,1.57,0,0,0-.47-.32l-.2.06a2.36,2.36,0,0,0,.47.33Zm-.76-.25-.3,0a3.71,3.71,0,0,0,.51.37l.24-.06A2.1,2.1,0,0,1,48.47,17.24Zm.06.43h0a2,2,0,0,1-.48-.39l-.27,0A1.52,1.52,0,0,0,48.53,17.67Z"/><path class="cls-8" d="M48.51,16.68a2.07,2.07,0,0,1-1.31.24,1.54,1.54,0,0,0,.72.42A3.24,3.24,0,0,0,49.06,17,1.05,1.05,0,0,0,48.51,16.68Z"/><path class="cls-9" d="M47.21,16.86l.26,0h.05a1.83,1.83,0,0,0,.35,0h0l.21-.05.06,0,.17-.07.06,0,.07,0h0a1.21,1.21,0,0,1,.32.11,1.31,1.31,0,0,1,.26.19l0,.06-.07,0a3.67,3.67,0,0,1-.66.28h0a3.11,3.11,0,0,1-.46.1h0a1.63,1.63,0,0,1-.37-.15,1.53,1.53,0,0,1-.38-.29L47,16.84Zm1-.06a3.53,3.53,0,0,1,.45.33l.18-.08a1.8,1.8,0,0,0-.49-.3Zm.26-.12,0,0A2.34,2.34,0,0,1,49,17l.1-.05A1.05,1.05,0,0,0,48.51,16.68Zm.11.48a2.3,2.3,0,0,0-.47-.32l-.2.05a2,2,0,0,0,.46.34Zm-.76-.25a1.39,1.39,0,0,1-.3,0,2.63,2.63,0,0,0,.5.38l.25-.06A1.66,1.66,0,0,1,47.86,16.91Zm.06.43h0a2,2,0,0,1-.48-.4,1.18,1.18,0,0,1-.26,0A1.54,1.54,0,0,0,47.92,17.34Z"/><path class="cls-8" d="M47.9,16.35a2.07,2.07,0,0,1-1.31.24,1.47,1.47,0,0,0,.72.41,3.17,3.17,0,0,0,1.14-.36A1,1,0,0,0,47.9,16.35Z"/><path class="cls-9" d="M46.6,16.53l.26,0h0a2,2,0,0,0,.36,0h0l.21-.06.06,0a.54.54,0,0,0,.17-.07l.06,0,.07,0h0a.94.94,0,0,1,.32.11,1.31,1.31,0,0,1,.26.19l0,.06-.07,0a4.07,4.07,0,0,1-.67.27h0a2.33,2.33,0,0,1-.46.09h0a1.63,1.63,0,0,1-.37-.15,1.78,1.78,0,0,1-.38-.28l-.12-.13Zm1-.06a2.49,2.49,0,0,1,.43.33l.19-.08a1.84,1.84,0,0,0-.49-.31Zm.25-.12,0,0a2.87,2.87,0,0,1,.48.31l.1,0A1,1,0,0,0,47.9,16.35Zm.1.48a1.62,1.62,0,0,0-.46-.33l-.2.06a2.37,2.37,0,0,0,.46.34Zm-.74-.26-.31,0a3.47,3.47,0,0,0,.5.37l.25-.05A1.69,1.69,0,0,1,47.26,16.57Zm.05.43h0a2.28,2.28,0,0,1-.48-.39l-.26,0A1.47,1.47,0,0,0,47.31,17Z"/><path class="cls-8" d="M47.3,16a2.11,2.11,0,0,1-1.32.24,1.47,1.47,0,0,0,.72.41,3.17,3.17,0,0,0,1.14-.36A1,1,0,0,0,47.3,16Z"/><path class="cls-9" d="M46,16.19l.26,0h0a2,2,0,0,0,.36,0h0l.22-.05.05,0,.18-.07,0,0,.08,0h0a1,1,0,0,1,.32.12,1,1,0,0,1,.25.19l0,.06-.07,0a3.54,3.54,0,0,1-.66.27h0a2.33,2.33,0,0,1-.46.09h0a1.21,1.21,0,0,1-.37-.15,1.29,1.29,0,0,1-.37-.28l-.13-.12Zm1-.06a2.76,2.76,0,0,1,.44.33l.19-.08a2.37,2.37,0,0,0-.5-.3ZM47.3,16l0,0a2.3,2.3,0,0,1,.48.32l.1-.05A1,1,0,0,0,47.3,16Zm.1.48a1.78,1.78,0,0,0-.47-.32,1,1,0,0,1-.2,0,2.72,2.72,0,0,0,.46.34Zm-.75-.25c-.1,0-.2,0-.3,0a2.5,2.5,0,0,0,.49.37,1.57,1.57,0,0,0,.25-.05A1.83,1.83,0,0,1,46.65,16.24Zm.05.42h0a2,2,0,0,1-.48-.39l-.26,0A1.47,1.47,0,0,0,46.7,16.66Z"/><path class="cls-8" d="M46.69,15.68a2.07,2.07,0,0,1-1.32.23,1.54,1.54,0,0,0,.72.42A3.08,3.08,0,0,0,47.23,16,1,1,0,0,0,46.69,15.68Z"/><path class="cls-9" d="M45.38,15.85l.26,0h0a2,2,0,0,0,.36,0h0l.22-.05.06,0,.17-.07.06,0,.07,0h0a.94.94,0,0,1,.32.11,1.07,1.07,0,0,1,.25.19l0,.06-.07,0a3.18,3.18,0,0,1-.66.26h0a2.33,2.33,0,0,1-.46.09h0a1.34,1.34,0,0,1-.37-.14,1.53,1.53,0,0,1-.37-.29l-.12-.13Zm1,0a1.92,1.92,0,0,1,.44.33l.19-.08a1.74,1.74,0,0,0-.5-.31Zm.26-.12h0a3.26,3.26,0,0,1,.48.32l.09-.05A1,1,0,0,0,46.69,15.68Zm.1.48a2,2,0,0,0-.46-.33l-.21.06a2,2,0,0,0,.47.33ZM46,15.9a1.45,1.45,0,0,1-.3,0,3.13,3.13,0,0,0,.49.38l.25-.06A1.62,1.62,0,0,1,46,15.9Zm.05.43h0a2,2,0,0,1-.48-.39l-.26,0A1.54,1.54,0,0,0,46.09,16.33Z"/><path class="cls-8" d="M46.08,15.34a2.08,2.08,0,0,1-1.32.22,1.51,1.51,0,0,0,.72.43,3.17,3.17,0,0,0,1.14-.36A1,1,0,0,0,46.08,15.34Z"/><path class="cls-9" d="M44.78,15.5a1.15,1.15,0,0,0,.26,0h.05a1.83,1.83,0,0,0,.35,0h0l.21-.05.06,0,.17-.06.06,0,.07,0h0a1,1,0,0,1,.32.12,1,1,0,0,1,.26.19l0,.06-.07,0A4.07,4.07,0,0,1,46,16h0a2.33,2.33,0,0,1-.46.09h0a1.31,1.31,0,0,1-.38-.15,1.48,1.48,0,0,1-.37-.29l-.12-.12Zm1,0a3.12,3.12,0,0,1,.43.33l.19-.08A2.13,2.13,0,0,0,46,15.4Zm.25-.12,0,0a2.3,2.3,0,0,1,.48.32l.09,0A1,1,0,0,0,46.08,15.34Zm.1.48a2,2,0,0,0-.46-.33l-.2,0a1.87,1.87,0,0,0,.46.35Zm-.75-.26-.3,0a3,3,0,0,0,.49.38l.25-.05A2.11,2.11,0,0,1,45.43,15.56Zm0,.43h0a2.26,2.26,0,0,1-.47-.4l-.27,0A1.51,1.51,0,0,0,45.48,16Z"/><path class="cls-8" d="M45.48,15a2.08,2.08,0,0,1-1.32.22,1.54,1.54,0,0,0,.71.42A3.08,3.08,0,0,0,46,15.29,1,1,0,0,0,45.48,15Z"/><path class="cls-9" d="M44.17,15.16l.26,0h0a2,2,0,0,0,.36,0h0l.21-.05.06,0,.17-.07.06,0,.07,0h0a1,1,0,0,1,.32.12,1,1,0,0,1,.25.19l0,.06-.07,0a3.8,3.8,0,0,1-.67.25h0a2.34,2.34,0,0,1-.47.09h0a1.8,1.8,0,0,1-.38-.15,1.7,1.7,0,0,1-.36-.29L44,15.13Zm1-.05a2.71,2.71,0,0,1,.44.34l.18-.08a1.77,1.77,0,0,0-.49-.31Zm.26-.11h0a2.55,2.55,0,0,1,.47.33l.1-.05A1,1,0,0,0,45.48,15Zm.09.48a1.73,1.73,0,0,0-.45-.33l-.21,0a2.44,2.44,0,0,0,.46.35Zm-.74-.26-.3,0a2.33,2.33,0,0,0,.49.38l.25,0A1.89,1.89,0,0,1,44.83,15.22Zm0,.42h0a2,2,0,0,1-.47-.4l-.26,0A1.54,1.54,0,0,0,44.87,15.64Z"/><path class="cls-8" d="M44.88,14.65a2.13,2.13,0,0,1-1.33.22,1.51,1.51,0,0,0,.72.43A3.33,3.33,0,0,0,45.42,15,1,1,0,0,0,44.88,14.65Z"/><path class="cls-9" d="M43.57,14.81l.26,0h.05a2,2,0,0,0,.36,0h0l.22-.05,0,0,.18-.06.05,0,.08,0h0a.82.82,0,0,1,.32.11,1.22,1.22,0,0,1,.25.2l0,.06-.07,0a3.24,3.24,0,0,1-.67.26h0a2.73,2.73,0,0,1-.46.08h0a1.31,1.31,0,0,1-.38-.15,1.76,1.76,0,0,1-.37-.29l-.12-.12Zm1,0a2.14,2.14,0,0,1,.43.34l.19-.08a1.84,1.84,0,0,0-.49-.31Zm.26-.12,0,0a2.43,2.43,0,0,1,.47.33l.1-.05A1,1,0,0,0,44.88,14.65Zm.09.49a1.82,1.82,0,0,0-.46-.34l-.2.06a2.37,2.37,0,0,0,.46.34Zm-.74-.27a3,3,0,0,1-.31,0,2.63,2.63,0,0,0,.5.38l.25,0A1.69,1.69,0,0,1,44.23,14.87Zm0,.43h0a2,2,0,0,1-.47-.39l-.27,0A1.51,1.51,0,0,0,44.27,15.3Z"/><path class="cls-8" d="M44.27,14.31a2.06,2.06,0,0,1-1.32.21,1.46,1.46,0,0,0,.71.43,3.12,3.12,0,0,0,1.15-.34A1,1,0,0,0,44.27,14.31Z"/><path class="cls-9" d="M43,14.46l.27,0h.05a2,2,0,0,0,.35,0h0l.21-.05.06,0,.18-.07.05,0,.08,0h0a.91.91,0,0,1,.31.12,1.31,1.31,0,0,1,.26.19l0,.06-.07,0a4.18,4.18,0,0,1-.68.25h0a2.34,2.34,0,0,1-.47.09h0a1.58,1.58,0,0,1-.38-.16,1.64,1.64,0,0,1-.36-.29l-.12-.13Zm1.06,0a4,4,0,0,1,.43.34l.19-.07a1.88,1.88,0,0,0-.49-.32Zm.25-.11,0,0a2.3,2.3,0,0,1,.48.32l.09,0A1,1,0,0,0,44.27,14.31Zm.1.48a2,2,0,0,0-.46-.33l-.2,0a2.15,2.15,0,0,0,.46.35Zm-.75-.26-.3,0a2.62,2.62,0,0,0,.49.38l.25,0A2.12,2.12,0,0,1,43.62,14.53Zm0,.42h0a2,2,0,0,1-.46-.4l-.27,0A1.46,1.46,0,0,0,43.66,15Z"/><path class="cls-8" d="M43.67,14a2,2,0,0,1-1.32.21,1.46,1.46,0,0,0,.71.43,3.17,3.17,0,0,0,1.15-.34A1,1,0,0,0,43.67,14Z"/><path class="cls-9" d="M42.36,14.11a2.48,2.48,0,0,0,.27,0h0a2,2,0,0,0,.35,0h0l.21,0,.06,0,.18-.06,0,0,.08,0h0A1.28,1.28,0,0,1,44,14a1,1,0,0,1,.25.2l0,.06-.07,0a3.24,3.24,0,0,1-.67.26h0a2.91,2.91,0,0,1-.47.08h0a1.58,1.58,0,0,1-.38-.16,2,2,0,0,1-.36-.29l-.12-.13Zm1.06,0a2.47,2.47,0,0,1,.43.34l.19-.08a1.84,1.84,0,0,0-.49-.31Zm.25-.12,0,0a2.24,2.24,0,0,1,.47.33l.1-.05A1,1,0,0,0,43.67,14Zm.09.49a1.78,1.78,0,0,0-.45-.34l-.2.05a1.83,1.83,0,0,0,.45.35ZM43,14.17a1.39,1.39,0,0,1-.3,0,2.85,2.85,0,0,0,.49.39l.25-.05A1.73,1.73,0,0,1,43,14.17Zm0,.43h0a1.77,1.77,0,0,1-.46-.4l-.27,0A1.46,1.46,0,0,0,43.06,14.6Z"/><path class="cls-8" d="M43.08,13.61a2,2,0,0,1-1.33.2,1.53,1.53,0,0,0,.71.44,3.26,3.26,0,0,0,1.15-.33A1,1,0,0,0,43.08,13.61Z"/><path class="cls-9" d="M41.76,13.76l.27,0h0a1.83,1.83,0,0,0,.35,0h0l.21,0,.06,0,.18-.06,0,0,.08,0h0a1.2,1.2,0,0,1,.31.13,1,1,0,0,1,.25.2l.05,0-.07,0a3.8,3.8,0,0,1-.67.25h0a2.91,2.91,0,0,1-.47.08h0a1.58,1.58,0,0,1-.38-.16,2,2,0,0,1-.36-.29l-.12-.13Zm1.06,0a2.47,2.47,0,0,1,.43.34l.19-.08a2.17,2.17,0,0,0-.49-.32Zm.26-.12,0,0a2.24,2.24,0,0,1,.47.33l.1,0A1,1,0,0,0,43.08,13.61Zm.08.49a1.78,1.78,0,0,0-.45-.34l-.2.05a2.1,2.1,0,0,0,.45.35Zm-.74-.28a1.42,1.42,0,0,1-.3,0,2.12,2.12,0,0,0,.49.39l.25,0A1.73,1.73,0,0,1,42.42,13.82Zm0,.43h0a2,2,0,0,1-.46-.41l-.27,0A1.53,1.53,0,0,0,42.46,14.25Z"/><path class="cls-8" d="M42.48,13.26a2.12,2.12,0,0,1-1.33.2,1.53,1.53,0,0,0,.71.44A3.17,3.17,0,0,0,43,13.56,1,1,0,0,0,42.48,13.26Z"/><path class="cls-9" d="M41.16,13.4l.27,0h0a1.4,1.4,0,0,0,.36,0h0l.22-.05h0l.18-.07,0,0,.08,0h0a1,1,0,0,1,.32.12,1.8,1.8,0,0,1,.25.2l0,.06-.08,0a3.8,3.8,0,0,1-.67.25h0a2,2,0,0,1-.47.08h0a1.58,1.58,0,0,1-.38-.16,1.43,1.43,0,0,1-.36-.29L41,13.37Zm1.06,0a3,3,0,0,1,.43.35l.19-.08a2.17,2.17,0,0,0-.49-.32Zm.26-.11,0,0a2.43,2.43,0,0,1,.47.33l.09,0A1,1,0,0,0,42.48,13.26Zm.09.49a1.76,1.76,0,0,0-.46-.34l-.2.05a2.38,2.38,0,0,0,.45.35Zm-.75-.28-.3,0a2.43,2.43,0,0,0,.49.39l.25-.05A1.69,1.69,0,0,1,41.82,13.47Zm0,.43h0a1.77,1.77,0,0,1-.46-.4l-.27,0A1.53,1.53,0,0,0,41.86,13.9Z"/><path class="cls-8" d="M41.88,12.91a2.06,2.06,0,0,1-1.32.19,1.39,1.39,0,0,0,.7.44,3.26,3.26,0,0,0,1.15-.33A1,1,0,0,0,41.88,12.91Z"/><path class="cls-9" d="M40.57,13l.26,0h.05l.36,0h0l.22-.05.06,0,.17-.06.06,0,.07,0h0a1,1,0,0,1,.32.12,1.22,1.22,0,0,1,.25.2l0,.06-.07,0a3.41,3.41,0,0,1-.68.25h0a2.91,2.91,0,0,1-.47.08h0a1.58,1.58,0,0,1-.38-.16,1.69,1.69,0,0,1-.36-.3L40.4,13Zm1,0a3.06,3.06,0,0,1,.43.34l.19-.07a1.73,1.73,0,0,0-.49-.32Zm.26-.11,0,0a2.43,2.43,0,0,1,.47.33l.09,0A1,1,0,0,0,41.88,12.91Zm.09.48a1.82,1.82,0,0,0-.46-.34l-.2,0a2,2,0,0,0,.45.35Zm-.75-.27-.3,0a2.85,2.85,0,0,0,.49.39l.25,0A1.69,1.69,0,0,1,41.22,13.12Zm0,.42h0a1.64,1.64,0,0,1-.46-.41,1.15,1.15,0,0,1-.26,0A1.39,1.39,0,0,0,41.26,13.54Z"/><path class="cls-8" d="M41.28,12.55a2.06,2.06,0,0,1-1.32.19,1.43,1.43,0,0,0,.7.44,3.16,3.16,0,0,0,1.16-.32A1.09,1.09,0,0,0,41.28,12.55Z"/><path class="cls-9" d="M40,12.68l.26,0h.05l.36,0h0l.21,0H41l.18-.06,0,0,.08,0h0a1,1,0,0,1,.31.12,1,1,0,0,1,.25.2l0,.06-.07,0a4.18,4.18,0,0,1-.68.25h0a2.22,2.22,0,0,1-.47.07h0a1.44,1.44,0,0,1-.37-.16,1.31,1.31,0,0,1-.36-.3l-.12-.13Zm1.05,0a2.56,2.56,0,0,1,.43.34l.19-.07a1.83,1.83,0,0,0-.48-.32Zm.26-.12,0,0a3,3,0,0,1,.47.33l.1,0A1.09,1.09,0,0,0,41.28,12.55Zm.09.49a2,2,0,0,0-.45-.34l-.21,0a2.37,2.37,0,0,0,.45.36Zm-.74-.28-.3,0a2.73,2.73,0,0,0,.48.39l.25,0A2.16,2.16,0,0,1,40.63,12.76Zm0,.42h0a2.22,2.22,0,0,1-.46-.41l-.26,0A1.43,1.43,0,0,0,40.66,13.18Z"/><path class="cls-8" d="M40.69,12.2a2.12,2.12,0,0,1-1.33.18,1.53,1.53,0,0,0,.71.44,3.18,3.18,0,0,0,1.15-.31A1,1,0,0,0,40.69,12.2Z"/><path class="cls-9" d="M39.38,12.32l.26,0h0l.36,0h0l.22-.05h.06l.17-.06.06,0,.07,0h0a1,1,0,0,1,.32.12,1.19,1.19,0,0,1,.24.21l.05,0-.07,0a3.68,3.68,0,0,1-.67.24h0a2.1,2.1,0,0,1-.46.07h0a1.44,1.44,0,0,1-.37-.16,1.48,1.48,0,0,1-.36-.3l-.11-.13Zm1,0a2.42,2.42,0,0,1,.42.34l.2-.07a1.88,1.88,0,0,0-.49-.32Zm.26-.11h0a2.36,2.36,0,0,1,.46.34l.1,0A1,1,0,0,0,40.69,12.2Zm.08.48a1.62,1.62,0,0,0-.45-.34l-.2,0a1.87,1.87,0,0,0,.45.36ZM40,12.4l-.3,0a3.29,3.29,0,0,0,.48.39l.26,0A2,2,0,0,1,40,12.4Zm0,.42h0a1.81,1.81,0,0,1-.46-.41l-.27,0A1.53,1.53,0,0,0,40.07,12.82Z"/><path class="cls-8" d="M40.1,11.84a2.14,2.14,0,0,1-1.33.18,1.53,1.53,0,0,0,.7.44,3.25,3.25,0,0,0,1.16-.31A1,1,0,0,0,40.1,11.84Z"/><path class="cls-9" d="M38.78,12,39,12h.05l.36,0h0l.21-.05h.06l.18-.06.05,0,.08,0,0,0h0a.91.91,0,0,1,.31.12,1.11,1.11,0,0,1,.25.21l0,.06-.07,0a4,4,0,0,1-.68.24h0a2.22,2.22,0,0,1-.47.07h0a1.44,1.44,0,0,1-.37-.16,1.51,1.51,0,0,1-.36-.3l-.12-.13Zm1.06,0a2.88,2.88,0,0,1,.42.34l.19-.07A1.68,1.68,0,0,0,40,11.9Zm.26-.11h0a2.72,2.72,0,0,1,.46.34l.1,0A1,1,0,0,0,40.1,11.84Zm.08.48a2,2,0,0,0-.45-.34l-.21,0a2.37,2.37,0,0,0,.45.36ZM39.44,12a1.48,1.48,0,0,1-.3,0,2.52,2.52,0,0,0,.48.4l.25,0A2.16,2.16,0,0,1,39.44,12Zm0,.42h0a2.22,2.22,0,0,1-.46-.41l-.26,0A1.53,1.53,0,0,0,39.47,12.46Z"/><path class="cls-8" d="M39.5,11.48a2.05,2.05,0,0,1-1.32.17,1.46,1.46,0,0,0,.7.45A3.18,3.18,0,0,0,40,11.79,1,1,0,0,0,39.5,11.48Z"/><path class="cls-9" d="M38.19,11.6l.26,0h0a1.4,1.4,0,0,0,.36,0h0l.22,0h.06l.17-.06.06,0,.08,0h0a.91.91,0,0,1,.31.12,1.11,1.11,0,0,1,.25.21l.05.06-.07,0a4,4,0,0,1-.68.24h0a2.14,2.14,0,0,1-.47.07h0a1.3,1.3,0,0,1-.37-.17,1.69,1.69,0,0,1-.36-.3L38,11.56Zm1.05,0a2.56,2.56,0,0,1,.43.34l.19-.07a1.83,1.83,0,0,0-.48-.32Zm.26-.11h0a2.89,2.89,0,0,1,.47.34l.09,0A1,1,0,0,0,39.5,11.48Zm.08.48a1.74,1.74,0,0,0-.44-.34l-.21,0a1.87,1.87,0,0,0,.45.36Zm-.74-.28h-.3a2.87,2.87,0,0,0,.48.4l.26-.05A1.69,1.69,0,0,1,38.84,11.68Zm0,.42h0a1.81,1.81,0,0,1-.46-.41l-.26,0A1.46,1.46,0,0,0,38.88,12.1Z"/><path class="cls-8" d="M38.91,11.11a2.05,2.05,0,0,1-1.32.17,1.52,1.52,0,0,0,.69.46,3.25,3.25,0,0,0,1.16-.31A1.08,1.08,0,0,0,38.91,11.11Z"/><path class="cls-9" d="M37.6,11.23l.26,0h0a2.1,2.1,0,0,0,.36,0h0l.22,0,.06,0h0l.17-.06.06,0,.08,0h0a.82.82,0,0,1,.31.13,1.22,1.22,0,0,1,.25.2l0,.06-.07,0a3.75,3.75,0,0,1-.68.24h0a2.57,2.57,0,0,1-.47.06h0a1.44,1.44,0,0,1-.37-.16,1.79,1.79,0,0,1-.36-.31l-.11-.13Zm1,0a2.82,2.82,0,0,1,.42.36l.19-.08a1.78,1.78,0,0,0-.48-.33Zm.26-.11,0,0a2.36,2.36,0,0,1,.46.34l.1,0A1.08,1.08,0,0,0,38.91,11.11Zm.08.49a1.88,1.88,0,0,0-.45-.35l-.2.05a2.16,2.16,0,0,0,.45.36Zm-.74-.29a1.45,1.45,0,0,1-.3,0,2.45,2.45,0,0,0,.48.4,1.41,1.41,0,0,0,.25,0A1.88,1.88,0,0,1,38.25,11.31Zm0,.43h0a2.24,2.24,0,0,1-.45-.42l-.26,0A1.52,1.52,0,0,0,38.28,11.74Z"/><path class="cls-8" d="M38.32,10.75a2.07,2.07,0,0,1-1.33.17,1.61,1.61,0,0,0,.7.45,3.25,3.25,0,0,0,1.16-.31A1,1,0,0,0,38.32,10.75Z"/><path class="cls-9" d="M37,10.86l.26,0h0l.36,0h0l.22,0H38l.17-.06.06,0,.08,0h0a1,1,0,0,1,.31.13.92.92,0,0,1,.24.21l0,.05-.07,0a3.63,3.63,0,0,1-.68.23h0a3.55,3.55,0,0,1-.47.07h0a1.44,1.44,0,0,1-.37-.16A1.79,1.79,0,0,1,37,11l-.11-.13Zm1.05,0a2.82,2.82,0,0,1,.42.36l.19-.07a1.67,1.67,0,0,0-.47-.33Zm.26-.1h0a2.32,2.32,0,0,1,.46.35l.1,0A1,1,0,0,0,38.32,10.75Zm.08.49a1.48,1.48,0,0,0-.45-.35l-.2,0a1.87,1.87,0,0,0,.45.36Zm-.74-.3-.3,0a3.47,3.47,0,0,0,.48.4l.25,0A1.88,1.88,0,0,1,37.66,10.94Zm0,.43h0a2.24,2.24,0,0,1-.45-.42l-.27,0A1.61,1.61,0,0,0,37.69,11.37Z"/><path class="cls-8" d="M37.73,10.38a2.07,2.07,0,0,1-1.33.17,1.5,1.5,0,0,0,.7.45,3.35,3.35,0,0,0,1.16-.3A1,1,0,0,0,37.73,10.38Z"/><path class="cls-9" d="M36.42,10.49l.26,0h0a2.06,2.06,0,0,0,.36,0h0l.22,0h.06l.18-.06.05,0,.08,0h0a1.2,1.2,0,0,1,.31.13,1.49,1.49,0,0,1,.25.21l0,.06-.07,0a3,3,0,0,1-.68.23h0a2.22,2.22,0,0,1-.47.07h0a1.78,1.78,0,0,1-.37-.17,1.51,1.51,0,0,1-.36-.3l-.11-.13Zm1,0a2,2,0,0,1,.42.35l.19-.07a1.9,1.9,0,0,0-.47-.33Zm.26-.11,0,0a2.36,2.36,0,0,1,.46.34l.1,0A1,1,0,0,0,37.73,10.38Zm.08.49a1.58,1.58,0,0,0-.44-.35l-.21,0a2,2,0,0,0,.44.36Zm-.74-.3-.3,0a3.47,3.47,0,0,0,.48.4l.25,0A1.92,1.92,0,0,1,37.07,10.57Zm0,.43h0a2,2,0,0,1-.45-.42l-.27,0A1.5,1.5,0,0,0,37.1,11Z"/><path class="cls-8" d="M37.15,10a2.07,2.07,0,0,1-1.33.16,1.43,1.43,0,0,0,.69.46,3.09,3.09,0,0,0,1.16-.3A1,1,0,0,0,37.15,10Z"/><path class="cls-9" d="M35.83,10.12l.26,0h0a2.06,2.06,0,0,0,.36,0h0l.22,0,.06,0L37,10l0,0,.08,0h0a.76.76,0,0,1,.31.13,1,1,0,0,1,.25.2l.05.06-.08,0a3.75,3.75,0,0,1-.68.24h0a2.22,2.22,0,0,1-.47.07h0a1.19,1.19,0,0,1-.36-.17,1.55,1.55,0,0,1-.36-.31l-.11-.13Zm1.05,0a2.46,2.46,0,0,1,.42.35l.2-.06a1.92,1.92,0,0,0-.48-.34Zm.27-.11,0,0a2.08,2.08,0,0,1,.46.34l.1,0A1,1,0,0,0,37.15,10Zm.07.49a1.78,1.78,0,0,0-.44-.35l-.21,0a2.47,2.47,0,0,0,.44.37Zm-.74-.3a1.42,1.42,0,0,1-.3,0,2.52,2.52,0,0,0,.48.4l.25,0A1.7,1.7,0,0,1,36.48,10.2Zm0,.43h0a1.8,1.8,0,0,1-.45-.42l-.26,0A1.43,1.43,0,0,0,36.51,10.63Z"/><path class="cls-8" d="M36.56,9.64a2.06,2.06,0,0,1-1.33.16,1.52,1.52,0,0,0,.69.46,3.09,3.09,0,0,0,1.16-.3A1.09,1.09,0,0,0,36.56,9.64Z"/><path class="cls-9" d="M35.24,9.74l.27,0h0a2.1,2.1,0,0,0,.36,0h0l.22,0h0l.18-.06.06,0,.07,0h0a.93.93,0,0,1,.31.13.87.87,0,0,1,.25.21l0,.05-.08,0a4.55,4.55,0,0,1-.68.23h0a2.22,2.22,0,0,1-.47.07h0a1.57,1.57,0,0,1-.37-.18,1.43,1.43,0,0,1-.35-.3l-.12-.13Zm1.06,0a2.25,2.25,0,0,1,.41.36l.2-.07a2.21,2.21,0,0,0-.48-.34Zm.26-.11,0,0A2.67,2.67,0,0,1,37,10l.09,0A1.09,1.09,0,0,0,36.56,9.64Zm.07.49a1.78,1.78,0,0,0-.44-.35l-.21,0a2.52,2.52,0,0,0,.45.37Zm-.73-.3a1.48,1.48,0,0,1-.3,0,2.62,2.62,0,0,0,.47.41l.25,0A1.9,1.9,0,0,1,35.9,9.83Zm0,.43h0a2.24,2.24,0,0,1-.45-.42l-.26,0A1.52,1.52,0,0,0,35.92,10.26Z"/><path class="cls-8" d="M36,9.27a2.09,2.09,0,0,1-1.33.15,1.53,1.53,0,0,0,.7.46,3.18,3.18,0,0,0,1.16-.29A1,1,0,0,0,36,9.27Z"/><path class="cls-9" d="M34.66,9.37l.26,0h0a2.06,2.06,0,0,0,.36,0h0l.22,0,.06,0,.18-.05,0,0,.08,0h0a1,1,0,0,1,.31.14.92.92,0,0,1,.24.21l.05.06-.07,0a3.76,3.76,0,0,1-.68.22h0a2.48,2.48,0,0,1-.47.06h0A1.3,1.3,0,0,1,35,9.77a1.73,1.73,0,0,1-.35-.31l-.11-.13Zm1.05,0a2.82,2.82,0,0,1,.42.36l.19-.06a1.71,1.71,0,0,0-.47-.34Zm.26-.1,0,0a2.24,2.24,0,0,1,.46.35l.1-.05A1,1,0,0,0,36,9.27Zm.07.49a1.83,1.83,0,0,0-.44-.36l-.2,0a2.11,2.11,0,0,0,.44.37Zm-.73-.3H35a2.87,2.87,0,0,0,.47.4,1.66,1.66,0,0,0,.26,0A1.69,1.69,0,0,1,35.31,9.46Zm0,.42h0a1.8,1.8,0,0,1-.45-.42l-.27,0A1.53,1.53,0,0,0,35.34,9.88Z"/><path class="cls-8" d="M35.39,8.9a2.09,2.09,0,0,1-1.33.15,1.52,1.52,0,0,0,.69.46,3.18,3.18,0,0,0,1.16-.29A1,1,0,0,0,35.39,8.9Z"/><path class="cls-9" d="M34.07,9l.26,0h.05a2.1,2.1,0,0,0,.36,0h0L35,9l0,0,.18-.06.06,0,.08,0h0a1,1,0,0,1,.31.13,1.19,1.19,0,0,1,.24.21l0,.06-.08,0a3.63,3.63,0,0,1-.68.23h0a2.22,2.22,0,0,1-.47.07h0a1.19,1.19,0,0,1-.36-.17,1.51,1.51,0,0,1-.36-.3L33.9,9Zm1.06,0a2.25,2.25,0,0,1,.41.36l.2-.07A2.21,2.21,0,0,0,35.26,9Zm.26-.1h0a2.61,2.61,0,0,1,.45.35l.1,0A1,1,0,0,0,35.39,8.9Zm.07.48A1.78,1.78,0,0,0,35,9l-.21,0a2.47,2.47,0,0,0,.44.37Zm-.73-.3a1.51,1.51,0,0,1-.3,0,2.31,2.31,0,0,0,.47.41l.25,0A1.69,1.69,0,0,1,34.73,9.08Zm0,.43h0a2.24,2.24,0,0,1-.45-.42l-.26,0A1.52,1.52,0,0,0,34.75,9.51Z"/><path class="cls-8" d="M34.81,8.52a2.11,2.11,0,0,1-1.33.15,1.47,1.47,0,0,0,.68.46,3.31,3.31,0,0,0,1.17-.28A1.07,1.07,0,0,0,34.81,8.52Z"/><path class="cls-9" d="M33.49,8.61l.26,0h0a1.42,1.42,0,0,0,.36,0h0l.22,0h.06l.18-.06.05,0,.08,0h0a.93.93,0,0,1,.31.13,1.19,1.19,0,0,1,.24.21l.05.06-.07,0a3.59,3.59,0,0,1-.69.22h0a2.57,2.57,0,0,1-.47.06h0A1.2,1.2,0,0,1,33.78,9a1.68,1.68,0,0,1-.35-.3l-.11-.14Zm1,0A2.33,2.33,0,0,1,35,9l.19-.07a1.71,1.71,0,0,0-.47-.34Zm.27-.11,0,0a2.32,2.32,0,0,1,.46.35l.1,0A1.07,1.07,0,0,0,34.81,8.52Zm.06.49a2.11,2.11,0,0,0-.44-.36l-.2,0a2.11,2.11,0,0,0,.44.36Zm-.73-.3h-.3a2.27,2.27,0,0,0,.47.41l.25,0A2.16,2.16,0,0,1,34.14,8.71Zm0,.42h0a2.19,2.19,0,0,1-.44-.42l-.26,0A1.47,1.47,0,0,0,34.16,9.13Z"/><path class="cls-8" d="M34.22,8.15a2.09,2.09,0,0,1-1.33.13,1.5,1.5,0,0,0,.69.47,3,3,0,0,0,1.16-.28A1,1,0,0,0,34.22,8.15Z"/><path class="cls-9" d="M32.91,8.23l.26,0h0a1.42,1.42,0,0,0,.36,0h0l.22,0h.06l.17-.06.06,0,.08,0h0a.79.79,0,0,1,.31.14,1,1,0,0,1,.24.2l.05.06-.08,0a3.52,3.52,0,0,1-.68.22h0a2.43,2.43,0,0,1-.46.06h0a1.63,1.63,0,0,1-.36-.18,1.47,1.47,0,0,1-.35-.31l-.11-.13Zm1.05,0a2.25,2.25,0,0,1,.41.36l.2-.07a2.21,2.21,0,0,0-.48-.34Zm.26-.1h0a3.3,3.3,0,0,1,.46.35l.09,0A1,1,0,0,0,34.22,8.15Zm.07.49a1.62,1.62,0,0,0-.44-.36l-.2,0a2.5,2.5,0,0,0,.43.38Zm-.73-.32a1.45,1.45,0,0,1-.3,0,2,2,0,0,0,.47.41l.25,0A1.73,1.73,0,0,1,33.56,8.32Zm0,.43h0a2,2,0,0,1-.44-.42l-.27-.05A1.5,1.5,0,0,0,33.58,8.75Z"/><path class="cls-8" d="M33.64,7.77a2.09,2.09,0,0,1-1.33.13,1.5,1.5,0,0,0,.69.47,3,3,0,0,0,1.16-.28A1,1,0,0,0,33.64,7.77Z"/><path class="cls-9" d="M32.33,7.85l.26,0h0a2.14,2.14,0,0,0,.36,0h0l.22,0h.06l.17-.06.06,0,.08,0h0a.93.93,0,0,1,.31.13,1.07,1.07,0,0,1,.24.22l0,.06-.07,0a3.63,3.63,0,0,1-.68.21h0a2.48,2.48,0,0,1-.47.06h0a1.42,1.42,0,0,1-.36-.18,1.5,1.5,0,0,1-.35-.31l-.11-.13Zm1.05,0a2.25,2.25,0,0,1,.41.36L34,8.16a1.94,1.94,0,0,0-.47-.34Zm.26-.1h0a2.61,2.61,0,0,1,.45.35l.1,0A1,1,0,0,0,33.64,7.77Zm.07.48a2.11,2.11,0,0,0-.44-.36l-.2,0a2.17,2.17,0,0,0,.43.38ZM33,7.94h-.3a2.61,2.61,0,0,0,.46.41l.26,0A1.73,1.73,0,0,1,33,7.94Zm0,.43h0a1.84,1.84,0,0,1-.45-.43,1.27,1.27,0,0,1-.26,0A1.5,1.5,0,0,0,33,8.37Z"/><path class="cls-8" d="M33.06,7.38a2.05,2.05,0,0,1-1.33.14,1.54,1.54,0,0,0,.69.47,3.28,3.28,0,0,0,1.16-.28A1,1,0,0,0,33.06,7.38Z"/><path class="cls-9" d="M31.74,7.46a1.26,1.26,0,0,0,.27,0h0a2.1,2.1,0,0,0,.36,0h0l.22,0,.06,0a.58.58,0,0,0,.17-.05l.06,0,.08,0h0a.93.93,0,0,1,.31.13,1.07,1.07,0,0,1,.24.22l0,.06-.07,0a3.63,3.63,0,0,1-.68.21h0a2.48,2.48,0,0,1-.47.06h0A1.3,1.3,0,0,1,32,7.87a1.73,1.73,0,0,1-.35-.31l-.11-.14Zm1.06,0a2.64,2.64,0,0,1,.41.37l.19-.07a1.94,1.94,0,0,0-.47-.34Zm.26-.1,0,0a2.19,2.19,0,0,1,.45.35l.1,0A1,1,0,0,0,33.06,7.38Zm.07.49a2.11,2.11,0,0,0-.44-.36l-.21,0a2.11,2.11,0,0,0,.44.37Zm-.73-.31h-.3a2.61,2.61,0,0,0,.46.41l.26,0A1.51,1.51,0,0,1,32.4,7.56Zm0,.43h0A1.84,1.84,0,0,1,32,7.56l-.26,0A1.54,1.54,0,0,0,32.42,8Z"/><path class="cls-8" d="M32.48,7a2,2,0,0,1-1.33.13,1.52,1.52,0,0,0,.68.48A3.31,3.31,0,0,0,33,7.33,1,1,0,0,0,32.48,7Z"/><path class="cls-9" d="M31.17,7.08l.26,0h.44a1.46,1.46,0,0,0,.22,0l0,0a.56.56,0,0,0,.18,0l.06,0,.08,0h0a.93.93,0,0,1,.31.13,1.07,1.07,0,0,1,.24.22l0,.06-.07,0a3.63,3.63,0,0,1-.68.21h0a2,2,0,0,1-.47,0h0a1.2,1.2,0,0,1-.37-.18,1.26,1.26,0,0,1-.34-.31L31,7Zm1,0a2.64,2.64,0,0,1,.41.37l.19-.07a1.94,1.94,0,0,0-.47-.34Zm.26-.1,0,0a2.19,2.19,0,0,1,.45.35l.1,0A1,1,0,0,0,32.48,7Zm.07.49a2.11,2.11,0,0,0-.44-.36l-.21,0a2.11,2.11,0,0,0,.44.37Zm-.73-.31a1.5,1.5,0,0,1-.3,0A2.73,2.73,0,0,0,32,7.6l.25,0A1.64,1.64,0,0,1,31.82,7.18Zm0,.43h0a2.24,2.24,0,0,1-.44-.43l-.26,0A1.52,1.52,0,0,0,31.83,7.61Z"/><path class="cls-8" d="M31.91,6.62a2.09,2.09,0,0,1-1.34.12,1.52,1.52,0,0,0,.68.48A3.18,3.18,0,0,0,32.42,7,1,1,0,0,0,31.91,6.62Z"/><path class="cls-9" d="M30.59,6.69l.26,0h.44l.22,0h.06l.18-.06.05,0,.08,0h0a1.23,1.23,0,0,1,.31.14,1.19,1.19,0,0,1,.24.21l0,.07-.07,0a4.32,4.32,0,0,1-.69.21h0a3.07,3.07,0,0,1-.47,0h0a1.57,1.57,0,0,1-.37-.18,1.72,1.72,0,0,1-.34-.32l-.11-.13Zm1.05,0a2.64,2.64,0,0,1,.41.37L32.24,7a2.54,2.54,0,0,0-.46-.35Zm.27-.1,0,0a2.19,2.19,0,0,1,.45.35l.1,0A1,1,0,0,0,31.91,6.62Zm.06.49a1.62,1.62,0,0,0-.44-.36l-.2,0a2.17,2.17,0,0,0,.43.38Zm-.73-.32h-.3a2.61,2.61,0,0,0,.46.41l.25,0A1.68,1.68,0,0,1,31.24,6.79Zm0,.43h0a1.8,1.8,0,0,1-.44-.43l-.27,0A1.52,1.52,0,0,0,31.25,7.22Z"/><path class="cls-8" d="M31.33,6.23A2.07,2.07,0,0,1,30,6.35a1.52,1.52,0,0,0,.68.48,3.28,3.28,0,0,0,1.17-.26A1,1,0,0,0,31.33,6.23Z"/><path class="cls-9" d="M30,6.3l.26,0h.05a2.1,2.1,0,0,0,.36,0h0l.21,0H31l.18,0,.06,0,.08,0h0a.75.75,0,0,1,.3.14,1.19,1.19,0,0,1,.24.21l.05.06-.08,0a3.63,3.63,0,0,1-.68.21h0a3,3,0,0,1-.47,0h0a1.42,1.42,0,0,1-.36-.18A1.78,1.78,0,0,1,30,6.39l-.11-.13Zm1,0a2.24,2.24,0,0,1,.41.37l.2-.06a1.92,1.92,0,0,0-.47-.35Zm.27-.1,0,0a2.48,2.48,0,0,1,.45.36l.1,0A1,1,0,0,0,31.33,6.23Zm.06.49A1.79,1.79,0,0,0,31,6.36l-.21,0a2.5,2.5,0,0,0,.43.38Zm-.73-.32h-.3a2.61,2.61,0,0,0,.46.41l.26,0A1.93,1.93,0,0,1,30.66,6.4Zm0,.43h0a2.24,2.24,0,0,1-.44-.43A1.19,1.19,0,0,1,30,6.35,1.52,1.52,0,0,0,30.68,6.83Z"/><path class="cls-8" d="M30.75,5.85A2.15,2.15,0,0,1,29.42,6a1.54,1.54,0,0,0,.68.47,3.28,3.28,0,0,0,1.17-.26A1,1,0,0,0,30.75,5.85Z"/><path class="cls-9" d="M29.43,5.91l.26,0h0a2.1,2.1,0,0,0,.36,0h0l.22,0,.06,0,.17-.05.06,0,.08,0h0a1,1,0,0,1,.31.14,1,1,0,0,1,.23.21l.05.06-.07,0a3.7,3.7,0,0,1-.69.21h0a3.07,3.07,0,0,1-.47,0h0a1.42,1.42,0,0,1-.36-.18A1.78,1.78,0,0,1,29.37,6l-.11-.13Zm1.06,0a2.13,2.13,0,0,1,.4.37l.2-.06a1.75,1.75,0,0,0-.47-.35Zm.26-.09h0a2.56,2.56,0,0,1,.45.36l.1,0A1,1,0,0,0,30.75,5.85Zm.06.48A2.06,2.06,0,0,0,30.38,6l-.21,0a1.88,1.88,0,0,0,.44.37ZM30.09,6h-.31a3.17,3.17,0,0,0,.47.42l.25,0A1.52,1.52,0,0,1,30.09,6Zm0,.43h0A2,2,0,0,1,29.68,6l-.26,0A1.54,1.54,0,0,0,30.1,6.44Z"/><path class="cls-8" d="M30.18,5.46a2.05,2.05,0,0,1-1.34.11,1.52,1.52,0,0,0,.68.48,3,3,0,0,0,1.17-.26A1,1,0,0,0,30.18,5.46Z"/><path class="cls-9" d="M28.86,5.52l.26,0h.44l.22,0,.06,0,.18,0,.06,0,.08,0h0a1.09,1.09,0,0,1,.31.14,1.07,1.07,0,0,1,.24.22l.05.06-.08,0a3.39,3.39,0,0,1-.69.2h0a2,2,0,0,1-.47.05h0a1.63,1.63,0,0,1-.36-.18,1.72,1.72,0,0,1-.34-.32l-.11-.14Zm1.05,0a3.27,3.27,0,0,1,.41.37l.19-.06a1.7,1.7,0,0,0-.46-.35Zm.27-.09h0a2.82,2.82,0,0,1,.44.36l.1,0A1,1,0,0,0,30.18,5.46Zm.06.49a1.88,1.88,0,0,0-.44-.37l-.2,0A2.17,2.17,0,0,0,30,6Zm-.73-.32h-.3a2.73,2.73,0,0,0,.46.42l.25,0A1.64,1.64,0,0,1,29.51,5.63Zm0,.42h0a1.76,1.76,0,0,1-.43-.43l-.27,0A1.52,1.52,0,0,0,29.52,6.05Z"/><path class="cls-8" d="M29.6,5.07a2.11,2.11,0,0,1-1.33.11,1.52,1.52,0,0,0,.68.48,3.12,3.12,0,0,0,1.17-.25A1,1,0,0,0,29.6,5.07Z"/><path class="cls-9" d="M28.29,5.12l.26,0H29l.22,0h.06l.18,0,.05,0,.08,0h0a1.23,1.23,0,0,1,.31.14,1.14,1.14,0,0,1,.23.22l.05.06-.07,0a4.66,4.66,0,0,1-.69.21h0a3,3,0,0,1-.47,0h0a1.29,1.29,0,0,1-.36-.19,1.45,1.45,0,0,1-.34-.31l-.11-.14Zm1.05,0a2.51,2.51,0,0,1,.4.38l.2-.07a2.3,2.3,0,0,0-.47-.35Zm.26-.09h0a3,3,0,0,1,.45.36l.1,0A1,1,0,0,0,29.6,5.07Zm.06.49a1.84,1.84,0,0,0-.43-.37l-.21,0a2.2,2.2,0,0,0,.43.39Zm-.72-.33h-.3a3.42,3.42,0,0,0,.45.43l.26,0A1.73,1.73,0,0,1,28.94,5.23Zm0,.43h0a2,2,0,0,1-.44-.44l-.26,0A1.52,1.52,0,0,0,29,5.66Z"/><path class="cls-8" d="M29,4.67a2,2,0,0,1-1.33.11,1.53,1.53,0,0,0,.67.49A3.34,3.34,0,0,0,29.54,5,1,1,0,0,0,29,4.67Z"/><path class="cls-9" d="M27.71,4.73l.26,0h.45a1.46,1.46,0,0,0,.22,0h.05l.18-.05.06,0,.08,0h0a1,1,0,0,1,.31.14,1.16,1.16,0,0,1,.23.22l.05.06-.08,0a4.19,4.19,0,0,1-.69.2h0a2.31,2.31,0,0,1-.47,0h0A1.57,1.57,0,0,1,28,5.14a1.72,1.72,0,0,1-.34-.32l-.11-.14Zm1.06,0a2.5,2.5,0,0,1,.4.37l.2-.06a1.92,1.92,0,0,0-.47-.35Zm.26-.1,0,0a3,3,0,0,1,.45.36l.09,0A1,1,0,0,0,29,4.67Zm.06.5a1.63,1.63,0,0,0-.43-.37l-.21,0a2.5,2.5,0,0,0,.43.38Zm-.72-.33h-.31a2.73,2.73,0,0,0,.46.42l.25,0A2.11,2.11,0,0,1,28.37,4.84Zm0,.43h0A2.24,2.24,0,0,1,28,4.83l-.26,0A1.53,1.53,0,0,0,28.37,5.27Z"/><path class="cls-8" d="M28.46,4.28a2.13,2.13,0,0,1-1.34.11,1.52,1.52,0,0,0,.68.48A3.12,3.12,0,0,0,29,4.62,1.06,1.06,0,0,0,28.46,4.28Z"/><path class="cls-9" d="M27.14,4.33l.26,0h.45l.21,0,.06,0,.18,0,.06,0,.08,0h0a.94.94,0,0,1,.3.15,1.07,1.07,0,0,1,.24.22l0,.06-.07,0a4.48,4.48,0,0,1-.69.2h0a3.07,3.07,0,0,1-.47,0h0a1.46,1.46,0,0,1-.36-.19,1.67,1.67,0,0,1-.34-.31L27,4.29Zm1.05,0a2.64,2.64,0,0,1,.41.37l.19-.06a2,2,0,0,0-.46-.36Zm.27-.1,0,0a2.4,2.4,0,0,1,.44.36l.1,0A1.06,1.06,0,0,0,28.46,4.28Zm.05.49a1.8,1.8,0,0,0-.42-.37l-.21,0a2.2,2.2,0,0,0,.43.39Zm-.72-.33h-.3a2.86,2.86,0,0,0,.46.43l.25,0A1.73,1.73,0,0,1,27.79,4.44Zm0,.43h0a1.8,1.8,0,0,1-.43-.44l-.27,0A1.52,1.52,0,0,0,27.8,4.87Z"/><path class="cls-8" d="M27.89,3.89a2.08,2.08,0,0,1-1.33.1,1.53,1.53,0,0,0,.67.49,3.38,3.38,0,0,0,1.17-.25A1,1,0,0,0,27.89,3.89Z"/><path class="cls-9" d="M26.57,3.93l.26,0h.05a1.47,1.47,0,0,0,.36,0h0l.22,0h.06l.18,0,.06,0,.08,0h0a1.17,1.17,0,0,1,.3.14,1.43,1.43,0,0,1,.24.22l0,.06-.07,0a3,3,0,0,1-.69.2h0a2.27,2.27,0,0,1-.47,0h0a1.42,1.42,0,0,1-.36-.18A1.77,1.77,0,0,1,26.51,4l-.11-.13Zm1.05,0a3.27,3.27,0,0,1,.41.37l.19-.06a1.93,1.93,0,0,0-.46-.35Zm.27-.09h0a2.32,2.32,0,0,1,.44.37l.1,0A1,1,0,0,0,27.89,3.89Zm.05.49A1.84,1.84,0,0,0,27.51,4l-.2,0a2.13,2.13,0,0,0,.42.38Zm-.72-.33h-.3a2.73,2.73,0,0,0,.45.42l.26,0A1.9,1.9,0,0,1,27.22,4.05Zm0,.43h0A2,2,0,0,1,26.82,4l-.26,0A1.53,1.53,0,0,0,27.23,4.48Z"/><path class="cls-8" d="M27.32,3.49a2.07,2.07,0,0,1-1.33.1,1.53,1.53,0,0,0,.67.49,3.12,3.12,0,0,0,1.17-.25A1.06,1.06,0,0,0,27.32,3.49Z"/><path class="cls-9" d="M26,3.53l.26.05h0a1.47,1.47,0,0,0,.36,0h0a.71.71,0,0,0,.21,0H27l.18,0,.06,0,.08,0h0a.75.75,0,0,1,.3.14,1.07,1.07,0,0,1,.24.22l0,.06-.07,0a4.48,4.48,0,0,1-.69.2h0a2.31,2.31,0,0,1-.47,0h0a1.29,1.29,0,0,1-.36-.19,1.47,1.47,0,0,1-.34-.32l-.11-.13Zm1.05.05a2.51,2.51,0,0,1,.4.38l.2-.06a2,2,0,0,0-.46-.36Zm.27-.09,0,0a2.82,2.82,0,0,1,.44.36l.1,0A1.06,1.06,0,0,0,27.32,3.49Zm.05.49a1.84,1.84,0,0,0-.43-.37l-.2,0a2.19,2.19,0,0,0,.42.39Zm-.72-.33h-.3a2.73,2.73,0,0,0,.45.42l.26,0A1.73,1.73,0,0,1,26.65,3.65Zm0,.43h0a2.23,2.23,0,0,1-.43-.44L26,3.59A1.53,1.53,0,0,0,26.66,4.08Z"/><path class="cls-8" d="M26.75,3.09a2.07,2.07,0,0,1-1.33.1,1.53,1.53,0,0,0,.67.49,3.21,3.21,0,0,0,1.17-.24A1,1,0,0,0,26.75,3.09Z"/><path class="cls-9" d="M25.43,3.13l.26.05h0a1.47,1.47,0,0,0,.36,0h0a.78.78,0,0,0,.22,0h.05l.18-.05.06,0,.08,0h0a1,1,0,0,1,.31.14,1.62,1.62,0,0,1,.23.22l0,.06-.07,0a4.48,4.48,0,0,1-.69.2h0a2.27,2.27,0,0,1-.47,0h0a1.29,1.29,0,0,1-.36-.19,1.72,1.72,0,0,1-.34-.32l-.11-.13Zm1.06.05a2.85,2.85,0,0,1,.39.38l.2-.06a2,2,0,0,0-.46-.36Zm.26-.09,0,0a2,2,0,0,1,.44.37l.1,0A1,1,0,0,0,26.75,3.09Zm.05.49a1.8,1.8,0,0,0-.42-.37l-.21,0a2.19,2.19,0,0,0,.42.39Zm-.72-.33h-.3a2.73,2.73,0,0,0,.45.42l.26,0A1.94,1.94,0,0,1,26.08,3.25Zm0,.43h0a2.23,2.23,0,0,1-.43-.44l-.26-.05A1.53,1.53,0,0,0,26.09,3.68Z"/><path class="cls-8" d="M26.19,2.69a2.07,2.07,0,0,1-1.34.09,1.44,1.44,0,0,0,.67.49A3.05,3.05,0,0,0,26.69,3,1,1,0,0,0,26.19,2.69Z"/><path class="cls-9" d="M24.86,2.73l.26,0h.05a1.47,1.47,0,0,0,.36,0h0a.78.78,0,0,0,.22,0h.06L26,2.69l0,0,.08,0h0a1,1,0,0,1,.31.14,1.14,1.14,0,0,1,.23.22l0,.06-.07,0a4.48,4.48,0,0,1-.69.2h0a2.27,2.27,0,0,1-.47,0h0a1.29,1.29,0,0,1-.36-.19,1.72,1.72,0,0,1-.34-.32l-.1-.13Zm1.06,0a3.84,3.84,0,0,1,.4.38l.19-.06a2,2,0,0,0-.46-.36Zm.27-.09,0,0a2,2,0,0,1,.44.37l.1,0A1,1,0,0,0,26.19,2.69Zm0,.49a1.62,1.62,0,0,0-.42-.37l-.21,0a2.23,2.23,0,0,0,.43.39Zm-.71-.33h-.31a2.46,2.46,0,0,0,.46.43l.25,0A1.65,1.65,0,0,1,25.52,2.85Zm0,.42h0a2,2,0,0,1-.43-.45,1.32,1.32,0,0,1-.26-.05A1.44,1.44,0,0,0,25.52,3.27Z"/></g><g class="cls-2"><polygon class="cls-3" points="62.03 42.72 63.85 41.66 63.85 22.6 62.03 23.66 62.03 42.72"/><polygon class="cls-10" points="61.41 21.19 63.85 22.6 62.03 23.66 59.59 22.25 61.41 21.19"/><polygon class="cls-5" points="59.59 22.25 62.03 23.66 62.03 42.72 59.58 41.31 59.59 22.25"/></g><g id="_7-2" data-name="7"><g class="cls-2"><path class="cls-11" d="M21.25,18.88a.28.28,0,0,1,.13,0c6.45.4,13.64,2.8,20.79,6.93l.18.11a89.76,89.76,0,0,1,20.58,17,.94.94,0,0,1,.24.55l-1.67,1a.94.94,0,0,0-.24-.55,89.76,89.76,0,0,0-20.58-17l-.18-.11c-7.15-4.13-14.34-6.53-20.79-6.93a.28.28,0,0,0-.13,0Z"/><path class="cls-12" d="M19.71,19.82c6.45.4,13.64,2.8,20.79,6.93l.18.11a89.76,89.76,0,0,1,20.58,17,.94.94,0,0,1,.24.55l-5.15-3a83.18,83.18,0,0,0-15.68-12l-.18-.1a51.57,51.57,0,0,0-15.88-6.22l-5.15-3C19.47,19.92,19.56,19.81,19.71,19.82Z"/></g><path class="cls-13" d="M3.74,30.52l-1.17-.1.17.54,1.16.1Z"/><path class="cls-13" d="M6.64,31.44,6.5,30.9c-.8-.14-1.6-.26-2.37-.34l.16.54C5.05,31.18,5.84,31.3,6.64,31.44Z"/><path class="cls-13" d="M9.43,32.05l-.11-.53c-.81-.21-1.62-.39-2.42-.54l.13.53C7.82,31.66,8.63,31.84,9.43,32.05Z"/><path class="cls-13" d="M12.27,32.88l-.08-.53c-.82-.27-1.65-.51-2.46-.73l.11.53C10.64,32.37,11.46,32.61,12.27,32.88Z"/><path class="cls-13" d="M15.15,33.92l-.06-.51c-.83-.33-1.67-.64-2.49-.92l.08.52C13.5,33.29,14.33,33.59,15.15,33.92Z"/><path class="cls-13" d="M18.06,35.18l0-.5c-.83-.4-1.68-.76-2.51-1.11l.06.52C16.39,34.43,17.23,34.79,18.06,35.18Z"/><path class="cls-13" d="M21,36.65v-.49c-.84-.45-1.69-.88-2.53-1.29l0,.5C19.31,35.77,20.15,36.2,21,36.65Z"/><path class="cls-13" d="M23.92,37.85l-1.32-.77-1.21-.7v.49l1.2.69,1.31.76Z"/><path class="cls-13" d="M26.87,39.74c-.84-.57-1.69-1.12-2.53-1.64l0,.48c.83.51,1.67,1.05,2.51,1.62Z"/><path class="cls-13" d="M29.8,41.82q-1.26-.93-2.52-1.8l0,.46c.83.57,1.67,1.17,2.49,1.79Z"/><path class="cls-13" d="M32.7,44.1c-.82-.68-1.66-1.34-2.49-2l-.06.44c.82.62,1.65,1.27,2.46,1.94Z"/><path class="cls-13" d="M35.57,46.54c-.81-.72-1.64-1.43-2.46-2.11l-.09.42c.82.68,1.64,1.38,2.44,2.09Z"/><path class="cls-13" d="M38.39,49.16c-.79-.77-1.61-1.53-2.42-2.26l-.11.4c.8.72,1.61,1.48,2.4,2.24Z"/><path class="cls-13" d="M41.16,51.93c-.78-.81-1.57-1.61-2.37-2.39l-.14.38c.79.77,1.58,1.57,2.35,2.37Z"/><path class="cls-13" d="M42.71,53.59c-.38-.42-.77-.84-1.16-1.24l-.16.35,1.15,1.23Z"/><polygon class="cls-14" points="21.47 20.21 21.63 20.75 3.9 31.06 3.74 30.52 21.47 20.21"/><polygon class="cls-14" points="24.37 21.13 6.64 31.44 6.5 30.9 24.24 20.6 24.37 21.13"/><polygon class="cls-14" points="27.17 21.74 9.43 32.05 9.32 31.52 27.06 21.21 27.17 21.74"/><polygon class="cls-14" points="30.01 22.57 12.27 32.88 12.19 32.35 29.92 22.05 30.01 22.57"/><polygon class="cls-14" points="32.89 23.62 15.15 33.92 15.09 33.41 32.83 23.1 32.89 23.62"/><polygon class="cls-14" points="35.8 24.87 18.06 35.18 18.02 34.67 35.76 24.37 35.8 24.87"/><polygon class="cls-14" points="38.72 26.34 20.98 36.65 20.97 36.16 38.7 25.85 38.72 26.34"/><polygon class="cls-14" points="41.66 27.54 41.64 28.08 23.91 38.38 23.92 37.85 41.66 27.54"/><polygon class="cls-14" points="44.6 29.43 44.56 29.89 26.83 40.2 26.86 39.74 44.6 29.43"/><polygon class="cls-14" points="47.53 31.52 47.47 31.96 29.73 42.27 29.8 41.82 47.53 31.52"/><polygon class="cls-14" points="50.44 33.79 50.35 34.21 32.61 44.52 32.7 44.09 50.44 33.79"/><polygon class="cls-14" points="53.3 36.23 53.19 36.63 35.46 46.94 35.57 46.54 53.3 36.23"/><polygon class="cls-14" points="56.13 38.85 55.99 39.23 38.26 49.54 38.39 49.16 56.13 38.85"/><polygon class="cls-14" points="58.89 41.62 58.73 41.98 41 52.29 41.16 51.93 58.89 41.62"/><polygon class="cls-14" points="60.45 43.29 60.27 43.63 42.54 53.93 42.71 53.59 60.45 43.29"/><path class="cls-15" d="M20.31,20.12c.38,0,.78.05,1.16.09L3.74,30.52l-1.17-.1Zm1.55.13L4.13,30.56c.47.05.94.11,1.42.19l1,.15L24.24,20.6l-.95-.16C22.81,20.37,22.33,20.3,21.86,20.25Zm2.77.42L6.9,31c.8.15,1.61.33,2.42.54L27.06,21.21C26.25,21,25.43,20.82,24.63,20.67Zm2.83.65L9.73,31.62l.15,0c.76.21,1.54.44,2.31.69l17.73-10.3q-1.16-.39-2.31-.69Zm2.88.86L12.6,32.49c.82.28,1.66.59,2.49.92L32.83,23.1C32,22.77,31.16,22.46,30.34,22.18Zm2.9,1.09L15.51,33.57l.15.07c.78.32,1.58.67,2.36,1L35.76,24.37c-.79-.37-1.58-.72-2.36-1Zm2.94,1.3L18.44,34.87c.84.41,1.69.84,2.53,1.29L38.7,25.85C37.87,25.4,37,25,36.18,24.57Zm2.94,1.51L21.39,36.38l1.21.7,1.32.77L41.66,27.54l-1.32-.77Zm3,1.72L24.34,38.1c.84.52,1.69,1.07,2.53,1.64L44.6,29.43C43.76,28.86,42.91,28.31,42.08,27.8ZM45,29.72,27.28,40q1.26.87,2.52,1.8l17.73-10.3C46.7,30.89,45.85,30.29,45,29.72ZM48,31.83,30.21,42.14c.83.62,1.67,1.28,2.49,2L50.44,33.79C49.61,33.11,48.78,32.46,48,31.83Zm2.9,2.3L33.11,44.43c.82.68,1.65,1.39,2.46,2.11L53.31,36.23C52.49,35.51,51.67,34.8,50.85,34.13Zm2.86,2.47L36,46.9c.81.73,1.63,1.49,2.42,2.26L56.13,38.85C55.33,38.08,54.52,37.32,53.71,36.6Zm2.82,2.64L38.79,49.54l.43.42c.65.65,1.3,1.31,1.94,2L58.89,41.62c-.63-.66-1.28-1.32-1.94-2ZM59.29,42,41.55,52.35c.39.4.78.82,1.16,1.24l17.74-10.3Z"/><g class="cls-2"><path class="cls-16" d="M1.85,30.08a.19.19,0,0,1,.13,0c6.44.4,13.63,2.8,20.79,6.93l.18.1A89.71,89.71,0,0,1,43.52,54a.92.92,0,0,1,.25.55l-1.67,1a.92.92,0,0,0-.25-.55A89.5,89.5,0,0,0,21.28,38.06L21.1,38C14,33.83,6.76,31.43.31,31a.19.19,0,0,0-.13,0Z"/><path class="cls-12" d="M.31,31C6.76,31.43,14,33.83,21.1,38l.18.1A89.5,89.5,0,0,1,41.85,55a.92.92,0,0,1,.25.55l-5.15-3a82.76,82.76,0,0,0-15.68-12l-.18-.11A51.88,51.88,0,0,0,5.21,34.27l-5.15-3C.07,31.12.16,31,.31,31Z"/></g></g><g class="cls-2"><polygon class="cls-3" points="2.44 34.77 4.26 33.72 4.27 14.66 2.44 15.71 2.44 34.77"/><polygon class="cls-17" points="1.82 13.24 4.27 14.66 2.44 15.71 0 14.3 1.82 13.24"/><polygon class="cls-5" points="0 14.3 2.44 15.71 2.44 34.77 0 33.36 0 14.3"/></g><path class="cls-6" d="M2.82,16.87c0,.33.27.45.61.26a1.3,1.3,0,0,0,.62-1c0-.34-.28-.46-.62-.26A1.26,1.26,0,0,0,2.82,16.87Z"/><g class="cls-18"><path class="cls-8" d="M38.72,36.29a2.09,2.09,0,0,1-1.29.36,1.5,1.5,0,0,0,.75.35,3.16,3.16,0,0,0,1.1-.47A1,1,0,0,0,38.72,36.29Z"/><path class="cls-9" d="M37.43,36.59h.32a2,2,0,0,0,.35-.07h0l.21-.07.06,0,.16-.09.06,0,.07,0h0a1,1,0,0,1,.33.09.89.89,0,0,1,.27.17l.06,0-.07,0a3.52,3.52,0,0,1-.63.33h0a2.73,2.73,0,0,1-.45.13h0a1.15,1.15,0,0,1-.39-.11,1.5,1.5,0,0,1-.4-.25l-.13-.11Zm1-.16a3.06,3.06,0,0,1,.46.3l.18-.1a1.59,1.59,0,0,0-.52-.26Zm.24-.14,0,0a2.32,2.32,0,0,1,.5.28l.09-.06A1,1,0,0,0,38.72,36.29Zm.14.47a1.72,1.72,0,0,0-.49-.28l-.19.07a2.31,2.31,0,0,0,.49.3Zm-.77-.18-.29.05a2.42,2.42,0,0,0,.53.33l.24-.07A2.46,2.46,0,0,1,38.09,36.58Zm.09.42h0a2.2,2.2,0,0,1-.51-.35h-.26A1.5,1.5,0,0,0,38.18,37Z"/><path class="cls-8" d="M38.08,36a2.06,2.06,0,0,1-1.29.36,1.55,1.55,0,0,0,.76.34,3.08,3.08,0,0,0,1.1-.46A1,1,0,0,0,38.08,36Z"/><path class="cls-9" d="M36.8,36.31h.31a1.67,1.67,0,0,0,.35-.07h0l.21-.07,0,0,.17-.09,0,0,.07,0h0a1,1,0,0,1,.33.09,1.1,1.1,0,0,1,.27.17l.05,0-.06,0a5,5,0,0,1-.64.33h0a3,3,0,0,1-.46.13h0a1.53,1.53,0,0,1-.39-.11,1.8,1.8,0,0,1-.4-.25l-.13-.11Zm1-.16a3.24,3.24,0,0,1,.47.3l.18-.1a1.69,1.69,0,0,0-.52-.26Zm.24-.14,0,0a2.21,2.21,0,0,1,.51.28l.09-.06A1,1,0,0,0,38.08,36Zm.15.47a1.87,1.87,0,0,0-.49-.28l-.2.07a2.59,2.59,0,0,0,.49.3Zm-.77-.18-.3.05a2.42,2.42,0,0,0,.53.33l.24-.07A2.13,2.13,0,0,1,37.46,36.3Zm.09.41h0a2,2,0,0,1-.51-.35h-.27A1.55,1.55,0,0,0,37.55,36.71Z"/><path class="cls-8" d="M37.45,35.73a2,2,0,0,1-1.29.35,1.47,1.47,0,0,0,.75.35A3.08,3.08,0,0,0,38,36,1.11,1.11,0,0,0,37.45,35.73Z"/><path class="cls-9" d="M36.16,36h.31a1.93,1.93,0,0,0,.36-.06h0l.21-.07.06,0,.16-.09.06,0,.07,0,0,0h0a1.14,1.14,0,0,1,.59.26l.06,0L38,36a3.93,3.93,0,0,1-.64.33h0a2.67,2.67,0,0,1-.46.13h0a1.11,1.11,0,0,1-.39-.12,1.62,1.62,0,0,1-.39-.25L36,36Zm1-.15a2.77,2.77,0,0,1,.47.3l.18-.1a1.59,1.59,0,0,0-.52-.26Zm.25-.14,0,0a2.75,2.75,0,0,1,.51.28L38,36A1.11,1.11,0,0,0,37.45,35.73Zm.14.47a1.87,1.87,0,0,0-.49-.28l-.19.07a2.08,2.08,0,0,0,.49.3ZM36.82,36a1.36,1.36,0,0,1-.29.06,2.17,2.17,0,0,0,.52.33l.25-.08A1.64,1.64,0,0,1,36.82,36Zm.09.42h0a2,2,0,0,1-.51-.35h-.26A1.47,1.47,0,0,0,36.91,36.43Z"/><path class="cls-8" d="M36.82,35.45a2.05,2.05,0,0,1-1.3.33,1.47,1.47,0,0,0,.75.36,2.93,2.93,0,0,0,1.11-.45A1.05,1.05,0,0,0,36.82,35.45Z"/><path class="cls-9" d="M35.53,35.73h.31a1.93,1.93,0,0,0,.36-.06h0a1,1,0,0,0,.21-.07l.05,0,.17-.08.05,0,.08-.05h0a1,1,0,0,1,.33.09,1.1,1.1,0,0,1,.27.17l.06.05-.07,0a3.79,3.79,0,0,1-.64.32h0l0,0h0a2.11,2.11,0,0,1-.45.12h0a1.35,1.35,0,0,1-.38-.12,1.3,1.3,0,0,1-.39-.25l-.13-.12Zm1-.14a1.92,1.92,0,0,1,.46.3l.19-.1a2,2,0,0,0-.52-.27Zm.25-.14,0,0a2.32,2.32,0,0,1,.5.28l.09-.06A1.05,1.05,0,0,0,36.82,35.45Zm.14.47a2.25,2.25,0,0,0-.49-.29l-.2.07a2.66,2.66,0,0,0,.49.31Zm-.77-.2a1.33,1.33,0,0,1-.3.06,2.88,2.88,0,0,0,.53.33,1.16,1.16,0,0,0,.24-.07A1.86,1.86,0,0,1,36.19,35.72Zm.08.42h0a2.15,2.15,0,0,1-.5-.35h-.27A1.47,1.47,0,0,0,36.27,36.14Z"/><path class="cls-8" d="M36.19,35.16a2.05,2.05,0,0,1-1.3.33,1.47,1.47,0,0,0,.75.36,3.24,3.24,0,0,0,1.11-.44A1,1,0,0,0,36.19,35.16Z"/><path class="cls-9" d="M34.9,35.43h.31a1.7,1.7,0,0,0,.35-.06h0l.21-.07,0,0,.17-.08,0,0,.08,0h0a1,1,0,0,1,.33.09,1.1,1.1,0,0,1,.27.17l.05.06-.06,0a4.13,4.13,0,0,1-.65.31h0l0,0h0a2.1,2.1,0,0,1-.46.12h0a1.46,1.46,0,0,1-.39-.12,1.62,1.62,0,0,1-.39-.25l-.13-.12Zm1-.13a1.92,1.92,0,0,1,.46.3l.18-.1a1.79,1.79,0,0,0-.51-.27Zm.25-.14,0,0a2.86,2.86,0,0,1,.5.28l.09-.05A1,1,0,0,0,36.19,35.16Zm.13.47a1.71,1.71,0,0,0-.48-.29l-.2.07a2.16,2.16,0,0,0,.49.3Zm-.76-.2a2.27,2.27,0,0,1-.3.06,2.85,2.85,0,0,0,.52.33l.25-.07A1.86,1.86,0,0,1,35.56,35.43Zm.08.42h0a2,2,0,0,1-.5-.36h-.27A1.47,1.47,0,0,0,35.64,35.85Z"/><path class="cls-8" d="M35.56,34.87a2.08,2.08,0,0,1-1.3.33,1.44,1.44,0,0,0,.75.36,3.24,3.24,0,0,0,1.11-.44A1,1,0,0,0,35.56,34.87Z"/><path class="cls-9" d="M34.27,35.14h.31a1.7,1.7,0,0,0,.35-.06h0l.21-.07,0,0,.17-.08.05,0,.08,0h0a1,1,0,0,1,.32.09,1.1,1.1,0,0,1,.27.17l.05.06-.06,0a4.13,4.13,0,0,1-.65.31h0a3,3,0,0,1-.46.13h0a1.46,1.46,0,0,1-.39-.12,1.48,1.48,0,0,1-.39-.26l-.13-.11Zm1-.13a2.15,2.15,0,0,1,.46.3l.18-.1a1.79,1.79,0,0,0-.51-.27Zm.25-.14,0,0a2.86,2.86,0,0,1,.5.28l.09-.05A1,1,0,0,0,35.56,34.87Zm.13.47a1.71,1.71,0,0,0-.48-.29l-.2.07a2.31,2.31,0,0,0,.49.3Zm-.76-.2-.3,0a2.26,2.26,0,0,0,.52.34l.25-.07A1.7,1.7,0,0,1,34.93,35.14Zm.08.42h0a2,2,0,0,1-.51-.36h-.26A1.44,1.44,0,0,0,35,35.56Z"/><path class="cls-8" d="M34.93,34.58a2.11,2.11,0,0,1-1.3.32,1.49,1.49,0,0,0,.74.37,3.33,3.33,0,0,0,1.12-.44A1,1,0,0,0,34.93,34.58Z"/><path class="cls-9" d="M33.64,34.84H34l.35-.05h0l.21-.07.05,0,.17-.08,0,0,.08,0h0a1.14,1.14,0,0,1,.59.26l.06.06-.07,0a4.6,4.6,0,0,1-.65.31h0a3,3,0,0,1-.46.13h0A1.21,1.21,0,0,1,34,35.2a1.66,1.66,0,0,1-.39-.26l-.13-.12Zm1-.12a2.15,2.15,0,0,1,.46.3l.18-.1a1.79,1.79,0,0,0-.51-.27Zm.25-.14,0,0a2.86,2.86,0,0,1,.5.28l.09-.05A1,1,0,0,0,34.93,34.58Zm.13.47a1.86,1.86,0,0,0-.48-.29l-.2.07a2.31,2.31,0,0,0,.49.3Zm-.76-.2-.3,0a2.26,2.26,0,0,0,.52.34l.24-.07A1.81,1.81,0,0,1,34.3,34.85Zm.07.42h0a1.76,1.76,0,0,1-.49-.37h-.27A1.49,1.49,0,0,0,34.37,35.27Z"/><path class="cls-8" d="M34.3,34.28a2.08,2.08,0,0,1-1.3.32,1.5,1.5,0,0,0,.75.37,3.15,3.15,0,0,0,1.11-.43A1.08,1.08,0,0,0,34.3,34.28Z"/><path class="cls-9" d="M33,34.54h.31a1.93,1.93,0,0,0,.36-.06h0l.21-.07.06,0,.17-.08.05,0,.07-.05h0a.92.92,0,0,1,.32.1,1.2,1.2,0,0,1,.27.17l.06.06-.07,0a4.6,4.6,0,0,1-.65.31h0a3.61,3.61,0,0,1-.46.12h0a1.64,1.64,0,0,1-.39-.13,1.66,1.66,0,0,1-.39-.26l-.12-.12Zm1-.12a2.28,2.28,0,0,1,.46.3l.18-.09a2,2,0,0,0-.51-.28Zm.25-.14,0,0a2.77,2.77,0,0,1,.5.29l.09-.05A1.08,1.08,0,0,0,34.3,34.28Zm.13.48a1.75,1.75,0,0,0-.48-.3l-.2.07a2.36,2.36,0,0,0,.49.31Zm-.76-.21-.3.05a3,3,0,0,0,.52.34l.25-.07A1.7,1.7,0,0,1,33.67,34.55Zm.08.42h0a2.32,2.32,0,0,1-.5-.37H33A1.5,1.5,0,0,0,33.75,35Z"/><path class="cls-8" d="M33.68,34a2.13,2.13,0,0,1-1.31.32,1.5,1.5,0,0,0,.75.37,3.16,3.16,0,0,0,1.12-.43A1.08,1.08,0,0,0,33.68,34Z"/><path class="cls-9" d="M32.38,34.24h.31a1.93,1.93,0,0,0,.36-.06h0l.22-.07.05,0,.17-.08,0,0,.08,0h0A1.46,1.46,0,0,1,34,34a1.09,1.09,0,0,1,.26.18l.06,0-.07,0a4.13,4.13,0,0,1-.65.31h0a3.61,3.61,0,0,1-.46.12h0a1.81,1.81,0,0,1-.39-.13,2,2,0,0,1-.39-.26l-.12-.12Zm1-.12a2.48,2.48,0,0,1,.45.3l.19-.09a2.33,2.33,0,0,0-.51-.28Zm.25-.14,0,0a2.61,2.61,0,0,1,.49.29l.1,0A1.08,1.08,0,0,0,33.68,34Zm.13.48a2.1,2.1,0,0,0-.48-.3l-.2.07a2.3,2.3,0,0,0,.48.31ZM33,34.25l-.3,0a3.14,3.14,0,0,0,.52.35l.25-.07A1.86,1.86,0,0,1,33,34.25Zm.08.42h0a2.32,2.32,0,0,1-.5-.37h-.27A1.5,1.5,0,0,0,33.12,34.67Z"/><path class="cls-8" d="M33.05,33.68a2,2,0,0,1-1.3.31,1.43,1.43,0,0,0,.74.38,3.16,3.16,0,0,0,1.12-.43A1.08,1.08,0,0,0,33.05,33.68Z"/><path class="cls-9" d="M31.76,33.93h.31a1.7,1.7,0,0,0,.35-.06h0l.21-.07,0,0,.17-.08.06,0,.07,0,0,0h0a1.39,1.39,0,0,1,.33.1,1.09,1.09,0,0,1,.26.18l.05.05-.06,0a5.19,5.19,0,0,1-.65.31h0a2.41,2.41,0,0,1-.46.11h0a1.38,1.38,0,0,1-.77-.39l-.13-.12Zm1-.11a3.06,3.06,0,0,1,.46.3l.18-.09a2,2,0,0,0-.51-.28Zm.25-.14,0,0a2.77,2.77,0,0,1,.5.29l.09-.05A1.08,1.08,0,0,0,33.05,33.68Zm.13.48a1.91,1.91,0,0,0-.48-.3l-.2.06a2.23,2.23,0,0,0,.48.32ZM32.42,34l-.3,0a2.75,2.75,0,0,0,.51.35l.25-.07A1.81,1.81,0,0,1,32.42,34Zm.07.42h0A2,2,0,0,1,32,34h-.26A1.43,1.43,0,0,0,32.49,34.37Z"/><path class="cls-8" d="M32.43,33.38a2,2,0,0,1-1.31.3,1.57,1.57,0,0,0,.74.38A3.08,3.08,0,0,0,33,33.64,1.08,1.08,0,0,0,32.43,33.38Z"/><path class="cls-9" d="M31.13,33.62h.31l.36-.05h0A1,1,0,0,0,32,33.5l.06,0,.17-.07,0,0,.08-.05h0a1.46,1.46,0,0,1,.32.1,1.32,1.32,0,0,1,.27.18l0,0-.07,0a3.58,3.58,0,0,1-.65.3h0l0,0h0a2.43,2.43,0,0,1-.45.11h0a1.65,1.65,0,0,1-.38-.13,1.46,1.46,0,0,1-.38-.27L31,33.6Zm1.05-.11a3.06,3.06,0,0,1,.45.31l.19-.09a2.33,2.33,0,0,0-.51-.28Zm.25-.13,0,0a2.61,2.61,0,0,1,.49.29l.1,0A1.08,1.08,0,0,0,32.43,33.38Zm.12.48a1.75,1.75,0,0,0-.48-.3l-.19.06a2,2,0,0,0,.47.32Zm-.76-.22-.3,0A2.74,2.74,0,0,0,32,34l.24-.07A1.85,1.85,0,0,1,31.79,33.64Zm.07.42h0a2.18,2.18,0,0,1-.49-.37h-.27A1.57,1.57,0,0,0,31.86,34.06Z"/><path class="cls-8" d="M31.81,33.07a2.07,2.07,0,0,1-1.31.3,1.57,1.57,0,0,0,.74.38,3.08,3.08,0,0,0,1.12-.41A1,1,0,0,0,31.81,33.07Z"/><path class="cls-9" d="M30.51,33.31h.31l.36,0h0l.21-.07.06,0,.17-.07.05,0,.08,0v0h0a1,1,0,0,1,.32.09,1,1,0,0,1,.26.19l.05.05-.06,0a4.48,4.48,0,0,1-.66.3h0a2.61,2.61,0,0,1-.46.11h0a1.81,1.81,0,0,1-.39-.13,1.46,1.46,0,0,1-.38-.27l-.13-.12Zm1-.11a3.62,3.62,0,0,1,.45.32l.18-.09a2.1,2.1,0,0,0-.5-.29Zm.25-.13,0,0a3.17,3.17,0,0,1,.49.3l.09,0A1,1,0,0,0,31.81,33.07Zm.12.48a1.75,1.75,0,0,0-.48-.3l-.2.06a2.67,2.67,0,0,0,.48.32Zm-.76-.22-.3,0a2.43,2.43,0,0,0,.51.36l.25-.07A1.85,1.85,0,0,1,31.17,33.33Zm.07.42h0a2,2,0,0,1-.49-.37H30.5A1.57,1.57,0,0,0,31.24,33.75Z"/><path class="cls-8" d="M31.19,32.76a2.15,2.15,0,0,1-1.31.3,1.51,1.51,0,0,0,.73.38A3.16,3.16,0,0,0,31.74,33,1,1,0,0,0,31.19,32.76Z"/><path class="cls-9" d="M29.89,33h.31l.36,0h0l.21-.06.06,0,.17-.07,0,0,.08,0v0h0a.84.84,0,0,1,.33.1,1.09,1.09,0,0,1,.26.18l0,0-.06,0a4.48,4.48,0,0,1-.66.3h0a2.61,2.61,0,0,1-.46.11h0a1.65,1.65,0,0,1-.38-.13,1.46,1.46,0,0,1-.38-.27L29.71,33Zm1.05-.1a2.84,2.84,0,0,1,.45.31l.18-.09a2,2,0,0,0-.51-.29Zm.25-.14,0,0a3.76,3.76,0,0,1,.49.3l.09,0A1,1,0,0,0,31.19,32.76Zm.12.48a1.91,1.91,0,0,0-.48-.3l-.2.06a2.67,2.67,0,0,0,.48.32ZM30.55,33l-.3,0a2.88,2.88,0,0,0,.51.36l.25-.07A1.85,1.85,0,0,1,30.55,33Zm.06.42h0a2.52,2.52,0,0,1-.49-.37h-.26A1.51,1.51,0,0,0,30.61,33.44Z"/><path class="cls-8" d="M30.57,32.46a2.06,2.06,0,0,1-1.31.28,1.48,1.48,0,0,0,.73.39,3.16,3.16,0,0,0,1.13-.41A1,1,0,0,0,30.57,32.46Z"/><path class="cls-9" d="M29.27,32.68a1.13,1.13,0,0,0,.26,0h0a1.78,1.78,0,0,0,.35,0h0l.21-.06.06,0,.17-.07.05,0,.08,0h0a.84.84,0,0,1,.33.1,1.09,1.09,0,0,1,.26.18l.05,0-.07,0a4,4,0,0,1-.65.3h0a2.41,2.41,0,0,1-.46.11h0a1.65,1.65,0,0,1-.76-.41l-.13-.12Zm1-.09a2.44,2.44,0,0,1,.45.31l.19-.09a1.7,1.7,0,0,0-.51-.28Zm.26-.13h0a3.38,3.38,0,0,1,.5.3l.09-.05A1,1,0,0,0,30.57,32.46Zm.12.47a1.91,1.91,0,0,0-.48-.3l-.2.06a2.11,2.11,0,0,0,.48.32Zm-.77-.22-.29,0a2.43,2.43,0,0,0,.51.36l.24-.07A1.85,1.85,0,0,1,29.92,32.71Zm.07.42h0a2.22,2.22,0,0,1-.49-.38h-.26A1.48,1.48,0,0,0,30,33.13Z"/><path class="cls-8" d="M30,32.14a2.06,2.06,0,0,1-1.31.28,1.48,1.48,0,0,0,.73.39,3,3,0,0,0,1.13-.4A1.08,1.08,0,0,0,30,32.14Z"/><path class="cls-9" d="M28.65,32.36a1.15,1.15,0,0,0,.26,0H29a2,2,0,0,0,.36,0h0l.21-.06.06,0,.17-.07.05,0,.08,0h0a1.07,1.07,0,0,1,.32.1,1.09,1.09,0,0,1,.26.18l.05.05-.07,0a4.42,4.42,0,0,1-.65.3h0a2.84,2.84,0,0,1-.46.1h0a1.65,1.65,0,0,1-.76-.41l-.13-.12Zm1.05-.09a2.65,2.65,0,0,1,.44.32l.19-.09a2.16,2.16,0,0,0-.51-.29Zm.25-.13,0,0a3.76,3.76,0,0,1,.49.3l.09-.05A1.08,1.08,0,0,0,30,32.14Zm.11.48a1.74,1.74,0,0,0-.47-.31l-.2.06a2.36,2.36,0,0,0,.47.33Zm-.75-.23-.3,0a2.88,2.88,0,0,0,.51.36l.24-.06A1.67,1.67,0,0,1,29.31,32.39Zm.06.42h0a2,2,0,0,1-.49-.38h-.26A1.48,1.48,0,0,0,29.37,32.81Z"/><path class="cls-8" d="M29.33,31.83A2.1,2.1,0,0,1,28,32.1a1.48,1.48,0,0,0,.73.39,3.08,3.08,0,0,0,1.13-.39A1,1,0,0,0,29.33,31.83Z"/><path class="cls-9" d="M28,32a1.15,1.15,0,0,0,.26,0h.05a2,2,0,0,0,.36,0h0l.22-.06.05,0,.17-.07.06,0,.07,0,0,0h0a.92.92,0,0,1,.32.1,1,1,0,0,1,.26.19l0,0-.06,0a3.81,3.81,0,0,1-.66.29h0a2.84,2.84,0,0,1-.46.1h0a1.65,1.65,0,0,1-.76-.41L27.85,32Zm1-.09a2.81,2.81,0,0,1,.44.32l.19-.08a1.85,1.85,0,0,0-.5-.3Zm.25-.12h0a2.48,2.48,0,0,1,.49.31l.09,0A1,1,0,0,0,29.33,31.83Zm.12.48A1.75,1.75,0,0,0,29,32l-.2.06a2.75,2.75,0,0,0,.48.33Zm-.76-.24-.3,0a2.88,2.88,0,0,0,.51.36l.24-.06A1.78,1.78,0,0,1,28.69,32.07Zm.06.42h0a1.75,1.75,0,0,1-.48-.38H28A1.48,1.48,0,0,0,28.75,32.49Z"/><path class="cls-8" d="M28.71,31.51a2.1,2.1,0,0,1-1.31.27,1.48,1.48,0,0,0,.73.39,3.08,3.08,0,0,0,1.13-.39A1,1,0,0,0,28.71,31.51Z"/><path class="cls-9" d="M27.41,31.72l.26,0h0a2,2,0,0,0,.36,0h0l.21-.06.05,0,.18-.07.05,0,.08,0h0a1,1,0,0,1,.33.1,1,1,0,0,1,.26.19l.05.05-.07,0a3.51,3.51,0,0,1-.66.29h0a3.07,3.07,0,0,1-.47.1h0a1.65,1.65,0,0,1-.76-.41l-.12-.12Zm1.05-.09a3,3,0,0,1,.45.32l.18-.08a1.49,1.49,0,0,0-.5-.29Zm.25-.12,0,0a2.12,2.12,0,0,1,.49.3l.09,0A1,1,0,0,0,28.71,31.51Zm.12.48a2,2,0,0,0-.47-.32l-.2.06a2.36,2.36,0,0,0,.47.33Zm-.76-.24-.3,0a2.88,2.88,0,0,0,.51.36l.25-.06A1.66,1.66,0,0,1,28.07,31.75Zm.06.42h0a1.75,1.75,0,0,1-.48-.38H27.4A1.48,1.48,0,0,0,28.13,32.17Z"/><path class="cls-8" d="M28.1,31.19a2.08,2.08,0,0,1-1.31.26,1.41,1.41,0,0,0,.72.4,3.1,3.1,0,0,0,1.14-.39A1,1,0,0,0,28.1,31.19Z"/><path class="cls-9" d="M26.8,31.39l.26,0h.05a1.78,1.78,0,0,0,.35,0h0l.21-.06.06,0h0l.17-.07,0,0,.08,0h0a1.19,1.19,0,0,1,.32.1,1.31,1.31,0,0,1,.26.19l0,.06-.07,0a3.25,3.25,0,0,1-.66.29h0a2,2,0,0,1-.46.1h0a1.48,1.48,0,0,1-.75-.42l-.13-.12Zm1-.08a3,3,0,0,1,.45.32l.19-.08a2,2,0,0,0-.5-.29Zm.26-.12,0,0a2.13,2.13,0,0,1,.48.3l.1-.05A1,1,0,0,0,28.1,31.19Zm.11.48a1.78,1.78,0,0,0-.47-.32.66.66,0,0,1-.2.06,2.36,2.36,0,0,0,.47.33Zm-.76-.24-.29,0a2.53,2.53,0,0,0,.5.36l.25-.06A1.66,1.66,0,0,1,27.45,31.43Zm.06.42h0a2,2,0,0,1-.48-.38l-.26,0A1.41,1.41,0,0,0,27.51,31.85Z"/><path class="cls-8" d="M27.48,30.87a2.09,2.09,0,0,1-1.31.25,1.52,1.52,0,0,0,.73.41A3.08,3.08,0,0,0,28,31.14,1,1,0,0,0,27.48,30.87Z"/><path class="cls-9" d="M26.18,31.06a1.23,1.23,0,0,0,.27,0h0a2,2,0,0,0,.36,0h0L27.1,31l.06,0h0l.17-.08.05,0,.08,0v0h0a.87.87,0,0,1,.32.11,1.16,1.16,0,0,1,.25.18l.06.06-.07,0a3.81,3.81,0,0,1-.66.29h0a3.11,3.11,0,0,1-.46.1h0a1.46,1.46,0,0,1-.38-.14,1.49,1.49,0,0,1-.38-.28L26,31ZM27.23,31a2.26,2.26,0,0,1,.44.33l.19-.09a2,2,0,0,0-.5-.3Zm.25-.12h0a3.06,3.06,0,0,1,.49.31l.09-.05A1,1,0,0,0,27.48,30.87Zm.11.48a1.67,1.67,0,0,0-.46-.32l-.2,0a2,2,0,0,0,.46.34Zm-.75-.25-.3,0a4.45,4.45,0,0,0,.5.37l.25-.06A1.88,1.88,0,0,1,26.84,31.1Zm.06.43h0a2,2,0,0,1-.48-.39l-.27,0A1.52,1.52,0,0,0,26.9,31.53Z"/><path class="cls-8" d="M26.87,30.54a2.09,2.09,0,0,1-1.31.25,1.47,1.47,0,0,0,.72.41,3.24,3.24,0,0,0,1.14-.38A1.05,1.05,0,0,0,26.87,30.54Z"/><path class="cls-9" d="M25.57,30.74h.31a2,2,0,0,0,.36,0h0l.22-.05.05,0,.18-.07.05,0,.08,0h0a.94.94,0,0,1,.32.11,1,1,0,0,1,.26.19l.05,0-.07,0a3.8,3.8,0,0,1-.66.28h0a3.11,3.11,0,0,1-.46.1h0a1.8,1.8,0,0,1-.38-.15,1.41,1.41,0,0,1-.37-.27l-.13-.13Zm1.05-.08a2.26,2.26,0,0,1,.44.33l.19-.08a1.89,1.89,0,0,0-.5-.31Zm.25-.12,0,0a2.48,2.48,0,0,1,.49.31l.09-.05A1.05,1.05,0,0,0,26.87,30.54ZM27,31a1.57,1.57,0,0,0-.47-.32l-.2.06a2.36,2.36,0,0,0,.47.33Zm-.75-.25-.3,0a2.52,2.52,0,0,0,.5.37l.25-.06A1.7,1.7,0,0,1,26.23,30.77Zm.05.43h0a2.22,2.22,0,0,1-.48-.39,1.18,1.18,0,0,1-.26,0A1.47,1.47,0,0,0,26.28,31.2Z"/><path class="cls-8" d="M26.26,30.21a2,2,0,0,1-1.31.25,1.47,1.47,0,0,0,.72.41,3.24,3.24,0,0,0,1.14-.38A1.05,1.05,0,0,0,26.26,30.21Z"/><path class="cls-9" d="M25,30.4a1.14,1.14,0,0,0,.26,0h.05a1.37,1.37,0,0,0,.36,0h0l.21-.06.06,0h0l.17-.07.06,0,.07,0h0a1.21,1.21,0,0,1,.32.11,1.31,1.31,0,0,1,.26.19l0,.06-.07,0a3.39,3.39,0,0,1-.66.28h0a3.11,3.11,0,0,1-.46.1h0a1.31,1.31,0,0,1-.38-.15,1.29,1.29,0,0,1-.38-.28l-.12-.12ZM26,30.33a2.76,2.76,0,0,1,.44.33l.19-.08a2,2,0,0,0-.5-.3Zm.25-.12,0,0a2.09,2.09,0,0,1,.48.31l.1-.05A1.05,1.05,0,0,0,26.26,30.21Zm.11.48a2.06,2.06,0,0,0-.47-.32l-.2.06a2.36,2.36,0,0,0,.47.33Zm-.75-.24a3,3,0,0,1-.31,0,2.54,2.54,0,0,0,.51.37l.25-.06A1.67,1.67,0,0,1,25.62,30.45Zm.05.42h0a2,2,0,0,1-.48-.39,1.18,1.18,0,0,1-.26,0A1.47,1.47,0,0,0,25.67,30.87Z"/><path class="cls-8" d="M25.65,29.88a2,2,0,0,1-1.31.25,1.47,1.47,0,0,0,.72.41,3.34,3.34,0,0,0,1.14-.37A1,1,0,0,0,25.65,29.88Z"/><path class="cls-9" d="M24.35,30.07l.26,0h.05a1.78,1.78,0,0,0,.35,0h0l.21-.06.06,0,.17-.07.06,0,.07,0,0,0h0a.92.92,0,0,1,.32.1,1.31,1.31,0,0,1,.26.19l.05.06-.07,0a4.39,4.39,0,0,1-.66.27h0a3.11,3.11,0,0,1-.46.1h0a1.63,1.63,0,0,1-.37-.15,1.5,1.5,0,0,1-.37-.28L24.17,30Zm1-.06a2.65,2.65,0,0,1,.44.32l.19-.08a2.37,2.37,0,0,0-.5-.3Zm.25-.13,0,0a2.87,2.87,0,0,1,.48.31l.1,0A1,1,0,0,0,25.65,29.88Zm.11.48a2.3,2.3,0,0,0-.47-.32l-.2.06a2,2,0,0,0,.46.33ZM25,30.11l-.3,0a3.47,3.47,0,0,0,.5.37l.25-.06A1.66,1.66,0,0,1,25,30.11Zm.06.43h0a2.28,2.28,0,0,1-.48-.39l-.26,0A1.47,1.47,0,0,0,25.06,30.54Z"/><path class="cls-8" d="M25,29.55a2.07,2.07,0,0,1-1.31.24,1.47,1.47,0,0,0,.72.41,3.17,3.17,0,0,0,1.14-.36A1,1,0,0,0,25,29.55Z"/><path class="cls-9" d="M23.74,29.73l.26,0h.05a2,2,0,0,0,.36,0h0l.22-.06h.05l.17-.07.06,0,.08,0h0a1.21,1.21,0,0,1,.32.11,1.14,1.14,0,0,1,.26.2l.05.05-.07,0a4.07,4.07,0,0,1-.67.27h0a2.33,2.33,0,0,1-.46.09h0a1.21,1.21,0,0,1-.37-.15,1.29,1.29,0,0,1-.37-.28l-.13-.12Zm1.05-.06a4.15,4.15,0,0,1,.44.33l.18-.08a2.08,2.08,0,0,0-.49-.3Zm.25-.12,0,0a2.3,2.3,0,0,1,.48.32l.1-.05A1,1,0,0,0,25,29.55Zm.11.48a1.78,1.78,0,0,0-.47-.32l-.2.05a2.72,2.72,0,0,0,.46.34Zm-.75-.25-.3,0a2.5,2.5,0,0,0,.49.37,1.57,1.57,0,0,0,.25-.05A1.66,1.66,0,0,1,24.4,29.78Zm.05.42h0a2,2,0,0,1-.48-.39l-.26,0A1.47,1.47,0,0,0,24.45,30.2Z"/><path class="cls-8" d="M24.44,29.21a2.09,2.09,0,0,1-1.32.24,1.54,1.54,0,0,0,.72.42A3.34,3.34,0,0,0,25,29.5,1.05,1.05,0,0,0,24.44,29.21Z"/><path class="cls-9" d="M23.13,29.39a1.18,1.18,0,0,0,.26,0h.05a2,2,0,0,0,.36,0h0l.22-.05.05,0,.18-.07,0,0,.08,0,0,0h0a.82.82,0,0,1,.32.11,1.43,1.43,0,0,1,.25.19l.05.06-.07,0a4.22,4.22,0,0,1-.66.26h0a2.33,2.33,0,0,1-.46.09h0a1.34,1.34,0,0,1-.37-.14,1.53,1.53,0,0,1-.37-.29L23,29.37Zm1.05-.06a2.25,2.25,0,0,1,.44.34l.19-.08a1.89,1.89,0,0,0-.5-.31Zm.26-.12,0,0a2.18,2.18,0,0,1,.47.32l.1-.05A1.05,1.05,0,0,0,24.44,29.21Zm.1.49a1.82,1.82,0,0,0-.47-.33l-.2.05a1.8,1.8,0,0,0,.47.34Zm-.75-.26a1.53,1.53,0,0,1-.3,0,3.13,3.13,0,0,0,.49.38l.25-.06A1.62,1.62,0,0,1,23.79,29.44Zm.05.43h0a2,2,0,0,1-.48-.39l-.26,0A1.54,1.54,0,0,0,23.84,29.87Z"/><path class="cls-8" d="M23.83,28.88a2.07,2.07,0,0,1-1.32.23,1.44,1.44,0,0,0,.72.42,3.17,3.17,0,0,0,1.14-.36A1,1,0,0,0,23.83,28.88Z"/><path class="cls-9" d="M22.52,29.05l.26,0h0a2,2,0,0,0,.36,0h0l.21-.06.06,0,.17-.06.06,0,.07,0h0a1.21,1.21,0,0,1,.32.11,1,1,0,0,1,.25.2l.06.05-.08,0a3.68,3.68,0,0,1-.66.27h0a3.86,3.86,0,0,1-.46.09h0a1.63,1.63,0,0,1-.37-.15,1.76,1.76,0,0,1-.37-.29L22.35,29ZM23.57,29a2.76,2.76,0,0,1,.44.33l.19-.08a1.74,1.74,0,0,0-.5-.31Zm.26-.12,0,0a2.61,2.61,0,0,1,.48.32l.09,0A1,1,0,0,0,23.83,28.88Zm.1.48a2,2,0,0,0-.46-.33l-.21.06a2.43,2.43,0,0,0,.47.34Zm-.75-.26a1.39,1.39,0,0,1-.3,0,2.62,2.62,0,0,0,.49.38l.25-.05A1.88,1.88,0,0,1,23.18,29.1Zm.05.43h0a2,2,0,0,1-.48-.4l-.26,0A1.44,1.44,0,0,0,23.23,29.53Z"/><path class="cls-8" d="M23.22,28.54a2.08,2.08,0,0,1-1.32.22,1.51,1.51,0,0,0,.72.43,3.24,3.24,0,0,0,1.15-.36A1.11,1.11,0,0,0,23.22,28.54Z"/><path class="cls-9" d="M21.92,28.71l.26,0h.05a1.83,1.83,0,0,0,.35,0h0l.21-.05.06,0,.17-.06.06,0,.08,0h0a.76.76,0,0,1,.32.11,1.31,1.31,0,0,1,.26.19l.05.06-.07,0a3.34,3.34,0,0,1-.67.27h0a2.33,2.33,0,0,1-.46.09h0a1.58,1.58,0,0,1-.38-.16,1.44,1.44,0,0,1-.37-.28l-.12-.13Zm1-.05a3.12,3.12,0,0,1,.43.33l.19-.07a1.84,1.84,0,0,0-.49-.31Zm.25-.12,0,0a2.3,2.3,0,0,1,.48.32l.1-.05A1.11,1.11,0,0,0,23.22,28.54Zm.1.48a1.91,1.91,0,0,0-.46-.32l-.2.05a2.37,2.37,0,0,0,.46.34Zm-.75-.26a1.39,1.39,0,0,1-.3,0,3,3,0,0,0,.49.38l.26-.05A1.93,1.93,0,0,1,22.57,28.76Zm.05.43h0a2,2,0,0,1-.47-.4l-.27,0A1.51,1.51,0,0,0,22.62,29.19Z"/><path class="cls-8" d="M22.62,28.2a2.08,2.08,0,0,1-1.32.22,1.54,1.54,0,0,0,.71.42,3.12,3.12,0,0,0,1.15-.34A1,1,0,0,0,22.62,28.2Z"/><path class="cls-9" d="M21.31,28.36l.26,0h.05a2,2,0,0,0,.36,0h0l.21-.05.06,0,.17-.07.06,0,.07,0h0a1.05,1.05,0,0,1,.57.32l.05.05-.07,0a5,5,0,0,1-.67.26h0a2.74,2.74,0,0,1-.47.08h0a1.21,1.21,0,0,1-.37-.15,1.53,1.53,0,0,1-.37-.29l-.12-.13Zm1.05,0a2.76,2.76,0,0,1,.44.33l.19-.07a2.17,2.17,0,0,0-.49-.32Zm.26-.12,0,0a2.18,2.18,0,0,1,.47.32l.1,0A1,1,0,0,0,22.62,28.2Zm.1.48a2,2,0,0,0-.46-.33l-.21,0a2.34,2.34,0,0,0,.46.35ZM22,28.42l-.3,0a2.74,2.74,0,0,0,.49.39l.25,0A1.69,1.69,0,0,1,22,28.42Zm0,.42h0a2,2,0,0,1-.46-.4l-.27,0A1.54,1.54,0,0,0,22,28.84Z"/><path class="cls-8" d="M22,27.86a2.14,2.14,0,0,1-1.32.21,1.46,1.46,0,0,0,.71.43,3.33,3.33,0,0,0,1.15-.35A1,1,0,0,0,22,27.86Z"/><path class="cls-9" d="M20.71,28,21,28H21a2,2,0,0,0,.36,0h0l.22-.06h.05l.18-.07.05,0,.08,0,0,0h0a1.35,1.35,0,0,1,.32.11,1.22,1.22,0,0,1,.25.2l0,.06-.07,0a3.24,3.24,0,0,1-.67.26h0a2.33,2.33,0,0,1-.46.09h0A1.58,1.58,0,0,1,21,28.4a1.72,1.72,0,0,1-.37-.28L20.53,28ZM21.76,28a2.14,2.14,0,0,1,.43.34l.19-.08a1.84,1.84,0,0,0-.49-.31Zm.26-.11h0a3,3,0,0,1,.47.33l.1-.05A1,1,0,0,0,22,27.86Zm.09.48a1.57,1.57,0,0,0-.46-.33l-.2,0a2.37,2.37,0,0,0,.46.34Zm-.74-.27a1.55,1.55,0,0,1-.31,0,2.63,2.63,0,0,0,.5.38,1.81,1.81,0,0,0,.25-.05A1.69,1.69,0,0,1,21.37,28.07Zm0,.43h0a2.26,2.26,0,0,1-.47-.4l-.26,0A1.46,1.46,0,0,0,21.41,28.5Z"/><path class="cls-8" d="M21.42,27.51a2.08,2.08,0,0,1-1.33.21,1.41,1.41,0,0,0,.71.43A3.12,3.12,0,0,0,22,27.81,1,1,0,0,0,21.42,27.51Z"/><path class="cls-9" d="M20.1,27.67l.27,0h.05a1.35,1.35,0,0,0,.35,0h0l.21-.05.06,0,.18-.06,0,0,.08,0h0a1,1,0,0,1,.32.12,1.22,1.22,0,0,1,.25.2l.05.05-.07,0a4.28,4.28,0,0,1-.67.26h0a2.74,2.74,0,0,1-.47.08h0a1.63,1.63,0,0,1-.37-.15,1.52,1.52,0,0,1-.37-.3l-.12-.12Zm1.06,0a2.47,2.47,0,0,1,.43.34l.19-.08a2.17,2.17,0,0,0-.49-.32Zm.26-.12,0,0a2.78,2.78,0,0,1,.48.32l.09,0A1,1,0,0,0,21.42,27.51Zm.09.49a2,2,0,0,0-.46-.34l-.2.05a1.87,1.87,0,0,0,.46.35Zm-.75-.27-.3,0a2.74,2.74,0,0,0,.49.39l.25-.05A1.88,1.88,0,0,1,20.76,27.73Zm0,.42h0a1.81,1.81,0,0,1-.47-.4,1.24,1.24,0,0,1-.27,0A1.41,1.41,0,0,0,20.8,28.15Z"/><path class="cls-8" d="M20.81,27.17a2.08,2.08,0,0,1-1.32.2,1.51,1.51,0,0,0,.71.43,2.93,2.93,0,0,0,1.15-.34A1.05,1.05,0,0,0,20.81,27.17Z"/><path class="cls-9" d="M19.5,27.31a1.31,1.31,0,0,0,.27,0h.05l.35,0h0l.21,0,.06,0,.18-.06.05,0,.08,0h0a1,1,0,0,1,.31.12,1.07,1.07,0,0,1,.25.19l.06.06-.08,0a3.8,3.8,0,0,1-.67.25h0a2,2,0,0,1-.47.08h0a1.58,1.58,0,0,1-.38-.16,1.64,1.64,0,0,1-.36-.29l-.12-.13Zm1.06,0a3.06,3.06,0,0,1,.43.34l.19-.08a2.13,2.13,0,0,0-.49-.31Zm.25-.11h0a2.71,2.71,0,0,1,.48.33l.09-.05A1.05,1.05,0,0,0,20.81,27.17Zm.1.48a2,2,0,0,0-.46-.34l-.2.05a1.83,1.83,0,0,0,.45.35Zm-.75-.27-.3,0a2.85,2.85,0,0,0,.49.39l.25-.05A1.69,1.69,0,0,1,20.16,27.38Zm0,.42h0a1.77,1.77,0,0,1-.46-.4,2.48,2.48,0,0,1-.27,0A1.51,1.51,0,0,0,20.2,27.8Z"/><path class="cls-8" d="M20.22,26.81a2.08,2.08,0,0,1-1.33.21,1.51,1.51,0,0,0,.71.43,3.26,3.26,0,0,0,1.15-.33A1.09,1.09,0,0,0,20.22,26.81Z"/><path class="cls-9" d="M18.9,27l.27,0h0a1.83,1.83,0,0,0,.35,0h0l.22-.05.05,0,.18-.06.05,0,.08,0h0a.91.91,0,0,1,.31.12,1,1,0,0,1,.25.2l.05.06-.07,0a3.8,3.8,0,0,1-.67.25h0a2.91,2.91,0,0,1-.47.08h0a1.58,1.58,0,0,1-.38-.16,2,2,0,0,1-.36-.29l-.12-.13Zm1.06,0a3.06,3.06,0,0,1,.43.34l.19-.07a1.88,1.88,0,0,0-.49-.32Zm.26-.12,0,0a2.24,2.24,0,0,1,.47.33l.1,0A1.09,1.09,0,0,0,20.22,26.81Zm.08.49a1.78,1.78,0,0,0-.45-.34l-.2.05a1.83,1.83,0,0,0,.45.35ZM19.56,27a1.39,1.39,0,0,1-.3,0,2.85,2.85,0,0,0,.49.39l.25-.05A1.73,1.73,0,0,1,19.56,27Zm0,.43h0a1.77,1.77,0,0,1-.46-.4l-.27,0A1.51,1.51,0,0,0,19.6,27.45Z"/><path class="cls-8" d="M19.62,26.46a2.12,2.12,0,0,1-1.33.2,1.53,1.53,0,0,0,.71.44,3.26,3.26,0,0,0,1.15-.33A1,1,0,0,0,19.62,26.46Z"/><path class="cls-9" d="M18.3,26.61l.27,0h.05a2,2,0,0,0,.36,0h0l.22,0,.05,0,.18-.06.06,0,.07,0h0a1,1,0,0,1,.32.12,1.22,1.22,0,0,1,.25.2l.05.05-.08,0a3.8,3.8,0,0,1-.67.25h0a2.91,2.91,0,0,1-.47.08h0a1.58,1.58,0,0,1-.38-.16,1.69,1.69,0,0,1-.36-.3l-.12-.12Zm1.06,0a2.47,2.47,0,0,1,.43.34l.19-.07a1.92,1.92,0,0,0-.49-.33Zm.26-.12,0,0a3,3,0,0,1,.47.33l.09,0A1,1,0,0,0,19.62,26.46Zm.09.49a1.82,1.82,0,0,0-.46-.34l-.2.05a2.38,2.38,0,0,0,.45.35ZM19,26.67a1.42,1.42,0,0,1-.3,0,2.12,2.12,0,0,0,.49.39l.25,0A2,2,0,0,1,19,26.67Zm0,.43h0a2,2,0,0,1-.46-.41,1.24,1.24,0,0,1-.27,0A1.53,1.53,0,0,0,19,27.1Z"/><path class="cls-8" d="M19,26.11a2,2,0,0,1-1.32.2,1.41,1.41,0,0,0,.7.43,3.08,3.08,0,0,0,1.16-.33A1,1,0,0,0,19,26.11Z"/><path class="cls-9" d="M17.71,26.25l.26,0H18a2.06,2.06,0,0,0,.36,0h0l.22-.05h.06l.17-.07.06,0,.07,0h0a1,1,0,0,1,.32.13,1.22,1.22,0,0,1,.25.2l0,.05-.07,0a4.18,4.18,0,0,1-.68.25h0a2,2,0,0,1-.47.08h0a1.58,1.58,0,0,1-.38-.16,2,2,0,0,1-.36-.29l-.11-.13Zm1.05,0a2.53,2.53,0,0,1,.43.35l.19-.08a2,2,0,0,0-.49-.32Zm.26-.11,0,0a2.43,2.43,0,0,1,.47.33l.1-.05A1,1,0,0,0,19,26.11Zm.09.49a1.82,1.82,0,0,0-.46-.34l-.2,0a2.38,2.38,0,0,0,.45.35Zm-.75-.28-.3,0a2.85,2.85,0,0,0,.49.39,1.81,1.81,0,0,0,.25-.05A1.69,1.69,0,0,1,18.36,26.32Zm0,.42h0a1.77,1.77,0,0,1-.46-.4l-.26,0A1.41,1.41,0,0,0,18.4,26.74Z"/><path class="cls-8" d="M18.42,25.76a2.1,2.1,0,0,1-1.32.18,1.5,1.5,0,0,0,.7.45A3.08,3.08,0,0,0,19,26.06,1,1,0,0,0,18.42,25.76Z"/><path class="cls-9" d="M17.11,25.89l.27,0h0l.36,0h0l.21,0,.06,0,.18-.06.05,0,.08,0h0a1,1,0,0,1,.31.12A1,1,0,0,1,19,26l.05.06-.07,0a3.75,3.75,0,0,1-.68.24h0a2.74,2.74,0,0,1-.47.08h0a1.44,1.44,0,0,1-.37-.16,1.31,1.31,0,0,1-.36-.3l-.12-.12Zm1.05,0a2.13,2.13,0,0,1,.43.35l.19-.08a1.83,1.83,0,0,0-.48-.32Zm.26-.11h0a2.89,2.89,0,0,1,.47.34l.1-.05A1,1,0,0,0,18.42,25.76Zm.09.48a2,2,0,0,0-.45-.34l-.21.05a2.75,2.75,0,0,0,.45.35ZM17.77,26l-.3,0a2.73,2.73,0,0,0,.48.39l.25,0A1.88,1.88,0,0,1,17.77,26Zm0,.43h0a2.55,2.55,0,0,1-.46-.41l-.26,0A1.5,1.5,0,0,0,17.8,26.39Z"/><path class="cls-8" d="M17.83,25.4a2.12,2.12,0,0,1-1.33.18,1.51,1.51,0,0,0,.71.45,3.35,3.35,0,0,0,1.15-.32A1,1,0,0,0,17.83,25.4Z"/><path class="cls-9" d="M16.52,25.53l.26,0h0l.36,0h0l.22,0,.06,0,.17-.06.06,0,.08,0h0a.8.8,0,0,1,.32.13,1.22,1.22,0,0,1,.25.2l0,.06-.07,0a3.05,3.05,0,0,1-.67.24h0a2.1,2.1,0,0,1-.46.07h0a1.44,1.44,0,0,1-.37-.16,1.69,1.69,0,0,1-.36-.3l-.11-.13Zm1.05,0a2,2,0,0,1,.42.35l.2-.07a1.57,1.57,0,0,0-.49-.33Zm.26-.11h0a2.36,2.36,0,0,1,.46.34l.1,0A1,1,0,0,0,17.83,25.4Zm.08.48a1.62,1.62,0,0,0-.45-.34l-.2.05a2.1,2.1,0,0,0,.45.35Zm-.74-.28-.3,0a2.73,2.73,0,0,0,.48.39l.26,0A1.73,1.73,0,0,1,17.17,25.6Zm0,.43h0a1.84,1.84,0,0,1-.46-.42,1.31,1.31,0,0,1-.27,0A1.51,1.51,0,0,0,17.21,26Z"/><path class="cls-8" d="M17.24,25a2.14,2.14,0,0,1-1.33.18,1.5,1.5,0,0,0,.7.45,3.43,3.43,0,0,0,1.16-.32A1,1,0,0,0,17.24,25Z"/><path class="cls-9" d="M15.92,25.17l.27,0h0l.36,0h0l.21,0,.06,0h0l.18-.06.05,0,.08,0h0a1.08,1.08,0,0,1,.32.13,1,1,0,0,1,.24.2l.05.06-.07,0a3.11,3.11,0,0,1-.68.24h0a2.22,2.22,0,0,1-.47.07h0a1.44,1.44,0,0,1-.37-.16,1.31,1.31,0,0,1-.36-.3l-.12-.13Zm1.06,0a2.34,2.34,0,0,1,.42.35l.19-.07a1.53,1.53,0,0,0-.48-.33Zm.26-.11,0,0a2,2,0,0,1,.46.33l.1,0A1,1,0,0,0,17.24,25Zm.08.48a2,2,0,0,0-.45-.34l-.2.05a2.33,2.33,0,0,0,.44.35Zm-.74-.28-.3,0a2.73,2.73,0,0,0,.48.39l.25,0A1.88,1.88,0,0,1,16.58,25.24Zm0,.43h0a2,2,0,0,1-.46-.41l-.26,0A1.5,1.5,0,0,0,16.61,25.67Z"/><path class="cls-8" d="M16.64,24.68a2,2,0,0,1-1.32.18,1.48,1.48,0,0,0,.7.44A3.25,3.25,0,0,0,17.18,25,1.09,1.09,0,0,0,16.64,24.68Z"/><path class="cls-9" d="M15.33,24.8l.26,0h.05a2.1,2.1,0,0,0,.36,0h0l.22,0,.06,0,.18-.06.05,0,.08,0h0a.93.93,0,0,1,.31.13,1,1,0,0,1,.25.2l.05.06-.07,0a4,4,0,0,1-.68.24h0a2.1,2.1,0,0,1-.46.07h0a1.44,1.44,0,0,1-.37-.16,2.6,2.6,0,0,1-.36-.3l-.11-.14Zm1,0a2.13,2.13,0,0,1,.43.35l.19-.07a1.65,1.65,0,0,0-.48-.33Zm.26-.11,0,0a2.14,2.14,0,0,1,.47.33l.1,0A1.09,1.09,0,0,0,16.64,24.68Zm.08.48a1.74,1.74,0,0,0-.44-.34l-.21.05a2.1,2.1,0,0,0,.45.35ZM16,24.88a1.58,1.58,0,0,1-.31,0,2.45,2.45,0,0,0,.48.4l.26,0A1.53,1.53,0,0,1,16,24.88Zm0,.42h0a1.81,1.81,0,0,1-.46-.41l-.26,0A1.48,1.48,0,0,0,16,25.3Z"/><path class="cls-8" d="M16.05,24.32a2.05,2.05,0,0,1-1.32.17,1.55,1.55,0,0,0,.69.45,3.25,3.25,0,0,0,1.16-.31A1,1,0,0,0,16.05,24.32Z"/><path class="cls-9" d="M14.74,24.43l.26,0h.05l.36,0h0l.22-.05h.06l.17-.06.06,0,.08,0h0a1,1,0,0,1,.31.13,1.22,1.22,0,0,1,.25.2l0,.06-.07,0a3.11,3.11,0,0,1-.68.24h0a3.32,3.32,0,0,1-.47.07h0a1.78,1.78,0,0,1-.37-.17,2,2,0,0,1-.36-.3l-.11-.13Zm1,0a2.82,2.82,0,0,1,.42.36l.2-.07a1.87,1.87,0,0,0-.48-.33Zm.26-.1h0a2.86,2.86,0,0,1,.46.34l.1,0A1,1,0,0,0,16.05,24.32Zm.08.48a1.62,1.62,0,0,0-.45-.34l-.2,0a1.87,1.87,0,0,0,.45.36Zm-.73-.29-.31,0a3.47,3.47,0,0,0,.48.4l.25,0A1.9,1.9,0,0,1,15.4,24.51Zm0,.43h0a2.24,2.24,0,0,1-.45-.42l-.26,0A1.55,1.55,0,0,0,15.42,24.94Z"/><path class="cls-8" d="M15.46,24a2.05,2.05,0,0,1-1.32.17,1.45,1.45,0,0,0,.69.45,3.09,3.09,0,0,0,1.16-.3A1,1,0,0,0,15.46,24Z"/><path class="cls-9" d="M14.15,24.06l.26,0h.05a2.06,2.06,0,0,0,.36,0h0l.22,0h.06l.18-.06,0,0,.08,0h0a1,1,0,0,1,.55.34l0,.06-.07,0a3,3,0,0,1-.68.23h0a2.22,2.22,0,0,1-.47.07h0a1.66,1.66,0,0,1-.73-.47L14,24Zm1,0a2,2,0,0,1,.42.35l.19-.07a1.9,1.9,0,0,0-.47-.33Zm.26-.11,0,0a2.36,2.36,0,0,1,.46.34l.1,0A1,1,0,0,0,15.46,24Zm.08.49a1.58,1.58,0,0,0-.44-.35l-.21,0a1.87,1.87,0,0,0,.45.36Zm-.73-.3-.31,0a3.47,3.47,0,0,0,.48.4l.25,0A1.69,1.69,0,0,1,14.81,24.14Zm0,.43h0a2,2,0,0,1-.45-.42,1.15,1.15,0,0,1-.26,0A1.45,1.45,0,0,0,14.83,24.57Z"/><path class="cls-8" d="M14.87,23.58a2.07,2.07,0,0,1-1.33.17,1.5,1.5,0,0,0,.7.45,3.09,3.09,0,0,0,1.16-.3A1,1,0,0,0,14.87,23.58Z"/><path class="cls-9" d="M13.56,23.69l.26,0h0a2.1,2.1,0,0,0,.36,0h0l.22,0,.06,0,.18-.06,0,0,.08,0h0a.76.76,0,0,1,.31.13,1.22,1.22,0,0,1,.25.2l0,.06-.07,0a3.75,3.75,0,0,1-.68.24h0a2.22,2.22,0,0,1-.47.07h0a1.66,1.66,0,0,1-.73-.47l-.11-.13Zm1,0A2.46,2.46,0,0,1,15,24l.2-.07a2.16,2.16,0,0,0-.48-.33Zm.26-.11,0,0a2.36,2.36,0,0,1,.46.34l.1,0A1,1,0,0,0,14.87,23.58Zm.08.49a1.78,1.78,0,0,0-.44-.35l-.21,0a2.21,2.21,0,0,0,.45.37Zm-.73-.29h-.31a2.87,2.87,0,0,0,.48.4l.25,0A1.64,1.64,0,0,1,14.22,23.78Zm0,.42h0a2.2,2.2,0,0,1-.45-.41l-.27,0A1.5,1.5,0,0,0,14.24,24.2Z"/><path class="cls-8" d="M14.29,23.22a2.07,2.07,0,0,1-1.33.16,1.45,1.45,0,0,0,.69.45,3.09,3.09,0,0,0,1.16-.3A1,1,0,0,0,14.29,23.22Z"/><path class="cls-9" d="M13,23.32l.26,0h0a2.1,2.1,0,0,0,.36,0h0l.22,0,.06,0,.18-.05,0,0,.08,0h0a.93.93,0,0,1,.31.13.87.87,0,0,1,.25.21l.05.05-.08,0a4.55,4.55,0,0,1-.68.23h0a2.57,2.57,0,0,1-.47.06h0a1.33,1.33,0,0,1-.36-.17,1.74,1.74,0,0,1-.36-.3l-.11-.14Zm1,0a2.06,2.06,0,0,1,.42.36l.2-.07a1.92,1.92,0,0,0-.48-.34Zm.27-.1h0a2.45,2.45,0,0,1,.47.35l.09,0A1,1,0,0,0,14.29,23.22Zm.07.48a2.05,2.05,0,0,0-.44-.35l-.21,0a2.54,2.54,0,0,0,.45.36Zm-.73-.29h-.31a2.19,2.19,0,0,0,.48.4l.25,0A1.64,1.64,0,0,1,13.63,23.41Zm0,.42h0a1.79,1.79,0,0,1-.45-.42l-.26,0A1.45,1.45,0,0,0,13.65,23.83Z"/><path class="cls-8" d="M13.7,22.85a2.09,2.09,0,0,1-1.33.15,1.52,1.52,0,0,0,.69.46,3.18,3.18,0,0,0,1.16-.29A1,1,0,0,0,13.7,22.85Z"/><path class="cls-9" d="M12.39,22.94l.26,0h0a1.36,1.36,0,0,0,.35,0h0l.22,0,0,0,.18-.06.06,0,.07,0h0a1,1,0,0,1,.32.13,1.19,1.19,0,0,1,.24.21l.05.06-.08,0a3.63,3.63,0,0,1-.68.23h0a2.57,2.57,0,0,1-.47.06h0a1.78,1.78,0,0,1-.37-.17,1.73,1.73,0,0,1-.35-.31l-.12-.13Zm1,0a2.25,2.25,0,0,1,.41.36l.2-.07a2.21,2.21,0,0,0-.48-.34Zm.26-.1h0a3.3,3.3,0,0,1,.46.35l.09,0A1,1,0,0,0,13.7,22.85Zm.07.49a1.83,1.83,0,0,0-.44-.36l-.2,0a2.16,2.16,0,0,0,.44.37ZM13,23a1.45,1.45,0,0,1-.3,0,2.62,2.62,0,0,0,.47.41l.25,0A1.51,1.51,0,0,1,13,23Zm0,.43h0a2.24,2.24,0,0,1-.45-.42l-.26,0A1.52,1.52,0,0,0,13.06,23.46Z"/><path class="cls-8" d="M13.11,22.47a2.13,2.13,0,0,1-1.33.16,1.53,1.53,0,0,0,.7.46,3.18,3.18,0,0,0,1.16-.29A1.06,1.06,0,0,0,13.11,22.47Z"/><path class="cls-9" d="M11.8,22.57l.26,0h0a2.1,2.1,0,0,0,.36,0h0l.22,0h.06l.18-.06,0,0,.08,0h0a.93.93,0,0,1,.31.13,1.19,1.19,0,0,1,.24.21l.05.06-.07,0a3.76,3.76,0,0,1-.68.22h0a2.48,2.48,0,0,1-.47.06h0a1.3,1.3,0,0,1-.37-.17,1.68,1.68,0,0,1-.35-.3l-.11-.14Zm1,0a2.82,2.82,0,0,1,.42.36l.19-.07a1.71,1.71,0,0,0-.47-.34Zm.26-.11,0,0a2.32,2.32,0,0,1,.46.35l.1,0A1.06,1.06,0,0,0,13.11,22.47Zm.08.49a1.83,1.83,0,0,0-.45-.35l-.2,0A2.47,2.47,0,0,0,13,23Zm-.74-.3h-.3a3,3,0,0,0,.47.41l.26,0A2,2,0,0,1,12.45,22.66Zm0,.43h0a1.84,1.84,0,0,1-.45-.43c-.09,0-.17,0-.27,0A1.53,1.53,0,0,0,12.48,23.09Z"/><path class="cls-8" d="M12.53,22.1a2.09,2.09,0,0,1-1.33.15,1.52,1.52,0,0,0,.69.46,3.18,3.18,0,0,0,1.16-.29A1,1,0,0,0,12.53,22.1Z"/><path class="cls-9" d="M11.21,22.19l.26,0h0a1.42,1.42,0,0,0,.36,0h0l.22,0,0,0,.18-.05.06,0,.08,0h0a1.06,1.06,0,0,1,.31.14,1,1,0,0,1,.24.2l.05.06-.08,0a3.52,3.52,0,0,1-.68.22h0a2.57,2.57,0,0,1-.47.06h0a1.86,1.86,0,0,1-.36-.17,1.55,1.55,0,0,1-.36-.31L11,22.16Zm1.06,0a2.25,2.25,0,0,1,.41.36l.2-.07a2.16,2.16,0,0,0-.48-.33Zm.26-.1,0,0a2.72,2.72,0,0,1,.46.34l.09,0A1,1,0,0,0,12.53,22.1Zm.07.49a1.83,1.83,0,0,0-.44-.36l-.21,0a2.11,2.11,0,0,0,.44.37Zm-.73-.31a1.51,1.51,0,0,1-.3,0,2.31,2.31,0,0,0,.47.41l.25,0A1.51,1.51,0,0,1,11.87,22.28Zm0,.43h0a2.24,2.24,0,0,1-.45-.42l-.26,0A1.52,1.52,0,0,0,11.89,22.71Z"/><path class="cls-8" d="M12,21.73a2.07,2.07,0,0,1-1.33.14,1.54,1.54,0,0,0,.68.47,3.21,3.21,0,0,0,1.17-.29A1,1,0,0,0,12,21.73Z"/><path class="cls-9" d="M10.63,21.81l.26,0h.44l.22,0h.06l.18-.06.05,0,.08,0h0a.93.93,0,0,1,.31.13,1.19,1.19,0,0,1,.24.21l.05.06-.07,0a3.76,3.76,0,0,1-.68.22h0a2.57,2.57,0,0,1-.47.06h0a1.3,1.3,0,0,1-.37-.17,1.73,1.73,0,0,1-.35-.31l-.11-.14Zm1,0a2.82,2.82,0,0,1,.42.36l.19-.07a1.94,1.94,0,0,0-.47-.34Zm.27-.1h0a2.32,2.32,0,0,1,.46.35l.1,0A1,1,0,0,0,12,21.73Zm.06.48a1.62,1.62,0,0,0-.44-.35l-.2,0a2.16,2.16,0,0,0,.44.37Zm-.73-.3H11a3,3,0,0,0,.47.41l.25,0A2.16,2.16,0,0,1,11.28,21.91Zm0,.43h0a2.24,2.24,0,0,1-.44-.43l-.26,0A1.54,1.54,0,0,0,11.3,22.34Z"/><path class="cls-8" d="M11.36,21.35a2.13,2.13,0,0,1-1.33.14,1.6,1.6,0,0,0,.69.47,3.25,3.25,0,0,0,1.17-.29A1.08,1.08,0,0,0,11.36,21.35Z"/><path class="cls-9" d="M10.05,21.43l.26,0h0a2.16,2.16,0,0,0,.36,0h0l.22,0H11l.18-.06,0,0,.08,0h0a1,1,0,0,1,.31.14.92.92,0,0,1,.24.21l.05.06-.08,0a3.52,3.52,0,0,1-.68.22h0a2.9,2.9,0,0,1-.46.05h0a1.33,1.33,0,0,1-.36-.17,2.1,2.1,0,0,1-.35-.31l-.11-.14Zm1,0a2.25,2.25,0,0,1,.41.36l.2-.06a2.49,2.49,0,0,0-.47-.35Zm.26-.1h0a2.62,2.62,0,0,1,.46.36l.1,0A1.08,1.08,0,0,0,11.36,21.35Zm.07.49a1.62,1.62,0,0,0-.44-.36l-.2,0a2.42,2.42,0,0,0,.43.37Zm-.73-.31h-.3a2.74,2.74,0,0,0,.47.42l.25,0A2.16,2.16,0,0,1,10.7,21.53Zm0,.43h0a2.19,2.19,0,0,1-.44-.42l-.27,0A1.6,1.6,0,0,0,10.72,22Z"/><path class="cls-8" d="M10.78,21a2.09,2.09,0,0,1-1.33.13,1.5,1.5,0,0,0,.69.47,3.12,3.12,0,0,0,1.16-.27A1,1,0,0,0,10.78,21Z"/><path class="cls-9" d="M9.47,21.05l.26,0h0a1.42,1.42,0,0,0,.36,0h0l.22,0h.06l.17-.06.06,0,.08,0h0a1,1,0,0,1,.31.14,1.19,1.19,0,0,1,.24.21l0,.06-.07,0a3.76,3.76,0,0,1-.68.22h0a2.48,2.48,0,0,1-.47.06h0a1.42,1.42,0,0,1-.36-.18,1.3,1.3,0,0,1-.35-.31L9.3,21Zm1,0a2.25,2.25,0,0,1,.41.36l.2-.06a2.12,2.12,0,0,0-.47-.35Zm.26-.1h0a2.56,2.56,0,0,1,.45.36l.1,0A1,1,0,0,0,10.78,21Zm.07.49a1.62,1.62,0,0,0-.44-.36l-.2,0a2.42,2.42,0,0,0,.43.37Zm-.73-.31a3,3,0,0,1-.3,0,2,2,0,0,0,.47.41l.25,0A1.9,1.9,0,0,1,10.12,21.15Zm0,.42h0a2,2,0,0,1-.44-.42l-.27,0A1.5,1.5,0,0,0,10.14,21.57Z"/><path class="cls-8" d="M10.2,20.59a2.09,2.09,0,0,1-1.33.13,1.45,1.45,0,0,0,.69.47,3.12,3.12,0,0,0,1.16-.27A1,1,0,0,0,10.2,20.59Z"/><path class="cls-9" d="M8.88,20.67l.27,0h0a2,2,0,0,0,.35,0h0l.22,0h.06l.17-.06.06,0,.08,0h0a1,1,0,0,1,.31.14,1.19,1.19,0,0,1,.24.21l.05.06-.08,0a3.76,3.76,0,0,1-.68.22h0a2.48,2.48,0,0,1-.47.06h0a1.57,1.57,0,0,1-.37-.18,1.45,1.45,0,0,1-.34-.31l-.11-.13Zm1.06,0a2.25,2.25,0,0,1,.41.36l.19-.06a1.75,1.75,0,0,0-.47-.35Zm.26-.1h0a2.16,2.16,0,0,1,.45.36l.1,0A1,1,0,0,0,10.2,20.59Zm.07.49a1.62,1.62,0,0,0-.44-.36l-.2,0a2.17,2.17,0,0,0,.43.38Zm-.73-.32a1.48,1.48,0,0,1-.3,0,2.61,2.61,0,0,0,.46.41l.26,0A1.73,1.73,0,0,1,9.54,20.76Zm0,.43h0a1.84,1.84,0,0,1-.45-.43,1.27,1.27,0,0,1-.26,0A1.45,1.45,0,0,0,9.56,21.19Z"/><path class="cls-8" d="M9.62,20.21a2.07,2.07,0,0,1-1.33.12,1.52,1.52,0,0,0,.68.48,3.15,3.15,0,0,0,1.17-.27A.94.94,0,0,0,9.62,20.21Z"/><path class="cls-9" d="M8.31,20.28l.26,0H9l.22,0h.06l.17-.06.06,0,.08,0h0a1,1,0,0,1,.31.14,1.19,1.19,0,0,1,.24.21l.05.06-.08,0a3.63,3.63,0,0,1-.68.21h0a2.57,2.57,0,0,1-.47.06H9a1.57,1.57,0,0,1-.37-.18,1.72,1.72,0,0,1-.34-.32l-.11-.13Zm1,0a2.66,2.66,0,0,1,.41.36l.19-.06a1.75,1.75,0,0,0-.47-.35Zm.26-.1h0a2.16,2.16,0,0,1,.45.36l.1,0A.94.94,0,0,0,9.62,20.21Zm.07.48a2.11,2.11,0,0,0-.44-.36l-.21,0a2.54,2.54,0,0,0,.44.38ZM9,20.38h-.3a2.61,2.61,0,0,0,.46.41l.26,0A1.56,1.56,0,0,1,9,20.38Zm0,.43H9a2.24,2.24,0,0,1-.44-.43,1.32,1.32,0,0,1-.26-.05A1.52,1.52,0,0,0,9,20.81Z"/><path class="cls-8" d="M9.05,19.82A2.13,2.13,0,0,1,7.71,20a1.54,1.54,0,0,0,.69.47,3,3,0,0,0,1.16-.26A1.06,1.06,0,0,0,9.05,19.82Z"/><path class="cls-9" d="M7.73,19.89l.26,0H8a2.1,2.1,0,0,0,.36,0h0l.22,0h.06l.18-.05,0,0,.08,0h0a.79.79,0,0,1,.31.14.92.92,0,0,1,.24.21l.05.06-.08,0a3.63,3.63,0,0,1-.68.21h0a3.07,3.07,0,0,1-.47.05h0A1.57,1.57,0,0,1,8,20.3,1.72,1.72,0,0,1,7.67,20l-.11-.13Zm1,0a2.64,2.64,0,0,1,.41.37l.19-.07a1.89,1.89,0,0,0-.46-.34Zm.27-.1,0,0a2.61,2.61,0,0,1,.45.35l.1,0A1.06,1.06,0,0,0,9.05,19.82Zm.06.49A2.11,2.11,0,0,0,8.67,20l-.2,0a2.13,2.13,0,0,0,.43.38ZM8.38,20h-.3a2.73,2.73,0,0,0,.46.42l.25,0A1.89,1.89,0,0,1,8.38,20Zm0,.43h0A1.64,1.64,0,0,1,8,20l-.27,0A1.54,1.54,0,0,0,8.4,20.42Z"/><path class="cls-8" d="M8.47,19.44a2.15,2.15,0,0,1-1.33.12,1.44,1.44,0,0,0,.68.47A3,3,0,0,0,9,19.77,1.07,1.07,0,0,0,8.47,19.44Z"/><path class="cls-9" d="M7.15,19.5a1.27,1.27,0,0,0,.26,0h.45l.21,0,.06,0,.18,0,.06,0,.08,0h0a.91.91,0,0,1,.3.14,1.19,1.19,0,0,1,.24.21l.05.06-.08,0a2.86,2.86,0,0,1-.68.21h0a3,3,0,0,1-.47.05h0a1.42,1.42,0,0,1-.36-.18,1.73,1.73,0,0,1-.35-.31L7,19.46Zm1.06,0a3.07,3.07,0,0,1,.4.37l.2-.06a1.92,1.92,0,0,0-.47-.35Zm.26-.09h0a3,3,0,0,1,.45.36l.1,0A1.07,1.07,0,0,0,8.47,19.44Zm.06.49a1.84,1.84,0,0,0-.43-.37l-.21,0a2.07,2.07,0,0,0,.43.37Zm-.73-.32a3,3,0,0,1-.3,0A2.73,2.73,0,0,0,8,20l.26,0A1.88,1.88,0,0,1,7.8,19.61Zm0,.42h0a2,2,0,0,1-.44-.43l-.26,0A1.44,1.44,0,0,0,7.82,20Z"/><path class="cls-8" d="M7.89,19.05a2.07,2.07,0,0,1-1.33.12,1.44,1.44,0,0,0,.68.47,3,3,0,0,0,1.17-.26A1,1,0,0,0,7.89,19.05Z"/><path class="cls-9" d="M6.57,19.11l.27.05h0a2.16,2.16,0,0,0,.36,0h0l.22,0,.06,0,.18-.05,0,0,.08,0h0a1.23,1.23,0,0,1,.31.14,1.07,1.07,0,0,1,.24.22l0,.06-.07,0a4.66,4.66,0,0,1-.69.21h0a2,2,0,0,1-.47.05h0a1.63,1.63,0,0,1-.36-.18,1.73,1.73,0,0,1-.35-.31l-.1-.14Zm1.06,0a2.66,2.66,0,0,1,.41.36l.19-.06a1.75,1.75,0,0,0-.47-.35Zm.26-.1h0a2.56,2.56,0,0,1,.45.36l.1,0A1,1,0,0,0,7.89,19.05Zm.06.49a1.84,1.84,0,0,0-.43-.37l-.21,0a2.22,2.22,0,0,0,.44.38Zm-.72-.32a1.5,1.5,0,0,1-.3,0,2.73,2.73,0,0,0,.46.42l.25,0A1.9,1.9,0,0,1,7.23,19.22Zm0,.42h0a2,2,0,0,1-.44-.43l-.26,0A1.44,1.44,0,0,0,7.24,19.64Z"/><path class="cls-8" d="M7.32,18.66A2,2,0,0,1,6,18.77a1.44,1.44,0,0,0,.67.49A3.24,3.24,0,0,0,7.83,19,1,1,0,0,0,7.32,18.66Z"/><path class="cls-9" d="M6,18.72l.26,0h0a2.16,2.16,0,0,0,.36,0h0a1.3,1.3,0,0,0,.22,0H7l.18-.06.06,0,.08,0h0a1.17,1.17,0,0,1,.3.14,1.43,1.43,0,0,1,.24.22l0,.06-.08,0a3.49,3.49,0,0,1-.69.21h0a2,2,0,0,1-.47,0h0a1.21,1.21,0,0,1-.36-.18,1.72,1.72,0,0,1-.34-.32l-.11-.13Zm1,0a2.64,2.64,0,0,1,.41.37l.19-.07a2.24,2.24,0,0,0-.46-.35Zm.27-.1,0,0a2.38,2.38,0,0,1,.44.35l.1,0A1,1,0,0,0,7.32,18.66Zm.06.49a1.88,1.88,0,0,0-.44-.37l-.2,0a2.17,2.17,0,0,0,.43.38Zm-.73-.32a1.5,1.5,0,0,1-.3,0,2.73,2.73,0,0,0,.46.42l.25,0A1.9,1.9,0,0,1,6.65,18.83Zm0,.43h0a2,2,0,0,1-.43-.44A1.19,1.19,0,0,1,6,18.77,1.44,1.44,0,0,0,6.66,19.26Z"/><path class="cls-8" d="M6.74,18.27a2.11,2.11,0,0,1-1.33.11,1.52,1.52,0,0,0,.68.48,3.12,3.12,0,0,0,1.17-.25A1.06,1.06,0,0,0,6.74,18.27Z"/><path class="cls-9" d="M5.43,18.32a1.19,1.19,0,0,0,.26.05h0a1.44,1.44,0,0,0,.36,0h0l.22,0,.06,0,.18-.05,0,0,.08,0h0a1,1,0,0,1,.31.15,1,1,0,0,1,.23.21l0,.06-.07,0a3.7,3.7,0,0,1-.69.21h0a2,2,0,0,1-.47.05h0a1.42,1.42,0,0,1-.36-.18,1.48,1.48,0,0,1-.34-.32l-.11-.14Zm1.05.05a2.13,2.13,0,0,1,.4.37l.2-.06a2,2,0,0,0-.47-.36Zm.26-.1,0,0a2.56,2.56,0,0,1,.45.36l.1,0A1.06,1.06,0,0,0,6.74,18.27Zm.06.49a1.84,1.84,0,0,0-.43-.37l-.21,0a2.5,2.5,0,0,0,.43.38Zm-.72-.33h-.3a2.73,2.73,0,0,0,.45.42l.26,0A1.73,1.73,0,0,1,6.08,18.43Zm0,.43h0a2.24,2.24,0,0,1-.44-.43l-.26-.05A1.52,1.52,0,0,0,6.09,18.86Z"/><path class="cls-8" d="M6.17,17.88a2.07,2.07,0,0,1-1.33.1,1.44,1.44,0,0,0,.67.49,3.15,3.15,0,0,0,1.18-.25A1,1,0,0,0,6.17,17.88Z"/><path class="cls-9" d="M4.85,17.93a1.27,1.27,0,0,0,.26,0h.45l.22,0h0L6,17.88l.06,0,.08,0h0A1.23,1.23,0,0,1,6.5,18a1.62,1.62,0,0,1,.23.22l0,.06-.08,0a2.85,2.85,0,0,1-.69.2H6a3.07,3.07,0,0,1-.47.05h0a1.42,1.42,0,0,1-.36-.18A1.78,1.78,0,0,1,4.79,18l-.1-.13Zm1.06,0a2.5,2.5,0,0,1,.4.38l.2-.07A2.21,2.21,0,0,0,6,17.93Zm.26-.09h0a2.45,2.45,0,0,1,.45.37l.1,0A1,1,0,0,0,6.17,17.88Zm.06.49A1.84,1.84,0,0,0,5.8,18l-.21,0a2.13,2.13,0,0,0,.43.38ZM5.51,18a1.6,1.6,0,0,1-.31,0,2.73,2.73,0,0,0,.46.42l.26,0A1.68,1.68,0,0,1,5.51,18Zm0,.43h0A2.24,2.24,0,0,1,5.1,18,1.32,1.32,0,0,1,4.84,18,1.44,1.44,0,0,0,5.51,18.47Z"/><path class="cls-8" d="M5.6,17.48a2.11,2.11,0,0,1-1.33.11,1.46,1.46,0,0,0,.67.48,3.12,3.12,0,0,0,1.17-.25A1.06,1.06,0,0,0,5.6,17.48Z"/><path class="cls-9" d="M4.28,17.53a1.32,1.32,0,0,0,.26,0h0a2.22,2.22,0,0,0,.36,0H5l.21,0h.06l.18-.05.06,0,.08,0h0a1,1,0,0,1,.31.14,1.16,1.16,0,0,1,.23.22l0,.06-.08,0a4.48,4.48,0,0,1-.69.2h0a2.31,2.31,0,0,1-.47,0h0a1.46,1.46,0,0,1-.36-.19,1.43,1.43,0,0,1-.34-.31l-.11-.14Zm1.06,0a3,3,0,0,1,.4.37l.19-.06a1.7,1.7,0,0,0-.46-.35Zm.26-.1,0,0a2.4,2.4,0,0,1,.44.36l.1,0A1.06,1.06,0,0,0,5.6,17.48Zm.05.49a1.83,1.83,0,0,0-.42-.37l-.21,0a2.5,2.5,0,0,0,.43.38Zm-.72-.32h-.3a2.73,2.73,0,0,0,.46.42l.25,0A1.9,1.9,0,0,1,4.93,17.65Zm0,.42H5a2,2,0,0,1-.43-.43l-.26-.05A1.46,1.46,0,0,0,4.94,18.07Z"/><path class="cls-8" d="M5,17.09a2.08,2.08,0,0,1-1.33.1,1.44,1.44,0,0,0,.67.49,3.12,3.12,0,0,0,1.17-.25A1.06,1.06,0,0,0,5,17.09Z"/><path class="cls-9" d="M3.71,17.13a1.32,1.32,0,0,0,.26.05h.44l.22,0,.06,0,.18-.05.06,0L5,17h0a.94.94,0,0,1,.3.15,1.19,1.19,0,0,1,.24.21l0,.07-.07,0a3,3,0,0,1-.69.2h0a3,3,0,0,1-.47,0h0A1.1,1.1,0,0,1,4,17.55a1.72,1.72,0,0,1-.34-.32l-.11-.14Zm1,.05a3.23,3.23,0,0,1,.41.38l.19-.06a2,2,0,0,0-.46-.36ZM5,17.09H5a2.36,2.36,0,0,1,.44.37l.1,0A1.06,1.06,0,0,0,5,17.09Zm0,.49a1.84,1.84,0,0,0-.43-.37l-.2,0a1.91,1.91,0,0,0,.42.39Zm-.72-.33a1.5,1.5,0,0,1-.3,0,2.39,2.39,0,0,0,.46.42l.25,0A1.52,1.52,0,0,1,4.36,17.25Zm0,.43h0A1.8,1.8,0,0,1,4,17.24l-.26,0A1.44,1.44,0,0,0,4.37,17.68Z"/><path class="cls-8" d="M4.46,16.69a2.07,2.07,0,0,1-1.33.1,1.53,1.53,0,0,0,.67.49A3.21,3.21,0,0,0,5,17,1,1,0,0,0,4.46,16.69Z"/><path class="cls-9" d="M3.14,16.73a1.32,1.32,0,0,0,.26.05h.05a2.16,2.16,0,0,0,.36,0h0l.21,0,.06,0,.18,0,.06,0,.08,0h0a1.17,1.17,0,0,1,.3.14A1.43,1.43,0,0,1,5,17l0,.06-.07,0a4.48,4.48,0,0,1-.69.2h0a3.81,3.81,0,0,1-.47,0h0a1.63,1.63,0,0,1-.7-.51L3,16.69Zm1.05.06a2.13,2.13,0,0,1,.4.37l.2-.06a1.93,1.93,0,0,0-.46-.35Zm.27-.1,0,0a2.32,2.32,0,0,1,.44.37L5,17A1,1,0,0,0,4.46,16.69Zm0,.5a2.09,2.09,0,0,0-.42-.38,1.52,1.52,0,0,1-.21,0,1.91,1.91,0,0,0,.42.39Zm-.72-.34h-.3a3.42,3.42,0,0,0,.45.43l.26,0A1.73,1.73,0,0,1,3.79,16.85Zm0,.43h0a2,2,0,0,1-.43-.44l-.26-.05A1.53,1.53,0,0,0,3.8,17.28Z"/><path class="cls-8" d="M3.89,16.29a2.07,2.07,0,0,1-1.33.1,1.53,1.53,0,0,0,.67.49,3.21,3.21,0,0,0,1.17-.24A1,1,0,0,0,3.89,16.29Z"/><path class="cls-9" d="M2.57,16.33l.26.05h.45l.22,0,0,0h0l.18-.05h.06l.08,0h0a1,1,0,0,1,.31.15,1.31,1.31,0,0,1,.23.21l0,.07-.07,0a3.47,3.47,0,0,1-.69.19h0a3.68,3.68,0,0,1-.47,0h0a1.42,1.42,0,0,1-.36-.18,1.72,1.72,0,0,1-.34-.32l-.1-.14Zm1.06.06a2.37,2.37,0,0,1,.39.37l.2-.05a1.74,1.74,0,0,0-.46-.36Zm.26-.1,0,0a2,2,0,0,1,.44.37l.1,0A1,1,0,0,0,3.89,16.29Zm0,.5a1.67,1.67,0,0,0-.42-.38,1.33,1.33,0,0,1-.21,0,2.16,2.16,0,0,0,.42.39Zm-.72-.34a1.5,1.5,0,0,1-.3,0,3.41,3.41,0,0,0,.46.43l.25,0A1.73,1.73,0,0,1,3.22,16.45Zm0,.43h0a2,2,0,0,1-.43-.44l-.26-.05A1.53,1.53,0,0,0,3.23,16.88Z"/><path class="cls-8" d="M3.33,15.9A2.15,2.15,0,0,1,2,16a1.53,1.53,0,0,0,.67.49,3.21,3.21,0,0,0,1.17-.24A.94.94,0,0,0,3.33,15.9Z"/><path class="cls-9" d="M2,15.93l.26.05h.44l.22,0,.06,0,.18,0,.05,0,.08,0h0a1,1,0,0,1,.31.15.9.9,0,0,1,.23.22l.05.06-.08,0a4.32,4.32,0,0,1-.69.19h0a3.68,3.68,0,0,1-.47,0h0a1.42,1.42,0,0,1-.36-.18A1.77,1.77,0,0,1,1.94,16l-.1-.13ZM3.06,16a2.5,2.5,0,0,1,.4.37l.19-.05A1.87,1.87,0,0,0,3.2,16Zm.27-.09h0a2,2,0,0,1,.44.37l.1,0A.94.94,0,0,0,3.33,15.9Zm0,.49A1.67,1.67,0,0,0,3,16l-.21,0a2.2,2.2,0,0,0,.43.39Zm-.71-.34H2.35a2.73,2.73,0,0,0,.46.42l.25,0A1.69,1.69,0,0,1,2.66,16.05Zm0,.43h0A2.23,2.23,0,0,1,2.25,16L2,16A1.53,1.53,0,0,0,2.66,16.48Z"/></g><g class="cls-2"><polygon class="cls-3" points="39.11 55.96 40.93 54.9 40.93 35.84 39.11 36.9 39.11 55.96"/><polygon class="cls-19" points="38.49 34.43 40.93 35.84 39.11 36.9 36.66 35.49 38.49 34.43"/><polygon class="cls-5" points="36.66 35.49 39.11 36.9 39.11 55.96 36.66 54.55 36.66 35.49"/></g></g></g></g></g></svg>