<svg xmlns="http://www.w3.org/2000/svg" viewBox="0 0 47.06 69.49"><defs><style>.cls-1{isolation:isolate;}.cls-2{mix-blend-mode:multiply;}.cls-3{fill:#fff;opacity:0;}.cls-4{fill:#f7f7f7;opacity:0.06;}.cls-5{fill:#efefef;opacity:0.13;}.cls-6{fill:#e7e7e7;opacity:0.19;}.cls-7{fill:#dfdfdf;opacity:0.25;}.cls-8{fill:#d7d7d7;opacity:0.31;}.cls-9{fill:#cfcfcf;opacity:0.38;}.cls-10{fill:#c7c7c7;opacity:0.44;}.cls-11{fill:#bfbfbf;opacity:0.5;}.cls-12{fill:#b7b7b7;opacity:0.56;}.cls-13{fill:#afafaf;opacity:0.63;}.cls-14{fill:#a7a7a7;opacity:0.69;}.cls-15{fill:#9f9f9f;opacity:0.75;}.cls-16{fill:#979797;opacity:0.81;}.cls-17{fill:#8f8f8f;opacity:0.88;}.cls-18{fill:#878787;opacity:0.94;}.cls-19{fill:#7f7f7f;}.cls-20{fill:#956f50;}.cls-21{fill:#69472a;}.cls-22{fill:#a56c41;}.cls-23{fill:#a06b43;}.cls-24{fill:#469cc6;}.cls-25{fill:#d39b6c;}.cls-26,.cls-27{fill:#854e30;}.cls-26{opacity:0.48;}.cls-28{fill:#c49a79;}.cls-29{fill:#3f2723;}.cls-30{fill:#543b34;}</style></defs><title>brønn_01</title><g class="cls-1"><g id="Layer_2" data-name="Layer 2"><g id="Layer_1-2" data-name="Layer 1"><g id="Well"><g class="cls-2"><path class="cls-3" d="M21,51.08c-8.84,0-16,4.12-16,9.21s7.17,9.2,16,9.2,16-4.12,16-9.2S29.89,51.08,21,51.08Z"/><path class="cls-4" d="M21.41,50.88c-8.85,0-16,4.12-16,9.2s7.17,9.21,16,9.21,16-4.12,16-9.21S30.26,50.88,21.41,50.88Z"/><path class="cls-5" d="M21.78,50.67c-8.85,0-16,4.12-16,9.2s7.17,9.21,16,9.21,16-4.12,16-9.21S30.63,50.67,21.78,50.67Z"/><path class="cls-6" d="M22.15,50.46c-8.85,0-16,4.12-16,9.21s7.17,9.2,16,9.2,16-4.12,16-9.2S31,50.46,22.15,50.46Z"/><path class="cls-7" d="M22.52,50.26c-8.85,0-16,4.12-16,9.2s7.17,9.21,16,9.21,16-4.12,16-9.21S31.36,50.26,22.52,50.26Z"/><path class="cls-8" d="M22.89,50.05c-8.85,0-16,4.12-16,9.2s7.17,9.21,16,9.21,16-4.12,16-9.21S31.73,50.05,22.89,50.05Z"/><path class="cls-9" d="M23.25,49.84c-8.84,0-16,4.12-16,9.21s7.18,9.2,16,9.2,16-4.12,16-9.2S32.1,49.84,23.25,49.84Z"/><path class="cls-10" d="M23.62,49.64c-8.85,0-16,4.12-16,9.2s7.17,9.21,16,9.21,16-4.12,16-9.21S32.47,49.64,23.62,49.64Z"/><path class="cls-11" d="M24,49.43c-8.85,0-16,4.12-16,9.2s7.17,9.21,16,9.21,16-4.12,16-9.21S32.84,49.43,24,49.43Z"/><path class="cls-12" d="M24.36,49.22c-8.85,0-16,4.12-16,9.21s7.17,9.2,16,9.2,16-4.12,16-9.2S33.2,49.22,24.36,49.22Z"/><path class="cls-13" d="M24.73,49c-8.85,0-16,4.12-16,9.2s7.17,9.21,16,9.21,16-4.12,16-9.21S33.57,49,24.73,49Z"/><path class="cls-14" d="M25.09,48.81c-8.84,0-16,4.12-16,9.2s7.17,9.21,16,9.21,16-4.12,16-9.21S33.94,48.81,25.09,48.81Z"/><path class="cls-15" d="M25.46,48.6c-8.85,0-16,4.12-16,9.21s7.17,9.2,16,9.2,16-4.12,16-9.2S34.31,48.6,25.46,48.6Z"/><path class="cls-16" d="M25.83,48.4c-8.85,0-16,4.12-16,9.2s7.17,9.21,16,9.21,16-4.13,16-9.21S34.68,48.4,25.83,48.4Z"/><path class="cls-17" d="M26.2,48.19c-8.85,0-16,4.12-16,9.2s7.17,9.21,16,9.21,16-4.12,16-9.21S35,48.19,26.2,48.19Z"/><path class="cls-18" d="M26.57,48c-8.85,0-16,4.12-16,9.21s7.17,9.2,16,9.2,16-4.12,16-9.2S35.41,48,26.57,48Z"/><path class="cls-19" d="M26.93,47.77c-8.84,0-16,4.13-16,9.21s7.17,9.21,16,9.21S43,62.06,43,57,35.78,47.77,26.93,47.77Z"/></g><polygon class="cls-20" points="36.6 45.29 36.65 9.06 41.86 6.04 41.86 48.29 36.6 45.29"/><polygon class="cls-21" points="41.86 48.29 47.06 45.29 47.06 3.02 41.86 6.04 41.86 48.29"/><g id="Well-2" data-name="Well"><ellipse class="cls-22" cx="26.21" cy="35.53" rx="14.22" ry="8.21"/><path class="cls-23" d="M44.05,54.74V35l-35.69.54V54.74c-.54,3.12,1.18,6.37,5.14,8.75,7,4.19,18.42,4.19,25.41,0C42.88,61.11,44.59,57.86,44.05,54.74Z"/><path id="vann" class="cls-24" d="M35.74,42.36c-5,2.87-13.24,2.87-18.27,0s-5.42-3.06-.4-5.92,13.25-2.86,18.27,0S40.76,39.5,35.74,42.36Z"/><path id="ringen" class="cls-25" d="M38.91,28.2c-7-4-18.42-4-25.41,0s-7,10.63,0,14.67,18.42,4,25.41,0S45.9,32.23,38.91,28.2ZM36.23,41.32c-5.51,3.18-14.53,3.18-20,0s-5.51-8.39,0-11.57,14.53-3.18,20,0S41.74,38.14,36.23,41.32Z"/><path class="cls-26" d="M32.85,56.13a24.23,24.23,0,0,0,5.06-1.67v4a22.16,22.16,0,0,1-5.06,1.75Z"/><path class="cls-26" d="M26.87,56.8a31.21,31.21,0,0,0,5.06-.48v4.13a29.12,29.12,0,0,1-5.06.5Z"/><path class="cls-27" d="M32.85,46a24.23,24.23,0,0,0,5.06-1.67v4a22.16,22.16,0,0,1-5.06,1.75Z"/><path class="cls-27" d="M26,61a28.93,28.93,0,0,1-5.06-.5V56.32A31.1,31.1,0,0,0,26,56.8Z"/><path class="cls-26" d="M20,60.26a22,22,0,0,1-5.06-1.75v-4A23.47,23.47,0,0,0,20,56.13Z"/><path class="cls-27" d="M26,55.88a31,31,0,0,1-5.06-.5V51.24a30,30,0,0,0,5.06.48Z"/><path class="cls-26" d="M26.87,46.65a31.21,31.21,0,0,0,5.06-.49V50.3a29.12,29.12,0,0,1-5.06.5Z"/><path class="cls-27" d="M26.87,51.72a30.13,30.13,0,0,0,5.06-.48v4.14a31.21,31.21,0,0,1-5.06.5Z"/><path class="cls-27" d="M20,55.19a23,23,0,0,1-5.06-1.75V49.38A23.48,23.48,0,0,0,20,51.06Z"/><path class="cls-26" d="M26,50.8a28.93,28.93,0,0,1-5.06-.5V46.16a31.1,31.1,0,0,0,5.06.49Z"/><path class="cls-27" d="M20,50.11a22,22,0,0,1-5.06-1.75v-4A24,24,0,0,0,20,46Z"/><path class="cls-27" d="M32.85,51.06a23.66,23.66,0,0,0,5.06-1.68v4.06a23.16,23.16,0,0,1-5.06,1.75Z"/><path class="cls-27" d="M38.83,54l.51-.28a11.87,11.87,0,0,0,4.55-4.3v1.64c0,2.61-1.78,5.07-5,6.93l-.05,0Z"/><path class="cls-27" d="M32.85,61.21a24.23,24.23,0,0,0,5.06-1.67v4.05a22.65,22.65,0,0,1-5.06,1.75Z"/><path class="cls-27" d="M38.83,48.92l.51-.28a11.8,11.8,0,0,0,4.55-4.3V46c0,2.61-1.78,5.07-5,6.94l-.05,0Z"/><path class="cls-26" d="M38.83,59.07c.18-.09.35-.18.51-.28a11.73,11.73,0,0,0,4.55-4.3v1.64c0,2.61-1.78,5.07-5,6.94l-.05,0Z"/><path class="cls-26" d="M38.83,43.85l.51-.29a11.73,11.73,0,0,0,4.55-4.3v1.65c0,2.6-1.78,5.07-5,6.93l-.05,0Z"/><path class="cls-26" d="M13.94,52.92c-3.23-1.87-5-4.33-5-6.94V44.34a11.83,11.83,0,0,0,4.54,4.3l.51.28v4Z"/><path class="cls-27" d="M13.94,47.84c-3.23-1.86-5-4.33-5-6.93V39.26a11.76,11.76,0,0,0,4.54,4.3l.51.29v4Z"/><path class="cls-27" d="M13.94,58c-3.23-1.86-5-4.32-5-6.93V49.42a11.91,11.91,0,0,0,4.54,4.3L14,54v4Z"/><path class="cls-27" d="M26.87,61.88a31.21,31.21,0,0,0,5.06-.49v4.14a30.13,30.13,0,0,1-5.06.5Z"/><path class="cls-27" d="M26,66a29.92,29.92,0,0,1-5.06-.5V61.39a31.1,31.1,0,0,0,5.06.49Z"/><path class="cls-26" d="M13.94,63.07c-3.23-1.87-5-4.33-5-6.94V54.49a11.76,11.76,0,0,0,4.54,4.3l.51.28v4Z"/><path class="cls-26" d="M20,65.34a22.47,22.47,0,0,1-5.06-1.75V59.54A24,24,0,0,0,20,61.21Z"/></g><polygon class="cls-21" points="5.23 69.33 5.23 27.29 10.46 24.27 10.46 66.54 5.23 69.33"/><polygon class="cls-20" points="5.23 69.33 0 66.42 0.2 24.27 5.23 27.29 5.23 69.33"/><polyline class="cls-28" points="0.2 24.27 41.83 0 47.06 3.02 5.23 27.29"/><polygon class="cls-21" points="10.46 30.19 41.86 12.06 41.86 6.04 10.46 24.27 10.46 30.19"/><g id="Bøtte"><path class="cls-29" d="M29.56,39l1.13-7.94h-9.5l1.13,8a1.7,1.7,0,0,0,1.05,1.71,5.72,5.72,0,0,0,5.16,0A1.68,1.68,0,0,0,29.56,39Z"/><ellipse class="cls-30" cx="25.95" cy="31.07" rx="4.78" ry="2.76"/><ellipse class="cls-29" cx="25.95" cy="31.07" rx="3.54" ry="2.04"/><g id="Planks"><polygon class="cls-29" points="23.06 33.22 23.06 27.18 23.95 26.75 23.99 32.77 23.06 33.22"/><polygon class="cls-30" points="23.06 33.27 22.58 32.99 22.16 32.76 22.21 26.75 23.06 27.18 23.06 33.27"/><polyline class="cls-30" points="22.21 26.75 29.29 23.26 30.17 23.69 23.06 27.18"/><polygon class="cls-30" points="28.51 29.61 28.41 24.56 29.29 24.13 29.29 30.36 28.96 29.95 28.51 29.61"/><polygon class="cls-29" points="29.29 30.36 30.17 29.82 30.17 23.69 29.29 24.13 29.29 30.36"/><polygon class="cls-29" points="23.95 27.6 29.29 24.99 29.29 24.13 23.95 26.75 23.95 27.6"/></g></g><polygon class="cls-28" points="26.41 25.54 26.41 20.98 25.61 21.44 25.61 25.93 26.41 25.54"/><polygon class="cls-20" points="25.61 25.93 24.78 25.48 24.78 21.92 25.61 21.44 25.61 25.93"/></g></g></g></g></svg>