<svg xmlns="http://www.w3.org/2000/svg" xmlns:xlink="http://www.w3.org/1999/xlink" viewBox="0 0 79.78 62.81"><defs><style>.cls-1{mask:url(#mask);filter:url(#luminosity-noclip-2);}.cls-16,.cls-17,.cls-2,.cls-20{mix-blend-mode:multiply;}.cls-2{fill:url(#linear-gradient);}.cls-3{isolation:isolate;}.cls-4{fill:#94602c;opacity:0.29;}.cls-5{fill:#e6d79e;}.cls-6{fill:#f5e5a8;}.cls-7{fill:url(#linear-gradient-2);}.cls-8{fill:#aa8040;}.cls-9{fill:url(#linear-gradient-3);}.cls-10{fill:url(#linear-gradient-4);}.cls-11{fill:url(#linear-gradient-5);}.cls-12{fill:#aa6e33;}.cls-13{fill:#bb7938;}.cls-14{fill:#c7ba89;}.cls-15{fill:#9e773b;}.cls-16{fill:#bdb0aa;}.cls-17{fill:#a1a4a8;}.cls-18{fill:url(#linear-gradient-6);}.cls-19{mask:url(#mask-2);}.cls-20{fill:url(#linear-gradient-7);}.cls-21{fill:url(#linear-gradient-8);}.cls-22{fill:url(#linear-gradient-9);}.cls-23{filter:url(#luminosity-noclip);}</style><filter id="luminosity-noclip" x="56.34" y="-8486.78" width="8.09" height="32766" filterUnits="userSpaceOnUse" color-interpolation-filters="sRGB"><feFlood flood-color="#fff" result="bg"/><feBlend in="SourceGraphic" in2="bg"/></filter><mask id="mask" x="56.34" y="-8486.78" width="8.09" height="32766" maskUnits="userSpaceOnUse"><g class="cls-23"/></mask><linearGradient id="linear-gradient" x1="-1770.26" y1="26" x2="-1773.96" y2="49.58" gradientTransform="matrix(-1, 0, 0, 1, -1714.37, 0)" gradientUnits="userSpaceOnUse"><stop offset="0" stop-color="gray"/><stop offset="1"/></linearGradient><linearGradient id="linear-gradient-2" x1="-1745.26" y1="10.09" x2="-1754.57" y2="29.33" gradientTransform="matrix(-1, 0, 0, 1, -1714.37, 0)" gradientUnits="userSpaceOnUse"><stop offset="0" stop-color="#bf9048"/><stop offset="1" stop-color="#c7ba89"/></linearGradient><linearGradient id="linear-gradient-3" x1="-1723.43" y1="36.82" x2="-1727.5" y2="46.82" gradientTransform="matrix(-1, 0, 0, 1, -1714.37, 0)" gradientUnits="userSpaceOnUse"><stop offset="0" stop-color="#e6d79e"/><stop offset="1" stop-color="#c7ba89"/></linearGradient><linearGradient id="linear-gradient-4" x1="-1739.04" y1="34.52" x2="-1789" y2="1.41" xlink:href="#linear-gradient-3"/><linearGradient id="linear-gradient-5" x1="-1771.32" y1="3.58" x2="-1789.31" y2="12.79" xlink:href="#linear-gradient-3"/><linearGradient id="linear-gradient-6" x1="-1738.4" y1="33.55" x2="-1788.36" y2="0.44" xlink:href="#linear-gradient-3"/><filter id="luminosity-noclip-2" x="56.34" y="26.65" width="8.09" height="33.23" filterUnits="userSpaceOnUse" color-interpolation-filters="sRGB"><feFlood flood-color="#fff" result="bg"/><feBlend in="SourceGraphic" in2="bg"/></filter><mask id="mask-2" x="56.34" y="26.65" width="8.09" height="33.23" maskUnits="userSpaceOnUse"><g class="cls-1"><path class="cls-2" d="M57.07,40.41l0,0,.22-.06h.17l0,0a.54.54,0,0,1,.21,0l.32.13L56.43,26.78l1.43-.13L59.6,41.18l.88.38a2.24,2.24,0,0,1,1.18,1.51l2.76,15.6a1,1,0,0,1,0,.24V59s0,.07,0,.11a0,0,0,0,1,0,0,.51.51,0,0,1-.16.27l0,0c-.13.11-.29.22-.44.33a.73.73,0,0,1-.77.06l-4.59-2a2.18,2.18,0,0,1-1.2-1.67l-.88-14.79a.67.67,0,0,1,.18-.57A2.78,2.78,0,0,1,57.07,40.41Z"/></g></mask><linearGradient id="linear-gradient-7" x1="-1770.26" y1="26" x2="-1773.96" y2="49.58" gradientTransform="matrix(-1, 0, 0, 1, -1714.37, 0)" gradientUnits="userSpaceOnUse"><stop offset="0" stop-color="#006561"/><stop offset="1" stop-color="#00ada7"/></linearGradient><linearGradient id="linear-gradient-8" x1="-743.84" y1="-1142.3" x2="-756.4" y2="-1135.87" gradientTransform="matrix(-0.57, -0.73, -0.91, 0.13, -1458.42, -380.74)" gradientUnits="userSpaceOnUse"><stop offset="0" stop-color="#d0c38f"/><stop offset="1" stop-color="#b1a67a"/></linearGradient><linearGradient id="linear-gradient-9" x1="681.51" y1="81.02" x2="668.95" y2="87.45" gradientTransform="matrix(0.92, 0, 0.46, 0.8, -594.53, -22.91)" xlink:href="#linear-gradient-8"/></defs><title>båt_01</title><g class="cls-3"><g id="Layer_2" data-name="Layer 2"><g id="Layer_1-2" data-name="Layer 1"><path class="cls-4" d="M75.16,20.18,76,29.24S43.56,61.13,25.5,62.57c-14,1.12-19.31-2-19.31-2l.67-7.88Z"/><path class="cls-5" d="M1.45,45.22a35.86,35.86,0,0,0,5.28.71c10.05.72,23.33-1.58,33.2-7.28L79.78,10.37,61.83,0l-49,23C1.11,29.78-2.3,39.32,1.45,45.22Z"/><path class="cls-6" d="M2,40.82a14.27,14.27,0,0,1,2.33-6.53,28,28,0,0,1,9.82-8.9l4.59-2.15,6.5-3.06,11.52-5.41,6.5-3L56.69,5.4l5-2.35L76,11.3l1.21-.86L61.69,1.49l-5,2.34L43.24,10.16l-6.5,3.05L25.22,18.62l-6.5,3.05-4.59,2.16a27.9,27.9,0,0,0-9.82,8.9A13.34,13.34,0,0,0,2,40.82Z"/><path class="cls-7" d="M2,40.82C2,40.89,2,41,2,41a8.69,8.69,0,0,0,1,3.34,36.14,36.14,0,0,0,3.89.46A58.66,58.66,0,0,0,21.15,44c.65-.11,1.29-.24,1.93-.38A53,53,0,0,0,38.51,37.9L41,36.11l1.21-.86,4.07-2.89,1.21-.86,6.74-4.79,1.42-1,1.21-.86L61,22l1.2-.86L76,11.3,61.69,3.05l-5,2.35L43.24,11.72l-6.5,3L25.22,20.18l-6.5,3.06-4.59,2.15a28.15,28.15,0,0,0-9.79,8.85c-.12.18-.23.37-.33.54s-.15.28-.23.41l-.25.48A13.22,13.22,0,0,0,2,40.82Z"/><path class="cls-8" d="M6.86,44.81a59.7,59.7,0,0,0,16.22-1.24,57.81,57.81,0,0,0,8.69-2.51,49.07,49.07,0,0,0,6-2.73l0,0c.24-.13.49-.26.74-.41l1.11-.79,1.42-1,1.21-.86,4.07-2.89,1.21-.86,8.16-5.79,1.21-.86L61,22l1.2-.86,6.49-4.6-8.28-4.78C49.53,16.6,6.86,34.24,6.86,44.81Z"/><path class="cls-9" d="M2,41a8.69,8.69,0,0,0,1,3.34,36.14,36.14,0,0,0,3.89.46A58.66,58.66,0,0,0,21.15,44L4.34,34.24c-.12.18-.23.37-.33.54s-.15.28-.23.41l-.25.48A13.21,13.21,0,0,0,2,41Z"/><polygon class="cls-10" points="36.73 14.78 55.69 25.71 56.89 24.85 60.97 21.96 43.24 11.71 36.73 14.78"/><path class="cls-11" d="M56.69,5.4l15.22,8.79L76,11.31,61.69,3.05Z"/><path class="cls-12" d="M1.45,45.22l3.89,5.31c.74,1,1.35,1.87,1.52,2.15,19.37,5.67,42-8.64,68.3-32.5,3-6.4,2-4.16,4.62-9.81L39.93,38.65c-9.87,5.7-23.15,8-33.2,7.28A35.86,35.86,0,0,1,1.45,45.22Z"/><path class="cls-13" d="M1.45,45.22s1.68,2.28,3.17,4.33c.25.34.5.67.72,1C26.06,54.76,50,39.71,77.61,15l2.17-4.6L39.93,38.65c-9.87,5.7-23.15,8-33.2,7.28A35.86,35.86,0,0,1,1.45,45.22Z"/><path class="cls-12" d="M1.45,45.22s1.68,2.28,3.17,4.33C26.22,52,50.85,36.88,78.83,12.37l1-2L39.93,38.65c-9.87,5.7-23.15,8-33.2,7.28A35.86,35.86,0,0,1,1.45,45.22Z"/><polygon class="cls-14" points="18.72 23.23 18.72 25.06 24.66 28.5 39.62 37.11 41.04 36.11 26.41 27.67 18.72 23.23"/><polygon class="cls-14" points="36.74 14.77 36.74 16.6 42.68 20.03 54.27 26.71 55.69 25.71 44.43 19.21 36.74 14.77"/><polygon class="cls-14" points="56.69 5.4 56.69 7.22 62.63 10.66 70.5 15.19 71.91 14.18 64.38 9.83 56.69 5.4"/><polygon class="cls-15" points="60.39 11.71 60.97 9.7 70.5 15.19 68.67 16.49 60.39 11.71"/><path class="cls-16" d="M18.6,31.34A7.41,7.41,0,0,0,21,34.17a119.37,119.37,0,0,0,10.81,6.89,49.07,49.07,0,0,0,6-2.73l0,0s-8.91-5-11.56-6.81-1.66-2.87-1.56-3h0l-5.94-3.44A8,8,0,0,0,18.6,31.34Z"/><path class="cls-17" d="M64.87,19.18a19.33,19.33,0,0,1-6.39-6.57,13,13,0,0,1-1.79-5.39l13.8,8Z"/><polygon class="cls-18" points="18.72 23.24 41.03 36.11 42.24 35.26 46.31 32.37 25.22 20.18 18.72 23.24"/><path class="cls-16" d="M38.09,27h0l2.36-.21c-.51-.33-1-.69-1.52-1.07C34.06,22,36.74,16.6,36.74,16.6L42.68,20s-1.11,1.21,1.55,3c1.23.84,3.05,2,4.65,3l7.78-.7.09,1.44-5.86.52,1.36.85L48.5,30.81A40.88,40.88,0,0,1,42.57,28l-3.14.28s-1.71-.83-1.58-1.11A.35.35,0,0,1,38.09,27Z"/><g class="cls-19"><path class="cls-20" d="M57.07,40.41l0,0,.22-.06h.17l0,0a.54.54,0,0,1,.21,0l.32.13L56.43,26.78l1.43-.13L59.6,41.18l.88.38a2.24,2.24,0,0,1,1.18,1.51l2.76,15.6a1,1,0,0,1,0,.24V59s0,.07,0,.11a0,0,0,0,1,0,0,.51.51,0,0,1-.16.27l0,0c-.62.55-.89.53-1.21.39-3.24-1.39-5.69-1.87-5.79-3.63l-.88-14.79a.67.67,0,0,1,.18-.57A2.78,2.78,0,0,1,57.07,40.41Z"/></g><path class="cls-21" d="M1.05,14.58l3.09,3.93a2.15,2.15,0,0,0,1.92.73l14.51-3a.68.68,0,0,0,.51-.33c.1-.2.42-.8.21-1.07l-2.18-2a2.27,2.27,0,0,0-1.78-.75L1.48,13c-.32,0-.42.45-.56.82A.72.72,0,0,0,1.05,14.58Z"/><path class="cls-5" d="M1.28,14l3.09,3.93a2.15,2.15,0,0,0,1.92.73l14.51-3c.58-.12.73-.58.36-1l-1.83-2.33a2.23,2.23,0,0,0-1.77-.75L1.78,12.93C1.1,13,.87,13.49,1.28,14Z"/><path class="cls-6" d="M10,14.5,52.82,8.37h0a.32.32,0,0,1,.28.14,1.14,1.14,0,0,1,.12,1,.41.41,0,0,1-.23.25H53l-42.6,6.09A.74.74,0,0,1,10,14.5Z"/><path class="cls-22" d="M74.94,53.19h-5a2.17,2.17,0,0,1-1.75-1.06L61.58,38.85a.7.7,0,0,1,0-.59c.1-.21.37-.83.71-.83l2.91.5a2.22,2.22,0,0,1,1.68.93l9.09,13c.17.27-.09.61-.3.95A.73.73,0,0,1,74.94,53.19Z"/><path class="cls-5" d="M75.25,52.66h-5a2.2,2.2,0,0,1-1.76-1.06l-6.6-13.27c-.26-.52,0-.93.61-.92h3a2.22,2.22,0,0,1,1.68.93L75.79,51.6C76.16,52.18,75.92,52.66,75.25,52.66Z"/><path class="cls-6" d="M69.52,46.13,47.94,8.59v0h0a.3.3,0,0,0-.28-.13,1.14,1.14,0,0,0-.88.53.44.44,0,0,0-.06.34h0a.08.08,0,0,0,0,0L68.17,46.66A.74.74,0,0,0,69.52,46.13Z"/><polygon class="cls-17" points="40.23 11.57 31.91 14.05 35.69 12.27 40.23 11.57"/><path class="cls-17" d="M21.36,15.4l12-2-2.42,1.14L19.2,16.6S20.86,16.55,21.36,15.4Z"/></g></g></g></svg>