<svg xmlns="http://www.w3.org/2000/svg" viewBox="0 0 52.65 38.11"><defs><style>.cls-1{fill:#009c96;}.cls-2{fill:#757378;}.cls-3{fill:#575659;}.cls-4{fill:#606467;}.cls-5{fill:#a67458;}.cls-6{fill:#cbbb93;}.cls-7{fill:#b65359;}.cls-8{fill:#93674e;}</style></defs><title>fiskestang_01</title><g id="Layer_2" data-name="Layer 2"><g id="Layer_1-2" data-name="Layer 1"><path class="cls-1" d="M37.61,36.63C35.93,35.66,35,34.35,35,33s.93-2.7,2.61-3.68h0a13.79,13.79,0,0,1,12.42,0c1.69,1,2.62,2.28,2.62,3.68s-.93,2.7-2.62,3.67a12.67,12.67,0,0,1-6.21,1.48A12.7,12.7,0,0,1,37.61,36.63Zm.16-7.08c-1.59.92-2.46,2.13-2.46,3.41s.87,2.48,2.46,3.4a13.39,13.39,0,0,0,12.11,0c1.58-.92,2.46-2.12,2.46-3.4s-.88-2.49-2.46-3.41a12.45,12.45,0,0,0-6.06-1.44A12.41,12.41,0,0,0,37.77,29.55Z"/><path class="cls-1" d="M39.27,35.68c-1.85-1.07-2.45-2.47-1.66-3.84,1.34-2.31,6.69-3.95,10.77-1.6A3.3,3.3,0,0,1,50.31,33a3.31,3.31,0,0,1-1.93,2.72,10.15,10.15,0,0,1-9.11,0ZM37.88,32c-.7,1.22-.15,2.42,1.55,3.4h0a9.66,9.66,0,0,0,8.79,0A3,3,0,0,0,50,33a3,3,0,0,0-1.78-2.45,8.56,8.56,0,0,0-4.31-1.11C41.2,29.4,38.71,30.56,37.88,32Z"/><path class="cls-1" d="M41.71,34.26c-1.25-.72-1-1.53-.78-1.85.62-1.08,3-1.89,5-.76,1.26.72,1,1.54.78,1.85a3.48,3.48,0,0,1-2.92,1.31A4.11,4.11,0,0,1,41.71,34.26Zm-.51-1.69c-.29.5-.05,1,.67,1.42h0c1.74,1,4,.33,4.57-.64.29-.51.06-1-.67-1.43a3.79,3.79,0,0,0-1.91-.5A3.18,3.18,0,0,0,41.2,32.57Z"/><path class="cls-2" d="M0,0,.1.41l.21.84c1.9,0,3.76.08,5.61.18h0c13.43.75,25.27,3.62,37.77,6.92l.2-.26C26.66,3,14.71.71,0,0Z"/><path class="cls-3" d="M.1.41l.21.84,5.61.18h0c11.52.65,22.12,2.87,33.61,5.83C24.6,3.09,13.49,1.09.1.41Z"/><path class="cls-4" d="M43.82,32.84h0a.15.15,0,0,0,.11-.19S42.51,27.29,45,23.88,44.12,8.68,44,8.18a.15.15,0,0,0-.19-.1.15.15,0,0,0-.11.19c0,.12,3.61,12,1.1,15.43s-1.11,9-1.1,9A.16.16,0,0,0,43.82,32.84Z"/><path class="cls-5" d="M14.92,8.71c-.17.37-.15.69.47.64a2.39,2.39,0,0,0,.51-.09c.67-2.62-1.11-5.51.6-6.82l-1-.11-.4-.05L15,1.88l0-.14s0,.06,0,.09A15,15,0,0,0,14.92,8.71Z"/><path class="cls-6" d="M42.27,30.64a1.21,1.21,0,1,0,1.2-1.43A1.21,1.21,0,0,0,42.27,30.64Z"/><path class="cls-7" d="M42.25,30.44a.65.65,0,0,0,0,.2,2.74,2.74,0,0,0,2.39,0,.44.44,0,0,0,0-.2,1.22,1.22,0,1,0-2.44,0Z"/><path class="cls-8" d="M14.92,8.71c-.17.37-.15.69.47.64a17.39,17.39,0,0,0-.23-3.8c-.35-2.55.31-3.22.31-3.22L15,1.88l-.06,0A15,15,0,0,0,14.92,8.71Z"/></g></g></svg>