<svg xmlns="http://www.w3.org/2000/svg" xmlns:xlink="http://www.w3.org/1999/xlink" viewBox="0 0 54.57 13.08"><defs><style>.cls-1{isolation:isolate;}.cls-2{fill:#3c34a0;}.cls-3{opacity:0.7;mix-blend-mode:overlay;fill:url(#linear-gradient);}</style><linearGradient id="linear-gradient" y1="6.54" x2="54.57" y2="6.54" gradientUnits="userSpaceOnUse"><stop offset="0" stop-color="#4c4c4c"/><stop offset="0.05" stop-color="#6e6e6e"/><stop offset="0.18" stop-color="#bcbcbc"/><stop offset="0.28" stop-color="#ececec"/><stop offset="0.32" stop-color="#fff"/><stop offset="0.38" stop-color="#cacaca"/><stop offset="0.47" stop-color="#868686"/><stop offset="0.53" stop-color="#5c5c5c"/><stop offset="0.56" stop-color="#4c4c4c"/><stop offset="0.62" stop-color="#616161"/><stop offset="0.76" stop-color="#979797"/><stop offset="0.94" stop-color="#e8e8e8"/><stop offset="0.97" stop-color="#e6e6e6"/><stop offset="0.98" stop-color="#dfdfdf"/><stop offset="0.98" stop-color="#d4d4d4"/><stop offset="0.99" stop-color="#c3c3c3"/><stop offset="0.99" stop-color="#adadad"/><stop offset="0.99" stop-color="#919191"/><stop offset="1" stop-color="#727272"/><stop offset="1" stop-color="#4e4e4e"/><stop offset="1" stop-color="#4c4c4c"/></linearGradient></defs><title>flagg_01</title><g class="cls-1"><g id="Layer_2" data-name="Layer 2"><g id="Layer_1-2" data-name="Layer 1"><path class="cls-2" d="M0,3.22A7.21,7.21,0,0,0,6.15,6.38c4.31,0,4.5-5.16,9.36-5.16,5.71,0,6.07,5.16,10.63,5.16S30.75,0,36.4,0c3.22,0,5.65,2.91,10.15,2.79a17.33,17.33,0,0,0,8-2.37s-3.06,5.57-7.72,6c-5.77.49-4.3-2.12-10.2-1.28-3.4.49-4,6.62-10.45,6.5S21,8.63,16,8.63c-4.07,0-4,4.25-9.41,4.43S0,12,0,12Z"/><path class="cls-3" d="M0,3.22A7.21,7.21,0,0,0,6.15,6.38c4.31,0,4.5-5.16,9.36-5.16,5.71,0,6.07,5.16,10.63,5.16S30.75,0,36.4,0c3.22,0,5.65,2.91,10.15,2.79a17.33,17.33,0,0,0,8-2.37s-3.06,5.57-7.72,6c-5.77.49-4.3-2.12-10.2-1.28-3.4.49-4,6.62-10.45,6.5S21,8.63,16,8.63c-4.07,0-4,4.25-9.41,4.43S0,12,0,12Z"/></g></g></g></svg>