<svg xmlns="http://www.w3.org/2000/svg" viewBox="0 0 13.94 46.37"><defs><style>.cls-1{fill:#4f7200;}.cls-2{fill:#699800;}</style></defs><title>gress_01</title><g id="Layer_2" data-name="Layer 2"><g id="Layer_1-2" data-name="Layer 1"><path class="cls-1" d="M6.33,0,11,34.49a4.51,4.51,0,0,1-4.12,5.1h0Z"/><path class="cls-2" d="M1.54,15l9.74,27.62a2.22,2.22,0,0,1-1.51,2.88h0A2.22,2.22,0,0,1,7,43.73Z"/><path class="cls-1" d="M0,17.84,6.48,42.6h0a4.37,4.37,0,0,1-5.06-4Z"/><path class="cls-1" d="M7.5,24.94l.3,18.9a2.1,2.1,0,0,1-1.73,2.5h0a2.11,2.11,0,0,1-2.45-2.16Z"/><path class="cls-2" d="M12.62,7.33,13.94,39a2.24,2.24,0,0,1-2.29,2.33h0A2.23,2.23,0,0,1,9.5,38.83Z"/></g></g></svg>