<svg xmlns="http://www.w3.org/2000/svg" xmlns:xlink="http://www.w3.org/1999/xlink" viewBox="0 0 65.58 72.51"><defs><style>.cls-1{fill:#8d5c3e;}.cls-2{isolation:isolate;}.cls-3{fill:#9d6c4e;}.cls-4{fill:#3e1d0b;}.cls-5{fill:#3a1c0a;}.cls-6{fill:#57290f;}.cls-7{fill:#7d8788;}.cls-8{fill:#172020;}.cls-9{fill:#172021;}.cls-10{fill:#141c1d;}.cls-11{fill:#253435;}.cls-12{fill:#63412c;}.cls-13{fill:#707979;}.cls-14{clip-path:url(#clip-path);}.cls-15{clip-path:url(#clip-path-2);}.cls-16{fill:#5d2c10;}</style><clipPath id="clip-path"><path class="cls-1" d="M39.79,12.68l6.8-3.95a3.28,3.28,0,0,1,3.33.32L43.12,13A3.28,3.28,0,0,0,39.79,12.68Z"/></clipPath><clipPath id="clip-path-2"><path class="cls-1" d="M43.12,13l6.8-3.95a6.73,6.73,0,0,1,.89.61c2.54,2,4.19,5.81,3.7,8.44l-6.8,3.95c.49-2.63-1.16-6.41-3.7-8.44A6.73,6.73,0,0,0,43.12,13Z"/></clipPath></defs><title>hest_01</title><g id="Layer_2" data-name="Layer 2"><g id="Layer_1-2" data-name="Layer 1"><g class="cls-2"><g class="cls-2"><path class="cls-3" d="M55.56.84l-.69-.4A6,6,0,0,1,55.74,0l.69.4a8.83,8.83,0,0,0-.87.44Z"/></g><g class="cls-2"><path class="cls-3" d="M50.08,8.24l-.69-.41A15.2,15.2,0,0,1,51.9,3a10.79,10.79,0,0,1,3-2.53l.69.4a10.78,10.78,0,0,0-3,2.53,15,15,0,0,0-2.52,4.87Z"/></g><path class="cls-1" d="M55.56.84A8.83,8.83,0,0,1,56.43.4a14.87,14.87,0,0,1-2.51,4.86A10.68,10.68,0,0,1,51,7.8a8.83,8.83,0,0,1-.87.44A15,15,0,0,1,52.6,3.37,10.78,10.78,0,0,1,55.56.84Z"/></g><g class="cls-2"><polygon class="cls-4" points="6.24 27.57 9.66 25.58 9.63 35.69 6.21 37.68 6.24 27.57"/><g class="cls-2"><g class="cls-2"><path class="cls-5" d="M11.48,15.39l3.43-2c-3.09,1.8-5.24,7.5-5.25,12.18l-3.42,2c0-4.68,2.16-10.38,5.24-12.18Z"/></g></g><polygon class="cls-4" points="15.51 13.88 18.93 11.89 18.96 13.43 15.53 15.42 15.51 13.88"/><g class="cls-2"><g class="cls-2"><path class="cls-5" d="M4.93,13l3.42-2c2.77-1.61,6.5-1.43,10.58.93l-3.42,2C11.42,11.52,7.7,11.34,4.93,13Z"/></g></g><path class="cls-6" d="M15.51,13.88l0,1.54C10.45,12.49,6.26,21,6.24,27.57l0,10.11L0,34.09,0,24C.06,13.5,7,9,15.51,13.88Z"/></g><g class="cls-2"><g class="cls-2"><g class="cls-2"><path class="cls-7" d="M44.25,61.35l3.69-2.14a.52.52,0,0,0-.23.4L44,61.75a.51.51,0,0,1,.23-.4Z"/></g></g><g class="cls-2"><g class="cls-2"><path class="cls-8" d="M48.51,67.87l3.69-2.14a.57.57,0,0,1-.24.52l-3.69,2.14a.55.55,0,0,0,.24-.52Z"/></g></g><g class="cls-2"><g class="cls-2"><path class="cls-8" d="M44.25,61.35l3.69-2.14a.55.55,0,0,1,.57,0l-3.69,2.15a.58.58,0,0,0-.57-.06Z"/></g></g><polygon class="cls-9" points="48.52 64.47 52.21 62.33 52.2 65.73 48.51 67.87 48.52 64.47"/><polygon class="cls-10" points="44.82 61.41 48.51 59.26 51.41 60.94 47.71 63.08 44.82 61.41"/><g class="cls-2"><g class="cls-2"><path class="cls-8" d="M48.51,64.41l3.7-2.15v.07l-3.69,2.14a.15.15,0,0,0,0-.06Z"/></g></g><g class="cls-2"><g class="cls-2"><path class="cls-8" d="M47.71,63.08l3.7-2.15a1.81,1.81,0,0,1,.8,1.33l-3.7,2.15a1.76,1.76,0,0,0-.8-1.33Z"/></g></g><path class="cls-11" d="M47.71,63.08a1.76,1.76,0,0,1,.8,1.33.15.15,0,0,1,0,.06v3.4c0,.51-.37.72-.81.46l-2.89-1.67A1.77,1.77,0,0,1,44,65.27v-3.4a.45.45,0,0,1,0-.12c0-.43.39-.58.8-.34Z"/><polygon class="cls-1" points="48.56 39.22 52.25 37.07 52.2 62.27 48.51 64.41 48.56 39.22"/><polygon class="cls-12" points="48.56 39.22 48.51 64.41 44.02 61.75 44.07 36.62 48.56 39.22"/><polygon class="cls-13" points="44.07 36.62 47.76 34.48 52.25 37.07 48.56 39.22 44.07 36.62"/></g><g class="cls-2"><g class="cls-2"><g class="cls-2"><path class="cls-7" d="M9.12,53.84l3.69-2.14a.49.49,0,0,0-.22.4L8.9,54.24a.5.5,0,0,1,.22-.4Z"/></g></g><g class="cls-2"><g class="cls-2"><path class="cls-8" d="M13.38,60.36l3.69-2.14a.59.59,0,0,1-.23.52l-3.69,2.14a.56.56,0,0,0,.23-.52Z"/></g></g><g class="cls-2"><g class="cls-2"><path class="cls-8" d="M9.12,53.84l3.69-2.14a.57.57,0,0,1,.58.06L9.69,53.9a.57.57,0,0,0-.57-.06Z"/></g></g><polygon class="cls-9" points="13.39 56.97 17.08 54.82 17.07 58.22 13.38 60.36 13.39 56.97"/><polygon class="cls-10" points="9.69 53.9 13.39 51.76 16.28 53.43 12.59 55.57 9.69 53.9"/><g class="cls-2"><g class="cls-2"><path class="cls-8" d="M13.39,56.9l3.69-2.14v.06L13.39,57V56.9Z"/></g></g><g class="cls-2"><g class="cls-2"><path class="cls-8" d="M12.59,55.57l3.69-2.14a1.77,1.77,0,0,1,.8,1.33L13.39,56.9a1.79,1.79,0,0,0-.8-1.33Z"/></g></g><path class="cls-11" d="M12.59,55.57a1.79,1.79,0,0,1,.8,1.33v3.46c0,.52-.36.72-.81.46L9.68,59.15a1.76,1.76,0,0,1-.81-1.39s0-3.28,0-3.4l0-.12s.39-.58.79-.34Z"/><polygon class="cls-1" points="13.43 34.06 17.12 31.92 17.08 54.76 13.39 56.9 13.43 34.06"/><polygon class="cls-3" points="13.43 34.06 13.39 56.9 8.89 54.24 8.94 31.47 13.43 34.06"/><polygon class="cls-13" points="8.94 31.47 12.63 29.32 17.12 31.92 13.43 34.06 8.94 31.47"/></g><g class="cls-2"><g class="cls-2"><g class="cls-2"><path class="cls-7" d="M20.75,47.05l3.69-2.14a.49.49,0,0,0-.22.4l-3.7,2.14a.54.54,0,0,1,.23-.4Z"/></g></g><g class="cls-2"><g class="cls-2"><path class="cls-8" d="M25,53.57l3.69-2.14a.56.56,0,0,1-.23.51l-3.7,2.15a.56.56,0,0,0,.24-.52Z"/></g></g><g class="cls-2"><g class="cls-2"><path class="cls-8" d="M20.75,47.05l3.69-2.14A.55.55,0,0,1,25,45l-3.69,2.15a.55.55,0,0,0-.57-.06Z"/></g></g><polygon class="cls-9" points="25.02 50.17 28.71 48.03 28.7 51.43 25.01 53.57 25.02 50.17"/><polygon class="cls-10" points="21.32 47.11 25.02 44.96 27.91 46.63 24.21 48.78 21.32 47.11"/><g class="cls-2"><g class="cls-2"><path class="cls-8" d="M25,50.11,28.71,48V48L25,50.17a.13.13,0,0,0,0-.06Z"/></g></g><g class="cls-2"><g class="cls-2"><path class="cls-8" d="M24.21,48.78l3.7-2.15a1.79,1.79,0,0,1,.8,1.33L25,50.11a1.76,1.76,0,0,0-.8-1.33Z"/></g></g><path class="cls-11" d="M24.21,48.78a1.76,1.76,0,0,1,.8,1.33.13.13,0,0,1,0,.06v3.4c0,.51-.37.72-.81.46l-2.89-1.67A1.77,1.77,0,0,1,20.5,51v-3.4a.45.45,0,0,1,0-.12c.05-.43.39-.58.8-.34Z"/><polygon class="cls-1" points="25.06 27.27 28.75 25.13 28.71 47.96 25.01 50.11 25.06 27.27"/><polygon class="cls-3" points="25.06 27.27 25.01 50.11 20.52 47.45 20.57 24.68 25.06 27.27"/><polygon class="cls-13" points="20.57 24.68 24.26 22.53 28.75 25.13 25.06 27.27 20.57 24.68"/></g><g class="cls-2"><g class="cls-2"><g class="cls-2"><path class="cls-7" d="M34.41,65.41l3.69-2.14a.5.5,0,0,0-.22.4l-3.69,2.15a.51.51,0,0,1,.22-.41Z"/></g></g><g class="cls-2"><g class="cls-2"><path class="cls-8" d="M38.67,71.93l3.69-2.14a.59.59,0,0,1-.23.52l-3.69,2.14a.56.56,0,0,0,.23-.52Z"/></g></g><g class="cls-2"><g class="cls-2"><path class="cls-8" d="M34.41,65.41l3.69-2.14a.57.57,0,0,1,.58.06L35,65.47a.59.59,0,0,0-.58-.06Z"/></g></g><polygon class="cls-9" points="38.68 68.54 42.37 66.39 42.36 69.79 38.67 71.93 38.68 68.54"/><polygon class="cls-10" points="34.99 65.47 38.68 63.33 41.57 65 37.88 67.14 34.99 65.47"/><g class="cls-2"><g class="cls-2"><path class="cls-8" d="M38.68,68.47l3.69-2.14v.06l-3.69,2.15v-.07Z"/></g></g><g class="cls-2"><g class="cls-2"><path class="cls-8" d="M37.88,67.14,41.57,65a1.79,1.79,0,0,1,.8,1.33l-3.69,2.14a1.79,1.79,0,0,0-.8-1.33Z"/></g></g><path class="cls-11" d="M37.88,67.14a1.79,1.79,0,0,1,.8,1.33v3.46c0,.52-.36.72-.81.46L35,70.72a1.76,1.76,0,0,1-.81-1.39v-3.4s0-.08,0-.11c.05-.44.39-.59.8-.35Z"/><polygon class="cls-1" points="38.72 54.17 42.41 52.03 42.37 66.33 38.68 68.47 38.72 54.17"/><polygon class="cls-3" points="38.72 54.17 38.68 68.47 34.19 65.81 34.23 51.58 38.72 54.17"/><polygon class="cls-13" points="34.23 51.58 37.92 49.44 42.41 52.03 38.72 54.17 34.23 51.58"/></g><g class="cls-2"><g class="cls-2"><path class="cls-1" d="M9.48,17l10.73-6.24a3.22,3.22,0,0,1,3.23.32L12.71,17.29A3.19,3.19,0,0,0,9.48,17Z"/></g><path class="cls-1" d="M41.5,51.86l10.73-6.23a3.19,3.19,0,0,1-1.33,2.91L40.18,54.77a3.18,3.18,0,0,0,1.32-2.91Z"/><polygon class="cls-1" points="41.54 39.23 52.27 33 52.23 45.63 41.5 51.86 41.54 39.23"/><polygon class="cls-1" points="12.14 17.02 22.87 10.79 47.75 25.16 37.02 31.39 12.14 17.02"/><path class="cls-1" d="M37,31.39l10.73-6.23A10,10,0,0,1,52.27,33L41.54,39.23A10,10,0,0,0,37,31.39Z"/><path class="cls-3" d="M42.5,39.23l0,12.63c0,2.87-2,4-4.54,2.6h0L30.15,50l-7.76-4.49L13,40.08a10,10,0,0,1-4.52-7.83V30.67l0-4.27,0-6.78a3.35,3.35,0,0,1,1.06-2.73c.83-.67,2.09-.67,3.49.14l9.39,5.42L38,31.39a9.94,9.94,0,0,1,3.94,4.94h0A8.27,8.27,0,0,1,42.5,39.23Z"/></g><g class="cls-2"><g class="cls-2"><g class="cls-2"><path class="cls-5" d="M41.38,7.32l3.42-2c-3.08,1.79-5.23,7.49-5.24,12.18l-3.42,2c0-4.69,2.16-10.39,5.24-12.18Z"/></g></g></g><g class="cls-2"><polygon class="cls-1" points="47.71 22.05 54.51 18.1 51.74 32.53 44.94 36.48 47.71 22.05"/><path class="cls-1" d="M39.79,12.68l6.8-3.95a3.28,3.28,0,0,1,3.33.32L43.12,13A3.28,3.28,0,0,0,39.79,12.68Z"/><g class="cls-14"><g class="cls-2"><path class="cls-1" d="M39.79,12.68l6.8-3.95a3.28,3.28,0,0,1,3.33.32L43.12,13a3.28,3.28,0,0,0-3.33-.32Z"/></g></g><path class="cls-1" d="M43.12,13l6.8-3.95a6.73,6.73,0,0,1,.89.61c2.54,2,4.19,5.81,3.7,8.44l-6.8,3.95c.49-2.63-1.16-6.41-3.7-8.44A6.73,6.73,0,0,0,43.12,13Z"/><g class="cls-15"><path class="cls-1" d="M43.12,13l6.8-3.95a6.73,6.73,0,0,1,.89.61c2.54,2,4.19,5.81,3.7,8.44l-6.8,3.95c.49-2.63-1.16-6.41-3.7-8.44a6.73,6.73,0,0,0-.89-.61Z"/></g><path class="cls-3" d="M43.38,8.65c.29.17.33,4.72.63,5,2.54,2,4.19,5.81,3.7,8.44L42.47,46.73l-9.19-7.35,5.71-29C39.43,8,41.18,7.38,43.38,8.65Z"/></g><path class="cls-3" d="M65.21,18.23c0-.23,0-.53-.07-.75a10.29,10.29,0,0,0-.24-1.13,6.24,6.24,0,0,0-.3-.86,8.09,8.09,0,0,0-.48-1A8.33,8.33,0,0,0,63,13a11.59,11.59,0,0,0-.92-.81,8.77,8.77,0,0,0-.81-.54l-.06,0h0l-.72-.42h0L53,6.81l-.72-.42h0l-.16-.09-.05,0a7.29,7.29,0,0,0-.9-.43c-.27-.1-.62-.21-.89-.28s-.42-.1-.6-.13-.65-.08-.93-.1-.42,0-.6,0a4.18,4.18,0,0,0-.49,0l-.5.06a8.3,8.3,0,0,0-1.1.24l-.27.09-.27.09c-.32.13-.74.32-1,.47l-.33.18-.32.2a4.4,4.4,0,0,0-.45.3l-.24.18-.24.2c-.12.09-.27.23-.38.33a4.4,4.4,0,0,0-.38.37,8.82,8.82,0,0,0-.63.72L41.31,9l-.14.19-.25.38c-.09.13-.17.26-.24.38a8.38,8.38,0,0,0-.43.8c-.06.12-.13.29-.18.41a5.22,5.22,0,0,0-.27.72c-.07.2-.13.39-.19.62a8.75,8.75,0,0,0-.2,1c0,.17,0,.4-.07.57s0,.45,0,.64,0,.4,0,.56a2.53,2.53,0,0,0,0,.38c0,.13,0,.26,0,.38s0,.17,0,.26,0,.21.06.3a8.75,8.75,0,0,0,.23.88,8.38,8.38,0,0,0,.4,1,7.9,7.9,0,0,0,.66,1.13c.09.13.2.27.31.41a7,7,0,0,0,.88.93c.14.12.33.29.48.4s.56.38.81.53h0l.72.42,7.54,4.38.72.42.06,0c.33.18.78.4,1.12.54a6.21,6.21,0,0,0,.8.26,7.67,7.67,0,0,0,.93.19,7.39,7.39,0,0,0,2.18,0,6.91,6.91,0,0,0,1.1-.22,10.65,10.65,0,0,0,1.08-.38l.51-.25c.23-.12.53-.28.74-.42a8.43,8.43,0,0,0,.93-.68,4.89,4.89,0,0,0,.41-.37c.21-.2.47-.47.67-.69,0,0,.39-.45.59-.74l.25-.37.24-.39c.07-.11.16-.27.22-.39a6.67,6.67,0,0,0,.39-.82c.06-.13.12-.3.17-.43a9,9,0,0,0,.29-.91,9.3,9.3,0,0,0,.3-2.21C65.22,18.62,65.22,18.4,65.21,18.23Z"/><path class="cls-16" d="M65.57,18.23c0-.23,0-.53-.08-.75a10.27,10.27,0,0,0-.23-1.13,6.24,6.24,0,0,0-.3-.86,9.9,9.9,0,0,0-.48-1A7.93,7.93,0,0,0,63.35,13a8.88,8.88,0,0,0-.92-.81,8.62,8.62,0,0,0-.8-.54l-.06,0c-1.13-.65-2.68-.58-4.4.38a13.92,13.92,0,0,0-6.42,10.86,4.88,4.88,0,0,0,1.38,3.85l.16.13.07.05a1.43,1.43,0,0,0,.24.16l.06,0a11.53,11.53,0,0,0,1.12.54,5.74,5.74,0,0,0,.8.26,7.3,7.3,0,0,0,.93.19,8,8,0,0,0,1.2.08,8.09,8.09,0,0,0,1-.08,6.91,6.91,0,0,0,1.1-.22c.32-.1.76-.24,1.08-.38l.51-.25c.23-.12.53-.28.74-.42a9.75,9.75,0,0,0,.93-.68c.12-.11.29-.25.41-.37s.47-.47.67-.69a9.28,9.28,0,0,0,.58-.74c.08-.11.19-.26.26-.37l.24-.39c.07-.11.15-.27.22-.39a8.74,8.74,0,0,0,.39-.82c.06-.13.12-.3.17-.43a9,9,0,0,0,.29-.91,9.3,9.3,0,0,0,.3-2.21C65.57,18.62,65.58,18.4,65.57,18.23ZM61.06,23a1.78,1.78,0,0,0,0,.35,1.78,1.78,0,0,1,0-.35,2.53,2.53,0,0,1,.28-1A2.53,2.53,0,0,0,61.06,23Z"/><path class="cls-6" d="M48.4,6.74l0,1.54c-8.33-2.4-9.85,3.61-11.12,11.65-.39,2.49-2.1,9.87-2.1,9.87l-8.12-4.7s.89-5.44,1.84-10.55C30.86,4.24,39.9,1.83,48.4,6.74Z"/><polygon class="cls-4" points="48.4 6.74 51.82 4.75 51.85 6.29 48.43 8.28 48.4 6.74"/><g class="cls-2"><g class="cls-2"><path class="cls-5" d="M51.82,4.75l-3.42,2c-4.08-2.36-10.56-3.32-15.26,0C33.14,6.69,39.54-.37,51.82,4.75Z"/></g></g><g class="cls-2"><g class="cls-2"><path class="cls-3" d="M36.54,10l-.76-.44a6.18,6.18,0,0,1,3.25-1A3,3,0,0,1,40.27,9l.76.44a3,3,0,0,0-1.24-.39,6.15,6.15,0,0,0-3.25,1Z"/></g><g class="cls-2"><path class="cls-3" d="M37.11,12.4,36.35,12a3.92,3.92,0,0,1-1.52-1.73l.76.44a4,4,0,0,0,1.52,1.74Z"/></g><g class="cls-2"><path class="cls-3" d="M35.59,10.66l-.76-.44a9.6,9.6,0,0,1,1-.63l.76.44a9.6,9.6,0,0,0-.95.63Z"/></g><path class="cls-1" d="M36.54,10a6.15,6.15,0,0,1,3.25-1,3.54,3.54,0,0,1,2.76,2.14,11.08,11.08,0,0,1-.94.61,6.28,6.28,0,0,1-3.25,1,3.54,3.54,0,0,1-2.77-2.13A9.6,9.6,0,0,1,36.54,10Z"/></g><path class="cls-9" d="M47.09,14.32c0,.73-.51,1-1.14.66a2.52,2.52,0,0,1-1.15-2c0-.73.51-1,1.15-.67A2.55,2.55,0,0,1,47.09,14.32Z"/></g></g></svg>