<svg xmlns="http://www.w3.org/2000/svg" viewBox="0 0 17.63 15.87"><defs><style>.cls-1{opacity:0.3;}.cls-2{fill:#dba563;}.cls-3{fill:#f0b56c;}.cls-4{fill:#b38750;}.cls-5{fill:#a62626;}.cls-6{fill:#d63a3a;}</style></defs><title>høyball_01</title><g id="Layer_2" data-name="Layer 2"><g id="Layer_1-2" data-name="Layer 1"><path class="cls-1" d="M6.64,15.87,0,12l3.86-1.9,4.9-2.83,2.11-1.87,6.76,3.9L14.37,11,9.43,13.81Z"/><polygon class="cls-2" points="0.78 12.07 6.63 15.44 6.63 9.28 0.78 6.21 0.78 12.07"/><polygon class="cls-3" points="9.3 1.64 3.97 4.71 0.78 6.21 6.63 9.28 9.25 7.6 14.21 4.74 16.9 3.35 11.11 0 9.3 1.64"/><polygon class="cls-4" points="9.25 7.6 6.63 9.28 6.63 15.44 9.27 13.29 14.27 10.4 16.9 9.25 16.9 3.35 14.21 4.74 9.25 7.6"/><polygon class="cls-5" points="9.1 13.38 9.46 13.18 9.46 7.48 9.1 7.69 9.1 13.38"/><polygon class="cls-6" points="3.57 4.88 9.1 7.69 9.46 7.48 3.97 4.71 3.57 4.88"/><polygon class="cls-5" points="14.07 10.51 14.43 10.31 14.43 4.61 14.07 4.82 14.07 10.51"/><polygon class="cls-6" points="8.94 1.85 14.07 4.82 14.43 4.61 9.3 1.64 8.94 1.85"/></g></g></svg>