<svg xmlns="http://www.w3.org/2000/svg" viewBox="0 0 68.69 58.55"><defs><style>.cls-1,.cls-9{fill:#121214;}.cls-1{opacity:0.3;}.cls-2{fill:#754c29;}.cls-3{fill:#3c2415;}.cls-4{fill:#603913;}.cls-5{fill:#535359;}.cls-6{fill:#a7a9ac;}.cls-7{fill:#939598;}.cls-8{fill:#bcbec0;}.cls-10{fill:#ba6000;}.cls-11{fill:#ff8400;}</style></defs><title>kanon_01</title><g id="Layer_2" data-name="Layer 2"><g id="Layer_1-2" data-name="Layer 1"><path class="cls-1" d="M64.3,48.38l-5.79-3.84,7-4.06L43.23,27.6l-3.62,2.1L19.8,18.26l-5,2.85L30.28,30a14.79,14.79,0,0,0-6.22,1.76C22,33,21,34.51,20.91,36.06l-16-9.22L0,29.7,19.82,41.14l-1.89,1.1,5.71,3.29-8.47,4.92,14.15,8.1,8.41-4.88,2.5,1.44,5.94-3.43L52.82,55a6.53,6.53,0,0,0,4,.38c3.54-.55,7.17-2.65,8.12-4.69A1.64,1.64,0,0,0,64.3,48.38Z"/><polygon class="cls-2" points="17 19.25 20.21 17.39 34.77 19.36 31.56 21.21 28.09 22.15 17 19.25"/><polygon class="cls-2" points="56.23 27.94 31.56 13.7 34.77 11.85 59.44 26.09 56.23 27.94"/><polygon class="cls-3" points="59.44 41.91 56.23 43.77 56.23 27.94 59.44 26.09 59.44 41.91"/><polygon class="cls-4" points="56.23 43.77 17 21.12 17 19.25 31.56 21.21 31.56 13.7 56.23 27.94 56.23 43.77"/><polygon class="cls-2" points="54.38 40.07 42.79 46.77 40.85 45.65 52.44 38.95 54.38 40.07"/><polygon class="cls-3" points="54.38 42.69 42.79 49.38 42.79 46.77 54.38 40.07 54.38 42.69"/><path class="cls-5" d="M24.82,18.93,20,16.14c-.85-.49-.85-2.08,0-3.56s2.24-2.27,3.09-1.78l4.82,2.78-.39.68a4.29,4.29,0,0,1-.63,2.3,4.35,4.35,0,0,1-1.68,1.7Z"/><path class="cls-6" d="M27.9,13.58c.86.49.85,2.09,0,3.56s-2.23,2.28-3.08,1.79-.86-2.09,0-3.57S27.05,13.09,27.9,13.58Z"/><path class="cls-7" d="M39,9.68c9.44,5.46,10.9,11,28.09,21-.05,2-6.23,12.69-7.93,13.73C41.92,34.43,36.37,36,26.92,30.5a12,12,0,1,1,12-20.82Z"/><path class="cls-8" d="M66.63,31.1s-.79-1-2.49,0c-15.53-10.35-17-15.29-27.28-21.76C45.74,12.44,49.44,21.17,66.63,31.1Z"/><path class="cls-5" d="M57.47,40.73A12.4,12.4,0,0,1,63.07,31c3.11-1.79,5.61-.34,5.62,3.24A12.45,12.45,0,0,1,63.08,44C60,45.75,57.46,44.3,57.47,40.73Z"/><path class="cls-9" d="M59,39.84a9,9,0,0,1,4.06-7c2.25-1.3,4.07-.25,4.07,2.35a8.93,8.93,0,0,1-4.07,7C60.83,43.48,59,42.44,59,39.84Z"/><path class="cls-5" d="M34.36,7.69v3.13c0,.5.71.91,1.59.91s1.59-.41,1.59-.91V7.69h-.4A2.2,2.2,0,0,0,36,7.38a2.23,2.23,0,0,0-1.19.31Z"/><path class="cls-6" d="M37.54,7.69c0-.51-.71-.92-1.59-.92s-1.59.41-1.59.92.71.92,1.59.92S37.54,8.2,37.54,7.69Z"/><path class="cls-5" d="M36.64,7.69c0-.22-.31-.4-.69-.4s-.69.18-.69.4.31.4.69.4S36.64,7.91,36.64,7.69Z"/><path class="cls-4" d="M36,8c-.27,0-.51-.07-.54-.35,0-.06-.65-6,6.13-7.64a.54.54,0,0,1,.66.4.55.55,0,0,1-.4.67C36,2.48,36.48,7.32,36.5,7.53S36.32,8,36,8Z"/><polygon class="cls-2" points="2.21 27.78 5.42 25.93 19.98 27.9 16.77 29.75 13.3 30.69 2.21 27.78"/><polygon class="cls-2" points="41.44 36.48 16.77 22.24 19.98 20.38 44.65 34.62 41.44 36.48"/><polygon class="cls-3" points="44.65 50.45 41.44 52.3 41.44 36.48 44.65 34.62 44.65 50.45"/><polygon class="cls-4" points="41.44 52.3 2.21 29.66 2.21 27.78 16.77 29.75 16.77 22.24 41.44 36.48 41.44 52.3"/><path class="cls-5" d="M18.74,35.6a7.72,7.72,0,0,0-.84,3.76c0,5.38,3.78,11.93,8.45,14.62a7.63,7.63,0,0,0,3.81,1.15v.68l3.36-1.93C35,53,36,51.11,36,48.41c0-5.38-3.78-11.93-8.44-14.62-2.34-1.35-4.45-1.47-6-.59l-3.35,1.93Z"/><path class="cls-7" d="M24.19,35.72c4.67,2.69,8.45,9.24,8.45,14.63s-3.78,7.56-8.45,4.87S15.75,46,15.75,40.6,19.53,33,24.19,35.72Z"/><path class="cls-10" d="M28.86,52.73c-1.12.88-2.8.88-4.67-.2a13.53,13.53,0,0,1-6.11-10.59c0-2.16.84-3.61,2.16-4.14a4.56,4.56,0,0,0-1.44,3.72,13.5,13.5,0,0,0,6.11,10.6A4.55,4.55,0,0,0,28.86,52.73Z"/><path class="cls-11" d="M30.31,49a4.55,4.55,0,0,1-1.45,3.73h0a4.55,4.55,0,0,1-3.95-.61,13.5,13.5,0,0,1-6.11-10.6,4.56,4.56,0,0,1,1.44-3.72h0a4.53,4.53,0,0,1,3.94.61A13.51,13.51,0,0,1,30.31,49Z"/><path class="cls-7" d="M24.79,48.8l1.59-.91A1.57,1.57,0,0,0,27,46.43a5,5,0,0,0-2.25-3.9,1.61,1.61,0,0,0-1.6-.16l-1.53.89Z"/><path class="cls-8" d="M23.3,43.38a5,5,0,0,1,2.26,3.91c0,1.44-1,2-2.26,1.3a5,5,0,0,1-2.25-3.9C21.05,43.25,22.06,42.67,23.3,43.38Z"/></g></g></svg>