<svg xmlns="http://www.w3.org/2000/svg" viewBox="0 0 102.54 94.52"><defs><style>.cls-1{opacity:0.3;}.cls-2{fill:#663f30;}.cls-3{fill:#965d47;}.cls-4{fill:#996841;}.cls-5{fill:#7c5331;}.cls-6{fill:#f2f2f2;}.cls-7{fill:#cc8a33;}.cls-8{fill:#593628;}.cls-9{fill:#3b1c11;}.cls-10{fill:#1c0d08;}.cls-11{fill:#d99336;}.cls-12{fill:#ffad40;}.cls-13{fill:#ffb95c;}.cls-14{fill:#543428;}.cls-15{fill:#593f34;}.cls-16{fill:#795547;}.cls-17{fill:#8c6352;}.cls-18{fill:#ccc;}.cls-19{fill:#b3b3b3;}.cls-20{fill:#2b82c7;}</style></defs><title>stall_01</title><g id="Layer_2" data-name="Layer 2"><g id="Layer_1-2" data-name="Layer 1"><polygon class="cls-1" points="0 61.49 45.05 35.49 102.54 68.52 91.79 74.72 100.33 79.63 79.75 91.5 71.22 86.6 57.49 94.52 0 61.49"/><polygon class="cls-2" points="58.53 88.72 56.78 89.73 4.02 59.27 5.77 58.26 58.53 88.72"/><polygon class="cls-3" points="96.86 66.59 96.86 64.35 98.81 65.47 96.86 66.59"/><polygon class="cls-2" points="98.81 68.05 56.78 92.31 56.78 89.73 98.81 65.47 98.81 68.05"/><polygon class="cls-4" points="58.53 88.72 5.77 58.26 5.77 29.49 58.53 59.95 58.53 88.72"/><polygon class="cls-5" points="77.7 34.15 88.06 32.58 96.86 37.82 96.86 66.59 58.53 88.72 58.53 59.95 66.76 44.87 77.7 34.15"/><polygon class="cls-6" points="78.1 48.42 77.29 48.89 77.29 33.93 78.1 33.46 78.1 48.42"/><polygon class="cls-6" points="77.94 48.15 77.45 49.17 65.84 45.29 66.34 44.28 77.94 48.15"/><polygon class="cls-6" points="89.4 31.69 77.79 48.97 77.29 48.52 88.9 31.25 89.4 31.69"/><polygon class="cls-6" points="96.86 38.08 58.53 60.21 58.53 58.9 96.86 36.77 96.86 38.08"/><polygon class="cls-7" points="77.7 32.21 89.21 30.46 100.01 37.08 98.79 39.16 88.26 32.7 77.69 34.31 66.53 45.25 56.53 63.69 55.29 63.06 65.57 44.11 77.7 32.21"/><polygon class="cls-6" points="87.95 71.73 70.27 81.93 70.27 64.59 87.95 54.39 87.95 71.73"/><polygon class="cls-8" points="87 72.28 71.22 81.38 71.22 65.03 87 55.93 87 72.28"/><polygon class="cls-9" points="87 55.93 87 56.81 72.08 80.89 71.22 81.38 71.22 80.5 86.14 56.42 87 55.93"/><polygon class="cls-9" points="87 71.3 87 72.28 86.23 72.72 71.22 66.01 71.22 65.03 71.99 64.59 87 71.3"/><polygon class="cls-10" points="79.28 76.73 78.94 76.93 78.94 60.58 79.28 60.38 79.28 76.73"/><polygon class="cls-11" points="65.57 44.11 55.29 63.06 2.53 32.6 12.81 13.65 65.57 44.11"/><polygon class="cls-12" points="77.7 32.21 65.57 44.11 12.81 13.65 24.95 1.75 77.7 32.21"/><polygon class="cls-13" points="89.21 30.46 77.7 32.21 24.95 1.75 36.46 0 89.21 30.46"/><polygon class="cls-14" points="56.78 92.31 4.02 61.86 4.02 59.27 56.78 89.73 56.78 92.31"/><polygon class="cls-15" points="97.75 79.97 80.07 90.17 80.07 89.86 97.75 79.66 97.75 79.97"/><polygon class="cls-16" points="80.07 90.17 70.27 84.51 70.27 81.93 80.07 89.86 80.07 90.17"/><polygon class="cls-17" points="97.75 79.66 80.07 89.86 70.27 81.93 87.95 71.73 97.75 79.66"/><polygon class="cls-18" points="44.31 80.51 42.71 79.59 42.71 55.8 44.31 56.78 44.31 80.51"/><polygon class="cls-18" points="18.79 65.8 17.19 64.88 17.19 41.09 18.79 42.07 18.79 65.8"/><polygon class="cls-6" points="31.7 56.89 31.7 65.9 31.19 66.2 31.19 57.19 28.54 55.65 29.05 55.36 31.7 56.89"/><polygon class="cls-18" points="31.19 66.2 28.54 64.66 28.54 55.65 31.19 57.19 31.19 66.2"/><polygon class="cls-19" points="29.38 64.15 30.84 64.99 30.84 65.62 28.89 64.5 28.89 56.26 29.38 56.55 29.38 64.15"/><polygon class="cls-20" points="30.84 64.99 29.38 64.15 29.38 56.55 30.84 57.39 30.84 64.99"/><polygon class="cls-6" points="24.84 52.96 24.84 61.97 24.33 62.26 24.33 53.25 21.68 51.72 22.19 51.42 24.84 52.96"/><polygon class="cls-18" points="24.33 62.26 21.68 60.73 21.68 51.72 24.33 53.25 24.33 62.26"/><polygon class="cls-19" points="22.52 60.22 23.98 61.06 23.98 61.69 22.03 60.56 22.03 52.33 22.52 52.62 22.52 60.22"/><polygon class="cls-20" points="23.98 61.06 22.52 60.22 22.52 52.62 23.98 53.46 23.98 61.06"/><polygon class="cls-6" points="38.92 61.07 38.92 70.08 38.41 70.37 38.41 61.36 35.76 59.83 36.27 59.53 38.92 61.07"/><polygon class="cls-18" points="38.41 70.37 35.76 68.84 35.76 59.83 38.41 61.36 38.41 70.37"/><polygon class="cls-19" points="36.61 68.33 38.06 69.17 38.06 69.8 36.11 68.67 36.11 60.44 36.61 60.73 36.61 68.33"/><polygon class="cls-20" points="38.06 69.17 36.61 68.33 36.61 60.73 38.06 61.56 38.06 69.17"/><polygon class="cls-6" points="52.24 68.72 52.24 77.73 51.73 78.02 51.73 69.01 49.07 67.48 49.58 67.19 52.24 68.72"/><polygon class="cls-18" points="51.73 78.02 49.07 76.49 49.07 67.48 51.73 69.01 51.73 78.02"/><polygon class="cls-19" points="49.92 75.98 51.37 76.82 51.37 77.45 49.42 76.32 49.42 68.09 49.92 68.38 49.92 75.98"/><polygon class="cls-20" points="51.37 76.82 49.92 75.98 49.92 68.38 51.37 69.22 51.37 76.82"/><polygon class="cls-6" points="12.86 45.98 12.86 54.99 12.35 55.29 12.35 46.28 9.69 44.75 10.21 44.45 12.86 45.98"/><polygon class="cls-18" points="12.35 55.29 9.69 53.76 9.69 44.75 12.35 46.28 12.35 55.29"/><polygon class="cls-19" points="10.54 53.24 11.99 54.08 11.99 54.72 10.05 53.59 10.05 45.36 10.54 45.64 10.54 53.24"/><polygon class="cls-20" points="11.99 54.08 10.54 53.24 10.54 45.64 11.99 46.48 11.99 54.08"/></g></g></svg>