<svg xmlns="http://www.w3.org/2000/svg" viewBox="0 0 122.04 58.79"><defs><style>.cls-1{fill:#bfc0bf;}</style></defs><title>sti_01</title><g id="Layer_2" data-name="Layer 2"><g id="Layer_1-2" data-name="Layer 1"><path class="cls-1" d="M14.66,23c0,1,1.66,1.8,3.72,1.8S22.1,24,22.1,23s-1.67-1.81-3.72-1.81S14.66,22,14.66,23Z"/><path class="cls-1" d="M14.66,15.76c0,1,1.66,1.81,3.72,1.81s3.72-.81,3.72-1.81S20.43,14,18.38,14,14.66,14.76,14.66,15.76Z"/><path class="cls-1" d="M34.34,21.76c0,1,1.67,1.81,3.72,1.81s3.72-.81,3.72-1.81S40.11,20,38.06,20,34.34,20.77,34.34,21.76Z"/><path class="cls-1" d="M0,9.52c0,1,1.67,1.8,3.72,1.8s3.72-.81,3.72-1.8S5.77,7.71,3.72,7.71,0,8.52,0,9.52Z"/><path class="cls-1" d="M.58,17.57c0,1,1.66,1.8,3.71,1.8S8,18.56,8,17.57s-1.66-1.81-3.72-1.81S.58,16.57.58,17.57Z"/><path class="cls-1" d="M46.72,15.24c0,1,1.67,1.8,3.72,1.8s3.72-.8,3.72-1.8-1.67-1.8-3.72-1.8S46.72,14.25,46.72,15.24Z"/><path class="cls-1" d="M46.72,8.05c0,1,1.67,1.8,3.72,1.8s3.72-.81,3.72-1.8-1.67-1.81-3.72-1.81S46.72,7.05,46.72,8.05Z"/><path class="cls-1" d="M66.4,14.05c0,1,1.67,1.81,3.72,1.81s3.72-.81,3.72-1.81-1.66-1.8-3.72-1.8S66.4,13.05,66.4,14.05Z"/><path class="cls-1" d="M32.06,1.8c0,1,1.67,1.81,3.72,1.81S39.5,2.8,39.5,1.8,37.84,0,35.78,0,32.06.8,32.06,1.8Z"/><path class="cls-1" d="M32.64,9.85c0,1,1.66,1.8,3.72,1.8s3.72-.8,3.72-1.8-1.67-1.8-3.72-1.8S32.64,8.86,32.64,9.85Z"/><path class="cls-1" d="M55.85,27.55c0,1,1.67,1.8,3.72,1.8s3.72-.81,3.72-1.8-1.67-1.81-3.72-1.81S55.85,26.55,55.85,27.55Z"/><path class="cls-1" d="M50.53,22.48c0,1,1.67,1.81,3.72,1.81S58,23.48,58,22.48s-1.66-1.81-3.72-1.81S50.53,21.48,50.53,22.48Z"/><path class="cls-1" d="M70.21,28.48c0,1,1.67,1.81,3.72,1.81s3.72-.81,3.72-1.81-1.66-1.8-3.72-1.8S70.21,27.49,70.21,28.48Z"/><path class="cls-1" d="M32.68,15.17c0,1,1.67,1.81,3.72,1.81s3.72-.81,3.72-1.81-1.66-1.8-3.72-1.8S32.68,14.17,32.68,15.17Z"/><path class="cls-1" d="M36.45,29.6c0,1,1.67,1.81,3.72,1.81s3.72-.81,3.72-1.81-1.67-1.8-3.72-1.8S36.45,28.61,36.45,29.6Z"/><path class="cls-1" d="M67.09,46.81c0,1,1.66,1.8,3.72,1.8s3.72-.8,3.72-1.8S72.86,45,70.81,45,67.09,45.82,67.09,46.81Z"/><path class="cls-1" d="M78.53,57c0,1,1.67,1.8,3.72,1.8S86,58,86,57s-1.67-1.81-3.72-1.81S78.53,56,78.53,57Z"/><path class="cls-1" d="M67.09,39.62c0,1,1.66,1.8,3.72,1.8s3.72-.81,3.72-1.8-1.67-1.81-3.72-1.81S67.09,38.62,67.09,39.62Z"/><path class="cls-1" d="M86.77,45.62c0,1,1.67,1.81,3.72,1.81s3.72-.81,3.72-1.81-1.67-1.8-3.72-1.8S86.77,44.62,86.77,45.62Z"/><path class="cls-1" d="M52.43,33.37c0,1,1.67,1.81,3.72,1.81s3.72-.81,3.72-1.81-1.67-1.8-3.72-1.8S52.43,32.37,52.43,33.37Z"/><path class="cls-1" d="M53,41.42c0,1,1.66,1.8,3.72,1.8s3.71-.8,3.71-1.8-1.66-1.8-3.71-1.8S53,40.43,53,41.42Z"/><path class="cls-1" d="M94.92,38.29c0,1,1.66,1.8,3.72,1.8s3.72-.8,3.72-1.8-1.67-1.81-3.72-1.81S94.92,37.29,94.92,38.29Z"/><path class="cls-1" d="M94.92,31.1c0,1,1.66,1.8,3.72,1.8s3.72-.81,3.72-1.8-1.67-1.81-3.72-1.81S94.92,30.1,94.92,31.1Z"/><path class="cls-1" d="M114.6,37.1c0,1,1.66,1.8,3.72,1.8s3.72-.81,3.72-1.8-1.67-1.8-3.72-1.8S114.6,36.1,114.6,37.1Z"/><path class="cls-1" d="M80.26,24.85c0,1,1.67,1.81,3.72,1.81s3.72-.81,3.72-1.81S86,23.05,84,23.05,80.26,23.85,80.26,24.85Z"/><path class="cls-1" d="M80.84,32.9c0,1,1.66,1.8,3.71,1.8s3.72-.8,3.72-1.8-1.66-1.8-3.72-1.8S80.84,31.9,80.84,32.9Z"/></g></g></svg>