<svg xmlns="http://www.w3.org/2000/svg" xmlns:xlink="http://www.w3.org/1999/xlink" viewBox="0 0 70.4 93.73"><defs><style>.cls-1{isolation:isolate;}.cls-2{fill:url(#linear-gradient);}.cls-3{fill:#407c1d;}.cls-4{fill:url(#linear-gradient-2);}.cls-5{fill:url(#linear-gradient-3);}.cls-6{fill:url(#linear-gradient-4);}.cls-7{opacity:0.5;fill:url(#linear-gradient-5);}.cls-12,.cls-7,.cls-9{mix-blend-mode:multiply;}.cls-8{fill:url(#linear-gradient-6);}.cls-12,.cls-9{opacity:0.7;}.cls-9{fill:url(#linear-gradient-7);}.cls-10{fill:#bdf64a;}.cls-11{fill:url(#linear-gradient-8);}.cls-12{fill:url(#linear-gradient-9);}</style><linearGradient id="linear-gradient" x1="14.33" y1="53.07" x2="52.22" y2="53.07" gradientUnits="userSpaceOnUse"><stop offset="0" stop-color="#75492c"/><stop offset="1" stop-color="#8c5f46"/></linearGradient><linearGradient id="linear-gradient-2" x1="59.92" y1="3.86" x2="59.92" y2="25.53" gradientTransform="matrix(0.94, -0.01, -0.01, 1, -19.27, -2.9)" gradientUnits="userSpaceOnUse"><stop offset="0" stop-color="#94c93a"/><stop offset="1" stop-color="#3e9224"/></linearGradient><linearGradient id="linear-gradient-3" x1="34.54" y1="9.01" x2="34.54" y2="26.12" gradientUnits="userSpaceOnUse"><stop offset="0" stop-color="#94c93a"/><stop offset="1" stop-color="#217f1c"/></linearGradient><linearGradient id="linear-gradient-4" x1="16.22" y1="-44.4" x2="19.8" y2="-10.28" gradientTransform="translate(-4.2 54.38) rotate(9.47)" xlink:href="#linear-gradient-3"/><linearGradient id="linear-gradient-5" x1="10.03" y1="46.47" x2="19.86" y2="28.6" gradientUnits="userSpaceOnUse"><stop offset="0" stop-color="#2f8820"/><stop offset="1" stop-color="#fff"/></linearGradient><linearGradient id="linear-gradient-6" x1="37.12" y1="84.58" x2="40.52" y2="117.04" gradientTransform="translate(-5.6 -60.16) rotate(-11.72)" xlink:href="#linear-gradient-3"/><linearGradient id="linear-gradient-7" x1="59.19" y1="45.2" x2="51.62" y2="27.29" xlink:href="#linear-gradient-5"/><linearGradient id="linear-gradient-8" x1="36.71" y1="24.21" x2="34.09" y2="57.45" xlink:href="#linear-gradient-3"/><linearGradient id="linear-gradient-9" x1="35.62" y1="54.18" x2="35.62" y2="38.83" xlink:href="#linear-gradient-5"/></defs><title>tre_02</title><g class="cls-1"><g id="Layer_2" data-name="Layer 2"><g id="Layer_1-2" data-name="Layer 1"><g id="_15" data-name="15"><path class="cls-2" d="M51.63,39c-1,.92-4.05,3.71-5.72,5.28.49-1.18,1.16-2.79,1.79-4.42,1.22-3.12,2.28-6.3,2.28-6.3s-1.27,3.1-2.69,6.13-2.95,6-2.95,6v0s0,0,0,0c-2.59,2.36-5,4.34-5.26,3.73-.57-1.22.92-3.8,1.47-4.87s1.23-2.74,2.11-4.85c.49-.41,1.54-1.29,2.55-2.21,1.4-1.25,2.73-2.57,2.73-2.57s-1.48,1.15-3,2.22c-.59.42-1.18.83-1.7,1.17.9-2.14,1.89-4.46,2.88-6.5-1.62,1-6.8,11.37-7.22,12-.21.31-.55.66-.9.51-.47-.41,1.48-7.83,2.92-13.46l.8-1c.64-.79,1.45-1.87,2.2-3a45.81,45.81,0,0,0,2.74-4.63,47.19,47.19,0,0,1-3.09,4.36c-.76,1-1.56,1.85-2.21,2.55.65-2.47,1.24-4.56,1.6-5.62.3-.89.63-1.78,1-2.66l5-4.49-4.44,3.12a37.83,37.83,0,0,0,2-6.4c-.64-.43-3.31,6.71-4.3,8.9a32.09,32.09,0,0,1-4.65-9.64c-.92,1.66,2.48,7.48,3,9.3.88,3.16-5.79,27.53-6.56,27.25-.46-.18-1.68-7-1.93-8.47-.22-1.26-.39-2.53-.59-3.79a24,24,0,0,1,0-5.93c.17-2,.38-4.64.51-7.31s.14-5.32.05-7.32-.2-3.32-.2-3.32.07,1.33.06,3.32-.12,4.65-.35,7.29-.56,5.29-.81,7.26c0,.25-.07.48-.1.71-1.07-6.11-2.9-15.18-3.32-16.68,0,0-.1,2.07,1.21,10.66-.55-1.09-1.17-2.43-1.75-3.82C26,20,25.38,18.34,24.93,17.12l-.76-2,.62,2.08c.38,1.24.89,2.91,1.46,4.55S27.46,25,28,26.19l.1.22.08.19.15.39.26.64.22.55v0l0,0c.59,4.43,1,8.88,1.33,13.34-.42-.71-.93-1.56-1.47-2.39-1.32-2.1-2.77-4.1-2.77-4.1s1.26,2.13,2.39,4.32c.9,1.73,1.72,3.5,2,4.16q.24,3,.52,6.08a1.08,1.08,0,0,1-1.18,1.2c-.41-.05-1.61-1.3-3.11-3.08L24.67,34.59l.91,12C21.92,42.23,17.23,36,17.23,36c1.49,2.52,2.94,4.77,4.31,6.8l-.42,0a8,8,0,0,1-1-.09,15,15,0,0,1-1.79-.41l-.8-.23.76.36a13,13,0,0,0,1.73.71,9.6,9.6,0,0,0,1,.27l.84.19.22,0c4.76,6.92,8.49,10.95,9.18,12.66,1.58,3.88.16,29.05.24,35.53,0,1.08,1.72,2,3.49,2,2.21,0,3.74-.91,4-1.89.31-1.37-1.11-26.4-1.11-34.73,0-4.44,10.54-13.31,14.42-18.2A.68.68,0,0,0,51.63,39Z"/><path class="cls-3" d="M65.68,21.83a.42.42,0,0,1-.42.33l0,.08a.45.45,0,0,1-.14.5.37.37,0,0,1-.37.06.56.56,0,0,1,0,.36.45.45,0,0,1-.26.29.45.45,0,0,1-.11.56.77.77,0,0,1-.54.09.64.64,0,0,1,.19.29.45.45,0,0,1-.14.51s-.09,0-.14,0a.9.9,0,0,1,.71.55.43.43,0,0,1-.07.41.64.64,0,0,1-.61.12.81.81,0,0,1,.42.45.45.45,0,0,1-.08.42.43.43,0,0,0,0,.07c.08.24-.07.53-.27.51l-.09,0a1.12,1.12,0,0,0,.19.29.58.58,0,0,1,.22.45.44.44,0,0,1-.15.39.34.34,0,0,1-.38,0,2,2,0,0,1,.23.94c0,.3-.28.44-.45.29a2.14,2.14,0,0,1-.45-1l-.1-.3,0,0h0a2.83,2.83,0,0,1,.19.76c0,.38-.33.68-.53.35,0,0,0,0,0,0a.2.2,0,0,1-.22,0,.65.65,0,0,1-.17-.16,2.5,2.5,0,0,1,.12.75c0,.39-.35.46-.53.26a.86.86,0,0,1,0,.24.4.4,0,0,1-.17.3l0,0a.27.27,0,0,1-.35,0,1.27,1.27,0,0,1-.28-.54.26.26,0,0,1,0,.08l0,.05h0a5.29,5.29,0,0,0,.15.57,1.29,1.29,0,0,1,.17.71c0,.26-.2.38-.38.33s-.34-.31-.43-.62a1.41,1.41,0,0,1,0,.46c-.05.32-.36.55-.54.25a1.45,1.45,0,0,1-.09-.25.59.59,0,0,0,0,.13,5.33,5.33,0,0,1,.11,1.26c0,.39-.4.46-.53.15a2.81,2.81,0,0,1-.17-.72c-.07.16-.23.27-.35.13a1,1,0,0,1-.22-.48h0c-.07.21-.27.34-.42.19a.83.83,0,0,1-.18-.32.26.26,0,0,1-.46,0l0-.06a.23.23,0,0,1-.32.09,1.44,1.44,0,0,1,0,.62c-.06.23-.29.33-.43.19a1.77,1.77,0,0,1-.36-1,.22.22,0,0,1-.08,0c0,.05,0,.11,0,.16a2.34,2.34,0,0,1,0,.7c-.06.29-.39.37-.52.14a1.61,1.61,0,0,1-.15-.6l-.09,0a1.12,1.12,0,0,1-.15.57c-.11.17-.3.23-.42,0a1.37,1.37,0,0,1-.13-.58.49.49,0,0,1,0,.16.25.25,0,0,1-.45,0,1,1,0,0,1-.15-.48c-.2.17-.5,0-.51-.41a1.64,1.64,0,0,1,0-.22.25.25,0,0,1-.11,0,.94.94,0,0,1-.08.36.24.24,0,0,1-.36.12v.06a.27.27,0,0,1-.35.22.63.63,0,0,1-.31-.42,2.34,2.34,0,0,1,0,1c-.07.29-.4.4-.53.14a1.7,1.7,0,0,1-.15-.45l0,.05,0,0a.2.2,0,0,1-.24.06l-.06,0a.42.42,0,0,1-.22-.34s0-.08,0-.11c-.08.33,0,.94-.44.84a.41.41,0,0,1-.32-.39,2.08,2.08,0,0,1,0-.35l-.11,0a1.45,1.45,0,0,1-.09.55.23.23,0,0,1-.37.09.55.55,0,0,1-.18-.26.26.26,0,0,1-.5,0,2.27,2.27,0,0,1-.08-.55.21.21,0,0,1-.27,0,1.86,1.86,0,0,1,0,.47c0,.33-.34.52-.51.24a2.16,2.16,0,0,1-.26-.89l0,0,.09.47a1.27,1.27,0,0,1,0,.92c-.07.12-.2.2-.31.13a.69.69,0,0,1-.29-.47,1.34,1.34,0,0,1-.1.37.23.23,0,0,1-.42,0,1.78,1.78,0,0,1-.14-.72l-.06,0a1,1,0,0,1-.21.58.22.22,0,0,1-.38-.06,1.6,1.6,0,0,1-.11.4.25.25,0,0,1-.3.16,2.13,2.13,0,0,1-.07.27c-.1.31-.4.28-.46,0a5.23,5.23,0,0,1,.06-1.52,1.14,1.14,0,0,1-.34.54.25.25,0,0,1-.38-.15c-.13.06-.27,0-.32-.19a1.17,1.17,0,0,1,0-.67A.33.33,0,0,1,44,31.9l0-.12-.06,0a1.28,1.28,0,0,1-.25.48.24.24,0,0,1-.31.07,2.07,2.07,0,0,1-.4,1c-.17.17-.42.09-.46-.21a2,2,0,0,1,.12-.81l-.08.13c-.17.19-.38.06-.44-.19a0,0,0,0,1,0,0,.24.24,0,0,1-.4,0,.74.74,0,0,1-.1-.26c0,.19-.07.37-.11.55-.07.36-.1.63-.37.82a.24.24,0,0,1-.36-.09,1.54,1.54,0,0,1,0-1.08l.09-.43s0,.05,0,.07c-.15.24-.38.22-.5,0a1,1,0,0,1-.08-.42.64.64,0,0,1-.16.2c-.14.12-.25.07-.38,0a.4.4,0,0,1-.13-.26.91.91,0,0,1-.29.74A.26.26,0,0,1,39,32c-.36-.29-.25-1.09-.11-1.72a.38.38,0,0,1-.13.15.26.26,0,0,1-.29,0,.51.51,0,0,1-.24-.5s0,0,0,0a.69.69,0,0,1-.33.36c-.12.06-.24-.06-.3-.19a1.05,1.05,0,0,1,0-.7c-.15.32-.34.6-.58.64s-.29-.08-.33-.3a1.56,1.56,0,0,1,.35-1.06c-.24.1-.45-.19-.37-.51a1.17,1.17,0,0,1,.1-.26,1.67,1.67,0,0,1-.38.33c-.32.21-.62-.28-.42-.67a3,3,0,0,1,.52-.71.42.42,0,0,1-.23-.24,1.94,1.94,0,0,1-.4,0c-.3,0-.39-.63-.1-.78l.11-.06h0a1.11,1.11,0,0,1-.84-.26.49.49,0,0,1,.17-.8L35,24.6c-.44-.18-.23-1,.18-1a3.18,3.18,0,0,0-.44-.24c-.36-.15-.18-.79.15-.81h.07c0-.27.07-.6.32-.65h0a.46.46,0,0,1-.1-.64.75.75,0,0,1-.08-.18c-.15.43-.68.33-.63-.18a1.6,1.6,0,0,1,.34-.75,2.36,2.36,0,0,1-.59-.42c-.38-.34,0-1.12.42-.8a.64.64,0,0,1,.19-.45h0a.93.93,0,0,1-.66-.31c-.38-.35,0-1.17.43-.81a1.05,1.05,0,0,0,.31.17,2.8,2.8,0,0,1-.19-.63c-.08-.4.39-.73.56-.37h0a.34.34,0,0,1,.41-.22l.38.12a.89.89,0,0,1,.08-.17l-.3-.21a.43.43,0,0,1-.13-.26.31.31,0,0,1-.16.19c-.3.1-.51-.23-.69-.5s.15-1,.45-.66a1.11,1.11,0,0,1,.43.68c.06-.18.18-.33.34-.29h0a1.43,1.43,0,0,1-.27-.84c0-.47.48-.52.62-.18s.24.32.34.5a.25.25,0,0,1,.17,0,.87.87,0,0,1-.08-.26c0-.25.16-.5.34-.46l0-.12a2,2,0,0,1-.14-.36c-.11-.43.21-.73.45-.58a1.91,1.91,0,0,1,.53-.64c0-.24.2-.35.35-.32v0c-.17-.6.4-.94.64-.54a4,4,0,0,1-.11-.82c0-.4.4-.49.57-.26a2.33,2.33,0,0,1,.35.81l0,0a2.11,2.11,0,0,1-.1-.89.44.44,0,0,1,.26-.4A1.88,1.88,0,0,1,40,8.44c.07-.28.3-.32.46-.18a.35.35,0,0,1,.47-.17,1.48,1.48,0,0,1,0-.21c0-.44.3-.61.5-.47a.35.35,0,0,1,.3-.12c-.06-.23-.12-.47-.16-.69-.08-.43.39-.74.58-.39s.33.67.48,1a.17.17,0,0,1,0,0c0-.07-.05-.15-.08-.23-.09-.3.19-.69.4-.45A3.51,3.51,0,0,1,43.2,7c0-.29.26-.42.45-.33,0-.07,0-.15,0-.22,0-.41.39-.65.54-.25l0,.15c0-.12,0-.25,0-.38,0-.36.39-.44.5-.14a2.21,2.21,0,0,1,.14.52c0-.14,0-.27,0-.41A5.24,5.24,0,0,1,45,4.6a.29.29,0,0,1,.58,0c0,.31,0,.61,0,.91.13-.12.3-.12.37.12l0,.15c0-.18,0-.36,0-.54,0-.46.56-.42.53,0a6.23,6.23,0,0,1-.07.86h0c.06-.21.14-.42.2-.61.11-.37.56-.27.51.14,0,.23,0,.5-.08.76a.36.36,0,0,1,0-.09c.06-.13.15-.17.24-.15l.08-.12c.19-.33.59-.09.47.32V6.5c.15-.23.43-.09.49.17l.06-.87c0-.62.76-.56.72.06,0,.1,0,.2,0,.3.15-.17.4,0,.47.19l0-.07c.13-.44.68-.33.61.16a2.54,2.54,0,0,0,0,.29h0a2.41,2.41,0,0,1,.26-.81c.15-.27.43-.18.48.12a2.18,2.18,0,0,1,0,.52,2.63,2.63,0,0,1,.2-.33c.22-.33.62-.1.51.35,0,0,0,0,0,.07.19,0,.39.15.29.45l-.15.41L52,7.22c.22-.39.61,0,.44.4-.07.16-.13.32-.2.46l0,.05A1.21,1.21,0,0,0,52.31,8c.12-.41.51-.35.62-.07a3.18,3.18,0,0,1,.18-.37c.17-.28.54-.16.5.23a5.89,5.89,0,0,1-.28,1.19V9l0,0a3.6,3.6,0,0,1,.29-.78c.13-.26.38-.17.46.06.14-.16.37-.07.44.16.15-.23.43-.1.47.2.07-.16.14-.31.19-.44.15-.39.59-.21.48.21-.05.18-.1.39-.15.6a1.93,1.93,0,0,1,.24-.25c.16-.13.33.07.33.29h0c.13-.29.52-.12.47.22,0,.11-.05.23-.07.34.08-.15.17-.31.26-.45.19-.29.6-.09.47.32a7.92,7.92,0,0,1-.33.8l.29-.29c.3-.32.61.22.36.58l-.21.3a.33.33,0,0,1,0,.14v0a4.68,4.68,0,0,1,.37-.29c.17-.12.37.1.35.32a.24.24,0,0,1,.32.12.48.48,0,0,1,.09.11.23.23,0,0,1,.21,0,3.69,3.69,0,0,1,.12-.81c.12-.35.48-.31.54,0a2.27,2.27,0,0,1,0,.45c.16-.17.45,0,.44.33,0,.13,0,.28,0,.42h0c0-.12,0-.24.05-.36a.26.26,0,0,1,.51,0v.33c0-.27.11-.54.16-.76.09-.41.51-.23.51.14v.23l.06-.14c.19-.39.54-.07.5.3l0-.07c.2-.34.65-.09.51.35-.05.15-.11.33-.18.51.21-.17.43-.32.62-.48s.54.35.29.6-.39.43-.6.63a.28.28,0,0,1,.17,0,.4.4,0,0,1,.12.52.72.72,0,0,1-.14.19.51.51,0,0,1,.39-.15c.18,0,.27.25.22.47,0,0,0,.09-.05.13a.81.81,0,0,1,.27,0,.33.33,0,0,1,.22.29.59.59,0,0,1,.52,0,.4.4,0,0,1,.11.52L64,15l0,0,0,.07a1,1,0,0,1,.42-.12c.13,0,.25.13.31.28l0,.05a.5.5,0,0,1,0,.27.92.92,0,0,1,.93.54.45.45,0,0,1-.13.5.91.91,0,0,1-.69,0h0a.45.45,0,0,1,0,.45s0,.05,0,.08a.42.42,0,0,1-.13.48,1,1,0,0,1-.42.07.9.9,0,0,1-.2.14.51.51,0,0,1,0,.25l.25,0a.32.32,0,0,1,.21-.2,1,1,0,0,1,.85.13.45.45,0,0,1-.05.64.84.84,0,0,1-.67.06.34.34,0,0,1-.09.12,1,1,0,0,1-.37.16.8.8,0,0,1,.6.34.43.43,0,0,1-.1.54.51.51,0,0,1-.24.1.42.42,0,0,1,.35.11.48.48,0,0,1,.06.54.68.68,0,0,1-.44.36,4.3,4.3,0,0,0,.69.23A.47.47,0,0,1,65.68,21.83Z"/><path class="cls-3" d="M34.84,29.47a5.74,5.74,0,0,0-.69-.26.69.69,0,0,1,.12.56.48.48,0,0,1-.39.38.48.48,0,0,1-.34-.13.61.61,0,0,1,.13.22.45.45,0,0,1-.27.49.79.79,0,0,1-.67-.11.9.9,0,0,1,.18.35.38.38,0,0,1,0,.15.88.88,0,0,1,.48.47.45.45,0,0,1-.37.53,1,1,0,0,1-.74-.43.32.32,0,0,1,0-.29,1.28,1.28,0,0,1-.21-.14.61.61,0,0,1-.19.17.84.84,0,0,1,.07.24.88.88,0,0,1,.28.32.42.42,0,0,1-.2.45l-.08,0a.43.43,0,0,1-.28.35h0c.22.11.44.16.55.41a.44.44,0,0,1-.2.48.93.93,0,0,1-1.06-.17.52.52,0,0,1-.18.21l-.05,0a.36.36,0,0,1-.41,0,1.07,1.07,0,0,1-.25-.35l-.08,0h-.06a.22.22,0,0,1,0,.08.39.39,0,0,1-.41.33.58.58,0,0,1-.41-.33.29.29,0,0,1-.35.09.53.53,0,0,1-.18-.21.57.57,0,0,1,0,.14c-.1.21-.32.33-.47.23a.57.57,0,0,1-.21-.36.61.61,0,0,1,0,.23.42.42,0,0,1-.42.34.4.4,0,0,1-.16-.08c0,.29.05.59.07.87s-.52.62-.6.28-.12-.49-.18-.75c-.06.18-.13.35-.18.51-.17.42-.67.34-.62-.06,0,0,0-.05,0-.08-.2.32-.67.35-.57-.07l0-.15-.14.18c-.23.29-.67.16-.48-.22a7.51,7.51,0,0,1,.35-.69,2.39,2.39,0,0,1-.21.26c-.23.25-.58,0-.42-.28a2.46,2.46,0,0,1,.19-.32h0l-.26.33c-.19.25-.53.21-.55,0a1.9,1.9,0,0,1-.3.33c-.28.24-.58,0-.45-.3a4.21,4.21,0,0,1,.41-.71.21.21,0,0,1-.13-.17.31.31,0,0,1-.13,0,.23.23,0,0,1-.32-.11c-.13.19-.42.23-.48,0s-.08-.29-.11-.45l0,0a.24.24,0,0,1-.05.14c0,.12,0,.25,0,.36,0,.44-.61.66-.65.22l0-.4a8,8,0,0,1-.26.83c-.15.41-.59.3-.56,0,0-.18.05-.35.08-.52-.05.1-.1.21-.16.31-.17.3-.58.18-.5-.13h0c-.13.17-.39.22-.43,0a1.72,1.72,0,0,1,0-.34c-.09.2-.19.39-.26.56-.18.4-.63.26-.51-.13,0-.14.08-.3.13-.46-.22.2-.52.12-.49-.14-.2.12-.44,0-.45-.16-.2.13-.45,0-.39-.24a3.7,3.7,0,0,1,.27-.79l-.06,0v0a5.66,5.66,0,0,1-.53,1.11c-.21.33-.57.19-.53-.13a3.06,3.06,0,0,1,.1-.41c-.27.15-.61,0-.45-.44,0-.06.05-.12.07-.17h-.06c0,.15-.09.31-.13.48-.12.43-.67.48-.59,0a3.06,3.06,0,0,1,.05-.32l-.15.41c-.1.3-.38.32-.5.17l0,.07c-.2.42-.65.35-.62-.06a2.83,2.83,0,0,1,.06-.37,2.71,2.71,0,0,1-.34.39c-.24.2-.51.09-.46-.21a2.12,2.12,0,0,1,.32-.79h0c0,.08-.11.16-.16.25-.25.42-.74.16-.57-.26l0-.07c-.2.14-.47.08-.49-.15l-.17.25c-.35.51-1,.1-.59-.41l.49-.71c-.2.16-.51.1-.49-.18L12,30c-.17.39-.63.33-.58-.05a.59.59,0,0,0,0-.14.21.21,0,0,1-.09-.27.29.29,0,0,1,0-.09c-.12.22-.29.44-.41.64s-.63.14-.49-.22c.08-.18.15-.39.23-.59h0a6.8,6.8,0,0,1-.48.71c-.27.38-.7.09-.44-.3l.31-.45-.13.1c-.2.14-.33,0-.36-.13L9,29.91c-.26.3-.63,0-.47-.32a4.72,4.72,0,0,1,.74-1.1,3.65,3.65,0,0,1,.27-.3,3.19,3.19,0,0,1-.44.31c-.27.17-.51-.13-.3-.42a2.37,2.37,0,0,1,.23-.3l-.13.09c-.37.22-.54-.23-.27-.53l.16-.17a.34.34,0,0,1-.15-.54,3.63,3.63,0,0,1-.45.11c-.31.06-.28-.42,0-.59L8.35,26l-.06,0c-.33.18-.66.35-1,.5s-.53-.39-.21-.67a5.06,5.06,0,0,1,.57-.44.35.35,0,0,1-.17-.29c-.24,0-.38-.34-.09-.68l.14-.16a.33.33,0,0,1-.26-.42c-.21,0-.36-.16-.24-.43a1.92,1.92,0,0,1,.9-1A.44.44,0,0,1,8,22a2.1,2.1,0,0,1,.63-.63v0a2.46,2.46,0,0,1-.78.41c-.28.07-.53-.25-.28-.56a3.63,3.63,0,0,1,.6-.57c-.44.16-.67-.46-.16-.82l0,0c-.13-.07-.18-.25-.07-.47a2.11,2.11,0,0,1,0-.83c-.28,0-.33-.47,0-.73a1.5,1.5,0,0,1,.33-.19l.06-.12c-.17-.08-.18-.4,0-.57a.86.86,0,0,1,.22-.15.28.28,0,0,1-.11-.13,3.43,3.43,0,0,0-.58.17c-.32.18-.66-.16-.37-.52a1.49,1.49,0,0,1,.74-.49h0c-.14-.07-.15-.26-.08-.44a1.17,1.17,0,0,1-.76.26c-.41,0-.36-.67.06-.8s.68-.22.85,0a.31.31,0,0,1,0,.25.42.42,0,0,1,.26-.12c.12,0,.24,0,.36,0s0-.13.05-.19l-.37-.14a.34.34,0,0,1-.18-.43h0c-.36.17-.52-.39-.21-.65a2.63,2.63,0,0,1,.55-.37,1,1,0,0,0-.36-.06c-.52,0-.34-.87.18-.91a1,1,0,0,1,.71.18h0a.56.56,0,0,1,.14-.47c-.5,0-.34-.86.17-.89a2.54,2.54,0,0,1,.73,0,1.46,1.46,0,0,1,.2-.79c.28-.43.75-.17.61.25a.53.53,0,0,1,.17-.08.45.45,0,0,1,.47-.44h0c-.17-.2-.05-.53.16-.71l-.06-.05c-.24-.23,0-.84.4-.73a2.5,2.5,0,0,0,.49.09c-.34-.23,0-1,.48-.88l.27.07a.49.49,0,0,1,.36-.73,1.1,1.1,0,0,1,.82.32h0L14.7,7.3c-.13-.3.33-.74.56-.55a1.9,1.9,0,0,1,.29.28.39.39,0,0,1,.33,0,3.31,3.31,0,0,1,0-.89c.1-.43.63-.62.75-.25a2.47,2.47,0,0,1,.09.5,1.07,1.07,0,0,1,.08-.27c.14-.31.49-.39.61-.17a1.54,1.54,0,0,1,.4-1,.29.29,0,0,1,.44,0,1,1,0,0,1,.05.86,1.08,1.08,0,0,1,.43-.55c.12-.06.29-.08.35,0a.69.69,0,0,1,0,.49l0,0a.51.51,0,0,1,.5-.24.27.27,0,0,1,.21.2.49.49,0,0,1,0,.21c.28-.58.7-1.27,1.16-1.27a.23.23,0,0,1,.25.17.88.88,0,0,1-.23.76.42.42,0,0,1,.26-.12c.17,0,.28,0,.32.21a.83.83,0,0,1,0,.27A1,1,0,0,1,22,5.56c.26-.13.45,0,.42.28a.19.19,0,0,0,0,.07c.07-.12.13-.25.2-.38.2-.38.31-.67.69-.84a.25.25,0,0,1,.34.16c.08.32-.06.54-.23.88l-.26.48a1,1,0,0,1,.24-.14.24.24,0,0,1,.33.23v0c.2-.16.44-.13.45.13a.61.61,0,0,1,0,.14,1.85,1.85,0,0,1,.41-.7c.22-.21.46-.12.49.13a2,2,0,0,1-.32,1,.24.24,0,0,1,.2.25,1.41,1.41,0,0,1-.11.54h.06a.39.39,0,0,1,.06-.11.33.33,0,0,1,.41-.18,1.19,1.19,0,0,1,.44-.5c.14-.08.31-.07.37,0a.26.26,0,0,1,.39.12,1.16,1.16,0,0,1-.08.64,5.18,5.18,0,0,1,.91-1.22c.24-.2.49,0,.38.26,0,.09-.08.17-.12.26a.26.26,0,0,1,.14.31,1.33,1.33,0,0,1-.17.38c.17-.06.32,0,.33.19a1,1,0,0,1-.2.59s0,0,0,.06a1.85,1.85,0,0,1,.56-.47.23.23,0,0,1,.3.29,1.17,1.17,0,0,1-.14.35A.72.72,0,0,1,29,8.7c.12,0,.17.17.15.3-.06.35-.29.51-.55.73L28.2,10l0,0A2.48,2.48,0,0,1,29,9.55c.31-.11.43.22.26.51a2.48,2.48,0,0,1-.31.36.21.21,0,0,1,.21.16,2,2,0,0,1,.41-.37c.24-.16.46,0,.41.28a.51.51,0,0,1,.31-.09.23.23,0,0,1,.22.3,1.39,1.39,0,0,1-.27.49l.11,0,.22-.27a.42.42,0,0,1,.5-.1c.38.17,0,.62-.18.93l.08-.08a.42.42,0,0,1,.38-.13l.06,0a.2.2,0,0,1,.15.2v.07s0,0,0,.06a1.66,1.66,0,0,1,.4-.27c.26-.11.46.18.33.45a2.68,2.68,0,0,1-.6.74.59.59,0,0,1,.51-.13.27.27,0,0,1,.13.39l0,.05a.23.23,0,0,1,.21.31,1,1,0,0,1-.17.33l.11,0c0-.06.08-.13.12-.18.24-.29.61-.26.66,0a1,1,0,0,1,.42-.28.25.25,0,0,1,.32.32.94.94,0,0,1-.06.15,1.27,1.27,0,0,1,.47-.37c.2-.07.32.09.3.29a1.29,1.29,0,0,1-.24.54.16.16,0,0,1,.09,0A1.86,1.86,0,0,1,35,14c.24-.1.46.17.32.43a2.14,2.14,0,0,1-.43.56,1.47,1.47,0,0,0-.1.13l.06,0a1.71,1.71,0,0,1,.89-.53c.19,0,.31.2.21.42a1.5,1.5,0,0,1-.39.48.23.23,0,0,1,.19.27l.07,0c.22-.06.36.09.34.32a.77.77,0,0,1,.34-.14c.21,0,.28.2.21.41h0a1,1,0,0,1,.47-.24c.18,0,.23.15.19.32a2.79,2.79,0,0,1,.58-.46c.3-.16.53.13.32.45a5.06,5.06,0,0,1-.88.91l-.1.09a1.41,1.41,0,0,1,.24-.13c.32-.13.42.24.26.53a1.46,1.46,0,0,1-.3.35.86.86,0,0,1,.73-.21c.17.07.23.28.08.5a1.42,1.42,0,0,1-.57.44,5.34,5.34,0,0,0-.48.35h0v.05a.69.69,0,0,1,0,.08,1.34,1.34,0,0,1,.55-.24.27.27,0,0,1,.29.2l0,0a.4.4,0,0,1-.07.34.66.66,0,0,1-.16.17c.26,0,.47.22.24.53a2.15,2.15,0,0,1-.56.52.65.65,0,0,1,.24,0,.19.19,0,0,1,.15.16l0,0c.36-.13.45.33.19.6a2.82,2.82,0,0,1-.62.47h0s0,0,0,.06l.27-.18a2.17,2.17,0,0,1,.95-.47c.23,0,.34.27.17.52a2.15,2.15,0,0,1-.76.59.32.32,0,0,1,.26.26.43.43,0,0,1-.13.4.58.58,0,0,1-.45.22,1,1,0,0,0-.33.1l.09,0c.16.11.1.43-.12.56l-.07,0a.45.45,0,0,1-.2.37.84.84,0,0,1-.61.1.59.59,0,0,1,.4.47.44.44,0,0,1-.2.36.9.9,0,0,1-.9,0,.54.54,0,0,1,.09.12.47.47,0,0,1-.21.48.72.72,0,0,1-.33.11.73.73,0,0,1,.36.41.46.46,0,0,1-.26.5.47.47,0,0,1,0,.39.53.53,0,0,1-.19.31.35.35,0,0,1,.25.27.46.46,0,0,1-.2.48l-.08,0a.42.42,0,0,1,.12.52A.47.47,0,0,1,34.84,29.47Z"/><path class="cls-4" d="M55.64,19.25c-.08.23-.3.28-.53.28,0,0,0,0,0,.08a.39.39,0,0,1-.2.47.51.51,0,0,1-.45,0,.49.49,0,0,1-.07.35.51.51,0,0,1-.33.25.38.38,0,0,1-.17.53,1,1,0,0,1-.65,0,.81.81,0,0,1,.21.31.38.38,0,0,1-.2.47.57.57,0,0,1-.18,0,1.09,1.09,0,0,1,.84.61.36.36,0,0,1-.11.39.9.9,0,0,1-.74,0,.94.94,0,0,1,.47.49.37.37,0,0,1-.11.4.15.15,0,0,1,0,.07.35.35,0,0,1-.35.47l-.11,0a1.34,1.34,0,0,0,.22.31.57.57,0,0,1,.24.46.36.36,0,0,1-.21.36.45.45,0,0,1-.45,0,1.7,1.7,0,0,1,.22.94.35.35,0,0,1-.57.23,2,2,0,0,1-.48-1,2.83,2.83,0,0,1-.11-.31s0,0-.07,0h0a2.13,2.13,0,0,1,.19.76c0,.37-.44.62-.66.28,0,0,0,0,0,0a.29.29,0,0,1-.27,0,.82.82,0,0,1-.2-.17,1.77,1.77,0,0,1,.1.74.37.37,0,0,1-.66.2.44.44,0,0,1,0,.23.36.36,0,0,1-.21.28l-.05,0a.41.41,0,0,1-.42-.07,1.25,1.25,0,0,1-.31-.55s0,.05,0,.07l0,.05h0a2.84,2.84,0,0,0,.16.57,1.27,1.27,0,0,1,.17.71.36.36,0,0,1-.48.28.89.89,0,0,1-.5-.65,1.14,1.14,0,0,1,0,.45c-.08.31-.47.49-.67.18a1.45,1.45,0,0,1-.1-.25s0,.09,0,.13A4.29,4.29,0,0,1,47.9,30a.34.34,0,0,1-.65.08,2.45,2.45,0,0,1-.17-.72.27.27,0,0,1-.43.09,1,1,0,0,1-.24-.49h0a.33.33,0,0,1-.52.14.75.75,0,0,1-.2-.33.35.35,0,0,1-.56,0,.21.21,0,0,1,0-.06.33.33,0,0,1-.39,0,1.11,1.11,0,0,1,0,.6.34.34,0,0,1-.53.14,1.62,1.62,0,0,1-.38-1l-.09,0c0,.06,0,.11,0,.17a1.68,1.68,0,0,1-.06.67.36.36,0,0,1-.63.08,1.44,1.44,0,0,1-.16-.6l-.11,0a.89.89,0,0,1-.21.53.32.32,0,0,1-.51,0,1,1,0,0,1-.13-.58.41.41,0,0,1-.07.15.34.34,0,0,1-.55,0,1,1,0,0,1-.16-.48c-.25.14-.6-.1-.59-.46a1.91,1.91,0,0,1,0-.21.21.21,0,0,1-.13-.05,1,1,0,0,1-.12.35.32.32,0,0,1-.44.07s0,0,0,.06a.34.34,0,0,1-.44.18.67.67,0,0,1-.35-.45,2,2,0,0,1-.05.93.38.38,0,0,1-.66.08,1.55,1.55,0,0,1-.15-.46l0,0,0,.05a.27.27,0,0,1-.3,0l-.07,0a.42.42,0,0,1-.25-.35.41.41,0,0,0,0-.11c-.11.31-.1.91-.58.77a.48.48,0,0,1-.37-.42,1.27,1.27,0,0,1,0-.34L36.37,28a1,1,0,0,1-.14.52.31.31,0,0,1-.45.06.58.58,0,0,1-.21-.28.34.34,0,0,1-.6-.09,1.86,1.86,0,0,1-.07-.54.31.31,0,0,1-.32,0,1.4,1.4,0,0,1,0,.46.35.35,0,0,1-.64.17,2,2,0,0,1-.26-.89l0,0c0,.15.06.31.08.46.06.34.14.61-.09.89a.3.3,0,0,1-.37.1.72.72,0,0,1-.34-.49.87.87,0,0,1-.14.34.31.31,0,0,1-.51,0,1.46,1.46,0,0,1-.14-.71A.15.15,0,0,1,32,28a.79.79,0,0,1-.29.54.29.29,0,0,1-.45-.1,1.24,1.24,0,0,1-.16.38.33.33,0,0,1-.38.12,1.14,1.14,0,0,1-.09.26.29.29,0,0,1-.56-.08,4,4,0,0,1,.16-1.48,1.11,1.11,0,0,1-.45.5.35.35,0,0,1-.45-.19.35.35,0,0,1-.38-.22.91.91,0,0,1,0-.65.34.34,0,0,1-.24-.41s0-.08,0-.11l-.06,0a1.18,1.18,0,0,1-.34.44A.32.32,0,0,1,28,27a1.66,1.66,0,0,1-.54.93.34.34,0,0,1-.55-.25,1.4,1.4,0,0,1,.19-.77A.52.52,0,0,1,27,27c-.22.17-.46,0-.52-.23l0,0a.33.33,0,0,1-.49-.07.64.64,0,0,1-.1-.26l-.16.51c-.11.35-.16.6-.5.77a.37.37,0,0,1-.44-.14c-.2-.38-.07-.65.05-1.05l.13-.4,0,.06a.34.34,0,0,1-.6-.09.8.8,0,0,1-.07-.43.74.74,0,0,1-.21.19.41.41,0,0,1-.46-.07.4.4,0,0,1-.14-.27.77.77,0,0,1-.4.68.36.36,0,0,1-.37-.05c-.42-.32-.24-1.09,0-1.69a.46.46,0,0,1-.17.14.41.41,0,0,1-.36,0,.53.53,0,0,1-.26-.52s0,0,0,0a.69.69,0,0,1-.42.32.31.31,0,0,1-.34-.22.85.85,0,0,1,0-.68,1,1,0,0,1-.74.56.37.37,0,0,1-.38-.32,1.29,1.29,0,0,1,.48-1,.38.38,0,0,1-.42-.54,1.38,1.38,0,0,1,.14-.24,2.31,2.31,0,0,1-.48.28c-.4.17-.73-.34-.47-.7a2.89,2.89,0,0,1,.67-.63.51.51,0,0,1-.27-.25,3.92,3.92,0,0,1-.49,0,.41.41,0,0,1-.07-.77l.13-.05h0a1.66,1.66,0,0,1-1-.35.43.43,0,0,1,.26-.75l-.31-.14c-.51-.22-.21-1,.28-.94a4.41,4.41,0,0,0-.52-.28c-.43-.19-.18-.79.22-.78h.1a.5.5,0,0,1,.42-.6h0a.4.4,0,0,1-.09-.63.75.75,0,0,1-.08-.18.4.4,0,0,1-.76-.24,1.25,1.25,0,0,1,.46-.69,3.1,3.1,0,0,1-.7-.48c-.44-.37.11-1.08.56-.73a.51.51,0,0,1,.26-.42h0a1.35,1.35,0,0,1-.8-.37c-.44-.39.13-1.13.57-.75a1.58,1.58,0,0,0,.38.21,2.32,2.32,0,0,1-.21-.63c-.07-.4.52-.67.71-.31v0a.43.43,0,0,1,.51-.18l.45.16L20,10.6l-.35-.24a.34.34,0,0,1-.14-.26.34.34,0,0,1-.21.16c-.37.06-.61-.28-.81-.56s.24-.9.59-.59a1.17,1.17,0,0,1,.48.7A.37.37,0,0,1,20,9.57h0a1.3,1.3,0,0,1-.28-.85.39.39,0,0,1,.76-.09c.09.21.27.33.39.52a.37.37,0,0,1,.21,0A1.14,1.14,0,0,1,21,8.87a.37.37,0,0,1,.44-.4.56.56,0,0,0,0-.12A2.13,2.13,0,0,1,21.36,8a.41.41,0,0,1,.57-.51,2,2,0,0,1,.69-.57.36.36,0,0,1,.44-.27v0a.47.47,0,0,1,.81-.45,2.56,2.56,0,0,1-.08-.81.39.39,0,0,1,.7-.19,2.31,2.31,0,0,1,.38.82l0,0a1.75,1.75,0,0,1-.07-.87.43.43,0,0,1,.34-.36,1.54,1.54,0,0,1,0-1.31.34.34,0,0,1,.56-.13.45.45,0,0,1,.58-.1V3a.42.42,0,0,1,.64-.4.47.47,0,0,1,.38-.09,4.56,4.56,0,0,1-.16-.69c-.07-.42.52-.67.73-.31a10.09,10.09,0,0,1,.52,1l0,.06-.09-.24c-.1-.3.27-.65.51-.4s.21.24.32.4a.4.4,0,0,1,.57-.28,1.48,1.48,0,0,1,0-.21c0-.41.51-.59.66-.19l.06.16c0-.12,0-.24,0-.37a.33.33,0,0,1,.63-.08,2.21,2.21,0,0,1,.14.52v-.4A3.68,3.68,0,0,1,31.43.22a.36.36,0,0,1,.69.11c0,.3,0,.59,0,.88a.28.28,0,0,1,.44.16l0,.15c0-.17,0-.35.08-.52a.33.33,0,1,1,.65.1,5.62,5.62,0,0,1-.14.82h0c.08-.19.19-.38.27-.57a.33.33,0,0,1,.62.19c0,.22-.08.49-.14.73L34,2.2a.24.24,0,0,1,.3-.11l.1-.12a.34.34,0,0,1,.56.37l0,.05a.36.36,0,0,1,.58.23c.05-.28.09-.56.13-.84a.44.44,0,1,1,.87.14c0,.09,0,.19,0,.28a.39.39,0,0,1,.56.23l0-.06a.38.38,0,0,1,.73.22l-.06.28h0a1.83,1.83,0,0,1,.35-.77.32.32,0,0,1,.58.18,1.47,1.47,0,0,1,0,.51c.09-.11.18-.22.26-.3a.36.36,0,0,1,.61.39l0,.07a.31.31,0,0,1,.32.46c-.06.13-.13.26-.2.39l.21-.26c.29-.35.75.07.51.44l-.27.43.05,0a1.3,1.3,0,0,1,.08-.17.4.4,0,0,1,.75,0A2.93,2.93,0,0,1,41.17,4a.34.34,0,0,1,.6.27,5.18,5.18,0,0,1-.41,1.14l0,0,.06,0a2.85,2.85,0,0,1,.4-.73.31.31,0,0,1,.55.11.36.36,0,0,1,.53.2.34.34,0,0,1,.56.24c.09-.14.19-.27.26-.4a.31.31,0,1,1,.56.26c-.06.16-.13.37-.2.57a1.54,1.54,0,0,1,.3-.22c.2-.11.4.11.38.31h0A.32.32,0,0,1,45.3,6c0,.11-.07.22-.11.33a3.58,3.58,0,0,1,.35-.41c.25-.26.74,0,.55.35a6.15,6.15,0,0,1-.44.75L46,6.78c.38-.28.74.28.41.6l-.27.27a.25.25,0,0,1-.06.14v0c.16-.09.32-.16.47-.23s.44.13.41.34a.33.33,0,0,1,.37.16.27.27,0,0,1,.1.11.34.34,0,0,1,.26,0,2.57,2.57,0,0,1,.2-.77.34.34,0,0,1,.65.1,2.14,2.14,0,0,1,0,.44.35.35,0,0,1,.52.36c0,.14,0,.28,0,.41h0c0-.12,0-.23.08-.35a.32.32,0,0,1,.61.09c0,.12,0,.23,0,.33.07-.26.16-.51.23-.72.14-.39.64-.17.61.19,0,.06,0,.15,0,.22l.09-.13c.25-.35.66,0,.58.35l.06-.06a.36.36,0,0,1,.6.39c-.07.15-.15.31-.25.48l.78-.4c.35-.17.64.4.32.62s-.5.37-.76.54a.6.6,0,0,1,.2.07.34.34,0,0,1,.11.51.52.52,0,0,1-.18.18.79.79,0,0,1,.49-.11.35.35,0,0,1,.24.49l-.07.12a.74.74,0,0,1,.33,0,.33.33,0,0,1,.25.31.89.89,0,0,1,.63,0,.35.35,0,0,1,.11.52s0,0-.06,0l.05,0,.06.06a1.81,1.81,0,0,1,.52-.06.46.46,0,0,1,.36.3l0,.06a.39.39,0,0,1,0,.26,1.25,1.25,0,0,1,1.1.62.37.37,0,0,1-.19.47,1.34,1.34,0,0,1-.84-.1h0a.36.36,0,0,1,0,.44l0,.08a.36.36,0,0,1-.19.45,1.26,1.26,0,0,1-.51,0,1.23,1.23,0,0,1-.26.12.35.35,0,0,1,0,.25,1.53,1.53,0,0,1,.32.05.31.31,0,0,1,.26-.18,1.51,1.51,0,0,1,1,.22.37.37,0,0,1-.1.62,1.32,1.32,0,0,1-.81,0,.27.27,0,0,1-.11.1,1.3,1.3,0,0,1-.46.12,1,1,0,0,1,.7.39.36.36,0,0,1-.15.52,1,1,0,0,1-.29.07.65.65,0,0,1,.42.14.4.4,0,0,1,0,.53.76.76,0,0,1-.56.3,7.46,7.46,0,0,0,.83.31A.44.44,0,0,1,55.64,19.25Z"/><path class="cls-5" d="M50.34,25.33a1.48,1.48,0,0,1-.82.36s0,0,0,0a.43.43,0,0,1-.26.62.94.94,0,0,1-.5,0,.41.41,0,0,1-.28.44.76.76,0,0,1-.16,0c.16.27-.11.57-.38.59a1.13,1.13,0,0,1,.18.12.26.26,0,0,1,0,.4.51.51,0,0,1-.58-.09l0,0a2.37,2.37,0,0,1,.46.43.27.27,0,0,1-.26.44,1.08,1.08,0,0,1-.57-.35.48.48,0,0,1-.41.27c0,.36-.43.54-.69.35v0a.42.42,0,0,1-.69.18.91.91,0,0,1-.25-.4h0a1.29,1.29,0,0,1-.09.82.41.41,0,0,1-.7,0,.68.68,0,0,1-.12-.26.39.39,0,0,1-.35-.1l0-.07a.39.39,0,0,1-.59.12h0a.45.45,0,0,1-.85,0,.06.06,0,0,0,0,0,.19.19,0,0,1-.1.05l0,0a1.26,1.26,0,0,1,.4.79.26.26,0,0,1-.39.22,1.19,1.19,0,0,1-.45-.76.23.23,0,0,1,.08-.25l-.09,0a.51.51,0,0,1-.15.21.42.42,0,0,1,.09.14c.12.3-.08.7-.45.58a1.32,1.32,0,0,1-.51-.33l0,.07c.06.05.14.09.18.13a.4.4,0,0,1-.09.63.76.76,0,0,1-.25.06l0,.05c.18.32-.17.76-.5.62a.37.37,0,0,1-.57.27,2.05,2.05,0,0,1-.38-.4.63.63,0,0,1-.1.27.43.43,0,0,1-.68.08.71.71,0,0,1-.08-.15c0,.12-.06.24-.1.36a.45.45,0,0,1-.87-.13s0,0,0-.08l-.11,0c0,.15-.08.77-.33.82s-.32-.34-.32-.68v-.12a.17.17,0,0,0,0-.07.48.48,0,0,1-.18.08.46.46,0,0,1-.68.47l-.13-.09c0,.08.08,1.09-.2,1s-.36-.47-.44-.76h0a.43.43,0,0,1-.61.42.4.4,0,0,1-.57.23.91.91,0,0,1-.21-.18.41.41,0,0,1-.53.39.83.83,0,0,1,0,.27.41.41,0,0,1-.75.09,1,1,0,0,1-.17-.45.4.4,0,0,1-.55-.15,1,1,0,0,1-.09-.42.46.46,0,0,1-.43.13.31.31,0,0,1-.19.09h-.05a.22.22,0,0,1-.18-.15.26.26,0,0,1-.3-.34.14.14,0,0,0,0-.06l0,0-.09,0a.43.43,0,0,1,0,.16.24.24,0,0,1-.4.1.41.41,0,0,1-.09-.1.28.28,0,0,1-.13,0,.49.49,0,0,1,.17.49.23.23,0,0,1-.34.14.55.55,0,0,1-.13-.14.3.3,0,0,1-.21.05.84.84,0,0,1-.15.63.27.27,0,0,1-.37,0,.75.75,0,0,1-.09-.15.69.69,0,0,1-.09.46.24.24,0,0,1-.42,0,.76.76,0,0,1-.08-.53.48.48,0,0,1-.14.09.25.25,0,0,1-.28-.12.51.51,0,0,1,0-.38h0a.23.23,0,0,1-.39-.16v0a.47.47,0,0,1-.18-.12.72.72,0,0,1-.21.34.22.22,0,0,1-.37-.22.76.76,0,0,1,.16-.31h0a.27.27,0,0,1-.08-.27.36.36,0,0,1-.22-.13.51.51,0,0,1-.26-.07s0,0,0,.05a.9.9,0,0,1-.41.59.28.28,0,0,1-.42-.25.89.89,0,0,1,.31-.65.28.28,0,0,1,.19-.09.53.53,0,0,1,0-.21.26.26,0,0,1-.2.08.29.29,0,0,1-.27-.39.27.27,0,0,1-.13-.07.45.45,0,0,1-.7-.22.66.66,0,0,1,0-.14.42.42,0,0,1-.53-.1v.15h0a.35.35,0,0,1-.69,0v0a.27.27,0,0,1,0-.13l0-.12a.41.41,0,0,1,.09-.2.39.39,0,0,1-.42-.37.41.41,0,0,1-.49-.17l-.29.3a.24.24,0,0,1-.25.07c-.28.09-.66-.07-.62-.42a2,2,0,0,1,.15-.59.47.47,0,0,1-.36-.81l0,0a.54.54,0,0,1,0-1l.17-.06a.47.47,0,0,1-.05-.46h-.05a.48.48,0,0,1-.36-.77h-.24c-.28,0-.32-.36-.13-.49a1.09,1.09,0,0,1,.31-.14.43.43,0,0,1,.1-.51,1.51,1.51,0,0,1,.26-.18.4.4,0,0,1-.29-.19,1,1,0,0,1-.7.14c-.13,0-.16-.18-.11-.28a1,1,0,0,1,.69-.49.41.41,0,0,1-.38-.31.82.82,0,0,1,0-.44l-.14,0a.42.42,0,0,1-.38-.3.61.61,0,0,1,.13-.54.46.46,0,0,1-.1-.76l-.15,0c-.39-.13-.45-.76,0-.85a1.86,1.86,0,0,1,.33,0l-.23-.07a.49.49,0,0,1-.21-.78L19,19.55l-.16,0h-.05a.21.21,0,0,1-.1-.4l.14-.05h0a.77.77,0,0,1,.79.16.22.22,0,0,1,.07.25l.11,0c-.09-.28.13-.65.46-.57l-.05,0s0,0,0,0a.16.16,0,0,1-.08.05,1.13,1.13,0,0,1-.69-.13.3.3,0,0,1,.16-.57,3.37,3.37,0,0,1,.48.15.41.41,0,0,1,.05-.09,3.36,3.36,0,0,1-.29-.24.25.25,0,0,1,.24-.42c-.11-.18.05-.46.27-.38a1.27,1.27,0,0,1,.61.42.57.57,0,0,1,.29-.3l-.21-.13a.26.26,0,0,1,.13-.47,1.14,1.14,0,0,1,.66.16.42.42,0,0,1,.27-.27h0l-.08,0a.45.45,0,0,1-.06-.71,1.58,1.58,0,0,1-.78,0,.28.28,0,0,1,0-.54,1.29,1.29,0,0,1,.91.06.25.25,0,0,1,0,.39.28.28,0,0,1,.13,0h.11l0-.06a.55.55,0,0,1-.27-.5l-.28,0a.29.29,0,0,1-.07-.57l.28-.06a.38.38,0,0,1,0-.15H22a.18.18,0,0,1-.07-.05l-.06.07a1.24,1.24,0,0,1-.74.16c-.32,0-.34-.44-.06-.54a1.26,1.26,0,0,1,.74-.1l.06,0a.22.22,0,0,1,.13-.08h.16a.39.39,0,0,1,.14-.56,1.17,1.17,0,0,1,.73-.07.52.52,0,0,1-.08-.77l0,0a.49.49,0,0,1,.49-.13,3,3,0,0,1,.59.38.45.45,0,0,1,0-.36,1.73,1.73,0,0,1-.82-.32c-.23-.15-.16-.61.16-.57a1.46,1.46,0,0,1,1.06.46.16.16,0,0,1,0,.09h.08a1.21,1.21,0,0,1-.22-.37c-.14-.36.38-.5.57-.24,0,0,0,0,0,.05a.53.53,0,0,1,.35-.12l-.05,0a.28.28,0,0,1,.15-.52,1.25,1.25,0,0,1,.76.12.48.48,0,0,1,.14-.44.22.22,0,0,1-.27,0,1.53,1.53,0,0,0-.21-.14c-.22-.09-.27-.44,0-.5a.45.45,0,0,1,.6.34.3.3,0,0,1-.09.27.44.44,0,0,1,.4-.09l.05,0a.58.58,0,0,1,.43-.16,2.36,2.36,0,0,1-.31-.32.27.27,0,0,1,.38-.38l.15.13a.39.39,0,0,1,.5-.05h0a.43.43,0,0,1,.1-.09.49.49,0,0,1,.59.07l0-.13A.4.4,0,0,1,29,8.88a2.54,2.54,0,0,1,0-.73.29.29,0,0,1,.58,0,2.11,2.11,0,0,1,0,.83.39.39,0,0,1-.08.1,1.55,1.55,0,0,1,.38.56,1.89,1.89,0,0,1,.06-.45.39.39,0,0,1,.71-.09,2,2,0,0,1,.28.73,2.77,2.77,0,0,1,.1-.92.42.42,0,0,1,.81,0,2.57,2.57,0,0,1,.08.38.72.72,0,0,1,.2.09h.05a.55.55,0,0,1,.17-.17,2,2,0,0,1-.05-.84c0-.35.58-.36.56,0a3.44,3.44,0,0,0,0,.72H33A1.67,1.67,0,0,1,33,8.41a.28.28,0,0,1,.55.07,1,1,0,0,1,0,.17.53.53,0,0,1,.5.49V9.2c.09-.17.18-.33.25-.49.24-.51.92-.19.92.28a.5.5,0,0,1,.23-.09,2.81,2.81,0,0,1,.08-.6.28.28,0,0,1,.53,0,2,2,0,0,1,0,.92l.09-.12c.36-.51,1.19,0,.84.5-.11.16-.21.35-.32.53h0a.83.83,0,0,1,.08-.12.55.55,0,0,1,1,.28,1.58,1.58,0,0,0,.12-.15.5.5,0,0,1,.76-.08,2.17,2.17,0,0,1,0-.84c.05-.32.54-.22.54.08a2.51,2.51,0,0,1,0,.67.31.31,0,0,1,.37,0l0-.06a.53.53,0,0,1,1,.26s0,0,0,0h0a2.21,2.21,0,0,1,0-.35c.06-.31.54-.22.54.08V10l.11,0,.08.07c.08-.18.17-.35.25-.53s.6-.07.49.21L42,10.3a.49.49,0,0,1,.49.81l-.08.1.09-.06a.53.53,0,0,1,.37,0,2.41,2.41,0,0,1,.45-.61c.22-.26.67.09.47.37s-.3.49-.55.61a.33.33,0,0,1,0,.14l.26-.12c.56-.24,1,.51.48.83a3.13,3.13,0,0,0-.42.29.5.5,0,0,1,.18.27l.18-.19a.51.51,0,0,1,.68,0c.07-.17.15-.33.22-.5a.48.48,0,0,1,.81,0,.45.45,0,0,1,.79.38c0,.1,0,.19-.07.29a2.88,2.88,0,0,1,.84-.42.41.41,0,0,1,.56.44,1.1,1.1,0,0,1,.51,0c.24.05.22.36.06.48a1.41,1.41,0,0,1-.74.19.52.52,0,0,1-.15.65h0a.41.41,0,0,1,.11.07l.55-.13a.42.42,0,0,1,.26.79.69.69,0,0,1,0,.13h0a.7.7,0,0,1,.81-.12.28.28,0,0,1,.05.44.68.68,0,0,1-.81.07s0,0-.07-.06a.62.62,0,0,1-.11.17.41.41,0,0,1-.11.42.61.61,0,0,1,.3.2.47.47,0,0,1,0,.57h.35a.29.29,0,0,1,.14.54.71.71,0,0,1-.49.1.59.59,0,0,1,0,.13.88.88,0,0,1,.39.11.43.43,0,0,1,.19.52h.05a.32.32,0,0,1,.21.12.76.76,0,0,1,.36-.24.27.27,0,0,1,.29.39.68.68,0,0,1-.36.33.31.31,0,0,1-.19,0,.42.42,0,0,1,0,.12,1.1,1.1,0,0,1,.48,0,.44.44,0,0,1,.19.73,1,1,0,0,1-.41.23,1.06,1.06,0,0,1,.35.18.42.42,0,0,1-.09.67l-.16,0c.09,0,.2.05.29.08a.26.26,0,0,1,.06.47.51.51,0,0,1-.57,0,.4.4,0,0,1-.12.21.38.38,0,0,1,.09.09.46.46,0,0,1,.06.48.92.92,0,0,1,.41.31.39.39,0,0,1,0,.38h0a.42.42,0,0,1,.15.53.46.46,0,0,1,.07.72l-.15.09a.49.49,0,0,1,.16.67A.43.43,0,0,1,50.34,25.33Z"/><path class="cls-6" d="M35.54,35a.46.46,0,0,1-.51.33l0,.1a.51.51,0,0,1-.21.54.4.4,0,0,1-.43,0,.62.62,0,0,1-.08.4.56.56,0,0,1-.32.31.52.52,0,0,1-.19.61.79.79,0,0,1-.62,0,.83.83,0,0,1,.18.35.52.52,0,0,1-.21.56.51.51,0,0,1-.17,0,1,1,0,0,1,.75.7.46.46,0,0,1-.12.45.7.7,0,0,1-.7.06,1,1,0,0,1,.42.56.52.52,0,0,1-.13.47l0,.08c.07.28-.14.59-.36.55l-.1,0a1.24,1.24,0,0,0,.19.36.7.7,0,0,1,.2.52.56.56,0,0,1-.22.44.36.36,0,0,1-.42,0,2.29,2.29,0,0,1,.15,1.08c-.05.34-.36.48-.54.29a2.39,2.39,0,0,1-.4-1.13l-.09-.36s0,0-.06,0h0a3.3,3.3,0,0,1,.14.88c0,.43-.45.73-.64.34l0,0a.23.23,0,0,1-.25,0,.65.65,0,0,1-.17-.2,2.79,2.79,0,0,1,0,.86c-.06.44-.43.48-.62.25a.79.79,0,0,1,0,.26.46.46,0,0,1-.21.33l0,0a.32.32,0,0,1-.4-.07,1.48,1.48,0,0,1-.26-.63l0,.08,0,.06h0a4.66,4.66,0,0,0,.12.65,1.65,1.65,0,0,1,.11.83c0,.29-.27.41-.46.33s-.36-.39-.43-.74a1.56,1.56,0,0,1,0,.52c-.09.36-.46.58-.63.22a1.38,1.38,0,0,1-.08-.29.76.76,0,0,0,0,.15,6.31,6.31,0,0,1,0,1.44c-.08.43-.51.47-.62.11a3.28,3.28,0,0,1-.11-.84c-.1.18-.29.28-.41.11a1.11,1.11,0,0,1-.19-.57h0c-.1.23-.34.35-.49.17a.82.82,0,0,1-.17-.39.3.3,0,0,1-.53,0l0-.07a.26.26,0,0,1-.37.07,1.51,1.51,0,0,1-.07.7c-.09.25-.36.34-.5.17a2,2,0,0,1-.3-1.14.14.14,0,0,1-.09,0c0,.06,0,.12,0,.19a2.68,2.68,0,0,1-.1.79.32.32,0,0,1-.6.1,2,2,0,0,1-.1-.7.25.25,0,0,1-.11,0,1.19,1.19,0,0,1-.23.62c-.14.18-.36.23-.47,0a1.23,1.23,0,0,1-.09-.67,1.34,1.34,0,0,1-.07.18.29.29,0,0,1-.52,0,1,1,0,0,1-.12-.55c-.25.17-.56-.1-.53-.52a2.21,2.21,0,0,1,0-.25.21.21,0,0,1-.12-.05,1.1,1.1,0,0,1-.13.4.27.27,0,0,1-.42.09.2.2,0,0,1,0,.07.31.31,0,0,1-.42.21.67.67,0,0,1-.3-.51,2.82,2.82,0,0,1-.1,1.08c-.11.32-.5.4-.62.1a1.79,1.79,0,0,1-.12-.53l0,0-.05.06a.22.22,0,0,1-.28,0l-.07,0a.49.49,0,0,1-.21-.41v-.13c-.12.37-.15,1.07-.58.91a.48.48,0,0,1-.33-.48,2.38,2.38,0,0,1,0-.39L17,45.44a1.77,1.77,0,0,1-.16.61.27.27,0,0,1-.43.07.67.67,0,0,1-.18-.32.3.3,0,0,1-.56-.1,3.13,3.13,0,0,1,0-.63.23.23,0,0,1-.3,0,1.91,1.91,0,0,1,0,.54c-.08.36-.45.54-.61.21a2.7,2.7,0,0,1-.2-1l0,0c0,.18,0,.36,0,.54a1.4,1.4,0,0,1-.14,1c-.08.13-.24.21-.35.12a.79.79,0,0,1-.29-.56,1.45,1.45,0,0,1-.15.4.26.26,0,0,1-.48,0,2,2,0,0,1-.08-.83l-.07,0a1.1,1.1,0,0,1-.3.63c-.16.15-.33.08-.42-.1a2,2,0,0,1-.17.44.28.28,0,0,1-.36.14,2.26,2.26,0,0,1-.1.31c-.15.33-.49.27-.52-.09a5.72,5.72,0,0,1,.23-1.71,1.37,1.37,0,0,1-.45.58.29.29,0,0,1-.41-.21.3.3,0,0,1-.34-.25,1.35,1.35,0,0,1,0-.77A.37.37,0,0,1,10,44s0-.08,0-.13,0,0-.05,0a2,2,0,0,1-.34.52.27.27,0,0,1-.36,0,2.3,2.3,0,0,1-.56,1.1c-.21.17-.49,0-.5-.29a2.2,2.2,0,0,1,.22-.9,1.13,1.13,0,0,1-.1.13c-.21.2-.43,0-.48-.25v0a.28.28,0,0,1-.46-.08,1.47,1.47,0,0,1-.08-.3c-.06.2-.11.4-.17.6-.13.41-.19.7-.51.9a.28.28,0,0,1-.4-.15A1.68,1.68,0,0,1,6.3,44c0-.16.1-.32.14-.48a.2.2,0,0,1,0,.08c-.21.25-.45.2-.56-.1a1.16,1.16,0,0,1,0-.49.74.74,0,0,1-.21.22c-.17.11-.28,0-.42-.08A.46.46,0,0,1,5,42.82a1,1,0,0,1-.41.81.28.28,0,0,1-.34-.06c-.38-.37-.17-1.27.06-2a.51.51,0,0,1-.17.16.3.3,0,0,1-.33,0,.58.58,0,0,1-.22-.59.09.09,0,0,0,0,0,.8.8,0,0,1-.41.38c-.14.05-.26-.1-.31-.25A1.2,1.2,0,0,1,3,40.47c-.21.34-.45.64-.72.65S2,41,1.94,40.76a1.83,1.83,0,0,1,.5-1.17c-.27.09-.48-.26-.36-.61a1.32,1.32,0,0,1,.15-.29,2.94,2.94,0,0,1-.47.34c-.39.2-.67-.39-.4-.81A3.59,3.59,0,0,1,2,37.47a.48.48,0,0,1-.24-.29,2.26,2.26,0,0,1-.45,0c-.34,0-.37-.75,0-.9l.13-.05h0a1.28,1.28,0,0,1-.93-.39A.56.56,0,0,1,.78,35L.5,34.79c-.47-.25-.14-1.17.31-1.1a4.87,4.87,0,0,0-.47-.32c-.39-.2-.12-.9.26-.9H.69c0-.32.14-.68.43-.71h0a.52.52,0,0,1,0-.73A.65.65,0,0,1,1,30.82c-.22.47-.81.31-.69-.27a1.74,1.74,0,0,1,.46-.81,2.91,2.91,0,0,1-.63-.54c-.39-.42.17-1.26.57-.86A.66.66,0,0,1,1,27.85H1a1.13,1.13,0,0,1-.72-.42c-.39-.44.19-1.32.58-.88a1.31,1.31,0,0,0,.34.24A3.3,3.3,0,0,1,1,26.05c0-.46.53-.79.68-.36h0a.39.39,0,0,1,.48-.21l.42.18.11-.18c-.11-.09-.22-.18-.31-.27a.39.39,0,0,1-.12-.3.35.35,0,0,1-.21.19c-.35.08-.55-.31-.72-.63s.27-1.07.58-.71a1.32,1.32,0,0,1,.41.81c.09-.19.25-.34.42-.28h0a1.7,1.7,0,0,1-.22-1c.06-.53.6-.52.72-.12a6.73,6.73,0,0,0,.33.6.28.28,0,0,1,.2,0,1.77,1.77,0,0,1-.06-.3c0-.3.24-.55.43-.48,0,0,0-.1,0-.14a2.72,2.72,0,0,1-.12-.42c-.08-.5.32-.81.57-.61a2.14,2.14,0,0,1,.67-.67c.08-.27.26-.37.43-.33v0c-.13-.69.55-1,.78-.54a3.76,3.76,0,0,1,0-.94c0-.46.51-.51.67-.23a2.47,2.47,0,0,1,.31,1l0,0a2.31,2.31,0,0,1,0-1,.51.51,0,0,1,.34-.43,2.13,2.13,0,0,1,0-1.51c.11-.32.38-.33.53-.16A.39.39,0,0,1,9,16.75c0-.08,0-.16,0-.24,0-.5.4-.66.61-.48a.45.45,0,0,1,.36-.1,7.67,7.67,0,0,1-.11-.8c0-.49.53-.8.71-.38s.29.8.42,1.21L11,16a2.68,2.68,0,0,1-.07-.27c-.08-.35.29-.76.49-.47a2.94,2.94,0,0,1,.28.45.38.38,0,0,1,.55-.33,2.18,2.18,0,0,1,0-.25c0-.47.51-.69.63-.22,0,.05,0,.11,0,.17,0-.14,0-.28,0-.42.07-.41.5-.47.59-.11a2.9,2.9,0,0,1,.11.6c0-.15,0-.31,0-.46A5.75,5.75,0,0,1,14,13.23a.33.33,0,0,1,.65.12c0,.34-.06.68-.08,1,.16-.11.35-.1.4.18,0,0,0,.12,0,.17,0-.2.07-.4.11-.61.09-.51.67-.41.59.11a6,6,0,0,1-.17,1h0c.09-.23.2-.45.29-.66.16-.41.67-.25.56.21,0,.26-.09.57-.17.85l.05-.09c.09-.15.2-.18.29-.15a1.13,1.13,0,0,0,.1-.13c.26-.35.68,0,.51.42l0,.06c.2-.25.5,0,.54.25.05-.32.11-.65.16-1,.12-.7.92-.56.81.14l-.06.33c.2-.17.46,0,.52.26l0-.07c.19-.48.8-.3.67.25,0,.1-.05.21-.08.32h0a2.68,2.68,0,0,1,.37-.9c.2-.28.51-.16.54.2a2,2,0,0,1,0,.58l.26-.35c.29-.35.71-.05.54.45,0,0,0,0,0,.08.21,0,.43.21.27.54q-.11.21-.21.45l.21-.31c.29-.41.7.07.45.51l-.27.5,0,.05c0-.06.05-.13.08-.19.18-.46.61-.35.71,0,.08-.14.15-.28.24-.41.23-.29.63-.12.55.32A7.61,7.61,0,0,1,23,19l0,0,.06,0a4.27,4.27,0,0,1,.41-.86c.17-.27.45-.14.51.13.18-.17.43,0,.49.22.19-.24.49-.07.5.27.1-.16.19-.32.27-.47.21-.42.69-.18.51.3-.07.18-.14.42-.22.66a1.16,1.16,0,0,1,.29-.26c.19-.13.37.11.34.36h0c.18-.31.61-.08.51.29l-.12.39c.11-.17.23-.34.35-.49s.69,0,.5.41-.3.59-.46.88l.35-.3c.38-.33.68.31.35.69l-.27.32a.28.28,0,0,1-.06.16v0a3.68,3.68,0,0,1,.45-.28c.2-.12.4.14.36.39a.28.28,0,0,1,.35.18.36.36,0,0,1,.08.12.3.3,0,0,1,.24,0,3.85,3.85,0,0,1,.24-.9c.17-.39.56-.31.6.11a3,3,0,0,1,0,.51c.21-.18.51.05.47.41a3.55,3.55,0,0,1-.06.47h0c0-.13.06-.26.1-.41a.29.29,0,0,1,.57.1c0,.14,0,.26,0,.38.08-.3.18-.6.25-.84.15-.46.61-.21.57.21l0,.26.09-.15c.26-.42.62,0,.53.39l0-.07c.27-.36.75,0,.55.45-.08.17-.16.36-.26.56l.75-.47c.33-.22.57.44.26.71l-.74.64a.56.56,0,0,1,.19.07.46.46,0,0,1,.07.6.63.63,0,0,1-.18.21.64.64,0,0,1,.46-.14c.21,0,.28.32.2.56a.71.71,0,0,1-.08.15.7.7,0,0,1,.32,0,.36.36,0,0,1,.22.35.67.67,0,0,1,.59.06.46.46,0,0,1,.07.6l-.06.06,0,0a.14.14,0,0,1,.05.08,1.43,1.43,0,0,1,.5-.09c.14,0,.27.18.31.35l0,.06a.55.55,0,0,1,0,.31,1.06,1.06,0,0,1,1,.7.5.5,0,0,1-.21.55c-.29.12-.51,0-.77-.1h0a.47.47,0,0,1,0,.51,1,1,0,0,1,0,.1.48.48,0,0,1-.2.52,1.13,1.13,0,0,1-.48,0,1.23,1.23,0,0,1-.25.14.52.52,0,0,1,0,.28,1.36,1.36,0,0,1,.29.06.31.31,0,0,1,.25-.21,1.16,1.16,0,0,1,1,.23.52.52,0,0,1-.13.73,1,1,0,0,1-.76,0,.35.35,0,0,1-.11.13,1,1,0,0,1-.44.14.87.87,0,0,1,.64.45.49.49,0,0,1-.17.6.57.57,0,0,1-.28.08.52.52,0,0,1,.38.17.54.54,0,0,1,0,.62.78.78,0,0,1-.54.35,5.07,5.07,0,0,0,.75.34A.52.52,0,0,1,35.54,35Z"/><path class="cls-7" d="M35.28,34.24a6.46,6.46,0,0,1-.6-.27.24.24,0,0,1-.41-.1s0,0,0,0a.23.23,0,0,1-.25,0,.79.79,0,0,1-.17-.2,2.79,2.79,0,0,1,0,.86c-.06.44-.43.48-.62.24a.84.84,0,0,1,0,.27.46.46,0,0,1-.21.33l0,0a.32.32,0,0,1-.4-.07,1.52,1.52,0,0,1-.26-.64l0,.09,0,.05h0a4.54,4.54,0,0,0,.12.66,1.61,1.61,0,0,1,.11.82c-.05.3-.27.42-.46.34s-.36-.39-.43-.75a1.62,1.62,0,0,1,0,.53c-.09.35-.46.57-.63.22a1.38,1.38,0,0,1-.08-.29.61.61,0,0,0,0,.14,6.4,6.4,0,0,1,0,1.45c-.08.43-.51.47-.62.1a3.14,3.14,0,0,1-.11-.83c-.1.17-.29.28-.41.11a1.11,1.11,0,0,1-.19-.57h0c-.1.23-.34.35-.49.17a.86.86,0,0,1-.17-.39.3.3,0,0,1-.53,0l0-.07a.28.28,0,0,1-.37.07,1.53,1.53,0,0,1-.07.7c-.09.25-.36.34-.5.17a2,2,0,0,1-.3-1.14H27c0,.06,0,.12,0,.19a2.57,2.57,0,0,1-.1.78c-.09.33-.48.38-.6.1a1.89,1.89,0,0,1-.1-.69l-.11,0a1.22,1.22,0,0,1-.23.62c-.14.18-.36.23-.47,0a1.34,1.34,0,0,1-.09-.67.87.87,0,0,1-.07.17.29.29,0,0,1-.52,0,1.09,1.09,0,0,1-.12-.55c-.25.16-.56-.11-.53-.53,0-.07,0-.16,0-.24a.21.21,0,0,1-.12-.05,1.1,1.1,0,0,1-.13.4.28.28,0,0,1-.42.09.13.13,0,0,1,0,.06.31.31,0,0,1-.42.22.67.67,0,0,1-.3-.51,2.82,2.82,0,0,1-.1,1.08c-.11.32-.5.4-.62.1a1.94,1.94,0,0,1-.12-.53l0,0-.05.05a.21.21,0,0,1-.28,0l-.07,0a.47.47,0,0,1-.2-.41.57.57,0,0,1,0-.13c-.12.37-.15,1.07-.58.91a.48.48,0,0,1-.33-.48,2.6,2.6,0,0,1,0-.4l-.12,0a1.84,1.84,0,0,1-.16.61.27.27,0,0,1-.43.07.67.67,0,0,1-.18-.32.3.3,0,0,1-.56-.1,3.13,3.13,0,0,1,0-.63.23.23,0,0,1-.3,0,1.91,1.91,0,0,1,0,.54c-.08.36-.45.54-.61.21a2.74,2.74,0,0,1-.2-1l0,0c0,.18,0,.36.05.54a1.41,1.41,0,0,1-.14,1c-.08.13-.24.21-.35.12a.79.79,0,0,1-.29-.56,1.45,1.45,0,0,1-.15.4.26.26,0,0,1-.48,0,2,2,0,0,1-.08-.83l-.07,0a1.1,1.1,0,0,1-.3.63c-.16.15-.33.08-.42-.11a2.07,2.07,0,0,1-.17.45.29.29,0,0,1-.36.14,2.81,2.81,0,0,1-.1.31c-.15.33-.49.26-.52-.09a5.78,5.78,0,0,1,.23-1.72,1.34,1.34,0,0,1-.45.59.29.29,0,0,1-.41-.21.3.3,0,0,1-.34-.26,1.32,1.32,0,0,1,0-.76.38.38,0,0,1-.2-.47s0-.08,0-.13l-.05,0a1.74,1.74,0,0,1-.34.52.27.27,0,0,1-.36,0,2.21,2.21,0,0,1-.56,1.09c-.21.18-.49.06-.5-.28a2.2,2.2,0,0,1,.22-.9,1.13,1.13,0,0,1-.1.13c-.21.2-.43,0-.47-.26l0,0a.28.28,0,0,1-.46-.08,1.67,1.67,0,0,1-.08-.3l-.17.6c-.13.41-.19.7-.51.9a.28.28,0,0,1-.4-.15,1.68,1.68,0,0,1,.1-1.22c0-.16.1-.32.14-.48a.3.3,0,0,1,0,.08c-.2.25-.45.2-.56-.1A1.17,1.17,0,0,1,9,33.32a.7.7,0,0,1-.21.21c-.17.12-.28,0-.42-.07a.51.51,0,0,1-.12-.31,1,1,0,0,1-.41.8.25.25,0,0,1-.34-.06c-.38-.36-.17-1.26.06-2a.69.69,0,0,1-.17.17.3.3,0,0,1-.33,0,.59.59,0,0,1-.22-.6s0,0,0,0a.74.74,0,0,1-.41.37c-.14.05-.26-.09-.31-.25a1.18,1.18,0,0,1,.08-.78c-.21.34-.45.64-.72.65s-.32-.12-.34-.36a1.83,1.83,0,0,1,.5-1.17c-.27.08-.48-.26-.36-.62A2,2,0,0,1,5.39,29a2.07,2.07,0,0,1-.47.34c-.39.21-.67-.38-.4-.8a3.15,3.15,0,0,1,.66-.75.51.51,0,0,1-.24-.29,2.26,2.26,0,0,1-.45,0c-.34,0-.37-.76,0-.9l.13-.05h0a1.32,1.32,0,0,1-.93-.39.57.57,0,0,1,.29-.89l-.28-.15c-.47-.25-.14-1.18.31-1.1l-.35-.24h0a.05.05,0,0,0,0,0,.18.18,0,0,0-.07-.05.37.37,0,0,1-.17-.37l-.07-.14c-.12-.4-.66-.41-.72.12a1.7,1.7,0,0,0,.22,1h0c-.17-.06-.33.09-.42.28a1.32,1.32,0,0,0-.41-.81c-.31-.36-.82.26-.58.71s.37.71.72.63a.35.35,0,0,0,.21-.19.39.39,0,0,0,.12.3c.09.09.2.18.31.27l-.11.18-.42-.18a.39.39,0,0,0-.48.21h0c-.15-.43-.72-.1-.68.36a3.3,3.3,0,0,0,.16.74,1.31,1.31,0,0,1-.34-.24c-.39-.44-1,.44-.58.88a1.13,1.13,0,0,0,.72.42H1a.66.66,0,0,0-.26.49c-.4-.4-1,.44-.57.86a2.91,2.91,0,0,0,.63.54,1.74,1.74,0,0,0-.46.81c-.12.58.47.74.69.27a.65.65,0,0,0,.07.21.52.52,0,0,0,0,.73h0c-.29,0-.46.39-.43.71H.6c-.38,0-.65.7-.26.9a4.87,4.87,0,0,1,.47.32c-.45-.07-.78.85-.31,1.1L.78,35a.56.56,0,0,0-.29.88,1.28,1.28,0,0,0,.93.39h0l-.13.05c-.34.15-.31.87,0,.9a2.26,2.26,0,0,0,.45,0,.48.48,0,0,0,.24.29,3.59,3.59,0,0,0-.66.75c-.27.42,0,1,.4.81a2.94,2.94,0,0,0,.47-.34,1.32,1.32,0,0,0-.15.29c-.12.35.09.7.36.61a1.83,1.83,0,0,0-.5,1.17c0,.25.15.37.34.36s.51-.31.72-.65a1.2,1.2,0,0,0-.08.79c.05.15.17.3.31.25a.8.8,0,0,0,.41-.38.09.09,0,0,1,0,0,.58.58,0,0,0,.22.59.3.3,0,0,0,.33,0,.51.51,0,0,0,.17-.16c-.23.69-.44,1.59-.06,2a.28.28,0,0,0,.34.06A1,1,0,0,0,5,42.82a.51.51,0,0,0,.12.31c.14.12.25.19.42.08A.74.74,0,0,0,5.79,43a1.16,1.16,0,0,0,0,.49c.11.3.36.35.56.1a.2.2,0,0,0,0-.08c0,.16-.09.32-.14.48a1.68,1.68,0,0,0-.1,1.22.28.28,0,0,0,.4.15c.32-.2.38-.49.51-.9l.17-.6a1.47,1.47,0,0,0,.08.3.28.28,0,0,0,.46.08v0c0,.28.27.45.48.25a1.13,1.13,0,0,0,.1-.13,2.2,2.2,0,0,0-.22.9c0,.34.29.46.5.29a2.3,2.3,0,0,0,.56-1.1.27.27,0,0,0,.36,0,2,2,0,0,0,.34-.52s0,0,.05,0S10,44,10,44a.37.37,0,0,0,.2.47,1.35,1.35,0,0,0,0,.77.3.3,0,0,0,.34.25.29.29,0,0,0,.41.21,1.34,1.34,0,0,0,.45-.59,5.83,5.83,0,0,0-.23,1.72c0,.36.37.42.52.09a2.26,2.26,0,0,0,.1-.31.28.28,0,0,0,.36-.14,2,2,0,0,0,.17-.44c.09.18.26.25.42.1a1.1,1.1,0,0,0,.3-.63l.07,0a2,2,0,0,0,.08.83.26.26,0,0,0,.48,0,1.45,1.45,0,0,0,.15-.4.79.79,0,0,0,.29.56c.11.09.27,0,.35-.12a1.4,1.4,0,0,0,.14-1c0-.18,0-.36,0-.54l0,0a2.7,2.7,0,0,0,.2,1c.16.33.53.15.61-.21a1.91,1.91,0,0,0,0-.54.23.23,0,0,0,.3,0,3.13,3.13,0,0,0,0,.63.3.3,0,0,0,.56.1.67.67,0,0,0,.18.32.27.27,0,0,0,.43-.07,1.77,1.77,0,0,0,.16-.61l.12.06a2.38,2.38,0,0,0,0,.39.48.48,0,0,0,.33.48c.43.16.46-.54.58-.91v.13a.49.49,0,0,0,.21.41l.07,0a.22.22,0,0,0,.28,0l.05-.06,0,0a1.79,1.79,0,0,0,.12.53c.12.3.51.22.62-.1a2.82,2.82,0,0,0,.1-1.08.67.67,0,0,0,.3.51.31.31,0,0,0,.42-.21.2.2,0,0,0,0-.07.27.27,0,0,0,.42-.09,1.1,1.1,0,0,0,.13-.4.21.21,0,0,0,.12.05,2.21,2.21,0,0,0,0,.25c0,.42.28.69.53.52a1,1,0,0,0,.12.55.29.29,0,0,0,.52,0,1.34,1.34,0,0,0,.07-.18,1.23,1.23,0,0,0,.09.67c.11.23.33.18.47,0a1.22,1.22,0,0,0,.23-.62.25.25,0,0,0,.11,0,2,2,0,0,0,.1.7.32.32,0,0,0,.6-.1,2.68,2.68,0,0,0,.1-.79c0-.07,0-.13,0-.19a.14.14,0,0,0,.09,0,2,2,0,0,0,.3,1.14c.14.17.41.08.5-.17a1.51,1.51,0,0,0,.07-.7.26.26,0,0,0,.37-.07l0,.07a.3.3,0,0,0,.53,0,.82.82,0,0,0,.17.39c.15.18.39.06.49-.17h0a1.11,1.11,0,0,0,.19.57c.12.17.31.07.41-.11a3.28,3.28,0,0,0,.11.84c.11.36.54.32.62-.11a6.31,6.31,0,0,0,0-1.44.76.76,0,0,1,0-.15,1.38,1.38,0,0,0,.08.29c.17.36.54.14.63-.22a1.56,1.56,0,0,0,0-.52c.07.35.2.65.43.74s.41,0,.46-.33a1.65,1.65,0,0,0-.11-.83,4.66,4.66,0,0,1-.12-.65h0l0-.06,0-.08a1.48,1.48,0,0,0,.26.63.32.32,0,0,0,.4.07l0,0a.46.46,0,0,0,.21-.33.79.79,0,0,0,0-.26c.19.23.56.19.62-.25a2.79,2.79,0,0,0,0-.86.65.65,0,0,0,.17.2.23.23,0,0,0,.25,0l0,0c.19.39.63.09.64-.34a3.3,3.3,0,0,0-.14-.88h0s0,0,.06,0l.09.36a2.39,2.39,0,0,0,.4,1.13c.18.19.49.05.54-.29a2.29,2.29,0,0,0-.15-1.08.36.36,0,0,0,.42,0,.56.56,0,0,0,.22-.44.7.7,0,0,0-.2-.52,1.24,1.24,0,0,1-.19-.36l.1,0c.22,0,.43-.27.36-.55l0-.08a.52.52,0,0,0,.13-.47,1,1,0,0,0-.42-.56.7.7,0,0,0,.7-.06.46.46,0,0,0,.12-.45,1,1,0,0,0-.75-.7.51.51,0,0,0,.17,0,.52.52,0,0,0,.21-.56.83.83,0,0,0-.18-.35.79.79,0,0,0,.62,0,.52.52,0,0,0,.19-.61.56.56,0,0,0,.32-.31.62.62,0,0,0,.08-.4.4.4,0,0,0,.43,0,.51.51,0,0,0,.21-.54l0-.1a.46.46,0,0,0,.51-.33A.52.52,0,0,0,35.28,34.24Z"/><path class="cls-8" d="M70,28.72a.45.45,0,0,1-.34.47.55.55,0,0,1,.06.08.5.5,0,0,1,0,.55.38.38,0,0,1-.37.17.65.65,0,0,1,.07.39.53.53,0,0,1-.19.38.49.49,0,0,1,0,.61.74.74,0,0,1-.53.25.83.83,0,0,1,.28.25.5.5,0,0,1,0,.57.46.46,0,0,1-.13.08,1,1,0,0,1,.9.36.49.49,0,0,1,0,.45.69.69,0,0,1-.6.3.84.84,0,0,1,.56.35.5.5,0,0,1,0,.46l0,.06c.16.23.09.57-.13.61h-.1a1.13,1.13,0,0,0,.29.25.68.68,0,0,1,.36.4.49.49,0,0,1,0,.46.34.34,0,0,1-.37.15,2.2,2.2,0,0,1,.51.91c.07.31-.16.54-.39.44s-.52-.54-.74-.87l-.2-.29s0,0,0,0h0a3,3,0,0,1,.43.74c.14.38-.15.8-.45.51l0,0a.21.21,0,0,1-.22.09.51.51,0,0,1-.23-.12,2.77,2.77,0,0,1,.34.75c.1.41-.22.58-.47.44a.61.61,0,0,1,.09.23.46.46,0,0,1-.08.37l0,0a.28.28,0,0,1-.37.07,1.38,1.38,0,0,1-.46-.47.27.27,0,0,1,0,.09v.06h0a5.52,5.52,0,0,0,.33.54,1.57,1.57,0,0,1,.39.69c.05.28-.1.46-.3.46s-.46-.23-.64-.51a1.37,1.37,0,0,1,.15.47c0,.35-.21.68-.48.41a1.32,1.32,0,0,1-.18-.22l.06.13a6.16,6.16,0,0,1,.49,1.28c.07.41-.28.59-.51.3a3,3,0,0,1-.39-.7c0,.19-.15.35-.32.24a1.07,1.07,0,0,1-.37-.44h0c0,.24-.18.43-.38.32a1,1,0,0,1-.29-.28.28.28,0,0,1-.47.17l0-.06a.25.25,0,0,1-.3.19,1.66,1.66,0,0,1,.18.65c0,.25-.2.42-.39.32a1.9,1.9,0,0,1-.66-.9h-.08c0,.06,0,.12,0,.18a2.32,2.32,0,0,1,.19.73c0,.32-.3.5-.5.29a1.63,1.63,0,0,1-.33-.58h-.11a1.27,1.27,0,0,1,0,.64c-.06.2-.25.32-.42.16a1.31,1.31,0,0,1-.31-.57,1.08,1.08,0,0,1,0,.18.27.27,0,0,1-.46.18,1,1,0,0,1-.3-.45c-.16.23-.53.1-.65-.28a2,2,0,0,1,0-.24h-.13a1,1,0,0,1,0,.4.26.26,0,0,1-.34.22s0,0,0,.06a.29.29,0,0,1-.29.34.64.64,0,0,1-.45-.35,2.67,2.67,0,0,1,.28,1c0,.32-.3.53-.51.31a1.86,1.86,0,0,1-.29-.44s0,0,0,.07l0,.06a.22.22,0,0,1-.24.14H58.4a.44.44,0,0,1-.32-.29,1.17,1.17,0,0,0,0-.11c0,.36.23,1-.21,1a.44.44,0,0,1-.45-.31,2.47,2.47,0,0,1-.11-.36h-.13a1.55,1.55,0,0,1,.07.6.25.25,0,0,1-.36.2.49.49,0,0,1-.26-.22c-.07.28-.36.37-.53.11a2.34,2.34,0,0,1-.25-.55.23.23,0,0,1-.28.08,1.84,1.84,0,0,1,.15.49c0,.35-.21.64-.47.4a2.61,2.61,0,0,1-.52-.85l0,0,.23.46a1.35,1.35,0,0,1,.24,1c0,.14-.15.26-.28.22a.72.72,0,0,1-.44-.4,1.87,1.87,0,0,1,0,.41.24.24,0,0,1-.42.16,1.73,1.73,0,0,1-.37-.7.1.1,0,0,1,0,.05,1.09,1.09,0,0,1,0,.67c-.09.19-.27.18-.41,0a1.69,1.69,0,0,1,0,.45.26.26,0,0,1-.27.25c0,.11,0,.21,0,.31,0,.35-.35.4-.5.1a5.43,5.43,0,0,1-.38-1.6,1.21,1.21,0,0,1-.2.67.27.27,0,0,1-.43,0c-.12.1-.29,0-.4-.1a1.37,1.37,0,0,1-.22-.69.36.36,0,0,1-.34-.35v-.13l-.07,0a1.46,1.46,0,0,1-.12.58.25.25,0,0,1-.3.16,2.2,2.2,0,0,1-.12,1.17c-.13.23-.42.22-.54-.08a1.94,1.94,0,0,1-.11-.88s0,.11-.05.15c-.12.25-.38.18-.51-.06a0,0,0,0,1,0,0,.26.26,0,0,1-.43.08.86.86,0,0,1-.17-.24c0,.2,0,.4,0,.6a1.26,1.26,0,0,1-.15,1,.26.26,0,0,1-.4,0,1.66,1.66,0,0,1-.33-1.12l0-.47a.25.25,0,0,1,0,.08c-.09.29-.33.33-.53.1a1,1,0,0,1-.21-.41.68.68,0,0,1-.11.26c-.12.16-.24.14-.4.08a.42.42,0,0,1-.21-.24,1,1,0,0,1-.09.86.26.26,0,0,1-.33.06c-.46-.19-.58-1.06-.62-1.76a.58.58,0,0,1-.09.21.28.28,0,0,1-.3.11.56.56,0,0,1-.39-.45s0,0,0,0a.75.75,0,0,1-.23.47c-.11.09-.27,0-.37-.11A1.16,1.16,0,0,1,43,44.8c-.07.38-.18.72-.42.83s-.32,0-.42-.21a1.64,1.64,0,0,1,0-1.21c-.22.17-.52-.06-.53-.42a1.05,1.05,0,0,1,0-.31,2,2,0,0,1-.3.46c-.28.32-.73-.1-.64-.57a3.21,3.21,0,0,1,.34-.89.5.5,0,0,1-.32-.18,2.23,2.23,0,0,1-.4.16c-.31.08-.59-.55-.33-.79l.09-.09h0a1.2,1.2,0,0,1-1,0,.54.54,0,0,1-.06-.88l-.29,0c-.51-.06-.54-1-.11-1.08a3.25,3.25,0,0,0-.52-.12c-.42-.05-.42-.77-.09-.89l.08,0c-.13-.27-.1-.65.14-.77h0a.5.5,0,0,1-.28-.64.56.56,0,0,1-.14-.16c0,.49-.61.55-.7,0a1.6,1.6,0,0,1,.13-.88,2.51,2.51,0,0,1-.74-.26c-.5-.24-.29-1.18.2-1a.69.69,0,0,1,.07-.53h0a1,1,0,0,1-.79-.12c-.5-.26-.29-1.23.21-1a1.13,1.13,0,0,0,.38.1,3.57,3.57,0,0,1-.39-.6c-.19-.4.2-.88.48-.56h0c0-.2.16-.36.36-.35h.43a1.77,1.77,0,0,1,0-.2,3.19,3.19,0,0,1-.37-.13.35.35,0,0,1-.21-.23.37.37,0,0,1-.12.24c-.28.2-.59-.08-.86-.31s-.12-1,.28-.83a1.28,1.28,0,0,1,.64.58c0-.2.1-.38.27-.39h0a1.6,1.6,0,0,1-.53-.8c-.13-.49.35-.68.59-.36a3.82,3.82,0,0,0,.51.41.3.3,0,0,1,.16-.08,1.32,1.32,0,0,1-.16-.25c-.12-.25,0-.56.22-.57a.66.66,0,0,0,0-.14,2.29,2.29,0,0,1-.24-.33c-.24-.41,0-.82.29-.74a2,2,0,0,1,.37-.82c0-.27.1-.42.27-.44l0,0c-.35-.57.14-1.09.51-.74a3.27,3.27,0,0,1-.35-.83c-.12-.42.27-.63.51-.43a2.5,2.5,0,0,1,.6.73s0,0,0,0a2.24,2.24,0,0,1-.36-.9.48.48,0,0,1,.15-.49,2,2,0,0,1-.48-1.36c0-.31.22-.42.42-.32a.36.36,0,0,1,.44-.31c0-.08-.05-.15-.07-.22-.15-.46.13-.72.38-.64a.39.39,0,0,1,.28-.21,7.58,7.58,0,0,1-.37-.68c-.21-.42.19-.88.49-.57a12,12,0,0,1,.8.92l0,.05-.15-.22c-.19-.28,0-.77.27-.59a4,4,0,0,1,.41.31c-.07-.31.15-.52.37-.48a1.55,1.55,0,0,1-.08-.23c-.14-.42.21-.79.48-.41l.1.14c0-.13-.08-.26-.11-.39-.08-.39.28-.59.49-.3a2.76,2.76,0,0,1,.3.5c0-.14-.1-.28-.14-.42a4.82,4.82,0,0,1-.27-1.4.31.31,0,1,1,.61-.12c.1.31.18.62.28.93.1-.15.27-.21.41,0l.09.15a5.41,5.41,0,0,1-.12-.58c-.09-.49.45-.59.56-.11a7.12,7.12,0,0,1,.18.92h0c0-.23,0-.47,0-.69,0-.41.51-.45.58,0,0,.24.1.53.13.81a.34.34,0,0,0,0-.1c0-.16.12-.23.22-.23a.83.83,0,0,1,0-.15c.1-.4.59-.26.59.2V18c.09-.28.43-.22.56,0l-.19-.92c-.14-.66.63-.81.77-.15l.06.31c.12-.22.4-.16.55.06v-.08c0-.49.61-.54.68,0,0,.1,0,.21,0,.31h0a2.53,2.53,0,0,1,0-.92c.08-.32.4-.31.54,0a1.83,1.83,0,0,1,.17.53,3.84,3.84,0,0,1,.11-.4c.14-.41.62-.29.64.21V17c.18-.09.45.05.43.38,0,.16,0,.32,0,.48l.09-.34c.11-.47.64-.19.57.29,0,.18,0,.36-.07.53l.06,0v-.2c0-.47.42-.52.63-.25a3.54,3.54,0,0,1,.08-.45c.09-.34.51-.32.58.09a6.65,6.65,0,0,1,.06,1.33v0h.06a3.74,3.74,0,0,1,.07-.9c.06-.3.35-.29.49-.06.1-.21.37-.19.51,0,.09-.28.41-.23.55.06,0-.18.05-.35.07-.51,0-.44.55-.39.55.09,0,.19,0,.42,0,.66a2,2,0,0,1,.17-.33c.13-.18.37,0,.43.2h0c.05-.34.51-.29.55.08l0,.38a5.54,5.54,0,0,1,.14-.55c.12-.35.6-.27.58.2,0,.31-.06.62-.1.93l.2-.38c.22-.43.71,0,.55.49,0,.12-.08.24-.13.37a.25.25,0,0,1,0,.17v0a3.34,3.34,0,0,1,.3-.41c.14-.17.41,0,.46.23a.25.25,0,0,1,.36,0,.57.57,0,0,1,.13.08.22.22,0,0,1,.2-.1,3.94,3.94,0,0,1-.11-.89c0-.4.4-.46.57-.11a2.27,2.27,0,0,1,.16.46c.13-.23.48-.13.56.21l.12.44h0c0-.13,0-.26-.05-.4a.28.28,0,0,1,.54-.11c0,.13.07.24.1.35,0-.29,0-.59-.06-.83,0-.46.46-.4.57,0,0,.07,0,.16.07.24s0-.11,0-.16c.09-.46.55-.24.61.16,0,0,0-.06,0-.08.12-.42.65-.29.64.21,0,.17,0,.38,0,.58l.51-.67c.22-.31.65.2.47.54s-.28.55-.44.83a.4.4,0,0,1,.19,0,.42.42,0,0,1,.27.51.57.57,0,0,1-.08.24.61.61,0,0,1,.36-.28c.19,0,.36.19.37.44a.77.77,0,0,1,0,.15.68.68,0,0,1,.27-.13c.12,0,.25.09.32.23a.65.65,0,0,1,.54-.15.43.43,0,0,1,.27.51.43.43,0,0,0,0,.07l.06,0s.05,0,.07.05a1.3,1.3,0,0,1,.41-.24.41.41,0,0,1,.4.2l0,.05a.55.55,0,0,1,.09.28,1,1,0,0,1,1.12.28.48.48,0,0,1,0,.56c-.22.21-.46.17-.73.18h0a.46.46,0,0,1,.13.46s0,0,.07.07a.45.45,0,0,1,0,.54,1,1,0,0,1-.41.19,1.2,1.2,0,0,1-.17.21.71.71,0,0,1,.11.25,1.51,1.51,0,0,1,.28-.05.29.29,0,0,1,.15-.27,1.07,1.07,0,0,1,.92-.12.5.5,0,0,1,.14.69.93.93,0,0,1-.68.25.31.31,0,0,1-.06.16,1.11,1.11,0,0,1-.33.27.84.84,0,0,1,.71.18.45.45,0,0,1,.06.59.52.52,0,0,1-.22.17.51.51,0,0,1,.4,0,.53.53,0,0,1,.22.55.72.72,0,0,1-.36.5,4.25,4.25,0,0,0,.8,0C69.75,28.17,70,28.37,70,28.72Z"/><path class="cls-9" d="M70.39,37.28a2.2,2.2,0,0,0-.51-.91.34.34,0,0,0,.37-.15.49.49,0,0,0,0-.46.68.68,0,0,0-.36-.4,1.13,1.13,0,0,1-.29-.25h.1c.22,0,.29-.38.13-.61l0-.06a.5.5,0,0,0,0-.46.84.84,0,0,0-.56-.35.69.69,0,0,0,.6-.3.49.49,0,0,0,0-.45,1,1,0,0,0-.9-.36.46.46,0,0,0,.13-.08.5.5,0,0,0,0-.57.83.83,0,0,0-.28-.25.74.74,0,0,0,.53-.25.49.49,0,0,0,0-.61.53.53,0,0,0,.19-.38.65.65,0,0,0-.07-.39.38.38,0,0,0,.37-.17.5.5,0,0,0,0-.55.55.55,0,0,0-.06-.08.45.45,0,0,0,.34-.47c0-.35-.22-.55-.47-.55a4.25,4.25,0,0,1-.8,0,.72.72,0,0,0,.36-.5.53.53,0,0,0-.22-.55.51.51,0,0,0-.4,0,.52.52,0,0,0,.22-.17.45.45,0,0,0-.06-.59.84.84,0,0,0-.71-.18,1.11,1.11,0,0,0,.33-.27.31.31,0,0,0,.06-.16.93.93,0,0,0,.68-.25.5.5,0,0,0-.14-.69,1.07,1.07,0,0,0-.92.12.29.29,0,0,0-.15.27,1.51,1.51,0,0,0-.28.05.71.71,0,0,0-.11-.25,1.2,1.2,0,0,0,.17-.21,1,1,0,0,0,.41-.19.45.45,0,0,0,0-.54s0,0-.07-.07a.46.46,0,0,0-.13-.46h0c.27,0,.51,0,.73-.18a.48.48,0,0,0,0-.56,1,1,0,0,0-1.12-.28.55.55,0,0,0-.09-.28l0-.05a.41.41,0,0,0-.4-.2,1.3,1.3,0,0,0-.41.24s0,0-.07-.05l-.06,0a.43.43,0,0,1,0-.07.43.43,0,0,0-.27-.51.65.65,0,0,0-.54.15c-.07-.14-.2-.25-.32-.23a.68.68,0,0,0-.27.13.77.77,0,0,0,0-.15c0-.25-.18-.47-.37-.44a.61.61,0,0,0-.36.28.57.57,0,0,0,.08-.24.47.47,0,0,0-.13-.4.44.44,0,0,1-.06.23.78.78,0,0,1-.53.25.94.94,0,0,1,.28.25.51.51,0,0,1,0,.57.64.64,0,0,1-.14.08,1,1,0,0,1,.91.36.47.47,0,0,1,.05.44.65.65,0,0,1-.6.3.87.87,0,0,1,.56.35.53.53,0,0,1,0,.47l0,.06c.16.22.08.57-.13.61h-.1a1.37,1.37,0,0,0,.29.25.62.62,0,0,1,.35.4.47.47,0,0,1,0,.45.33.33,0,0,1-.37.15,2.26,2.26,0,0,1,.51.91c.07.32-.16.55-.39.44s-.52-.54-.74-.86c-.07-.1-.13-.2-.2-.29s0,0,0,0h0a3,3,0,0,1,.43.73c.13.39-.15.8-.45.52l0,0a.21.21,0,0,1-.22.1.63.63,0,0,1-.23-.12,2.64,2.64,0,0,1,.34.75c.09.41-.22.58-.47.43a.6.6,0,0,1,.09.24.44.44,0,0,1-.08.36l0,0a.32.32,0,0,1-.38.07,1.56,1.56,0,0,1-.45-.47.22.22,0,0,1,0,.08v.06h0a6,6,0,0,0,.33.54,1.57,1.57,0,0,1,.39.69c0,.28-.11.46-.3.46a.94.94,0,0,1-.64-.52,1.5,1.5,0,0,1,.15.48c0,.35-.22.67-.49.41a2.29,2.29,0,0,1-.17-.23l.06.13a6.16,6.16,0,0,1,.49,1.28c.07.41-.29.6-.51.31a3.16,3.16,0,0,1-.39-.7c0,.19-.16.35-.32.24a1.06,1.06,0,0,1-.37-.44h0c0,.24-.18.43-.38.32a1,1,0,0,1-.29-.29c-.07.24-.27.33-.47.17l0-.05a.25.25,0,0,1-.3.19,1.62,1.62,0,0,1,.18.64c0,.26-.21.43-.39.33a1.88,1.88,0,0,1-.66-.91.12.12,0,0,1-.08,0c0,.06,0,.12,0,.17a2.39,2.39,0,0,1,.19.73c0,.32-.3.5-.5.3a1.72,1.72,0,0,1-.33-.58h-.11a1.23,1.23,0,0,1,0,.63c-.06.21-.25.33-.42.16a1.27,1.27,0,0,1-.31-.56,1.08,1.08,0,0,1,0,.18.27.27,0,0,1-.46.17,1,1,0,0,1-.3-.45c-.16.24-.54.11-.65-.28a1.57,1.57,0,0,1,0-.23.2.2,0,0,1-.13,0,1.05,1.05,0,0,1,0,.4.26.26,0,0,1-.34.23s0,0,0,.06a.29.29,0,0,1-.3.33.65.65,0,0,1-.44-.35,2.67,2.67,0,0,1,.28,1c0,.32-.31.52-.51.3a1.62,1.62,0,0,1-.29-.43l0,.06,0,.06a.22.22,0,0,1-.24.14h-.07a.46.46,0,0,1-.32-.29.61.61,0,0,1,0-.12c0,.37.23,1-.21,1a.44.44,0,0,1-.45-.32,2.47,2.47,0,0,1-.11-.36H52a1.71,1.71,0,0,1,.07.59.26.26,0,0,1-.36.21.6.6,0,0,1-.26-.22c-.07.27-.37.37-.53.11a2.54,2.54,0,0,1-.25-.55.24.24,0,0,1-.28.08,1.73,1.73,0,0,1,.15.49c0,.35-.21.63-.47.39a2.56,2.56,0,0,1-.52-.84l0,0c.08.15.16.3.23.46a1.34,1.34,0,0,1,.24,1c0,.14-.15.27-.28.23a.72.72,0,0,1-.44-.4,1.87,1.87,0,0,1,0,.41.25.25,0,0,1-.43.16,1.93,1.93,0,0,1-.36-.7l0,0a1,1,0,0,1-.06.67c-.09.19-.26.18-.4,0a1.69,1.69,0,0,1,0,.45.26.26,0,0,1-.27.25,1.61,1.61,0,0,1,0,.31c0,.34-.34.4-.49.09a5.36,5.36,0,0,1-.38-1.6,1.18,1.18,0,0,1-.2.67.26.26,0,0,1-.43,0,.3.3,0,0,1-.4-.11,1.28,1.28,0,0,1-.22-.69.36.36,0,0,1-.34-.35.62.62,0,0,0,0-.13h-.06a1.5,1.5,0,0,1-.12.58.25.25,0,0,1-.3.16,2.31,2.31,0,0,1-.12,1.17c-.13.23-.42.21-.54-.08a2.09,2.09,0,0,1-.12-.88.83.83,0,0,1,0,.15c-.12.25-.38.17-.51-.06,0,0,0,0,0,0A.26.26,0,0,1,43,36a.81.81,0,0,1-.17-.24c0,.2,0,.4,0,.59a1.24,1.24,0,0,1-.14,1,.27.27,0,0,1-.4,0A1.59,1.59,0,0,1,42,36.24l0-.47a.28.28,0,0,1,0,.09c-.1.29-.33.33-.53.1a1,1,0,0,1-.21-.42.81.81,0,0,1-.11.27c-.12.16-.24.13-.4.07a.4.4,0,0,1-.21-.23,1,1,0,0,1-.09.85.26.26,0,0,1-.33.07c-.46-.19-.58-1.06-.62-1.76a.51.51,0,0,1-.1.21.3.3,0,0,1-.29.11.54.54,0,0,1-.39-.46s0,0,0,0a.78.78,0,0,1-.23.48c-.11.09-.27,0-.37-.12a1.12,1.12,0,0,1-.19-.72c-.07.37-.18.72-.42.82s-.32,0-.43-.2A1.69,1.69,0,0,1,37,33.68c-.22.17-.52-.07-.53-.42l-.15,0a1.22,1.22,0,0,1-.12.19.28.28,0,0,1-.41,0,.62.62,0,0,0,.24.75,1,1,0,0,0,.79.12h0a.69.69,0,0,0-.07.53c-.49-.22-.7.72-.2,1a2.51,2.51,0,0,0,.74.26,1.6,1.6,0,0,0-.13.88c.09.55.66.49.7,0a.56.56,0,0,0,.14.16.5.5,0,0,0,.28.64h0c-.24.12-.27.5-.14.77l-.08,0c-.33.12-.33.84.09.89a3.25,3.25,0,0,1,.52.12c-.43.09-.4,1,.11,1.08l.29,0a.54.54,0,0,0,.06.88,1.2,1.2,0,0,0,1,0h0l-.09.09c-.26.24,0,.87.33.79a2.23,2.23,0,0,0,.4-.16.5.5,0,0,0,.32.18,3.21,3.21,0,0,0-.34.89c-.09.47.36.89.64.57a2,2,0,0,0,.3-.46,1.05,1.05,0,0,0,0,.31c0,.36.31.59.53.42a1.64,1.64,0,0,0,0,1.21c.1.21.26.28.42.21s.35-.45.42-.83a1.16,1.16,0,0,0,.19.73c.1.11.26.2.37.11a.75.75,0,0,0,.23-.47s0,0,0,0a.56.56,0,0,0,.39.45.28.28,0,0,0,.3-.11.58.58,0,0,0,.09-.21c0,.7.16,1.57.62,1.76a.26.26,0,0,0,.33-.06,1,1,0,0,0,.09-.86.42.42,0,0,0,.21.24c.16.06.28.08.4-.08a.68.68,0,0,0,.11-.26,1,1,0,0,0,.21.41c.2.23.44.19.53-.1a.25.25,0,0,0,0-.08l0,.47a1.66,1.66,0,0,0,.33,1.12.26.26,0,0,0,.4,0,1.26,1.26,0,0,0,.15-1c0-.2,0-.4,0-.6a.86.86,0,0,0,.17.24.26.26,0,0,0,.43-.08,0,0,0,0,0,0,0c.13.24.39.31.51.06,0,0,0-.1.05-.15a1.94,1.94,0,0,0,.11.88c.12.3.41.31.54.08a2.2,2.2,0,0,0,.12-1.17.25.25,0,0,0,.3-.16,1.46,1.46,0,0,0,.12-.58l.07,0v.13a.36.36,0,0,0,.34.35,1.37,1.37,0,0,0,.22.69c.11.14.28.2.4.1a.27.27,0,0,0,.43,0,1.21,1.21,0,0,0,.2-.67,5.43,5.43,0,0,0,.38,1.6c.15.3.48.25.5-.1,0-.1,0-.2,0-.31a.26.26,0,0,0,.27-.25,1.69,1.69,0,0,0,0-.45c.14.13.32.14.41,0a1.09,1.09,0,0,0,0-.67.1.1,0,0,0,0-.05,1.73,1.73,0,0,0,.37.7.24.24,0,0,0,.42-.16,1.87,1.87,0,0,0,0-.41.72.72,0,0,0,.44.4c.13,0,.24-.08.28-.22a1.35,1.35,0,0,0-.24-1l-.23-.46,0,0a2.61,2.61,0,0,0,.52.85c.26.24.52,0,.47-.4a1.84,1.84,0,0,0-.15-.49.23.23,0,0,0,.28-.08,2.34,2.34,0,0,0,.25.55c.17.26.46.17.53-.11a.48.48,0,0,0,.27.22.24.24,0,0,0,.35-.2,1.55,1.55,0,0,0-.07-.6h.13a2.47,2.47,0,0,0,.11.36.44.44,0,0,0,.45.31c.44,0,.23-.64.21-1a1.17,1.17,0,0,1,0,.11.44.44,0,0,0,.32.29h.07a.22.22,0,0,0,.24-.14l0-.06s0-.05,0-.07a1.86,1.86,0,0,0,.29.44c.21.22.52,0,.51-.31a2.67,2.67,0,0,0-.28-1,.64.64,0,0,0,.45.35.29.29,0,0,0,.29-.34s0,0,0-.06a.26.26,0,0,0,.34-.22,1,1,0,0,0,0-.4h.13a2,2,0,0,0,0,.24c.12.38.49.51.65.28a1,1,0,0,0,.3.45.27.27,0,0,0,.46-.18,1.08,1.08,0,0,0,0-.18,1.31,1.31,0,0,0,.31.57c.17.16.36,0,.42-.16a1.27,1.27,0,0,0,0-.64h.11a1.63,1.63,0,0,0,.33.58c.2.21.53,0,.5-.29a2.32,2.32,0,0,0-.19-.73c0-.06,0-.12,0-.18h.08a1.9,1.9,0,0,0,.66.9c.19.1.39-.07.39-.32a1.66,1.66,0,0,0-.18-.65.25.25,0,0,0,.3-.19l0,.06a.28.28,0,0,0,.47-.17,1,1,0,0,0,.29.28c.2.11.36-.08.38-.32h0a1.07,1.07,0,0,0,.37.44c.17.11.29-.05.32-.24a3,3,0,0,0,.39.7c.23.29.58.11.51-.3a6.16,6.16,0,0,0-.49-1.28l-.06-.13a1.32,1.32,0,0,0,.18.22c.27.27.52-.06.48-.41a1.37,1.37,0,0,0-.15-.47c.18.28.41.51.64.51s.35-.18.3-.46a1.57,1.57,0,0,0-.39-.69,5.52,5.52,0,0,1-.33-.54h0V39.3a.27.27,0,0,0,0-.09,1.38,1.38,0,0,0,.46.47.28.28,0,0,0,.37-.07l0,0a.46.46,0,0,0,.08-.37.61.61,0,0,0-.09-.23c.25.14.57,0,.47-.44a2.77,2.77,0,0,0-.34-.75.51.51,0,0,0,.23.12.21.21,0,0,0,.22-.09l0,0c.3.29.59-.13.45-.51A3,3,0,0,0,69,36.6h0s0,0,0,0l.2.29c.22.33.42.72.74.87S70.46,37.59,70.39,37.28Z"/><path class="cls-10" d="M13.66,22.66A1.1,1.1,0,0,1,13,23a.24.24,0,0,1-.22-.3c.09-.27.34-.38.57-.53S14,22.45,13.66,22.66Zm-1.91-1.33a.15.15,0,0,0,0,.29A.15.15,0,0,0,11.75,21.33Zm.61.18c-.06.21-.21.42-.18.65a.25.25,0,0,0,.37.22.9.9,0,0,0,.37-.71A.29.29,0,0,0,12.36,21.51Zm-1.27-.11c-.15-.15-.35-.16-.5-.28-.3-.24-.73.17-.43.42l.15.11-.16.09a2.5,2.5,0,0,1-.53.23.26.26,0,0,0,.07.5c.4,0,1.05-.13,1.17-.59v-.05a.58.58,0,0,0,.18,0A.25.25,0,0,0,11.09,21.4Zm.5.92a1.07,1.07,0,0,1-.43.09.2.2,0,0,0-.06.36.66.66,0,0,0,.7-.08C12,22.54,11.83,22.18,11.59,22.32Zm4.66.58a.15.15,0,0,0,0,.29A.15.15,0,0,0,16.25,22.9Zm-1-.29a1.13,1.13,0,0,0-.69.26.26.26,0,0,0,.05.4,1.19,1.19,0,0,0,.81,0C15.86,23.14,15.7,22.53,15.29,22.61Zm2.09-.42a1.38,1.38,0,0,0-.8.19.23.23,0,0,0,0,.36,1.23,1.23,0,0,0,.76.06C17.76,22.77,17.77,22.16,17.38,22.19Zm-3.73,1.53a1.19,1.19,0,0,1-.53.09c-.33,0-.33.48,0,.52a.8.8,0,0,0,.73-.26A.21.21,0,0,0,13.65,23.72Zm-4.27-.95a1,1,0,0,0-1.1.21.31.31,0,0,0,.13.52,1.07,1.07,0,0,0,1.07-.37A.26.26,0,0,0,9.38,22.77Zm-1.29,0a.41.41,0,0,0-.36-.14.31.31,0,0,0,0,.61.42.42,0,0,0,.36-.14A.25.25,0,0,0,8.09,22.73Zm2.77.53a.22.22,0,0,0-.2-.05c-.14,0-.25.13-.38.14a.28.28,0,0,0,0,.56,1.4,1.4,0,0,0-.68.5c-.27.25.12.64.39.4s.51-.34.57-.63a.25.25,0,0,0-.17-.28.54.54,0,0,0,.53-.35l.08,0C11.15,23.43,11,23.21,10.86,23.26Zm1.86,0a.22.22,0,0,0-.3-.08.56.56,0,0,0-.21.22.06.06,0,0,0,0,0c0-.25-.46-.2-.44.06,0,0,0,.05-.06.05a.2.2,0,0,0,0,.36.28.28,0,0,0,.27.05,2.86,2.86,0,0,1-.46.52.27.27,0,0,0,.32.42,2.55,2.55,0,0,0,.71-.64A1,1,0,0,0,12.72,23.23Zm3,.82a.93.93,0,0,0-1.22-.21.25.25,0,0,0,.05.4,6.87,6.87,0,0,0,.92.23C15.73,24.57,15.9,24.22,15.73,24.05Zm-1-2.53a.69.69,0,0,0,.07.35.22.22,0,0,0,.37,0,.71.71,0,0,0,.07-.35A.26.26,0,0,0,14.77,21.52ZM8.41,24.21a.45.45,0,0,0-.16,0c-.31.08-.14.56.18.42l.14-.07C8.79,24.46,8.63,24.18,8.41,24.21Zm-1.06-.86a.94.94,0,0,0-.62,0,.26.26,0,0,0,.06.51,1,1,0,0,0,.61-.1A.24.24,0,0,0,7.35,23.35Zm6.09,1.44a.23.23,0,0,0-.36.05.61.61,0,0,0,0,.53.29.29,0,0,0,.57-.07A.66.66,0,0,0,13.44,24.79Zm5.07-.87a.74.74,0,0,0-.49-.18c-.15,0-.3.19-.19.34a.75.75,0,0,0,.47.3A.26.26,0,0,0,18.51,23.92Zm-3.4,1.13a.25.25,0,0,0-.06.38c.1.1.28.14.28.31a.29.29,0,0,0,.58,0C15.93,25.34,15.54,24.8,15.11,25.05Z"/><path class="cls-10" d="M29.76,13.15a3.58,3.58,0,0,1-.92-.32.08.08,0,0,1-.05-.05.86.86,0,0,0-.1.16l-.08.12a1,1,0,0,0,.24,0,.21.21,0,1,1,0,.42,1.18,1.18,0,0,1-.59-.08l-.06,0a.26.26,0,0,1-.39-.22,1.39,1.39,0,0,1,.36-.7c.15-.19.29-.39.45-.57s.55.07.42.33l-.09.13a4.13,4.13,0,0,1,.7.14.32.32,0,0,1,.08-.09,2.11,2.11,0,0,1,.94-.12.21.21,0,0,1,.05.42,6.66,6.66,0,0,1-.67.12A.26.26,0,0,1,29.76,13.15Zm1.72.91c-.3,0-.62-.13-.87.08a.2.2,0,0,0-.06.12,1.06,1.06,0,0,0-.49-.36.34.34,0,0,0,.14,0,3,3,0,0,0,.86-.31c.23-.13,0-.46-.2-.35a1.05,1.05,0,0,1-.55.09s0,0,0-.05a.27.27,0,0,0-.45.18.62.62,0,0,0,.06.3.23.23,0,0,0,.16.13c-.15,0-.33.1-.27.27s.44.44.7.61a.21.21,0,0,0,.32-.21,1.43,1.43,0,0,0,.62.07C31.72,14.65,31.82,14.11,31.48,14.06Zm-3.57.2a.2.2,0,0,0,.16-.36,3,3,0,0,0-.63-.28c-.26-.11-.38.31-.12.42A2.63,2.63,0,0,0,27.91,14.26Zm1.59-.82a1.05,1.05,0,0,0-.73.44.25.25,0,0,0,.3.39,1,1,0,0,0,.65-.53A.24.24,0,0,0,29.5,13.44Zm1.71,2.17a1,1,0,0,0-.72,0,.25.25,0,0,0,0,.39,1.17,1.17,0,0,0,.76.18C31.6,16.24,31.59,15.65,31.21,15.61Zm-2.09-.69c-.17.17-.47.22-.57.44a.24.24,0,0,0,.08.33c.32.2.7-.11.93-.33S29.41,14.64,29.12,14.92Zm0,1.42a3.64,3.64,0,0,1-.87-.18.21.21,0,0,0-.24.3,1,1,0,0,0,1.17.35A.24.24,0,0,0,29.1,16.34Zm-3.06-1a3.72,3.72,0,0,1-.88-.18.2.2,0,0,0-.23.3,1.06,1.06,0,0,0,1.17.35C26.35,15.71,26.31,15.31,26,15.32Zm2.14-.7a1.42,1.42,0,0,0-.71,0,.25.25,0,0,0,0,.47,1.46,1.46,0,0,0,.72,0C28.4,15,28.41,14.65,28.18,14.62Zm10.11,1s0-.06-.07-.07a.67.67,0,0,0-.42,0c-.36.07-.22.61.14.55l.05,0a1.3,1.3,0,0,0,.66.38.22.22,0,0,0,.22-.31A1.3,1.3,0,0,0,38.29,15.61Zm-1.52-.56-.05.06a1,1,0,0,0-.6,0,.21.21,0,1,0,.12.4.93.93,0,0,1,.23,0c0,.05,0,.09,0,.13s-.05.12-.08.17l-.05,0a4.51,4.51,0,0,0-1-.18.27.27,0,0,0-.3.31c-.22,0-.44.16-.65.23s-.11.45.12.4a2,2,0,0,0,.91-.26.61.61,0,0,0,.07-.1,5.39,5.39,0,0,0,.7,0l-.06.14c-.09.28.3.54.47.26s.24-.42.35-.63a1.34,1.34,0,0,0,.25-.74A.27.27,0,0,0,36.77,15.05Zm-2,.47c.2.15.42,0,.42-.25a.57.57,0,0,0-.11-.28.23.23,0,0,0-.17-.1c.15,0,.3-.15.22-.31s-.5-.37-.78-.51-.32.11-.29.26a1.62,1.62,0,0,0-.62,0c-.32,0-.33.58,0,.58s.64,0,.85-.21a.13.13,0,0,0,0-.13,1,1,0,0,0,.54.28l-.14,0a2.72,2.72,0,0,0-.8.44c-.2.16,0,.45.25.31a1.14,1.14,0,0,1,.54-.17A.11.11,0,0,0,34.81,15.52Zm2.79-1.18a2.63,2.63,0,0,0-.62-.13.19.19,0,0,0-.1.37,2.69,2.69,0,0,0,.67.19C37.82,14.83,37.87,14.4,37.6,14.34Zm-1.77,0a1,1,0,0,0-.55.63.23.23,0,0,0,.26.26,1.07,1.07,0,0,0,.65-.55C36.36,14.46,36.07,14.22,35.83,14.37Zm1.8-1a2.17,2.17,0,0,0,.47.32c.34.18.6-.44.23-.56a2.8,2.8,0,0,0-.56-.12A.2.2,0,0,0,37.63,13.32Zm-4.11.06c.24,0,.51,0,.7-.15a.25.25,0,0,0,0-.4,1.19,1.19,0,0,0-.79-.06C33,12.81,33.14,13.4,33.52,13.38Zm2.16.36c.15-.19.44-.29.51-.52a.26.26,0,0,0-.14-.32c-.34-.14-.67.22-.86.47A.31.31,0,0,0,35.68,13.74Zm1.76-1.62c.19,0,.37-.15.56-.11s.39-.39.12-.46-.77-.13-.91.28A.21.21,0,0,0,37.44,12.12Zm-1.95.21a4.39,4.39,0,0,1,.89,0,.2.2,0,0,0,.19-.33,1.06,1.06,0,0,0-1.21-.16A.24.24,0,0,0,35.49,12.33Zm3.72.12a1.17,1.17,0,0,0-.76.18.24.24,0,0,0,0,.41,1.13,1.13,0,0,0,.79,0A.28.28,0,0,0,39.21,12.45Zm-2.61,1a.23.23,0,0,0,.06.44,1.43,1.43,0,0,0,.71-.1.24.24,0,0,0-.07-.46A1.32,1.32,0,0,0,36.6,13.45Zm4,2.26a1.61,1.61,0,0,0,.38.08c.3,0,.37-.38.15-.53a1.61,1.61,0,0,0-.36-.15C40.41,15,40.25,15.58,40.62,15.71Zm-.91-1.39c-.1.16-.27.23-.38.38a.23.23,0,0,0,.08.32.66.66,0,0,0,.83-.38C40.44,14.29,39.9,14,39.71,14.32Zm1,2.05a.3.3,0,0,0-.24.55c.32.17.61.43,1,.26a.29.29,0,0,0,.11-.4C41.41,16.45,41,16.44,40.7,16.37Zm1.79-2.49a.3.3,0,0,0-.24.55c.32.17.61.43,1,.26a.29.29,0,0,0,.11-.4C43.2,14,42.79,14,42.49,13.88Z"/><path class="cls-10" d="M54.26,19.54c-.24.13-.51.21-.63.46a.23.23,0,0,0,.19.32,1.08,1.08,0,0,0,.67-.24C54.81,19.9,54.6,19.37,54.26,19.54Z"/><path class="cls-10" d="M52.75,18.53a.15.15,0,0,0,0,.29A.15.15,0,0,0,52.75,18.53Z"/><path class="cls-10" d="M53.34,18.78a1.61,1.61,0,0,0-.26.62.25.25,0,0,0,.35.26c.27-.1.37-.4.45-.66A.29.29,0,0,0,53.34,18.78Z"/><path class="cls-10" d="M52.09,18.52c-.13-.16-.33-.2-.47-.34s-.74.09-.47.37l.13.13-.17.07a2.57,2.57,0,0,1-.54.16.25.25,0,0,0,0,.5c.4.05,1.06,0,1.23-.44a.07.07,0,0,0,0,0,.55.55,0,0,0,.18,0A.25.25,0,0,0,52.09,18.52Z"/><path class="cls-10" d="M52.48,19.49a1.13,1.13,0,0,1-.45,0c-.17,0-.22.27-.09.35a.66.66,0,0,0,.7,0C52.89,19.76,52.74,19.38,52.48,19.49Z"/><path class="cls-10" d="M57,20.62a.15.15,0,0,0,0,.29A.15.15,0,0,0,57,20.62Z"/><path class="cls-10" d="M56.12,20.22a1.19,1.19,0,0,0-.72.17.26.26,0,0,0,0,.41,1.18,1.18,0,0,0,.81.05C56.62,20.81,56.53,20.18,56.12,20.22Z"/><path class="cls-10" d="M58.24,20.06a1.35,1.35,0,0,0-.82.08.24.24,0,0,0,0,.37,1.28,1.28,0,0,0,.75.14C58.55,20.67,58.63,20.07,58.24,20.06Z"/><path class="cls-10" d="M49.62,18.29a1.34,1.34,0,0,0-.82.09.24.24,0,0,0,0,.37,1.25,1.25,0,0,0,.74.14C49.93,18.91,50,18.31,49.62,18.29Z"/><path class="cls-10" d="M54.36,21.13a1.1,1.1,0,0,1-.54,0c-.33-.07-.39.44-.07.52a.83.83,0,0,0,.77-.17C54.66,21.37,54.58,21.09,54.36,21.13Z"/><path class="cls-10" d="M50.23,19.67a1.06,1.06,0,0,0-1.12.08.32.32,0,0,0,.07.54,1.07,1.07,0,0,0,1.1-.24A.27.27,0,0,0,50.23,19.67Z"/><path class="cls-10" d="M49,19.49a.41.41,0,0,0-.34-.19.31.31,0,0,0-.07.61.39.39,0,0,0,.37-.1A.22.22,0,0,0,49,19.49Z"/><path class="cls-10" d="M51.65,20.34a.34.34,0,0,0-.21-.08c-.13,0-.26.11-.39.1a.28.28,0,0,0-.08.55,1.51,1.51,0,0,0-.73.42c-.29.22,0,.65.35.45s.54-.28.63-.56a.25.25,0,0,0-.13-.3.57.57,0,0,0,.57-.28l.08,0C51.91,20.55,51.81,20.31,51.65,20.34Z"/><path class="cls-10" d="M53.5,20.53a.22.22,0,0,0-.29-.12.69.69,0,0,0-.25.2v0a.23.23,0,0,0-.45,0s0,.05-.07,0a.2.2,0,0,0-.09.36.29.29,0,0,0,.27.08,3.3,3.3,0,0,1-.52.47.26.26,0,0,0,.26.45,2.29,2.29,0,0,0,.78-.56C53.36,21.18,53.6,20.85,53.5,20.53Z"/><path class="cls-10" d="M56.38,21.7a.92.92,0,0,0-1.19-.35.26.26,0,0,0,0,.41c.26.17.61.18.89.33S56.53,21.89,56.38,21.7Z"/><path class="cls-10" d="M46.63,19.84a.92.92,0,0,0-1.19-.35.25.25,0,0,0,0,.4,8.61,8.61,0,0,0,.89.34C46.57,20.36,46.78,20,46.63,19.84Z"/><path class="cls-10" d="M55.73,19.08a.88.88,0,0,0,0,.36.21.21,0,0,0,.36,0,.66.66,0,0,0,.12-.34C56.28,18.82,55.76,18.75,55.73,19.08Z"/><path class="cls-10" d="M43.83,19.71a.72.72,0,0,0,0,.36.22.22,0,0,0,.37.05.68.68,0,0,0,.11-.34A.25.25,0,0,0,43.83,19.71Z"/><path class="cls-10" d="M49.09,21h-.15c-.33,0-.21.54.12.44l.14-.05C49.44,21.29,49.32,21,49.09,21Z"/><path class="cls-10" d="M48.15,20a1,1,0,0,0-.62-.05.26.26,0,0,0,0,.51.94.94,0,0,0,.62,0A.24.24,0,0,0,48.15,20Z"/><path class="cls-10" d="M54,22.17a.23.23,0,0,0-.36,0,.6.6,0,0,0-.1.52.29.29,0,0,0,.57,0A.64.64,0,0,0,54,22.17Z"/><path class="cls-10" d="M59.16,21.9a.78.78,0,0,0-.47-.23c-.15,0-.32.15-.23.31a.75.75,0,0,0,.44.36A.26.26,0,0,0,59.16,21.9Z"/><path class="cls-10" d="M47.69,18.91a.75.75,0,0,0-.46-.23c-.15,0-.32.15-.24.31a.82.82,0,0,0,.44.36A.26.26,0,0,0,47.69,18.91Z"/><path class="cls-10" d="M55.64,22.62a.25.25,0,0,0-.09.37c.08.12.25.17.23.34a.29.29,0,0,0,.58.07C56.43,23,56.11,22.42,55.64,22.62Z"/><path class="cls-10" d="M26.56,32c-.24-.35-.72-.18-1-.49s-.39,0-.29.23a1.5,1.5,0,0,0,.44.59.6.6,0,0,0,.8,0A.3.3,0,0,0,26.56,32Z"/><path class="cls-10" d="M47,32.11c-.23,0-.43-.14-.64,0a.23.23,0,0,0-.09.32c.14.22.32.23.56.28C47.26,32.8,47.44,32.2,47,32.11Z"/><path class="cls-10" d="M21.6,32.85a.75.75,0,0,0-.42,0c-.36.07-.21.62.14.55a.66.66,0,0,0,.38-.17A.23.23,0,0,0,21.6,32.85Z"/><path class="cls-10" d="M23.09,31.63c-.09.16-.27.23-.38.38a.24.24,0,0,0,.08.33.67.67,0,0,0,.83-.39C23.82,31.6,23.28,31.28,23.09,31.63Z"/><path class="cls-10" d="M28.76,29.84a1.18,1.18,0,0,0-.69.25c-.09.12-.11.34.05.41a1.19,1.19,0,0,0,.81,0C29.33,30.37,29.17,29.76,28.76,29.84Z"/><path class="cls-10" d="M32,30.8a1.36,1.36,0,0,0-.8.18.23.23,0,0,0,0,.36,1.2,1.2,0,0,0,.75.06C32.36,31.37,32.37,30.77,32,30.8Z"/><path class="cls-10" d="M32.75,6a1.34,1.34,0,0,1-.49,0l-.11,0c.11-.21-.07-.51-.33-.37a3.54,3.54,0,0,0-.88.51V6a.9.9,0,0,0,0-.7c-.09-.21-.45-.1-.38.12a.35.35,0,0,1,0,.27,1,1,0,0,1-.22-.08A.7.7,0,0,1,30,5a.22.22,0,0,0-.43,0,1.43,1.43,0,0,0,.3,1c.19.25.62.57.93.39a.23.23,0,0,0,.26.2,1.65,1.65,0,0,0,.65-.26c.17.43.86.38,1.2.18A.24.24,0,0,0,32.75,6Z"/><path class="cls-10" d="M29.69,5.78c-.21-.36-.7-.24-1-.57a.19.19,0,0,0-.32.2,1.64,1.64,0,0,0,.39.63.62.62,0,0,0,.8.11A.31.31,0,0,0,29.69,5.78Z"/><path class="cls-10" d="M32.62,6.91c-.11,0-.38,0-.45-.08a.41.41,0,1,0-.29.57,4.83,4.83,0,0,0,.76,0C32.89,7.33,32.9,6.91,32.62,6.91Z"/><path class="cls-10" d="M27.62,6.2A1.24,1.24,0,0,0,27.28,6c-.37-.16-.58.42-.22.58a1.45,1.45,0,0,0,.37.11C27.72,6.76,27.83,6.36,27.62,6.2Z"/><path class="cls-10" d="M24.68,6.23a.7.7,0,0,0-.43,0c-.36,0-.26.6.1.56a.66.66,0,0,0,.39-.14A.22.22,0,0,0,24.68,6.23Z"/><path class="cls-10" d="M26.26,5.14c-.11.15-.29.2-.41.35a.23.23,0,0,0,.06.32.64.64,0,0,0,.85-.31C27,5.17,26.48,4.81,26.26,5.14Z"/><path class="cls-10" d="M30.62,6.43c-.39-.09-.79.18-1.14.34s-.1.67.26.55.81-.18,1-.48A.28.28,0,0,0,30.62,6.43Z"/><path class="cls-10" d="M30.94,7.66a.15.15,0,0,0,0,.29C31.1,8,31.13,7.67,30.94,7.66Z"/><path class="cls-10" d="M27.89,7.74c-.11-.33-.52-.38-.81-.48s-.58.34-.28.53.57.48.95.34C27.92,8.08,27.94,7.88,27.89,7.74Z"/><path class="cls-10" d="M32.07,3.83c-.25,0-.53,0-.71.19a.26.26,0,0,0,0,.41,1.18,1.18,0,0,0,.81,0C32.59,4.4,32.47,3.78,32.07,3.83Z"/><path class="cls-10" d="M35.19,5.05a1.38,1.38,0,0,0-.81.11.24.24,0,0,0,0,.37,1.25,1.25,0,0,0,.74.12C35.52,5.65,35.58,5.05,35.19,5.05Z"/><path class="cls-10" d="M37.3,4.31c-.25.1-.52.16-.66.41a.23.23,0,0,0,.16.33,1.05,1.05,0,0,0,.68-.19C37.82,4.71,37.65,4.17,37.3,4.31Z"/><path class="cls-10" d="M35.88,3.17c-.18,0-.24.25-.06.29A.15.15,0,0,0,35.88,3.17Z"/><path class="cls-10" d="M36.45,3.47c-.11.2-.29.37-.31.6a.25.25,0,0,0,.32.29c.28-.08.41-.37.5-.62S36.63,3.13,36.45,3.47Z"/><path class="cls-10" d="M35.23,3.11c-.12-.17-.31-.22-.44-.38s-.75,0-.51.33l.13.14-.18.06a2.53,2.53,0,0,1-.56.12.25.25,0,0,0,0,.49c.39.09,1,.09,1.26-.33a.09.09,0,0,0,0,0,.55.55,0,0,0,.18,0A.25.25,0,0,0,35.23,3.11Z"/><path class="cls-10" d="M35.53,4.11a1.09,1.09,0,0,1-.44,0,.2.2,0,0,0-.13.35.68.68,0,0,0,.7.06A.22.22,0,0,0,35.53,4.11Z"/><path class="cls-10" d="M40,5.62a.14.14,0,0,0-.06.28A.14.14,0,1,0,40,5.62Z"/><path class="cls-10" d="M39.1,5.14c-.25,0-.53,0-.73.11s-.18.31,0,.41a1.15,1.15,0,0,0,.8.12C39.55,5.77,39.51,5.14,39.1,5.14Z"/><path class="cls-10" d="M41.23,5.16a1.38,1.38,0,0,0-.83,0,.24.24,0,0,0,0,.37,1.26,1.26,0,0,0,.73.2C41.48,5.79,41.61,5.2,41.23,5.16Z"/><path class="cls-10" d="M32.78,2.68a1.35,1.35,0,0,0-.82,0,.24.24,0,0,0,0,.37,1.22,1.22,0,0,0,.73.2C33,3.31,33.17,2.72,32.78,2.68Z"/><path class="cls-10" d="M37.27,5.9a1.23,1.23,0,0,1-.54,0c-.32-.1-.43.41-.11.51a.84.84,0,0,0,.77-.1C37.54,6.17,37.49,5.88,37.27,5.9Z"/><path class="cls-10" d="M33.28,4.11a1,1,0,0,0-1.13,0,.31.31,0,0,0,0,.54,1.06,1.06,0,0,0,1.12-.15A.27.27,0,0,0,33.28,4.11Z"/><path class="cls-10" d="M32,3.81a.4.4,0,0,0-.33-.21.31.31,0,0,0-.12.6A.4.4,0,0,0,32,4.13.25.25,0,0,0,32,3.81Z"/><path class="cls-10" d="M34.63,4.88a.29.29,0,0,0-.2-.09c-.13,0-.26.09-.39.07a.28.28,0,0,0-.13.54,1.51,1.51,0,0,0-.76.35.28.28,0,0,0,.3.48c.24-.13.57-.23.68-.5a.25.25,0,0,0-.1-.31.56.56,0,0,0,.59-.24l.08,0C34.87,5.11,34.79,4.87,34.63,4.88Z"/><path class="cls-10" d="M36.46,5.23a.22.22,0,0,0-.28-.14.64.64,0,0,0-.26.18s0,0,0,0c0-.25-.42-.28-.45,0,0,0,0,0-.07,0a.2.2,0,0,0-.12.34.29.29,0,0,0,.26.11A3.28,3.28,0,0,1,35,6.1c-.26.15-.05.57.23.47A2.22,2.22,0,0,0,36,6.08,1,1,0,0,0,36.46,5.23Z"/><path class="cls-10" d="M39.24,6.64a.93.93,0,0,0-1.16-.45.25.25,0,0,0,0,.4A7.42,7.42,0,0,0,38.9,7C39.13,7.15,39.37,6.84,39.24,6.64Z"/><path class="cls-10" d="M29.68,4c-.23-.36-.74-.69-1.16-.44a.25.25,0,0,0,0,.4,7.42,7.42,0,0,0,.85.41C29.57,4.48,29.81,4.17,29.68,4Z"/><path class="cls-10" d="M38.81,4a.63.63,0,0,0,0,.36.21.21,0,0,0,.35.08.71.71,0,0,0,.15-.33A.26.26,0,0,0,38.81,4Z"/><path class="cls-10" d="M26.89,3.61a.73.73,0,0,0,0,.36.22.22,0,0,0,.36.08.81.81,0,0,0,.14-.33A.26.26,0,0,0,26.89,3.61Z"/><path class="cls-10" d="M32,5.32a.38.38,0,0,0-.15,0c-.33,0-.26.52.08.45l.15,0C32.35,5.65,32.26,5.34,32,5.32Z"/><path class="cls-10" d="M31.17,4.27a1,1,0,0,0-.61-.11.26.26,0,0,0,0,.51.92.92,0,0,0,.61,0A.23.23,0,0,0,31.17,4.27Z"/><path class="cls-10" d="M36.84,6.91a.23.23,0,0,0-.36,0,.63.63,0,0,0-.14.51.29.29,0,0,0,.57.05A.65.65,0,0,0,36.84,6.91Z"/><path class="cls-10" d="M42,7.07a.71.71,0,0,0-.44-.27c-.15,0-.33.12-.26.29a.8.8,0,0,0,.41.4A.26.26,0,0,0,42,7.07Z"/><path class="cls-10" d="M30.81,3.13a.82.82,0,0,0-.44-.27c-.15,0-.34.13-.26.29a.8.8,0,0,0,.41.4C30.79,3.69,31,3.34,30.81,3.13Z"/><path class="cls-10" d="M38.42,7.5a.23.23,0,0,0-.12.35c.07.13.24.2.2.36a.29.29,0,0,0,.57.12C39.17,8,38.9,7.34,38.42,7.5Z"/><path class="cls-11" d="M55.31,46.05a1.91,1.91,0,0,1-1.05.45l0,0a.54.54,0,0,1-.33.79,1,1,0,0,1-.62,0,.52.52,0,0,1-.36.55.65.65,0,0,1-.2,0c.2.35-.15.73-.49.76a1.49,1.49,0,0,1,.24.14.33.33,0,0,1-.07.51.66.66,0,0,1-.74-.11l0,0a3.75,3.75,0,0,1,.58.54.35.35,0,0,1-.34.57,1.42,1.42,0,0,1-.71-.44.6.6,0,0,1-.52.33c0,.46-.54.68-.88.45v0a.53.53,0,0,1-.87.22,1.3,1.3,0,0,1-.32-.5h0a1.62,1.62,0,0,1-.11,1,.52.52,0,0,1-.89,0,.82.82,0,0,1-.15-.33A.48.48,0,0,1,47,51,.56.56,0,0,0,47,50.9a.52.52,0,0,1-.75.15h0a.56.56,0,0,1-1.07,0,.07.07,0,0,0,0,0,.52.52,0,0,1-.13.06l0,0a1.53,1.53,0,0,1,.5,1,.32.32,0,0,1-.49.27,1.52,1.52,0,0,1-.57-1,.35.35,0,0,1,.1-.33l-.11,0a.61.61,0,0,1-.19.26.94.94,0,0,1,.12.18c.15.38-.11.88-.57.73a1.73,1.73,0,0,1-.65-.42l-.06.1a1.66,1.66,0,0,1,.24.16.51.51,0,0,1-.11.79,1,1,0,0,1-.32.08L43,53c.22.4-.21,1-.63.78-.08.31-.43.57-.73.34a2.45,2.45,0,0,1-.47-.5A1,1,0,0,1,41,54a.54.54,0,0,1-.85.1.93.93,0,0,1-.11-.19,3.81,3.81,0,0,1-.13.45.56.56,0,0,1-1.1-.16.37.37,0,0,0,0-.11.35.35,0,0,1-.13.05c0,.19-.1,1-.43,1-.17,0-.4-.44-.4-.87a.76.76,0,0,1,0-.15.19.19,0,0,1,0-.08.65.65,0,0,1-.23.09.59.59,0,0,1-.86.6,1,1,0,0,1-.16-.12c0,.11.1,1.39-.26,1.24s-.46-.58-.55-1h0a.55.55,0,0,1-.78.53.48.48,0,0,1-.71.29.89.89,0,0,1-.28-.23.53.53,0,0,1-.67.51,1.34,1.34,0,0,1,0,.34.53.53,0,0,1-1,.11,1.31,1.31,0,0,1-.21-.58.5.5,0,0,1-.7-.18,1.4,1.4,0,0,1-.11-.53.62.62,0,0,1-.55.16.33.33,0,0,1-.24.12h-.06a.23.23,0,0,1-.22-.18c-.24,0-.49-.14-.39-.43a.3.3,0,0,1,0-.08l-.05,0-.11,0a.67.67,0,0,1,0,.2.3.3,0,0,1-.51.13.71.71,0,0,1-.12-.13.76.76,0,0,1-.16.06.6.6,0,0,1,.22.62.29.29,0,0,1-.43.17.7.7,0,0,1-.17-.18.41.41,0,0,1-.26.07,1.06,1.06,0,0,1-.2.79.33.33,0,0,1-.46,0,1.13,1.13,0,0,1-.12-.18.86.86,0,0,1-.11.58.31.31,0,0,1-.53,0,.93.93,0,0,1-.1-.67.71.71,0,0,1-.18.12.32.32,0,0,1-.36-.15.61.61,0,0,1,0-.49h0a.3.3,0,0,1-.5-.21v0a.54.54,0,0,1-.22-.15,1,1,0,0,1-.27.42.28.28,0,0,1-.47-.28.87.87,0,0,1,.21-.39h0a.37.37,0,0,1-.1-.34.52.52,0,0,1-.28-.17.52.52,0,0,1-.33-.09.13.13,0,0,1,0,.06,1.15,1.15,0,0,1-.52.76.37.37,0,0,1-.54-.32,1.19,1.19,0,0,1,.4-.83.41.41,0,0,1,.25-.11.6.6,0,0,1,0-.26.34.34,0,0,1-.25.1.37.37,0,0,1-.35-.5.48.48,0,0,1-.16-.08.58.58,0,0,1-.89-.29.91.91,0,0,1,0-.17.55.55,0,0,1-.67-.13v.2h0a.44.44,0,0,1-.88,0v0a.35.35,0,0,1,0-.18l0-.14a.45.45,0,0,1,.12-.26.49.49,0,0,1-.54-.46.55.55,0,0,1-.62-.22l-.37.38a.26.26,0,0,1-.3.09.58.58,0,0,1-.8-.54,3.22,3.22,0,0,1,.19-.74.59.59,0,0,1-.45-1l0,0a.68.68,0,0,1,0-1.26l.21-.07a.62.62,0,0,1-.05-.58h-.06a.6.6,0,0,1-.46-1h-.31c-.35,0-.4-.45-.16-.61a1.76,1.76,0,0,1,.39-.19.54.54,0,0,1,.13-.64,1.66,1.66,0,0,1,.32-.22.53.53,0,0,1-.36-.25,1.34,1.34,0,0,1-.88.19.24.24,0,0,1-.14-.36,1.28,1.28,0,0,1,.86-.63.52.52,0,0,1-.48-.39,1.13,1.13,0,0,1,0-.55.36.36,0,0,1-.18,0,.51.51,0,0,1-.48-.37A.8.8,0,0,1,16.5,42a.59.59,0,0,1-.13-1l-.2-.05a.57.57,0,0,1,0-1.08l.42,0-.3-.09a.62.62,0,0,1-.27-1l-.34-.09-.21,0,0,0h0a.27.27,0,0,1-.13-.5.67.67,0,0,1,.18-.07h0a1,1,0,0,1,1,.2.29.29,0,0,1,.08.31l.15,0a.54.54,0,0,1,.57-.73l-.05,0,0,0a.31.31,0,0,1-.1.05,1.44,1.44,0,0,1-.88-.16.38.38,0,0,1,.21-.72,3.4,3.4,0,0,1,.59.19.41.41,0,0,1,.07-.11l-.37-.31a.32.32,0,0,1,.31-.53c-.14-.22.06-.59.34-.48a1.5,1.5,0,0,1,.78.54.69.69,0,0,1,.36-.39l-.26-.17a.32.32,0,0,1,.16-.59,1.41,1.41,0,0,1,.83.21.54.54,0,0,1,.34-.35h0l-.11-.06a.56.56,0,0,1-.07-.9,2,2,0,0,1-1,0,.35.35,0,0,1,0-.68,1.62,1.62,0,0,1,1.15.08.3.3,0,0,1,0,.48.51.51,0,0,1,.17,0H20s0,0,.05-.08a.7.7,0,0,1-.34-.64l-.35,0a.37.37,0,0,1-.09-.72,2,2,0,0,1,.35-.09,1.15,1.15,0,0,1,0-.19h-.13s-.06,0-.09-.06l-.07.09a1.78,1.78,0,0,1-.94.2.35.35,0,0,1-.08-.69,1.6,1.6,0,0,1,.94-.12s0,0,.08.05a.25.25,0,0,1,.17-.1l.19,0a.5.5,0,0,1,.18-.71,1.41,1.41,0,0,1,.92-.08.66.66,0,0,1-.25-.38.6.6,0,0,1,.16-.6l0,0a.67.67,0,0,1,.62-.16,3.45,3.45,0,0,1,.75.49.61.61,0,0,1,0-.46,2.3,2.3,0,0,1-1-.41c-.3-.19-.21-.77.2-.72a1.91,1.91,0,0,1,1.35.58.56.56,0,0,1,0,.12h.09a1.77,1.77,0,0,1-.28-.47c-.18-.45.49-.63.73-.3l.06.06a.7.7,0,0,1,.44-.16l-.06,0a.37.37,0,0,1,.19-.67,1.61,1.61,0,0,1,1,.15.6.6,0,0,1,.18-.55.28.28,0,0,1-.34,0,1.59,1.59,0,0,0-.27-.18.34.34,0,0,1,0-.64.58.58,0,0,1,.75.45.41.41,0,0,1-.11.33.52.52,0,0,1,.5-.11l.07,0a.76.76,0,0,1,.54-.2,3,3,0,0,1-.39-.41.34.34,0,0,1,.48-.47l.19.16a.47.47,0,0,1,.63-.06h0A1.09,1.09,0,0,1,27.1,26a.63.63,0,0,1,.76.08c0-.06,0-.12-.05-.17a.51.51,0,0,1,.46-.64,4,4,0,0,1,0-.92.37.37,0,0,1,.74,0,2.47,2.47,0,0,1-.06,1.05.38.38,0,0,1-.09.13,1.77,1.77,0,0,1,.47.7,2.19,2.19,0,0,1,.09-.56.49.49,0,0,1,.89-.11,2.58,2.58,0,0,1,.35.91,3.69,3.69,0,0,1,.14-1.16.53.53,0,0,1,1,0c0,.15.07.31.1.48a.77.77,0,0,1,.25.1h.06a.87.87,0,0,1,.22-.21,2.71,2.71,0,0,1-.07-1.06c0-.45.74-.46.71,0a6.69,6.69,0,0,0,.06.9h.2a2.06,2.06,0,0,1,.08-.85.35.35,0,0,1,.69.1c0,.07,0,.14,0,.21a.65.65,0,0,1,.62.63v.07l.32-.62c.3-.64,1.16-.24,1.16.35a.64.64,0,0,1,.3-.11,3.78,3.78,0,0,1,.09-.77.35.35,0,0,1,.67,0,2.66,2.66,0,0,1,0,1.16l.11-.15c.46-.64,1.51-.05,1.07.63-.14.21-.27.45-.41.68h0l.1-.16a.71.71,0,0,1,1.29.36l.15-.19a.63.63,0,0,1,1-.1,2.43,2.43,0,0,1,.06-1.07c.06-.4.67-.28.69.1a3.42,3.42,0,0,1,0,.85.39.39,0,0,1,.47.07l0-.08a.67.67,0,0,1,1.23.33l0,0s0,0,0,0a2.22,2.22,0,0,1,.06-.44c.07-.39.68-.29.68.1,0,0,0,0,0,.08a.34.34,0,0,1,.14.05.31.31,0,0,1,.11.09c.1-.23.22-.46.31-.68s.76-.09.62.27-.17.45-.26.67a.63.63,0,0,1,.62,1l-.11.13.12-.08a.67.67,0,0,1,.48,0,2.76,2.76,0,0,1,.56-.77c.28-.33.84.11.59.46a2.36,2.36,0,0,1-.69.78.51.51,0,0,1,0,.18l.33-.16c.7-.31,1.29.64.61,1.05a5,5,0,0,0-.53.37.89.89,0,0,1,.23.34l.22-.24a.64.64,0,0,1,.86,0l.28-.63a.61.61,0,0,1,1,0,.58.58,0,0,1,1,.49l-.09.37a3.27,3.27,0,0,1,1.07-.54.52.52,0,0,1,.7.56,1.3,1.3,0,0,1,.65,0c.3.06.28.44.07.59a1.68,1.68,0,0,1-.94.25.66.66,0,0,1-.18.82h0a.34.34,0,0,1,.14.09l.69-.18a.54.54,0,0,1,.34,1,1,1,0,0,1,.06.16v0a.9.9,0,0,1,1-.14.35.35,0,0,1,.07.55.87.87,0,0,1-1,.1.38.38,0,0,1-.09-.09.61.61,0,0,1-.13.22.56.56,0,0,1-.14.54.82.82,0,0,1,.38.25.58.58,0,0,1,0,.71c.14,0,.29,0,.45,0a.36.36,0,0,1,.18.67.9.9,0,0,1-.63.13,1,1,0,0,1,0,.17,1,1,0,0,1,.5.13.56.56,0,0,1,.24.67h.06a.47.47,0,0,1,.27.16.9.9,0,0,1,.45-.3.33.33,0,0,1,.37.49.81.81,0,0,1-.46.41.3.3,0,0,1-.23,0,.66.66,0,0,1,0,.15,1.34,1.34,0,0,1,.6,0,.56.56,0,0,1,.24.93,1.32,1.32,0,0,1-.52.29,1.35,1.35,0,0,1,.45.22.54.54,0,0,1-.12.85.8.8,0,0,1-.2.07c.12,0,.25.06.37.1a.32.32,0,0,1,.07.59.67.67,0,0,1-.72,0,.53.53,0,0,1-.15.26.57.57,0,0,1,.11.11.6.6,0,0,1,.07.62,1.08,1.08,0,0,1,.53.39.51.51,0,0,1,0,.48l0,0a.54.54,0,0,1,.19.67.57.57,0,0,1,.09.9l-.19.12a.6.6,0,0,1,.2.84A.55.55,0,0,1,55.31,46.05Z"/><path class="cls-12" d="M55.29,45.27a.6.6,0,0,0-.2-.84l.19-.12a.57.57,0,0,0-.09-.9.54.54,0,0,0-.19-.67l0,0a.51.51,0,0,0,0-.48,1.08,1.08,0,0,0-.53-.39.6.6,0,0,0-.07-.62.57.57,0,0,0-.11-.11.53.53,0,0,0,.15-.26.67.67,0,0,0,.72,0,.32.32,0,0,0-.07-.59c-.12,0-.25-.05-.37-.1a.8.8,0,0,0,.2-.07.54.54,0,0,0,.12-.85,1.35,1.35,0,0,0-.45-.22,1.32,1.32,0,0,0,.52-.29.56.56,0,0,0-.24-.93,1.34,1.34,0,0,0-.6,0,.66.66,0,0,0,0-.15.3.3,0,0,0,.23,0,.81.81,0,0,0,.46-.41.33.33,0,0,0-.37-.49.9.9,0,0,0-.45.3.49.49,0,0,0-.23-.14,2.26,2.26,0,0,1-.79.29s0,0,0,0a.53.53,0,0,1-.33.78,1,1,0,0,1-.62,0,.52.52,0,0,1-.35.55.8.8,0,0,1-.21,0c.2.34-.14.72-.48.75a2,2,0,0,1,.23.14.33.33,0,0,1-.07.51.65.65,0,0,1-.73-.11l-.05,0a3.75,3.75,0,0,1,.58.54.35.35,0,0,1-.34.57,1.42,1.42,0,0,1-.71-.44.6.6,0,0,1-.52.33c.05.46-.54.68-.88.45v0c-.08.41-.59.44-.86.22a1.22,1.22,0,0,1-.33-.5h0a1.69,1.69,0,0,1-.12,1,.52.52,0,0,1-.89,0,.82.82,0,0,1-.15-.33.47.47,0,0,1-.44-.13.24.24,0,0,1-.06-.08.51.51,0,0,1-.75.15h0a.57.57,0,0,1-1.08,0,.07.07,0,0,0,0,0,.45.45,0,0,1-.12.06l0,0a1.59,1.59,0,0,1,.51,1,.34.34,0,0,1-.5.28,1.61,1.61,0,0,1-.57-1,.31.31,0,0,1,.11-.32l-.12,0a.58.58,0,0,1-.18.26,1.18,1.18,0,0,1,.11.19c.15.37-.11.88-.57.72a1.73,1.73,0,0,1-.65-.42.53.53,0,0,1-.06.1,1.13,1.13,0,0,1,.24.17.5.5,0,0,1-.11.78.66.66,0,0,1-.32.08l0,.07c.23.4-.21,1-.63.78a.48.48,0,0,1-.73.34,2.45,2.45,0,0,1-.47-.5,1,1,0,0,1-.14.34.55.55,0,0,1-.85.11,1,1,0,0,1-.11-.2,2.54,2.54,0,0,1-.13.45.56.56,0,0,1-1.09-.16v-.11a.35.35,0,0,1-.13.05c0,.19-.1,1-.43,1-.17,0-.4-.44-.39-.87a.75.75,0,0,1,0-.15s0,0,0-.08a.5.5,0,0,1-.23.09.58.58,0,0,1-.86.6,1,1,0,0,1-.16-.12c0,.11.1,1.39-.26,1.24s-.46-.58-.55-1h0a.54.54,0,0,1-.77.52.5.5,0,0,1-.72.29.77.77,0,0,1-.28-.23.53.53,0,0,1-.67.51,1.34,1.34,0,0,1,0,.34c-.11.48-.71.45-1,.11a1.44,1.44,0,0,1-.21-.58.5.5,0,0,1-.7-.18,1.4,1.4,0,0,1-.11-.53.59.59,0,0,1-.55.16.33.33,0,0,1-.24.12h-.06a.23.23,0,0,1-.22-.18c-.24,0-.49-.14-.39-.43,0,0,0-.05,0-.08l0,0-.11,0a.67.67,0,0,1,0,.2.3.3,0,0,1-.51.13.63.63,0,0,1-.11-.13.58.58,0,0,1-.17.06.6.6,0,0,1,.22.62.29.29,0,0,1-.43.17.7.7,0,0,1-.17-.18.41.41,0,0,1-.26.07,1.06,1.06,0,0,1-.2.79.32.32,0,0,1-.46,0,1.13,1.13,0,0,1-.12-.18.86.86,0,0,1-.11.58.31.31,0,0,1-.53,0,.93.93,0,0,1-.1-.67.71.71,0,0,1-.18.12.33.33,0,0,1-.36-.15.61.61,0,0,1,0-.49h0a.3.3,0,0,1-.5-.21v0a.54.54,0,0,1-.22-.15,1,1,0,0,1-.27.42.28.28,0,0,1-.47-.27.85.85,0,0,1,.21-.4h0a.36.36,0,0,1-.1-.34.46.46,0,0,1-.27-.17.53.53,0,0,1-.34-.09.13.13,0,0,1,0,.06,1.15,1.15,0,0,1-.52.76.36.36,0,0,1-.53-.32,1.08,1.08,0,0,1,.4-.82.35.35,0,0,1,.24-.12.61.61,0,0,1,0-.26.34.34,0,0,1-.25.1.37.37,0,0,1-.35-.5.48.48,0,0,1-.16-.08.57.57,0,0,1-.88-.29.47.47,0,0,1,0-.17.55.55,0,0,1-.67-.13v.2h0a.44.44,0,0,1-.88,0v0a.47.47,0,0,1,0-.17l0-.15a.45.45,0,0,1,.12-.26.49.49,0,0,1-.54-.46.55.55,0,0,1-.62-.22c-.12.13-.25.25-.36.38a.28.28,0,0,1-.31.09.58.58,0,0,1-.8-.54,3.22,3.22,0,0,1,.19-.74.59.59,0,0,1-.45-1l0,0a.54.54,0,0,1-.34-.4l-.26,0a.57.57,0,0,0,0,1.08l.2.05a.59.59,0,0,0,.13,1,.8.8,0,0,0-.17.69.51.51,0,0,0,.48.37.36.36,0,0,0,.18,0,1.13,1.13,0,0,0,0,.55.52.52,0,0,0,.48.39,1.28,1.28,0,0,0-.86.63.24.24,0,0,0,.14.36,1.34,1.34,0,0,0,.88-.19.53.53,0,0,0,.36.25,1.66,1.66,0,0,0-.32.22.54.54,0,0,0-.13.64,1.76,1.76,0,0,0-.39.19c-.24.16-.19.66.16.61h.31a.6.6,0,0,0,.46,1h.06a.62.62,0,0,0,.05.58l-.21.07a.68.68,0,0,0,0,1.26l0,0a.59.59,0,0,0,.45,1,3.22,3.22,0,0,0-.19.74.58.58,0,0,0,.8.54.26.26,0,0,0,.3-.09l.37-.38a.55.55,0,0,0,.62.22.49.49,0,0,0,.54.46.45.45,0,0,0-.12.26l0,.14a.35.35,0,0,0,0,.18v0a.44.44,0,0,0,.88,0h0v-.2a.55.55,0,0,0,.67.13.91.91,0,0,0,0,.17.58.58,0,0,0,.89.29.48.48,0,0,0,.16.08.37.37,0,0,0,.35.5.34.34,0,0,0,.25-.1.6.6,0,0,0,0,.26.36.36,0,0,0-.25.11,1.19,1.19,0,0,0-.4.83.37.37,0,0,0,.54.32,1.15,1.15,0,0,0,.52-.76.13.13,0,0,0,0-.06.52.52,0,0,0,.33.09.52.52,0,0,0,.28.17.37.37,0,0,0,.1.34h0a.87.87,0,0,0-.21.39.28.28,0,0,0,.47.28,1,1,0,0,0,.27-.42.54.54,0,0,0,.22.15v0a.3.3,0,0,0,.5.21h0a.61.61,0,0,0,0,.49.32.32,0,0,0,.36.15.71.71,0,0,0,.18-.12.93.93,0,0,0,.1.67.31.31,0,0,0,.53,0,.86.86,0,0,0,.11-.58,1.13,1.13,0,0,0,.12.18.33.33,0,0,0,.46,0,1.06,1.06,0,0,0,.2-.79.41.41,0,0,0,.26-.07.7.7,0,0,0,.17.18.29.29,0,0,0,.43-.17.6.6,0,0,0-.22-.62.76.76,0,0,0,.16-.06.71.71,0,0,0,.12.13.3.3,0,0,0,.51-.13.69.69,0,0,0,0-.2l.11,0,.05,0a.3.3,0,0,0,0,.08c-.1.29.15.46.39.43a.23.23,0,0,0,.22.18h.06a.33.33,0,0,0,.24-.12.62.62,0,0,0,.55-.16,1.4,1.4,0,0,0,.11.53.5.5,0,0,0,.7.18,1.31,1.31,0,0,0,.21.58.53.53,0,0,0,1-.11,1.34,1.34,0,0,0,0-.34.53.53,0,0,0,.67-.51,1,1,0,0,0,.28.23.48.48,0,0,0,.71-.29.55.55,0,0,0,.78-.53h0c.09.38.21.82.55,1s.27-1.13.26-1.24a1,1,0,0,0,.16.12.59.59,0,0,0,.86-.6.65.65,0,0,0,.23-.09.19.19,0,0,0,0,.08.76.76,0,0,0,0,.15c0,.43.23.91.4.87.33-.06.44-.85.43-1a.35.35,0,0,0,.13-.05.37.37,0,0,1,0,.11.56.56,0,0,0,1.1.16,3.81,3.81,0,0,0,.13-.45.93.93,0,0,0,.11.19A.54.54,0,0,0,41,54a1,1,0,0,0,.14-.34,2.45,2.45,0,0,0,.47.5c.3.23.65,0,.73-.34.42.18.85-.38.63-.78l0-.07a1,1,0,0,0,.32-.08.51.51,0,0,0,.11-.79,1.66,1.66,0,0,0-.24-.16l.06-.1a1.73,1.73,0,0,0,.65.42c.46.15.72-.35.57-.73a.94.94,0,0,0-.12-.18.61.61,0,0,0,.19-.26l.11,0a.35.35,0,0,0-.1.33,1.52,1.52,0,0,0,.57,1,.32.32,0,0,0,.49-.27,1.53,1.53,0,0,0-.5-1l0,0a.52.52,0,0,0,.13-.06.07.07,0,0,1,0,0,.56.56,0,0,0,1.07,0h0A.51.51,0,0,0,47,50.9.56.56,0,0,1,47,51a.48.48,0,0,0,.45.13.82.82,0,0,0,.15.33.52.52,0,0,0,.89,0,1.62,1.62,0,0,0,.11-1h0a1.3,1.3,0,0,0,.32.5.53.53,0,0,0,.87-.22v0c.34.23.93,0,.88-.45a.6.6,0,0,0,.52-.33,1.42,1.42,0,0,0,.71.44.35.35,0,0,0,.34-.57,3.75,3.75,0,0,0-.58-.54l0,0a.66.66,0,0,0,.74.11.33.33,0,0,0,.07-.51,1.49,1.49,0,0,0-.24-.14c.34,0,.69-.41.49-.76a.65.65,0,0,0,.2,0,.52.52,0,0,0,.36-.55,1,1,0,0,0,.62,0,.54.54,0,0,0,.33-.79l0,0a1.91,1.91,0,0,0,1.05-.45A.55.55,0,0,0,55.29,45.27Z"/><path class="cls-10" d="M33.52,27.56a1.38,1.38,0,0,1-.75-.13.23.23,0,0,1,0-.42,1.46,1.46,0,0,1,.77.06C33.85,27.13,33.81,27.58,33.52,27.56Zm-1.25-.81c-.24.08-.52.12-.65.37a.21.21,0,0,0,.13.3c.27.06.49-.12.71-.25A.23.23,0,0,0,32.27,26.75Zm-1.11.72a.55.55,0,0,1-.23.14l.07-.05a.24.24,0,0,0-.18-.39,2,2,0,0,0-.79.34c-.25.13-.06.56.2.45a4,4,0,0,0,.53-.23.22.22,0,0,0,.13.3.5.5,0,0,0,.63-.36A.21.21,0,0,0,31.16,27.47Zm9.39,5.43a.62.62,0,0,1-.23.14l.06-.06a.23.23,0,0,0-.17-.38,2,2,0,0,0-.8.34c-.24.13,0,.56.2.45s.37-.14.53-.23a.22.22,0,0,0,.13.3.51.51,0,0,0,.64-.37A.21.21,0,0,0,40.55,32.9Zm-7.43-4.67a.82.82,0,0,0-.41,0,.21.21,0,0,0,0,.4.81.81,0,0,0,.41,0C33.34,28.61,33.33,28.25,33.12,28.23Zm-3.69-.48a1.22,1.22,0,0,0-.51-.09c-.32,0-.3.47,0,.5a1,1,0,0,0,.45,0A.22.22,0,0,0,29.43,27.75Zm2.13,1a1.36,1.36,0,0,0-.68-.27c-.32-.09-.44.4-.12.5a1.38,1.38,0,0,0,.72.13A.21.21,0,0,0,31.56,28.74ZM41.14,28a.24.24,0,0,0,0,.37c.13.14.36.17.53.27s.28.32.42.46a.24.24,0,0,0,.4-.18C42.5,28.37,41.62,27.58,41.14,28Zm.33.93c-.18-.28-.63,0-.44.28a.83.83,0,0,0,.27.29.22.22,0,0,0,.32-.2A.85.85,0,0,0,41.47,28.89Zm-1.06-.4a.67.67,0,0,0-.23.37.23.23,0,0,0,.34.25c.16-.07.2-.18.29-.32A.25.25,0,0,0,40.41,28.49Zm-.8.79a1.2,1.2,0,0,1-.27.08.28.28,0,0,0-.06.55.52.52,0,0,0,.66-.32C40,29.39,39.79,29.24,39.61,29.28Zm-.67-.49a1.26,1.26,0,0,0-1.22.08.26.26,0,0,0,.14.47l.36,0a.13.13,0,0,0,.14.13.14.14,0,0,0,.13-.17,2.7,2.7,0,0,0,.41-.08A.22.22,0,0,0,38.94,28.79Zm-1.86-.46c-.23-.34-.79,0-.54.34a.47.47,0,0,0,.31.22.25.25,0,0,0,.31-.19A.45.45,0,0,0,37.08,28.33Zm1.25-.43-.09-.07c-.35-.28-.63.36-.24.45l.11,0C38.32,28.35,38.53,28.05,38.33,27.9ZM32.1,30.2c-.24.13-.5.22-.62.48a.23.23,0,0,0,.2.31,1,1,0,0,0,.66-.27C32.66,30.53,32.43,30,32.1,30.2Zm-1.55-1a.15.15,0,0,0,0,.3A.15.15,0,0,0,30.55,29.23ZM34.23,28c-.08.2-.25.4-.24.63a.26.26,0,0,0,.36.25.9.9,0,0,0,.42-.68A.29.29,0,0,0,34.23,28Zm-4.34,1.23c-.13-.16-.33-.18-.47-.32s-.75.11-.47.38l.14.13-.17.07a3.13,3.13,0,0,1-.54.19.25.25,0,0,0,0,.49c.4,0,1.06,0,1.22-.48,0,0,0,0,0-.05a.62.62,0,0,0,.18,0A.25.25,0,0,0,29.89,29.25Zm.42,1a1.27,1.27,0,0,1-.44.05.2.2,0,0,0-.08.36.68.68,0,0,0,.7,0A.21.21,0,0,0,30.31,30.21Zm4.6,1a.15.15,0,0,0,0,.29C35.07,31.48,35.1,31.19,34.91,31.18ZM34,30.81a1.16,1.16,0,0,0-.71.2.26.26,0,0,0,0,.41,1.25,1.25,0,0,0,.81,0C34.5,31.38,34.39,30.76,34,30.81Zm2.11-.24a1.32,1.32,0,0,0-.81.12.24.24,0,0,0,0,.37,1.27,1.27,0,0,0,.75.11C36.42,31.18,36.48,30.58,36.09,30.57Zm-8.67-1.46a1.35,1.35,0,0,0-.82.11.24.24,0,0,0,0,.37,1.36,1.36,0,0,0,.75.12C27.75,29.71,27.8,29.11,27.42,29.11Zm4.83,2.67a1.23,1.23,0,0,1-.54,0c-.33-.06-.37.46-.05.52a.84.84,0,0,0,.76-.19C32.56,32,32.47,31.73,32.25,31.78Zm-4.17-1.31a1.06,1.06,0,0,0-1.12.11.32.32,0,0,0,.09.54,1.06,1.06,0,0,0,1.09-.28A.27.27,0,0,0,28.08,30.47ZM44.33,32.3a1,1,0,0,0-1.11.12.32.32,0,0,0,.09.54,1.09,1.09,0,0,0,1.09-.28A.27.27,0,0,0,44.33,32.3Zm-17.54-2a.44.44,0,0,0-.35-.18.31.31,0,0,0-.05.61.43.43,0,0,0,.37-.11A.23.23,0,0,0,26.79,30.33Zm2.72.75a.31.31,0,0,0-.2-.07c-.14,0-.26.12-.39.12a.28.28,0,0,0-.06.55,1.47,1.47,0,0,0-.72.44c-.29.23.07.65.36.44s.54-.3.61-.58a.23.23,0,0,0-.13-.3.54.54,0,0,0,.55-.3l.08,0C29.78,31.28,29.67,31.05,29.51,31.08Zm1.86.13a.24.24,0,0,0-.3-.11.66.66,0,0,0-.23.21v0c0-.26-.45-.24-.45,0,0,0,0,0-.07,0a.2.2,0,0,0-.08.35.31.31,0,0,0,.27.08,2.58,2.58,0,0,1-.5.49.26.26,0,0,0,.28.43,2.06,2.06,0,0,0,.76-.58A1,1,0,0,0,31.37,31.21Zm2.92,1.07a.92.92,0,0,0-1.2-.31.26.26,0,0,0,0,.41c.26.16.61.16.9.3S34.45,32.47,34.29,32.28Zm12.5-1.09a.93.93,0,0,0-1.2-.3.25.25,0,0,0,0,.4,7.93,7.93,0,0,0,.9.31C46.75,31.72,47,31.38,46.79,31.19Zm-22.3-.44c-.28-.33-.82-.6-1.21-.3a.25.25,0,0,0,0,.4,7.93,7.93,0,0,0,.9.31C24.44,31.27,24.64,30.94,24.49,30.75Zm9.06-1.07a.72.72,0,0,0,0,.36.22.22,0,0,0,.37,0,.67.67,0,0,0,.1-.34A.26.26,0,0,0,33.55,29.68ZM21.67,30.73a.9.9,0,0,0,0,.36.21.21,0,0,0,.36,0,.71.71,0,0,0,.1-.35C22.22,30.45,21.7,30.4,21.67,30.73ZM27,31.82a.39.39,0,0,0-.15,0c-.33.05-.19.55.14.43l.14-.05C27.34,32.11,27.21,31.81,27,31.82Zm-1-.94a1,1,0,0,0-.62,0,.26.26,0,0,0,0,.52,1,1,0,0,0,.62-.05A.24.24,0,0,0,26,30.88Zm5.94,1.95a.22.22,0,0,0-.35,0,.63.63,0,0,0-.09.53.29.29,0,0,0,.57,0A.6.6,0,0,0,31.94,32.83Zm5.13-.45a.81.81,0,0,0-.47-.21c-.15,0-.32.16-.22.32a.77.77,0,0,0,.45.34A.26.26,0,0,0,37.07,32.38Zm6.7-2.21A.8.8,0,0,0,43.3,30c-.16,0-.32.16-.23.32a.79.79,0,0,0,.46.34C43.81,30.73,44,30.35,43.77,30.17Zm-18.26-.38a.7.7,0,0,0-.47-.21c-.15,0-.32.16-.22.32a.82.82,0,0,0,.45.34A.26.26,0,0,0,25.51,29.79Zm8.07,3.44a.25.25,0,0,0-.08.37c.09.11.26.16.25.33a.29.29,0,0,0,.58,0C34.38,33.59,34,33,33.58,33.23Z"/><path class="cls-10" d="M15.3,18.32a.25.25,0,0,1-.28-.19c-.3.21-.75-.07-1-.31a1.49,1.49,0,0,1-.38-.95c0-.28.42-.27.43,0a.69.69,0,0,0,.42.6.86.86,0,0,0,.23.06.42.42,0,0,0,0-.27.2.2,0,0,1,.37-.15.89.89,0,0,1,0,.7.06.06,0,0,1,0,0,3.65,3.65,0,0,1,.83-.58c.25-.16.45.12.36.34l.12,0a1.11,1.11,0,0,0,.48,0,.24.24,0,0,1,.18.44c-.32.22-1,.34-1.21-.08A1.75,1.75,0,0,1,15.3,18.32Zm-1.41-.61c-.24-.35-.72-.18-1-.49-.15-.16-.4,0-.3.23A1.5,1.5,0,0,0,13,18a.6.6,0,0,0,.8,0A.3.3,0,0,0,13.89,17.71Zm3,.88c-.11,0-.38.06-.46-.05a.41.41,0,0,0-.7,0c-.2.33.12.64.46.6a4.9,4.9,0,0,0,.76-.08C17.21,19,17.19,18.56,16.91,18.59ZM17.58,20c-.23-.05-.43-.14-.64,0a.23.23,0,0,0-.09.31c.14.22.32.24.56.29C17.8,20.69,18,20.1,17.58,20Zm-6.24-1.26a1.25,1.25,0,0,0,.37.09.29.29,0,0,0,.15-.53,1.19,1.19,0,0,0-.35-.15C11.12,18,11,18.61,11.34,18.74Zm-2.83-.17c-.36.07-.21.62.15.55A.66.66,0,0,0,9,19a.23.23,0,0,0-.09-.38A.79.79,0,0,0,8.51,18.57Zm1.91-1.22c-.09.17-.27.23-.38.39a.24.24,0,0,0,.09.32.66.66,0,0,0,.82-.39A.31.31,0,0,0,10.42,17.35Zm3.35,1.37c-.35.2,0,.67.3.52s.79-.25,1-.57a.27.27,0,0,0-.16-.39C14.48,18.22,14.1,18.52,13.77,18.72Zm1.52.75a.15.15,0,0,0,0,.3A.15.15,0,0,0,15.29,19.47Zm-3.87-.07a.31.31,0,0,0-.24.56c.32.17.61.42,1,.26.16-.07.16-.27.11-.41C12.13,19.49,11.71,19.48,11.42,19.4Zm4.84-3.22c.4-.09.24-.7-.16-.62-.24,0-.53.06-.69.26s-.12.33,0,.4A1.19,1.19,0,0,0,16.26,16.18Zm3,.34a1.37,1.37,0,0,0-.8.18.24.24,0,0,0,0,.37,1.31,1.31,0,0,0,.76.05C19.69,17.09,19.7,16.49,19.31,16.52Zm3.07,4.7c-.24-.34-.72-.18-1-.49s-.39.05-.3.23a1.5,1.5,0,0,0,.44.59.6.6,0,0,0,.8,0A.29.29,0,0,0,22.38,21.22Zm3,.88c-.11,0-.38.06-.46-.05a.41.41,0,1,0-.24.6,4.9,4.9,0,0,0,.76-.08C25.7,22.49,25.68,22.07,25.4,22.1Zm.67,1.41c-.23-.05-.43-.13-.64,0a.24.24,0,0,0-.09.31c.14.23.32.24.56.29C26.29,24.2,26.47,23.61,26.07,23.51Zm-6.24-1.26a1.25,1.25,0,0,0,.37.09.29.29,0,0,0,.15-.53,1.09,1.09,0,0,0-.35-.15C19.62,21.53,19.45,22.12,19.83,22.25Zm-.92-1.38c-.09.16-.27.22-.37.38a.23.23,0,0,0,.08.32.65.65,0,0,0,.82-.39A.31.31,0,0,0,18.91,20.87Zm3.35,1.36c-.35.2-.05.67.3.52s.79-.25,1-.57a.27.27,0,0,0-.16-.39C23,21.73,22.59,22,22.26,22.23Zm1.52.75a.15.15,0,0,0,0,.3A.15.15,0,0,0,23.78,23Zm-3.87-.07a.31.31,0,0,0-.24.56c.32.17.61.42,1,.26a.3.3,0,0,0,.11-.41C20.62,23,20.2,23,19.91,22.91Zm-6.24,4.92c-.25-.35-.72-.18-1-.49s-.39,0-.29.23a1.5,1.5,0,0,0,.44.59.6.6,0,0,0,.8,0A.3.3,0,0,0,13.67,27.83Zm3.75.2c-.11,0-.38.06-.46-.05a.41.41,0,1,0-.24.6,4.9,4.9,0,0,0,.76-.08C17.72,28.42,17.7,28,17.42,28Zm6.27-2.82c-.11,0-.38.06-.45-.05a.42.42,0,0,0-.71,0,.41.41,0,0,0,.46.6,3.27,3.27,0,0,0,.76-.08C24,25.6,24,25.18,23.69,25.21Zm-3.12.94c-.23-.06-.43-.14-.65,0a.24.24,0,0,0-.08.32c.13.22.32.23.56.28C20.79,26.83,21,26.24,20.57,26.15ZM10.16,28.33a1.25,1.25,0,0,0,.37.09c.3,0,.37-.39.15-.53a1.44,1.44,0,0,0-.36-.15C9.94,27.62,9.78,28.2,10.16,28.33ZM7.37,26.71c-.09.16-.27.23-.37.38a.23.23,0,0,0,.08.32A.65.65,0,0,0,7.9,27,.31.31,0,0,0,7.37,26.71Zm7.18,4.42a.3.3,0,0,0,.3.53c.31-.13.79-.26,1-.57a.27.27,0,0,0-.16-.39C15.26,30.64,14.88,30.94,14.55,31.13Zm5-12.16c-.35.2-.05.68.3.53s.79-.26,1-.57c.07-.14,0-.37-.16-.39C20.24,18.48,19.86,18.78,19.53,19ZM15.07,29.59a.15.15,0,0,0,0,.3A.15.15,0,0,0,15.07,29.59Zm-3.88.84A.31.31,0,0,0,11,31c.32.17.61.42,1,.26a.31.31,0,0,0,.11-.41C11.9,30.52,11.49,30.51,11.19,30.43ZM25.32,36.7a.24.24,0,0,1-.28-.18c-.29.21-.74-.07-.95-.31a1.45,1.45,0,0,1-.39-1c0-.28.42-.27.44,0a.7.7,0,0,0,.41.61,1,1,0,0,0,.23.06.36.36,0,0,0,0-.27c-.08-.22.26-.36.37-.15a.94.94,0,0,1,0,.7v0a3.69,3.69,0,0,1,.83-.59c.25-.15.46.13.37.35l.11,0A1.34,1.34,0,0,0,27,36a.24.24,0,0,1,.18.43c-.33.23-1,.34-1.21-.08A1.51,1.51,0,0,1,25.32,36.7Zm-1.4-.6c-.25-.35-.73-.18-1-.49-.15-.16-.39,0-.3.22a1.47,1.47,0,0,0,.44.6.61.61,0,0,0,.81,0A.32.32,0,0,0,23.92,36.1Zm3,.88c-.11,0-.38.06-.45,0a.42.42,0,0,0-.71,0,.41.41,0,0,0,.46.6,3.22,3.22,0,0,0,.76-.08C27.23,37.37,27.21,37,26.93,37Zm.68,1.41c-.24,0-.44-.14-.65,0a.24.24,0,0,0-.08.32c.13.22.31.23.55.28C27.83,39.08,28,38.48,27.61,38.39Zm-6.25-1.26a1.61,1.61,0,0,0,.38.08c.29,0,.37-.38.14-.53a1.37,1.37,0,0,0-.35-.15C21.15,36.41,21,37,21.36,37.13ZM18.53,37c-.36.07-.21.62.15.55a.66.66,0,0,0,.38-.17A.23.23,0,0,0,19,37,.7.7,0,0,0,18.53,37Zm1.91-1.22c-.09.16-.26.23-.37.38a.23.23,0,0,0,.08.32c.35.16.65-.08.83-.38S20.64,35.39,20.44,35.74Zm3.35,1.36c-.35.2-.05.68.3.53s.79-.26,1-.57a.27.27,0,0,0-.15-.39C24.5,36.61,24.12,36.91,23.79,37.1Zm1.53.76a.15.15,0,0,0,0,.29A.15.15,0,0,0,25.32,37.86Zm-3.88-.07a.3.3,0,0,0-.24.55c.32.18.61.43,1,.26a.29.29,0,0,0,.11-.4C22.15,37.88,21.74,37.86,21.44,37.79Zm4.85-3.22c.4-.09.23-.71-.17-.62a1.18,1.18,0,0,0-.69.25c-.1.12-.12.34.05.41A1.2,1.2,0,0,0,26.29,34.57Zm3,.33a1.38,1.38,0,0,0-.8.19.23.23,0,0,0,0,.36,1.27,1.27,0,0,0,.75.06C29.71,35.48,29.72,34.87,29.33,34.9Zm3.08,4.71c-.25-.35-.73-.18-1-.49-.15-.16-.39,0-.3.23a1.72,1.72,0,0,0,.44.59.61.61,0,0,0,.81,0A.3.3,0,0,0,32.41,39.61Zm3,.88c-.11,0-.38.06-.45-.05a.4.4,0,1,0-.25.59,3.22,3.22,0,0,0,.76-.08C35.73,40.88,35.7,40.46,35.42,40.49Zm.68,1.41c-.23,0-.43-.14-.65,0a.24.24,0,0,0-.08.32c.13.22.32.23.56.28S36.49,42,36.1,41.9Zm-6.25-1.26a1.61,1.61,0,0,0,.38.08c.29,0,.37-.38.15-.53A2.28,2.28,0,0,0,30,40C29.64,39.92,29.48,40.51,29.85,40.64Zm-.92-1.39c-.09.16-.26.23-.37.38a.23.23,0,0,0,.08.32.66.66,0,0,0,.83-.38C29.66,39.22,29.13,38.9,28.93,39.25Zm3.35,1.36a.3.3,0,0,0,.3.53c.32-.13.8-.25,1-.57.07-.13,0-.36-.15-.39C33,40.12,32.61,40.42,32.28,40.61Zm1.53.76a.15.15,0,0,0,0,.29A.15.15,0,0,0,33.81,41.37Zm-3.88-.07c-.33-.08-.55.39-.24.55s.61.43,1,.26a.29.29,0,0,0,.11-.4C30.64,41.39,30.23,41.38,29.93,41.3Zm-5.25-.8c-.24-.34-.72-.18-1-.49-.14-.16-.39.05-.29.23a1.5,1.5,0,0,0,.44.59.6.6,0,0,0,.8,0A.3.3,0,0,0,24.68,40.5Zm12.51-6.23c-.11,0-.38.06-.45,0a.4.4,0,1,0-.25.59,4.78,4.78,0,0,0,.76-.08C37.5,34.66,37.47,34.24,37.19,34.27ZM28.37,42.8c-.23-.06-.43-.14-.64,0a.24.24,0,0,0-.09.32c.14.22.32.23.56.28C28.59,43.48,28.77,42.89,28.37,42.8ZM49.2,33a1.18,1.18,0,0,0,.37.09c.3,0,.37-.39.15-.53a1.14,1.14,0,0,0-.36-.15C49,32.32,48.82,32.91,49.2,33Zm-26.64.36c-.09.16-.26.22-.37.38a.23.23,0,0,0,.08.32.66.66,0,0,0,.83-.39A.31.31,0,0,0,22.56,33.4Zm25.36,5.23a.31.31,0,0,0,.31.53c.31-.13.79-.25,1-.57.07-.13,0-.36-.15-.39C48.63,38.14,48.25,38.44,47.92,38.63ZM26.08,42.26a.15.15,0,0,0,0,.3A.15.15,0,0,0,26.08,42.26Zm21-7.64c-.32-.08-.55.39-.23.56s.61.42,1,.26A.31.31,0,0,0,48,35C47.82,34.71,47.4,34.7,47.1,34.62ZM41,37.21c-.24-.34-.72-.18-1-.48s-.39,0-.3.22a1.43,1.43,0,0,0,.44.59.61.61,0,0,0,.8.05A.3.3,0,0,0,41,37.21Zm3.75.21c-.11,0-.38.06-.45-.05A.4.4,0,1,0,44,38a3.22,3.22,0,0,0,.76-.08C45,37.81,45,37.39,44.74,37.42ZM30.59,44.53c-.23-.05-.43-.13-.64,0a.22.22,0,0,0-.09.31c.14.23.32.24.56.29S31,44.63,30.59,44.53Zm6.89-6.81a1.61,1.61,0,0,0,.38.08c.29,0,.37-.38.14-.53a1.37,1.37,0,0,0-.35-.15C37.27,37,37.11,37.59,37.48,37.72ZM34.7,36.09c-.1.16-.27.23-.38.38a.23.23,0,0,0,.08.32.66.66,0,0,0,.83-.38C35.43,36.06,34.89,35.74,34.7,36.09Zm7.17,4.43c-.34.2,0,.67.31.52s.79-.25,1-.57a.26.26,0,0,0-.15-.39C42.58,40,42.21,40.32,41.87,40.52ZM29.55,37.36c-.34.2-.05.67.3.52s.8-.25,1-.57c.07-.13,0-.36-.15-.39C30.26,36.86,29.88,37.16,29.55,37.36ZM42.39,39a.15.15,0,0,0,0,.29A.15.15,0,0,0,42.39,39Zm-3.87.84a.3.3,0,0,0-.24.55c.32.17.61.43,1,.26a.29.29,0,0,0,.11-.4C39.23,39.9,38.81,39.89,38.52,39.82ZM23.64,20.47a.31.31,0,0,0-.24.56c.32.17.61.42,1,.26a.31.31,0,0,0,.11-.41C24.35,20.56,23.94,20.55,23.64,20.47ZM46,23.73a.25.25,0,0,1-.28-.18c-.3.2-.75-.07-1-.31a1.47,1.47,0,0,1-.39-.95.22.22,0,0,1,.43,0,.71.71,0,0,0,.42.61,1.55,1.55,0,0,0,.23.06.41.41,0,0,0,0-.27.2.2,0,0,1,.36-.16.87.87,0,0,1,0,.71s0,0,0,0a3.69,3.69,0,0,1,.83-.59c.25-.15.45.13.37.35l.11,0a1.29,1.29,0,0,0,.48,0,.24.24,0,0,1,.18.43c-.32.23-1,.34-1.21-.08A1.6,1.6,0,0,1,46,23.73Zm-1.41-.61c-.24-.34-.72-.18-1-.48s-.39,0-.3.22a1.53,1.53,0,0,0,.44.6.61.61,0,0,0,.8,0A.3.3,0,0,0,44.62,23.12Zm3,.88c-.11,0-.38.07-.46,0a.41.41,0,1,0-.24.59,3.92,3.92,0,0,0,.76-.08C47.94,24.4,47.92,24,47.64,24Zm.67,1.42c-.23-.06-.43-.14-.64,0a.25.25,0,0,0-.09.32c.14.22.32.23.56.28C48.54,26.11,48.71,25.51,48.31,25.42Zm-6.24-1.26a1.63,1.63,0,0,0,.37.08.29.29,0,0,0,.15-.53,1.37,1.37,0,0,0-.35-.15C41.86,23.44,41.69,24,42.07,24.16Zm-.92-1.39c-.09.16-.27.23-.37.38a.23.23,0,0,0,.08.32c.34.16.65-.08.82-.38S41.35,22.42,41.15,22.77Zm3.35,1.36c-.35.2,0,.68.3.53s.79-.26,1-.57c.07-.14,0-.37-.16-.39C45.21,23.64,44.83,23.94,44.5,24.13Zm1.52.76a.15.15,0,0,0,0,.29A.15.15,0,0,0,46,24.89Zm-3.87-.07a.3.3,0,0,0-.24.55c.32.18.61.43,1,.26a.29.29,0,0,0,.11-.4C42.86,24.91,42.44,24.89,42.15,24.82ZM47,21.6a.32.32,0,0,0-.16-.62c-.24.05-.53.06-.69.25a.26.26,0,0,0,0,.41A1.23,1.23,0,0,0,47,21.6Zm3,.33a1.38,1.38,0,0,0-.8.19.23.23,0,0,0,0,.36,1.23,1.23,0,0,0,.76.05C50.42,22.51,50.43,21.9,50,21.93Zm7.87,5.18a.23.23,0,0,1-.28-.18c-.3.21-.75-.07-1-.31a1.45,1.45,0,0,1-.39-.95c0-.28.43-.27.44,0a.67.67,0,0,0,.42.6.79.79,0,0,0,.22.06.36.36,0,0,0,0-.27c-.08-.22.27-.35.37-.15a.89.89,0,0,1,0,.7s0,0,0,0a4,4,0,0,1,.82-.59c.26-.15.46.13.37.35l.12,0a1.29,1.29,0,0,0,.48,0,.24.24,0,0,1,.18.44c-.33.22-1,.34-1.21-.08A1.65,1.65,0,0,1,57.91,27.11Zm-1.41-.6c-.25-.35-.72-.18-1-.49s-.39,0-.29.23a1.58,1.58,0,0,0,.43.59.61.61,0,0,0,.81,0A.3.3,0,0,0,56.5,26.51Zm3,.88c-.11,0-.38.06-.45-.05a.41.41,0,1,0-.25.6,4.78,4.78,0,0,0,.76-.08C59.82,27.78,59.79,27.36,59.51,27.39Zm.68,1.41c-.23-.05-.43-.14-.64,0a.23.23,0,0,0-.09.32c.13.22.32.24.56.29S60.58,28.89,60.19,28.8Zm-6.25-1.26a1.62,1.62,0,0,0,.38.09c.3,0,.37-.39.15-.53a1.25,1.25,0,0,0-.36-.15C53.73,26.82,53.57,27.41,53.94,27.54ZM53,26.15c-.1.17-.27.23-.38.38a.24.24,0,0,0,.08.33.67.67,0,0,0,.83-.39C53.76,26.12,53.22,25.8,53,26.15Zm3.34,1.37c-.34.2,0,.67.31.52s.79-.25,1-.57c.07-.13,0-.36-.15-.39C57.08,27,56.7,27.32,56.37,27.52Zm1.53.75a.15.15,0,0,0,0,.3A.15.15,0,0,0,57.9,28.27ZM54,28.2a.31.31,0,0,0-.24.56c.32.17.61.42,1,.26a.31.31,0,0,0,.11-.41C54.73,28.29,54.32,28.28,54,28.2ZM58.87,25c.4-.09.23-.7-.17-.62a1.13,1.13,0,0,0-.69.26.26.26,0,0,0,.05.4A1.19,1.19,0,0,0,58.87,25Zm3.05.34a1.36,1.36,0,0,0-.8.18.24.24,0,0,0,0,.37,1.27,1.27,0,0,0,.75.05C62.3,25.89,62.3,25.29,61.92,25.32Z"/></g></g></g></g></svg>