<svg xmlns="http://www.w3.org/2000/svg" viewBox="0 0 275.25 157.1"><defs><style>.cls-1{fill:#00bfb8;}.cls-2{fill:#00d8d0;}.cls-3{fill:#009c96;}</style></defs><title>vann_01</title><g id="Layer_2" data-name="Layer 2"><g id="Layer_1-2" data-name="Layer 1"><path class="cls-1" d="M212.91,50.08a2.07,2.07,0,0,1-.92,1,5.18,5.18,0,0,1-1.73.53,2,2,0,0,1,.92-1A5.18,5.18,0,0,1,212.91,50.08Z"/><path class="cls-1" d="M216.48,50.08a1.4,1.4,0,0,1-.63.68,3.6,3.6,0,0,1-1.19.37,1.4,1.4,0,0,1,.63-.69A3.52,3.52,0,0,1,216.48,50.08Z"/><path class="cls-1" d="M204.51,55.18a1.4,1.4,0,0,1-.63.69,3.46,3.46,0,0,1-1.19.36,1.4,1.4,0,0,1,.63-.68A3.6,3.6,0,0,1,204.51,55.18Z"/><path class="cls-1" d="M213.82,51.61a1.39,1.39,0,0,1-.64.68,3.57,3.57,0,0,1-1.18.37,1.4,1.4,0,0,1,.63-.69A3.46,3.46,0,0,1,213.82,51.61Z"/><path class="cls-1" d="M207.92,54.57a1.4,1.4,0,0,1-.63.68,3.6,3.6,0,0,1-1.19.37,1.39,1.39,0,0,1,.64-.69A3.44,3.44,0,0,1,207.92,54.57Z"/><path class="cls-2" d="M209.9,52.94a1.06,1.06,0,0,1-.49.53,2.7,2.7,0,0,1-.92.29,1.06,1.06,0,0,1,.49-.53A2.7,2.7,0,0,1,209.9,52.94Z"/><path class="cls-2" d="M207,53.35a1.06,1.06,0,0,1-.48.53,2.83,2.83,0,0,1-.92.28,1.1,1.1,0,0,1,.49-.53A2.74,2.74,0,0,1,207,53.35Z"/><path class="cls-2" d="M207.51,50.44A1.1,1.1,0,0,1,207,51a2.83,2.83,0,0,1-.92.28,1.06,1.06,0,0,1,.49-.53A2.58,2.58,0,0,1,207.51,50.44Z"/><path class="cls-2" d="M212.58,54.16a1.06,1.06,0,0,1-.49.53,2.58,2.58,0,0,1-.92.28,1.1,1.1,0,0,1,.49-.53A2.83,2.83,0,0,1,212.58,54.16Z"/><path class="cls-2" d="M213.61,56.06a1.06,1.06,0,0,1-.49.53,2.7,2.7,0,0,1-.92.29,1.06,1.06,0,0,1,.49-.53A2.7,2.7,0,0,1,213.61,56.06Z"/><path class="cls-2" d="M216.28,56.47a1.06,1.06,0,0,1-.49.53,2.83,2.83,0,0,1-.92.28,1.1,1.1,0,0,1,.49-.53A2.83,2.83,0,0,1,216.28,56.47Z"/><path class="cls-3" d="M216.48,53.8a2,2,0,0,1-.92,1,5.16,5.16,0,0,1-1.72.53,2,2,0,0,1,.92-1A5,5,0,0,1,216.48,53.8Z"/><path class="cls-1" d="M113.67,87.63a2,2,0,0,1-.91,1,5.18,5.18,0,0,1-1.73.53,2,2,0,0,1,.92-1A5.16,5.16,0,0,1,113.67,87.63Z"/><path class="cls-1" d="M117.25,87.63a1.4,1.4,0,0,1-.63.69,3.46,3.46,0,0,1-1.19.36,1.4,1.4,0,0,1,.63-.68A3.66,3.66,0,0,1,117.25,87.63Z"/><path class="cls-1" d="M105.28,92.73a1.4,1.4,0,0,1-.63.69,3.66,3.66,0,0,1-1.19.37,1.4,1.4,0,0,1,.63-.69A3.6,3.6,0,0,1,105.28,92.73Z"/><path class="cls-1" d="M114.58,89.16a1.4,1.4,0,0,1-.63.68,3.6,3.6,0,0,1-1.19.37,1.39,1.39,0,0,1,.64-.69A3.44,3.44,0,0,1,114.58,89.16Z"/><path class="cls-2" d="M110.66,90.5a1.11,1.11,0,0,1-.48.53,2.83,2.83,0,0,1-.92.28,1.06,1.06,0,0,1,.48-.53A2.58,2.58,0,0,1,110.66,90.5Z"/><path class="cls-2" d="M107.78,90.9a1.06,1.06,0,0,1-.49.53,2.7,2.7,0,0,1-.92.29,1.06,1.06,0,0,1,.49-.53A2.7,2.7,0,0,1,107.78,90.9Z"/><path class="cls-2" d="M108.28,88a1.06,1.06,0,0,1-.49.53,2.83,2.83,0,0,1-.92.28,1.1,1.1,0,0,1,.49-.53A2.83,2.83,0,0,1,108.28,88Z"/><path class="cls-2" d="M113.35,91.72a1.1,1.1,0,0,1-.49.53,2.83,2.83,0,0,1-.92.28,1.06,1.06,0,0,1,.49-.53A2.58,2.58,0,0,1,113.35,91.72Z"/><path class="cls-2" d="M114.38,93.62a1.1,1.1,0,0,1-.49.53,2.83,2.83,0,0,1-.92.28,1.06,1.06,0,0,1,.49-.53A2.58,2.58,0,0,1,114.38,93.62Z"/><path class="cls-2" d="M117,94a1.06,1.06,0,0,1-.48.53,2.7,2.7,0,0,1-.92.29,1.06,1.06,0,0,1,.49-.53A2.62,2.62,0,0,1,117,94Z"/><path class="cls-1" d="M135.91,93.58a2,2,0,0,1-.92,1,5.16,5.16,0,0,1-1.72.53,2,2,0,0,1,.91-1A5.18,5.18,0,0,1,135.91,93.58Z"/><path class="cls-1" d="M139.49,93.58a1.4,1.4,0,0,1-.63.69,3.52,3.52,0,0,1-1.19.36,1.4,1.4,0,0,1,.63-.68A3.6,3.6,0,0,1,139.49,93.58Z"/><path class="cls-1" d="M127.51,98.69a1.4,1.4,0,0,1-.63.68,3.6,3.6,0,0,1-1.19.37,1.39,1.39,0,0,1,.64-.69A3.44,3.44,0,0,1,127.51,98.69Z"/><path class="cls-1" d="M136.82,95.11a1.4,1.4,0,0,1-.63.69,3.46,3.46,0,0,1-1.19.36,1.4,1.4,0,0,1,.63-.69A3.46,3.46,0,0,1,136.82,95.11Z"/><path class="cls-1" d="M130.93,98.07a1.4,1.4,0,0,1-.63.69,3.52,3.52,0,0,1-1.19.36,1.4,1.4,0,0,1,.63-.68A3.6,3.6,0,0,1,130.93,98.07Z"/><path class="cls-2" d="M132.9,96.45a1.1,1.1,0,0,1-.49.53,2.83,2.83,0,0,1-.92.28,1.06,1.06,0,0,1,.49-.53A2.83,2.83,0,0,1,132.9,96.45Z"/><path class="cls-2" d="M130,96.85a1.06,1.06,0,0,1-.49.53,2.7,2.7,0,0,1-.92.29,1.06,1.06,0,0,1,.49-.53A2.7,2.7,0,0,1,130,96.85Z"/><path class="cls-2" d="M130.52,93.94a1.06,1.06,0,0,1-.49.53,2.83,2.83,0,0,1-.92.28,1.1,1.1,0,0,1,.49-.53A2.83,2.83,0,0,1,130.52,93.94Z"/><path class="cls-2" d="M135.58,97.67a1.1,1.1,0,0,1-.49.53,2.74,2.74,0,0,1-.91.28,1.06,1.06,0,0,1,.48-.53A2.58,2.58,0,0,1,135.58,97.67Z"/><path class="cls-2" d="M136.61,99.57a1.1,1.1,0,0,1-.49.53,2.74,2.74,0,0,1-.91.28,1.06,1.06,0,0,1,.48-.53A2.83,2.83,0,0,1,136.61,99.57Z"/><path class="cls-2" d="M139.28,100a1.06,1.06,0,0,1-.49.53,2.7,2.7,0,0,1-.92.29,1.06,1.06,0,0,1,.49-.53A2.7,2.7,0,0,1,139.28,100Z"/><path class="cls-3" d="M139.49,97.31a2.07,2.07,0,0,1-.92,1,5.18,5.18,0,0,1-1.73.53,2,2,0,0,1,.92-1A5.18,5.18,0,0,1,139.49,97.31Z"/><path class="cls-1" d="M137.25,71.69a2,2,0,0,1-.92,1,5.16,5.16,0,0,1-1.72.53,2,2,0,0,1,.91-1A5.18,5.18,0,0,1,137.25,71.69Z"/><path class="cls-1" d="M140.93,72.36a1.4,1.4,0,0,1-.63.69,3.46,3.46,0,0,1-1.19.36,1.4,1.4,0,0,1,.63-.68A3.4,3.4,0,0,1,140.93,72.36Z"/><path class="cls-1" d="M128.85,76.79a1.4,1.4,0,0,1-.63.69,3.46,3.46,0,0,1-1.19.36,1.39,1.39,0,0,1,.64-.68A3.57,3.57,0,0,1,128.85,76.79Z"/><path class="cls-1" d="M138.16,73.22a1.4,1.4,0,0,1-.63.68,3.6,3.6,0,0,1-1.19.37,1.4,1.4,0,0,1,.63-.69A3.46,3.46,0,0,1,138.16,73.22Z"/><path class="cls-1" d="M132.27,76.18a1.4,1.4,0,0,1-.63.69,3.52,3.52,0,0,1-1.19.36,1.4,1.4,0,0,1,.63-.69A3.46,3.46,0,0,1,132.27,76.18Z"/><path class="cls-2" d="M134.24,74.55a1.1,1.1,0,0,1-.49.54,2.83,2.83,0,0,1-.92.28,1.06,1.06,0,0,1,.49-.53A2.7,2.7,0,0,1,134.24,74.55Z"/><path class="cls-2" d="M131.36,75a1.06,1.06,0,0,1-.49.53,2.58,2.58,0,0,1-.92.28,1.1,1.1,0,0,1,.49-.53A2.83,2.83,0,0,1,131.36,75Z"/><path class="cls-2" d="M131.86,72.05a1.1,1.1,0,0,1-.49.53,2.83,2.83,0,0,1-.92.28,1.06,1.06,0,0,1,.49-.53A2.58,2.58,0,0,1,131.86,72.05Z"/><path class="cls-2" d="M136.92,75.77a1.06,1.06,0,0,1-.49.53,2.62,2.62,0,0,1-.91.29,1.06,1.06,0,0,1,.48-.53A2.7,2.7,0,0,1,136.92,75.77Z"/><path class="cls-2" d="M138,77.67a1.1,1.1,0,0,1-.49.54,2.74,2.74,0,0,1-.91.28A1.06,1.06,0,0,1,137,78,2.7,2.7,0,0,1,138,77.67Z"/><path class="cls-2" d="M140.62,78.08a1.06,1.06,0,0,1-.49.53,2.58,2.58,0,0,1-.92.28,1.1,1.1,0,0,1,.49-.53A2.83,2.83,0,0,1,140.62,78.08Z"/><path class="cls-3" d="M140.83,75.42a2,2,0,0,1-.92,1,5.18,5.18,0,0,1-1.73.53,2,2,0,0,1,.92-1A5.18,5.18,0,0,1,140.83,75.42Z"/><path class="cls-1" d="M194.65,55.53a2,2,0,0,1-.92,1,5.16,5.16,0,0,1-1.72.53,2,2,0,0,1,.91-1A5.25,5.25,0,0,1,194.65,55.53Z"/><path class="cls-1" d="M198.23,55.53a1.4,1.4,0,0,1-.63.69,3.52,3.52,0,0,1-1.19.36,1.4,1.4,0,0,1,.63-.68A3.6,3.6,0,0,1,198.23,55.53Z"/><path class="cls-1" d="M186.26,60.64a1.39,1.39,0,0,1-.64.68,3.57,3.57,0,0,1-1.18.37,1.33,1.33,0,0,1,.63-.69A3.46,3.46,0,0,1,186.26,60.64Z"/><path class="cls-1" d="M195.56,57.06a1.4,1.4,0,0,1-.63.69,3.46,3.46,0,0,1-1.19.36,1.4,1.4,0,0,1,.63-.68A3.66,3.66,0,0,1,195.56,57.06Z"/><path class="cls-1" d="M189.67,60a1.4,1.4,0,0,1-.63.69,3.46,3.46,0,0,1-1.19.36,1.4,1.4,0,0,1,.63-.68A3.6,3.6,0,0,1,189.67,60Z"/><path class="cls-2" d="M191.64,58.4a1.1,1.1,0,0,1-.49.53,2.83,2.83,0,0,1-.92.28,1.1,1.1,0,0,1,.49-.53A2.83,2.83,0,0,1,191.64,58.4Z"/><path class="cls-2" d="M188.76,58.8a1.1,1.1,0,0,1-.49.54,2.83,2.83,0,0,1-.92.28,1.06,1.06,0,0,1,.49-.53A2.7,2.7,0,0,1,188.76,58.8Z"/><path class="cls-2" d="M189.26,55.89a1.06,1.06,0,0,1-.49.53,2.58,2.58,0,0,1-.92.28,1.1,1.1,0,0,1,.49-.53A2.83,2.83,0,0,1,189.26,55.89Z"/><path class="cls-2" d="M194.32,59.62a1.11,1.11,0,0,1-.48.53,2.83,2.83,0,0,1-.92.28,1.06,1.06,0,0,1,.49-.53A2.74,2.74,0,0,1,194.32,59.62Z"/><path class="cls-2" d="M195.35,61.52a1.11,1.11,0,0,1-.48.53,2.83,2.83,0,0,1-.92.28,1.1,1.1,0,0,1,.49-.53A2.74,2.74,0,0,1,195.35,61.52Z"/><path class="cls-2" d="M198,61.93a1.1,1.1,0,0,1-.49.53,2.83,2.83,0,0,1-.92.28,1.06,1.06,0,0,1,.49-.53A2.58,2.58,0,0,1,198,61.93Z"/><path class="cls-3" d="M186.41,54.68a2.07,2.07,0,0,1-.92,1,5.18,5.18,0,0,1-1.73.53,2,2,0,0,1,.92-1A5.18,5.18,0,0,1,186.41,54.68Z"/><path class="cls-1" d="M189.08,65.6a2,2,0,0,1-.92,1,5.16,5.16,0,0,1-1.72.53,2,2,0,0,1,.92-1A5.16,5.16,0,0,1,189.08,65.6Z"/><path class="cls-1" d="M192.66,65.6a1.4,1.4,0,0,1-.63.69,3.46,3.46,0,0,1-1.19.36,1.4,1.4,0,0,1,.63-.68A3.6,3.6,0,0,1,192.66,65.6Z"/><path class="cls-1" d="M180.69,70.71a1.39,1.39,0,0,1-.64.68,3.57,3.57,0,0,1-1.18.37,1.4,1.4,0,0,1,.63-.69A3.46,3.46,0,0,1,180.69,70.71Z"/><path class="cls-1" d="M190,67.13a1.44,1.44,0,0,1-.63.69,3.46,3.46,0,0,1-1.19.36,1.4,1.4,0,0,1,.63-.69A3.52,3.52,0,0,1,190,67.13Z"/><path class="cls-1" d="M184.1,70.09a1.4,1.4,0,0,1-.63.69,3.46,3.46,0,0,1-1.19.36,1.4,1.4,0,0,1,.63-.68A3.66,3.66,0,0,1,184.1,70.09Z"/><path class="cls-2" d="M186.07,68.47a1.1,1.1,0,0,1-.49.53,2.83,2.83,0,0,1-.92.28,1.06,1.06,0,0,1,.49-.53A2.58,2.58,0,0,1,186.07,68.47Z"/><path class="cls-2" d="M183.19,68.87a1.06,1.06,0,0,1-.49.53,2.7,2.7,0,0,1-.92.29,1.06,1.06,0,0,1,.49-.53A2.7,2.7,0,0,1,183.19,68.87Z"/><path class="cls-2" d="M183.69,66a1.06,1.06,0,0,1-.49.53,2.83,2.83,0,0,1-.92.28,1.1,1.1,0,0,1,.49-.53A2.83,2.83,0,0,1,183.69,66Z"/><path class="cls-2" d="M188.76,69.69a1.1,1.1,0,0,1-.49.53,2.83,2.83,0,0,1-.92.28,1.06,1.06,0,0,1,.49-.53A2.58,2.58,0,0,1,188.76,69.69Z"/><path class="cls-2" d="M189.79,71.59a1.1,1.1,0,0,1-.49.53,2.83,2.83,0,0,1-.92.28,1.06,1.06,0,0,1,.49-.53A2.83,2.83,0,0,1,189.79,71.59Z"/><path class="cls-2" d="M192.45,72a1.06,1.06,0,0,1-.49.53,2.62,2.62,0,0,1-.91.29,1.06,1.06,0,0,1,.48-.53A2.7,2.7,0,0,1,192.45,72Z"/><path class="cls-3" d="M186.86,72.37a2.07,2.07,0,0,1-.92,1,5.18,5.18,0,0,1-1.73.53,2,2,0,0,1,.92-1A5.18,5.18,0,0,1,186.86,72.37Z"/><path class="cls-1" d="M194.29,43.31a1.89,1.89,0,0,1-.92.91,5.46,5.46,0,0,1-1.73.49,1.89,1.89,0,0,1,.92-.91A5.46,5.46,0,0,1,194.29,43.31Z"/><path class="cls-1" d="M199.55,38.13a1.29,1.29,0,0,1-.63.63,3.73,3.73,0,0,1-1.19.34C198,38.49,198.92,38.2,199.55,38.13Z"/><path class="cls-1" d="M187.58,42.83a1.33,1.33,0,0,1-.63.63,3.89,3.89,0,0,1-1.19.33,1.33,1.33,0,0,1,.63-.63A3.65,3.65,0,0,1,187.58,42.83Z"/><path class="cls-1" d="M191,42.26a1.28,1.28,0,0,1-.64.63,3.7,3.7,0,0,1-1.18.34,1.23,1.23,0,0,1,.63-.63A3.73,3.73,0,0,1,191,42.26Z"/><path class="cls-2" d="M199.14,40a1,1,0,0,1-.49.49,3.15,3.15,0,0,1-.92.26,1,1,0,0,1,.49-.49A2.83,2.83,0,0,1,199.14,40Z"/><path class="cls-2" d="M190.09,41.14a1,1,0,0,1-.49.49,3.15,3.15,0,0,1-.92.26,1,1,0,0,1,.49-.49A2.83,2.83,0,0,1,190.09,41.14Z"/><path class="cls-2" d="M190.58,38.46a1,1,0,0,1-.49.49,2.74,2.74,0,0,1-.91.26,1,1,0,0,1,.48-.49A2.83,2.83,0,0,1,190.58,38.46Z"/><path class="cls-2" d="M195.65,41.89a1,1,0,0,1-.49.49,3.15,3.15,0,0,1-.92.26,1,1,0,0,1,.49-.49A2.83,2.83,0,0,1,195.65,41.89Z"/><path class="cls-2" d="M196.68,43.64a1,1,0,0,1-.49.48,2.83,2.83,0,0,1-.92.26,1,1,0,0,1,.49-.48A2.83,2.83,0,0,1,196.68,43.64Z"/><path class="cls-2" d="M199.35,44a1,1,0,0,1-.49.49,3.15,3.15,0,0,1-.92.26,1,1,0,0,1,.49-.49A2.83,2.83,0,0,1,199.35,44Z"/><path class="cls-1" d="M205.65,48.89a1.82,1.82,0,0,1-.88.88,5.21,5.21,0,0,1-1.63.47,1.77,1.77,0,0,1,.87-.88A5.23,5.23,0,0,1,205.65,48.89Z"/><path class="cls-1" d="M207.37,45a1.21,1.21,0,0,1-.6.6,3.43,3.43,0,0,1-1.13.32,1.21,1.21,0,0,1,.6-.6A3.43,3.43,0,0,1,207.37,45Z"/><path class="cls-1" d="M199.28,48.42a1.31,1.31,0,0,1-.6.61,3.43,3.43,0,0,1-1.13.32,1.21,1.21,0,0,1,.6-.6A3.58,3.58,0,0,1,199.28,48.42Z"/><path class="cls-1" d="M202.52,47.88a1.25,1.25,0,0,1-.6.61,3.43,3.43,0,0,1-1.13.32,1.21,1.21,0,0,1,.6-.6A3.58,3.58,0,0,1,202.52,47.88Z"/><path class="cls-2" d="M210.25,45.73a1,1,0,0,1-.46.47,2.7,2.7,0,0,1-.87.25C209.08,46,209.78,45.78,210.25,45.73Z"/><path class="cls-2" d="M201.65,46.81a1,1,0,0,1-.46.47,2.86,2.86,0,0,1-.87.24.91.91,0,0,1,.46-.46A2.7,2.7,0,0,1,201.65,46.81Z"/><path class="cls-2" d="M202.13,44.23a1,1,0,0,1-.47.47,2.7,2.7,0,0,1-.87.25,1,1,0,0,1,.46-.47A2.73,2.73,0,0,1,202.13,44.23Z"/><path class="cls-2" d="M206.94,47.52a1,1,0,0,1-.46.47,2.73,2.73,0,0,1-.88.25,1,1,0,0,1,.47-.47A3,3,0,0,1,206.94,47.52Z"/><path class="cls-2" d="M207.92,49.2a1,1,0,0,1-.47.47,2.7,2.7,0,0,1-.87.25,1,1,0,0,1,.46-.47A3.05,3.05,0,0,1,207.92,49.2Z"/><path class="cls-2" d="M205.64,43.11a1,1,0,0,1-.46.47,2.73,2.73,0,0,1-.88.25C204.46,43.38,205.17,43.16,205.64,43.11Z"/><path class="cls-1" d="M183.59,50.47a2,2,0,0,1-.92,1,5.18,5.18,0,0,1-1.73.53,2.07,2.07,0,0,1,.92-1A5.18,5.18,0,0,1,183.59,50.47Z"/><path class="cls-1" d="M188.85,44.85a1.4,1.4,0,0,1-.63.68,3.6,3.6,0,0,1-1.19.37,1.4,1.4,0,0,1,.63-.69A3.52,3.52,0,0,1,188.85,44.85Z"/><path class="cls-1" d="M176.88,50a1.4,1.4,0,0,1-.63.69,3.52,3.52,0,0,1-1.19.36,1.4,1.4,0,0,1,.63-.69A3.46,3.46,0,0,1,176.88,50Z"/><path class="cls-1" d="M180.29,49.34c-.21.64-1.15,1-1.82,1C178.68,49.74,179.62,49.41,180.29,49.34Z"/><path class="cls-2" d="M188.44,46.9a1.06,1.06,0,0,1-.49.53,2.83,2.83,0,0,1-.92.28,1.1,1.1,0,0,1,.49-.53A2.83,2.83,0,0,1,188.44,46.9Z"/><path class="cls-2" d="M179.38,48.12c-.16.49-.89.75-1.41.81C178.14,48.43,178.86,48.17,179.38,48.12Z"/><path class="cls-2" d="M179.88,45.2c-.16.5-.89.76-1.41.82C178.63,45.52,179.36,45.26,179.88,45.2Z"/><path class="cls-2" d="M185,48.93a1.06,1.06,0,0,1-.49.53,2.58,2.58,0,0,1-.92.28,1.1,1.1,0,0,1,.49-.53A2.83,2.83,0,0,1,185,48.93Z"/><path class="cls-2" d="M186,50.83a1.06,1.06,0,0,1-.49.53,2.58,2.58,0,0,1-.92.28,1.1,1.1,0,0,1,.49-.53A2.83,2.83,0,0,1,186,50.83Z"/><path class="cls-2" d="M188.64,51.24a1.11,1.11,0,0,1-.48.53,2.83,2.83,0,0,1-.92.28,1.06,1.06,0,0,1,.49-.53A2.74,2.74,0,0,1,188.64,51.24Z"/><path class="cls-1" d="M174.39,70.65c-.31.94-1.67,1.42-2.65,1.53C172.05,71.25,173.41,70.76,174.39,70.65Z"/><path class="cls-1" d="M179.65,65a1.4,1.4,0,0,1-.63.69,3.6,3.6,0,0,1-1.19.37,1.4,1.4,0,0,1,.63-.69A3.66,3.66,0,0,1,179.65,65Z"/><path class="cls-1" d="M167.68,70.13a1.4,1.4,0,0,1-.63.68,3.66,3.66,0,0,1-1.19.37,1.4,1.4,0,0,1,.63-.69A3.46,3.46,0,0,1,167.68,70.13Z"/><path class="cls-1" d="M171.09,69.51c-.21.65-1.15,1-1.82,1a1.39,1.39,0,0,1,.64-.68A3.57,3.57,0,0,1,171.09,69.51Z"/><path class="cls-2" d="M179.24,67.08a1.1,1.1,0,0,1-.49.53,2.83,2.83,0,0,1-.92.28,1.06,1.06,0,0,1,.49-.53A2.58,2.58,0,0,1,179.24,67.08Z"/><path class="cls-2" d="M170.18,68.3a1.1,1.1,0,0,1-.49.53,2.74,2.74,0,0,1-.91.28,1.06,1.06,0,0,1,.48-.53A2.58,2.58,0,0,1,170.18,68.3Z"/><path class="cls-2" d="M170.68,65.38a1.06,1.06,0,0,1-.49.53,2.58,2.58,0,0,1-.92.28,1.1,1.1,0,0,1,.49-.53A2.83,2.83,0,0,1,170.68,65.38Z"/><path class="cls-2" d="M175.75,69.11c-.16.49-.89.75-1.41.81C174.5,69.42,175.23,69.16,175.75,69.11Z"/><path class="cls-2" d="M176.78,71c-.16.5-.89.76-1.41.81C175.53,71.33,176.26,71.07,176.78,71Z"/><path class="cls-2" d="M179.45,71.42A1.1,1.1,0,0,1,179,72a2.83,2.83,0,0,1-.92.28,1.06,1.06,0,0,1,.49-.53A2.58,2.58,0,0,1,179.45,71.42Z"/><path class="cls-1" d="M154.92,75.24a2,2,0,0,1-.92,1,5.18,5.18,0,0,1-1.73.53,2,2,0,0,1,.92-1A5.18,5.18,0,0,1,154.92,75.24Z"/><path class="cls-1" d="M160.18,69.61a1.4,1.4,0,0,1-.63.69,3.6,3.6,0,0,1-1.19.37A1.39,1.39,0,0,1,159,70,3.57,3.57,0,0,1,160.18,69.61Z"/><path class="cls-1" d="M148.21,74.72a1.4,1.4,0,0,1-.63.68,3.6,3.6,0,0,1-1.19.37,1.4,1.4,0,0,1,.63-.69A3.52,3.52,0,0,1,148.21,74.72Z"/><path class="cls-1" d="M151.63,74.1a1.39,1.39,0,0,1-.64.69,3.57,3.57,0,0,1-1.18.37,1.33,1.33,0,0,1,.63-.69A3.6,3.6,0,0,1,151.63,74.1Z"/><path class="cls-2" d="M159.77,71.67a1.1,1.1,0,0,1-.49.53,2.83,2.83,0,0,1-.92.28,1.06,1.06,0,0,1,.49-.53A2.58,2.58,0,0,1,159.77,71.67Z"/><path class="cls-2" d="M150.72,72.89a1.1,1.1,0,0,1-.49.53,2.83,2.83,0,0,1-.92.28,1.06,1.06,0,0,1,.49-.53A2.58,2.58,0,0,1,150.72,72.89Z"/><path class="cls-2" d="M151.21,70a1.06,1.06,0,0,1-.49.53,2.5,2.5,0,0,1-.91.28,1.11,1.11,0,0,1,.48-.53A2.83,2.83,0,0,1,151.21,70Z"/><path class="cls-2" d="M156.28,73.7a1.1,1.1,0,0,1-.49.53,2.83,2.83,0,0,1-.92.28,1.06,1.06,0,0,1,.49-.53A2.83,2.83,0,0,1,156.28,73.7Z"/><path class="cls-2" d="M157.31,75.6a1.06,1.06,0,0,1-.49.53,2.83,2.83,0,0,1-.92.28,1.1,1.1,0,0,1,.49-.53A2.83,2.83,0,0,1,157.31,75.6Z"/><path class="cls-2" d="M160,76a1.1,1.1,0,0,1-.49.53,2.83,2.83,0,0,1-.92.28,1.06,1.06,0,0,1,.49-.53A2.58,2.58,0,0,1,160,76Z"/><path class="cls-1" d="M153.91,90.83a2,2,0,0,1-.92,1,4.93,4.93,0,0,1-1.73.53,2,2,0,0,1,.92-1A5.18,5.18,0,0,1,153.91,90.83Z"/><path class="cls-1" d="M159.17,85.2a1.4,1.4,0,0,1-.63.69,3.46,3.46,0,0,1-1.19.36,1.4,1.4,0,0,1,.63-.69A3.52,3.52,0,0,1,159.17,85.2Z"/><path class="cls-1" d="M147.2,90.3a1.4,1.4,0,0,1-.63.69,3.52,3.52,0,0,1-1.19.36,1.4,1.4,0,0,1,.63-.68A3.6,3.6,0,0,1,147.2,90.3Z"/><path class="cls-1" d="M150.61,89.69a1.4,1.4,0,0,1-.63.69,3.46,3.46,0,0,1-1.19.36,1.4,1.4,0,0,1,.63-.69A3.52,3.52,0,0,1,150.61,89.69Z"/><path class="cls-2" d="M158.76,87.25a1.06,1.06,0,0,1-.49.53,2.58,2.58,0,0,1-.92.28,1.1,1.1,0,0,1,.49-.53A2.83,2.83,0,0,1,158.76,87.25Z"/><path class="cls-2" d="M149.7,88.47a1.06,1.06,0,0,1-.49.53,2.5,2.5,0,0,1-.91.28,1.11,1.11,0,0,1,.48-.53A2.83,2.83,0,0,1,149.7,88.47Z"/><path class="cls-2" d="M150.2,85.56a1.1,1.1,0,0,1-.49.53,2.83,2.83,0,0,1-.92.28,1.06,1.06,0,0,1,.49-.53A2.58,2.58,0,0,1,150.2,85.56Z"/><path class="cls-2" d="M155.27,89.28a1.06,1.06,0,0,1-.49.53,2.7,2.7,0,0,1-.92.29,1.06,1.06,0,0,1,.49-.53A2.7,2.7,0,0,1,155.27,89.28Z"/><path class="cls-2" d="M156.3,91.18c-.16.5-.89.76-1.41.82C155.05,91.5,155.78,91.24,156.3,91.18Z"/><path class="cls-2" d="M159,91.59c-.17.5-.89.76-1.41.81C157.72,91.91,158.44,91.65,159,91.59Z"/><path class="cls-1" d="M158.9,63.17a2,2,0,0,1-.92,1,4.93,4.93,0,0,1-1.73.53,2,2,0,0,1,.92-1A5.18,5.18,0,0,1,158.9,63.17Z"/><path class="cls-1" d="M164.16,57.54a1.4,1.4,0,0,1-.63.68,3.35,3.35,0,0,1-1.19.37,1.39,1.39,0,0,1,.64-.69A3.44,3.44,0,0,1,164.16,57.54Z"/><path class="cls-1" d="M152.19,62.64a1.4,1.4,0,0,1-.63.69,3.46,3.46,0,0,1-1.19.36A1.4,1.4,0,0,1,151,63,3.66,3.66,0,0,1,152.19,62.64Z"/><path class="cls-1" d="M155.61,62a1.39,1.39,0,0,1-.64.68,3.57,3.57,0,0,1-1.18.37,1.33,1.33,0,0,1,.63-.69A3.46,3.46,0,0,1,155.61,62Z"/><path class="cls-2" d="M163.75,59.59a1.06,1.06,0,0,1-.49.53,2.58,2.58,0,0,1-.92.28,1.1,1.1,0,0,1,.49-.53A2.83,2.83,0,0,1,163.75,59.59Z"/><path class="cls-2" d="M154.7,60.81a1.06,1.06,0,0,1-.49.53,2.83,2.83,0,0,1-.92.28,1.1,1.1,0,0,1,.49-.53A2.83,2.83,0,0,1,154.7,60.81Z"/><path class="cls-2" d="M155.19,57.9a1.1,1.1,0,0,1-.49.53,2.74,2.74,0,0,1-.91.28,1.06,1.06,0,0,1,.48-.53A2.58,2.58,0,0,1,155.19,57.9Z"/><path class="cls-2" d="M160.26,61.62a1.06,1.06,0,0,1-.49.53,2.7,2.7,0,0,1-.92.29,1.1,1.1,0,0,1,.49-.54A2.83,2.83,0,0,1,160.26,61.62Z"/><path class="cls-2" d="M161.29,63.52a1.06,1.06,0,0,1-.49.53,2.7,2.7,0,0,1-.92.29,1.06,1.06,0,0,1,.49-.53A2.7,2.7,0,0,1,161.29,63.52Z"/><path class="cls-2" d="M164,63.93a1.06,1.06,0,0,1-.49.53,2.58,2.58,0,0,1-.92.28,1.1,1.1,0,0,1,.49-.53A2.83,2.83,0,0,1,164,63.93Z"/><path class="cls-1" d="M109.45,106.39a2,2,0,0,1-.92,1,5.18,5.18,0,0,1-1.73.53,2.07,2.07,0,0,1,.92-1A5.18,5.18,0,0,1,109.45,106.39Z"/><path class="cls-1" d="M113,106.39a1.33,1.33,0,0,1-.63.69,3.46,3.46,0,0,1-1.19.36,1.39,1.39,0,0,1,.64-.68A3.57,3.57,0,0,1,113,106.39Z"/><path class="cls-1" d="M101.05,111.5a1.4,1.4,0,0,1-.63.68,3.6,3.6,0,0,1-1.19.37,1.4,1.4,0,0,1,.63-.69A3.52,3.52,0,0,1,101.05,111.5Z"/><path class="cls-1" d="M110.36,107.92a1.4,1.4,0,0,1-.63.69,3.52,3.52,0,0,1-1.19.36,1.4,1.4,0,0,1,.63-.68A3.6,3.6,0,0,1,110.36,107.92Z"/><path class="cls-1" d="M104.47,110.88a1.39,1.39,0,0,1-.64.69,3.44,3.44,0,0,1-1.18.36,1.4,1.4,0,0,1,.63-.68A3.6,3.6,0,0,1,104.47,110.88Z"/><path class="cls-2" d="M106.44,109.26a1.1,1.1,0,0,1-.49.53,2.83,2.83,0,0,1-.92.28,1.1,1.1,0,0,1,.49-.53A2.83,2.83,0,0,1,106.44,109.26Z"/><path class="cls-2" d="M103.56,109.67a1.1,1.1,0,0,1-.49.53,2.83,2.83,0,0,1-.92.28,1.06,1.06,0,0,1,.49-.53A2.58,2.58,0,0,1,103.56,109.67Z"/><path class="cls-2" d="M104.05,106.75a1.06,1.06,0,0,1-.49.53,2.5,2.5,0,0,1-.91.28,1.11,1.11,0,0,1,.48-.53A2.83,2.83,0,0,1,104.05,106.75Z"/><path class="cls-2" d="M109.12,110.48a1.1,1.1,0,0,1-.49.53,2.83,2.83,0,0,1-.92.28,1.06,1.06,0,0,1,.49-.53A2.83,2.83,0,0,1,109.12,110.48Z"/><path class="cls-2" d="M110.15,112.38a1.06,1.06,0,0,1-.49.53,2.83,2.83,0,0,1-.92.28,1.1,1.1,0,0,1,.49-.53A2.83,2.83,0,0,1,110.15,112.38Z"/><path class="cls-2" d="M112.82,112.79a1.1,1.1,0,0,1-.49.53,2.83,2.83,0,0,1-.92.28,1.06,1.06,0,0,1,.49-.53A2.58,2.58,0,0,1,112.82,112.79Z"/><path class="cls-3" d="M113,110.12a2,2,0,0,1-.91,1,5.18,5.18,0,0,1-1.73.53,2,2,0,0,1,.92-1A5.16,5.16,0,0,1,113,110.12Z"/><path class="cls-1" d="M10.22,144a2,2,0,0,1-.92,1,4.93,4.93,0,0,1-1.73.53,2,2,0,0,1,.92-1A5.18,5.18,0,0,1,10.22,144Z"/><path class="cls-1" d="M13.79,144a1.4,1.4,0,0,1-.63.68A3.6,3.6,0,0,1,12,145a1.4,1.4,0,0,1,.63-.69A3.52,3.52,0,0,1,13.79,144Z"/><path class="cls-1" d="M1.82,149.05a1.4,1.4,0,0,1-.63.69A3.46,3.46,0,0,1,0,150.1a1.4,1.4,0,0,1,.63-.68A3.6,3.6,0,0,1,1.82,149.05Z"/><path class="cls-1" d="M11.13,145.47a1.39,1.39,0,0,1-.64.69,3.57,3.57,0,0,1-1.18.37,1.33,1.33,0,0,1,.63-.69A3.6,3.6,0,0,1,11.13,145.47Z"/><path class="cls-2" d="M7.21,146.81a1.06,1.06,0,0,1-.49.53,2.7,2.7,0,0,1-.92.29,1.1,1.1,0,0,1,.49-.54A2.83,2.83,0,0,1,7.21,146.81Z"/><path class="cls-2" d="M4.32,147.22a1.11,1.11,0,0,1-.48.53,2.83,2.83,0,0,1-.92.28,1.1,1.1,0,0,1,.49-.53A2.74,2.74,0,0,1,4.32,147.22Z"/><path class="cls-2" d="M4.82,144.31a1.1,1.1,0,0,1-.49.53,2.83,2.83,0,0,1-.92.28,1.06,1.06,0,0,1,.49-.53A2.58,2.58,0,0,1,4.82,144.31Z"/><path class="cls-2" d="M9.89,148a1.06,1.06,0,0,1-.49.53,2.58,2.58,0,0,1-.92.28,1.1,1.1,0,0,1,.49-.53A2.83,2.83,0,0,1,9.89,148Z"/><path class="cls-2" d="M10.92,149.93a1.06,1.06,0,0,1-.49.53,2.7,2.7,0,0,1-.92.29,1.1,1.1,0,0,1,.49-.54A2.83,2.83,0,0,1,10.92,149.93Z"/><path class="cls-2" d="M13.59,150.34a1.06,1.06,0,0,1-.49.53,2.83,2.83,0,0,1-.92.28,1.1,1.1,0,0,1,.49-.53A2.83,2.83,0,0,1,13.59,150.34Z"/><path class="cls-1" d="M32.45,149.9a2.07,2.07,0,0,1-.92,1,5.16,5.16,0,0,1-1.72.53,2,2,0,0,1,.92-1A5.16,5.16,0,0,1,32.45,149.9Z"/><path class="cls-1" d="M36,149.9a1.4,1.4,0,0,1-.63.68,3.66,3.66,0,0,1-1.19.37,1.4,1.4,0,0,1,.63-.69A3.46,3.46,0,0,1,36,149.9Z"/><path class="cls-1" d="M24.06,155a1.39,1.39,0,0,1-.64.69,3.44,3.44,0,0,1-1.18.36,1.4,1.4,0,0,1,.63-.68A3.6,3.6,0,0,1,24.06,155Z"/><path class="cls-1" d="M33.36,151.43a1.4,1.4,0,0,1-.63.68,3.6,3.6,0,0,1-1.19.37,1.4,1.4,0,0,1,.63-.69A3.52,3.52,0,0,1,33.36,151.43Z"/><path class="cls-1" d="M27.47,154.39a1.4,1.4,0,0,1-.63.68,3.6,3.6,0,0,1-1.19.37,1.4,1.4,0,0,1,.63-.69A3.46,3.46,0,0,1,27.47,154.39Z"/><path class="cls-2" d="M29.44,152.76a1.06,1.06,0,0,1-.49.53,2.7,2.7,0,0,1-.92.29,1.06,1.06,0,0,1,.49-.53A2.7,2.7,0,0,1,29.44,152.76Z"/><path class="cls-2" d="M26.56,153.17a1.06,1.06,0,0,1-.49.53,2.83,2.83,0,0,1-.92.28,1.1,1.1,0,0,1,.49-.53A2.83,2.83,0,0,1,26.56,153.17Z"/><path class="cls-2" d="M27.06,150.26a1.1,1.1,0,0,1-.49.53,2.83,2.83,0,0,1-.92.28,1.06,1.06,0,0,1,.49-.53A2.58,2.58,0,0,1,27.06,150.26Z"/><path class="cls-2" d="M32.12,154a1,1,0,0,1-.48.53,2.7,2.7,0,0,1-.92.29,1.1,1.1,0,0,1,.49-.54A2.74,2.74,0,0,1,32.12,154Z"/><path class="cls-2" d="M33.16,155.88a1.06,1.06,0,0,1-.49.53,2.7,2.7,0,0,1-.92.29,1.06,1.06,0,0,1,.49-.53A2.7,2.7,0,0,1,33.16,155.88Z"/><path class="cls-2" d="M35.82,156.29a1.06,1.06,0,0,1-.49.53,2.5,2.5,0,0,1-.91.28,1.11,1.11,0,0,1,.48-.53A2.83,2.83,0,0,1,35.82,156.29Z"/><path class="cls-3" d="M36,153.63a2,2,0,0,1-.92,1,5.18,5.18,0,0,1-1.73.53,2,2,0,0,1,.92-1A4.93,4.93,0,0,1,36,153.63Z"/><path class="cls-1" d="M33.79,128a2,2,0,0,1-.92,1,5.16,5.16,0,0,1-1.72.53,2,2,0,0,1,.92-1A4.91,4.91,0,0,1,33.79,128Z"/><path class="cls-1" d="M37.47,128.68a1.4,1.4,0,0,1-.63.68,3.6,3.6,0,0,1-1.19.37,1.4,1.4,0,0,1,.63-.69A3.52,3.52,0,0,1,37.47,128.68Z"/><path class="cls-1" d="M25.4,133.11a1.39,1.39,0,0,1-.64.68,3.57,3.57,0,0,1-1.18.37,1.4,1.4,0,0,1,.63-.69A3.46,3.46,0,0,1,25.4,133.11Z"/><path class="cls-1" d="M34.7,129.53a1.4,1.4,0,0,1-.63.69,3.46,3.46,0,0,1-1.19.36,1.4,1.4,0,0,1,.63-.68A3.66,3.66,0,0,1,34.7,129.53Z"/><path class="cls-1" d="M28.81,132.5a1.4,1.4,0,0,1-.63.68,3.6,3.6,0,0,1-1.19.37,1.4,1.4,0,0,1,.63-.69A3.46,3.46,0,0,1,28.81,132.5Z"/><path class="cls-2" d="M30.78,130.87a1.06,1.06,0,0,1-.49.53,2.58,2.58,0,0,1-.92.28,1.1,1.1,0,0,1,.49-.53A2.83,2.83,0,0,1,30.78,130.87Z"/><path class="cls-2" d="M27.9,131.28a1.1,1.1,0,0,1-.49.53,2.83,2.83,0,0,1-.92.28,1.06,1.06,0,0,1,.49-.53A2.58,2.58,0,0,1,27.9,131.28Z"/><path class="cls-2" d="M28.4,128.36a1.06,1.06,0,0,1-.49.53,2.7,2.7,0,0,1-.92.29,1.06,1.06,0,0,1,.49-.53A2.7,2.7,0,0,1,28.4,128.36Z"/><path class="cls-2" d="M33.47,132.09a1.06,1.06,0,0,1-.49.53,2.83,2.83,0,0,1-.92.28,1.1,1.1,0,0,1,.49-.53A2.83,2.83,0,0,1,33.47,132.09Z"/><path class="cls-2" d="M34.5,134a1.06,1.06,0,0,1-.49.53,2.58,2.58,0,0,1-.92.28,1.1,1.1,0,0,1,.49-.53A2.83,2.83,0,0,1,34.5,134Z"/><path class="cls-2" d="M37.16,134.4a1.1,1.1,0,0,1-.49.53,2.74,2.74,0,0,1-.91.28,1.06,1.06,0,0,1,.48-.53A2.58,2.58,0,0,1,37.16,134.4Z"/><path class="cls-3" d="M37.37,131.73a2,2,0,0,1-.92,1,5.18,5.18,0,0,1-1.73.53,2,2,0,0,1,.92-1A5.18,5.18,0,0,1,37.37,131.73Z"/><path class="cls-1" d="M91.19,111.85a2.07,2.07,0,0,1-.92,1,5.16,5.16,0,0,1-1.72.53,2,2,0,0,1,.92-1A5.16,5.16,0,0,1,91.19,111.85Z"/><path class="cls-1" d="M94.77,111.85a1.4,1.4,0,0,1-.63.69,3.46,3.46,0,0,1-1.19.36,1.4,1.4,0,0,1,.63-.69A3.46,3.46,0,0,1,94.77,111.85Z"/><path class="cls-1" d="M82.8,117a1.4,1.4,0,0,1-.63.69A3.52,3.52,0,0,1,81,118a1.4,1.4,0,0,1,.63-.68A3.6,3.6,0,0,1,82.8,117Z"/><path class="cls-1" d="M92.1,113.38a1.4,1.4,0,0,1-.63.68,3.6,3.6,0,0,1-1.19.37,1.4,1.4,0,0,1,.63-.69A3.52,3.52,0,0,1,92.1,113.38Z"/><path class="cls-1" d="M86.21,116.34a1.4,1.4,0,0,1-.63.69,3.46,3.46,0,0,1-1.19.36,1.4,1.4,0,0,1,.63-.69A3.52,3.52,0,0,1,86.21,116.34Z"/><path class="cls-2" d="M88.18,114.71a1.06,1.06,0,0,1-.49.53,2.62,2.62,0,0,1-.91.29,1.06,1.06,0,0,1,.48-.53A2.7,2.7,0,0,1,88.18,114.71Z"/><path class="cls-2" d="M85.3,115.12a1.06,1.06,0,0,1-.49.53,2.58,2.58,0,0,1-.92.28,1.1,1.1,0,0,1,.49-.53A2.83,2.83,0,0,1,85.3,115.12Z"/><path class="cls-2" d="M85.8,112.21a1.1,1.1,0,0,1-.49.53,2.83,2.83,0,0,1-.92.28,1.06,1.06,0,0,1,.49-.53A2.58,2.58,0,0,1,85.8,112.21Z"/><path class="cls-2" d="M90.87,115.93a1.06,1.06,0,0,1-.49.53,2.7,2.7,0,0,1-.92.29,1.06,1.06,0,0,1,.49-.53A2.7,2.7,0,0,1,90.87,115.93Z"/><path class="cls-2" d="M91.9,117.83a1.1,1.1,0,0,1-.49.54,2.83,2.83,0,0,1-.92.28,1.06,1.06,0,0,1,.49-.53A2.7,2.7,0,0,1,91.9,117.83Z"/><path class="cls-2" d="M94.56,118.24a1.06,1.06,0,0,1-.48.53,2.58,2.58,0,0,1-.92.28,1.1,1.1,0,0,1,.49-.53A2.74,2.74,0,0,1,94.56,118.24Z"/><path class="cls-3" d="M83,111a2,2,0,0,1-.92,1,5.18,5.18,0,0,1-1.73.53,2,2,0,0,1,.92-1A4.93,4.93,0,0,1,83,111Z"/><path class="cls-1" d="M85.62,121.92a2,2,0,0,1-.91,1,5.18,5.18,0,0,1-1.73.53,2,2,0,0,1,.92-1A5.16,5.16,0,0,1,85.62,121.92Z"/><path class="cls-1" d="M89.2,121.92a1.4,1.4,0,0,1-.63.68,3.6,3.6,0,0,1-1.19.37,1.4,1.4,0,0,1,.63-.69A3.52,3.52,0,0,1,89.2,121.92Z"/><path class="cls-1" d="M77.23,127a1.4,1.4,0,0,1-.63.69,3.52,3.52,0,0,1-1.19.36,1.4,1.4,0,0,1,.63-.68A3.6,3.6,0,0,1,77.23,127Z"/><path class="cls-1" d="M86.53,123.45a1.4,1.4,0,0,1-.63.68,3.6,3.6,0,0,1-1.19.37,1.39,1.39,0,0,1,.64-.69A3.44,3.44,0,0,1,86.53,123.45Z"/><path class="cls-1" d="M80.64,126.41a1.4,1.4,0,0,1-.63.68,3.6,3.6,0,0,1-1.19.37,1.4,1.4,0,0,1,.63-.69A3.52,3.52,0,0,1,80.64,126.41Z"/><path class="cls-2" d="M82.61,124.78a1.06,1.06,0,0,1-.48.53,2.7,2.7,0,0,1-.92.29,1.06,1.06,0,0,1,.49-.53A2.62,2.62,0,0,1,82.61,124.78Z"/><path class="cls-2" d="M79.73,125.19a1.06,1.06,0,0,1-.49.53,2.74,2.74,0,0,1-.91.28,1.11,1.11,0,0,1,.48-.53A2.83,2.83,0,0,1,79.73,125.19Z"/><path class="cls-2" d="M80.23,122.28a1.1,1.1,0,0,1-.49.53,2.83,2.83,0,0,1-.92.28,1.06,1.06,0,0,1,.49-.53A2.58,2.58,0,0,1,80.23,122.28Z"/><path class="cls-2" d="M85.3,126a1.06,1.06,0,0,1-.49.53,2.58,2.58,0,0,1-.92.28,1.1,1.1,0,0,1,.49-.53A2.83,2.83,0,0,1,85.3,126Z"/><path class="cls-2" d="M86.33,127.9a1.06,1.06,0,0,1-.49.53,2.7,2.7,0,0,1-.92.29,1.06,1.06,0,0,1,.49-.53A2.7,2.7,0,0,1,86.33,127.9Z"/><path class="cls-2" d="M89,128.31a1.06,1.06,0,0,1-.49.53,2.83,2.83,0,0,1-.92.28,1.1,1.1,0,0,1,.49-.53A2.77,2.77,0,0,1,89,128.31Z"/><path class="cls-3" d="M83.4,128.69a2,2,0,0,1-.92,1,5.18,5.18,0,0,1-1.73.53,2,2,0,0,1,.92-1A4.93,4.93,0,0,1,83.4,128.69Z"/><path class="cls-1" d="M90.83,99.62a1.93,1.93,0,0,1-.92.92,5.43,5.43,0,0,1-1.72.49,1.87,1.87,0,0,1,.91-.92A5.46,5.46,0,0,1,90.83,99.62Z"/><path class="cls-1" d="M96.1,94.45a1.33,1.33,0,0,1-.64.63,3.56,3.56,0,0,1-1.18.33C94.49,94.81,95.46,94.51,96.1,94.45Z"/><path class="cls-1" d="M84.12,99.14a1.33,1.33,0,0,1-.63.63,3.73,3.73,0,0,1-1.19.34,1.28,1.28,0,0,1,.64-.63A3.7,3.7,0,0,1,84.12,99.14Z"/><path class="cls-1" d="M87.54,98.58a1.33,1.33,0,0,1-.63.63,4,4,0,0,1-1.19.33,1.33,1.33,0,0,1,.63-.63A3.89,3.89,0,0,1,87.54,98.58Z"/><path class="cls-2" d="M95.68,96.34a1,1,0,0,1-.48.48,2.83,2.83,0,0,1-.92.26,1,1,0,0,1,.48-.48A2.83,2.83,0,0,1,95.68,96.34Z"/><path class="cls-2" d="M86.63,97.46a1,1,0,0,1-.49.48,2.83,2.83,0,0,1-.92.26,1,1,0,0,1,.49-.48A2.83,2.83,0,0,1,86.63,97.46Z"/><path class="cls-2" d="M87.12,94.78a1,1,0,0,1-.48.48,2.83,2.83,0,0,1-.92.26,1,1,0,0,1,.49-.48A2.74,2.74,0,0,1,87.12,94.78Z"/><path class="cls-2" d="M92.19,98.2a1,1,0,0,1-.49.49,2.83,2.83,0,0,1-.92.26,1,1,0,0,1,.49-.49A3.15,3.15,0,0,1,92.19,98.2Z"/><path class="cls-2" d="M93.22,100a1,1,0,0,1-.49.49,2.77,2.77,0,0,1-.92.26,1,1,0,0,1,.49-.49A3.15,3.15,0,0,1,93.22,100Z"/><path class="cls-2" d="M95.89,100.33a1,1,0,0,1-.49.48,2.83,2.83,0,0,1-.92.26,1,1,0,0,1,.49-.48A2.83,2.83,0,0,1,95.89,100.33Z"/><path class="cls-1" d="M102.19,105.21a1.87,1.87,0,0,1-.87.88,5.15,5.15,0,0,1-1.64.46,1.87,1.87,0,0,1,.87-.88A5.09,5.09,0,0,1,102.19,105.21Z"/><path class="cls-1" d="M103.91,101.35a1.25,1.25,0,0,1-.6.61,3.74,3.74,0,0,1-1.13.32,1.31,1.31,0,0,1,.6-.61A3.74,3.74,0,0,1,103.91,101.35Z"/><path class="cls-1" d="M95.82,104.74a1.25,1.25,0,0,1-.6.61,3.74,3.74,0,0,1-1.13.32,1.25,1.25,0,0,1,.6-.61A3.74,3.74,0,0,1,95.82,104.74Z"/><path class="cls-1" d="M99.06,104.2a1.25,1.25,0,0,1-.6.61,3.74,3.74,0,0,1-1.13.32,1.31,1.31,0,0,1,.6-.61A3.74,3.74,0,0,1,99.06,104.2Z"/><path class="cls-2" d="M106.8,102.05a1,1,0,0,1-.47.46,2.7,2.7,0,0,1-.87.25C105.62,102.32,106.32,102.09,106.8,102.05Z"/><path class="cls-2" d="M98.2,103.12a1,1,0,0,1-.47.47,2.7,2.7,0,0,1-.87.25,1,1,0,0,1,.46-.47A2.73,2.73,0,0,1,98.2,103.12Z"/><path class="cls-2" d="M98.67,100.55a1,1,0,0,1-.47.47,2.94,2.94,0,0,1-.87.25,1,1,0,0,1,.47-.47A2.7,2.7,0,0,1,98.67,100.55Z"/><path class="cls-2" d="M103.48,103.84a1,1,0,0,1-.46.47,2.73,2.73,0,0,1-.88.25,1,1,0,0,1,.47-.47A2.7,2.7,0,0,1,103.48,103.84Z"/><path class="cls-2" d="M104.46,105.52a1,1,0,0,1-.46.47,2.73,2.73,0,0,1-.88.25,1,1,0,0,1,.47-.47A2.7,2.7,0,0,1,104.46,105.52Z"/><path class="cls-2" d="M102.18,99.43a.91.91,0,0,1-.46.46,2.73,2.73,0,0,1-.88.25C101,99.7,101.71,99.47,102.18,99.43Z"/><path class="cls-1" d="M80.13,106.79a2,2,0,0,1-.92,1,5.18,5.18,0,0,1-1.73.53,2,2,0,0,1,.92-1A5.18,5.18,0,0,1,80.13,106.79Z"/><path class="cls-1" d="M85.39,101.16a1.4,1.4,0,0,1-.63.69,3.46,3.46,0,0,1-1.19.36,1.4,1.4,0,0,1,.63-.68A3.66,3.66,0,0,1,85.39,101.16Z"/><path class="cls-1" d="M73.42,106.27a1.4,1.4,0,0,1-.63.68,3.66,3.66,0,0,1-1.19.37,1.4,1.4,0,0,1,.63-.69A3.46,3.46,0,0,1,73.42,106.27Z"/><path class="cls-1" d="M76.83,105.65c-.21.65-1.15,1-1.82,1C75.22,106.06,76.16,105.73,76.83,105.65Z"/><path class="cls-2" d="M85,103.21a1.1,1.1,0,0,1-.49.54,2.83,2.83,0,0,1-.92.28,1.06,1.06,0,0,1,.49-.53A2.7,2.7,0,0,1,85,103.21Z"/><path class="cls-2" d="M75.92,104.43c-.16.5-.88.76-1.4.82C74.68,104.75,75.4,104.49,75.92,104.43Z"/><path class="cls-2" d="M76.42,101.52c-.16.5-.89.76-1.41.81C75.18,101.84,75.9,101.58,76.42,101.52Z"/><path class="cls-2" d="M81.49,105.25a1.1,1.1,0,0,1-.49.53,2.83,2.83,0,0,1-.92.28,1.06,1.06,0,0,1,.49-.53A2.58,2.58,0,0,1,81.49,105.25Z"/><path class="cls-2" d="M82.52,107.15a1.1,1.1,0,0,1-.49.53,2.83,2.83,0,0,1-.92.28,1.06,1.06,0,0,1,.49-.53A2.83,2.83,0,0,1,82.52,107.15Z"/><path class="cls-2" d="M85.19,107.55a1.06,1.06,0,0,1-.49.53,2.7,2.7,0,0,1-.92.29,1.06,1.06,0,0,1,.49-.53A2.7,2.7,0,0,1,85.19,107.55Z"/><path class="cls-1" d="M70.93,127c-.31.93-1.67,1.42-2.65,1.52C68.59,127.56,70,127.07,70.93,127Z"/><path class="cls-1" d="M76.19,121.34a1.4,1.4,0,0,1-.63.69,3.46,3.46,0,0,1-1.19.36,1.39,1.39,0,0,1,.64-.68A3.57,3.57,0,0,1,76.19,121.34Z"/><path class="cls-1" d="M64.22,126.44a1.4,1.4,0,0,1-.63.69,3.46,3.46,0,0,1-1.19.36,1.4,1.4,0,0,1,.63-.68A3.66,3.66,0,0,1,64.22,126.44Z"/><path class="cls-1" d="M67.64,125.83c-.21.64-1.15,1-1.82,1a1.37,1.37,0,0,1,.63-.69A3.46,3.46,0,0,1,67.64,125.83Z"/><path class="cls-2" d="M75.78,123.39a1.06,1.06,0,0,1-.49.53,2.58,2.58,0,0,1-.92.28,1.1,1.1,0,0,1,.49-.53A2.83,2.83,0,0,1,75.78,123.39Z"/><path class="cls-2" d="M66.73,124.61a1.06,1.06,0,0,1-.49.53,2.58,2.58,0,0,1-.92.28,1.1,1.1,0,0,1,.49-.53A2.83,2.83,0,0,1,66.73,124.61Z"/><path class="cls-2" d="M67.22,121.7a1.1,1.1,0,0,1-.49.53,2.74,2.74,0,0,1-.91.28,1.06,1.06,0,0,1,.48-.53A2.83,2.83,0,0,1,67.22,121.7Z"/><path class="cls-2" d="M72.29,125.42c-.16.5-.89.76-1.41.82C71,125.74,71.77,125.48,72.29,125.42Z"/><path class="cls-2" d="M73.32,127.33c-.16.49-.89.75-1.41.81C72.08,127.64,72.8,127.38,73.32,127.33Z"/><path class="cls-2" d="M76,127.73a1.06,1.06,0,0,1-.49.53,2.58,2.58,0,0,1-.92.28,1.1,1.1,0,0,1,.49-.53A2.83,2.83,0,0,1,76,127.73Z"/><path class="cls-1" d="M51.46,131.56a2,2,0,0,1-.92,1,5,5,0,0,1-1.72.54,2,2,0,0,1,.91-1A5.18,5.18,0,0,1,51.46,131.56Z"/><path class="cls-1" d="M56.73,125.93a1.39,1.39,0,0,1-.64.69,3.44,3.44,0,0,1-1.18.36,1.4,1.4,0,0,1,.63-.68A3.6,3.6,0,0,1,56.73,125.93Z"/><path class="cls-1" d="M44.75,131a1.4,1.4,0,0,1-.63.69,3.46,3.46,0,0,1-1.19.36,1.39,1.39,0,0,1,.64-.68A3.57,3.57,0,0,1,44.75,131Z"/><path class="cls-1" d="M48.17,130.42a1.4,1.4,0,0,1-.63.69,3.52,3.52,0,0,1-1.19.36,1.4,1.4,0,0,1,.63-.68A3.6,3.6,0,0,1,48.17,130.42Z"/><path class="cls-2" d="M56.31,128a1.06,1.06,0,0,1-.48.53,2.7,2.7,0,0,1-.92.29,1.1,1.1,0,0,1,.48-.54A2.83,2.83,0,0,1,56.31,128Z"/><path class="cls-2" d="M47.26,129.2a1.06,1.06,0,0,1-.49.53,2.58,2.58,0,0,1-.92.28,1.1,1.1,0,0,1,.49-.53A2.83,2.83,0,0,1,47.26,129.2Z"/><path class="cls-2" d="M47.75,126.29a1.11,1.11,0,0,1-.48.53,2.83,2.83,0,0,1-.92.28,1.06,1.06,0,0,1,.49-.53A2.74,2.74,0,0,1,47.75,126.29Z"/><path class="cls-2" d="M52.82,130a1.06,1.06,0,0,1-.49.53,2.7,2.7,0,0,1-.92.29,1.06,1.06,0,0,1,.49-.53A2.7,2.7,0,0,1,52.82,130Z"/><path class="cls-2" d="M53.85,131.92a1.1,1.1,0,0,1-.49.53,2.77,2.77,0,0,1-.92.28,1.06,1.06,0,0,1,.49-.53A2.58,2.58,0,0,1,53.85,131.92Z"/><path class="cls-2" d="M56.52,132.32a1.06,1.06,0,0,1-.49.53,2.58,2.58,0,0,1-.92.28,1.1,1.1,0,0,1,.49-.53A2.83,2.83,0,0,1,56.52,132.32Z"/><path class="cls-1" d="M50.45,147.14a2,2,0,0,1-.92,1,5.18,5.18,0,0,1-1.73.53,2.07,2.07,0,0,1,.92-1A5.18,5.18,0,0,1,50.45,147.14Z"/><path class="cls-1" d="M55.71,141.52a1.4,1.4,0,0,1-.63.68,3.6,3.6,0,0,1-1.19.37,1.39,1.39,0,0,1,.64-.69A3.44,3.44,0,0,1,55.71,141.52Z"/><path class="cls-1" d="M43.74,146.62a1.4,1.4,0,0,1-.63.68,3.6,3.6,0,0,1-1.19.37,1.4,1.4,0,0,1,.63-.69A3.46,3.46,0,0,1,43.74,146.62Z"/><path class="cls-1" d="M47.15,146a1.34,1.34,0,0,1-.63.68,3.6,3.6,0,0,1-1.19.37,1.39,1.39,0,0,1,.64-.69A3.44,3.44,0,0,1,47.15,146Z"/><path class="cls-2" d="M55.3,143.57a1.1,1.1,0,0,1-.49.53,2.83,2.83,0,0,1-.92.28,1.06,1.06,0,0,1,.49-.53A2.83,2.83,0,0,1,55.3,143.57Z"/><path class="cls-2" d="M46.24,144.79a1.11,1.11,0,0,1-.48.53,2.83,2.83,0,0,1-.92.28,1.06,1.06,0,0,1,.49-.53A2.5,2.5,0,0,1,46.24,144.79Z"/><path class="cls-2" d="M46.74,141.87a1.06,1.06,0,0,1-.49.53,2.7,2.7,0,0,1-.92.29,1.1,1.1,0,0,1,.49-.54A2.83,2.83,0,0,1,46.74,141.87Z"/><path class="cls-2" d="M51.81,145.6a1.06,1.06,0,0,1-.49.53,2.83,2.83,0,0,1-.92.28,1.1,1.1,0,0,1,.49-.53A2.83,2.83,0,0,1,51.81,145.6Z"/><path class="cls-2" d="M52.84,147.5c-.16.5-.89.76-1.41.81C51.59,147.82,52.32,147.56,52.84,147.5Z"/><path class="cls-2" d="M55.51,147.91c-.16.49-.89.75-1.41.81C54.26,148.22,55,148,55.51,147.91Z"/><path class="cls-1" d="M55.44,119.48a2,2,0,0,1-.92,1,5.16,5.16,0,0,1-1.72.53,2,2,0,0,1,.91-1A5.18,5.18,0,0,1,55.44,119.48Z"/><path class="cls-1" d="M60.71,113.85a1.39,1.39,0,0,1-.64.69,3.57,3.57,0,0,1-1.18.37,1.4,1.4,0,0,1,.63-.69A3.6,3.6,0,0,1,60.71,113.85Z"/><path class="cls-1" d="M48.73,119a1.4,1.4,0,0,1-.63.68,3.6,3.6,0,0,1-1.19.37,1.4,1.4,0,0,1,.63-.69A3.52,3.52,0,0,1,48.73,119Z"/><path class="cls-1" d="M52.15,118.34a1.4,1.4,0,0,1-.63.69,3.66,3.66,0,0,1-1.19.37,1.4,1.4,0,0,1,.63-.69A3.6,3.6,0,0,1,52.15,118.34Z"/><path class="cls-2" d="M60.29,115.91a1.1,1.1,0,0,1-.49.53,2.74,2.74,0,0,1-.91.28,1.06,1.06,0,0,1,.48-.53A2.58,2.58,0,0,1,60.29,115.91Z"/><path class="cls-2" d="M51.24,117.13a1.1,1.1,0,0,1-.49.53,2.83,2.83,0,0,1-.92.28,1.06,1.06,0,0,1,.49-.53A2.58,2.58,0,0,1,51.24,117.13Z"/><path class="cls-2" d="M51.73,114.21a1.06,1.06,0,0,1-.48.53,2.58,2.58,0,0,1-.92.28,1.1,1.1,0,0,1,.49-.53A2.74,2.74,0,0,1,51.73,114.21Z"/><path class="cls-2" d="M56.8,117.94a1.1,1.1,0,0,1-.49.53,2.83,2.83,0,0,1-.92.28,1.06,1.06,0,0,1,.49-.53A2.83,2.83,0,0,1,56.8,117.94Z"/><path class="cls-2" d="M57.83,119.84a1.06,1.06,0,0,1-.49.53,2.83,2.83,0,0,1-.92.28,1.1,1.1,0,0,1,.49-.53A2.83,2.83,0,0,1,57.83,119.84Z"/><path class="cls-2" d="M60.5,120.25a1.1,1.1,0,0,1-.49.53,2.83,2.83,0,0,1-.92.28,1.06,1.06,0,0,1,.49-.53A2.58,2.58,0,0,1,60.5,120.25Z"/><path class="cls-1" d="M271.68,12a2,2,0,0,1-.92,1,5.18,5.18,0,0,1-1.73.53,2,2,0,0,1,.92-1A4.93,4.93,0,0,1,271.68,12Z"/><path class="cls-1" d="M275.25,12a1.4,1.4,0,0,1-.63.68,3.6,3.6,0,0,1-1.19.37,1.39,1.39,0,0,1,.64-.69A3.44,3.44,0,0,1,275.25,12Z"/><path class="cls-1" d="M263.28,17.05a1.4,1.4,0,0,1-.63.68,3.6,3.6,0,0,1-1.19.37,1.4,1.4,0,0,1,.63-.69A3.46,3.46,0,0,1,263.28,17.05Z"/><path class="cls-1" d="M272.59,13.47a1.39,1.39,0,0,1-.64.69,3.44,3.44,0,0,1-1.18.36,1.4,1.4,0,0,1,.63-.68A3.6,3.6,0,0,1,272.59,13.47Z"/><path class="cls-1" d="M266.69,16.44a1.4,1.4,0,0,1-.63.68,3.6,3.6,0,0,1-1.19.37,1.39,1.39,0,0,1,.64-.69A3.44,3.44,0,0,1,266.69,16.44Z"/><path class="cls-2" d="M268.67,14.81a1.06,1.06,0,0,1-.49.53,2.83,2.83,0,0,1-.92.28,1.1,1.1,0,0,1,.49-.53A2.83,2.83,0,0,1,268.67,14.81Z"/><path class="cls-2" d="M265.78,15.22a1.11,1.11,0,0,1-.48.53,2.83,2.83,0,0,1-.92.28,1.06,1.06,0,0,1,.49-.53A2.5,2.5,0,0,1,265.78,15.22Z"/><path class="cls-2" d="M266.28,12.3a1.06,1.06,0,0,1-.49.53,2.7,2.7,0,0,1-.92.29,1.1,1.1,0,0,1,.49-.54A2.83,2.83,0,0,1,266.28,12.3Z"/><path class="cls-2" d="M271.35,16a1.1,1.1,0,0,1-.49.53,2.83,2.83,0,0,1-.92.28,1.1,1.1,0,0,1,.49-.53A2.83,2.83,0,0,1,271.35,16Z"/><path class="cls-2" d="M272.38,17.93a1.06,1.06,0,0,1-.49.53,2.58,2.58,0,0,1-.92.28,1.1,1.1,0,0,1,.49-.53A2.83,2.83,0,0,1,272.38,17.93Z"/><path class="cls-2" d="M275.05,18.34a1.1,1.1,0,0,1-.49.53,2.83,2.83,0,0,1-.92.28,1.06,1.06,0,0,1,.49-.53A2.58,2.58,0,0,1,275.05,18.34Z"/><path class="cls-3" d="M275.25,15.67a2,2,0,0,1-.92,1,5.16,5.16,0,0,1-1.72.53,2,2,0,0,1,.92-1A5.16,5.16,0,0,1,275.25,15.67Z"/><path class="cls-1" d="M172.44,49.5a2,2,0,0,1-.91,1,5.18,5.18,0,0,1-1.73.53,2,2,0,0,1,.92-1A5.16,5.16,0,0,1,172.44,49.5Z"/><path class="cls-1" d="M176,49.5a1.4,1.4,0,0,1-.63.68,3.35,3.35,0,0,1-1.19.37,1.4,1.4,0,0,1,.63-.69A3.52,3.52,0,0,1,176,49.5Z"/><path class="cls-1" d="M164.05,54.6a1.4,1.4,0,0,1-.63.69,3.52,3.52,0,0,1-1.19.36,1.4,1.4,0,0,1,.63-.68A3.6,3.6,0,0,1,164.05,54.6Z"/><path class="cls-1" d="M173.35,51a1.4,1.4,0,0,1-.63.68,3.6,3.6,0,0,1-1.19.37,1.39,1.39,0,0,1,.64-.69A3.44,3.44,0,0,1,173.35,51Z"/><path class="cls-2" d="M169.43,52.36a1.06,1.06,0,0,1-.48.53,2.7,2.7,0,0,1-.92.29,1.06,1.06,0,0,1,.49-.53A2.62,2.62,0,0,1,169.43,52.36Z"/><path class="cls-2" d="M166.55,52.77a1.06,1.06,0,0,1-.49.53,2.77,2.77,0,0,1-.92.28,1.1,1.1,0,0,1,.49-.53A2.83,2.83,0,0,1,166.55,52.77Z"/><path class="cls-2" d="M167.05,49.86a1.1,1.1,0,0,1-.49.53,2.83,2.83,0,0,1-.92.28,1.06,1.06,0,0,1,.49-.53A2.58,2.58,0,0,1,167.05,49.86Z"/><path class="cls-2" d="M172.12,53.58a1.06,1.06,0,0,1-.49.53,2.7,2.7,0,0,1-.92.29,1.1,1.1,0,0,1,.49-.54A2.83,2.83,0,0,1,172.12,53.58Z"/><path class="cls-2" d="M173.15,55.48a1.06,1.06,0,0,1-.49.53,2.7,2.7,0,0,1-.92.29,1.06,1.06,0,0,1,.49-.53A2.7,2.7,0,0,1,173.15,55.48Z"/><path class="cls-2" d="M175.81,55.89a1.06,1.06,0,0,1-.48.53,2.58,2.58,0,0,1-.92.28,1.1,1.1,0,0,1,.49-.53A2.74,2.74,0,0,1,175.81,55.89Z"/><path class="cls-1" d="M194.68,55.45a2,2,0,0,1-.92,1A5.16,5.16,0,0,1,192,57a2,2,0,0,1,.91-1A5.18,5.18,0,0,1,194.68,55.45Z"/><path class="cls-1" d="M198.26,55.45a1.4,1.4,0,0,1-.63.69,3.52,3.52,0,0,1-1.19.36,1.44,1.44,0,0,1,.63-.69A3.46,3.46,0,0,1,198.26,55.45Z"/><path class="cls-1" d="M186.28,60.55a1.4,1.4,0,0,1-.63.69,3.46,3.46,0,0,1-1.19.36,1.39,1.39,0,0,1,.64-.68A3.57,3.57,0,0,1,186.28,60.55Z"/><path class="cls-1" d="M195.59,57a1.4,1.4,0,0,1-.63.68,3.6,3.6,0,0,1-1.19.37,1.4,1.4,0,0,1,.63-.69A3.46,3.46,0,0,1,195.59,57Z"/><path class="cls-1" d="M189.7,59.94a1.4,1.4,0,0,1-.63.69,3.52,3.52,0,0,1-1.19.36,1.4,1.4,0,0,1,.63-.69A3.46,3.46,0,0,1,189.7,59.94Z"/><path class="cls-2" d="M191.67,58.31a1.1,1.1,0,0,1-.49.54,2.83,2.83,0,0,1-.92.28,1.06,1.06,0,0,1,.49-.53A2.7,2.7,0,0,1,191.67,58.31Z"/><path class="cls-2" d="M188.79,58.72a1.06,1.06,0,0,1-.49.53,2.58,2.58,0,0,1-.92.28,1.1,1.1,0,0,1,.49-.53A2.83,2.83,0,0,1,188.79,58.72Z"/><path class="cls-2" d="M189.29,55.81a1.1,1.1,0,0,1-.49.53,2.83,2.83,0,0,1-.92.28,1.06,1.06,0,0,1,.49-.53A2.58,2.58,0,0,1,189.29,55.81Z"/><path class="cls-2" d="M194.35,59.53a1.06,1.06,0,0,1-.49.53,2.62,2.62,0,0,1-.91.29,1.06,1.06,0,0,1,.48-.53A2.7,2.7,0,0,1,194.35,59.53Z"/><path class="cls-2" d="M195.38,61.43a1.1,1.1,0,0,1-.49.54,2.74,2.74,0,0,1-.91.28,1.06,1.06,0,0,1,.48-.53A2.7,2.7,0,0,1,195.38,61.43Z"/><path class="cls-2" d="M198.05,61.84a1.06,1.06,0,0,1-.49.53,2.58,2.58,0,0,1-.92.28,1.1,1.1,0,0,1,.49-.53A2.83,2.83,0,0,1,198.05,61.84Z"/><path class="cls-3" d="M198.26,59.18a2,2,0,0,1-.92,1,5.18,5.18,0,0,1-1.73.53,2,2,0,0,1,.92-1A5.18,5.18,0,0,1,198.26,59.18Z"/><path class="cls-1" d="M196,33.56a2,2,0,0,1-.92,1,4.91,4.91,0,0,1-1.72.53,2,2,0,0,1,.91-1A5.18,5.18,0,0,1,196,33.56Z"/><path class="cls-1" d="M199.7,34.23a1.4,1.4,0,0,1-.63.68,3.6,3.6,0,0,1-1.19.37,1.4,1.4,0,0,1,.63-.69A3.52,3.52,0,0,1,199.7,34.23Z"/><path class="cls-1" d="M187.62,38.66a1.4,1.4,0,0,1-.63.69,3.46,3.46,0,0,1-1.19.36,1.39,1.39,0,0,1,.64-.69A3.44,3.44,0,0,1,187.62,38.66Z"/><path class="cls-1" d="M196.93,35.08a1.4,1.4,0,0,1-.63.69,3.46,3.46,0,0,1-1.19.36,1.4,1.4,0,0,1,.63-.68A3.6,3.6,0,0,1,196.93,35.08Z"/><path class="cls-1" d="M191,38.05a1.4,1.4,0,0,1-.63.68,3.66,3.66,0,0,1-1.19.37,1.4,1.4,0,0,1,.63-.69A3.46,3.46,0,0,1,191,38.05Z"/><path class="cls-2" d="M193,36.42a1.06,1.06,0,0,1-.49.53,2.58,2.58,0,0,1-.92.28,1.1,1.1,0,0,1,.49-.53A2.83,2.83,0,0,1,193,36.42Z"/><path class="cls-2" d="M190.13,36.83a1.1,1.1,0,0,1-.49.53,2.83,2.83,0,0,1-.92.28,1.06,1.06,0,0,1,.49-.53A2.83,2.83,0,0,1,190.13,36.83Z"/><path class="cls-2" d="M190.63,33.91a1.06,1.06,0,0,1-.49.53,2.7,2.7,0,0,1-.92.29,1.06,1.06,0,0,1,.49-.53A2.7,2.7,0,0,1,190.63,33.91Z"/><path class="cls-2" d="M195.69,37.64a1.06,1.06,0,0,1-.49.53,2.5,2.5,0,0,1-.91.28,1.11,1.11,0,0,1,.48-.53A2.83,2.83,0,0,1,195.69,37.64Z"/><path class="cls-2" d="M196.72,39.54a1.06,1.06,0,0,1-.49.53,2.5,2.5,0,0,1-.91.28,1.11,1.11,0,0,1,.48-.53A2.83,2.83,0,0,1,196.72,39.54Z"/><path class="cls-2" d="M199.39,40a1.1,1.1,0,0,1-.49.53,2.83,2.83,0,0,1-.92.28,1.06,1.06,0,0,1,.49-.53A2.83,2.83,0,0,1,199.39,40Z"/><path class="cls-3" d="M199.6,37.28a2,2,0,0,1-.92,1,5.18,5.18,0,0,1-1.73.53,2.07,2.07,0,0,1,.92-1A5.18,5.18,0,0,1,199.6,37.28Z"/><path class="cls-1" d="M253.42,17.4a2,2,0,0,1-.92,1,5.16,5.16,0,0,1-1.72.53,2,2,0,0,1,.92-1A5.16,5.16,0,0,1,253.42,17.4Z"/><path class="cls-1" d="M257,17.4a1.4,1.4,0,0,1-.63.69,3.52,3.52,0,0,1-1.19.36,1.4,1.4,0,0,1,.63-.68A3.6,3.6,0,0,1,257,17.4Z"/><path class="cls-1" d="M245,22.5a1.39,1.39,0,0,1-.64.69,3.44,3.44,0,0,1-1.18.36,1.34,1.34,0,0,1,.63-.68A3.6,3.6,0,0,1,245,22.5Z"/><path class="cls-1" d="M254.33,18.93a1.4,1.4,0,0,1-.63.68,3.6,3.6,0,0,1-1.19.37,1.4,1.4,0,0,1,.63-.69A3.52,3.52,0,0,1,254.33,18.93Z"/><path class="cls-1" d="M248.44,21.89a1.4,1.4,0,0,1-.63.69,3.46,3.46,0,0,1-1.19.36,1.4,1.4,0,0,1,.63-.68A3.6,3.6,0,0,1,248.44,21.89Z"/><path class="cls-2" d="M250.41,20.27a1.1,1.1,0,0,1-.49.53,2.83,2.83,0,0,1-.92.28,1.06,1.06,0,0,1,.49-.53A2.58,2.58,0,0,1,250.41,20.27Z"/><path class="cls-2" d="M247.53,20.67a1.06,1.06,0,0,1-.49.53,2.58,2.58,0,0,1-.92.28,1.1,1.1,0,0,1,.49-.53A2.83,2.83,0,0,1,247.53,20.67Z"/><path class="cls-2" d="M248,17.76a1.1,1.1,0,0,1-.49.53,2.83,2.83,0,0,1-.92.28,1.06,1.06,0,0,1,.49-.53A2.83,2.83,0,0,1,248,17.76Z"/><path class="cls-2" d="M253.09,21.48a1.06,1.06,0,0,1-.48.53,2.7,2.7,0,0,1-.92.29,1.06,1.06,0,0,1,.49-.53A2.62,2.62,0,0,1,253.09,21.48Z"/><path class="cls-2" d="M254.12,23.39a1.11,1.11,0,0,1-.48.53,2.83,2.83,0,0,1-.92.28,1.06,1.06,0,0,1,.49-.53A2.5,2.5,0,0,1,254.12,23.39Z"/><path class="cls-2" d="M256.79,23.79a1.06,1.06,0,0,1-.49.53,2.58,2.58,0,0,1-.92.28,1.1,1.1,0,0,1,.49-.53A2.83,2.83,0,0,1,256.79,23.79Z"/><path class="cls-3" d="M245.18,16.55a2,2,0,0,1-.92,1,5.18,5.18,0,0,1-1.73.53,2,2,0,0,1,.92-1A5.18,5.18,0,0,1,245.18,16.55Z"/><path class="cls-1" d="M247.85,27.47a2.07,2.07,0,0,1-.92,1,5.16,5.16,0,0,1-1.72.53,2,2,0,0,1,.92-1A5.16,5.16,0,0,1,247.85,27.47Z"/><path class="cls-1" d="M251.43,27.47a1.4,1.4,0,0,1-.63.69,3.46,3.46,0,0,1-1.19.36,1.4,1.4,0,0,1,.63-.69A3.46,3.46,0,0,1,251.43,27.47Z"/><path class="cls-1" d="M239.46,32.57a1.39,1.39,0,0,1-.64.69,3.44,3.44,0,0,1-1.18.36,1.4,1.4,0,0,1,.63-.68A3.6,3.6,0,0,1,239.46,32.57Z"/><path class="cls-1" d="M248.76,29a1.4,1.4,0,0,1-.63.68,3.6,3.6,0,0,1-1.19.37,1.4,1.4,0,0,1,.63-.69A3.52,3.52,0,0,1,248.76,29Z"/><path class="cls-1" d="M242.87,32a1.4,1.4,0,0,1-.63.69,3.46,3.46,0,0,1-1.19.36,1.4,1.4,0,0,1,.63-.69A3.52,3.52,0,0,1,242.87,32Z"/><path class="cls-2" d="M244.84,30.33a1.06,1.06,0,0,1-.49.53,2.64,2.64,0,0,1-.92.29,1.06,1.06,0,0,1,.49-.53A2.7,2.7,0,0,1,244.84,30.33Z"/><path class="cls-2" d="M242,30.74a1.06,1.06,0,0,1-.49.53,2.58,2.58,0,0,1-.92.28A1.1,1.1,0,0,1,241,31,2.83,2.83,0,0,1,242,30.74Z"/><path class="cls-2" d="M242.46,27.83a1.1,1.1,0,0,1-.49.53,2.83,2.83,0,0,1-.92.28,1.06,1.06,0,0,1,.49-.53A2.58,2.58,0,0,1,242.46,27.83Z"/><path class="cls-2" d="M247.53,31.55a1.06,1.06,0,0,1-.49.53,2.7,2.7,0,0,1-.92.29,1.06,1.06,0,0,1,.49-.53A2.7,2.7,0,0,1,247.53,31.55Z"/><path class="cls-2" d="M248.56,33.45a1.06,1.06,0,0,1-.49.53,2.7,2.7,0,0,1-.92.29,1.06,1.06,0,0,1,.49-.53A2.7,2.7,0,0,1,248.56,33.45Z"/><path class="cls-2" d="M251.22,33.86a1.06,1.06,0,0,1-.49.53,2.5,2.5,0,0,1-.91.28,1.11,1.11,0,0,1,.48-.53A2.83,2.83,0,0,1,251.22,33.86Z"/><path class="cls-3" d="M245.63,34.24a2,2,0,0,1-.92,1,5.18,5.18,0,0,1-1.73.53,2,2,0,0,1,.92-1A5.18,5.18,0,0,1,245.63,34.24Z"/><path class="cls-1" d="M253.06,5.18a1.93,1.93,0,0,1-.92.91,5.43,5.43,0,0,1-1.72.49,1.87,1.87,0,0,1,.91-.92A5.31,5.31,0,0,1,253.06,5.18Z"/><path class="cls-1" d="M258.32,0a1.33,1.33,0,0,1-.63.63A3.73,3.73,0,0,1,256.5,1C256.72.36,257.69.06,258.32,0Z"/><path class="cls-1" d="M246.35,4.69a1.29,1.29,0,0,1-.63.63,3.73,3.73,0,0,1-1.19.34,1.29,1.29,0,0,1,.63-.63A3.8,3.8,0,0,1,246.35,4.69Z"/><path class="cls-1" d="M249.77,4.13a1.33,1.33,0,0,1-.64.63,3.56,3.56,0,0,1-1.18.33,1.33,1.33,0,0,1,.63-.63A3.89,3.89,0,0,1,249.77,4.13Z"/><path class="cls-2" d="M257.91,1.89a1,1,0,0,1-.49.48,2.83,2.83,0,0,1-.92.26,1,1,0,0,1,.49-.48A2.83,2.83,0,0,1,257.91,1.89Z"/><path class="cls-2" d="M248.86,3a1,1,0,0,1-.49.49,3,3,0,0,1-.92.25,1,1,0,0,1,.49-.48A2.83,2.83,0,0,1,248.86,3Z"/><path class="cls-2" d="M249.35.33a1,1,0,0,1-.49.49,3,3,0,0,1-.91.26,1,1,0,0,1,.48-.49A2.83,2.83,0,0,1,249.35.33Z"/><path class="cls-2" d="M254.42,3.75a1,1,0,0,1-.49.49,2.83,2.83,0,0,1-.92.26A1,1,0,0,1,253.5,4,3.15,3.15,0,0,1,254.42,3.75Z"/><path class="cls-2" d="M255.45,5.5A1,1,0,0,1,255,6a2.83,2.83,0,0,1-.92.26,1,1,0,0,1,.49-.49A3.15,3.15,0,0,1,255.45,5.5Z"/><path class="cls-2" d="M258.12,5.88a1,1,0,0,1-.49.48,2.83,2.83,0,0,1-.92.26,1,1,0,0,1,.49-.48A2.83,2.83,0,0,1,258.12,5.88Z"/><path class="cls-1" d="M264.42,10.76a1.86,1.86,0,0,1-.88.88,5.06,5.06,0,0,1-1.63.46,1.81,1.81,0,0,1,.87-.88A5.09,5.09,0,0,1,264.42,10.76Z"/><path class="cls-1" d="M266.14,6.9a1.25,1.25,0,0,1-.6.61,3.74,3.74,0,0,1-1.13.32,1.25,1.25,0,0,1,.6-.61A3.74,3.74,0,0,1,266.14,6.9Z"/><path class="cls-1" d="M258.05,10.29a1.31,1.31,0,0,1-.6.61,3.74,3.74,0,0,1-1.13.32,1.25,1.25,0,0,1,.6-.61A3.74,3.74,0,0,1,258.05,10.29Z"/><path class="cls-1" d="M261.29,9.75a1.25,1.25,0,0,1-.6.61,3.74,3.74,0,0,1-1.13.32,1.25,1.25,0,0,1,.6-.61A3.74,3.74,0,0,1,261.29,9.75Z"/><path class="cls-2" d="M269,7.6a1,1,0,0,1-.46.47,2.86,2.86,0,0,1-.87.24C267.85,7.87,268.55,7.64,269,7.6Z"/><path class="cls-2" d="M260.42,8.67a1,1,0,0,1-.46.47,2.7,2.7,0,0,1-.87.25,1,1,0,0,1,.46-.47A2.7,2.7,0,0,1,260.42,8.67Z"/><path class="cls-2" d="M260.9,6.1a1,1,0,0,1-.47.47,2.7,2.7,0,0,1-.87.25,1,1,0,0,1,.46-.47A2.73,2.73,0,0,1,260.9,6.1Z"/><path class="cls-2" d="M265.71,9.39a1,1,0,0,1-.46.47,2.73,2.73,0,0,1-.88.25,1,1,0,0,1,.47-.47A2.7,2.7,0,0,1,265.71,9.39Z"/><path class="cls-2" d="M266.69,11.07a1,1,0,0,1-.47.47,2.7,2.7,0,0,1-.87.25,1,1,0,0,1,.47-.47A2.64,2.64,0,0,1,266.69,11.07Z"/><path class="cls-2" d="M264.41,5a1,1,0,0,1-.46.47,2.89,2.89,0,0,1-.88.24C263.23,5.25,263.94,5,264.41,5Z"/><path class="cls-1" d="M242.36,12.34a2,2,0,0,1-.92,1,5.18,5.18,0,0,1-1.73.53,2,2,0,0,1,.92-1A5.18,5.18,0,0,1,242.36,12.34Z"/><path class="cls-1" d="M247.62,6.71a1.4,1.4,0,0,1-.63.69,3.46,3.46,0,0,1-1.19.36,1.4,1.4,0,0,1,.63-.68A3.66,3.66,0,0,1,247.62,6.71Z"/><path class="cls-1" d="M235.65,11.82a1.4,1.4,0,0,1-.63.68,3.66,3.66,0,0,1-1.19.37,1.4,1.4,0,0,1,.63-.69A3.46,3.46,0,0,1,235.65,11.82Z"/><path class="cls-1" d="M239.06,11.2c-.21.65-1.15,1-1.82,1.05C237.45,11.61,238.39,11.28,239.06,11.2Z"/><path class="cls-2" d="M247.21,8.77a1.1,1.1,0,0,1-.49.53,2.83,2.83,0,0,1-.92.28,1.06,1.06,0,0,1,.49-.53A2.58,2.58,0,0,1,247.21,8.77Z"/><path class="cls-2" d="M238.15,10c-.16.5-.89.76-1.41.82C236.91,10.3,237.63,10,238.15,10Z"/><path class="cls-2" d="M238.65,7.07c-.16.5-.89.76-1.41.81C237.4,7.39,238.13,7.13,238.65,7.07Z"/><path class="cls-2" d="M243.72,10.8a1.1,1.1,0,0,1-.49.53,2.83,2.83,0,0,1-.92.28,1.06,1.06,0,0,1,.49-.53A2.83,2.83,0,0,1,243.72,10.8Z"/><path class="cls-2" d="M244.75,12.7a1.1,1.1,0,0,1-.49.53,2.83,2.83,0,0,1-.92.28,1.1,1.1,0,0,1,.49-.53A2.83,2.83,0,0,1,244.75,12.7Z"/><path class="cls-2" d="M247.41,13.11a1.11,1.11,0,0,1-.48.53,2.83,2.83,0,0,1-.92.28,1.06,1.06,0,0,1,.49-.53A2.5,2.5,0,0,1,247.41,13.11Z"/><path class="cls-1" d="M233.16,32.52c-.31.93-1.67,1.42-2.65,1.53C230.82,33.11,232.18,32.63,233.16,32.52Z"/><path class="cls-1" d="M238.42,26.89a1.4,1.4,0,0,1-.63.69,3.46,3.46,0,0,1-1.19.36,1.4,1.4,0,0,1,.63-.68A3.66,3.66,0,0,1,238.42,26.89Z"/><path class="cls-1" d="M226.45,32a1.4,1.4,0,0,1-.63.69,3.46,3.46,0,0,1-1.19.36,1.4,1.4,0,0,1,.63-.68A3.6,3.6,0,0,1,226.45,32Z"/><path class="cls-1" d="M229.86,31.38c-.21.64-1.14,1-1.82,1.05a1.39,1.39,0,0,1,.64-.68A3.57,3.57,0,0,1,229.86,31.38Z"/><path class="cls-2" d="M238,28.94a1.06,1.06,0,0,1-.49.53,2.7,2.7,0,0,1-.92.29,1.06,1.06,0,0,1,.49-.53A2.7,2.7,0,0,1,238,28.94Z"/><path class="cls-2" d="M229,30.16a1.06,1.06,0,0,1-.48.53,2.58,2.58,0,0,1-.92.28,1.1,1.1,0,0,1,.49-.53A2.74,2.74,0,0,1,229,30.16Z"/><path class="cls-2" d="M229.45,27.25a1.1,1.1,0,0,1-.49.53,2.83,2.83,0,0,1-.92.28,1.1,1.1,0,0,1,.49-.53A2.83,2.83,0,0,1,229.45,27.25Z"/><path class="cls-2" d="M234.52,31c-.16.5-.89.76-1.41.82C233.27,31.29,234,31,234.52,31Z"/><path class="cls-2" d="M235.55,32.88c-.16.49-.89.75-1.41.81C234.3,33.19,235,32.93,235.55,32.88Z"/><path class="cls-2" d="M238.22,33.28a1.06,1.06,0,0,1-.49.53,2.7,2.7,0,0,1-.92.29,1.1,1.1,0,0,1,.49-.54A2.83,2.83,0,0,1,238.22,33.28Z"/><path class="cls-1" d="M213.69,37.11a2.07,2.07,0,0,1-.92,1,5.16,5.16,0,0,1-1.72.53,2,2,0,0,1,.91-1A5.18,5.18,0,0,1,213.69,37.11Z"/><path class="cls-1" d="M219,31.48a1.4,1.4,0,0,1-.63.69,3.46,3.46,0,0,1-1.19.36,1.39,1.39,0,0,1,.64-.68A3.57,3.57,0,0,1,219,31.48Z"/><path class="cls-1" d="M207,36.58a1.4,1.4,0,0,1-.63.69,3.46,3.46,0,0,1-1.19.36,1.4,1.4,0,0,1,.63-.68A3.66,3.66,0,0,1,207,36.58Z"/><path class="cls-1" d="M210.4,36a1.39,1.39,0,0,1-.64.69,3.44,3.44,0,0,1-1.18.36,1.4,1.4,0,0,1,.63-.68A3.6,3.6,0,0,1,210.4,36Z"/><path class="cls-2" d="M218.54,33.53a1.06,1.06,0,0,1-.49.53,2.7,2.7,0,0,1-.92.29,1.06,1.06,0,0,1,.49-.53A2.7,2.7,0,0,1,218.54,33.53Z"/><path class="cls-2" d="M209.49,34.75a1.06,1.06,0,0,1-.49.53,2.7,2.7,0,0,1-.92.29,1.1,1.1,0,0,1,.49-.54A2.83,2.83,0,0,1,209.49,34.75Z"/><path class="cls-2" d="M210,31.84a1.1,1.1,0,0,1-.49.53,2.74,2.74,0,0,1-.91.28,1.11,1.11,0,0,1,.48-.53A2.83,2.83,0,0,1,210,31.84Z"/><path class="cls-2" d="M215.05,35.57a1.1,1.1,0,0,1-.49.53,2.83,2.83,0,0,1-.92.28,1.06,1.06,0,0,1,.49-.53A2.58,2.58,0,0,1,215.05,35.57Z"/><path class="cls-2" d="M216.08,37.47a1.1,1.1,0,0,1-.49.53,2.83,2.83,0,0,1-.92.28,1.06,1.06,0,0,1,.49-.53A2.58,2.58,0,0,1,216.08,37.47Z"/><path class="cls-2" d="M218.75,37.87a1.06,1.06,0,0,1-.49.53,2.7,2.7,0,0,1-.92.29,1.06,1.06,0,0,1,.49-.53A2.7,2.7,0,0,1,218.75,37.87Z"/><path class="cls-1" d="M212.68,52.69a2,2,0,0,1-.92,1,5.18,5.18,0,0,1-1.73.53,2.07,2.07,0,0,1,.92-1A5.18,5.18,0,0,1,212.68,52.69Z"/><path class="cls-1" d="M217.94,47.07a1.4,1.4,0,0,1-.63.68,3.6,3.6,0,0,1-1.19.37,1.4,1.4,0,0,1,.63-.69A3.52,3.52,0,0,1,217.94,47.07Z"/><path class="cls-1" d="M206,52.17a1.4,1.4,0,0,1-.63.69,3.52,3.52,0,0,1-1.19.36,1.4,1.4,0,0,1,.63-.69A3.46,3.46,0,0,1,206,52.17Z"/><path class="cls-1" d="M209.38,51.56a1.4,1.4,0,0,1-.63.68,3.6,3.6,0,0,1-1.19.37,1.4,1.4,0,0,1,.63-.69A3.52,3.52,0,0,1,209.38,51.56Z"/><path class="cls-2" d="M217.53,49.12a1.1,1.1,0,0,1-.49.53,2.83,2.83,0,0,1-.92.28,1.1,1.1,0,0,1,.49-.53A2.83,2.83,0,0,1,217.53,49.12Z"/><path class="cls-2" d="M208.47,50.34a1.1,1.1,0,0,1-.49.53,2.74,2.74,0,0,1-.91.28,1.06,1.06,0,0,1,.48-.53A2.83,2.83,0,0,1,208.47,50.34Z"/><path class="cls-2" d="M209,47.42a1.06,1.06,0,0,1-.49.53,2.7,2.7,0,0,1-.92.29,1.06,1.06,0,0,1,.49-.53A2.7,2.7,0,0,1,209,47.42Z"/><path class="cls-2" d="M214,51.15a1.06,1.06,0,0,1-.49.53,2.58,2.58,0,0,1-.92.28,1.1,1.1,0,0,1,.49-.53A2.83,2.83,0,0,1,214,51.15Z"/><path class="cls-2" d="M215.07,53.05c-.16.5-.89.76-1.41.81C213.82,53.37,214.55,53.11,215.07,53.05Z"/><path class="cls-2" d="M217.74,53.46c-.17.49-.89.75-1.41.81C216.49,53.77,217.21,53.51,217.74,53.46Z"/><path class="cls-1" d="M217.67,25a2,2,0,0,1-.92,1,5.18,5.18,0,0,1-1.73.53,2.07,2.07,0,0,1,.92-1A5.18,5.18,0,0,1,217.67,25Z"/><path class="cls-1" d="M222.93,19.41a1.4,1.4,0,0,1-.63.68,3.6,3.6,0,0,1-1.19.37,1.39,1.39,0,0,1,.64-.69A3.44,3.44,0,0,1,222.93,19.41Z"/><path class="cls-1" d="M211,24.51a1.4,1.4,0,0,1-.63.68,3.6,3.6,0,0,1-1.19.37,1.4,1.4,0,0,1,.63-.69A3.52,3.52,0,0,1,211,24.51Z"/><path class="cls-1" d="M214.38,23.9a1.39,1.39,0,0,1-.64.68,3.57,3.57,0,0,1-1.18.37,1.33,1.33,0,0,1,.63-.69A3.46,3.46,0,0,1,214.38,23.9Z"/><path class="cls-2" d="M222.52,21.46A1.1,1.1,0,0,1,222,22a2.83,2.83,0,0,1-.92.28,1.06,1.06,0,0,1,.49-.53A2.83,2.83,0,0,1,222.52,21.46Z"/><path class="cls-2" d="M213.47,22.68a1.1,1.1,0,0,1-.49.53,2.83,2.83,0,0,1-.92.28,1.06,1.06,0,0,1,.49-.53A2.58,2.58,0,0,1,213.47,22.68Z"/><path class="cls-2" d="M214,19.76a1.06,1.06,0,0,1-.49.53,2.62,2.62,0,0,1-.91.29,1.06,1.06,0,0,1,.48-.53A2.7,2.7,0,0,1,214,19.76Z"/><path class="cls-2" d="M219,23.49a1.06,1.06,0,0,1-.49.53,2.83,2.83,0,0,1-.92.28,1.1,1.1,0,0,1,.49-.53A2.83,2.83,0,0,1,219,23.49Z"/><path class="cls-2" d="M220.06,25.39a1.06,1.06,0,0,1-.49.53,2.58,2.58,0,0,1-.92.28,1.1,1.1,0,0,1,.49-.53A2.83,2.83,0,0,1,220.06,25.39Z"/><path class="cls-2" d="M222.73,25.8a1.1,1.1,0,0,1-.49.53,2.83,2.83,0,0,1-.92.28,1.06,1.06,0,0,1,.49-.53A2.58,2.58,0,0,1,222.73,25.8Z"/></g></g></svg>