<svg xmlns="http://www.w3.org/2000/svg" xmlns:xlink="http://www.w3.org/1999/xlink" viewBox="0 0 581.05 522.66"><defs><style>.cls-1{fill:none;}.cls-2{isolation:isolate;}.cls-3{fill:#5b300c;}.cls-4,.cls-7{fill:#703b0f;}.cls-5{fill:#422309;}.cls-6{fill:#7d4210;}.cls-7,.cls-9{mix-blend-mode:screen;}.cls-8{fill:#d0d0d0;mix-blend-mode:multiply;}.cls-10{fill:#204a20;}.cls-11{fill:#296029;}.cls-12{fill:#275b27;}.cls-13{fill:#307030;}.cls-14{fill:#2b662b;}.cls-15{fill:#2e6c2e;}.cls-16{fill:#2e6d2e;}.cls-17{fill:#307130;}.cls-18{fill:#295f29;}.cls-19{fill:#2d6a2d;}.cls-20{fill:#255625;}.cls-21{fill:#307230;}.cls-22{fill:#317231;}.cls-23{fill:#255825;}.cls-24{fill:#235223;}.cls-25{fill:#2c672c;}.cls-26{fill:#275c27;}.cls-27{fill:#317331;}.cls-28{fill:#245424;}.cls-29{fill:#2d692d;}.cls-30{fill:#235123;}.cls-31{fill:#368036;}.cls-32{fill:#469cc6;}.cls-33{clip-path:url(#clip-path);}.cls-34{fill:#00dcdc;}.cls-35{fill:#008484;}</style><clipPath id="clip-path"><polygon class="cls-1" points="382.3 39.45 374.56 61.01 397.34 64.84 424.42 66.17 437.44 75.67 440.46 90.98 457.75 98 474.67 105.23 498.39 108.51 509.31 119.23 525.96 126.62 537.39 137.05 543.45 150.59 571.23 156.44 554.98 168.9 523.85 167.88 511.28 177.57 513.32 195.7 489.82 199.1 469.75 204.46 460.72 216.2 442.12 222.42 426.87 230.56 412.44 239.19 409.16 254.25 393.07 261.92 377.93 270.13 365.27 279.78 352.95 289.62 336.66 297.17 318.29 303.52 288.76 304.71 284.72 322.58 264.73 312.57 261.47 297.4 250.69 286.61 221.88 286.28 212.87 274.46 195.58 267.44 185.25 256.38 177.29 243.93 148.37 243.67 132.42 235.88 113.38 229.88 108.16 215.85 89.91 209.39 66.96 205.66 60.61 192.28 60.1 175.51 23.8 179.54 23.91 162.4 0.07 156.44 30.39 154.27 31.71 138.08 52.94 133.38 74.7 128.99 83.96 117.38 103.7 111.82 102.89 94.4 110.65 81.92 145.69 85.2 148.52 69.88 174.1 67.69 169.05 47.82 187.31 41.41 220.55 43.65 214.92 23.44 231.53 16.07 245.62 7.25 267.21 2.76 282.9 0 290.96 7.21 309.99 13.21 335.15 15.65 342.88 28.23 366.39 31.63 382.3 39.45"/></clipPath></defs><title>verden_01</title><g class="cls-2"><g id="Layer_2" data-name="Layer 2"><g id="Layer_1-2" data-name="Layer 1"><path class="cls-3" d="M533,195.24l-.27.18c-.52.36-1.05.7-1.57,1A93.31,93.31,0,0,1,508,207c-5.45,1.63-13.31.55-17.79,4.63a5.51,5.51,0,0,0-.62.69l-.09.13a3.49,3.49,0,0,0-.41.72c-1,2.15.12,4.48-1.7,6.61-2.16,2.53-6.73,3-9.74,3.8a38.67,38.67,0,0,0-18,10.62c-4.85,5.08-8.3,11.5-13.75,15.94s-13.32,7.19-18.27,2.2c-5.79-.56-12.29-.91-16.7,2.87-2.27,1.95-3.65,4.75-5.78,6.85-3.28,3.22-8,4.44-12.39,5.73a171.81,171.81,0,0,0-45.31,20.72c-6.63,4.28-13.05,9.12-19.41,13.62a18,18,0,0,0-6.19,8.11c-.93,2.36-.34,5.09-1.62,7.35-1,1.83-3.15,3.35-4.66,4.82-5,4.86-8.29,4.46-14.86,3.61-2.23-.29-3.55.24-5.65.57-4.45.69-7.88-.89-10.62-4.54-2.89-3.84-7-6.48-11.07-8.95-6.37-3.87-12.6-8.12-19.67-10.63-1.73-.61-3.51-1-5.29-1.49h0c-3.14-.82-6.33-1.53-9.4-2.47l-.23-.08c-.78-.24-1.56-.51-2.33-.79l-.75-.29c-.63-.25-1.25-.52-1.86-.8l-.74-.35a24.88,24.88,0,0,1-2.42-1.35c-5.32-3.4-9.2-8.81-14.81-11.7a17.94,17.94,0,0,1-4.3-2.47,6.9,6.9,0,0,1-.84-.91l-.19-.29a3.56,3.56,0,0,1-.36-.62c0-.1-.1-.2-.14-.3a5.3,5.3,0,0,1-.19-.61l-.06-.26a4.85,4.85,0,0,1-.05-.84.28.28,0,0,1,0-.09,6.31,6.31,0,0,1,.08-.76c0-.1.05-.2.07-.3s.08-.36.13-.54a3.57,3.57,0,0,1,.1-.35c0-.17.1-.35.16-.52.11-.35.23-.71.33-1.06h0a4.83,4.83,0,0,0-.35-4.35c-2.89-4.42-9.46-1.83-13.6-1.65a49.8,49.8,0,0,1-15.94-1.56c-10.61-3-19.38-10.63-26.24-19.26-3.64-4.58-6.89-9.55-11.42-13.24-15.69-12.82-40.51-6.22-57.55-17.18-9.52-6.12-15.64-17.2-26.21-21.23s-15.41-5-15.81-17c-.17,0,2.35,29.49,2.92,36.13a5.85,5.85,0,0,0,.89,2.62c4,6.4,12.1,15.33,15.55,21.29,3.59,6.19,5.3,11.31,3,18.18a3.3,3.3,0,0,0-.26,1.63,3.22,3.22,0,0,0,.65,1.24l3.7,5.1a2.65,2.65,0,0,0,.87.86,2.28,2.28,0,0,0,1,.18c2.32,0,4.77-.6,6.9.33,6.58,2.91,8.71,17.14,10.33,23.05,1.57,5.76,5.21,51.82,4,57.88a26,26,0,0,1,9.79,6.49,21.14,21.14,0,0,1,7.76-3.65c1.95-.46-1.36,17.22-1.28,18.11a11.91,11.91,0,0,0,1.13,4.09,2.71,2.71,0,0,0-.52,1.88c0,9.81,3.67,10.49,11.62,13.52,7.74,3,12.23,11.07,19.2,15.56,12.49,8,30.68,3.19,42.18,12.59,3.31,2.7,5.7,6.35,8.36,9.69,5,6.33,11.46,11.9,19.23,14.12a36.77,36.77,0,0,0,11.68,1.15c3-.14,7.84-2,10,1.21,1.94,3-2.46,5.5.95,8.65a14,14,0,0,0,3.15,1.81c4.12,2.11,7,6.08,10.86,8.57,5,3.2,11.26,3.66,16.87,5.65,5.18,1.83,9.75,4.95,14.41,7.78,3,1.81,6,3.74,8.11,6.56a7.62,7.62,0,0,0,7.78,3.32,12.48,12.48,0,0,1,4.14-.41c4.82.62,7.24.91,10.89-2.64,1.11-1.08,2.66-2.19,3.42-3.54.93-1.65.51-3.65,1.18-5.38a13.33,13.33,0,0,1,4.54-6c4.66-3.3,9.37-6.84,14.22-10a126.48,126.48,0,0,1,33.2-15.18c3.24-.94,6.68-1.84,9.08-4.2,1.57-1.54,2.57-3.59,4.24-5,3.23-2.78,8-2.52,12.23-2.11,3.63,3.66,9.4,1.65,13.39-1.61s6.52-8,10.08-11.68a28.22,28.22,0,0,1,13.18-7.78c2.2-.58,5.55-.94,7.14-2.79s0-4.11,2.07-6a7.18,7.18,0,0,1,1.85-1.18c2.74-1.3,6.31-1.29,9.34-1.81l.34-.05c.52-.1,1-.21,1.5-.35a68,68,0,0,0,16.93-7.71c2.43-1.54,4.85-3.33,6.14-5.9,1.44-2.84,1.3-6.19,1.12-9.36,0-3.76-.54-23.76,1.12-27.14,1.37-2.78,3.74-43.69,5.93-45.89a74.42,74.42,0,0,0,13.88-20.15c3.41-6.91,6.18-14.2,9.31-21.58,6.89-16.21,16.57-30.64,24.63-46.23,2.82-5.45,8.09-13.73,8.06-20.33A24.7,24.7,0,0,1,533,195.24Z"/><path class="cls-4" d="M282.63,33a9.3,9.3,0,0,1-2.3.3,3,3,0,0,0-1.27.15A2.73,2.73,0,0,0,278,34.73c-8.17,14.5-27.83,10.48-40.5,18.17-8.23,5-13.63,13.58-21.26,19.46-5.64,4.35-12.32,7.08-18.67,10.31a129.79,129.79,0,0,0-20,12.59c-2.94,2.25-7.33,4.9-9.45,8-1.6,2.31-2.11,5.71-3.17,8.72-.4,1.14-11.2,3.22-12.55,3.68-5.28,1.82-10.46,3.93-15.53,6.25-17.77,8.13-32.39,22.36-51.19,27.52-4,1.11-8.28,1.94-11.79,4.24-6,4-8.83,11.53-14.71,15.7A21.52,21.52,0,0,1,47,172.93a4,4,0,0,0-2.72.66,3.57,3.57,0,0,0-.79,2.68c.05,13.39,5,14.33,15.85,18.46C69.9,198.76,76,209.84,85.54,216c17,11,41.86,4.36,57.55,17.18,4.53,3.69,7.78,8.66,11.42,13.24,6.86,8.63,15.63,16.23,26.24,19.26a49.8,49.8,0,0,0,15.94,1.56c4.14-.18,10.71-2.77,13.6,1.65,2.64,4-3.36,7.52,1.3,11.81a17.94,17.94,0,0,0,4.3,2.47c5.61,2.89,9.49,8.3,14.81,11.7,6.85,4.37,15.36,5,23,7.7,7.07,2.51,13.3,6.76,19.67,10.63,4.08,2.47,8.18,5.11,11.07,8.95,2.74,3.65,6.17,5.23,10.62,4.54,2.1-.33,3.42-.86,5.65-.57,6.57.85,9.87,1.25,14.86-3.61,1.51-1.47,3.62-3,4.66-4.82,1.28-2.26.69-5,1.62-7.35a18.2,18.2,0,0,1,6.19-8.19c6.36-4.5,12.78-9.34,19.41-13.62a171.81,171.81,0,0,1,45.31-20.72c4.42-1.29,9.11-2.51,12.39-5.73,2.13-2.1,3.51-4.9,5.78-6.85,4.41-3.78,10.91-3.43,16.7-2.87,5,5,12.82,2.25,18.27-2.2s8.9-10.86,13.75-15.94a38.67,38.67,0,0,1,18-10.62c3-.79,7.58-1.27,9.74-3.8s0-5.61,2.82-8.15c4.48-4.08,12.34-3,17.79-4.63a93.31,93.31,0,0,0,23.11-10.52c3.31-2.1,6.61-4.55,8.38-8,2-3.88,1.76-8.45,1.52-12.79l-40.23-22.41c-5.37-3-10.87-6.1-14.75-10.86-4.14-5.08-6.07-11.63-9.86-17-13.61-19.23-43.63-15.69-63.24-28.76-6.39-4.26-11.5-10.21-17.82-14.56-8.12-5.58-17.76-8.17-27.44-9.32-2.64-.31-24.95.45-24.52-2.81.88-6.6-.73-12.21-5.73-17s-11.82-7.34-18.38-9.75c-5.36-2-12-3.4-16.1-7s-6.58-7.35-12.77-5.93C287.58,30.86,285.18,32.36,282.63,33Z"/><path class="cls-3" d="M450.37,395.61a68,68,0,0,0,16.93-7.71c2.43-1.54,4.85-3.33,6.14-5.9a10.68,10.68,0,0,0,.93-2.9c.09-2.05.16-4.17.19-6.46,0-3.76-.54-23.76,1.12-27.14,1.37-2.78,3.74-43.69,5.93-45.89a74.42,74.42,0,0,0,13.88-20.15c3.41-6.91,6.18-14.2,9.31-21.58,6.89-16.21,16.57-30.64,24.63-46.23,2.82-5.45,8.09-13.73,8.06-20.33a28.85,28.85,0,0,1-6.37,5.14A93.31,93.31,0,0,1,508,207c-5.45,1.63-13.31.55-17.79,4.63-2.78,2.54-.56,5.5-2.82,8.15-.79.92-10.4,30.72-17.75,43.48-3.35,5.83-7.25,11.52-8.76,18.07C459.8,286,460,291,459.1,295.7c-1.53,7.86-6,53.52-9.62,60.68-6.83,13.65-7.83,27.38-10.29,41.44C442.51,396.25,447.05,396.6,450.37,395.61Z"/><path class="cls-5" d="M416.84,413.76l4.56-21.33c1.63-7.59,2.88-16.6-2.54-22.16-1.56-1.6-3.57-2.76-4.9-4.57a15.87,15.87,0,0,1-2.25-5.82c-2.07-8.53-4-56.83.39-64.42,2.78-4.81,7.81-8.16,9.95-13.28,1.55-3.72,1.39-7.88,1.56-11.9.25-6,2.89-12.15,3.14-18l.9.08c-5.79-.56-12.29-.91-16.7,2.87-2.27,1.95-3.65,4.75-5.78,6.85a14.89,14.89,0,0,1-3.33,2.41c-1.79,13.85-3.51,66.23-1.85,80.54,1.45,12.53,5,25.09,3.08,37.55C401.31,394,395.12,404.2,390.92,415a97.36,97.36,0,0,0-4.13,13.6,40.47,40.47,0,0,1,4.69.24c3.63,3.66,9.4,1.65,13.39-1.61s6.52-8,10.08-11.68c.6-.63,1.24-1.22,1.89-1.78Z"/><path class="cls-6" d="M439.19,397.82c2.46-14.06,3.46-27.79,10.29-41.44,3.59-7.16,8.09-52.82,9.62-60.68.92-4.75.7-9.68,1.79-14.39,1.51-6.55,5.41-12.24,8.76-18.07,7.35-12.76,17-42.56,17.75-43.48-2.16,2.53-6.73,3-9.74,3.8a38.67,38.67,0,0,0-18,10.62c-4.85,5.08-8.3,11.5-13.75,15.94s-13.32,7.19-18.27,2.2l-.9-.08c-.25,5.89-2.89,12-3.14,18-.17,4,0,8.18-1.56,11.9-2.14,5.12-7.17,8.47-9.95,13.28-4.4,7.59-2.46,55.89-.39,64.42A15.87,15.87,0,0,0,414,365.7c1.33,1.81,3.34,3,4.9,4.57,5.42,5.56,4.17,14.57,2.54,22.16l-4.56,21.33a28.18,28.18,0,0,1,11.29-6c2.2-.58,5.55-.94,7.14-2.79s0-4.11,2.07-6a7.18,7.18,0,0,1,1.85-1.18Z"/><path class="cls-4" d="M386.79,428.59a97.36,97.36,0,0,1,4.13-13.6c4.2-10.79,10.39-21,12.15-32.45,1.91-12.46-1.63-25-3.08-37.55-1.66-14.31.06-66.69,1.85-80.54a44,44,0,0,1-9.06,3.32,171.81,171.81,0,0,0-45.31,20.72c-6.63,4.28-13.05,9.12-19.41,13.62a18,18,0,0,0-6.19,8.11c-.91,2.33-.37,5-1.57,7.23a33.88,33.88,0,0,0,4.64,14c5.14,8.05,14.61,52.61,16.28,62,.83,4.72-.53,9.52-1.88,14.12q-2.65,9-5.3,18l-2.82,9.59-3.66,12.46q-2.07,7.08-4.16,14.17c3.07-2.21,6.17-4.43,9.33-6.48a126.48,126.48,0,0,1,33.2-15.18c3.24-.94,6.68-1.84,9.08-4.2,1.57-1.54,2.57-3.59,4.24-5,2.06-1.78,4.76-2.31,7.54-2.35Z"/><path class="cls-6" d="M323.4,461.81q2.09-7.1,4.16-14.17l3.66-12.46,2.82-9.59q2.64-9,5.3-18c1.35-4.6,2.71-9.4,1.88-14.12-1.67-9.4-11.14-54-16.28-62a33.88,33.88,0,0,1-4.64-14l-.05.12c-1,1.83-3.15,3.35-4.66,4.82-5,4.86-8.29,8.33-14.86,7.48-2.23-.29-3.55-3.63-5.65-3.3-4.45.69-7.88-.89-10.62-4.54a23.89,23.89,0,0,0-3.64-3.81c-.53,2.11-1.05,4.13-1.62,5.95-.85,2.7-1.7,44.3-1.69,47.13,0,3.51,1.35,6.85,2.39,10.2a61.28,61.28,0,0,1,1.66,29.22,36.66,36.66,0,0,0-1.1,8.17c.2,5.28,4.41,10.69,9.69,10.47,2.56-.11,5.66-1.28,7.33.68,1.16,1.36.74,3.41.33,5.16a63.68,63.68,0,0,0-.09,28.74l-15.82-.09A13.57,13.57,0,0,1,279.4,474a25.16,25.16,0,0,1,7.16,6,7.62,7.62,0,0,0,7.78,3.32,12.48,12.48,0,0,1,4.14-.41c4.82.62,7.24.91,10.89-2.64,1.11-1.08,2.66-2.19,3.42-3.54.93-1.65.51-3.65,1.18-5.38a13.33,13.33,0,0,1,4.54-6l4.89-3.5Z"/><path class="cls-3" d="M281.9,463.85l15.82.09a63.68,63.68,0,0,1,.09-28.74c.41-1.75.83-3.8-.33-5.16-1.67-2-4.77-.79-7.33-.68-5.28.22-9.49-5.19-9.69-10.47a36.66,36.66,0,0,1,1.1-8.17,61.28,61.28,0,0,0-1.66-29.22c-1-3.35-2.38-6.69-2.39-10.2,0-2.83.84-44.43,1.69-47.13.57-1.82,1.09-3.84,1.62-5.95a55.18,55.18,0,0,0-7.43-5.14c-6.37-3.87-12.6-8.12-19.67-10.63-4.84-1.71-10-2.52-14.92-4,0,2.41-.05,43.6-.08,46a47.64,47.64,0,0,0,.57,9.7c.69,3.5,2.17,6.79,3.43,10.13a87.12,87.12,0,0,1,4.89,41.52c-.64,5-1.69,10.21,0,15,1.4,3.89,4.48,6.9,6.83,10.31a31.07,31.07,0,0,1,5,22.69c-5.33-.2-11.91.52-15.16,4.07a26.22,26.22,0,0,0,2.87,2.19c5,3.2,11.26,3.66,16.87,5.65,5.18,1.83,9.75,4.95,14.41,7.78l.95.59A13.57,13.57,0,0,0,281.9,463.85Z"/><path class="cls-4" d="M259.46,453.72a31.07,31.07,0,0,0-5-22.69c-2.35-3.41-5.43-6.42-6.83-10.31-1.71-4.74-.66-10,0-15a87.12,87.12,0,0,0-4.89-41.52c-1.26-3.34-2.74-6.63-3.43-10.13a47.64,47.64,0,0,1-.57-9.7c0-2.41.05-43.6.08-46a33.33,33.33,0,0,1-8.1-3.58c-5.32-3.4-9.2-8.81-14.81-11.7a17.94,17.94,0,0,1-4.3-2.47,5.12,5.12,0,0,1-1.78-3l0,.1c-1,3.26-.88,6.74-.69,10.14,1,17.65,4,73.95,8.87,90.93,3.46,12,7.9,23.8,9.13,36.21.7,7.16.34,14.48,2.22,21.42.26,1,.56,1.91.82,2.87a3.85,3.85,0,0,1,2.08,1.6c1.94,3-2.46,5.5.95,8.65a14,14,0,0,0,3.15,1.81c3.05,1.56,5.4,4.14,8,6.38C247.55,454.24,254.13,453.52,259.46,453.72Z"/><path class="cls-4" d="M230.13,439.35c-.26-1-.56-1.91-.82-2.87-1.88-6.94-1.52-14.26-2.22-21.42-1.23-12.41-5.67-24.23-9.13-36.21-4.91-17-7.89-73.28-8.87-90.93-.19-3.4-.3-6.88.69-10.14l0-.1,0,.09,0-.1a4.85,4.85,0,0,1-.05-.84.28.28,0,0,1,0-.09,6.31,6.31,0,0,1,.08-.76c0-.1.05-.2.07-.3s.08-.36.13-.54a3.57,3.57,0,0,1,.1-.35c0-.17.1-.35.16-.52.11-.35.23-.71.33-1.06h0a4.83,4.83,0,0,0-.35-4.35c-2.89-4.42-9.46-1.83-13.6-1.65a49.8,49.8,0,0,1-15.94-1.56c-10.61-3-19.38-10.63-26.24-19.26-2-2.52-3.9-5.16-5.95-7.64-1.3,18.65,8.92,48.78,12.19,58.12,3.08,8.8,6.72,56.2,8.85,65.27,2.75,11.74,2.93,24.12,7.2,35.4,2.48,6.55,6.28,12.67,8.35,19.29,2.26,2.35,4.15,5.09,6.19,7.65,5,6.33,11.46,11.9,19.23,14.12a36.77,36.77,0,0,0,11.68,1.15c2.35-.11,5.75-1.26,8.16-.27Z"/><path class="cls-4" d="M541,175.72c.1,3.22-.11,6.45-1.64,9.29-1.77,3.29-5.07,5.58-8.38,7.55a96.14,96.14,0,0,1-23.1,9.88c-5.44,1.53-13.3.51-17.77,4.34-2.79,2.39-.57,5.17-2.83,7.65s-6.73,2.83-9.73,3.58a39.06,39.06,0,0,0-18,10c-4.85,4.77-8.3,10.79-13.75,15s-13.31,6.74-18.26,2.06c-5.79-.53-12.28-.86-16.69,2.69-2.27,1.83-3.64,4.46-5.78,6.43-3.28,3-8,4.17-12.38,5.38A177.37,177.37,0,0,0,347.44,279c-6.62,4-13,8.56-19.4,12.78a17.35,17.35,0,0,0-6.19,7.69c-.92,2.22-.34,4.78-1.61,6.9-1,1.72-3.15,3.15-4.66,4.53-5,4.56-8.29,4.18-14.85,3.38-2.23-.27-3.55.23-5.65.54a10.71,10.71,0,0,1-10.62-4.26c-2.89-3.61-7-6.08-11.06-8.4-6.36-3.64-12.59-7.63-19.66-10-7.65-2.54-16.17-3.13-23-7.23-5.31-3.19-9.2-8.27-14.81-11a18.66,18.66,0,0,1-4.29-2.32A7.92,7.92,0,0,1,211,271c.15,3.19-3.22,6.17.61,9.7a17.94,17.94,0,0,0,4.3,2.47c5.61,2.89,9.49,8.3,14.81,11.7,6.85,4.37,15.36,5,23,7.7,7.07,2.51,13.3,6.76,19.67,10.63,4.08,2.47,8.18,5.11,11.07,8.95,2.74,3.65,6.17,5.23,10.62,4.54,2.1-.33,3.42-.86,5.65-.57,6.57.85,9.87,1.25,14.86-3.61,1.51-1.47,3.62-3,4.66-4.82,1.28-2.26.69-5,1.62-7.35a18.2,18.2,0,0,1,6.19-8.19c6.36-4.5,12.78-9.34,19.41-13.62a171.81,171.81,0,0,1,45.31-20.72c4.42-1.29,9.11-2.51,12.39-5.73,2.13-2.1,3.51-4.9,5.78-6.85,4.41-3.78,10.91-3.43,16.7-2.87,5,5,12.82,2.25,18.27-2.2s8.9-10.86,13.75-15.94a38.67,38.67,0,0,1,18-10.62c3-.79,7.58-1.27,9.74-3.8s0-5.61,2.82-8.15c4.48-4.08,12.34-3,17.79-4.63a93.31,93.31,0,0,0,23.11-10.52c3.31-2.1,6.61-4.55,8.38-8C541.45,184.57,541.27,180,541,175.72Z"/><path class="cls-4" d="M210.33,260.52c-2.89-4.16-9.45-1.72-13.59-1.55a53.07,53.07,0,0,1-15.94-1.47c-10.6-2.84-19.36-10-26.22-18.08-3.64-4.29-6.89-9-11.41-12.43-15.69-12-40.5-5.83-57.53-16.12-9.51-5.75-15.63-16.15-26.19-19.93S44,186.21,43.64,174.74a6,6,0,0,0-.16,1.53c.05,13.39,5,14.33,15.85,18.46C69.9,198.76,76,209.84,85.54,216c17,11,41.86,4.36,57.55,17.18,4.53,3.69,7.78,8.66,11.42,13.24,6.86,8.63,15.63,16.23,26.24,19.26a49.8,49.8,0,0,0,15.94,1.56c3.93-.17,10-2.5,13.12,1C209.75,265.63,212.2,263.21,210.33,260.52Z"/><path class="cls-3" d="M411,255.19l-.09.09h0Z"/><path class="cls-3" d="M403.06,428.52l-.07.05Z"/><path class="cls-3" d="M440.11,253.67c-4.39,1.86-9.1,2-12.46-1.35l-.9-.08c-.25,5.89-2.89,12-3.14,18-.17,4,0,8.18-1.56,11.9-2.14,5.12-7.17,8.47-9.95,13.28-4.4,7.59-2.46,55.89-.39,64.42A15.87,15.87,0,0,0,414,365.7c1.33,1.81,3.34,3,4.9,4.57,5.42,5.56,4.17,14.57,2.54,22.16l-4.56,21.33h0c-.65.56-1.29,1.15-1.89,1.78a28.2,28.2,0,0,1,5.59-4.51l5.28-26.74a33.18,33.18,0,0,0,.94-9.7c-.84-8.39-7.88-15.28-8.29-23.69s5.62-54.07,10-61.15C435.13,278.87,438.21,266.4,440.11,253.67Z"/><path class="cls-3" d="M227.09,415.06c-1.23-12.41-5.67-24.23-9.13-36.21-4.91-17-7.89-73.28-8.87-90.93-.19-3.4-.3-6.88.69-10.14l0-.1,0,.09,0-.1a4.85,4.85,0,0,1-.05-.84.28.28,0,0,1,0-.09,6.31,6.31,0,0,1,.08-.76c0-.1.05-.2.07-.3s.08-.36.13-.54a3.57,3.57,0,0,1,.1-.35c0-.17.1-.35.16-.52.11-.35.23-.71.33-1.06h0a4.83,4.83,0,0,0-.35-4.35c-2.89-4.42-9.46-1.83-13.6-1.65a49.8,49.8,0,0,1-15.94-1.56l-1-.32c.74,5.85,2.27,11.94,3,17.22,1.45,11,2.93,60.91,7.26,71.11,3.77,8.88,9.59,16.8,12.92,25.85a51.46,51.46,0,0,1,.33,34.29c-1.08,3.1-2.46,6.13-3,9.37a33.71,33.71,0,0,0,.18,10.22,31.7,31.7,0,0,0,10.22,5.21,36.77,36.77,0,0,0,11.68,1.15c1-.05,2.21-.28,3.45-.46.94-2.23,1.9-4.46,2.79-6.7C227.55,426.83,227.66,420.89,227.09,415.06Z"/><path class="cls-5" d="M468.23,227.47c.61-.35,1.23-.69,1.85-1C469.46,226.78,468.84,227.12,468.23,227.47Z"/><path class="cls-5" d="M470.93,226.06q.68-.33,1.35-.63Q471.61,225.73,470.93,226.06Z"/><path class="cls-5" d="M475.38,224.25c.76-.25,1.51-.48,2.28-.69Q476.51,223.88,475.38,224.25Z"/><path class="cls-5" d="M473.15,225.08c.49-.2,1-.39,1.49-.57C474.14,224.69,473.64,224.88,473.15,225.08Z"/><path class="cls-5" d="M466.29,228.68l.81-.52Z"/><path class="cls-5" d="M490.22,211.61a5.51,5.51,0,0,0-.62.69l-.09.13a3.49,3.49,0,0,0-.41.72c-1,2.15.12,4.48-1.7,6.61-.79.92-10.4,30.72-17.75,43.48-3.35,5.83-7.25,11.52-8.76,18.07-.92,4-.92,8.14-1.45,12.21a12.9,12.9,0,0,1,1.83-2.9c1.7-2,4.08-3.26,5.67-5.3,2.9-3.71,2.6-8.88,3.55-13.49,2.48-12.13,13.59-20.26,20.56-30.5,3.25-4.77,9.46-19.69,11.82-33.44C498.34,208.41,493.42,208.69,490.22,211.61Z"/><path class="cls-5" d="M464.46,230l.66-.49Z"/><path class="cls-5" d="M229.31,436.48c-1.88-6.94-1.52-14.26-2.22-21.42-1.23-12.41-5.67-24.23-9.13-36.21-4.91-17-7.89-73.28-8.87-90.93-.19-3.4-.3-6.88.69-10.14l0-.1,0,.09,0-.1a4.85,4.85,0,0,1-.05-.84.28.28,0,0,1,0-.09,6.31,6.31,0,0,1,.08-.76c0-.1.05-.2.07-.3s.08-.36.13-.54a3.57,3.57,0,0,1,.1-.35c0-.17.1-.35.16-.52.11-.35.23-.71.33-1.06h0a4.83,4.83,0,0,0-.35-4.35c-2.89-4.42-9.46-1.83-13.6-1.65-1.2.06-2.4.07-3.6.07.17,3.72.2,7.44.2,11.21-.16,3.92-.51,7.89.29,11.73a42.54,42.54,0,0,0,3.55,9.22c10,21.2,17.73,82.24,23.06,105.07a77.09,77.09,0,0,1,2.48,16.92,43.39,43.39,0,0,1-4.09,18.33c1.22,0,2.45,0,3.67,0,2.35-.11,5.75-1.26,8.16-.27l-.28-.12C229.87,438.39,229.57,437.44,229.31,436.48Z"/><path class="cls-4" d="M325.2,408.45l-7.59-15.54c-2.84,1.14-3.89,4.69-3.71,7.74s1.23,6.05,1,9.11c-.38,6.37-6,12.34-4,18.39.51,1.51,1.48,2.89,1.65,4.47s-.56,3.3-1.22,4.86a62.34,62.34,0,0,0-4.74,18.85c-.56,6.22-.44,13.17-4.7,17.73-3.83,4.1-9.75,4.76-15.42,5.9h0a7.62,7.62,0,0,0,7.78,3.32,12.48,12.48,0,0,1,4.14-.41c4.82.62,7.24.91,10.89-2.64,1.11-1.08,2.66-2.19,3.42-3.54.93-1.65.51-3.65,1.18-5.38a13.85,13.85,0,0,1,3.57-5.19c0-2.54.06-5.07.11-7.6a89.46,89.46,0,0,1,.78-12,108.43,108.43,0,0,1,3.42-13.35q2.44-8.43,4.3-17a12.11,12.11,0,0,0,.38-4A11.9,11.9,0,0,0,325.2,408.45Z"/><path class="cls-3" d="M386.09,283.05c-1.31,0-1.61,1.8-1.9,3.08-1.06,4.67-6.67,6.78-8.92,11-2.71,5.06.13,50.26-1.58,55.73s-7.44,8.54-11.76,12.37a31,31,0,0,0-10.15,19.63c-.79,7.23,1,14.68-.77,21.74-.94,3.79-2.86,7.26-4.42,10.84-4.6,10.57-6.09,22.11-6.85,33.68q5.37-3,11-5.45l1.13-6.76c1.61-9.56,4.06-20.36,12.51-25.11a53,53,0,0,1-1-25.46c2.65.77,3.46,4.19,3.07,6.92s-1.49,5.49-.84,8.17,3,4.71,3.81,7.35a14.77,14.77,0,0,1,.2,6.11l-2.44,22.88c2.84-.83,5.7-1.78,7.79-3.83,1.57-1.54,2.57-3.59,4.24-5a9.14,9.14,0,0,1,3.91-1.92q2.23-10.2,4.06-20.46c.28-1.61.54-3.37-.28-4.79-.55-1-1.54-1.63-2.06-2.61-.75-1.43-.36-3.17,0-4.75,2.8-12.3,1.75-23.84-.39-36.09-.79-4.52.61-6.47,1.16-10.68.73-5.58-1.41-47.35,1.56-52.69A12.9,12.9,0,0,0,386.09,283.05Z"/><path class="cls-5" d="M270.07,325.12a50.35,50.35,0,0,0,2.75-12.39c-6.17-3.78-12.24-7.85-19.1-10.28-3-1.06-6.13-1.73-9.24-2.5-.08,5.74,2.43,51.8,3.87,55.75a84.25,84.25,0,0,1,2.8,7.95c-8.72-34.21-.27-31.79,1.12,10.6q.43,13.41.88,26.84c.27,8.25,1,17.54,7.33,22.87,2.24-.32,2.18-3.55,1.62-5.74a68.42,68.42,0,0,1,3.27-43.54C266.89,371.09,268.73,328.78,270.07,325.12Z"/><path class="cls-4" d="M145.16,390.24c-3.83-2.74-5.89-7.11-9.63-9.83-5-3.62-9.8-6.89-14.55-11.37a6.46,6.46,0,0,1-1.38-1.62,7,7,0,0,1-.41-3.67A60.56,60.56,0,0,0,118,347.41a4.37,4.37,0,0,1,0-2.63,4,4,0,0,1,1.83-1.67c1.32-.75,2.68-40.22,4.07-40.86a7.69,7.69,0,0,0,3.83-9.85c-4.52-11.34-11-21.85-14.45-33.4-.52-1.72-1-3.54-2.31-4.78a9.87,9.87,0,0,0-4.71-2.1c-3.69-.91-7.43-1.69-11.09-2.75-10.59-3.05-9.08-30-9.28-32.76,0-.17,0-.34,0-.51l0,0-.27-.16c-9.52-6.12-15.64-17.2-26.21-21.23l-2.8-1.06a122.46,122.46,0,0,0,6.78,22.57c5.61,13.78,13.78,27.4,24.36,38a12.9,12.9,0,0,0,3.57,2.94c2.87,1.43,6.44.75,9.35,2.11,3.51,1.64,5.07,5.7,6.3,9.38l5.21,15.56a13,13,0,0,1,1,5c-.22,3-2.53,5.56-3,8.57-.31,1.92.15,42.65.41,44.58a33.77,33.77,0,0,1,.23,6.73c1.86-.21-1.39,17.21-1.31,18.09a11.91,11.91,0,0,0,1.13,4.09,2.71,2.71,0,0,0-.52,1.88c0,9.81,3.67,10.49,11.62,13.52,7.74,3,12.23,11.07,19.2,15.56,8.1,5.21,18.58,5,28.1,6.79a22.75,22.75,0,0,0,.09-2.47C165,395.29,153.89,396.5,145.16,390.24Z"/><path class="cls-5" d="M169.6,362.13c-2.13-9.07-5.77-56.47-8.85-65.27-3.27-9.34-13.49-39.47-12.19-58.12a37.63,37.63,0,0,0-5.47-5.6,35.08,35.08,0,0,0-12.41-6.31c4.24,16.31,10.08,32.59,14.56,48.54a118.94,118.94,0,0,0,5.68,16.93c2.53,5.6,5.91,49.56,8.7,55,3.6,7,6.22,14.51,8.83,22L173,382.37C171.91,375.63,171.16,368.78,169.6,362.13Z"/><path class="cls-7" d="M113,285.57c-1.85-5.53-3.31-12.24-5.16-17.77-1.31-3.93-3-8.26-6.72-10-3.11-1.45-4.25-.76-7.32-2.29a66.76,66.76,0,0,1-8.91-6.14c-8.61-13.83-14.67-23.13-20.1-41.72-1.21-4.17-3.38-7.87-3.85-12.2l-5.79-2.28c1.34,8.7,7.39,14.33,8.12,23.08.59,7.18,13.78,27.4,24.36,38a12.9,12.9,0,0,0,3.57,2.94c2.87,1.43,6.44.75,9.35,2.11,3.51,1.64,5.07,5.7,6.3,9.38l5.21,15.56a13,13,0,0,1,1,5C113.19,287.36,113.61,287.29,113,285.57Z"/><path class="cls-8" d="M365.93,440.15c3.24-.94,6.68-1.84,9.08-4.2,1.57-1.54,2.57-3.59,4.24-5,3.23-2.78,8-2.52,12.23-2.11,3.63,3.66,9.4,1.65,13.39-1.61s6.52-8,10.08-11.68a28.22,28.22,0,0,1,13.18-7.78c2.2-.58,5.55-.94,7.14-2.79s0-4.11,2.07-6a7.18,7.18,0,0,1,1.85-1.18c2.74-1.3,6.31-1.29,9.34-1.81l.34-.05c.52-.1,1-.21,1.5-.35a68,68,0,0,0,16.93-7.71c2.43-1.54,4.85-3.33,6.14-5.9,1.44-2.84,1.3-6.19,1.12-9.36,0-2.84-.29-14.93.27-22.14-6.75,1.89-16.55,3.41-22.11-.56-5.75,13.89-17.65,14.89-31.24,16l-14.87,1.17A68.68,68.68,0,0,1,396,382.82a13.2,13.2,0,0,1-5.37,4.05c-2.63.86-5.48.16-8.25.2-10.14.11-17.27,9.55-25.77,15.1s-19.2,7.38-28.33,12.15c-7.29,3.8-13.47,9.44-20.52,13.68s-15.69,7.07-23.5,4.49c-12.29-4.06-18.38-19.88-31.09-22.32-6.48-1.25-13.35,1.41-19.72-.35-9.89-2.73-14.37-14.63-23.5-19.32-6.87-3.53-15.08-2.38-22.79-2.88S170.53,383.55,169,376c-5.94-30.15-47.45-78.4-77.84-83l-.7-.1c1.64,4.77,3.47,48.78,2.6,53.33a26,26,0,0,1,9.79,6.49,21.14,21.14,0,0,1,7.76-3.65c1.95-.46-1.36,17.22-1.28,18.11a11.91,11.91,0,0,0,1.13,4.09,2.71,2.71,0,0,0-.52,1.88c0,9.81,3.67,10.49,11.62,13.52,7.74,3,12.23,11.07,19.2,15.56,12.49,8,30.68,3.19,42.18,12.59,3.31,2.7,5.7,6.35,8.36,9.69,5,6.33,11.46,11.9,19.23,14.12a36.77,36.77,0,0,0,11.68,1.15c3-.14,7.84-2,10,1.21,1.94,3-2.46,5.5.95,8.65a14,14,0,0,0,3.15,1.81c4.12,2.11,7,6.08,10.86,8.57,5,3.2,11.26,3.66,16.87,5.65,5.18,1.83,9.75,4.95,14.41,7.78,3,1.81,6,3.74,8.11,6.56a7.62,7.62,0,0,0,7.78,3.32,12.48,12.48,0,0,1,4.14-.41c4.82.62,7.24.91,10.89-2.64,1.11-1.08,2.66-2.19,3.42-3.54.93-1.65.51-3.65,1.18-5.38a13.33,13.33,0,0,1,4.54-6c4.66-3.3,9.37-6.84,14.22-10A126.48,126.48,0,0,1,365.93,440.15Z"/><g class="cls-9"><path class="cls-4" d="M218.92,379.75c-3.2-15.12-6-70.39-4-83.2.55-3.57-1.52-8.77-1.46-12.38l.06-2.2a8.71,8.71,0,0,1-1.94-1.31,5.12,5.12,0,0,1-1.78-3l0,.1c-1,3.26-.88,6.74-.69,10.14,1,17.65,4,73.95,8.87,90.93.93,3.25,1.94,6.49,2.94,9.72C220.22,385.63,219.54,382.69,218.92,379.75Z"/></g><path class="cls-7" d="M477.66,223.56l-.58.18c.07,5.53.16,11.18-2.67,15.08-1.47,2-4,2.91-5.87,4.56-2.62,2.32,1.5,6.81.62,10.2-2.35,9-9.46,17.2-10.6,26.43a160.76,160.76,0,0,0-1.13,21.49,37.36,37.36,0,0,0,1.67-5.8c.92-4.75.7-9.68,1.79-14.39,1.51-6.55,5.41-12.24,8.76-18.07,7.35-12.76,17-42.56,17.75-43.48C485.24,222.29,480.67,222.77,477.66,223.56Z"/><g class="cls-2"><polygon class="cls-10" points="220.55 43.65 220.48 67.74 214.85 47.53 214.92 23.44 220.55 43.65"/><polygon class="cls-11" points="382.3 39.45 382.23 63.54 374.5 85.1 374.56 61.01 382.3 39.45"/><polygon class="cls-10" points="174.1 67.69 174.03 91.78 168.98 71.91 169.05 47.82 174.1 67.69"/><polygon class="cls-10" points="103.7 111.82 103.64 135.91 102.82 118.49 102.89 94.4 103.7 111.82"/><polygon class="cls-12" points="23.91 162.4 23.84 186.49 0 180.53 0.07 156.44 23.91 162.4"/><polygon class="cls-13" points="571.23 156.44 571.16 180.53 554.91 192.99 554.98 168.9 571.23 156.44"/><polygon class="cls-14" points="554.98 168.9 554.91 192.99 523.78 191.97 523.85 167.88 554.98 168.9"/><polygon class="cls-13" points="523.85 167.88 523.78 191.97 511.21 201.66 511.28 177.57 523.85 167.88"/><polygon class="cls-15" points="60.1 175.51 60.03 199.6 23.73 203.63 23.8 179.54 60.1 175.51"/><polygon class="cls-10" points="60.61 192.28 60.55 216.37 60.03 199.6 60.1 175.51 60.61 192.28"/><polygon class="cls-16" points="513.32 195.7 513.25 219.79 489.76 223.19 489.82 199.1 513.32 195.7"/><polygon class="cls-17" points="489.82 199.1 489.76 223.19 469.68 228.54 469.75 204.46 489.82 199.1"/><polygon class="cls-10" points="66.96 205.66 66.89 229.75 60.55 216.37 60.61 192.28 66.96 205.66"/><polygon class="cls-18" points="89.91 209.39 89.84 233.48 66.89 229.75 66.96 205.66 89.91 209.39"/><polygon class="cls-19" points="469.75 204.46 469.68 228.54 460.65 240.29 460.72 216.2 469.75 204.46"/><polygon class="cls-20" points="108.16 215.85 108.09 239.94 89.84 233.48 89.91 209.39 108.16 215.85"/><polygon class="cls-21" points="460.72 216.2 460.65 240.29 442.05 246.51 442.12 222.42 460.72 216.2"/><polygon class="cls-22" points="442.12 222.42 442.05 246.51 426.8 254.66 426.87 230.56 442.12 222.42"/><polygon class="cls-10" points="113.38 229.88 113.31 253.97 108.09 239.94 108.16 215.85 113.38 229.88"/><polygon class="cls-23" points="132.42 235.88 132.35 259.97 113.31 253.97 113.38 229.88 132.42 235.88"/><polygon class="cls-22" points="426.87 230.56 426.8 254.66 412.37 263.28 412.44 239.19 426.87 230.56"/><polygon class="cls-24" points="148.37 243.67 148.3 267.76 132.35 259.97 132.42 235.88 148.37 243.67"/><polygon class="cls-25" points="177.29 243.93 177.23 268.02 148.3 267.76 148.37 243.67 177.29 243.93"/><polygon class="cls-26" points="412.44 239.19 412.37 263.28 409.09 278.34 409.16 254.25 412.44 239.19"/><polygon class="cls-10" points="185.25 256.38 185.18 280.47 177.23 268.02 177.29 243.93 185.25 256.38"/><polygon class="cls-27" points="409.16 254.25 409.09 278.34 393 286 393.07 261.92 409.16 254.25"/><polygon class="cls-10" points="195.58 267.44 195.51 291.52 185.18 280.47 185.25 256.38 195.58 267.44"/><polygon class="cls-22" points="393.07 261.92 393 286 377.86 294.22 377.93 270.13 393.07 261.92"/><polygon class="cls-28" points="212.87 274.46 212.8 298.55 195.51 291.52 195.58 267.44 212.87 274.46"/><polygon class="cls-17" points="377.93 270.13 377.86 294.22 365.2 303.87 365.27 279.78 377.93 270.13"/><polygon class="cls-10" points="221.88 286.28 221.81 310.37 212.8 298.55 212.87 274.46 221.88 286.28"/><polygon class="cls-25" points="250.69 286.61 250.62 310.7 221.81 310.37 221.88 286.28 250.69 286.61"/><polygon class="cls-13" points="365.27 279.78 365.2 303.87 352.89 313.71 352.95 289.62 365.27 279.78"/><polygon class="cls-22" points="352.95 289.62 352.89 313.71 336.59 321.26 336.66 297.17 352.95 289.62"/><polygon class="cls-10" points="261.47 297.4 261.4 321.49 250.62 310.7 250.69 286.61 261.47 297.4"/><polygon class="cls-21" points="336.66 297.17 336.59 321.26 318.22 327.61 318.29 303.52 336.66 297.17"/><polygon class="cls-29" points="318.29 303.52 318.22 327.61 288.69 328.8 288.76 304.71 318.29 303.52"/><polygon class="cls-10" points="264.73 312.57 264.67 336.67 261.4 321.49 261.47 297.4 264.73 312.57"/><polygon class="cls-30" points="284.72 322.58 284.65 346.67 264.67 336.67 264.73 312.57 284.72 322.58"/><polygon class="cls-26" points="288.76 304.71 288.69 328.8 284.65 346.67 284.72 322.58 288.76 304.71"/><polygon class="cls-31" points="382.3 39.45 374.56 61.01 397.34 64.84 424.42 66.17 437.44 75.67 440.46 90.98 457.75 98 474.67 105.23 498.39 108.51 509.31 119.23 525.96 126.62 537.39 137.05 543.45 150.59 571.23 156.44 554.98 168.9 523.85 167.88 511.28 177.57 513.32 195.7 489.82 199.1 469.75 204.46 460.72 216.2 442.12 222.42 426.87 230.56 412.44 239.19 409.16 254.25 393.07 261.92 377.93 270.13 365.27 279.78 352.95 289.62 336.66 297.17 318.29 303.52 288.76 304.71 284.72 322.58 264.73 312.57 261.47 297.4 250.69 286.61 221.88 286.28 212.87 274.46 195.58 267.44 185.25 256.38 177.29 243.93 148.37 243.67 132.42 235.88 113.38 229.88 108.16 215.85 89.91 209.39 66.96 205.66 60.61 192.28 60.1 175.51 23.8 179.54 23.91 162.4 0.07 156.44 30.39 154.27 31.71 138.08 52.94 133.38 74.7 128.99 83.96 117.38 103.7 111.82 102.89 94.4 110.65 81.92 145.69 85.2 148.52 69.88 174.1 67.69 169.05 47.82 187.31 41.41 220.55 43.65 214.92 23.44 231.53 16.07 245.62 7.25 267.21 2.76 282.9 0 290.96 7.21 309.99 13.21 335.15 15.65 342.88 28.23 366.39 31.63 382.3 39.45"/></g><polygon class="cls-32" points="210.23 272.59 227.1 284.15 251.23 286.59 260.23 291.51 260.84 522.66 219.97 499.18 210.23 272.59"/><g class="cls-33"><polygon class="cls-34" points="542.48 81.83 581.05 110.06 505.33 144.71 443.49 190.36 364.89 226.33 303.06 271.97 221.57 309.26 187.94 284.79 258.73 246.38 320.56 200.73 399.16 164.76 461 119.11 542.48 81.83"/><g class="cls-2"><polygon class="cls-22" points="544.91 73.04 544.88 82.67 466.33 118.61 466.36 108.98 544.91 73.04"/><polygon class="cls-22" points="466.36 108.98 466.33 118.61 404.49 164.26 404.52 154.63 466.36 108.98"/><polygon class="cls-22" points="404.52 154.63 404.49 164.26 325.89 200.22 325.92 190.59 404.52 154.63"/><polygon class="cls-22" points="325.92 190.59 325.89 200.22 264.06 245.87 264.08 236.24 325.92 190.59"/><polygon class="cls-22" points="264.08 236.24 264.06 245.87 185.4 281.86 185.43 272.23 264.08 236.24"/><polygon class="cls-35" points="185.43 272.23 185.4 281.86 184.67 281.33 184.69 271.69 185.43 272.23"/><polygon class="cls-31" points="544.18 72.5 544.91 73.04 466.36 108.98 404.52 154.63 325.92 190.59 264.08 236.24 185.43 272.23 184.69 271.69 263.24 235.75 325.07 190.1 403.68 154.14 465.51 108.49 544.18 72.5"/></g></g></g></g></g></svg>