<svg xmlns="http://www.w3.org/2000/svg" xmlns:xlink="http://www.w3.org/1999/xlink" viewBox="0 0 161.59 124.9"><defs><style>.cls-1{fill:none;}.cls-2{isolation:isolate;}.cls-3{fill:#40575a;}.cls-4{fill:#476164;}.cls-5{fill:#334648;}.cls-6{fill:#537174;}.cls-7{clip-path:url(#clip-path);}.cls-8{fill:#435c5e;}.cls-9{fill:#41595c;}.cls-10{fill:#3f5659;}.cls-11{fill:#3d5456;}.cls-12{fill:#3c5154;}.cls-13{fill:#3a4f51;}.cls-14{fill:#384c4e;}.cls-15{fill:#36494c;}.cls-16{fill:#344749;}.cls-17{fill:#324446;}.cls-18{clip-path:url(#clip-path-2);}.cls-19{fill:#455e61;}.cls-20{clip-path:url(#clip-path-3);}.cls-21{fill:#4b6669;}.cls-22{fill:#496467;}.cls-23{fill:#4d696c;}.cls-24{fill:#4f6b6f;}.cls-25{fill:#516e71;}.cls-26{fill:#547377;}.cls-27{fill:#56767a;}.cls-28{fill:#58797c;}.cls-29{fill:#5a7b7f;}.cls-30{fill:#5c7e82;}.cls-31{fill:#5e8084;}.cls-32{clip-path:url(#clip-path-4);}.cls-33{clip-path:url(#clip-path-5);}.cls-34{clip-path:url(#clip-path-6);}.cls-35{fill:#00c7e3;}.cls-36{fill:#11d5f2;}.cls-37{fill:#00b7d1;}.cls-38{fill:#10c6e0;}.cls-39{fill:#00b1c9;}.cls-40{fill:#009db3;}.cls-41{fill:#00aac2;}.cls-42{fill:aqua;}.cls-43{fill:#00deff;}.cls-44{opacity:0.53;fill:url(#Áåçûìÿííûé_ãðàäèåíò_5);}.cls-45{fill:#38e5ff;}.cls-46{clip-path:url(#clip-path-7);}.cls-47{mix-blend-mode:multiply;fill:url(#Безымянный_градиент_2);}.cls-48{fill:#fff;}</style><clipPath id="clip-path"><path class="cls-1" d="M130.28,60.48c0-.61-.07-1.43-.15-2a9.72,9.72,0,0,0-.3-1.5,16.63,16.63,0,0,0-1-2.73,15.46,15.46,0,0,0-.95-1.8c-.25-.39-.58-.92-.86-1.3a26.3,26.3,0,0,0-1.82-2.25c-.91-.94-2.19-2.13-3.17-3-.53-.46-1.29-1-1.87-1.43A42.73,42.73,0,0,0,114,40.78,56.59,56.59,0,0,0,107.53,38a72.94,72.94,0,0,0-14.4-3.4A85.37,85.37,0,0,0,77.89,34a79.35,79.35,0,0,0-14.82,2,59.85,59.85,0,0,0-6.84,2A52.81,52.81,0,0,0,50,40.52c-1,.49-2.26,1.13-3.19,1.69-1.27.77-2.92,1.88-4.14,2.74a31.93,31.93,0,0,0-4.06,3.65,20.52,20.52,0,0,0-3.89,5.85,14.76,14.76,0,0,0-1.24,5.76c0-7.13,4.71-14.25,14.07-19.69,18.84-11,49.48-11,68.44,0C125.54,46,130.3,53.26,130.28,60.48Z"/></clipPath><clipPath id="clip-path-2"><path class="cls-1" d="M130.28,59.77v.71c0-7.22-4.74-14.45-14.29-20-19-11-49.6-11-68.44,0C38.19,46,33.5,53.08,33.48,60.21V59.5c0-7.13,4.71-14.25,14.07-19.69,18.84-11,49.48-11,68.44,0C125.54,45.32,130.3,52.55,130.28,59.77Z"/></clipPath><clipPath id="clip-path-3"><path class="cls-1" d="M47,77.76c.81.43,1.86,1,2.68,1.44,1,.49,2.35,1.1,3.37,1.53,1.88.79,4.46,1.63,6.4,2.26a76.51,76.51,0,0,0,11.14,2.35c4.38.51,4.73.55,7.59.68,2.61.11,5,.11,7.65,0s5-.33,7.55-.67A71.55,71.55,0,0,0,100.7,84a68,68,0,0,0,6.84-2,54.6,54.6,0,0,0,6.23-2.57,47.91,47.91,0,0,0,5.4-3.07c1.2-.78,2.7-2,3.81-2.9A26.82,26.82,0,0,0,126.31,70a20.23,20.23,0,0,0,2.29-3.55,15.09,15.09,0,0,0,1.28-3.43,13.47,13.47,0,0,0,.4-3.28c0-7.22-4.74-14.45-14.29-20-19-11-49.6-11-68.44,0-9.36,5.44-14,12.56-14.07,19.69,0,.62.06,1.44.15,2.06A15.74,15.74,0,0,0,34.2,64a15.5,15.5,0,0,0,1.22,2.83,15.87,15.87,0,0,0,1.19,1.93c.62.83,1.48,1.93,2.19,2.69s2,1.9,2.87,2.67A42.26,42.26,0,0,0,47,77.76a1.47,1.47,0,0,0-1.48.13c-20.2-11.66-20.3-30.56-.24-42.23s52.7-11.66,72.9,0,20.31,30.57.24,42.23-52.7,11.66-72.9,0A1.47,1.47,0,0,1,47,77.76Z"/></clipPath><clipPath id="clip-path-4"><path class="cls-1" d="M147.81,60.53c0,9.71-6.41,19.41-19.16,26.82-25.67,14.91-67.41,14.91-93.24,0C22.42,79.85,15.93,70,16,60.16c0,.79.05,1.85.14,2.63a20.65,20.65,0,0,0,.43,2.71c.27,1.13.69,2.62,1.08,3.72a30.76,30.76,0,0,0,1.33,3,32,32,0,0,0,3.52,5.44c.84,1,2,2.35,3,3.31a29.38,29.38,0,0,0,2.31,2.15c1.56,1.28,3.71,2.88,5.36,4,.88.62,2.13,1.33,3,1.88,1.26.76,3,1.64,4.33,2.29,1.13.56,2.68,1.22,3.83,1.72a80.53,80.53,0,0,0,8.85,3.1,94.39,94.39,0,0,0,9.41,2.2c1.44.23,3.35.57,4.79.76s3.4.45,4.86.55,3.45.29,4.93.33,3.46.1,5,.1S85.55,100,87,100a106.29,106.29,0,0,0,19.42-2.66,85.5,85.5,0,0,0,9.21-2.69A72.41,72.41,0,0,0,124.31,91c1.09-.57,2.55-1.32,3.6-1.94,1.35-.81,3.13-1.9,4.4-2.83a46,46,0,0,0,7.23-6.28,31.92,31.92,0,0,0,2.82-3.45c.41-.6,1-1.4,1.34-2a29,29,0,0,0,1.59-2.95c.24-.58.6-1.34.82-1.93a25.83,25.83,0,0,0,.86-2.71c.18-.79.45-1.84.55-2.65C147.67,63.12,147.76,61.64,147.81,60.53Z"/></clipPath><clipPath id="clip-path-5"><path class="cls-1" d="M147.81,59.82v.71c0,9.71-6.41,19.41-19.16,26.82-25.67,14.91-67.41,14.91-93.24,0C22.42,79.85,15.93,70,16,60.16v-.71c0,9.83,6.46,19.68,19.46,27.19,25.82,14.91,67.57,14.91,93.23,0C141.4,79.22,147.78,69.53,147.81,59.82Z"/></clipPath><clipPath id="clip-path-6"><path class="cls-1" d="M127.62,30.93c.93.58,2.21,1.29,3.11,1.92,1.67,1.19,3.9,2.78,5.44,4.13a39.61,39.61,0,0,1,6.44,7.08A30,30,0,0,1,146.24,51c.19.57.46,1.31.61,1.89.21.82.47,1.92.62,2.75a27.11,27.11,0,0,1,.34,4.2c0,9.71-6.41,19.4-19.16,26.81-25.66,14.92-67.41,14.92-93.23,0C22.42,79.13,15.93,69.28,16,59.45c0-.56,0-1.3.07-1.86.13-1.11.32-2.59.56-3.68a28.27,28.27,0,0,1,1.68-5c.28-.59.64-1.39,1-2,.54-.94,1.26-2.19,1.89-3.06.46-.63,1.05-1.48,1.55-2.06a44.45,44.45,0,0,1,3.43-3.7,60.16,60.16,0,0,1,5.1-4.2c1.37-.94,3.23-2.15,4.66-3,1-.63,2.5-1.4,3.6-1.94a73,73,0,0,1,8.65-3.66c1.39-.5,3.26-1.09,4.68-1.51S56,23,57.31,22.64a96.42,96.42,0,0,1,9.59-1.77c4.75-.65,8.31-.81,9.83-.88,2.73-.12,6.14-.16,9.9,0s4.73.28,9.78.87c0,0,4.32.53,9.5,1.74a83.67,83.67,0,0,1,9,2.6c1.27.41,2.94,1.07,4.17,1.58s2.94,1.3,4.19,1.87,3,1.56,4.33,2.28a1.45,1.45,0,0,0-1.48.14c-24.59-14.2-64.35-14.2-88.78,0s-24.31,37.22.29,51.42,64.34,14.2,88.77,0,24.31-37.23-.28-51.42A1.45,1.45,0,0,1,127.62,30.93Z"/></clipPath><linearGradient id="Áåçûìÿííûé_ãðàäèåíò_5" x1="26.98" y1="43.84" x2="136.86" y2="43.84" gradientUnits="userSpaceOnUse"><stop offset="0" stop-color="#5761d7"/><stop offset="0.07" stop-color="#5472d8"/><stop offset="0.28" stop-color="#4e9cdb"/><stop offset="0.48" stop-color="#49bddd"/><stop offset="0.67" stop-color="#45d5df"/><stop offset="0.85" stop-color="#43e3e0"/><stop offset="1" stop-color="#42e8e0"/></linearGradient><clipPath id="clip-path-7"><path class="cls-1" d="M137.09,60.27,137,41.93l-8.89-20L105,6.22,78.9.71,54,8.35l-.71.3L33.82,23.32l-.4.3-6.6,26.91.9,18.35L52.74,83l1,.3,24.39,3.6.69.08,23.74-1.46.87-.25,19.14-8ZM122.17,74.88,109.32,61.81l15.18-7.65Zm-19.75,8.56L85.8,66.81l21.34-4.29Zm-24.3,1.07L64.36,65l19.16,2Zm-24.56-3.9L47.94,58.26,62,64.45ZM29,67.25l-.79-16.06,17.13,6.05ZM51.54,36.44l10.2,26.41-13.86-6.1Zm45.39-5.09-24.45,4.3,7.13-23.34Zm1.86-.59,6-21.27,7.52,19.81Zm13.26-.06-4.26,27.85L98.87,32.12ZM97.57,30,80.85,11.64l23-4Zm-.75,2.73L84.27,64.28l-12-27.2Zm-25.4,5.87,11.93,27L63.41,63.48Zm26.52-5,9.27,27.46-22,4.41Zm15.38-2.15,11,21.22L108.88,60.5Zm.81-1.4,12.64-6.45-2,27.08Zm-.55-1.25L105.82,8.41l20.46,14ZM79.83,10.43l-.19-8.18L101,6.77Zm-1.37,0L57.39,8.74,78.27,2.33Zm-.13,1.36L71.12,35.42,55,9.91ZM69.58,35.54,52.27,33.35,54.4,11.53ZM70.5,37,62.65,61.39,52.35,34.74ZM46.58,56.24,29.3,50.12c4.14-2.77,16.78-11.62,21-14.59Zm89-12.52.1,15.09-9.3-5.94Zm-.14-1.79-9.32,9.26,1.88-26ZM50.93,33,35.44,23.81,53.12,10.5Zm-16.4-8.13L50,34.05c-3.52,2.47-17,12-21.41,14.88ZM29.7,68.43,46.5,58.14l5.78,23ZM54.39,82,63,65.43,77,85.34ZM84.74,67.68,101.25,84.2l-22,1.36Zm19,15.92,4.68-20.72,13.06,13.29Zm22-28.23.12.21.08-1.38,9.43,6L123.59,74.52Z"/></clipPath><radialGradient id="Безымянный_градиент_2" cx="39.48" cy="12.4" r="216.33" gradientTransform="translate(17.59 -1.71) scale(1 0.99)" gradientUnits="userSpaceOnUse"><stop offset="0" stop-color="#fff"/><stop offset="0.08" stop-color="#f8f8fc"/><stop offset="0.19" stop-color="#e4e5f5"/><stop offset="0.33" stop-color="#c3c5ea"/><stop offset="0.48" stop-color="#959ad9"/><stop offset="0.65" stop-color="#5a62c4"/><stop offset="0.83" stop-color="#141eab"/><stop offset="0.87" stop-color="#0510a6"/></radialGradient></defs><title>globe_01</title><g class="cls-2"><g id="Layer_2" data-name="Layer 2"><g id="COLORS"><g class="cls-2"><polygon class="cls-3" points="161.59 51.4 161.55 65.53 140.16 112.36 140.2 98.23 161.59 51.4"/><polygon class="cls-4" points="140.2 98.23 140.16 112.36 59.38 124.9 59.42 110.78 140.2 98.23"/><polygon class="cls-5" points="59.42 110.78 59.38 124.9 0 90.62 0.04 76.5 59.42 110.78"/><polygon class="cls-6" points="161.59 51.4 140.2 98.23 59.42 110.78 0.04 76.5 21.44 29.66 102.22 17.12 161.59 51.4"/></g><g class="cls-2"><g class="cls-2"><g class="cls-7"><g class="cls-2"><path class="cls-8" d="M130.28,60.48c-.5-14.51-19.61-23.57-37.15-25.84-25.71-3.33-46.28,4.9-54.52,14-4.69,5.16-5,9.23-5.12,11.18,0-6.7,4.7-13.82,14.06-19.26,18.84-11,49.48-11,68.44,0,9.55,5.51,14.31,12.74,14.29,20"/><path class="cls-8" d="M47.37,40.63a59.16,59.16,0,0,1,10.21-4.58c18.47-6.19,42.54-4.69,58.41,4.47,9.55,5.51,14.31,12.74,14.29,20l0-1c-.05-.44-.12-1-.19-1.46l-.23-1.07c-.14-.47-.33-1.1-.49-1.57l-.49-1.16c-.27-.54-.65-1.27-.95-1.8L127,51.1c-.53-.69-1.25-1.6-1.82-2.25l-1.49-1.51a37.24,37.24,0,0,0-7-5.12L114,40.78c-1-.47-2.35-1.11-3.37-1.54L107.53,38c-1.06-.34-2.47-.82-3.55-1.13L100.51,36c-1.1-.24-2.58-.57-3.69-.78l-3.69-.58c-1.14-.13-2.65-.33-3.79-.43L85.54,34c-1.15,0-2.68-.09-3.83-.09L77.89,34c-1.14.07-2.66.15-3.8.25l-3.74.42c-1.12.18-2.61.39-3.73.59L63.07,36c-1.08.28-2.52.63-3.59.94l-3.25,1c-1,.39-2.4.88-3.41,1.3L50,40.52c-1,.5-2.25,1.15-3.19,1.69l-2.17,1.35a34.24,34.24,0,0,0-6,5l-1.09,1.27c-.5.67-1.15,1.57-1.61,2.27l-.65,1.16c-.25.53-.58,1.25-.81,1.8l-.36,1.07c-.12.46-.28,1.09-.38,1.56l-.15,1c0,.44-.07,1-.08,1.46,0-7.08,4.65-14.16,13.89-19.58"/><path class="cls-9" d="M40.93,45.31c6.39-5.5,15.27-9.45,26.39-11.73,16.6-3,35.47-.68,48.67,6.94,9.55,5.51,14.31,12.74,14.29,20l0-1c-.05-.44-.12-1-.19-1.46l-.23-1.07c-.14-.47-.33-1.1-.49-1.57l-.49-1.16c-.27-.54-.65-1.27-.95-1.8L127,51.1c-.53-.69-1.25-1.6-1.82-2.25l-1.49-1.51a37.24,37.24,0,0,0-7-5.12L114,40.78c-1-.47-2.35-1.11-3.37-1.54L107.53,38c-1.06-.34-2.47-.82-3.55-1.13L100.51,36c-1.1-.24-2.58-.57-3.69-.78l-3.69-.58c-1.14-.13-2.65-.33-3.79-.43L85.54,34c-1.15,0-2.68-.09-3.83-.09L77.89,34c-1.14.07-2.66.15-3.8.25l-3.74.42c-1.12.18-2.61.39-3.73.59L63.07,36c-1.08.28-2.52.63-3.59.94l-3.25,1c-1,.39-2.4.88-3.41,1.3L50,40.52c-1,.5-2.25,1.15-3.19,1.69l-2.17,1.35a34.24,34.24,0,0,0-6,5l-1.09,1.27c-.5.67-1.15,1.57-1.61,2.27l-.65,1.16c-.25.53-.58,1.25-.81,1.8l-.36,1.07c-.12.46-.28,1.09-.38,1.56l-.15,1c0,.44-.07,1-.08,1.46,0-5.18,2.5-10.36,7.45-14.9"/><path class="cls-10" d="M37.87,48.58C42.65,43,52.71,35.67,73.48,32.72c15-1.49,30.92,1.11,42.51,7.8,9.55,5.51,14.31,12.74,14.29,20l0-1c-.05-.44-.12-1-.19-1.46l-.23-1.07c-.14-.47-.33-1.1-.49-1.57l-.49-1.16c-.27-.54-.65-1.27-.95-1.8L127,51.1c-.53-.69-1.25-1.6-1.82-2.25l-1.49-1.51a37.24,37.24,0,0,0-7-5.12L114,40.78c-1-.47-2.35-1.11-3.37-1.54L107.53,38c-1.06-.34-2.47-.82-3.55-1.13L100.51,36c-1.1-.24-2.58-.57-3.69-.78l-3.69-.58c-1.14-.13-2.65-.33-3.79-.43L85.54,34c-1.15,0-2.68-.09-3.83-.09L77.89,34c-1.14.07-2.66.15-3.8.25l-3.74.42c-1.12.18-2.61.39-3.73.59L63.07,36c-1.08.28-2.52.63-3.59.94l-3.25,1c-1,.39-2.4.88-3.41,1.3L50,40.52c-1,.5-2.25,1.15-3.19,1.69l-2.17,1.35a34.24,34.24,0,0,0-6,5l-1.09,1.27c-.5.67-1.15,1.57-1.61,2.27l-.65,1.16c-.25.53-.58,1.25-.81,1.8l-.36,1.07c-.12.46-.28,1.09-.38,1.56l-.15,1c0,.44-.07,1-.08,1.46a18.77,18.77,0,0,1,4.39-11.63"/><path class="cls-11" d="M35.9,51.5c2.4-3.92,12.58-16.87,42.89-19.14,13.34-.46,27,2.25,37.2,8.16,9.55,5.51,14.31,12.74,14.29,20l0-1c-.05-.44-.12-1-.19-1.46l-.23-1.07c-.14-.47-.33-1.1-.49-1.57l-.49-1.16c-.27-.54-.65-1.27-.95-1.8L127,51.1c-.53-.69-1.25-1.6-1.82-2.25l-1.49-1.51a37.24,37.24,0,0,0-7-5.12L114,40.78c-1-.47-2.35-1.11-3.37-1.54L107.53,38c-1.06-.34-2.47-.82-3.55-1.13L100.51,36c-1.1-.24-2.58-.57-3.69-.78l-3.69-.58c-1.14-.13-2.65-.33-3.79-.43L85.54,34c-1.15,0-2.68-.09-3.83-.09L77.89,34c-1.14.07-2.66.15-3.8.25l-3.74.42c-1.12.18-2.61.39-3.73.59L63.07,36c-1.08.28-2.52.63-3.59.94l-3.25,1c-1,.39-2.4.88-3.41,1.3L50,40.52c-1,.5-2.25,1.15-3.19,1.69l-2.17,1.35a34.24,34.24,0,0,0-6,5l-1.09,1.27c-.5.67-1.15,1.57-1.61,2.27l-.65,1.16c-.25.53-.58,1.25-.81,1.8l-.36,1.07c-.12.46-.28,1.09-.38,1.56l-.15,1c0,.44-.07,1-.08,1.46A17.67,17.67,0,0,1,35.9,51.5"/><path class="cls-12" d="M34.59,54.28c4.26-10,19.42-21,49.2-21.94,11.69.28,23.25,3,32.2,8.18,9.55,5.51,14.31,12.74,14.29,20l0-1c-.05-.44-.12-1-.19-1.46l-.23-1.07c-.14-.47-.33-1.1-.49-1.57l-.49-1.16c-.27-.54-.65-1.27-.95-1.8L127,51.1c-.53-.69-1.25-1.6-1.82-2.25l-1.49-1.51a37.24,37.24,0,0,0-7-5.12L114,40.78c-1-.47-2.35-1.11-3.37-1.54L107.53,38c-1.06-.34-2.47-.82-3.55-1.13L100.51,36c-1.1-.24-2.58-.57-3.69-.78l-3.69-.58c-1.14-.13-2.65-.33-3.79-.43L85.54,34c-1.15,0-2.68-.09-3.83-.09L77.89,34c-1.14.07-2.66.15-3.8.25l-3.74.42c-1.12.18-2.61.39-3.73.59L63.07,36c-1.08.28-2.52.63-3.59.94l-3.25,1c-1,.39-2.4.88-3.41,1.3L50,40.52c-1,.5-2.25,1.15-3.19,1.69l-2.17,1.35a34.24,34.24,0,0,0-6,5l-1.09,1.27c-.5.67-1.15,1.57-1.61,2.27l-.65,1.16c-.25.53-.58,1.25-.81,1.8l-.36,1.07c-.12.46-.28,1.09-.38,1.56l-.15,1c0,.44-.07,1-.08,1.46a17.1,17.1,0,0,1,1.11-5.93"/><path class="cls-13" d="M33.81,57C37.32,42.2,60.87,31.7,88.59,32.59c10,.83,19.68,3.47,27.4,7.93,9.55,5.51,14.31,12.74,14.29,20l0-1c-.05-.44-.12-1-.19-1.46l-.23-1.07c-.14-.47-.33-1.1-.49-1.57l-.49-1.16c-.27-.54-.65-1.27-.95-1.8L127,51.1c-.53-.69-1.25-1.6-1.82-2.25l-1.49-1.51a37.24,37.24,0,0,0-7-5.12L114,40.78c-1-.47-2.35-1.11-3.37-1.54L107.53,38c-1.06-.34-2.47-.82-3.55-1.13L100.51,36c-1.1-.24-2.58-.57-3.69-.78l-3.69-.58c-1.14-.13-2.65-.33-3.79-.43L85.54,34c-1.15,0-2.68-.09-3.83-.09L77.89,34c-1.14.07-2.66.15-3.8.25l-3.74.42c-1.12.18-2.61.39-3.73.59L63.07,36c-1.08.28-2.52.63-3.59.94l-3.25,1c-1,.39-2.4.88-3.41,1.3L50,40.52c-1,.5-2.25,1.15-3.19,1.69l-2.17,1.35a34.24,34.24,0,0,0-6,5l-1.09,1.27c-.5.67-1.15,1.57-1.61,2.27l-.65,1.16c-.25.53-.58,1.25-.81,1.8l-.36,1.07c-.12.46-.28,1.09-.38,1.56l-.15,1c0,.44-.07,1-.08,1.46a16.47,16.47,0,0,1,.33-3.2"/><path class="cls-14" d="M33.49,59.81c.84-15.08,23.95-29.57,59.81-26.69A63.7,63.7,0,0,1,116,40.52c9.55,5.51,14.31,12.74,14.29,20l0-1c-.05-.44-.12-1-.19-1.46l-.23-1.07c-.14-.47-.33-1.1-.49-1.57l-.49-1.16c-.27-.54-.65-1.27-.95-1.8L127,51.1c-.53-.69-1.25-1.6-1.82-2.25l-1.49-1.51a37.24,37.24,0,0,0-7-5.12L114,40.78c-1-.47-2.35-1.11-3.37-1.54L107.53,38c-1.06-.34-2.47-.82-3.55-1.13L100.51,36c-1.1-.24-2.58-.57-3.69-.78l-3.69-.58c-1.14-.13-2.65-.33-3.79-.43L85.54,34c-1.15,0-2.68-.09-3.83-.09L77.89,34c-1.14.07-2.66.15-3.8.25l-3.74.42c-1.12.18-2.61.39-3.73.59L63.07,36c-1.08.28-2.52.63-3.59.94l-3.25,1c-1,.39-2.4.88-3.41,1.3L50,40.52c-1,.5-2.25,1.15-3.19,1.69l-2.17,1.35a34.24,34.24,0,0,0-6,5l-1.09,1.27c-.5.67-1.15,1.57-1.61,2.27l-.65,1.16c-.25.53-.58,1.25-.81,1.8l-.36,1.07c-.12.46-.28,1.09-.38,1.56l-.15,1c0,.44-.07,1-.08,1.46,0-.13,0-.27,0-.4"/><path class="cls-15" d="M33.88,57C39,39.8,67.79,29.49,98.15,34A60.45,60.45,0,0,1,116,40.52c9.55,5.51,14.31,12.74,14.29,20l0-1c-.05-.44-.12-1-.19-1.46l-.23-1.07c-.14-.47-.33-1.1-.49-1.57l-.49-1.16c-.27-.54-.65-1.27-.95-1.8L127,51.1c-.53-.69-1.25-1.6-1.82-2.25l-1.49-1.51a37.24,37.24,0,0,0-7-5.12L114,40.78c-1-.47-2.35-1.11-3.37-1.54L107.53,38c-1.06-.34-2.47-.82-3.55-1.13L100.51,36c-1.1-.24-2.58-.57-3.69-.78l-3.69-.58c-1.14-.13-2.65-.33-3.79-.43L85.54,34c-1.15,0-2.68-.09-3.83-.09L77.89,34c-1.14.07-2.66.15-3.8.25l-3.74.42c-1.12.18-2.61.39-3.73.59L63.07,36c-1.08.28-2.52.63-3.59.94l-3.25,1c-1,.39-2.4.88-3.41,1.3L50,40.52c-1,.5-2.25,1.15-3.19,1.69l-2.17,1.35a34.24,34.24,0,0,0-6,5l-1.09,1.27c-.5.67-1.15,1.57-1.61,2.27l-.65,1.16c-.25.53-.58,1.25-.81,1.8l-.36,1.07c-.12.46-.28,1.09-.38,1.56l.17-.77"/><path class="cls-16" d="M34.6,54.72c6.65-14.79,34.8-26.45,68.68-19.49A56.91,56.91,0,0,1,116,40.52c9.55,5.51,14.31,12.74,14.29,20l0-1c-.05-.44-.12-1-.19-1.46l-.23-1.07c-.14-.47-.33-1.1-.49-1.57l-.49-1.16c-.27-.54-.65-1.27-.95-1.8L127,51.1c-.53-.69-1.25-1.6-1.82-2.25l-1.49-1.51a37.24,37.24,0,0,0-7-5.12L114,40.78c-1-.47-2.35-1.11-3.37-1.54L107.53,38c-1.06-.34-2.47-.82-3.55-1.13L100.51,36c-1.1-.24-2.58-.57-3.69-.78l-3.69-.58c-1.14-.13-2.65-.33-3.79-.43L85.54,34c-1.15,0-2.68-.09-3.83-.09L77.89,34c-1.14.07-2.66.15-3.8.25l-3.74.42c-1.12.18-2.61.39-3.73.59L63.07,36c-1.08.28-2.52.63-3.59.94l-3.25,1c-1,.39-2.4.88-3.41,1.3L50,40.52c-1,.5-2.25,1.15-3.19,1.69l-2.17,1.35a34.24,34.24,0,0,0-6,5l-1.09,1.27c-.5.67-1.15,1.57-1.61,2.27l-.65,1.16c-.25.53-.58,1.25-.81,1.8l-.23.66c.12-.32.26-.74.38-1"/><path class="cls-17" d="M36.49,51.25c10.15-14.17,40.84-23.55,72.71-14A51.92,51.92,0,0,1,116,40.52c9.55,5.51,14.31,12.74,14.29,20l0-1c-.05-.44-.12-1-.19-1.46l-.23-1.07c-.14-.47-.33-1.1-.49-1.57l-.49-1.16c-.27-.54-.65-1.27-.95-1.8L127,51.1c-.53-.69-1.25-1.6-1.82-2.25l-1.49-1.51a37.24,37.24,0,0,0-7-5.12L114,40.78c-1-.47-2.35-1.11-3.37-1.54L107.53,38c-1.06-.34-2.47-.82-3.55-1.13L100.51,36c-1.1-.24-2.58-.57-3.69-.78l-3.69-.58c-1.14-.13-2.65-.33-3.79-.43L85.54,34c-1.15,0-2.68-.09-3.83-.09L77.89,34c-1.14.07-2.66.15-3.8.25l-3.74.42c-1.12.18-2.61.39-3.73.59L63.07,36c-1.08.28-2.52.63-3.59.94l-3.25,1c-1,.39-2.4.88-3.41,1.3L50,40.52c-1,.5-2.25,1.15-3.19,1.69l-2.17,1.35a34.24,34.24,0,0,0-6,5l-1.09,1.27c-.5.67-1.15,1.57-1.61,2.27l-.3.53c.26-.43.6-1,.88-1.42"/></g></g></g><g class="cls-2"><g class="cls-18"><g class="cls-2"><path class="cls-17" d="M130.28,59.77v.71c0-7.22-4.74-14.45-14.29-20a52.29,52.29,0,0,0-7-3.35v-.71a52.29,52.29,0,0,1,7,3.35c9.55,5.51,14.31,12.74,14.29,20"/><path class="cls-16" d="M109,36.46v.71c-1.89-.74-3.86-1.41-5.88-2v-.71a61.27,61.27,0,0,1,5.87,2"/><path class="cls-15" d="M103.14,34.48v.71q-2.47-.7-5-1.24v-.71c1.71.35,3.4.77,5,1.24"/><path class="cls-14" d="M98.09,33.24V34c-1.58-.32-3.19-.6-4.8-.83V32.4q2.43.35,4.8.84"/><path class="cls-13" d="M93.29,32.4v.72c-1.56-.22-3.13-.4-4.71-.53v-.71c1.58.13,3.15.3,4.71.52"/><path class="cls-12" d="M88.58,31.88v.71c-1.58-.13-3.17-.21-4.77-.25v-.72c1.59,0,3.18.13,4.76.26"/><path class="cls-11" d="M83.82,31.62v.72c-1.65,0-3.3,0-5,0v-.71c1.65-.06,3.31-.07,5,0"/><path class="cls-10" d="M78.86,31.65v.71q-2.7.09-5.37.36V32c1.78-.17,3.57-.29,5.37-.35"/><path class="cls-9" d="M73.49,32v.72q-3.12.3-6.17.86v-.72q3-.54,6.17-.86"/><path class="cls-8" d="M67.32,32.86v.72a70.07,70.07,0,0,0-9.16,2.28v-.72a70.47,70.47,0,0,1,9.16-2.28"/><path class="cls-19" d="M58.16,35.14v.72a54.78,54.78,0,0,0-10.61,4.66l-.59.35v-.71l.59-.35a54.8,54.8,0,0,1,10.61-4.67"/><path class="cls-8" d="M47,40.16v.71a37.8,37.8,0,0,0-6.13,4.54V44.7A37.08,37.08,0,0,1,47,40.16"/><path class="cls-9" d="M40.83,44.7v.71a27.23,27.23,0,0,0-3,3.23v-.72a28,28,0,0,1,3-3.22"/><path class="cls-10" d="M37.83,47.92v.72a21.56,21.56,0,0,0-1.95,2.89v-.71a22.31,22.31,0,0,1,1.95-2.9"/><path class="cls-11" d="M35.88,50.82v.71a20.65,20.65,0,0,0-1.29,2.75v-.71a19.54,19.54,0,0,1,1.29-2.75"/><path class="cls-12" d="M34.59,53.57v.71A16.89,16.89,0,0,0,33.81,57v-.72a17.08,17.08,0,0,1,.78-2.72"/><path class="cls-13" d="M33.81,56.29V57a16.33,16.33,0,0,0-.32,2.78v-.72a16.45,16.45,0,0,1,.32-2.78"/><path class="cls-14" d="M33.49,59.07v.72c0,.14,0,.28,0,.42V59.5c0-.14,0-.29,0-.43"/></g></g></g><g class="cls-2"><g class="cls-20"><g class="cls-2"><path class="cls-21" d="M47,77.76a64.14,64.14,0,0,0,23.59,7.58A84.27,84.27,0,0,0,100.7,84c7.35-1.57,16-5.38,20.47-9.05,5.21-4.23,8.75-8.4,9.11-15,0-7.41-4.74-14.64-14.29-20.15-19-11-49.6-11-68.44,0-9.36,5.44-14,12.56-14.07,19.69C33.81,69,42.12,75,47,77.76a1.47,1.47,0,0,0-1.48.13c-20.2-11.66-20.3-30.56-.24-42.23s52.7-11.66,72.9,0,20.31,30.57.24,42.23-52.7,11.66-72.9,0A1.47,1.47,0,0,1,47,77.76"/><path class="cls-21" d="M45.83,77.76c-1.78-.16-25.46-17.26-4.11-34.59C69,21,137.78,28.24,133.11,59.59c-1.93,12.92-18,22-32.13,24.91-30.41,6.33-50.23-4-52.38-5.21-.83-.46-1.83-1.45-2.77-1.53a1.32,1.32,0,0,1,1.21,0l2.68,1.44c1,.47,2.35,1.1,3.37,1.53l3.14,1.21c1.06.34,2.48.82,3.55,1.13l3.47.91c1.11.23,2.58.57,3.69.77l3.69.59c1.14.13,2.65.32,3.79.43l3.8.25c1.15,0,2.68.08,3.83.08L85.87,86c1.14-.08,2.67-.15,3.81-.26l3.74-.41c1.12-.18,2.61-.39,3.72-.6L100.7,84c1.07-.28,2.52-.63,3.59-.94l3.25-1c1-.38,2.39-.88,3.4-1.3l2.83-1.27c1-.5,2.25-1.16,3.19-1.7l2.21-1.37a36.69,36.69,0,0,0,4.72-3.73l1.28-1.3c.63-.73,1.44-1.73,2-2.5l.77-1.19c.31-.56.72-1.33,1-1.91l.44-1.09c.16-.48.36-1.13.49-1.62l.21-1a14,14,0,0,0,.19-2.25c0-7.22-4.74-14.45-14.29-20-19-11-49.6-11-68.44,0-9.36,5.44-14,12.56-14.07,19.69l0,1a14.61,14.61,0,0,0,.37,2.33L34.2,64c.18.49.42,1.15.63,1.63l.59,1.2c.35.59.81,1.36,1.19,1.93l1,1.35c.68.77,1.6,1.77,2.33,2.5l1.71,1.51A42,42,0,0,0,47,77.76a1.32,1.32,0,0,0-1.21,0"/><path class="cls-22" d="M46.06,77.67C42.64,77.15,20,58.62,43.53,42,75.14,19.56,137,31.75,133,59.59c-1.86,12.88-17.9,21.91-32,24.85A86.93,86.93,0,0,1,72,85.91c-3.8-.46-15.36-1.89-25.89-8.18l-.09-.06a1.25,1.25,0,0,1,1,.09l2.68,1.44c1,.47,2.35,1.1,3.37,1.53l3.14,1.21c1.06.34,2.48.82,3.55,1.13l3.47.91c1.11.23,2.58.57,3.69.77l3.69.59c1.14.13,2.65.32,3.79.43l3.8.25c1.15,0,2.68.08,3.83.08L85.87,86c1.14-.08,2.67-.15,3.81-.26l3.74-.41c1.12-.18,2.61-.39,3.72-.6L100.7,84c1.07-.28,2.52-.63,3.59-.94l3.25-1c1-.38,2.39-.88,3.4-1.3l2.83-1.27c1-.5,2.25-1.16,3.19-1.7l2.21-1.37a36.69,36.69,0,0,0,4.72-3.73l1.28-1.3c.63-.73,1.44-1.73,2-2.5l.77-1.19c.31-.56.72-1.33,1-1.91l.44-1.09c.16-.48.36-1.13.49-1.62l.21-1a14,14,0,0,0,.19-2.25c0-7.22-4.74-14.45-14.29-20-19-11-49.6-11-68.44,0-9.36,5.44-14,12.56-14.07,19.69l0,1a14.61,14.61,0,0,0,.37,2.33L34.2,64c.18.49.42,1.15.63,1.63l.59,1.2c.35.59.81,1.36,1.19,1.93l1,1.35c.68.77,1.6,1.77,2.33,2.5l1.71,1.51A42,42,0,0,0,47,77.76a1.25,1.25,0,0,0-1-.09"/><path class="cls-4" d="M46.25,77.63c-4-.85-27.92-20.33.16-37.43,33.77-20.57,93.24-5.81,86,21.34C130.09,70.2,119.61,81,97.14,85.14a88,88,0,0,1-28.86.16c-1.25-.18-12.42-2-21.7-7.48-.1,0-.22-.17-.33-.19a1.22,1.22,0,0,1,.79.13l2.68,1.44c1,.47,2.35,1.1,3.37,1.53l3.14,1.21c1.06.34,2.48.82,3.55,1.13l3.47.91c1.11.23,2.58.57,3.69.77l3.69.59c1.14.13,2.65.32,3.79.43l3.8.25c1.15,0,2.68.08,3.83.08L85.87,86c1.14-.08,2.67-.15,3.81-.26l3.74-.41c1.12-.18,2.61-.39,3.72-.6L100.7,84c1.07-.28,2.52-.63,3.59-.94l3.25-1c1-.38,2.39-.88,3.4-1.3l2.83-1.27c1-.5,2.25-1.16,3.19-1.7l2.21-1.37a36.69,36.69,0,0,0,4.72-3.73l1.28-1.3c.63-.73,1.44-1.73,2-2.5l.77-1.19c.31-.56.72-1.33,1-1.91l.44-1.09c.16-.48.36-1.13.49-1.62l.21-1a14,14,0,0,0,.19-2.25c0-7.22-4.74-14.45-14.29-20-19-11-49.6-11-68.44,0-9.36,5.44-14,12.56-14.07,19.69l0,1a14.61,14.61,0,0,0,.37,2.33L34.2,64c.18.49.42,1.15.63,1.63l.59,1.2c.35.59.81,1.36,1.19,1.93l1,1.35c.68.77,1.6,1.77,2.33,2.5l1.71,1.51A42,42,0,0,0,47,77.76a1.22,1.22,0,0,0-.79-.13"/><path class="cls-19" d="M46.4,77.62C19.75,60.47,36,39,67.22,32.6c41.06-8.39,77.57,12.45,62,35.39-12.06,17.78-54.4,25.65-82.84,9.63a1.06,1.06,0,0,1,.64.14l2.68,1.44c1,.47,2.35,1.1,3.37,1.53l3.14,1.21c1.06.34,2.48.82,3.55,1.13l3.47.91c1.11.23,2.58.57,3.69.77l3.69.59c1.14.13,2.65.32,3.79.43l3.8.25c1.15,0,2.68.08,3.83.08L85.87,86c1.14-.08,2.67-.15,3.81-.26l3.74-.41c1.12-.18,2.61-.39,3.72-.6L100.7,84c1.07-.28,2.52-.63,3.59-.94l3.25-1c1-.38,2.39-.88,3.4-1.3l2.83-1.27c1-.5,2.25-1.16,3.19-1.7l2.21-1.37a36.69,36.69,0,0,0,4.72-3.73l1.28-1.3c.63-.73,1.44-1.73,2-2.5l.77-1.19c.31-.56.72-1.33,1-1.91l.44-1.09c.16-.48.36-1.13.49-1.62l.21-1a14,14,0,0,0,.19-2.25c0-7.22-4.74-14.45-14.29-20-19-11-49.6-11-68.44,0-9.36,5.44-14,12.56-14.07,19.69l0,1a14.61,14.61,0,0,0,.37,2.33L34.2,64c.18.49.42,1.15.63,1.63l.59,1.2c.35.59.81,1.36,1.19,1.93l1,1.35c.68.77,1.6,1.77,2.33,2.5l1.71,1.51A42,42,0,0,0,47,77.76a1.06,1.06,0,0,0-.64-.14"/><path class="cls-8" d="M60.72,34.35c40.08-11.74,82.48,7.29,69.79,31.33-11.07,21-57.38,27.56-84,11.94a1.2,1.2,0,0,1,.5.14l2.68,1.44c1,.47,2.35,1.1,3.37,1.53l3.14,1.21c1.06.34,2.48.82,3.55,1.13l3.47.91c1.11.23,2.58.57,3.69.77l3.69.59c1.14.13,2.65.32,3.79.43l3.8.25c1.15,0,2.68.08,3.83.08L85.87,86c1.14-.08,2.67-.15,3.81-.26l3.74-.41c1.12-.18,2.61-.39,3.72-.6L100.7,84c1.07-.28,2.52-.63,3.59-.94l3.25-1c1-.38,2.39-.88,3.4-1.3l2.83-1.27c1-.5,2.25-1.16,3.19-1.7l2.21-1.37a36.69,36.69,0,0,0,4.72-3.73l1.28-1.3c.63-.73,1.44-1.73,2-2.5l.77-1.19c.31-.56.72-1.33,1-1.91l.44-1.09c.16-.48.36-1.13.49-1.62l.21-1a14,14,0,0,0,.19-2.25c0-7.22-4.74-14.45-14.29-20-15.87-9.17-39.94-10.66-58.4-4.48h0c.93-.29,2.18-.71,3.13-1"/><path class="cls-9" d="M74,31.8c43.74-5.34,69.79,18.35,53.76,37.84-14.91,18.14-56.58,22.25-81.07,8l3,1.57c1,.47,2.35,1.1,3.37,1.53l3.14,1.21c1.06.34,2.48.82,3.55,1.13l3.47.91c1.11.23,2.58.57,3.69.77l3.69.59c1.14.13,2.65.32,3.79.43l3.8.25c1.15,0,2.68.08,3.83.08L85.87,86c1.14-.08,2.67-.15,3.81-.26l3.74-.41c1.12-.18,2.61-.39,3.72-.6L100.7,84c1.07-.28,2.52-.63,3.59-.94l3.25-1c1-.38,2.39-.88,3.4-1.3l2.83-1.27c1-.5,2.25-1.16,3.19-1.7l2.21-1.37a36.69,36.69,0,0,0,4.72-3.73l1.28-1.3c.63-.73,1.44-1.73,2-2.5l.77-1.19c.31-.56.72-1.33,1-1.91l.44-1.09c.16-.48.36-1.13.49-1.62l.21-1a14,14,0,0,0,.19-2.25c0-7.22-4.74-14.45-14.29-20-13.2-7.62-32.06-9.94-48.66-7h0C69.31,32.5,72,32,74,31.8"/><path class="cls-10" d="M74,32C118.08,27,143.6,50.2,127.63,69.64c-14.83,18-56.38,22.17-80.84,8l2.93,1.54c1,.47,2.35,1.1,3.37,1.53l3.14,1.21c1.06.34,2.48.82,3.55,1.13l3.47.91c1.11.23,2.58.57,3.69.77l3.69.59c1.14.13,2.65.32,3.79.43l3.8.25c1.15,0,2.68.08,3.83.08L85.87,86c1.14-.08,2.67-.15,3.81-.26l3.74-.41c1.12-.18,2.61-.39,3.72-.6L100.7,84c1.07-.28,2.52-.63,3.59-.94l3.25-1c1-.38,2.39-.88,3.4-1.3l2.83-1.27c1-.5,2.25-1.16,3.19-1.7l2.21-1.37a36.69,36.69,0,0,0,4.72-3.73l1.28-1.3c.63-.73,1.44-1.73,2-2.5l.77-1.19c.31-.56.72-1.33,1-1.91l.44-1.09c.16-.48.36-1.13.49-1.62l.21-1a14,14,0,0,0,.19-2.25c0-7.22-4.74-14.45-14.29-20-11.59-6.7-27.55-9.3-42.51-7.8h0L74,32"/><path class="cls-11" d="M80.86,31.54c42.33-1.72,62.52,22.08,44.82,40.13-14.67,15-52.28,20.86-78.77,6l2.81,1.5c1,.47,2.35,1.1,3.37,1.53l3.14,1.21c1.06.34,2.48.82,3.55,1.13l3.47.91c1.11.23,2.58.57,3.69.77l3.69.59c1.14.13,2.65.32,3.79.43l3.8.25c1.15,0,2.68.08,3.83.08L85.87,86c1.14-.08,2.67-.15,3.81-.26l3.74-.41c1.12-.18,2.61-.39,3.72-.6L100.7,84c1.07-.28,2.52-.63,3.59-.94l3.25-1c1-.38,2.39-.88,3.4-1.3l2.83-1.27c1-.5,2.25-1.16,3.19-1.7l2.21-1.37a36.69,36.69,0,0,0,4.72-3.73l1.28-1.3c.63-.73,1.44-1.73,2-2.5l.77-1.19c.31-.56.72-1.33,1-1.91l.44-1.09c.16-.48.36-1.13.49-1.62l.21-1a14,14,0,0,0,.19-2.25c0-7.22-4.74-14.45-14.29-20-10.23-5.91-23.86-8.63-37.2-8.16h0c.62,0,1.45-.09,2.07-.11"/><path class="cls-12" d="M87.77,31.67c40.92,1.58,55.19,25.21,36,41.7C106.09,88.51,69.52,90.6,47,77.76l2.69,1.44c1,.47,2.35,1.1,3.37,1.53l3.14,1.21c1.06.34,2.48.82,3.55,1.13l3.47.91c1.11.23,2.58.57,3.69.77l3.69.59c1.14.13,2.65.32,3.79.43l3.8.25c1.15,0,2.68.08,3.83.08L85.87,86c1.14-.08,2.67-.15,3.81-.26l3.74-.41c1.12-.18,2.61-.39,3.72-.6L100.7,84c1.07-.28,2.52-.63,3.59-.94l3.25-1c1-.38,2.39-.88,3.4-1.3l2.83-1.27c1-.5,2.25-1.16,3.19-1.7l2.21-1.37a36.69,36.69,0,0,0,4.72-3.73l1.28-1.3c.63-.73,1.44-1.73,2-2.5l.77-1.19c.31-.56.72-1.33,1-1.91l.44-1.09c.16-.48.36-1.13.49-1.62l.21-1a14,14,0,0,0,.19-2.25c0-7.22-4.74-14.45-14.29-20-8.95-5.17-20.51-7.9-32.2-8.19h0c1.19,0,2.78,0,4,.05"/><path class="cls-13" d="M94.57,32.34c36,4,46.25,26.29,29.05,41C109,86,79.61,89.8,56.83,82.14c1.91.61,4.48,1.33,6.42,1.84,1.11.23,2.58.57,3.69.77l3.69.59c1.14.13,2.65.32,3.79.43l3.8.25c1.15,0,2.68.08,3.83.08L85.87,86c1.14-.08,2.67-.15,3.81-.26l3.74-.41c1.12-.18,2.61-.39,3.72-.6L100.7,84c1.07-.28,2.52-.63,3.59-.94l3.25-1c1-.38,2.39-.88,3.4-1.3l2.83-1.27c1-.5,2.25-1.16,3.19-1.7l2.21-1.37a36.69,36.69,0,0,0,4.72-3.73l1.28-1.3c.63-.73,1.44-1.73,2-2.5l.77-1.19c.31-.56.72-1.33,1-1.91l.44-1.09c.16-.48.36-1.13.49-1.62l.21-1a14,14,0,0,0,.19-2.25c0-7.22-4.74-14.45-14.29-20-7.72-4.46-17.38-7.11-27.4-7.93h0c1.8.11,4.19.27,6,.46"/><path class="cls-14" d="M94.57,32.54c37.68,4.48,46.9,27.87,26.55,42.72-4.57,3.34-21.81,13.91-51.9,9.88l3.73.48,1.47.15,3.8.25c1.15,0,2.68.08,3.83.08L85.87,86c1.14-.08,2.67-.15,3.81-.26l3.74-.41c1.12-.18,2.61-.39,3.72-.6L100.7,84c1.07-.28,2.52-.63,3.59-.94l3.25-1c1-.38,2.39-.88,3.4-1.3l2.83-1.27c1-.5,2.25-1.16,3.19-1.7l2.21-1.37a36.69,36.69,0,0,0,4.72-3.73l1.28-1.3c.63-.73,1.44-1.73,2-2.5l.77-1.19c.31-.56.72-1.33,1-1.91l.44-1.09c.16-.48.36-1.13.49-1.62l.21-1a14,14,0,0,0,.19-2.25c0-7.22-4.74-14.45-14.29-20a63.31,63.31,0,0,0-22.69-7.4h0l1.27.13"/><path class="cls-15" d="M101.17,33.8c34.78,7.31,38.72,29.76,17.55,43C105,85.41,88.49,85.93,83.06,86.1L86.88,86l2.8-.21,3.74-.41c1.12-.18,2.61-.39,3.72-.6L100.7,84c1.07-.28,2.52-.63,3.59-.94l3.25-1c1-.38,2.39-.88,3.4-1.3l2.83-1.27c1-.5,2.25-1.16,3.19-1.7l2.21-1.37a36.69,36.69,0,0,0,4.72-3.73l1.28-1.3c.63-.73,1.44-1.73,2-2.5l.77-1.19c.31-.56.72-1.33,1-1.91l.44-1.09c.16-.48.36-1.13.49-1.62l.21-1a14,14,0,0,0,.19-2.25c0-7.22-4.74-14.45-14.29-20a60.46,60.46,0,0,0-17.84-6.56h0c.91.17,2.12.36,3,.55"/><path class="cls-23" d="M33.5,66.72c-14.17-21.21,22.09-47.1,65.69-38A53.59,53.59,0,0,1,115,34.35C67.92,21.17,21.4,42,36,69.65a26.69,26.69,0,0,1-2.5-2.93"/><path class="cls-16" d="M107.44,35.64c31,9.57,29.83,31.29,8.23,42.88A66.67,66.67,0,0,1,96.9,84.8l3.8-.79c1.07-.28,2.52-.63,3.59-.94l3.25-1c1-.38,2.39-.88,3.4-1.3l2.83-1.27c1-.5,2.25-1.16,3.19-1.7l2.21-1.37a36.69,36.69,0,0,0,4.72-3.73l1.28-1.3c.63-.73,1.44-1.73,2-2.5l.77-1.19c.31-.56.72-1.33,1-1.91l.44-1.09c.16-.48.36-1.13.49-1.62l.21-1a14,14,0,0,0,.19-2.25c0-7.22-4.74-14.45-14.29-20a56.45,56.45,0,0,0-12.71-5.29h0c1.25.32,2.93.74,4.16,1.12"/><path class="cls-17" d="M113.28,38.12c25.16,11,23.5,31.56-3.48,43.08,1.21-.49,2.79-1.21,4-1.74,1-.5,2.25-1.16,3.19-1.7l2.21-1.37a36.69,36.69,0,0,0,4.72-3.73l1.28-1.3c.63-.73,1.44-1.73,2-2.5l.77-1.19c.31-.56.72-1.33,1-1.91l.44-1.09c.16-.48.36-1.13.49-1.62l.21-1a14,14,0,0,0,.19-2.25c0-7.22-4.74-14.45-14.29-20a52.63,52.63,0,0,0-6.79-3.28h0c1.23.46,2.88,1.06,4.08,1.59"/><path class="cls-24" d="M32.07,63.17c-10.38-18.85,26.56-45.29,70.19-33.5a15.59,15.59,0,0,1,4.85,1.89c-50.94-6.63-78,12-73.94,33.05a13.26,13.26,0,0,1-1.1-1.44"/><path class="cls-25" d="M31.1,58.42C27.43,37,69,20.25,101.62,30c-9.22.89-18.48-.75-27.69.5a80.35,80.35,0,0,0-22.58,6.33c-4.53,2-10.71,5.85-14.47,10.55a19.62,19.62,0,0,0-4.72,12.38,3.06,3.06,0,0,1-.28,1.37,21.32,21.32,0,0,1-.78-2.7"/><path class="cls-6" d="M31.34,57.31C30.06,54,32.21,41.58,50.19,33.5c22-9.9,44.77-4.9,45-4.83a3.06,3.06,0,0,1,.88.6c-27.59-.73-58.93,6.38-64.19,28.54-.15-.15-.42-.3-.5-.5"/><path class="cls-26" d="M31.76,54.41C30.13,37,68.8,22.76,91.19,28.56c-7.78,1.34-15.74,1.08-23.5,2.62a79.53,79.53,0,0,0-16.41,5.31C38.54,42.21,35,49.1,31.89,55.18c0-.23-.11-.54-.13-.77"/><path class="cls-27" d="M32.8,50.25c3.8-14.1,30.35-25,53.61-22-4.52,1.19-9.21,1.09-13.78,1.85a82.64,82.64,0,0,0-21.39,6.28A44.45,44.45,0,0,0,36.41,47c-1.44,1.66-2.19,3.83-3.94,5.24.09-.59.18-1.4.33-2"/><path class="cls-28" d="M35,46.25c5.59-9.58,23.14-18.9,45.86-18.18,0,.12-.06.33-.17.41L76,29.24C62,31.32,55,34.45,51.18,36.13c-4.59,2-11,6-15.22,11l-1.8,2.12c-.15.05-.43,0-.5-.1-.46-.83.83-2.06,1.31-2.88"/><path class="cls-8" d="M46.54,77.62c-6.7-2.1-26.57-21.53.83-37.71C38.13,45.34,33.5,52.41,33.48,59.5l0,1a14.61,14.61,0,0,0,.37,2.33L34.2,64c.18.49.42,1.15.63,1.63l.59,1.2c.35.59.81,1.36,1.19,1.93l1,1.35c.68.77,1.6,1.77,2.33,2.5l1.71,1.51A42,42,0,0,0,47,77.76a1.2,1.2,0,0,0-.5-.14"/><path class="cls-9" d="M46.67,77.63c-3.48-1.33-24.32-15.81-5.73-33-5,4.53-7.44,9.71-7.46,14.9l0,1a14.61,14.61,0,0,0,.37,2.33L34.2,64c.18.49.42,1.15.63,1.63l.59,1.2c.35.59.81,1.36,1.19,1.93l1,1.35c.68.77,1.6,1.77,2.33,2.5l1.71,1.51A42,42,0,0,0,47,77.76a1.16,1.16,0,0,0-.37-.13"/><path class="cls-10" d="M46.79,77.66c-.23-.11-22.67-12-8.91-29.8a18.81,18.81,0,0,0-4.4,11.64l0,1a14.61,14.61,0,0,0,.37,2.33L34.2,64c.18.49.42,1.15.63,1.63l.59,1.2c.35.59.81,1.36,1.19,1.93l1,1.35c.68.77,1.6,1.77,2.33,2.5l1.71,1.51A42,42,0,0,0,47,77.76a1.09,1.09,0,0,0-.25-.1"/><path class="cls-29" d="M35.73,45.72c3.13-9.46,33.35-19.67,39.87-17-11.77,2.38-27.89,5.65-39.9,17.86a3,3,0,0,1,0-.9"/><path class="cls-11" d="M46.91,77.7c-.2-.11-20.44-10.73-11-26.92a17.73,17.73,0,0,0-2.42,8.72l0,1a14.61,14.61,0,0,0,.37,2.33L34.2,64c.18.49.42,1.15.63,1.63l.59,1.2c.35.59.81,1.36,1.19,1.93l1,1.35c.68.77,1.6,1.77,2.33,2.5l1.71,1.51A42,42,0,0,0,47,77.76l-.13-.06"/><path class="cls-12" d="M34.39,64.51a15.22,15.22,0,0,1,.2-10.94,17.1,17.1,0,0,0-1.11,5.93l0,1a14.61,14.61,0,0,0,.37,2.33L34.2,64l.34.95-.15-.4"/><path class="cls-12" d="M47,77.76,45.73,77l1.31.78h0"/><path class="cls-13" d="M33.54,60.79a15.09,15.09,0,0,1,.27-4.5,17.48,17.48,0,0,0-.33,3.21l0,1c0,.4.1.94.16,1.34l-.14-1.08"/><path class="cls-30" d="M38.56,42.78c3.69-5.85,20.14-13.69,31.3-13.4C56,33.19,49.44,35.23,38.15,43.57c.13-.24.27-.57.41-.79"/><path class="cls-14" d="M33.49,59.1c0,.13,0,.26,0,.4v-.4"/><path class="cls-31" d="M42.82,39.36C50.21,33,60.47,31.1,62.45,30.8c-11.18,4.15-12.72,4.94-20.11,9,.15-.14.33-.33.48-.46"/></g></g></g><path class="cls-6" d="M126.14,31.07c24.59,14.19,24.72,37.22.28,51.42s-64.18,14.2-88.77,0-24.73-37.22-.29-51.42S101.55,16.87,126.14,31.07ZM45.56,77.89c20.2,11.66,52.83,11.66,72.9,0s20-30.56-.24-42.23-52.83-11.66-72.9,0-20,30.57.24,42.23"/><g class="cls-2"><g class="cls-32"><g class="cls-2"><path class="cls-8" d="M147.81,60.53c-.51,12.65-7.75,19.82-15.5,25.68-1.81,1.38-7.06,4.94-16.65,8.43a97.65,97.65,0,0,1-18.8,4.47c-23.47,3.61-56.95-2-72.75-19.5C16.09,70.72,16,62.77,16,60.16c0,9.84,6.47,19.69,19.46,27.19,25.83,14.91,67.57,14.91,93.24,0,12.75-7.41,19.13-17.11,19.16-26.82"/><path class="cls-8" d="M35.41,87.35C57,99.83,89.82,101.87,115,93.44L119.09,92a69.38,69.38,0,0,0,9.8-4.77c12.59-7.39,18.89-17,18.92-26.67h0a26.45,26.45,0,0,1-.42,4.47L147,66.87c-.24.82-.58,1.91-.86,2.71l-.82,1.93c-.46.89-1.08,2.08-1.59,2.95l-1.34,2c-.82,1-1.94,2.44-2.82,3.45l-2.16,2.17A54,54,0,0,1,127.91,89L124.31,91c-1.35.63-3.15,1.49-4.52,2.07l-4.13,1.59c-1.41.45-3.27,1.09-4.68,1.5l-4.53,1.19c-1.44.31-3.36.74-4.81,1l-4.78.77c-1.47.16-3.43.41-4.91.55L87,100c-1.48,0-3.46.1-5,.1l-4.94-.1c-1.48-.1-3.46-.2-4.93-.33l-4.86-.55c-1.45-.23-3.4-.5-4.84-.77l-4.66-1c-1.41-.36-3.3-.82-4.7-1.22l-4.32-1.37c-1.36-.52-3.18-1.17-4.53-1.73l-3.83-1.72c-1.3-.68-3-1.56-4.33-2.29l-3-1.88a48.73,48.73,0,0,1-9-7.55l-1.66-2c-.77-1-1.77-2.46-2.47-3.55l-1.05-1.89c-.42-.89-1-2.09-1.33-3L17,67.37c-.21-.82-.48-1.91-.64-2.74l-.26-1.84C16,62,16,61,16,60.16c0,9.84,6.47,19.69,19.46,27.19"/><path class="cls-9" d="M35.41,87.35c18,10.38,43.69,13.53,66.3,9.46l.14,0c7.53-1.46,23.22-4.5,35.81-16,6.75-6.17,10.13-13.23,10.15-20.29h0a26.45,26.45,0,0,1-.42,4.47L147,66.87c-.24.82-.58,1.91-.86,2.71l-.82,1.93c-.46.89-1.08,2.08-1.59,2.95l-1.34,2c-.82,1-1.94,2.44-2.82,3.45l-2.16,2.17A54,54,0,0,1,127.91,89L124.31,91c-1.35.63-3.15,1.49-4.52,2.07l-4.13,1.59c-1.41.45-3.27,1.09-4.68,1.5l-4.53,1.19c-1.44.31-3.36.74-4.81,1l-4.78.77c-1.47.16-3.43.41-4.91.55L87,100c-1.48,0-3.46.1-5,.1l-4.94-.1c-1.48-.1-3.46-.2-4.93-.33l-4.86-.55c-1.45-.23-3.4-.5-4.84-.77l-4.66-1c-1.41-.36-3.3-.82-4.7-1.22l-4.32-1.37c-1.36-.52-3.18-1.17-4.53-1.73l-3.83-1.72c-1.3-.68-3-1.56-4.33-2.29l-3-1.88a48.73,48.73,0,0,1-9-7.55l-1.66-2c-.77-1-1.77-2.46-2.47-3.55l-1.05-1.89c-.42-.89-1-2.09-1.33-3L17,67.37c-.21-.82-.48-1.91-.64-2.74l-.26-1.84C16,62,16,61,16,60.16c0,9.84,6.47,19.69,19.46,27.19"/><path class="cls-10" d="M35.41,87.35C51.21,96.47,73,100,93.33,98L98,97.49C123.46,93.8,135.89,84,141.82,76.38a25.56,25.56,0,0,0,6-15.85l-.08,1.85c-.09.79-.21,1.84-.34,2.62L147,66.87c-.24.82-.58,1.91-.86,2.71l-.82,1.93c-.46.89-1.08,2.08-1.59,2.95l-1.34,2c-.82,1-1.94,2.44-2.82,3.45l-2.16,2.17A54,54,0,0,1,127.91,89L124.31,91c-1.35.63-3.15,1.49-4.52,2.07l-4.13,1.59c-1.41.45-3.27,1.09-4.68,1.5l-4.53,1.19c-1.44.31-3.36.74-4.81,1l-4.78.77c-1.47.16-3.43.41-4.91.55L87,100c-1.48,0-3.46.1-5,.1l-4.94-.1c-1.48-.1-3.46-.2-4.93-.33l-4.86-.55c-1.45-.23-3.4-.5-4.84-.77l-4.66-1c-1.41-.36-3.3-.82-4.7-1.22l-4.32-1.37c-1.36-.52-3.18-1.17-4.53-1.73l-3.83-1.72c-1.3-.68-3-1.56-4.33-2.29l-3-1.88a48.73,48.73,0,0,1-9-7.55l-1.66-2c-.77-1-1.77-2.46-2.47-3.55l-1.05-1.89c-.42-.89-1-2.09-1.33-3L17,67.37c-.21-.82-.48-1.91-.64-2.74l-.26-1.84C16,62,16,61,16,60.16c0,9.84,6.47,19.69,19.46,27.19"/><path class="cls-11" d="M35.41,87.35c13.94,8,32.5,11.75,50.68,11.11l4.53-.14c12-.75,41.3-4.77,53.9-25.92a24.19,24.19,0,0,0,3.29-11.87l-.08,1.85c-.09.79-.21,1.84-.34,2.62L147,66.87c-.24.82-.58,1.91-.86,2.71l-.82,1.93c-.46.89-1.08,2.08-1.59,2.95l-1.34,2c-.82,1-1.94,2.44-2.82,3.45l-2.16,2.17A54,54,0,0,1,127.91,89L124.31,91c-1.35.63-3.15,1.49-4.52,2.07l-4.13,1.59c-1.41.45-3.27,1.09-4.68,1.5l-4.53,1.19c-1.44.31-3.36.74-4.81,1l-4.78.77c-1.47.16-3.43.41-4.91.55L87,100c-1.48,0-3.46.1-5,.1l-4.94-.1c-1.48-.1-3.46-.2-4.93-.33l-4.86-.55c-1.45-.23-3.4-.5-4.84-.77l-4.66-1c-1.41-.36-3.3-.82-4.7-1.22l-4.32-1.37c-1.36-.52-3.18-1.17-4.53-1.73l-3.83-1.72c-1.3-.68-3-1.56-4.33-2.29l-3-1.88a48.73,48.73,0,0,1-9-7.55l-1.66-2c-.77-1-1.77-2.46-2.47-3.55l-1.05-1.89c-.42-.89-1-2.09-1.33-3L17,67.37c-.21-.82-.48-1.91-.64-2.74l-.26-1.84C16,62,16,61,16,60.16c0,9.84,6.47,19.69,19.46,27.19"/><path class="cls-12" d="M35.41,87.35c12.2,7,28,10.76,43.87,11.15l4,.14c38.32-.38,57.9-16.42,63-30a23.11,23.11,0,0,0,1.51-8.08h0a26.45,26.45,0,0,1-.42,4.47L147,66.87c-.24.82-.58,1.91-.86,2.71l-.82,1.93c-.46.89-1.08,2.08-1.59,2.95l-1.34,2c-.82,1-1.94,2.44-2.82,3.45l-2.16,2.17A54,54,0,0,1,127.91,89L124.31,91c-1.35.63-3.15,1.49-4.52,2.07l-4.13,1.59c-1.41.45-3.27,1.09-4.68,1.5l-4.53,1.19c-1.44.31-3.36.74-4.81,1l-4.78.77c-1.47.16-3.43.41-4.91.55L87,100c-1.48,0-3.46.1-5,.1l-4.94-.1c-1.48-.1-3.46-.2-4.93-.33l-4.86-.55c-1.45-.23-3.4-.5-4.84-.77l-4.66-1c-1.41-.36-3.3-.82-4.7-1.22l-4.32-1.37c-1.36-.52-3.18-1.17-4.53-1.73l-3.83-1.72c-1.3-.68-3-1.56-4.33-2.29l-3-1.88a48.73,48.73,0,0,1-9-7.55l-1.66-2c-.77-1-1.77-2.46-2.47-3.55l-1.05-1.89c-.42-.89-1-2.09-1.33-3L17,67.37c-.21-.82-.48-1.91-.64-2.74l-.26-1.84C16,62,16,61,16,60.16c0,9.84,6.47,19.69,19.46,27.19"/><path class="cls-13" d="M35.41,87.35C45.94,93.42,59.1,97,72.74,98.15l1.13.12c37.42,3,68.32-11,73.49-33.37a23.06,23.06,0,0,0,.45-4.37h0a26.45,26.45,0,0,1-.42,4.47L147,66.87c-.24.82-.58,1.91-.86,2.71l-.82,1.93c-.46.89-1.08,2.08-1.59,2.95l-1.34,2c-.82,1-1.94,2.44-2.82,3.45l-2.16,2.17A54,54,0,0,1,127.91,89L124.31,91c-1.35.63-3.15,1.49-4.52,2.07l-4.13,1.59c-1.41.45-3.27,1.09-4.68,1.5l-4.53,1.19c-1.44.31-3.36.74-4.81,1l-4.78.77c-1.47.16-3.43.41-4.91.55L87,100c-1.48,0-3.46.1-5,.1l-4.94-.1c-1.48-.1-3.46-.2-4.93-.33l-4.86-.55c-1.45-.23-3.4-.5-4.84-.77l-4.66-1c-1.41-.36-3.3-.82-4.7-1.22l-4.32-1.37c-1.36-.52-3.18-1.17-4.53-1.73l-3.83-1.72c-1.3-.68-3-1.56-4.33-2.29l-3-1.88a48.73,48.73,0,0,1-9-7.55l-1.66-2c-.77-1-1.77-2.46-2.47-3.55l-1.05-1.89c-.42-.89-1-2.09-1.33-3L17,67.37c-.21-.82-.48-1.91-.64-2.74l-.26-1.84C16,62,16,61,16,60.16c0,9.84,6.47,19.69,19.46,27.19"/><path class="cls-14" d="M35.41,87.35c8.87,5.11,19.6,8.48,30.92,10.08l4,.63c40.44,4.84,76.61-12.45,77.42-37l-.07,1.3c-.09.79-.21,1.84-.34,2.62L147,66.87c-.24.82-.58,1.91-.86,2.71l-.82,1.93c-.46.89-1.08,2.08-1.59,2.95l-1.34,2c-.82,1-1.94,2.44-2.82,3.45l-2.16,2.17A54,54,0,0,1,127.91,89L124.31,91c-1.35.63-3.15,1.49-4.52,2.07l-4.13,1.59c-1.41.45-3.27,1.09-4.68,1.5l-4.53,1.19c-1.44.31-3.36.74-4.81,1l-4.78.77c-1.47.16-3.43.41-4.91.55L87,100c-1.48,0-3.46.1-5,.1l-4.94-.1c-1.48-.1-3.46-.2-4.93-.33l-4.86-.55c-1.45-.23-3.4-.5-4.84-.77l-4.66-1c-1.41-.36-3.3-.82-4.7-1.22l-4.32-1.37c-1.36-.52-3.18-1.17-4.53-1.73l-3.83-1.72c-1.3-.68-3-1.56-4.33-2.29l-3-1.88a48.73,48.73,0,0,1-9-7.55l-1.66-2c-.77-1-1.77-2.46-2.47-3.55l-1.05-1.89c-.42-.89-1-2.09-1.33-3L17,67.37c-.21-.82-.48-1.91-.64-2.74l-.26-1.84C16,62,16,61,16,60.16c0,9.84,6.47,19.69,19.46,27.19"/><path class="cls-15" d="M35.41,87.35a82.55,82.55,0,0,0,24.3,8.93l3.75.85c35.32,7.13,78.77-5.4,84-32.84-.13.78-.36,1.81-.54,2.58s-.58,1.91-.86,2.71l-.82,1.93c-.46.89-1.08,2.08-1.59,2.95l-1.34,2c-.82,1-1.94,2.44-2.82,3.45l-2.16,2.17A54,54,0,0,1,127.91,89L124.31,91c-1.35.63-3.15,1.49-4.52,2.07l-4.13,1.59c-1.41.45-3.27,1.09-4.68,1.5l-4.53,1.19c-1.44.31-3.36.74-4.81,1l-4.78.77c-1.47.16-3.43.41-4.91.55L87,100c-1.48,0-3.46.1-5,.1l-4.94-.1c-1.48-.1-3.46-.2-4.93-.33l-4.86-.55c-1.45-.23-3.4-.5-4.84-.77l-4.66-1c-1.41-.36-3.3-.82-4.7-1.22l-4.32-1.37c-1.36-.52-3.18-1.17-4.53-1.73l-3.83-1.72c-1.3-.68-3-1.56-4.33-2.29l-3-1.88a48.73,48.73,0,0,1-9-7.55l-1.66-2c-.77-1-1.77-2.46-2.47-3.55l-1.05-1.89c-.42-.89-1-2.09-1.33-3L17,67.37c-.21-.82-.48-1.91-.64-2.74l-.26-1.84C16,62,16,61,16,60.16c0,9.84,6.47,19.69,19.46,27.19"/><path class="cls-16" d="M35.41,87.35a77.51,77.51,0,0,0,17.32,7.2l2.88.92c39.36,10.47,81.83-2.16,90.9-27-.33.93-.84,2.15-1.22,3.06s-1.08,2.08-1.59,2.95l-1.34,2c-.82,1-1.94,2.44-2.82,3.45l-2.16,2.17A54,54,0,0,1,127.91,89L124.31,91c-1.35.63-3.15,1.49-4.52,2.07l-4.13,1.59c-1.41.45-3.27,1.09-4.68,1.5l-4.53,1.19c-1.44.31-3.36.74-4.81,1l-4.78.77c-1.47.16-3.43.41-4.91.55L87,100c-1.48,0-3.46.1-5,.1l-4.94-.1c-1.48-.1-3.46-.2-4.93-.33l-4.86-.55c-1.45-.23-3.4-.5-4.84-.77l-4.66-1c-1.41-.36-3.3-.82-4.7-1.22l-4.32-1.37c-1.36-.52-3.18-1.17-4.53-1.73l-3.83-1.72c-1.3-.68-3-1.56-4.33-2.29l-3-1.88a48.73,48.73,0,0,1-9-7.55l-1.66-2c-.77-1-1.77-2.46-2.47-3.55l-1.05-1.89c-.42-.89-1-2.09-1.33-3L17,67.37c-.21-.82-.48-1.91-.64-2.74l-.26-1.84C16,62,16,61,16,60.16c0,9.84,6.47,19.69,19.46,27.19"/><path class="cls-17" d="M35.41,87.35a72.65,72.65,0,0,0,9.26,4.46l2.4,1c36.68,14,82.07,5,97.13-19.26-.52.89-1.27,2-1.84,2.88-.82,1-1.94,2.44-2.82,3.45l-2.16,2.17A54,54,0,0,1,127.91,89L124.31,91c-1.35.63-3.15,1.49-4.52,2.07l-4.13,1.59c-1.41.45-3.27,1.09-4.68,1.5l-4.53,1.19c-1.44.31-3.36.74-4.81,1l-4.78.77c-1.47.16-3.43.41-4.91.55L87,100c-1.48,0-3.46.1-5,.1l-4.94-.1c-1.48-.1-3.46-.2-4.93-.33l-4.86-.55c-1.45-.23-3.4-.5-4.84-.77l-4.66-1c-1.41-.36-3.3-.82-4.7-1.22l-4.32-1.37c-1.36-.52-3.18-1.17-4.53-1.73l-3.83-1.72c-1.3-.68-3-1.56-4.33-2.29l-3-1.88a48.73,48.73,0,0,1-9-7.55l-1.66-2c-.77-1-1.77-2.46-2.47-3.55l-1.05-1.89c-.42-.89-1-2.09-1.33-3L17,67.37c-.21-.82-.48-1.91-.64-2.74l-.26-1.84C16,62,16,61,16,60.16c0,9.84,6.47,19.69,19.46,27.19"/></g></g></g><g class="cls-2"><g class="cls-33"><g class="cls-2"><path class="cls-14" d="M147.81,59.82v.71c0,.2,0,.39,0,.58V60.4c0-.19,0-.39,0-.58"/><path class="cls-13" d="M147.8,60.4v.71a21.9,21.9,0,0,1-.44,3.78v-.71a23.16,23.16,0,0,0,.43-3.78"/><path class="cls-12" d="M147.37,64.18v.71a23,23,0,0,1-1.06,3.72v-.72a24,24,0,0,0,1.07-3.71"/><path class="cls-11" d="M146.3,67.89v.72a25.82,25.82,0,0,1-1.76,3.74v-.71a27,27,0,0,0,1.75-3.75"/><path class="cls-10" d="M144.55,71.64v.71a29.87,29.87,0,0,1-2.65,3.94v-.71a31.7,31.7,0,0,0,2.66-3.94"/><path class="cls-9" d="M141.89,75.58v.71a37.06,37.06,0,0,1-4.09,4.4V80a38.67,38.67,0,0,0,4.09-4.4"/><path class="cls-8" d="M137.8,80v.71a51,51,0,0,1-8.35,6.18v-.71A51.3,51.3,0,0,0,137.8,80"/><path class="cls-19" d="M129.46,86.16v.71l-.8.48A75,75,0,0,1,114.2,93.7V93a74.39,74.39,0,0,0,14.45-6.36l.81-.47"/><path class="cls-8" d="M114.2,93v.71a96,96,0,0,1-12.48,3.11v-.72A95.63,95.63,0,0,0,114.2,93"/><path class="cls-9" d="M101.72,96.09v.72c-2.77.5-5.58.89-8.41,1.17v-.72c2.84-.28,5.65-.67,8.41-1.17"/><path class="cls-10" d="M93.31,97.26V98c-2.42.24-4.87.4-7.31.49v-.72q3.68-.12,7.31-.49"/><path class="cls-11" d="M86,97.75v.72c-2.25.07-4.51.08-6.76,0v-.72q3.38.09,6.75,0"/><path class="cls-12" d="M79.25,97.78v.72c-2.17-.06-4.33-.17-6.49-.35v-.71c2.16.17,4.32.29,6.5.34"/><path class="cls-13" d="M72.75,97.44v.71q-3.23-.27-6.41-.72v-.71q3.18.45,6.41.72"/><path class="cls-14" d="M66.34,96.72v.71Q63,97,59.81,96.3v-.72q3.22.67,6.53,1.14"/><path class="cls-15" d="M59.81,95.58v.72q-3.51-.73-6.88-1.69V93.9q3.38,1,6.88,1.68"/><path class="cls-16" d="M52.93,93.9v.71c-2.75-.78-5.43-1.68-8-2.7v-.72q3.87,1.53,8,2.71"/><path class="cls-17" d="M44.93,91.19v.72a71.9,71.9,0,0,1-9.51-4.56C22.42,79.85,15.93,70,16,60.16v-.71c0,9.83,6.46,19.68,19.46,27.19a71.91,71.91,0,0,0,9.51,4.55"/></g></g></g><g class="cls-2"><g class="cls-34"><g class="cls-2"><path class="cls-21" d="M127.62,30.93c4.49,2.78,10.08,6.23,15,13.13a27.44,27.44,0,0,1,5.19,15.27c0,10.2-6.4,19.89-19.15,27.3-25.66,14.92-67.41,14.92-93.23,0C22.42,79.13,15.93,69.28,16,59.45a26.6,26.6,0,0,1,2.31-10.53A34.18,34.18,0,0,1,26.1,38.14c7.12-6.33,15.15-11.4,31.21-15.5,18.54-4.73,48.45-4.15,70.31,8.29a1.45,1.45,0,0,0-1.48.14c-24.59-14.2-64.35-14.2-88.78,0s-24.31,37.22.29,51.42,64.34,14.2,88.77,0,24.31-37.23-.28-51.42a1.45,1.45,0,0,1,1.48-.14"/><path class="cls-21" d="M126.41,30.93C75.66,4.55,9.17,31.93,20.26,64.09c13.57,39.36,105.29,43.93,124.23,6.2,5.55-11.06,3.72-27.21-18.08-39.36a1.35,1.35,0,0,1,1.21,0l3.11,1.92a52.31,52.31,0,0,1,6.84,5.4l1.94,2c1,1.13,2.21,2.67,3.1,3.85L143.85,46c.51.94,1.18,2.19,1.64,3.15l.75,1.86c.27.84.63,2,.85,2.81l.38,1.83a25.38,25.38,0,0,1,.34,4.2c0,9.71-6.41,19.4-19.16,26.81-25.66,14.92-67.41,14.92-93.23,0C22.42,79.13,15.93,69.28,16,59.45L16,57.59a25.58,25.58,0,0,1,.64-4l.54-1.89c.3-.83.71-1.94,1.06-2.76l1-2c.55-.93,1.29-2.16,1.89-3.06l1.55-2.06c1-1.14,2.36-2.62,3.43-3.7L28.52,36a58.48,58.48,0,0,1,7.34-5.06L39.46,29c1.35-.63,3.14-1.49,4.51-2.07l4.14-1.59c1.4-.46,3.26-1.09,4.68-1.51l4.52-1.19c1.44-.3,3.36-.74,4.81-1l4.78-.77c1.48-.16,3.44-.42,4.91-.55L76.73,20c1.49,0,3.47-.11,5-.11l4.95.11c1.47.1,3.45.2,4.92.33l4.86.54c1.46.24,3.4.51,4.85.78l4.65,1c1.41.37,3.3.83,4.71,1.23l4.31,1.37c1.36.52,3.19,1.17,4.53,1.73l3.83,1.72c1.31.68,3,1.56,4.33,2.28a1.35,1.35,0,0,0-1.21,0"/><path class="cls-22" d="M126.64,30.85C76.13,4.58,9.28,32,20,64.11c13.33,39.75,105.29,44.37,124.56,6.26,7.18-14.21.3-29.36-18-39.52a1.25,1.25,0,0,1,1,.08l3.11,1.92a52.31,52.31,0,0,1,6.84,5.4l1.94,2c1,1.13,2.21,2.67,3.1,3.85L143.85,46c.51.94,1.18,2.19,1.64,3.15l.75,1.86c.27.84.63,2,.85,2.81l.38,1.83a25.38,25.38,0,0,1,.34,4.2c0,9.71-6.41,19.4-19.16,26.81-25.66,14.92-67.41,14.92-93.23,0C22.42,79.13,15.93,69.28,16,59.45L16,57.59a25.58,25.58,0,0,1,.64-4l.54-1.89c.3-.83.71-1.94,1.06-2.76l1-2c.55-.93,1.29-2.16,1.89-3.06l1.55-2.06c1-1.14,2.36-2.62,3.43-3.7L28.52,36a58.48,58.48,0,0,1,7.34-5.06L39.46,29c1.35-.63,3.14-1.49,4.51-2.07l4.14-1.59c1.4-.46,3.26-1.09,4.68-1.51l4.52-1.19c1.44-.3,3.36-.74,4.81-1l4.78-.77c1.48-.16,3.44-.42,4.91-.55L76.73,20c1.49,0,3.47-.11,5-.11l4.95.11c1.47.1,3.45.2,4.92.33l4.86.54c1.46.24,3.4.51,4.85.78l4.65,1c1.41.37,3.3.83,4.71,1.23l4.31,1.37c1.36.52,3.19,1.17,4.53,1.73l3.83,1.72c1.31.68,3,1.56,4.33,2.28a1.25,1.25,0,0,0-1-.08"/><path class="cls-4" d="M126.83,30.8c-51.57-26.86-118,0-107,33.33,13.2,40.06,105.34,44.77,124.8,6.38,5.65-11.14,3.94-27.42-17.8-39.71a1.29,1.29,0,0,1,.79.13l3.11,1.92a52.31,52.31,0,0,1,6.84,5.4l1.94,2c1,1.13,2.21,2.67,3.1,3.85L143.85,46c.51.94,1.18,2.19,1.64,3.15l.75,1.86c.27.84.63,2,.85,2.81l.38,1.83a25.38,25.38,0,0,1,.34,4.2c0,9.71-6.41,19.4-19.16,26.81-25.66,14.92-67.41,14.92-93.23,0C22.42,79.13,15.93,69.28,16,59.45L16,57.59a25.58,25.58,0,0,1,.64-4l.54-1.89c.3-.83.71-1.94,1.06-2.76l1-2c.55-.93,1.29-2.16,1.89-3.06l1.55-2.06c1-1.14,2.36-2.62,3.43-3.7L28.52,36a58.48,58.48,0,0,1,7.34-5.06L39.46,29c1.35-.63,3.14-1.49,4.51-2.07l4.14-1.59c1.4-.46,3.26-1.09,4.68-1.51l4.52-1.19c1.44-.3,3.36-.74,4.81-1l4.78-.77c1.48-.16,3.44-.42,4.91-.55L76.73,20c1.49,0,3.47-.11,5-.11l4.95.11c1.47.1,3.45.2,4.92.33l4.86.54c1.46.24,3.4.51,4.85.78l4.65,1c1.41.37,3.3.83,4.71,1.23l4.31,1.37c1.36.52,3.19,1.17,4.53,1.73l3.83,1.72c1.31.68,3,1.56,4.33,2.28a1.29,1.29,0,0,0-.79-.13"/><path class="cls-19" d="M127,30.79C75.47,3.8,8.82,30.71,19.64,64.15c13,40.34,105.37,45.12,125,6.49,3.45-6.78,8.64-24.24-17.7-39.85l3.75,2.06a52.31,52.31,0,0,1,6.84,5.4l1.94,2c1,1.13,2.21,2.67,3.1,3.85L143.85,46c.51.94,1.18,2.19,1.64,3.15l.75,1.86c.27.84.63,2,.85,2.81l.38,1.83a25.38,25.38,0,0,1,.34,4.2c0,9.71-6.41,19.4-19.16,26.81-25.66,14.92-67.41,14.92-93.23,0C22.42,79.13,15.93,69.28,16,59.45L16,57.59a25.58,25.58,0,0,1,.64-4l.54-1.89c.3-.83.71-1.94,1.06-2.76l1-2c.55-.93,1.29-2.16,1.89-3.06l1.55-2.06c1-1.14,2.36-2.62,3.43-3.7L28.52,36a58.48,58.48,0,0,1,7.34-5.06L39.46,29c1.35-.63,3.14-1.49,4.51-2.07l4.14-1.59c1.4-.46,3.26-1.09,4.68-1.51l4.52-1.19c1.44-.3,3.36-.74,4.81-1l4.78-.77c1.48-.16,3.44-.42,4.91-.55L76.73,20c1.49,0,3.47-.11,5-.11l4.95.11c1.47.1,3.45.2,4.92.33l4.86.54c1.46.24,3.4.51,4.85.78l4.65,1c1.41.37,3.3.83,4.71,1.23l4.31,1.37c1.36.52,3.19,1.17,4.53,1.73l3.83,1.72c1.31.68,3,1.56,4.33,2.28a1.23,1.23,0,0,0-.64-.14"/><path class="cls-8" d="M127.12,30.79c-51-26.86-117.95.06-107.67,33.4C25.88,85,67.27,107.06,115,92.73,89.82,101.15,57,99.12,35.42,86.64,22.42,79.13,15.93,69.28,16,59.45L16,57.59a25.58,25.58,0,0,1,.64-4l.54-1.89c.3-.83.71-1.94,1.06-2.76l1-2c.55-.93,1.29-2.16,1.89-3.06l1.55-2.06c1-1.14,2.36-2.62,3.43-3.7L28.52,36a58.48,58.48,0,0,1,7.34-5.06L39.46,29c1.35-.63,3.14-1.49,4.51-2.07l4.14-1.59c1.4-.46,3.26-1.09,4.68-1.51l4.52-1.19c1.44-.3,3.36-.74,4.81-1l4.78-.77c1.48-.16,3.44-.42,4.91-.55L76.73,20c1.49,0,3.47-.11,5-.11l4.95.11c1.47.1,3.45.2,4.92.33l4.86.54c1.46.24,3.4.51,4.85.78l4.65,1c1.41.37,3.3.83,4.71,1.23l4.31,1.37c1.36.52,3.19,1.17,4.53,1.73l3.83,1.72c1.31.68,3,1.56,4.33,2.28a1.2,1.2,0,0,0-.5-.14"/><path class="cls-9" d="M127.25,30.8c-51.5-27.27-118.6-.27-108,33.43C24.56,81,54.42,102.75,101.71,96.09,79.1,100.17,53.4,97,35.42,86.64,22.42,79.13,15.93,69.28,16,59.45L16,57.59a25.58,25.58,0,0,1,.64-4l.54-1.89c.3-.83.71-1.94,1.06-2.76l1-2c.55-.93,1.29-2.16,1.89-3.06l1.55-2.06c1-1.14,2.36-2.62,3.43-3.7L28.52,36a58.48,58.48,0,0,1,7.34-5.06L39.46,29c1.35-.63,3.14-1.49,4.51-2.07l4.14-1.59c1.4-.46,3.26-1.09,4.68-1.51l4.52-1.19c1.44-.3,3.36-.74,4.81-1l4.78-.77c1.48-.16,3.44-.42,4.91-.55L76.73,20c1.49,0,3.47-.11,5-.11l4.95.11c1.47.1,3.45.2,4.92.33l4.86.54c1.46.24,3.4.51,4.85.78l4.65,1c1.41.37,3.3.83,4.71,1.23l4.31,1.37c1.36.52,3.19,1.17,4.53,1.73l3.83,1.72c1.31.68,3,1.56,4.33,2.28a1.47,1.47,0,0,0-.37-.13"/><path class="cls-10" d="M127.37,30.83C76.92,4,8.89,31.62,19.1,64.29c5.68,18.16,35.67,35.93,74.23,33C73,99.3,51.21,95.75,35.42,86.64,22.42,79.13,15.93,69.28,16,59.45L16,57.59a25.58,25.58,0,0,1,.64-4l.54-1.89c.3-.83.71-1.94,1.06-2.76l1-2c.55-.93,1.29-2.16,1.89-3.06l1.55-2.06c1-1.14,2.36-2.62,3.43-3.7L28.52,36a58.48,58.48,0,0,1,7.34-5.06L39.46,29c1.35-.63,3.14-1.49,4.51-2.07l4.14-1.59c1.4-.46,3.26-1.09,4.68-1.51l4.52-1.19c1.44-.3,3.36-.74,4.81-1l4.78-.77c1.48-.16,3.44-.42,4.91-.55L76.73,20c1.49,0,3.47-.11,5-.11l4.95.11c1.47.1,3.45.2,4.92.33l4.86.54c1.46.24,3.4.51,4.85.78l4.65,1c1.41.37,3.3.83,4.71,1.23l4.31,1.37c1.36.52,3.19,1.17,4.53,1.73l3.83,1.72c1.31.68,3,1.56,4.33,2.28l-.25-.1"/><path class="cls-11" d="M127.49,30.87C80.62,5.07,7.57,27.6,18.94,64.36,24.08,81,48.79,97.77,86.09,97.75c-18.17.63-36.74-3.07-50.67-11.11C22.42,79.13,15.93,69.28,16,59.45L16,57.59a25.58,25.58,0,0,1,.64-4l.54-1.89c.3-.83.71-1.94,1.06-2.76l1-2c.55-.93,1.29-2.16,1.89-3.06l1.55-2.06c1-1.14,2.36-2.62,3.43-3.7L28.52,36a58.48,58.48,0,0,1,7.34-5.06L39.46,29c1.35-.63,3.14-1.49,4.51-2.07l4.14-1.59c1.4-.46,3.26-1.09,4.68-1.51l4.52-1.19c1.44-.3,3.36-.74,4.81-1l4.78-.77c1.48-.16,3.44-.42,4.91-.55L76.73,20c1.49,0,3.47-.11,5-.11l4.95.11c1.47.1,3.45.2,4.92.33l4.86.54c1.46.24,3.4.51,4.85.78l4.65,1c1.41.37,3.3.83,4.71,1.23l4.31,1.37c1.36.52,3.19,1.17,4.53,1.73l3.83,1.72c1.31.68,3,1.56,4.33,2.28l-.13-.06"/><path class="cls-12" d="M127.61,30.93h0C77.19,3.73,8.76,31.46,18.76,64.41c4.6,15.18,26.87,31.51,60.52,33.37-15.92-.39-31.67-4.1-43.86-11.14C22.42,79.13,15.93,69.28,16,59.45L16,57.59a25.58,25.58,0,0,1,.64-4l.54-1.89c.3-.83.71-1.94,1.06-2.76l1-2c.55-.93,1.29-2.16,1.89-3.06l1.55-2.06c1-1.14,2.36-2.62,3.43-3.7L28.52,36a58.48,58.48,0,0,1,7.34-5.06L39.46,29c1.35-.63,3.14-1.49,4.51-2.07l4.14-1.59c1.4-.46,3.26-1.09,4.68-1.51l4.52-1.19c1.44-.3,3.36-.74,4.81-1l4.78-.77c1.48-.16,3.44-.42,4.91-.55L76.73,20c1.49,0,3.47-.11,5-.11l4.95.11c1.47.1,3.45.2,4.92.33l4.86.54c1.46.24,3.4.51,4.85.78l4.65,1c1.41.37,3.3.83,4.71,1.23l4.31,1.37c1.36.52,3.19,1.17,4.53,1.73l3.83,1.72c1.31.68,3,1.56,4.33,2.28h0"/><path class="cls-13" d="M113.85,24.84C61,8,2.69,36.1,20.78,69.7c2.84,5.28,15,22.89,52,27.74-13.64-1.13-26.8-4.73-37.32-10.8C22.42,79.13,15.93,69.28,16,59.45L16,57.59a25.58,25.58,0,0,1,.64-4l.54-1.89c.3-.83.71-1.94,1.06-2.76l1-2c.55-.93,1.29-2.16,1.89-3.06l1.55-2.06c1-1.14,2.36-2.62,3.43-3.7L28.52,36a58.48,58.48,0,0,1,7.34-5.06L39.46,29c1.35-.63,3.14-1.49,4.51-2.07l4.14-1.59c1.4-.46,3.26-1.09,4.68-1.51l4.52-1.19c1.44-.3,3.36-.74,4.81-1l4.78-.77c1.48-.16,3.44-.42,4.91-.55L76.73,20c1.49,0,3.47-.11,5-.11l4.95.11c1.47.1,3.45.2,4.92.33l4.86.54c1.46.24,3.4.51,4.85.78l4.65,1c1.41.37,3.3.83,4.71,1.23l3.88,1.23-.65-.22"/><path class="cls-14" d="M94.28,20.6C36.15,15.23,2.79,48.43,24,75,29,81.13,41,92.13,66.33,96.72c-11.32-1.61-22-5-30.91-10.08C22.42,79.13,15.93,69.28,16,59.45L16,57.59a25.58,25.58,0,0,1,.64-4l.54-1.89c.3-.83.71-1.94,1.06-2.76l1-2c.55-.93,1.29-2.16,1.89-3.06l1.55-2.06c1-1.14,2.36-2.62,3.43-3.7L28.52,36a58.48,58.48,0,0,1,7.34-5.06L39.46,29c1.35-.63,3.14-1.49,4.51-2.07l4.14-1.59c1.4-.46,3.26-1.09,4.68-1.51l4.52-1.19c1.44-.3,3.36-.74,4.81-1l4.78-.77c1.48-.16,3.44-.42,4.91-.55L76.73,20c1.49,0,3.47-.11,5-.11l4.95.11c1.47.1,3.45.2,4.92.33l4.86.54,1.88.28-4-.54"/><path class="cls-15" d="M75.94,20C21.7,24,3.33,57.34,28.66,80.23c4.39,4,14.26,11.24,31.06,15.33a82.33,82.33,0,0,1-24.3-8.92C22.42,79.13,15.93,69.28,16,59.45L16,57.59a25.58,25.58,0,0,1,.64-4l.54-1.89c.3-.83.71-1.94,1.06-2.76l1-2c.55-.93,1.29-2.16,1.89-3.06l1.55-2.06c1-1.14,2.36-2.62,3.43-3.7L28.52,36a58.48,58.48,0,0,1,7.34-5.06L39.46,29c1.35-.63,3.14-1.49,4.51-2.07l4.14-1.59c1.4-.46,3.26-1.09,4.68-1.51l4.52-1.19c1.44-.3,3.36-.74,4.81-1l4.78-.77c1.48-.16,3.44-.42,4.91-.55L76.73,20l3.64-.1L75.94,20"/><path class="cls-23" d="M40.86,84.62C103.4,109,156.26,76.61,142.42,47a42.09,42.09,0,0,0-3.7-6.2c22.07,21-1.08,54.51-50.33,55.63C70.7,96.8,52.51,92.32,40.91,84.7c0,0,0,0,0-.08"/><path class="cls-16" d="M58,22.49C8.83,35.07,6.3,68.89,38.7,87.75a78.83,78.83,0,0,0,14,6.09,77.59,77.59,0,0,1-17.32-7.2C22.42,79.13,15.93,69.28,16,59.45L16,57.59a25.58,25.58,0,0,1,.64-4l.54-1.89c.3-.83.71-1.94,1.06-2.76l1-2c.55-.93,1.29-2.16,1.89-3.06l1.55-2.06c1-1.14,2.36-2.62,3.43-3.7L28.52,36a58.48,58.48,0,0,1,7.34-5.06L39.46,29c1.35-.63,3.14-1.49,4.51-2.07l4.14-1.59c1.4-.46,3.26-1.09,4.68-1.51l4.52-1.19c1.44-.3,3.36-.74,4.81-1L58,22.49"/><path class="cls-17" d="M41.48,28c-37.85,19-28.7,48.5,3.19,63.07a71.16,71.16,0,0,1-9.25-4.45C22.42,79.13,15.93,69.28,16,59.45L16,57.59a25.58,25.58,0,0,1,.64-4l.54-1.89c.3-.83.71-1.94,1.06-2.76l1-2c.55-.93,1.29-2.16,1.89-3.06l1.55-2.06c1-1.14,2.36-2.62,3.43-3.7L28.52,36a58.48,58.48,0,0,1,7.34-5.06L39.46,29c1.35-.63,3.14-1.49,4.51-2.07l1.52-.62c-1.2.52-2.82,1.16-4,1.71"/><path class="cls-24" d="M53.13,89.43C65.3,92,93.8,98.16,121.47,85.2c27.23-12.75,23.61-29.81,21.87-38,16.94,25-24.89,57-75.95,47.24a69.63,69.63,0,0,1-17.25-5.49c1.26.18,2.17.31,3,.49"/><path class="cls-25" d="M65.28,92.22c46,5.8,83.19-13.17,79.69-40.6,11.95,17.83-22.59,52.68-75.4,42.94C66.78,94.05,60,92.66,57,90.91c4.09.74,4.83.87,8.27,1.31"/><path class="cls-6" d="M64.79,92.48a28.33,28.33,0,0,1,4.48.51A119.28,119.28,0,0,0,97,92.42a87.89,87.89,0,0,0,24.66-7.08c13.83-6.21,23.22-17,23.92-27.46a3,3,0,0,1,.52-1.85c5.27,27.09-41.66,48-82.32,36.73l1-.28"/><path class="cls-26" d="M73.53,93.53C131.61,94,141.32,70.76,146,59.58c2.4,24.85-45.14,42.51-76.15,34.06,1,0,3.33-.11,3.7-.11"/><path class="cls-27" d="M83.23,93.87c40.64-2.17,56.15-17.81,62-30.55,1.76,19.85-45.61,38-69.12,30.82,3.43-.08,3.43-.08,7.1-.27"/><path class="cls-28" d="M83.24,94.28c30.12-2.06,50.47-11.14,60.47-27,.77,1.51-4.1,12.91-21.21,20.71-19.27,8.8-38.83,6.79-38.95,6.74s-.34-.33-.49-.47h.18"/><path class="cls-8" d="M133.65,83.33c20.7-15.87,17.9-38.46-6.53-52.54a1.2,1.2,0,0,1,.5.14l3.11,1.92a52.31,52.31,0,0,1,6.84,5.4l1.94,2c1,1.13,2.21,2.67,3.1,3.85L143.85,46c.51.94,1.18,2.19,1.64,3.15l.75,1.86c.27.84.63,2,.85,2.81l.38,1.83a25.38,25.38,0,0,1,.34,4.2c0,9.65-6.33,19.28-18.91,26.67l3.58-2.32,1.17-.84"/><path class="cls-9" d="M139.13,78.65c17.66-20.2,4.64-38.4-11.88-47.85a1.47,1.47,0,0,1,.37.13l3.11,1.92a52.31,52.31,0,0,1,6.84,5.4l1.94,2c1,1.13,2.21,2.67,3.1,3.85L143.85,46c.51.94,1.18,2.19,1.64,3.15l.75,1.86c.27.84.63,2,.85,2.81l.38,1.83a25.38,25.38,0,0,1,.34,4.2c0,7.06-3.4,14.11-10.15,20.29.44-.44,1.05-1,1.47-1.46"/><path class="cls-10" d="M143.28,73.61c9.23-15.89,3.58-31.09-15.91-42.78l.25.1,3.11,1.92a52.31,52.31,0,0,1,6.84,5.4l1.94,2c1,1.13,2.21,2.67,3.1,3.85L143.85,46c.51.94,1.18,2.19,1.64,3.15l.75,1.86c.27.84.63,2,.85,2.81l.38,1.83a24.35,24.35,0,0,1-5.64,20c.43-.61,1-1.42,1.45-2"/><path class="cls-29" d="M91.2,93.92a9.13,9.13,0,0,1,1.17-.15c16.3-2.08,25.65-6.25,29.64-8,6.51-2.9,13.89-8.08,17.55-12.3,1.51-1.74,1.51-1.74,2.41-2.16C134.38,85.06,113,94.61,90.06,94.48a9.27,9.27,0,0,1,1.14-.56"/><path class="cls-11" d="M146.09,68.29c5-13.87-1.77-27.51-18.6-37.42l3.24,2a52.31,52.31,0,0,1,6.84,5.4l1.94,2c1,1.13,2.21,2.67,3.1,3.85L143.85,46c.51.94,1.18,2.19,1.64,3.15l.75,1.86c.27.84.63,2,.85,2.81l.38,1.83a25.38,25.38,0,0,1,.34,4.2,24.08,24.08,0,0,1-3.29,11.87l1.26-2.64c.1-.22.23-.53.31-.76"/><path class="cls-12" d="M127.61,30.93h0l1.82,1.1-1.83-1.1"/><path class="cls-12" d="M147.56,62.8A25.1,25.1,0,0,0,146,50.28l.67,1.87.45,1.64.38,1.83a25.38,25.38,0,0,1,.34,4.2,23,23,0,0,1-1.51,8.07l.78-2.61c.15-.74.37-1.73.48-2.48"/><path class="cls-13" d="M147.57,63a24.4,24.4,0,0,0-.12-7.43l.25,1.84c0,.73.1,1.7.11,2.43a23,23,0,0,1-.44,4.36h0c.06-.36.15-.84.2-1.2"/><path class="cls-30" d="M101.06,92.64C116,88.78,116,88.78,122.15,85.92a62.36,62.36,0,0,0,7.07-3.8c3.3-2.11,6.25-4.7,9.5-6.86-7,9.8-23.89,17.38-41.18,18.43,1.18-.34,2.34-.74,3.52-1"/><path class="cls-14" d="M147.8,59.32v.5c0,.18,0,.36,0,.54v-1"/><path class="cls-31" d="M110.09,90.87c11.72-4,14.91-5.8,23.24-10.77-6.14,5.64-15.91,10-26.15,11.74l2.91-1"/></g></g></g></g><polygon class="cls-35" points="98.02 31.7 84.28 66.38 71.25 36.75 71.14 36.75 71.37 36.41 98.02 31.7"/><polygon class="cls-35" points="104.92 7 113.45 29.6 113.11 29.72 98.23 31.33 98 31.22 104.77 6.96 104.92 7"/><path class="cls-36" d="M108.26,61.77l0,.14L84.4,66.73l-.15,0,0-.33L98,31.7l.1,0s10,29.74,10,29.74l.13,0,0,.1Z"/><polygon class="cls-36" points="125.58 53.17 108.38 61.88 108.27 61.77 108.27 61.54 108.28 61.44 113.11 29.72 113.45 29.6 125.58 53.17"/><polygon class="cls-37" points="62.49 63.73 71.14 36.75 71.25 36.75 84.28 66.38 84.25 66.71 62.72 64.42 62.28 64.22 62.49 63.73"/><path class="cls-38" d="M98.15,31.66a.58.58,0,0,1-.13,0l.1-.25.11-.12,14.88-1.61-4.83,31.72-.13,0-10-29.76Z"/><path class="cls-38" d="M127.9,22.3l-2.21,30.8-.11.07L113.45,29.6l14.22-7.3Z"/><polygon class="cls-39" points="62.72 64.42 53.04 83.1 46.58 57.27 46.69 57.32 62.28 64.22 62.72 64.42"/><path class="cls-39" d="M84.4,66.73,78.29,86.67,62.72,64.42l21.53,2.29Z"/><path class="cls-39" d="M84.4,66.73l23.83-4.82L103,85.35S84.4,66.73,84.4,66.73Z"/><polygon class="cls-40" points="62.72 64.42 78.29 86.67 78.26 86.85 53.04 83.1 62.72 64.42"/><polygon class="cls-41" points="78.29 86.67 84.4 66.73 102.93 85.37 102.85 85.41 78.63 86.9 78.26 86.85 78.29 86.67"/><path class="cls-40" d="M123,76.87s-20,8.48-20,8.48l5.25-23.44.15,0Z"/><polygon class="cls-37" points="125.58 53.17 125.65 53.31 123.02 76.87 108.38 61.88 125.58 53.17"/><path class="cls-40" d="M136.63,60.16h.23v.11L123.37,76.76l-.34.14s2.62-23.59,2.62-23.59,0-.18,0-.18Z"/><path class="cls-38" d="M136.74,42.05l.12,18.11h-.23l-10.94-7S136.74,42.05,136.74,42.05Z"/><polygon class="cls-38" points="127.98 22.27 136.74 42.05 125.69 53.1 127.9 22.3 127.98 22.27"/><polygon class="cls-38" points="127.9 22.07 127.98 22.27 127.9 22.3 127.67 22.3 113.45 29.6 104.92 7 104.77 6.96 104.92 6.43 104.98 6.35 127.9 22.07"/><polygon class="cls-38" points="27.98 68.72 46.58 57.27 53.04 83.1 27.87 68.84 27.86 68.73 27.98 68.72"/><polygon class="cls-36" points="51.19 34.33 62.49 63.73 62.28 64.22 46.69 57.32 46.81 57.04 50.89 34.27 51.19 34.33"/><path class="cls-42" d="M51.21,33.8l19.58,2.49.35.46-8.65,27-11.3-29.4-.3-.06.07-.4s.23.11.23.11Z"/><polygon class="cls-42" points="98.12 31.45 98.02 31.7 71.37 36.41 79.17 10.72 79.2 10.62 79.44 10.69 98 31.22 98.23 31.33 98.12 31.45"/><path class="cls-36" d="M104.92,6.31c.06,0,0,.12,0,.12l-.15.53L98,31.22,79.44,10.69l25.25-4.38S104.92,6.31,104.92,6.31Z"/><path class="cls-42" d="M27.44,50.47l19.14,6.8L28,68.72h-.12L27,50.7l.06-.24a.64.64,0,0,0,.31-.13Z"/><path class="cls-42" d="M51,33.87S30,48.69,27.35,50.33l-.25.14c-.06,0,6.45-26.75,6.45-26.75l.21-.15S51,33.85,51,33.85Z"/><polygon class="cls-42" points="33.76 23.57 53.5 8.62 53.64 8.63 53.62 8.96 51.21 33.8 51.19 33.98 50.97 33.85 33.78 23.61 33.76 23.57"/><path class="cls-36" d="M51,33.87l-.07.4L46.81,57l-.12.28-.11,0-19.14-6.8-.09-.14C30,48.69,51,33.87,51,33.87Z"/><polygon class="cls-43" points="53.62 8.96 70.79 36.29 51.21 33.8 53.62 8.96"/><path class="cls-42" d="M71.37,36.4l-.23.35-.35-.46L53.62,9l0-.33L79.1,10.69C79.17,10.72,71.37,36.4,71.37,36.4Z"/><polygon class="cls-42" points="78.86 0.78 79.09 10.69 53.64 8.63 53.5 8.62 78.86 0.78"/><path class="cls-42" d="M79.2,10.62l0,.1c-.07,0-.31-9.94-.31-9.94L104.7,6.27s-25.26,4.42-25.26,4.42Z"/><path class="cls-44" d="M136.74,42.05,128,22.26l-.08-.19L105,6.35a1.25,1.25,0,0,0-.28-.08L78.86.78,53.5,8.62l-19.74,15-.21.15L27,50.46,27,50.7l.88,18v.11L53,83.1l25.22,3.75.37.05,24.22-1.5.08,0L123,76.9l.34-.14,13.49-16.49v-.11ZM108.23,61.91l0-.14.12.11Z"/><path class="cls-45" d="M137.55,60.52l-.12-18.61-9-20.3L105.19,5.66,78.83.06,53.72,7.83l-.72.3L33.34,23l-.4.3L26.29,50.63l.9,18.62,25.25,14.3,1,.31L78,87.51l.7.08,24-1.48.87-.26,19.32-8.13ZM122.5,75.34l-13-13.26,15.31-7.76ZM102.56,84,85.8,67.15l21.53-4.35ZM78,85.11,64.16,65.27l19.33,2Zm-24.77-4L47.6,58.48l14.17,6.28ZM28.5,67.59,27.7,51.3,45,57.44ZM51.22,36.33l10.3,26.8-14-6.19ZM97,31.17,72.36,35.53l7.19-23.68Zm1.87-.61,6-21.58,7.59,20.11Zm13.39-.06L108,58.77,99,32Zm-14.62-.68L80.8,11.16l23.21-4Zm-.75,2.77-12.67,32L72.11,37Zm-25.63,6,12,27.36L63.2,63.78Zm26.76-5,9.35,27.86L85.24,65.85Zm15.51-2.18,11.09,21.54-15.57,7.88Zm.82-1.43,12.75-6.54-2,27.48Zm-.55-1.27L106,7.89l20.66,14.16ZM79.77,9.93l-.19-8.29,21.58,4.58Zm-1.38,0L57.13,8.22,78.19,1.71Zm-.13,1.38L71,35.29,54.71,9.41Zm-8.83,24.1L52,33.2l2.14-22.15Zm.93,1.51L62.43,61.65,52,34.6ZM46.22,56.42,28.79,50.21C33,47.41,45.72,38.42,50,35.41Zm89.84-12.71.1,15.32-9.39-6Zm-.14-1.81-9.41,9.4,1.9-26.37ZM50.61,32.83,35,23.51,52.82,10ZM34.06,24.58,49.71,33.9C46.16,36.41,32.52,46,28.11,49ZM29.19,68.79l17-10.43L52,81.7ZM54.1,82.56l8.71-16.81L76.94,86ZM84.72,68,101.39,84.8,79.16,86.18Zm19.22,16.16,4.72-21,13.18,13.49ZM126.1,55.54l.12.22.08-1.41,9.51,6.1L123.93,75Z"/><g class="cls-46"><path class="cls-47" d="M138.09,42l-9-20.15-.09-.19-23.47-16a1.3,1.3,0,0,0-.29-.08L78.83,0l-26,8L32.64,23.2l-.2.16L25.77,50.58l-.06.24.9,18.36v.11L52.39,83.81l25.82,3.82.38.05,24.8-1.52.08,0,20.58-8.62.35-.15,13.81-16.78v-.12ZM108.9,62.24l0-.15.12.12Z"/></g><path class="cls-48" d="M51.14,32.2l.93-12,1-11.94.32.18L43.4,16l-10,7.47.08-.11-1.63,6.8L30.18,37c-1.09,4.53-2.23,9-3.36,13.57,1-4.54,2-9.1,3.09-13.64l1.56-6.81,1.59-6.81c.08-.12,10.07-7.63,10.07-7.63l10-7.47.36-.27,0,.45L52.33,20.27Z"/><path class="cls-48" d="M27.44,50.47l2.93-2.14,2.94-2.13L39.21,42l5.93-4.19c2-1.4,4-2.77,6-4.16V34l-4.05-2.59-4-2.61-4-2.62-4-2.65L39.09,26l4.09,2.52,4.08,2.53,4.07,2.56.27.17-.26.18c-2,1.4-4,2.8-5.94,4.18l-6,4.15-6,4.11-3,2Z"/><path class="cls-48" d="M127.9,22.07l-11.51-7.73L105,6.43l.08,0L78.85.93H79L53.34,8.55l.13-.34L61,20.4c.63,1,1.23,2.05,1.84,3.08l1.84,3.08,3.67,6.16-3.88-6-1.93-3c-.65-1-1.3-2-1.94-3L53.07,8.45l-.16-.25.29-.09L78.83.48C79,.48,105.2,6,105.2,6s11.46,8,11.46,8Z"/><path class="cls-48" d="M71.79,34.29l.78-3,.79-3,1.79-6,3.57-11.95.2.3L66.67,9.73,63.6,9.51,62.07,9.4c-.51,0-1-.06-1.53-.11-2-.23-4.08-.43-6.12-.67,2,.05,4.1.14,6.15.21l1.53.11,1.53.11,3.07.22L79,10.16l.29,0-.09.27-3.57,12-1.79,6-1,3Z"/><path class="cls-48" d="M78.9.71c.06.8.11,1.61.15,2.41l.07,1.21c0,.41,0,.81,0,1.21l0,4.85-.27-.23L90.39,8.24l5.75-1L97.58,7c.48-.07,1-.11,1.44-.17l2.9-.32c-.94.23-1.89.44-2.84.65-.48.1-1,.22-1.43.31l-1.43.23-5.75,1L79,10.61l-.27.05v-.27l0-4.84c0-.41,0-.81,0-1.21l.06-1.21C78.81,2.32,78.85,1.51,78.9.71Z"/></g></g></g></svg>