<svg xmlns="http://www.w3.org/2000/svg" xmlns:xlink="http://www.w3.org/1999/xlink" viewBox="0 0 195.61 182.9"><defs><style>.cls-1{isolation:isolate;}.cls-2{fill:#6ee1f8;}.cls-3{fill:#267fe5;}.cls-16,.cls-18,.cls-4{fill:#d4088c;}.cls-5{fill:#0c0f38;}.cls-11,.cls-16,.cls-5{opacity:0.8;}.cls-6{fill:url(#Áåçûìÿííûé_ãðàäèåíò_377);}.cls-7{fill:#6de0f6;}.cls-8{fill:url(#Áåçûìÿííûé_ãðàäèåíò_300);}.cls-9{fill:#18d0f7;}.cls-10,.cls-11,.cls-12,.cls-13,.cls-14,.cls-15,.cls-17{fill:#6ee8fc;}.cls-12{opacity:0.6;}.cls-13{opacity:0.4;}.cls-14{opacity:0.2;}.cls-15{opacity:0.1;}.cls-16,.cls-17,.cls-18{mix-blend-mode:lighten;}</style><linearGradient id="Áåçûìÿííûé_ãðàäèåíò_377" x1="5334.12" y1="97.88" x2="5467.64" y2="97.88" gradientTransform="matrix(-1, 0, 0, 1, 5503.69, 0)" gradientUnits="userSpaceOnUse"><stop offset="0" stop-color="#a31fa9"/><stop offset="0.07" stop-color="#8b17a0"/><stop offset="0.15" stop-color="#740f98"/><stop offset="0.24" stop-color="#640a92"/><stop offset="0.34" stop-color="#5b078f"/><stop offset="0.48" stop-color="#58068e"/><stop offset="0.63" stop-color="#4d22a3"/><stop offset="0.94" stop-color="#3168da"/><stop offset="1" stop-color="#2c75e4"/></linearGradient><linearGradient id="Áåçûìÿííûé_ãðàäèåíò_300" x1="3404.68" y1="-1868.49" x2="3513.7" y2="-1868.49" gradientTransform="matrix(-0.87, 0.5, 0.87, 0.5, 4716.58, -711.25)" gradientUnits="userSpaceOnUse"><stop offset="0" stop-color="#8d139b"/><stop offset="0.17" stop-color="#851ba1"/><stop offset="0.43" stop-color="#6e33b2"/><stop offset="0.76" stop-color="#4958cd"/><stop offset="1" stop-color="#2979e4"/></linearGradient></defs><title>platform_01</title><g class="cls-1"><g id="Layer_2" data-name="Layer 2"><g id="COLORS"><polygon class="cls-2" points="120.66 34.17 114.44 34.17 114.44 32.04 118.53 32.04 118.53 27.95 120.66 27.95 120.66 34.17"/><polygon class="cls-2" points="115.51 39.32 109.29 39.32 109.29 37.19 113.38 37.19 113.38 33.1 115.51 33.1 115.51 39.32"/><polygon class="cls-2" points="115.51 38.26 113.38 38.26 113.38 32.04 119.59 32.04 119.59 34.17 115.51 34.17 115.51 38.26"/><path class="cls-3" d="M25.21,120.57A4.63,4.63,0,1,1,29.84,116,4.62,4.62,0,0,1,25.21,120.57Zm0-7.11A2.49,2.49,0,1,0,27.7,116,2.49,2.49,0,0,0,25.21,113.46Z"/><path class="cls-4" d="M182.05,64.84l-5.27-5.27,5.27-5.27,5.27,5.27Zm-2.26-5.27,2.26,2.26,2.25-2.26-2.25-2.26Z"/><rect class="cls-2" x="79.72" y="7.87" width="7.74" height="2.13"/><rect class="cls-2" x="82.52" y="5.06" width="2.13" height="7.74"/><ellipse class="cls-5" cx="103.13" cy="138.74" rx="56.44" ry="32.58"/><path class="cls-6" d="M36.05,89.79V84.1H47.87a54,54,0,0,1,7.73-5.41c26.07-15,68.34-15,94.41,0a54.64,54.64,0,0,1,7.74,5.41h11.81v5.72h0c0,9.86-6.52,19.73-19.55,27.25-26.07,15.06-68.34,15.06-94.41,0C42.55,109.54,36,99.66,36.05,89.79Z"/><path class="cls-6" d="M36.05,89.79V84.1H47.87a54,54,0,0,1,7.73-5.41c26.07-15,68.34-15,94.41,0a54.64,54.64,0,0,1,7.74,5.41h11.81v5.72h0c0,9.86-6.52,19.73-19.55,27.25-26.07,15.06-68.34,15.06-94.41,0C42.55,109.54,36,99.66,36.05,89.79Z"/><path class="cls-7" d="M149.34,78.69a54.07,54.07,0,0,1,7.74,5.41h.67A54.64,54.64,0,0,0,150,78.69c-13.12-7.57-30.34-11.33-47.54-11.28C119.45,67.46,136.39,71.21,149.34,78.69Z"/><path class="cls-7" d="M168.9,84.1v5.72c0,9.86-6.52,19.73-19.56,27.25s-29.9,11.24-46.87,11.29c17.2,0,34.42-3.71,47.54-11.29s19.55-17.39,19.55-27.25V84.1Z"/><ellipse class="cls-8" cx="102.8" cy="84.1" rx="66.76" ry="38.54"/><path class="cls-7" d="M150,56.84c-13.14-7.59-30.4-11.34-47.62-11.28,17,.06,33.86,3.82,46.79,11.28,26.07,15,26.07,39.46,0,54.51-12.93,7.46-29.85,11.22-46.79,11.28,17.22.06,34.48-3.69,47.62-11.28C176.08,96.3,176.08,71.89,150,56.84Z"/><path class="cls-7" d="M73,101.51c16.66,9.62,43.67,9.62,60.33,0,7.82-4.51,12.05-10.34,12.45-16.26s-4-13.27-12.82-18.37c-16.66-9.62-42.7-9.64-59.36,0-8.89,5.14-13.63,11.78-13,18.5C61,91.23,65.19,97,73,101.51Z"/><path class="cls-9" d="M111.75,79.3a18.77,18.77,0,0,0-17.24,0c-2.58,1.49-4,3.42-3.78,5.38.15,1.7,1.35,3.38,3.61,4.69,4.84,2.79,12.68,2.79,17.52,0,2.27-1.31,3.5-3,3.62-4.72S114.32,80.78,111.75,79.3Zm-.63,9.64a17.71,17.71,0,0,1-16,0c-2.07-1.2-3.18-2.74-3.31-4.3-.16-1.78,1.1-3.55,3.46-4.92a17.19,17.19,0,0,1,15.79,0c2.36,1.35,3.53,3.28,3.42,4.88S113.2,87.74,111.12,88.94Z"/><path class="cls-9" d="M111.75,79.3a18.77,18.77,0,0,0-17.24,0c-2.58,1.49-4,3.42-3.78,5.38.15,1.7,1.35,3.38,3.61,4.69,4.84,2.79,12.68,2.79,17.52,0,2.27-1.31,3.5-3,3.62-4.72S114.32,80.78,111.75,79.3Zm-.63,9.64a17.71,17.71,0,0,1-16,0c-2.07-1.2-3.18-2.74-3.31-4.3-.16-1.78,1.1-3.55,3.46-4.92a17.19,17.19,0,0,1,15.79,0c2.36,1.35,3.53,3.28,3.42,4.88S113.2,87.74,111.12,88.94Z"/><path class="cls-9" d="M73,69.2c16.66-9.62,43.67-9.62,60.34,0,7.77,4.49,11.91,10.28,12.43,16.16.59-6.72-4.63-13.58-13.52-18.71-16.66-9.62-42.39-9.35-59.05.27-8.89,5.13-13.23,11.72-12.64,18.44C61,79.48,65.19,73.69,73,69.2Z"/><path class="cls-3" d="M73,67.89c16.66-9.62,43.67-9.62,60.34,0,8.06,4.65,12.21,10.71,12.47,16.81.27-6.5-3.88-13.06-12.47-18-16.67-9.62-43.68-9.62-60.34,0-8.6,5-12.75,11.52-12.47,18C60.75,78.6,64.9,72.54,73,67.89Z"/><path class="cls-10" d="M62.43,61.83a2.26,2.26,0,0,1,2.1.29c.44.41.22,1-.5,1.21a2.23,2.23,0,0,1-2.1-.29C61.48,62.63,61.71,62.09,62.43,61.83Z"/><path class="cls-11" d="M57.39,64.27a2.38,2.38,0,0,1,2.13,0c.56.35.53.9-.08,1.22a2.35,2.35,0,0,1-2.13,0C56.75,65.15,56.78,64.6,57.39,64.27Z"/><path class="cls-12" d="M53.26,67.22a2.32,2.32,0,0,1,2.1-.19c.68.28.83.82.34,1.21a2.29,2.29,0,0,1-2.1.2C52.93,68.15,52.78,67.61,53.26,67.22Z"/><path class="cls-13" d="M50.21,70.58a2.09,2.09,0,0,1,2-.42c.76.2,1.09.71.74,1.15a2.07,2.07,0,0,1-2,.42C50.2,71.53,49.87,71,50.21,70.58Z"/><path class="cls-14" d="M48.35,74.22a1.77,1.77,0,0,1,1.81-.64c.81.11,1.31.58,1.12,1s-1,.76-1.81.65S48.16,74.69,48.35,74.22Z"/><path class="cls-15" d="M47.91,78.41c-.36-.43,0-1,.69-1.16a2.11,2.11,0,0,1,2,.4c.37.43.06.95-.69,1.16A2.12,2.12,0,0,1,47.91,78.41Z"/><circle class="cls-16" cx="26.17" cy="20.28" r="1.43"/><circle class="cls-17" cx="194.7" cy="68.29" r="0.92"/><circle class="cls-17" cx="13.28" cy="105.87" r="1.29"/><path class="cls-17" d="M45.47,137A1.24,1.24,0,0,1,43,137a1.24,1.24,0,1,1,2.48,0Z"/><circle class="cls-17" cx="0.71" cy="90.61" r="0.71"/><path class="cls-18" d="M131.75.84a.85.85,0,1,1-.84-.84A.85.85,0,0,1,131.75.84Z"/><path class="cls-18" d="M158.49,181.69a1.22,1.22,0,1,1-1.22-1.22A1.22,1.22,0,0,1,158.49,181.69Z"/><circle class="cls-18" cx="144.31" cy="171.97" r="0.73"/><path class="cls-18" d="M159.37,168.67a.37.37,0,1,1-.37-.36A.37.37,0,0,1,159.37,168.67Z"/><path class="cls-16" d="M16.61,90.9a1.16,1.16,0,1,1-1.64,0A1.16,1.16,0,0,1,16.61,90.9Z"/><circle class="cls-17" cx="140.15" cy="22.5" r="0.74"/><path class="cls-17" d="M58.28,147.54a1,1,0,1,1-1.48,0A1,1,0,0,1,58.28,147.54Z"/><path class="cls-17" d="M93.93,147.69a1,1,0,1,1-1.43,0A1,1,0,0,1,93.93,147.69Z"/><circle class="cls-17" cx="41.56" cy="146.73" r="0.58"/><path class="cls-18" d="M65.26,19.92a.69.69,0,0,1-1,1,.7.7,0,0,1,0-1A.68.68,0,0,1,65.26,19.92Z"/><path class="cls-18" d="M184.48,108.43a1,1,0,0,1,0,1.4,1,1,0,0,1-1.4-1.4A1,1,0,0,1,184.48,108.43Z"/><circle class="cls-18" cx="170.76" cy="110.99" r="0.6"/><circle class="cls-18" cx="177.3" cy="100.66" r="0.3"/><polygon class="cls-2" points="94.23 50.93 86.12 50.93 86.12 42.82 88.26 42.82 88.26 48.79 94.23 48.79 94.23 50.93"/></g></g></g></svg>