<svg xmlns="http://www.w3.org/2000/svg" xmlns:xlink="http://www.w3.org/1999/xlink" viewBox="0 0 98.8 205.83"><defs><style>.cls-1{isolation:isolate;}.cls-2,.cls-3,.cls-4,.cls-5,.cls-6,.cls-7,.cls-8{mix-blend-mode:color-dodge;}.cls-2{fill:url(#radial-gradient);}.cls-3{fill:url(#radial-gradient-2);}.cls-4{fill:url(#radial-gradient-3);}.cls-5{fill:url(#radial-gradient-4);}.cls-6{fill:url(#radial-gradient-5);}.cls-7{fill:url(#radial-gradient-6);}.cls-8{fill:url(#radial-gradient-7);}.cls-9{fill:url(#linear-gradient);}.cls-10{fill:url(#linear-gradient-2);}.cls-11,.cls-22,.cls-23,.cls-38,.cls-39,.cls-41{mix-blend-mode:multiply;}.cls-11{fill:url(#radial-gradient-8);}.cls-12{fill:url(#linear-gradient-3);}.cls-13{fill:url(#linear-gradient-4);}.cls-14{fill:url(#linear-gradient-5);}.cls-15{fill:url(#linear-gradient-6);}.cls-16{fill:url(#linear-gradient-7);}.cls-17{fill:url(#linear-gradient-8);}.cls-18{fill:url(#linear-gradient-9);}.cls-19{fill:url(#linear-gradient-10);}.cls-20{fill:url(#linear-gradient-11);}.cls-21{fill:url(#linear-gradient-12);}.cls-22{fill:#c4bc9a;opacity:0.38;}.cls-23,.cls-40,.cls-41{fill:#0031ba;}.cls-23,.cls-38{opacity:0.53;}.cls-24{fill:url(#linear-gradient-13);}.cls-25{fill:url(#linear-gradient-14);}.cls-26{fill:url(#linear-gradient-15);}.cls-27{fill:url(#linear-gradient-16);}.cls-28{fill:url(#linear-gradient-17);}.cls-29{fill:url(#linear-gradient-18);}.cls-30{fill:url(#linear-gradient-19);}.cls-31{fill:url(#linear-gradient-20);}.cls-32{fill:url(#linear-gradient-21);}.cls-33,.cls-34{mix-blend-mode:overlay;}.cls-33{fill:url(#linear-gradient-22);}.cls-34{fill:url(#linear-gradient-23);}.cls-35{fill:url(#linear-gradient-24);}.cls-36{fill:url(#linear-gradient-25);}.cls-37{fill:url(#linear-gradient-26);}.cls-39,.cls-41{opacity:0.4;}</style><radialGradient id="radial-gradient" cx="86.02" cy="176.39" r="5.56" gradientUnits="userSpaceOnUse"><stop offset="0" stop-color="#fff"/><stop offset="1"/></radialGradient><radialGradient id="radial-gradient-2" cx="96.14" cy="133.45" r="2.66" xlink:href="#radial-gradient"/><radialGradient id="radial-gradient-3" cx="4.96" cy="51.75" r="4.96" xlink:href="#radial-gradient"/><radialGradient id="radial-gradient-4" cx="18.5" cy="19.49" r="1.82" xlink:href="#radial-gradient"/><radialGradient id="radial-gradient-5" cx="72.97" cy="7.91" r="2.64" xlink:href="#radial-gradient"/><radialGradient id="radial-gradient-6" cx="85.05" cy="38.34" r="2.64" xlink:href="#radial-gradient"/><radialGradient id="radial-gradient-7" cx="20.73" cy="165.12" r="2.65" xlink:href="#radial-gradient"/><linearGradient id="linear-gradient" x1="49.39" y1="197.1" x2="49.39" y2="137.27" gradientUnits="userSpaceOnUse"><stop offset="0" stop-color="#fffb03"/><stop offset="1" stop-color="#ff7006"/></linearGradient><linearGradient id="linear-gradient-2" x1="48.97" y1="135.19" x2="48.97" y2="127.24" gradientUnits="userSpaceOnUse"><stop offset="0.04" stop-color="#fffdf5"/><stop offset="1" stop-color="#efebda"/></linearGradient><radialGradient id="radial-gradient-8" cx="48.75" cy="124.83" r="16.56" gradientTransform="translate(0 92.2) scale(1 0.26)" gradientUnits="userSpaceOnUse"><stop offset="0.01" stop-color="#afa477"/><stop offset="0.15" stop-color="#b2a87d"/><stop offset="0.33" stop-color="#bcb38e"/><stop offset="0.54" stop-color="#ccc5a9"/><stop offset="0.77" stop-color="#e3dfcf"/><stop offset="1" stop-color="#fff"/></radialGradient><linearGradient id="linear-gradient-3" x1="86.78" y1="121.19" x2="82.32" y2="111.62" gradientUnits="userSpaceOnUse"><stop offset="0" stop-color="#0089f9"/><stop offset="1" stop-color="#0031ba"/></linearGradient><linearGradient id="linear-gradient-4" x1="96.12" y1="123.49" x2="70.88" y2="96.23" gradientUnits="userSpaceOnUse"><stop offset="0.02" stop-color="#00bff9"/><stop offset="1" stop-color="#006ee6"/></linearGradient><linearGradient id="linear-gradient-5" x1="71.28" y1="95.62" x2="82.22" y2="95.62" gradientUnits="userSpaceOnUse"><stop offset="0.07" stop-color="#bfb89d"/><stop offset="1" stop-color="#efebda"/></linearGradient><linearGradient id="linear-gradient-6" x1="71.28" y1="102.96" x2="74.18" y2="102.96" xlink:href="#linear-gradient-2"/><linearGradient id="linear-gradient-7" x1="8.37" y1="120.92" x2="11.27" y2="113.12" xlink:href="#linear-gradient-3"/><linearGradient id="linear-gradient-8" x1="0.86" y1="122.11" x2="20.75" y2="98.4" xlink:href="#linear-gradient-4"/><linearGradient id="linear-gradient-9" x1="1975.86" y1="102.96" x2="1978.76" y2="102.96" gradientTransform="matrix(-1, 0, 0, 1, 1998.86, 0)" xlink:href="#linear-gradient-2"/><linearGradient id="linear-gradient-10" x1="10.1" y1="48.33" x2="81" y2="81.06" xlink:href="#linear-gradient-2"/><linearGradient id="linear-gradient-11" x1="26.02" y1="19.22" x2="71.02" y2="19.22" gradientUnits="userSpaceOnUse"><stop offset="0" stop-color="#0031ba"/><stop offset="1" stop-color="#0089f9"/></linearGradient><linearGradient id="linear-gradient-12" x1="52.93" y1="30.68" x2="32.48" y2="11.77" xlink:href="#linear-gradient-11"/><linearGradient id="linear-gradient-13" x1="2001.01" y1="149.09" x2="1962.31" y2="85.76" gradientTransform="matrix(-1, 0, 0, 1, 2007.03, 0)" xlink:href="#linear-gradient-11"/><linearGradient id="linear-gradient-14" x1="1973.94" y1="128.48" x2="1995.99" y2="128.48" gradientTransform="matrix(-1, 0, 0, 1, 2007.03, 0)" gradientUnits="userSpaceOnUse"><stop offset="0" stop-color="#006ee6"/><stop offset="0.98" stop-color="#00bff9"/></linearGradient><linearGradient id="linear-gradient-15" x1="-14.5" y1="149.09" x2="-53.2" y2="85.76" gradientTransform="translate(104.1)" xlink:href="#linear-gradient-11"/><linearGradient id="linear-gradient-16" x1="-41.57" y1="128.48" x2="-19.52" y2="128.48" gradientTransform="translate(104.1)" xlink:href="#linear-gradient-14"/><linearGradient id="linear-gradient-17" x1="24.56" y1="63.54" x2="46.66" y2="63.54" gradientTransform="matrix(1, 0, 0, 1, 0, 0)" xlink:href="#linear-gradient-14"/><linearGradient id="linear-gradient-18" x1="27.7" y1="72.18" x2="41.84" y2="56.74" xlink:href="#linear-gradient-11"/><linearGradient id="linear-gradient-19" x1="25.52" y1="68.98" x2="39.01" y2="54.25" xlink:href="#linear-gradient-11"/><linearGradient id="linear-gradient-20" x1="30.72" y1="74.68" x2="44.17" y2="59.99" xlink:href="#linear-gradient-11"/><linearGradient id="linear-gradient-21" x1="52.27" y1="81.65" x2="34.1" y2="48.95" xlink:href="#linear-gradient-11"/><linearGradient id="linear-gradient-22" x1="29.68" y1="63.62" x2="51.23" y2="44.93" gradientUnits="userSpaceOnUse"><stop offset="0" stop-color="#fff" stop-opacity="0"/><stop offset="1" stop-color="#fff"/></linearGradient><linearGradient id="linear-gradient-23" x1="34.79" y1="69.51" x2="56.33" y2="50.82" xlink:href="#linear-gradient-22"/><linearGradient id="linear-gradient-24" x1="74.6" y1="50.59" x2="29.37" y2="8.77" xlink:href="#linear-gradient-11"/><linearGradient id="linear-gradient-25" x1="16.62" y1="91.52" x2="81.32" y2="91.52" gradientTransform="matrix(1, 0, 0, 1, 0, 0)" xlink:href="#linear-gradient-14"/><linearGradient id="linear-gradient-26" x1="16.62" y1="82.99" x2="81.32" y2="82.99" gradientTransform="matrix(1, 0, 0, 1, 0, 0)" xlink:href="#linear-gradient-14"/></defs><title>rakett_01</title><g class="cls-1"><g id="Layer_2" data-name="Layer 2"><g id="COLORS"><circle class="cls-2" cx="86.02" cy="176.39" r="5.56"/><path class="cls-3" d="M98.8,133.45a2.66,2.66,0,1,1-2.66-2.65A2.66,2.66,0,0,1,98.8,133.45Z"/><path class="cls-4" d="M9.93,51.75a5,5,0,1,1-5-5A5,5,0,0,1,9.93,51.75Z"/><path class="cls-5" d="M20.33,19.49a1.83,1.83,0,1,1-1.82-1.82A1.83,1.83,0,0,1,20.33,19.49Z"/><path class="cls-6" d="M75.61,7.91A2.64,2.64,0,1,1,73,5.27,2.64,2.64,0,0,1,75.61,7.91Z"/><path class="cls-7" d="M87.68,38.34a2.64,2.64,0,1,1-2.63-2.64A2.64,2.64,0,0,1,87.68,38.34Z"/><path class="cls-8" d="M23.38,165.12a2.65,2.65,0,1,1-2.65-2.65A2.65,2.65,0,0,1,23.38,165.12Z"/><path class="cls-9" d="M61.67,150c0-12-5.5-21.75-12.28-21.75S37.11,138,37.11,150s12.28,55.79,12.28,55.79S61.67,162.05,61.67,150Z"/><path class="cls-10" d="M30,121.08a46.16,46.16,0,0,0,3.88,13.78c8.5,4.53,21.57,4.56,30.08.07a46.2,46.2,0,0,0,3.92-13.85Z"/><path class="cls-11" d="M31,126.24c3.9,2.23,10.39,3.69,17.75,3.69,7.75,0,14.54-1.62,18.35-4.05.17-.73.32-1.47.45-2.21-10.92,4.81-26.17,4.78-37.09-.07C30.58,124.48,30.75,125.36,31,126.24Z"/><g class="cls-1"><path class="cls-12" d="M87,120.2c-.37-4.58-2.06-7-4.1-8.16L80,110.38c2,1.19,3.73,3.58,4.1,8.16a1.79,1.79,0,0,0,.77,1.47l2.85,1.65A1.77,1.77,0,0,1,87,120.2Z"/><path class="cls-13" d="M74.13,95.77c17.34-2,17,23.49,17,24.83l-1.53.88c-1.38.8-2.51.23-2.64-1.28-1-12.7-12.19-8.62-12.78-8.4Z"/><path class="cls-14" d="M79.37,95.58l-.12-.06-.08,0-.42-.22-.13-.06-.54-.25h0l-.08,0-.44-.17-.17-.06-.43-.14-.1,0h0q-.29-.09-.57-.15l-.12,0-.49-.1h-.09l-.1,0-.48-.07-.16,0L74.14,94H74l-.59,0h-.94l-.37,0-.22,0-.61.06,2.85,1.65.61-.06H75l.37,0c.25,0,.5,0,.74,0h.2l.59,0H77c.22,0,.43,0,.64.06l.16,0,.48.07.19,0L79,96l.12,0,.57.15.15,0,.43.14.17.06.44.17.1,0,.54.24.13.07.42.22.2.11Z"/><polygon class="cls-15" points="74.18 111.8 71.33 110.14 71.28 94.12 74.13 95.78 74.18 111.8"/></g><g class="cls-1"><path class="cls-16" d="M7.32,120.2c.37-4.58,2.07-7,4.1-8.16l2.85-1.66c-2,1.19-3.73,3.58-4.1,8.16A1.77,1.77,0,0,1,9.4,120l-2.85,1.65A1.75,1.75,0,0,0,7.32,120.2Z"/><path class="cls-17" d="M20.15,95.77c-17.34-2-17,23.49-17,24.83l1.53.88c1.38.8,2.52.23,2.64-1.28,1-12.7,12.2-8.62,12.78-8.4Z"/><polygon class="cls-18" points="20.1 111.8 22.95 110.14 23 94.12 20.15 95.78 20.1 111.8"/></g><path class="cls-19" d="M80.94,94.34A78.71,78.71,0,0,1,74,121.17c-14.17,7.47-36,7.43-50.12-.13A78.54,78.54,0,0,1,17,94.23C15.35,75.46,19.15,56,24.63,40.57a120.27,120.27,0,0,1,5.13-12.29C37.11,13.21,45.32,2.56,48,.33a1.46,1.46,0,0,1,1.85,0c2.71,2.23,10.93,12.88,18.29,28a119.66,119.66,0,0,1,5.15,12.37C78.81,56.07,82.6,75.57,80.94,94.34Z"/><path class="cls-20" d="M70.85,34.2c-.87-2.08-1.77-4.06-2.67-5.92C60.82,13.21,52.6,2.56,49.89.33A1.46,1.46,0,0,0,48,.33c-2.72,2.23-10.93,12.88-18.28,28Q28.41,31,27.12,34.13C40,39.84,58,39.87,70.85,34.2Z"/><path class="cls-21" d="M49.38.07A242.78,242.78,0,0,0,38.12,37.45a48.94,48.94,0,0,1-11-3.32c.28-.67.58-1.33.86-2,.37-.84.74-1.66,1.11-2.47.24-.46.46-.93.68-1.39C37.12,13.22,45.32,2.56,48.05.33A1.48,1.48,0,0,1,49.18,0,.73.73,0,0,1,49.38.07Z"/><path class="cls-22" d="M49.38.07A1.48,1.48,0,0,0,48,.33c-2.72,2.23-10.93,12.88-18.28,28a120.27,120.27,0,0,0-5.13,12.29C19.15,56,15.35,75.46,17,94.23A78.54,78.54,0,0,0,23.88,121a48.07,48.07,0,0,0,14,4.69C23.37,71.1,43.86,13.91,49.38.07Z"/><path class="cls-23" d="M32.81,87.06a67.24,67.24,0,0,1-16-5c0-.5-.05-1-.07-1.51a0,0,0,0,1,0,0c0-.77.06-1.54.12-2.31a62.7,62.7,0,0,0,16,5.3h0C32.79,84.7,32.8,85.87,32.81,87.06Z"/><path class="cls-23" d="M33.15,95.65a67.65,67.65,0,0,1-16.37-5.06c-.08-1.27-.12-2.55-.16-3.83v-.13A61.84,61.84,0,0,0,33,92.07C33,93.26,33.07,94.45,33.15,95.65Z"/><path class="cls-24" d="M11.05,155.29c0-1.59-.59-31.91,20.32-53.62l-3.64.14S8.66,119.25,8.75,154Z"/><path class="cls-25" d="M31.37,101.67c-20.91,21.72-20.35,52-20.32,53.62l1.85-1.07A7.09,7.09,0,0,0,16.07,149c1.17-16.76,16.31-28.6,17-29.15Z"/><path class="cls-26" d="M84.58,155.29c0-1.59.58-31.91-20.32-53.62l3.63.14S87,119.25,86.87,154Z"/><path class="cls-27" d="M64.26,101.67c20.9,21.72,20.35,52,20.32,53.62l-1.86-1.07A7.12,7.12,0,0,1,79.55,149c-1.17-16.76-16.31-28.6-17-29.15Z"/><path class="cls-28" d="M35.65,50.85c6.1,3.52,11,12.06,11,19.07s-5,9.84-11.08,6.32-11-12.07-11-19.08S29.55,47.32,35.65,50.85Z"/><path class="cls-29" d="M35.64,53.75c4.71,2.72,8.51,9.3,8.49,14.71s-3.84,7.59-8.55,4.87S27.07,64,27.09,58.62,30.93,51,35.64,53.75Z"/><path class="cls-30" d="M40,57.65l-10,10a19.82,19.82,0,0,1-2.39-5.43l8.32-8.33A16.14,16.14,0,0,1,40,57.65Z"/><path class="cls-31" d="M43.68,65l-8.24,8.25a15.64,15.64,0,0,1-4.13-3.71l10-10A19.73,19.73,0,0,1,43.68,65Z"/><path class="cls-32" d="M49.09,68c0-.18,0-.36,0-.54a1.94,1.94,0,0,1,0-.24v-.11c0-.06,0-.12,0-.18A5,5,0,0,0,49,66.4c0-.19-.05-.37-.08-.56v0l-.09-.52-.12-.57a1.6,1.6,0,0,0-.05-.21l0-.12c0-.08,0-.17-.05-.25s-.1-.39-.16-.59l-.12-.43,0-.08a.19.19,0,0,0,0-.07L48,62.39l-.2-.57a.42.42,0,0,0,0-.1l0-.09c0-.11-.09-.23-.13-.35s-.14-.36-.22-.54-.11-.25-.16-.38l0-.07,0-.07c-.08-.18-.16-.36-.25-.54s-.18-.39-.28-.58l0-.09-.06-.11-.24-.46c-.1-.19-.21-.38-.32-.57l-.16-.29-.07-.11c-.09-.17-.2-.32-.3-.49s-.29-.47-.44-.71a1,1,0,0,1-.08-.11q-.33-.51-.69-1h0l-.5-.64L43.35,54h0l-.43-.5c-.14-.16-.28-.32-.43-.47l-.07-.08-.08-.08-.3-.32-.47-.46L41.42,52l-.11-.1-.23-.22-.49-.43L40.37,51l-.11-.1-.16-.13-.49-.37-.35-.25-.07,0-.06,0-.47-.31-.47-.29-.11-.06-.35-.2L37.28,49,37,48.86l-.07,0-.09,0-.44-.19-.45-.17-.07,0-.07,0-.3-.1-.45-.13-.22,0-.1,0-.14,0L34.11,48l-.29,0h-.2a4.56,4.56,0,0,0-.52,0h-.58l-.63.09h0l-.14,0a6.32,6.32,0,0,0-.62.18l-.07,0-.1,0a4.84,4.84,0,0,0-.73.34h0l-2.44,1.42a5.42,5.42,0,0,1,.73-.35l.1,0a5.15,5.15,0,0,1,.7-.2l.13,0a7.24,7.24,0,0,1,.83-.1h.17a6,6,0,0,1,.84,0h.1a7.59,7.59,0,0,1,.92.14l.09,0a9.6,9.6,0,0,1,1,.27l.06,0a9.28,9.28,0,0,1,1,.43l.07,0c.36.17.73.35,1.1.57s.74.45,1.1.7a.18.18,0,0,1,.07.05c.34.23.67.49,1,.75l.11.09c.32.26.63.54.94.82l.11.1c.31.3.62.6.92.92l.07.08c.32.34.63.69.94,1.06h0c.32.37.62.76.91,1.15h0c.27.36.52.73.77,1.11s.3.47.44.71.25.4.37.6.11.19.16.28c.2.34.38.69.56,1l.06.12c.21.42.41.85.6,1.28l0,.06c.18.43.36.85.51,1.28l0,.08c.16.44.3.88.44,1.32a.24.24,0,0,0,0,.08c.13.42.24.84.34,1.27l0,.12c.1.43.18.87.25,1.3v0c.07.44.13.87.16,1.3,0,0,0,.07,0,.11,0,.43,0,.85,0,1.27a11.67,11.67,0,0,1-.06,1.21.41.41,0,0,1,0,.11,8.23,8.23,0,0,1-.15,1,.59.59,0,0,0,0,.13c-.07.32-.15.63-.24.92l-.06.16a8.11,8.11,0,0,1-.3.79.59.59,0,0,0,0,.08,6.24,6.24,0,0,1-.44.81l-.07.09c-.14.2-.28.39-.43.57l-.17.19c-.13.14-.27.27-.41.4l-.18.15a6.74,6.74,0,0,1-.64.45h0l2.44-1.42a5.47,5.47,0,0,0,.63-.44c.07-.05.12-.11.18-.16a5.33,5.33,0,0,0,.42-.4l.17-.19a6.34,6.34,0,0,0,.43-.56l.06-.1,0,0q.23-.36.42-.75v0l0-.09c.08-.16.15-.33.22-.51l.09-.28.06-.16c0-.05,0-.09,0-.14a5.29,5.29,0,0,0,.15-.57,1.55,1.55,0,0,0,0-.21l0-.13c0-.06,0-.13,0-.2s.06-.35.08-.52l0-.31s0-.07,0-.1,0-.08,0-.13,0-.34,0-.52,0-.35,0-.53v0C49.1,68.34,49.1,68.18,49.09,68Z"/><path class="cls-33" d="M40,57.65l-10,10a19.82,19.82,0,0,1-2.39-5.43l8.32-8.33A16.14,16.14,0,0,1,40,57.65Z"/><path class="cls-34" d="M43.68,65l-8.24,8.25a15.64,15.64,0,0,1-4.13-3.71l10-10A19.73,19.73,0,0,1,43.68,65Z"/><path class="cls-35" d="M70.85,34.2c-.87-2.08-1.77-4.06-2.67-5.92C60.82,13.21,52.6,2.56,49.89.33A1.46,1.46,0,0,0,48,.33c-2.72,2.23-10.93,12.88-18.28,28Q28.41,31,27.12,34.13C40,39.84,58,39.87,70.85,34.2Z"/><path class="cls-23" d="M49.38.07A242.78,242.78,0,0,0,38.12,37.45a48.94,48.94,0,0,1-11-3.32c.28-.67.58-1.33.86-2,.37-.84.74-1.66,1.11-2.47.24-.46.46-.93.68-1.39C37.12,13.22,45.32,2.56,48.05.33A1.48,1.48,0,0,1,49.18,0,.73.73,0,0,1,49.38.07Z"/><path class="cls-36" d="M81.19,90c.07-1.33.11-2.66.13-4-8.89,4.84-20.5,7.5-32.89,7.5-11.87,0-23-2.43-31.81-6.89,0,1.32.09,2.64.16,4C35.65,99.34,62.75,99.15,81.19,90Z"/><path class="cls-37" d="M81.19,81.49c.07-1.33.11-2.66.13-4C72.43,82.34,60.82,85,48.43,85c-11.87,0-23-2.44-31.81-6.89,0,1.32.09,2.64.16,4C35.65,90.81,62.75,90.62,81.19,81.49Z"/><g class="cls-38"><g class="cls-39"><path class="cls-40" d="M33.15,95.65a67.65,67.65,0,0,1-16.37-5.06c-.08-1.27-.12-2.55-.16-3.83v-.13A61.84,61.84,0,0,0,33,92.07C33,93.26,33.07,94.45,33.15,95.65Z"/></g><path class="cls-41" d="M32.81,87.06a67.24,67.24,0,0,1-16-5c0-.5-.05-1-.07-1.51a0,0,0,0,1,0,0c0-.81-.07-1.61-.09-2.42l.21.11a62.7,62.7,0,0,0,16,5.3h0C32.79,84.7,32.8,85.87,32.81,87.06Z"/></g></g></g></g></svg>