<svg xmlns="http://www.w3.org/2000/svg" xmlns:xlink="http://www.w3.org/1999/xlink" viewBox="0 0 363.94 250.17"><defs><style>.cls-1{fill:none;}.cls-2{isolation:isolate;}.cls-3{fill:url(#linear-gradient);}.cls-4{fill:url(#linear-gradient-2);}.cls-5{fill:#122d54;}.cls-6{fill:#124fb0;}.cls-7{fill:#093678;}.cls-8{fill:url(#Безымянный_градиент_10);}.cls-9{fill:url(#Безымянный_градиент_10-2);}.cls-10{fill:url(#Безымянный_градиент_10-3);}.cls-11{fill:url(#Безымянный_градиент_10-4);}.cls-12{fill:url(#Безымянный_градиент_10-5);}.cls-13{fill:url(#Безымянный_градиент_10-6);}.cls-14{fill:url(#Безымянный_градиент_10-7);}.cls-15{fill:url(#Безымянный_градиент_10-8);}.cls-16{fill:url(#Безымянный_градиент_10-9);}.cls-17{fill:#194078;}.cls-18{fill:#0e3d87;}.cls-19{clip-path:url(#clip-path);}.cls-20{fill:#0071bc;}.cls-21{fill:url(#Безымянный_градиент_10-10);}.cls-22{fill:url(#Безымянный_градиент_10-11);}.cls-23{fill:url(#Безымянный_градиент_10-12);}.cls-24{fill:url(#Безымянный_градиент_10-13);}.cls-25{fill:url(#Безымянный_градиент_10-14);}.cls-26{fill:url(#Безымянный_градиент_10-15);}.cls-27{fill:url(#Безымянный_градиент_10-16);}.cls-28{fill:url(#Безымянный_градиент_10-17);}.cls-29{fill:url(#Безымянный_градиент_10-18);}.cls-30{clip-path:url(#clip-path-2);}.cls-31{fill:#00d0ff;}.cls-32{mix-blend-mode:screen;}.cls-33{clip-path:url(#clip-path-3);}.cls-34,.cls-35{opacity:0.7;}.cls-34{fill:url(#Безымянный_градиент_567);}.cls-35{fill:url(#Безымянный_градиент_556);}</style><linearGradient id="linear-gradient" x1="114.29" y1="73.98" x2="114.29" y2="-27.57" gradientTransform="translate(294.38 143.64) rotate(-120.77)" gradientUnits="userSpaceOnUse"><stop offset="0" stop-color="#fffb03"/><stop offset="1" stop-color="#ff7006"/></linearGradient><linearGradient id="linear-gradient-2" x1="69.78" y1="79.54" x2="69.78" y2="-22.01" gradientTransform="translate(296.32 142.94) rotate(-121.78)" xlink:href="#linear-gradient"/><linearGradient id="Безымянный_градиент_10" x1="7589.12" y1="-2809.54" x2="7599.49" y2="-2795.82" gradientTransform="matrix(-0.02, 0.75, 1.32, 0.12, 3937.39, -5282.84)" gradientUnits="userSpaceOnUse"><stop offset="0.11" stop-color="#1e9cd7"/><stop offset="0.55" stop-color="#0075be"/><stop offset="0.9" stop-color="#005b97"/></linearGradient><linearGradient id="Безымянный_градиент_10-2" x1="6554.85" y1="-4910.79" x2="6566.47" y2="-4895.41" gradientTransform="matrix(0.83, 0.66, 1.03, -0.39, -353.5, -6114.53)" xlink:href="#Безымянный_градиент_10"/><linearGradient id="Безымянный_градиент_10-3" x1="4414.43" y1="-5855.25" x2="4426.45" y2="-5839.34" gradientTransform="matrix(1.3, 0.25, 0.25, -0.72, -4178.26, -5221.12)" xlink:href="#Безымянный_градиент_10"/><linearGradient id="Безымянный_градиент_10-4" x1="2168.55" y1="-5202.1" x2="2179.51" y2="-5187.59" gradientTransform="matrix(1.16, -0.27, -0.64, -0.71, -5747.64, -3018.85)" xlink:href="#Безымянный_градиент_10"/><linearGradient id="Безымянный_градиент_10-5" x1="866.63" y1="-3259.39" x2="876.78" y2="-3245.95" gradientTransform="matrix(0.47, -0.67, -1.24, -0.37, -4327.14, -539.23)" xlink:href="#Безымянный_градиент_10"/><linearGradient id="Безымянный_градиент_10-6" x1="1115.4" y1="-935.44" x2="1126.36" y2="-920.94" gradientTransform="matrix(-0.43, -0.75, -1.25, 0.14, -581.78, 1057.07)" xlink:href="#Безымянный_градиент_10"/><linearGradient id="Безымянный_градиент_10-7" x1="2801.75" y1="685.6" x2="2813.78" y2="701.52" gradientTransform="matrix(-1.14, -0.48, -0.68, 0.59, 3736.26, 1024.6)" xlink:href="#Безымянный_градиент_10"/><linearGradient id="Безымянный_градиент_10-8" x1="5137.57" y1="844.68" x2="5149.17" y2="860.03" gradientTransform="matrix(-1.31, 0.01, 0.21, 0.76, 6606.65, -622.46)" xlink:href="#Безымянный_градиент_10"/><linearGradient id="Безымянный_градиент_10-9" x1="7028.54" y1="-535.5" x2="7038.93" y2="-521.75" gradientTransform="matrix(-0.87, 0.5, 1, 0.58, 6686.05, -3113.15)" xlink:href="#Безымянный_градиент_10"/><clipPath id="clip-path" transform="translate(24.15)"><path class="cls-1" d="M47.22,131.07c21.79,12.58,57.12,12.58,78.91,0s27-44.68,0-58.88c-22.27-11.7-56.64-11.72-78.91,0C21.09,86,25.43,118.49,47.22,131.07Zm6-55.44c18.5-10.68,48.51-10.69,67,0s19.25,28.09,0,37.37c-19.64,9.46-47.45,9.79-67,0C34.06,103.43,34.66,86.31,53.17,75.63Z"/></clipPath><linearGradient id="Безымянный_градиент_10-10" x1="7682.52" y1="-2703.43" x2="7692.89" y2="-2689.71" xlink:href="#Безымянный_градиент_10"/><linearGradient id="Безымянный_градиент_10-11" x1="6694.61" y1="-4889.53" x2="6706.22" y2="-4874.16" gradientTransform="matrix(0.83, 0.66, 1.03, -0.39, -353.5, -6114.53)" xlink:href="#Безымянный_градиент_10"/><linearGradient id="Безымянный_градиент_10-12" x1="4535.15" y1="-5928.8" x2="4547.17" y2="-5912.89" gradientTransform="matrix(1.3, 0.25, 0.25, -0.72, -4178.26, -5221.12)" xlink:href="#Безымянный_градиент_10"/><linearGradient id="Безымянный_градиент_10-13" x1="2213.74" y1="-5336.05" x2="2224.7" y2="-5321.54" gradientTransform="matrix(1.16, -0.27, -0.64, -0.71, -5747.64, -3018.85)" xlink:href="#Безымянный_градиент_10"/><linearGradient id="Безымянный_градиент_10-14" x1="815.15" y1="-3391.04" x2="825.3" y2="-3377.61" gradientTransform="matrix(0.47, -0.67, -1.24, -0.37, -4327.14, -539.23)" xlink:href="#Безымянный_градиент_10"/><linearGradient id="Безымянный_градиент_10-15" x1="991.35" y1="-1003.21" x2="1002.3" y2="-988.71" gradientTransform="matrix(-0.43, -0.75, -1.25, 0.14, -581.78, 1057.07)" xlink:href="#Безымянный_градиент_10"/><linearGradient id="Безымянный_градиент_10-16" x1="2663.16" y1="713.42" x2="2675.19" y2="729.34" gradientTransform="matrix(-1.14, -0.48, -0.68, 0.59, 3736.26, 1024.6)" xlink:href="#Безымянный_градиент_10"/><linearGradient id="Безымянный_градиент_10-17" x1="5049.29" y1="955.08" x2="5060.89" y2="970.43" gradientTransform="matrix(-1.31, 0.01, 0.21, 0.76, 6606.65, -622.46)" xlink:href="#Безымянный_градиент_10"/><linearGradient id="Безымянный_градиент_10-18" x1="7031.88" y1="-394.19" x2="7042.27" y2="-380.43" gradientTransform="matrix(-0.87, 0.5, 1, 0.58, 6686.05, -3113.15)" xlink:href="#Безымянный_градиент_10"/><clipPath id="clip-path-2" transform="translate(24.15)"><path class="cls-1" d="M185.65,214.33c21.78,12.58,57.11,12.58,78.9,0s27-44.68,0-58.87c-22.27-11.71-56.64-11.72-78.9,0C159.51,169.21,163.86,201.75,185.65,214.33Zm5.94-55.44c18.51-10.68,48.51-10.68,67,0s19.25,28.1,0,37.37c-19.63,9.46-47.45,9.79-67,0C172.49,186.7,173.09,169.58,191.59,158.89Z"/></clipPath><clipPath id="clip-path-3" transform="translate(24.15)"><path class="cls-1" d="M31.07,158.25s22.41-34.15,36.1-46.47c4.53-4.08,7.3-6.83,8.78-8.27-4.29,6-14.16,23-.78,24.3,10.37,1,33.68,7.42,90.28-16.57,9.42-4,19.74-8.8,31.1-14.66,37.08-19.08,37.54-10.2,38.25-7.8,7,23.42,2.35,34-28.1,46.44s-76.5,27.32-99.91,35.13-57.17,14.22-72.21,8.59C22.09,174.25,31.07,158.25,31.07,158.25Z"/></clipPath><linearGradient id="Безымянный_градиент_567" x1="4870.36" y1="125.08" x2="4977.01" y2="125.08" gradientTransform="matrix(1, 0, 0, -1, -4733.12, 250.16)" gradientUnits="userSpaceOnUse"><stop offset="0"/><stop offset="0.03" stop-color="#252525"/><stop offset="0.08" stop-color="#575757"/><stop offset="0.13" stop-color="#818181"/><stop offset="0.18" stop-color="#a2a2a2"/><stop offset="0.23" stop-color="#b9b9b9"/><stop offset="0.27" stop-color="#c7c7c7"/><stop offset="0.31" stop-color="#ccc"/><stop offset="0.84"/></linearGradient><linearGradient id="Безымянный_градиент_556" x1="3514.54" y1="1313.42" x2="3590.42" y2="1313.42" gradientTransform="matrix(1, 0, 0, -1, -3490.98, 1469.71)" gradientUnits="userSpaceOnUse"><stop offset="0"/><stop offset="0.06" stop-color="#3b3b3b"/><stop offset="0.13" stop-color="#7e7e7e"/><stop offset="0.19" stop-color="#afafaf"/><stop offset="0.23" stop-color="#cdcdcd"/><stop offset="0.26" stop-color="#d8d8d8"/><stop offset="0.34" stop-color="#fff"/><stop offset="0.41" stop-color="#f5f5f5"/><stop offset="0.84"/></linearGradient></defs><title>romskip_02</title><g class="cls-2"><g id="Layer_2" data-name="Layer 2"><g id="Layer_4" data-name="Layer 4"><path class="cls-3" d="M220.17,30.54c-17.52,10.43-26.95,26.9-21.06,36.8s24.87,9.46,42.39-1S312.22,0,312.22,0,237.69,20.11,220.17,30.54Z" transform="translate(24.15)"/><path class="cls-4" d="M248.3,66.07C231,76.81,221.83,93.45,227.89,103.24s25,9,42.37-1.72,69.53-67.61,69.53-67.61S265.63,55.33,248.3,66.07Z" transform="translate(24.15)"/><path class="cls-5" d="M1.24,231.39a6.07,6.07,0,0,1,.19-3.13c3.33-11,25.72-86.5,52.42-148,.13-.3,1.22-2.77,1.32-3.06,3.25-9.53,21.23-13.31,32.66-6.71l51.8,51.76,4.38,2.53,7.11-4.71c26.59-17.57,67-24.29,86.69-12.91s8.08,34.7-22.36,50.05l-8.16,4.11,4.33,2.5,89.32,19c3.79,2.18,5.88,4.73,6.26,7.27.07.42.08,11.58.05,12-.35,4.68-6.59,9.1-18.83,10.89l-15.15,2.31c-102,16.84-222.94,25.45-245.91,27.33a38.54,38.54,0,0,1-13.9-1.21C7,239.41,2.27,235.72,1.24,231.39Z" transform="translate(24.15)"/><path class="cls-6" d="M.26,230.3a16.38,16.38,0,0,1,.39-7.41c2.79-11.19,26.5-92.84,53.2-154.36.13-.3,1.22-2.77,1.32-3.06,3.25-9.53,21.23-13.31,32.66-6.71l51.8,51.77,4.38,2.52,7.11-4.7c26.59-17.58,67-24.3,86.69-12.92s8.08,34.7-22.36,50l-8.16,4.11,4.33,2.5,89.32,29.71c11.43,6.6,7.43,16.5-12.52,19.42l-15.15,2.31c-102,16.84-224.5,34.82-247.47,36.7A38.54,38.54,0,0,1,11.9,239C5.41,237.07,1,234.7.26,230.3Z" transform="translate(24.15)"/><path class="cls-7" d="M47.22,119.31c21.79,12.58,57.12,12.58,78.91,0s21.79-33,0-45.56S69,61.17,47.22,73.76,25.43,106.73,47.22,119.31Z" transform="translate(24.15)"/><path class="cls-8" d="M82,91.65c-8,7.55-14.74,12-30.38,15.78s19.09,12.32,29.15,1.81C88.59,101,84,91.17,84,91.17Z" transform="translate(24.15)"/><path class="cls-9" d="M79.51,94.13c2.25,8.76,2.09,14.67-5.7,23.36s28.33,2.36,24.34-9.43C95,98.84,80.58,93,80.58,93Z" transform="translate(24.15)"/><path class="cls-10" d="M80.4,96.94c11.48,5.87,17.94,10.46,21.65,20s24.32-8.71,8.14-16.26c-12.67-5.9-30.24-5-30.24-5Z" transform="translate(24.15)"/><path class="cls-11" d="M84.21,98.76c15.34.24,25.39,1.36,38.86,7.29S132,90.35,111.2,90.58A64.61,64.61,0,0,0,82.46,98Z" transform="translate(24.15)"/><path class="cls-12" d="M89.15,98.74c12-5.51,21-8.38,37.9-8.84s-10.64-15.34-26.33-7.45C88.46,88.63,86.91,98.77,86.91,98.77Z" transform="translate(24.15)"/><path class="cls-13" d="M92.92,96.89c3.07-8.68,6.73-14.2,19.19-20.83s-25.23-7.81-28.46,4.06c-2.52,9.28,7.59,17.62,7.59,17.62Z" transform="translate(24.15)"/><path class="cls-14" d="M93.74,94.07C86.43,86.28,83.09,80.7,85.25,71S57.24,74.38,68,84.67c8.4,8,25.43,10.68,25.43,10.68Z" transform="translate(24.15)"/><path class="cls-15" d="M91.24,91.61C77,88.36,68.19,85.32,59,77.08S41.35,90.07,61,94c15.39,3,31.38-1.26,31.38-1.26Z" transform="translate(24.15)"/><path class="cls-16" d="M86.58,90.65c-14.55,2.81-24.66,3.74-40.84.82s.91,16.52,20.32,12.2c15.19-3.38,22.65-12.61,22.65-12.61Z" transform="translate(24.15)"/><path class="cls-17" d="M81.81,97.65a10.44,10.44,0,0,0,9.4,0c2.59-1.5,2.59-3.93,0-5.43a10.38,10.38,0,0,0-9.4,0C79.21,93.72,79.21,96.15,81.81,97.65Z" transform="translate(24.15)"/><path class="cls-6" d="M81.81,95.79a10.38,10.38,0,0,0,9.4,0c2.59-1.5,2.59-3.93,0-5.43a10.38,10.38,0,0,0-9.4,0C79.21,91.86,79.21,94.29,81.81,95.79Z" transform="translate(24.15)"/><path class="cls-18" d="M82.83,94.91a8.16,8.16,0,0,0,7.36,0c2-1.18,2-3.08,0-4.25a8.16,8.16,0,0,0-7.36,0C80.8,91.83,80.8,93.73,82.83,94.91Z" transform="translate(24.15)"/><path class="cls-6" d="M82.83,93.25a8.16,8.16,0,0,0,7.36,0c2-1.17,2-3.08,0-4.25a8.16,8.16,0,0,0-7.36,0C80.8,90.17,80.8,92.08,82.83,93.25Z" transform="translate(24.15)"/><g class="cls-19"><path class="cls-17" d="M47.22,128.32c21.79,12.58,57.12,12.58,78.91,0,10.31-6,15.74-13.66,16.29-21.46,0-.51.05-11.59.05-12.11-.1-8.17-5.54-5.76-16.34-12-21.79-12.58-57.12-12.58-78.91,0-10.5,6.06-15.94,3.38-16.32,11.33,0,.29,0,11.15,0,11.45C30.88,113.78,36.33,122,47.22,128.32Z" transform="translate(24.15)"/><path class="cls-20" d="M47.22,117.75c21.79,12.58,57.12,12.58,78.91,0s21.79-33,0-45.56S69,59.61,47.22,72.19,25.43,105.17,47.22,117.75Z" transform="translate(24.15)"/></g><path class="cls-5" d="M2.05,224.91a5,5,0,0,1,.19-3.12C85.47,19.67,143.72,113.5,143.72,113.5l7.12-4.71c26.59-17.58,44.39-54.93,64.21-43.16l9.07-22.73c19.47,17.9,29.44,54.44,24,80.59-2.39,11.41-13.42,17.94-34.35,28.49l-8.15,4.11s-154.46,78.12-177.44,80a38.34,38.34,0,0,1-13.9-1.21C7.78,232.93,3.08,229.25,2.05,224.91Z" transform="translate(24.15)"/><path class="cls-7" d="M185.65,202.58c21.78,12.58,57.11,12.58,78.9,0s21.79-33,0-45.56-57.11-12.58-78.9,0S163.86,190,185.65,202.58Z" transform="translate(24.15)"/><path class="cls-21" d="M220.38,174.91c-8,7.55-14.74,12-30.38,15.79s19.09,12.31,29.15,1.8c7.87-8.23,3.31-18.06,3.31-18.06Z" transform="translate(24.15)"/><path class="cls-22" d="M217.94,177.39c2.25,8.77,2.08,14.68-5.7,23.37s28.33,2.35,24.33-9.44C233.45,182.1,219,176.26,219,176.26Z" transform="translate(24.15)"/><path class="cls-23" d="M218.83,180.2c11.48,5.88,17.93,10.47,21.64,20s24.33-8.71,8.14-16.26c-12.66-5.9-30.23-5-30.23-5Z" transform="translate(24.15)"/><path class="cls-24" d="M222.64,182c15.33.24,25.39,1.36,38.86,7.3s8.93-15.7-11.87-15.48a64.77,64.77,0,0,0-28.75,7.38Z" transform="translate(24.15)"/><path class="cls-25" d="M227.58,182c12-5.51,21-8.38,37.89-8.83s-10.64-15.35-26.32-7.45C226.88,171.89,225.34,182,225.34,182Z" transform="translate(24.15)"/><path class="cls-26" d="M231.34,180.15c3.08-8.68,6.73-14.2,19.2-20.83s-25.23-7.8-28.46,4.06c-2.52,9.29,7.59,17.63,7.59,17.63Z" transform="translate(24.15)"/><path class="cls-27" d="M232.17,177.34c-7.31-7.79-10.66-13.38-8.49-23.08s-28,3.38-17.28,13.67c8.4,8,25.44,10.69,25.44,10.69Z" transform="translate(24.15)"/><path class="cls-28" d="M229.67,174.88c-14.27-3.26-23.06-6.3-32.2-14.53s-17.69,13,2,16.88c15.4,3.05,31.39-1.25,31.39-1.25Z" transform="translate(24.15)"/><path class="cls-29" d="M225,173.92c-14.56,2.8-24.67,3.73-40.84.82s.91,16.51,20.32,12.19c15.18-3.38,22.64-12.6,22.64-12.6Z" transform="translate(24.15)"/><path class="cls-17" d="M220.23,180.91a10.4,10.4,0,0,0,9.41,0c2.59-1.5,2.59-3.93,0-5.43a10.4,10.4,0,0,0-9.41,0C217.64,177,217.64,179.41,220.23,180.91Z" transform="translate(24.15)"/><path class="cls-6" d="M220.23,179.05a10.4,10.4,0,0,0,9.41,0c2.59-1.49,2.59-3.92,0-5.42a10.4,10.4,0,0,0-9.41,0C217.64,175.13,217.64,177.56,220.23,179.05Z" transform="translate(24.15)"/><path class="cls-18" d="M221.25,178.17a8.09,8.09,0,0,0,7.36,0c2-1.17,2-3.07,0-4.25a8.16,8.16,0,0,0-7.36,0C219.22,175.1,219.22,177,221.25,178.17Z" transform="translate(24.15)"/><path class="cls-6" d="M221.25,176.51a8.09,8.09,0,0,0,7.36,0c2-1.17,2-3.07,0-4.25a8.16,8.16,0,0,0-7.36,0C219.22,173.44,219.22,175.34,221.25,176.51Z" transform="translate(24.15)"/><g class="cls-30"><path class="cls-17" d="M185.65,211.58c21.78,12.58,57.11,12.58,78.9,0,10.31-6,15.75-13.66,16.3-21.45,0-.52,0-11.6,0-12.11-.1-8.17-5.55-5.76-16.35-12-21.78-12.58-57.11-12.58-78.9,0-10.51,6.07-16,3.38-16.32,11.33,0,.3,0,11.16,0,11.45C169.3,197,174.75,205.29,185.65,211.58Z" transform="translate(24.15)"/><path class="cls-20" d="M185.65,201c21.78,12.58,57.11,12.58,78.9,0s21.79-33,0-45.55-57.11-12.58-78.9,0S163.86,188.43,185.65,201Z" transform="translate(24.15)"/></g><path class="cls-20" d="M1.89,222C38.64,102.16,138.81,58.18,138.81,58.18l14.57-7.54c37.21-14.31,46.11-22.84,65.83-11.45s8.08,34.7-22.36,50.05L179.79,99.69a80.22,80.22,0,0,1-17.37,10.14c-45.27,20.1-73.93,16.42-84.3,15.42-13.38-1.3-7.05-15.38-2.76-21.42-.53.67.63.34.64.39-1.49,1.44-3.75,3-8.16,6.72-12.88,10.93-36.75,46.9-36.75,46.9s-9,16,3.51,20.69c15,5.63,48.78-.78,72.2-8.59-8.29,9.51-17.18,20.14-26.63,32-21,26.39-45.11,33.78-52.35,34.37a38.54,38.54,0,0,1-13.9-1.21c-6.49-2-11.19-5.64-12.22-10A6.07,6.07,0,0,1,1.89,222Z" transform="translate(24.15)"/><path class="cls-31" d="M31.09,157.84s22.42-34.15,36.1-46.47c4.53-4.08,7.3-6.83,8.78-8.27-4.29,6-14.15,23-.78,24.3,10.37,1,33.69,7.42,90.28-16.57,9.42-4,19.74-8.81,31.11-14.66,37.07-19.08,37.53-10.2,38.25-7.8,7,23.41,2.34,33.95-28.11,46.44s-76.49,27.32-99.91,35.13-57.17,14.22-72.21,8.59C22.11,173.84,31.09,157.84,31.09,157.84Z" transform="translate(24.15)"/><g class="cls-32"><g class="cls-33"><rect class="cls-34" x="137.24" y="19.87" width="106.65" height="210.43" transform="translate(405.28 250.16) rotate(180)"/><rect class="cls-35" x="23.44" y="66.39" width="75.87" height="179.65" transform="translate(36.59 316.76) rotate(-141.6)"/></g></g></g></g></g></svg>