<svg xmlns="http://www.w3.org/2000/svg" viewBox="0 0 182.72 177.4"><defs><style>.cls-1{isolation:isolate;}.cls-2{fill:#d0d0d0;mix-blend-mode:multiply;}.cls-3{fill:#51707c;}.cls-4{fill:#496570;}.cls-5,.cls-9{fill:#57777a;}.cls-5,.cls-7,.cls-8{mix-blend-mode:screen;}.cls-6{fill:#75a0a5;}.cls-7{fill:#223a3d;}</style></defs><title>stein_01</title><g class="cls-1"><g id="Layer_2" data-name="Layer 2"><g id="COLORS"><path class="cls-2" d="M102.2,166.26a264.27,264.27,0,0,0,35-3c2.6-.4,6-.37,8.29-1.46,3.36-1.63,6.26-5.15,9.9-6.89,4.76-2.27,10.32-2.1,14.77-4.17,3.58-1.67,6.91-5.41,10.25-7.28a15.36,15.36,0,0,1,2.33-.91,28,28,0,0,0-2.11-3.69c-7.27-10.27-23.3-8.38-33.77-15.36A57.48,57.48,0,0,1,141,118.7a54.68,54.68,0,0,0-11.65,2.71c-3.54,1.35-5,3.08-8,5.71-9.59,8.44-19.62,16.81-28.32,26.19-2.52,2.72-7,6.36-5.35,11.91C91.56,166.5,98.11,166.35,102.2,166.26Z"/><path class="cls-3" d="M117,110.53c-.87-4.76,7.29-14.82,10.45-19.44,2.12-3.1,11.45-22.22,15.8-23.41,4.85-1.32,28,10.73,30.36,14.47,1.69,2.72.82,12.7,1.15,16,.7,7.06,2,14.18,2.2,21.29.28,11.91-9.09,20.17-13.28,31.46-6.86.56-23.82,5.22-29.73,1.75-4.51-2.65-6-12.7-7.62-17.44C123.73,128,120.33,120.63,117,110.53Z"/><path class="cls-4" d="M156.35,71.6c-5.69-2.61-11.08-4.48-13.14-3.92-4.35,1.19-13.68,20.31-15.8,23.41-3.16,4.62-11.32,14.68-10.45,19.44,3.37,10.1,6.77,17.43,9.33,24.67,1.66,4.74,3.11,14.79,7.62,17.44,3.21,1.88,9.68,1.36,16,.41,1.52-5.49,3.9-10.92,4.2-16.48.42-7.75-1.78-17.23-2.77-24.87-1.07-8.34.54-13.14,2.37-21.61C154.9,84.67,155.32,77.82,156.35,71.6Z"/><path class="cls-3" d="M41.46,85.71C43.88,75,54.78,68.37,57.55,57.62,59.08,51.7,54.19,42.71,52.63,37c-3.29-12,8.9-11.32,15.94-16.26,5.32-3.72,7.74-6.8,14.32-9.57C90.91,7.8,99.11,4.71,106.47,0c4.85,5.7,12.89,19.31,14.42,21.51a63.27,63.27,0,0,1,10.6,24.56c1.84,10.45-2.81,15-4.81,24.07-3.41,15.41,4.88,31.63,13.13,44.09,3.48,5.27,9.47,9.78,11.45,15.61.61,1.81-2,23.27-1.33,23.21-21,4.34-41.06,7.85-61.94,12.18-2.58.53-28.34-16.09-41-22.55-1.09-17.17-4.84-34.47-5.92-51.35A19.76,19.76,0,0,1,41.46,85.71Z"/><path class="cls-5" d="M88,165.23c1.16-.24,2.33-.5,3.5-.77-.35-4.41-1.16-9-1.25-12.18-.24-8.75.05-17.54,0-26.3,0-7.57,3.83-13.32,4.54-20.6,1.85-18.94-18.25-42.27-5.51-60.49,6.56-9.38,11-15.13,14-26,1.4-5.09,1.8-12.64,3.19-18.84V0C99.11,4.71,90.91,7.8,82.89,11.17c-6.58,2.77-9,5.85-14.32,9.57C61.53,25.68,49.34,25,52.63,37c1.56,5.71,6.45,14.7,4.92,20.62C54.78,68.37,43.88,75,41.46,85.71A19.76,19.76,0,0,0,41,91.33c1.08,16.88,4.83,34.18,5.92,51.35C59.65,149.14,85.41,165.76,88,165.23Z"/><path class="cls-2" d="M38.35,176c4.93,2.9,14.48.55,19.84,0,5.6-.56,11.21-1.18,16.79-1.86,1.36-.17,5.6-.21,7-1a12.1,12.1,0,0,0,5.47-12.86c-2.71-11.72-3.41-24.95-5.23-36-1.64-10-10.9-18.49-11.91-28.28C69.43,88,63.33,84.53,55,84.26c-5.14-.16-7.54-.07-10.11,3.8-4.32,6.53-6.33,14.45-9.24,21.63-1.87,4.62-3.55,9.2-3.43,14.13.21,8.64,3.27,17.4,5.88,25.49a34.82,34.82,0,0,1,1.51,17.75C39.11,169.93,38,173,38.35,176Z"/><path class="cls-6" d="M11.56,160.67c-1.76-3.43-2.18-8.61-3.07-12.53-1.89-8.37-5.18-16.32-7.55-24.5-2.64-9.16.88-18.41,3.09-28.11,1.47-6.44.44-9,7-10.47C16.21,83.88,24.78,83,30,83.81c6.42,1,12.69,4.8,18.76,7.42,8.1,3.5,8.87,5.59,10.57,14.38,2.19,11.28,4.49,22.57,6.75,33.87,1,4.75,4.07,11.52,1.91,15.88-3,6.09-14.85,11.58-20,15.65-4,3.18-5.37,5.66-9.94,5.07C27.92,174.79,16.7,164,11.56,160.67Z"/><path class="cls-5" d="M59.3,105.61c-1.7-8.79-2.47-10.88-10.57-14.38-6.07-2.62-12.34-6.4-18.76-7.42C24.78,83,16.21,83.88,11,85.06c-6.57,1.49-5.54,4-7,10.47-2.21,9.7-5.73,19-3.09,28.11l0,.07c10.66,2.34,22.49,2.29,32.5,6C38.24,122.86,48,113.94,55,110.27c2.78-1.46,4-1,4.89-1.72C59.69,107.57,59.49,106.59,59.3,105.61Z"/><path class="cls-3" d="M66.05,139.48c-2.26-11.3-6.36-31.91-6.17-30.93-.84.69-2.11.26-4.89,1.72-7,3.67-16.75,12.59-21.52,19.47-.23-.09,4.59,13.73,5.21,19.58.88,8.29.66,17.87.65,26.83,3.55,0,5-2.29,8.63-5.14,5.15-4.07,17-9.56,20-15.65C70.12,151,67,144.23,66.05,139.48Z"/><path class="cls-5" d="M33.47,129.74C38.24,122.86,48,113.94,55,110.27c2.78-1.46,4-1,4.89-1.72l-.15-.79a42.81,42.81,0,0,0-19.48,5.46c-3.73,2.2-6.8,6.08-10.55,8.25-4.44,2.56-12.28.84-17.48,1.26C9,123,5.86,123.51,2.7,124,12.9,126,24,126.2,33.47,129.74Z"/><path class="cls-4" d="M36.13,130.12c-.19,2.76,3.3,15.1,3.94,17.87,1.4,6.07,1.54,19.61,1,26.23,4.19-2,13.13-11.24,17.07-13.83,3.63-2.37,7.18-4.58,10.26-7.69-1.71-2.86-1.69-7-3.69-9.67-2.5-3.34-8.47-4.83-12.09-6.46-3.88-1.73-13.34-4.17-15.25-8.25A5.47,5.47,0,0,0,36.13,130.12Z"/><path class="cls-7" d="M13.29,158.31c4.42-4.12,9.08-9.12,14.32-12.78,2.45-1.7,1.85-4.54,4.74-3.2.59,1.87,2.89,4.37,2.84,6.32a74.84,74.84,0,0,0,0,8.86c.44,4.88-.42,10-.31,14.92-2.09-1.29-4.3-2.21-6.36-3.65-2.38-1.65-4.61-3.6-6.86-5.43C19.19,161.38,16.65,159.13,13.29,158.31Z"/><g class="cls-8"><path class="cls-9" d="M39.33,176.15a3,3,0,0,0,.31,0l-.31,0Z"/><path class="cls-9" d="M40.14,176.09h0l-.5,0C39.81,176.11,40,176.11,40.14,176.09Z"/><path class="cls-9" d="M33.47,129.74c.52-.76,1.11-1.54,1.75-2.33C34.58,128.2,34,129,33.47,129.74Z"/><path class="cls-9" d="M38.68,149.32c-.62-5.85-5.44-19.67-5.21-19.58a60.43,60.43,0,0,0-11.2-2.83c2.74,3.26,6.88,5.52,9.39,9s4.14,8.92,5.16,13.18c1.17,4.88.81,9.61,1.2,14.58.29,3.74-.19,8.25,0,12.37h0a8.59,8.59,0,0,0,1.31.06C39.34,167.19,39.56,157.61,38.68,149.32Z"/></g><path class="cls-5" d="M103.29,18.86c1.4-5.09,1.8-12.64,3.19-18.84V0c-.86.55-1.74,1.08-2.62,1.59-.52,3.8-1.41,7.92-2.06,11.27-1.65,8.5-5.67,13.72-9.94,21.47a87.71,87.71,0,0,1-6.23,10.25c-1.68,2.27-5.1,5.31-5.69,8.14-1.15,5.5,2.48,14.46,3.62,20A94.62,94.62,0,0,0,86.88,85c3.64,10.49,6.57,19.76,0,29.59-.27,8.57-3.17,17.94-4.19,26.49-.85,7.15-1.2,14.19-1.35,21.24,3.48,1.89,6,3.07,6.7,2.93,1.16-.24,2.33-.5,3.5-.77-.35-4.41-1.16-9-1.25-12.18-.24-8.75.05-17.54,0-26.3,0-7.57,3.83-13.32,4.54-20.6,1.85-18.94-18.25-42.27-5.51-60.49C95.85,35.51,100.3,29.76,103.29,18.86Z"/><path class="cls-4" d="M102.58,32.56C98.87,38.37,91.51,44.36,89,50.68c-1.25,3.16-1.28,8.8-.94,12.2.5,4.91,3.46,9.58,5.25,14.21,2.08,5.37,3,13.08,6.74,17.56,3.33-9,6.11-18.85,9.77-27.85,1.57-3.84,2.52-7,4.8-10.12,2.06-2.85,7.05-5.22,8.38-8.42,2-4.78-3-15.53-4.87-20.25-2.09-5.28-7-7.23-9.92-11.9C107.47,20.44,107.85,29.91,102.58,32.56Z"/><path class="cls-4" d="M94.1,129.92a162.26,162.26,0,0,0,1.3,23.24c1.15,8,.71,7.47,9,5.38,11.94-3,24-3.31,35.69-7.7.12-3.51-.48-7-.45-10.46-4.94-1.06-10-2.86-14.86-4.4-4-1.26-9.33-1.62-12.94-3.92-3.93-2.5-6.47-7.5-8.89-11.34-3.07-4.86-2.77-4.43-7.62-4.08A74.09,74.09,0,0,1,94.1,129.92Z"/><path class="cls-5" d="M54.11,31.35c1.45,4.85,11.68,9.3,15.28,12.36S73.7,46,77.85,47C82.45,41.51,89,35.5,91.73,29.2c1.56-3.62,2-7.56,3-11.31.66-2.44,2.25-5,2.21-7.55-5,1.71-11.43,4.21-15.75,7.29-2.76,2-4.89,5.73-8.07,7.5C69,27.4,54.78,26.91,54.11,31.35Z"/><path class="cls-4" d="M171.09,86.9c-.51,1.71.07,4.32.16,6.2.13,3,0,5.88.39,8.85a82.26,82.26,0,0,0,1.05,8.54c1.28,5.39,1.77,7.71-1.62,12.33-1.43-3.2-1.9-7-2.84-10.35-.84-3-2.21-5.75-3.25-8.63-1.4-3.87-1.14-7.88-1-12,.13-3.72-.09-7.48.08-11.19A72.47,72.47,0,0,1,171.09,86.9Z"/><path class="cls-2" d="M127.9,90.3c2.57,8.63,7.24,16.88,11.91,23.93a71.77,71.77,0,0,0,6,7.23c0-2,.07-3.92,0-5.9a53.81,53.81,0,0,1,.66-9.82c.74-5,1.59-10,2.14-15.08.18-1.67,1.68-6,1.31-7.42-.65-2.62-4.93-3.94-6.53-6.23a70.21,70.21,0,0,0-12.12,7.35C129.84,86.87,128.66,89,127.9,90.3Z"/></g></g></g></svg>