<svg xmlns="http://www.w3.org/2000/svg" xmlns:xlink="http://www.w3.org/1999/xlink" viewBox="0 0 214.87 216.35"><defs><style>.cls-1,.cls-2,.cls-3,.cls-4,.cls-5,.cls-6{fill:none;stroke-miterlimit:10;}.cls-1{stroke:url(#linear-gradient);}.cls-2{stroke:url(#linear-gradient-2);}.cls-3{stroke:url(#linear-gradient-3);}.cls-4{stroke:url(#linear-gradient-4);}.cls-5{stroke:url(#linear-gradient-5);}.cls-6{stroke:url(#linear-gradient-6);}.cls-7{fill:#fff;}</style><linearGradient id="linear-gradient" x1="127.27" y1="10.97" x2="149.21" y2="10.97" gradientUnits="userSpaceOnUse"><stop offset="0" stop-color="aqua"/><stop offset="1" stop-opacity="0"/></linearGradient><linearGradient id="linear-gradient-2" x1="204.05" y1="115.02" x2="214.87" y2="115.02" xlink:href="#linear-gradient"/><linearGradient id="linear-gradient-3" x1="139.62" y1="206.97" x2="157.6" y2="206.97" xlink:href="#linear-gradient"/><linearGradient id="linear-gradient-4" x1="0.39" y1="153.16" x2="9.49" y2="153.16" xlink:href="#linear-gradient"/><linearGradient id="linear-gradient-5" x1="1.13" y1="28.87" x2="33.19" y2="28.87" xlink:href="#linear-gradient"/><linearGradient id="linear-gradient-6" x1="179.85" y1="15.78" x2="205.49" y2="15.78" xlink:href="#linear-gradient"/></defs><title>stjerneskudd_01</title><g id="Layer_2" data-name="Layer 2"><g id="COLORS"><line class="cls-1" x1="148.86" y1="0.35" x2="127.63" y2="21.58"/><line class="cls-2" x1="214.52" y1="109.96" x2="204.4" y2="120.08"/><line class="cls-3" x1="157.25" y1="198.33" x2="139.97" y2="215.61"/><line class="cls-4" x1="9.13" y1="148.96" x2="0.74" y2="157.36"/><line class="cls-5" x1="32.83" y1="13.19" x2="1.48" y2="44.54"/><line class="cls-6" x1="205.14" y1="3.32" x2="180.21" y2="28.25"/><circle class="cls-7" cx="1.73" cy="44.29" r="0.99"/><circle class="cls-7" cx="127.38" cy="21.83" r="0.99"/><circle class="cls-7" cx="204.4" cy="120.08" r="0.99"/><circle class="cls-7" cx="140.22" cy="215.37" r="0.99"/><circle class="cls-7" cx="180.21" cy="28.25" r="0.99"/><circle class="cls-7" cx="0.99" cy="157.11" r="0.99"/></g></g></svg>