<svg xmlns="http://www.w3.org/2000/svg" xmlns:xlink="http://www.w3.org/1999/xlink" viewBox="0 0 132.17 263.43"><defs><style>.cls-1{isolation:isolate;}.cls-2{fill:#d0d0d0;mix-blend-mode:multiply;}.cls-3{fill:#51707c;}.cls-4{fill:#496570;}.cls-5,.cls-9{fill:#57777a;}.cls-5,.cls-7,.cls-8{mix-blend-mode:screen;}.cls-6{fill:#75a0a5;}.cls-7{fill:#223a3d;}.cls-10{opacity:0.3;}.cls-11{fill:url(#linear-gradient);}.cls-12{fill:url(#linear-gradient-2);}.cls-13{fill:url(#linear-gradient-3);}.cls-14{fill:url(#linear-gradient-4);}.cls-15{fill:url(#linear-gradient-5);}.cls-16{fill:url(#linear-gradient-6);}.cls-17{fill:url(#linear-gradient-7);}.cls-18{fill:url(#linear-gradient-8);}.cls-19{fill:url(#linear-gradient-9);}.cls-20{fill:url(#linear-gradient-10);}.cls-21{fill:url(#linear-gradient-11);}.cls-22{fill:url(#linear-gradient-12);}.cls-23{fill:url(#linear-gradient-13);}.cls-24{fill:url(#linear-gradient-14);}.cls-25{fill:url(#linear-gradient-15);}.cls-26{fill:url(#linear-gradient-16);}.cls-27{fill:url(#linear-gradient-17);}.cls-28{fill:url(#linear-gradient-18);}.cls-29{fill:url(#linear-gradient-19);}.cls-30{fill:url(#linear-gradient-20);}.cls-31{fill:url(#linear-gradient-21);}.cls-32{fill:url(#linear-gradient-22);}.cls-33{fill:url(#linear-gradient-23);}.cls-34{fill:url(#linear-gradient-24);}.cls-35{fill:url(#linear-gradient-25);}.cls-36{fill:url(#linear-gradient-26);}.cls-37{fill:url(#linear-gradient-27);}.cls-38{fill:url(#linear-gradient-28);}.cls-39{fill:url(#linear-gradient-29);}.cls-40{fill:url(#linear-gradient-30);}.cls-41{fill:url(#linear-gradient-31);}.cls-42{fill:url(#linear-gradient-32);}.cls-43{fill:url(#linear-gradient-33);}.cls-44{fill:url(#linear-gradient-34);}.cls-45{fill:url(#linear-gradient-35);}.cls-46{fill:url(#linear-gradient-36);}.cls-47{fill:url(#linear-gradient-37);}.cls-48{fill:url(#linear-gradient-38);}.cls-49{fill:url(#linear-gradient-39);}.cls-50{fill:url(#linear-gradient-40);}.cls-51{fill:url(#linear-gradient-41);}.cls-52{fill:url(#linear-gradient-42);}.cls-53{fill:url(#linear-gradient-43);}.cls-54{fill:url(#linear-gradient-44);}.cls-55{fill:url(#radial-gradient);}.cls-56{fill:url(#linear-gradient-45);}.cls-57{fill:url(#linear-gradient-46);}.cls-58{fill:url(#linear-gradient-47);}.cls-59{fill:url(#linear-gradient-48);}.cls-60{fill:url(#radial-gradient-2);}.cls-61{fill:url(#linear-gradient-49);}.cls-62{fill:url(#linear-gradient-50);}.cls-63{fill:url(#linear-gradient-51);}.cls-64{fill:url(#linear-gradient-52);}.cls-65{fill:url(#linear-gradient-53);}.cls-66{fill:url(#linear-gradient-54);}.cls-67{fill:url(#linear-gradient-55);}.cls-68{fill:url(#linear-gradient-56);}.cls-69{fill:url(#linear-gradient-57);}.cls-70{fill:url(#linear-gradient-58);}.cls-71{fill:url(#linear-gradient-59);}.cls-72{fill:url(#linear-gradient-60);}.cls-73{fill:url(#linear-gradient-61);}.cls-74{fill:url(#linear-gradient-62);}.cls-75{fill:url(#linear-gradient-63);}.cls-76{fill:url(#linear-gradient-64);}.cls-77{fill:url(#linear-gradient-65);}.cls-78{fill:url(#linear-gradient-66);}.cls-79{fill:url(#linear-gradient-67);}.cls-80{fill:url(#linear-gradient-68);}.cls-81{fill:url(#linear-gradient-69);}.cls-82{fill:url(#linear-gradient-70);}.cls-83{fill:url(#linear-gradient-71);}.cls-84{fill:url(#linear-gradient-72);}.cls-85{fill:url(#linear-gradient-73);}.cls-86{fill:url(#linear-gradient-74);}.cls-87{fill:url(#linear-gradient-75);}.cls-88{fill:url(#linear-gradient-76);}.cls-89{fill:url(#linear-gradient-77);}.cls-90{fill:url(#linear-gradient-78);}.cls-91{fill:url(#linear-gradient-79);}.cls-92{fill:url(#linear-gradient-80);}.cls-93{fill:url(#linear-gradient-81);}.cls-94{fill:url(#linear-gradient-82);}.cls-95{fill:url(#linear-gradient-83);}.cls-96{fill:url(#linear-gradient-84);}.cls-97{fill:url(#linear-gradient-85);}.cls-98{fill:url(#linear-gradient-86);}.cls-99{fill:url(#linear-gradient-87);}.cls-100{fill:url(#linear-gradient-88);}.cls-101{fill:url(#linear-gradient-89);}.cls-102{fill:url(#linear-gradient-90);}.cls-103{fill:url(#linear-gradient-91);}.cls-104{fill:url(#linear-gradient-92);}.cls-105{fill:url(#linear-gradient-93);}.cls-106{fill:url(#linear-gradient-94);}.cls-107{fill:url(#linear-gradient-95);}.cls-108{fill:url(#linear-gradient-96);}.cls-109{fill:url(#linear-gradient-97);}.cls-110{fill:url(#linear-gradient-98);}.cls-111{fill:url(#linear-gradient-99);}.cls-112{fill:url(#linear-gradient-100);}.cls-113{fill:url(#linear-gradient-101);}.cls-114{fill:url(#linear-gradient-102);}.cls-115{fill:url(#linear-gradient-103);}.cls-116{fill:url(#linear-gradient-104);}.cls-117{fill:url(#linear-gradient-105);}.cls-118{fill:url(#linear-gradient-106);}.cls-119{fill:url(#linear-gradient-107);}.cls-120{fill:url(#linear-gradient-108);}.cls-121{fill:url(#linear-gradient-109);}.cls-122{fill:url(#linear-gradient-110);}.cls-123{fill:url(#linear-gradient-111);}.cls-124{fill:url(#linear-gradient-112);}.cls-125{fill:url(#linear-gradient-113);}.cls-126{fill:url(#linear-gradient-114);}.cls-127{fill:url(#linear-gradient-115);}.cls-128{fill:url(#linear-gradient-116);}.cls-129{fill:url(#linear-gradient-117);}.cls-130{fill:url(#linear-gradient-118);}.cls-131{fill:url(#radial-gradient-3);}.cls-132{fill:url(#linear-gradient-119);}.cls-133{fill:url(#linear-gradient-120);}.cls-134{fill:url(#linear-gradient-121);}.cls-135{fill:url(#linear-gradient-122);}.cls-136{fill:url(#radial-gradient-4);}.cls-137{fill:url(#linear-gradient-123);}.cls-138{fill:url(#linear-gradient-124);}.cls-139{fill:url(#linear-gradient-125);}.cls-140{fill:url(#linear-gradient-126);}.cls-141{fill:url(#linear-gradient-127);}.cls-142{fill:url(#linear-gradient-128);}.cls-143{fill:url(#linear-gradient-129);}.cls-144{fill:url(#linear-gradient-130);}.cls-145{fill:url(#linear-gradient-131);}.cls-146{fill:url(#linear-gradient-132);}.cls-147{fill:url(#linear-gradient-133);}.cls-148{fill:url(#linear-gradient-134);}.cls-149{fill:url(#linear-gradient-135);}.cls-150{fill:url(#linear-gradient-136);}.cls-151{fill:url(#linear-gradient-137);}.cls-152{fill:url(#linear-gradient-138);}.cls-153{fill:url(#linear-gradient-139);}.cls-154{fill:url(#linear-gradient-140);}.cls-155{fill:url(#linear-gradient-141);}.cls-156{fill:url(#linear-gradient-142);}.cls-157{fill:url(#linear-gradient-143);}.cls-158{fill:url(#linear-gradient-144);}.cls-159{fill:url(#linear-gradient-145);}.cls-160{fill:url(#linear-gradient-146);}.cls-161{fill:url(#linear-gradient-147);}.cls-162{fill:url(#linear-gradient-148);}.cls-163{fill:url(#linear-gradient-149);}.cls-164{fill:url(#linear-gradient-150);}.cls-165{fill:url(#linear-gradient-151);}.cls-166{fill:url(#linear-gradient-152);}.cls-167{fill:url(#linear-gradient-153);}.cls-168{fill:url(#linear-gradient-154);}.cls-169{fill:url(#linear-gradient-155);}.cls-170{fill:url(#linear-gradient-156);}.cls-171{fill:url(#linear-gradient-157);}.cls-172{fill:url(#linear-gradient-158);}.cls-173{fill:url(#linear-gradient-159);}.cls-174{fill:url(#linear-gradient-160);}.cls-175{fill:url(#linear-gradient-161);}.cls-176{fill:url(#linear-gradient-162);}.cls-177{fill:url(#linear-gradient-163);}.cls-178{fill:url(#linear-gradient-164);}.cls-179{fill:url(#radial-gradient-5);}.cls-180{fill:url(#linear-gradient-165);}.cls-181{fill:url(#linear-gradient-166);}.cls-182{fill:url(#linear-gradient-167);}.cls-183{fill:url(#linear-gradient-168);}.cls-184{fill:url(#radial-gradient-6);}.cls-185{fill:url(#linear-gradient-169);}.cls-186{fill:url(#linear-gradient-170);}.cls-187{fill:url(#linear-gradient-171);}.cls-188{fill:url(#linear-gradient-172);}.cls-189{fill:url(#linear-gradient-173);}.cls-190{fill:url(#linear-gradient-174);}.cls-191{fill:url(#linear-gradient-175);}.cls-192{fill:url(#linear-gradient-176);}.cls-193{fill:url(#linear-gradient-177);}.cls-194{fill:url(#linear-gradient-178);}.cls-195{fill:url(#linear-gradient-179);}.cls-196{fill:url(#linear-gradient-180);}.cls-197{fill:url(#linear-gradient-181);}.cls-198{fill:url(#linear-gradient-182);}.cls-199{fill:url(#linear-gradient-183);}.cls-200{fill:url(#linear-gradient-184);}.cls-201{fill:url(#linear-gradient-185);}.cls-202{fill:url(#linear-gradient-186);}.cls-203{fill:url(#linear-gradient-187);}.cls-204{fill:url(#linear-gradient-188);}.cls-205{fill:url(#linear-gradient-189);}.cls-206{fill:url(#linear-gradient-190);}.cls-207{fill:url(#linear-gradient-191);}.cls-208{fill:url(#linear-gradient-192);}.cls-209{fill:url(#linear-gradient-193);}.cls-210{fill:url(#linear-gradient-194);}.cls-211{fill:url(#linear-gradient-195);}.cls-212{fill:url(#linear-gradient-196);}.cls-213{fill:url(#linear-gradient-197);}.cls-214{fill:url(#linear-gradient-198);}.cls-215{fill:url(#linear-gradient-199);}.cls-216{fill:url(#linear-gradient-200);}.cls-217{fill:url(#linear-gradient-201);}.cls-218{fill:url(#linear-gradient-202);}.cls-219{fill:url(#radial-gradient-7);}.cls-220{fill:url(#linear-gradient-203);}.cls-221{fill:url(#linear-gradient-204);}.cls-222{fill:url(#linear-gradient-205);}.cls-223{fill:url(#linear-gradient-206);}.cls-224{fill:url(#linear-gradient-207);}.cls-225{fill:url(#linear-gradient-208);}.cls-226{fill:url(#linear-gradient-209);}.cls-227{fill:url(#linear-gradient-210);}.cls-228{fill:url(#linear-gradient-211);}.cls-229{fill:url(#linear-gradient-212);}.cls-230{fill:url(#linear-gradient-213);}.cls-231{fill:url(#linear-gradient-214);}.cls-232{fill:url(#linear-gradient-215);}.cls-233{fill:url(#linear-gradient-216);}.cls-234{fill:url(#linear-gradient-217);}.cls-235{fill:url(#linear-gradient-218);}.cls-236{fill:url(#linear-gradient-219);}.cls-237{fill:url(#linear-gradient-220);}.cls-238{fill:url(#linear-gradient-221);}.cls-239{fill:url(#linear-gradient-222);}.cls-240{fill:url(#linear-gradient-223);}.cls-241{fill:url(#linear-gradient-224);}.cls-242{fill:url(#linear-gradient-225);}.cls-243{fill:url(#linear-gradient-226);}.cls-244{fill:url(#linear-gradient-227);}.cls-245{fill:url(#linear-gradient-228);}.cls-246{fill:url(#linear-gradient-229);}.cls-247{fill:url(#linear-gradient-230);}.cls-248{fill:url(#linear-gradient-231);}.cls-249{fill:url(#radial-gradient-8);}</style><linearGradient id="linear-gradient" x1="46.35" y1="221.1" x2="84.71" y2="221.1" gradientUnits="userSpaceOnUse"><stop offset="0" stop-color="#d6d6d6"/><stop offset="1" stop-color="#545454"/></linearGradient><linearGradient id="linear-gradient-2" x1="50.96" y1="212.02" x2="108.05" y2="212.02" gradientUnits="userSpaceOnUse"><stop offset="0" stop-color="#ebebeb"/><stop offset="0.17" stop-color="#e1e1e1"/><stop offset="0.46" stop-color="#c8c8c8"/><stop offset="0.83" stop-color="#9e9e9e"/><stop offset="1" stop-color="#888"/></linearGradient><linearGradient id="linear-gradient-3" x1="48.8" y1="208.26" x2="77.69" y2="208.26" gradientUnits="userSpaceOnUse"><stop offset="0" stop-color="#3ac3ff"/><stop offset="1" stop-color="#002175"/></linearGradient><linearGradient id="linear-gradient-4" x1="48.8" y1="198.74" x2="77.69" y2="198.74" gradientUnits="userSpaceOnUse"><stop offset="0" stop-color="#61baff"/><stop offset="1" stop-color="#003a69"/></linearGradient><linearGradient id="linear-gradient-5" x1="46.35" y1="204.27" x2="84.71" y2="204.27" xlink:href="#linear-gradient"/><linearGradient id="linear-gradient-6" x1="50.96" y1="198.24" x2="108.05" y2="198.24" xlink:href="#linear-gradient-2"/><linearGradient id="linear-gradient-7" x1="48.8" y1="194.44" x2="77.69" y2="194.44" xlink:href="#linear-gradient-3"/><linearGradient id="linear-gradient-8" x1="48.8" y1="184.93" x2="77.69" y2="184.93" xlink:href="#linear-gradient-4"/><linearGradient id="linear-gradient-9" x1="46.35" y1="190.46" x2="84.71" y2="190.46" xlink:href="#linear-gradient"/><linearGradient id="linear-gradient-10" x1="50.96" y1="184.42" x2="108.05" y2="184.42" xlink:href="#linear-gradient-2"/><linearGradient id="linear-gradient-11" x1="48.8" y1="180.35" x2="77.69" y2="180.35" xlink:href="#linear-gradient-3"/><linearGradient id="linear-gradient-12" x1="48.8" y1="170.83" x2="77.69" y2="170.83" xlink:href="#linear-gradient-4"/><linearGradient id="linear-gradient-13" x1="46.35" y1="176.36" x2="84.71" y2="176.36" xlink:href="#linear-gradient"/><linearGradient id="linear-gradient-14" x1="50.96" y1="170.33" x2="108.05" y2="170.33" xlink:href="#linear-gradient-2"/><linearGradient id="linear-gradient-15" x1="48.8" y1="166.54" x2="77.69" y2="166.54" xlink:href="#linear-gradient-3"/><linearGradient id="linear-gradient-16" x1="48.8" y1="157.02" x2="77.69" y2="157.02" xlink:href="#linear-gradient-4"/><linearGradient id="linear-gradient-17" x1="46.35" y1="162.55" x2="84.71" y2="162.55" xlink:href="#linear-gradient"/><linearGradient id="linear-gradient-18" x1="50.96" y1="156.52" x2="108.05" y2="156.52" xlink:href="#linear-gradient-2"/><linearGradient id="linear-gradient-19" x1="48.8" y1="152.55" x2="77.69" y2="152.55" xlink:href="#linear-gradient-3"/><linearGradient id="linear-gradient-20" x1="48.8" y1="143.03" x2="77.69" y2="143.03" xlink:href="#linear-gradient-4"/><linearGradient id="linear-gradient-21" x1="46.35" y1="148.57" x2="84.71" y2="148.57" xlink:href="#linear-gradient"/><linearGradient id="linear-gradient-22" x1="50.96" y1="142.53" x2="108.05" y2="142.53" xlink:href="#linear-gradient-2"/><linearGradient id="linear-gradient-23" x1="48.8" y1="138.74" x2="77.69" y2="138.74" xlink:href="#linear-gradient-3"/><linearGradient id="linear-gradient-24" x1="48.8" y1="129.22" x2="77.69" y2="129.22" xlink:href="#linear-gradient-4"/><linearGradient id="linear-gradient-25" x1="46.35" y1="134.76" x2="84.71" y2="134.76" xlink:href="#linear-gradient"/><linearGradient id="linear-gradient-26" x1="50.96" y1="128.72" x2="108.05" y2="128.72" xlink:href="#linear-gradient-2"/><linearGradient id="linear-gradient-27" x1="48.8" y1="124.43" x2="77.69" y2="124.43" xlink:href="#linear-gradient-3"/><linearGradient id="linear-gradient-28" x1="48.8" y1="114.91" x2="77.69" y2="114.91" xlink:href="#linear-gradient-4"/><linearGradient id="linear-gradient-29" x1="46.35" y1="120.44" x2="84.71" y2="120.44" xlink:href="#linear-gradient"/><linearGradient id="linear-gradient-30" x1="50.96" y1="114.41" x2="108.05" y2="114.41" xlink:href="#linear-gradient-2"/><linearGradient id="linear-gradient-31" x1="48.8" y1="110.62" x2="77.69" y2="110.62" xlink:href="#linear-gradient-3"/><linearGradient id="linear-gradient-32" x1="48.8" y1="101.1" x2="77.69" y2="101.1" xlink:href="#linear-gradient-4"/><linearGradient id="linear-gradient-33" x1="46.35" y1="106.63" x2="84.71" y2="106.63" xlink:href="#linear-gradient"/><linearGradient id="linear-gradient-34" x1="50.96" y1="100.6" x2="108.05" y2="100.6" xlink:href="#linear-gradient-2"/><linearGradient id="linear-gradient-35" x1="48.8" y1="96.75" x2="77.69" y2="96.75" xlink:href="#linear-gradient-3"/><linearGradient id="linear-gradient-36" x1="48.8" y1="87.23" x2="77.69" y2="87.23" xlink:href="#linear-gradient-4"/><linearGradient id="linear-gradient-37" x1="46.35" y1="92.77" x2="84.71" y2="92.77" xlink:href="#linear-gradient"/><linearGradient id="linear-gradient-38" x1="50.96" y1="86.73" x2="108.05" y2="86.73" xlink:href="#linear-gradient-2"/><linearGradient id="linear-gradient-39" x1="48.8" y1="82.94" x2="77.69" y2="82.94" xlink:href="#linear-gradient-3"/><linearGradient id="linear-gradient-40" x1="48.8" y1="73.42" x2="77.69" y2="73.42" xlink:href="#linear-gradient-4"/><linearGradient id="linear-gradient-41" x1="46.35" y1="71.52" x2="84.71" y2="71.52" xlink:href="#linear-gradient"/><linearGradient id="linear-gradient-42" x1="50.96" y1="58.05" x2="108.05" y2="58.05" xlink:href="#linear-gradient-2"/><linearGradient id="linear-gradient-43" x1="46.35" y1="56.92" x2="84.71" y2="56.92" xlink:href="#linear-gradient"/><linearGradient id="linear-gradient-44" x1="50.95" y1="45.76" x2="108.06" y2="45.76" xlink:href="#linear-gradient-2"/><radialGradient id="radial-gradient" cx="53.74" cy="32.88" r="32.68" gradientUnits="userSpaceOnUse"><stop offset="0" stop-color="#6ec0ff"/><stop offset="1" stop-color="#004378"/></radialGradient><linearGradient id="linear-gradient-45" x1="46.35" y1="26.03" x2="84.71" y2="26.03" xlink:href="#linear-gradient"/><linearGradient id="linear-gradient-46" x1="50.95" y1="23.54" x2="108.05" y2="23.54" xlink:href="#linear-gradient-2"/><linearGradient id="linear-gradient-47" x1="61.44" y1="16.02" x2="65.02" y2="16.02" xlink:href="#linear-gradient"/><linearGradient id="linear-gradient-48" x1="50.98" y1="8.25" x2="107.97" y2="8.25" xlink:href="#linear-gradient-2"/><radialGradient id="radial-gradient-2" cx="60.86" cy="3.62" r="8.71" gradientUnits="userSpaceOnUse"><stop offset="0" stop-color="#0f63a1"/><stop offset="0.67" stop-color="#040b1a"/><stop offset="1" stop-color="#0c5185"/></radialGradient><linearGradient id="linear-gradient-49" x1="86.47" y1="213.03" x2="83.53" y2="218.33" gradientUnits="userSpaceOnUse"><stop offset="0" stop-color="#d6d6d6"/><stop offset="1" stop-color="#4f4f4f"/></linearGradient><linearGradient id="linear-gradient-50" x1="507.03" y1="651" x2="501.95" y2="652.79" gradientTransform="matrix(0.5, -0.87, -0.87, -0.5, 410.57, 985.5)" xlink:href="#linear-gradient-2"/><linearGradient id="linear-gradient-51" x1="1366.91" y1="217.91" x2="1367.76" y2="218.27" gradientTransform="matrix(-1, 0, 0, 1, 1454.8, 0)" xlink:href="#linear-gradient-2"/><linearGradient id="linear-gradient-52" x1="86.8" y1="217.04" x2="88.01" y2="218.19" xlink:href="#linear-gradient-3"/><linearGradient id="linear-gradient-53" x1="1369.97" y1="216.16" x2="1370.82" y2="216.51" gradientTransform="matrix(-1, 0, 0, 1, 1454.8, 0)" xlink:href="#linear-gradient-2"/><linearGradient id="linear-gradient-54" x1="84.24" y1="215.32" x2="85.05" y2="216.85" xlink:href="#linear-gradient-3"/><linearGradient id="linear-gradient-55" x1="1373.04" y1="214.4" x2="1373.88" y2="214.76" gradientTransform="matrix(-1, 0, 0, 1, 1454.8, 0)" xlink:href="#linear-gradient-2"/><linearGradient id="linear-gradient-56" x1="81.14" y1="213.84" x2="82.17" y2="215.08" xlink:href="#linear-gradient-3"/><linearGradient id="linear-gradient-57" x1="1376.1" y1="212.65" x2="1376.94" y2="213" gradientTransform="matrix(-1, 0, 0, 1, 1454.8, 0)" xlink:href="#linear-gradient-2"/><linearGradient id="linear-gradient-58" x1="78.16" y1="212" x2="79.06" y2="213.46" xlink:href="#linear-gradient-3"/><linearGradient id="linear-gradient-59" x1="1379.16" y1="210.89" x2="1380" y2="211.25" gradientTransform="matrix(-1, 0, 0, 1, 1454.8, 0)" xlink:href="#linear-gradient-2"/><linearGradient id="linear-gradient-60" x1="75" y1="210.25" x2="75.93" y2="211.49" xlink:href="#linear-gradient-3"/><linearGradient id="linear-gradient-61" x1="86.47" y1="171.35" x2="83.53" y2="176.65" xlink:href="#linear-gradient-49"/><linearGradient id="linear-gradient-62" x1="543.12" y1="671.84" x2="538.04" y2="673.63" gradientTransform="matrix(0.5, -0.87, -0.87, -0.5, 410.57, 985.5)" xlink:href="#linear-gradient-2"/><linearGradient id="linear-gradient-63" x1="1366.91" y1="176.24" x2="1367.75" y2="176.59" gradientTransform="matrix(-1, 0, 0, 1, 1454.8, 0)" xlink:href="#linear-gradient-2"/><linearGradient id="linear-gradient-64" x1="86.8" y1="175.37" x2="88.02" y2="176.51" xlink:href="#linear-gradient-3"/><linearGradient id="linear-gradient-65" x1="1369.97" y1="174.48" x2="1370.82" y2="174.84" gradientTransform="matrix(-1, 0, 0, 1, 1454.8, 0)" xlink:href="#linear-gradient-2"/><linearGradient id="linear-gradient-66" x1="84.24" y1="173.65" x2="85.05" y2="175.18" xlink:href="#linear-gradient-3"/><linearGradient id="linear-gradient-67" x1="1373.04" y1="172.73" x2="1373.88" y2="173.08" gradientTransform="matrix(-1, 0, 0, 1, 1454.8, 0)" xlink:href="#linear-gradient-2"/><linearGradient id="linear-gradient-68" x1="81.15" y1="172.16" x2="82.17" y2="173.4" xlink:href="#linear-gradient-3"/><linearGradient id="linear-gradient-69" x1="1376.1" y1="170.97" x2="1376.94" y2="171.32" gradientTransform="matrix(-1, 0, 0, 1, 1454.8, 0)" xlink:href="#linear-gradient-2"/><linearGradient id="linear-gradient-70" x1="78.15" y1="170.32" x2="79.06" y2="171.79" xlink:href="#linear-gradient-3"/><linearGradient id="linear-gradient-71" x1="1379.16" y1="169.22" x2="1380" y2="169.57" gradientTransform="matrix(-1, 0, 0, 1, 1454.8, 0)" xlink:href="#linear-gradient-2"/><linearGradient id="linear-gradient-72" x1="75" y1="168.57" x2="75.93" y2="169.81" xlink:href="#linear-gradient-3"/><linearGradient id="linear-gradient-73" x1="86.47" y1="129.19" x2="83.53" y2="134.5" xlink:href="#linear-gradient-49"/><linearGradient id="linear-gradient-74" x1="579.63" y1="692.92" x2="574.55" y2="694.71" gradientTransform="matrix(0.5, -0.87, -0.87, -0.5, 410.57, 985.5)" xlink:href="#linear-gradient-2"/><linearGradient id="linear-gradient-75" x1="1366.91" y1="134.08" x2="1367.75" y2="134.43" gradientTransform="matrix(-1, 0, 0, 1, 1454.8, 0)" xlink:href="#linear-gradient-2"/><linearGradient id="linear-gradient-76" x1="86.8" y1="133.21" x2="88.01" y2="134.35" xlink:href="#linear-gradient-3"/><linearGradient id="linear-gradient-77" x1="1369.97" y1="132.32" x2="1370.82" y2="132.68" gradientTransform="matrix(-1, 0, 0, 1, 1454.8, 0)" xlink:href="#linear-gradient-2"/><linearGradient id="linear-gradient-78" x1="84.23" y1="131.48" x2="85.05" y2="133.02" xlink:href="#linear-gradient-3"/><linearGradient id="linear-gradient-79" x1="1373.04" y1="130.57" x2="1373.88" y2="130.92" gradientTransform="matrix(-1, 0, 0, 1, 1454.8, 0)" xlink:href="#linear-gradient-2"/><linearGradient id="linear-gradient-80" x1="81.14" y1="130" x2="82.17" y2="131.24" xlink:href="#linear-gradient-3"/><linearGradient id="linear-gradient-81" x1="1376.1" y1="128.81" x2="1376.94" y2="129.17" gradientTransform="matrix(-1, 0, 0, 1, 1454.8, 0)" xlink:href="#linear-gradient-2"/><linearGradient id="linear-gradient-82" x1="78.15" y1="128.17" x2="79.06" y2="129.63" xlink:href="#linear-gradient-3"/><linearGradient id="linear-gradient-83" x1="1379.16" y1="127.05" x2="1380" y2="127.41" gradientTransform="matrix(-1, 0, 0, 1, 1454.8, 0)" xlink:href="#linear-gradient-2"/><linearGradient id="linear-gradient-84" x1="75" y1="126.41" x2="75.93" y2="127.65" xlink:href="#linear-gradient-3"/><linearGradient id="linear-gradient-85" x1="88.45" y1="246.38" x2="124.65" y2="246.38" xlink:href="#linear-gradient"/><linearGradient id="linear-gradient-86" x1="90.07" y1="237.29" x2="144.28" y2="237.29" xlink:href="#linear-gradient-2"/><linearGradient id="linear-gradient-87" x1="92.58" y1="233.53" x2="121.47" y2="233.53" xlink:href="#linear-gradient-3"/><linearGradient id="linear-gradient-88" x1="92.58" y1="224.01" x2="121.47" y2="224.01" xlink:href="#linear-gradient-4"/><linearGradient id="linear-gradient-89" x1="88.45" y1="229.55" x2="124.65" y2="229.55" xlink:href="#linear-gradient"/><linearGradient id="linear-gradient-90" x1="90.07" y1="223.51" x2="144.28" y2="223.51" xlink:href="#linear-gradient-2"/><linearGradient id="linear-gradient-91" x1="92.58" y1="219.73" x2="121.47" y2="219.73" xlink:href="#linear-gradient-3"/><linearGradient id="linear-gradient-92" x1="92.58" y1="210.2" x2="121.47" y2="210.2" xlink:href="#linear-gradient-4"/><linearGradient id="linear-gradient-93" x1="88.45" y1="215.74" x2="124.65" y2="215.74" xlink:href="#linear-gradient"/><linearGradient id="linear-gradient-94" x1="90.07" y1="209.7" x2="144.28" y2="209.7" xlink:href="#linear-gradient-2"/><linearGradient id="linear-gradient-95" x1="92.58" y1="205.98" x2="121.47" y2="205.98" xlink:href="#linear-gradient-3"/><linearGradient id="linear-gradient-96" x1="92.58" y1="196.46" x2="121.47" y2="196.46" xlink:href="#linear-gradient-4"/><linearGradient id="linear-gradient-97" x1="88.45" y1="201.99" x2="124.65" y2="201.99" xlink:href="#linear-gradient"/><linearGradient id="linear-gradient-98" x1="90.07" y1="195.96" x2="144.28" y2="195.96" xlink:href="#linear-gradient-2"/><linearGradient id="linear-gradient-99" x1="92.58" y1="192.17" x2="121.47" y2="192.17" xlink:href="#linear-gradient-3"/><linearGradient id="linear-gradient-100" x1="92.58" y1="182.65" x2="121.47" y2="182.65" xlink:href="#linear-gradient-4"/><linearGradient id="linear-gradient-101" x1="88.45" y1="188.19" x2="124.65" y2="188.19" xlink:href="#linear-gradient"/><linearGradient id="linear-gradient-102" x1="90.07" y1="182.15" x2="144.28" y2="182.15" xlink:href="#linear-gradient-2"/><linearGradient id="linear-gradient-103" x1="92.58" y1="178.3" x2="121.47" y2="178.3" xlink:href="#linear-gradient-3"/><linearGradient id="linear-gradient-104" x1="92.58" y1="168.78" x2="121.47" y2="168.78" xlink:href="#linear-gradient-4"/><linearGradient id="linear-gradient-105" x1="88.45" y1="174.32" x2="124.65" y2="174.32" xlink:href="#linear-gradient"/><linearGradient id="linear-gradient-106" x1="90.07" y1="168.28" x2="144.28" y2="168.28" xlink:href="#linear-gradient-2"/><linearGradient id="linear-gradient-107" x1="92.58" y1="164.49" x2="121.47" y2="164.49" xlink:href="#linear-gradient-3"/><linearGradient id="linear-gradient-108" x1="92.58" y1="154.97" x2="121.47" y2="154.97" xlink:href="#linear-gradient-4"/><linearGradient id="linear-gradient-109" x1="88.45" y1="160.51" x2="124.65" y2="160.51" xlink:href="#linear-gradient"/><linearGradient id="linear-gradient-110" x1="90.07" y1="154.47" x2="144.28" y2="154.47" xlink:href="#linear-gradient-2"/><linearGradient id="linear-gradient-111" x1="92.58" y1="150.34" x2="121.47" y2="150.34" xlink:href="#linear-gradient-3"/><linearGradient id="linear-gradient-112" x1="92.58" y1="140.82" x2="121.47" y2="140.82" xlink:href="#linear-gradient-4"/><linearGradient id="linear-gradient-113" x1="88.45" y1="146.35" x2="124.65" y2="146.35" xlink:href="#linear-gradient"/><linearGradient id="linear-gradient-114" x1="90.07" y1="140.32" x2="144.28" y2="140.32" xlink:href="#linear-gradient-2"/><linearGradient id="linear-gradient-115" x1="92.58" y1="136.53" x2="121.47" y2="136.53" xlink:href="#linear-gradient-3"/><linearGradient id="linear-gradient-116" x1="92.58" y1="127.01" x2="121.47" y2="127.01" xlink:href="#linear-gradient-4"/><linearGradient id="linear-gradient-117" x1="88.45" y1="124.75" x2="124.65" y2="124.75" xlink:href="#linear-gradient"/><linearGradient id="linear-gradient-118" x1="90.07" y1="111.28" x2="144.28" y2="111.28" xlink:href="#linear-gradient-2"/><radialGradient id="radial-gradient-3" cx="100.42" cy="102.55" r="22.65" xlink:href="#radial-gradient"/><linearGradient id="linear-gradient-119" x1="88.47" y1="97.8" x2="124.63" y2="97.8" xlink:href="#linear-gradient"/><linearGradient id="linear-gradient-120" x1="90.08" y1="96.08" x2="144.26" y2="96.08" xlink:href="#linear-gradient-2"/><linearGradient id="linear-gradient-121" x1="105.8" y1="90.87" x2="108.1" y2="90.87" xlink:href="#linear-gradient"/><linearGradient id="linear-gradient-122" x1="90.1" y1="85.47" x2="144.22" y2="85.47" xlink:href="#linear-gradient-2"/><radialGradient id="radial-gradient-4" cx="105.35" cy="82.27" r="6.04" xlink:href="#radial-gradient-2"/><linearGradient id="linear-gradient-123" x1="41.63" y1="141.06" x2="44.95" y2="146.52" xlink:href="#linear-gradient-49"/><linearGradient id="linear-gradient-124" x1="30.93" y1="152.27" x2="29.46" y2="154.61" xlink:href="#linear-gradient-49"/><linearGradient id="linear-gradient-125" x1="37.65" y1="148.06" x2="38.49" y2="148.41" xlink:href="#linear-gradient-2"/><linearGradient id="linear-gradient-126" x1="37.12" y1="147.81" x2="38.85" y2="148.54" gradientUnits="userSpaceOnUse"><stop offset="0" stop-color="#0a446e"/><stop offset="1" stop-color="#040b1a"/></linearGradient><linearGradient id="linear-gradient-127" x1="40.72" y1="146.3" x2="41.56" y2="146.65" xlink:href="#linear-gradient-2"/><linearGradient id="linear-gradient-128" x1="40.19" y1="146.06" x2="41.91" y2="146.78" xlink:href="#linear-gradient-126"/><linearGradient id="linear-gradient-129" x1="43.78" y1="144.54" x2="44.62" y2="144.89" xlink:href="#linear-gradient-2"/><linearGradient id="linear-gradient-130" x1="43.25" y1="144.3" x2="44.97" y2="145.02" xlink:href="#linear-gradient-126"/><linearGradient id="linear-gradient-131" x1="46.83" y1="142.79" x2="47.68" y2="143.14" xlink:href="#linear-gradient-2"/><linearGradient id="linear-gradient-132" x1="46.31" y1="142.55" x2="48.03" y2="143.27" xlink:href="#linear-gradient-126"/><linearGradient id="linear-gradient-133" x1="49.9" y1="141.03" x2="50.74" y2="141.38" xlink:href="#linear-gradient-2"/><linearGradient id="linear-gradient-134" x1="49.37" y1="140.79" x2="51.1" y2="141.51" xlink:href="#linear-gradient-126"/><linearGradient id="linear-gradient-135" x1="39.68" y1="183.83" x2="43.06" y2="189.38" xlink:href="#linear-gradient-49"/><linearGradient id="linear-gradient-136" x1="27.08" y1="196.19" x2="25.61" y2="198.53" xlink:href="#linear-gradient-49"/><linearGradient id="linear-gradient-137" x1="37.65" y1="189.75" x2="38.49" y2="190.1" xlink:href="#linear-gradient-2"/><linearGradient id="linear-gradient-138" x1="37.12" y1="189.51" x2="38.85" y2="190.23" xlink:href="#linear-gradient-126"/><linearGradient id="linear-gradient-139" x1="40.72" y1="188" x2="41.56" y2="188.35" xlink:href="#linear-gradient-2"/><linearGradient id="linear-gradient-140" x1="40.19" y1="187.75" x2="41.91" y2="188.47" xlink:href="#linear-gradient-126"/><linearGradient id="linear-gradient-141" x1="43.78" y1="186.24" x2="44.62" y2="186.59" xlink:href="#linear-gradient-2"/><linearGradient id="linear-gradient-142" x1="43.25" y1="185.99" x2="44.97" y2="186.72" xlink:href="#linear-gradient-126"/><linearGradient id="linear-gradient-143" x1="46.83" y1="184.48" x2="47.68" y2="184.83" xlink:href="#linear-gradient-2"/><linearGradient id="linear-gradient-144" x1="46.31" y1="184.24" x2="48.04" y2="184.96" xlink:href="#linear-gradient-126"/><linearGradient id="linear-gradient-145" x1="49.9" y1="182.72" x2="50.74" y2="183.08" xlink:href="#linear-gradient-2"/><linearGradient id="linear-gradient-146" x1="49.37" y1="182.48" x2="51.1" y2="183.2" xlink:href="#linear-gradient-126"/><linearGradient id="linear-gradient-147" x1="0.89" y1="246.38" x2="37.09" y2="246.38" xlink:href="#linear-gradient-49"/><linearGradient id="linear-gradient-148" x1="2.51" y1="237.29" x2="56.72" y2="237.29" xlink:href="#linear-gradient-2"/><linearGradient id="linear-gradient-149" x1="7.96" y1="221.15" x2="30.38" y2="221.15" xlink:href="#linear-gradient-49"/><linearGradient id="linear-gradient-150" x1="8.97" y1="201.63" x2="42.54" y2="201.63" xlink:href="#linear-gradient-2"/><linearGradient id="linear-gradient-151" x1="0.89" y1="204.62" x2="37.09" y2="204.62" xlink:href="#linear-gradient-49"/><linearGradient id="linear-gradient-152" x1="2.51" y1="196.61" x2="56.72" y2="196.61" xlink:href="#linear-gradient-2"/><linearGradient id="linear-gradient-153" x1="5.02" y1="192.82" x2="33.9" y2="192.82" xlink:href="#linear-gradient-3"/><linearGradient id="linear-gradient-154" x1="5.02" y1="183.3" x2="33.9" y2="183.3" xlink:href="#linear-gradient-4"/><linearGradient id="linear-gradient-155" x1="0.89" y1="188.83" x2="37.09" y2="188.83" xlink:href="#linear-gradient-49"/><linearGradient id="linear-gradient-156" x1="2.51" y1="182.8" x2="56.72" y2="182.8" xlink:href="#linear-gradient-2"/><linearGradient id="linear-gradient-157" x1="5.02" y1="178.67" x2="33.9" y2="178.67" xlink:href="#linear-gradient-3"/><linearGradient id="linear-gradient-158" x1="5.02" y1="169.15" x2="33.9" y2="169.15" xlink:href="#linear-gradient-4"/><linearGradient id="linear-gradient-159" x1="0.89" y1="174.68" x2="37.09" y2="174.68" xlink:href="#linear-gradient-49"/><linearGradient id="linear-gradient-160" x1="2.51" y1="168.64" x2="56.72" y2="168.64" xlink:href="#linear-gradient-2"/><linearGradient id="linear-gradient-161" x1="5.02" y1="164.86" x2="33.9" y2="164.86" xlink:href="#linear-gradient-3"/><linearGradient id="linear-gradient-162" x1="5.02" y1="155.34" x2="33.9" y2="155.34" xlink:href="#linear-gradient-4"/><linearGradient id="linear-gradient-163" x1="0.89" y1="153.07" x2="37.09" y2="153.07" xlink:href="#linear-gradient-49"/><linearGradient id="linear-gradient-164" x1="2.51" y1="139.6" x2="56.72" y2="139.6" xlink:href="#linear-gradient-2"/><radialGradient id="radial-gradient-5" cx="12.85" cy="130.88" r="22.66" xlink:href="#radial-gradient"/><linearGradient id="linear-gradient-165" x1="0.9" y1="126.13" x2="37.08" y2="126.13" xlink:href="#linear-gradient-49"/><linearGradient id="linear-gradient-166" x1="2.5" y1="124.4" x2="56.75" y2="124.4" xlink:href="#linear-gradient-2"/><linearGradient id="linear-gradient-167" x1="18.23" y1="119.19" x2="20.53" y2="119.19" xlink:href="#linear-gradient-49"/><linearGradient id="linear-gradient-168" x1="2.52" y1="113.8" x2="56.7" y2="113.8" xlink:href="#linear-gradient-2"/><radialGradient id="radial-gradient-6" cx="17.79" cy="110.59" r="6.03" xlink:href="#radial-gradient-2"/><linearGradient id="linear-gradient-169" x1="42.79" y1="253.65" x2="73.54" y2="253.65" xlink:href="#linear-gradient-49"/><linearGradient id="linear-gradient-170" x1="45.23" y1="266.16" x2="79.41" y2="230.29" xlink:href="#linear-gradient-2"/><linearGradient id="linear-gradient-171" x1="46.49" y1="231.69" x2="77.23" y2="231.69" xlink:href="#linear-gradient-49"/><linearGradient id="linear-gradient-172" x1="52.5" y1="209.32" x2="83.83" y2="209.32" xlink:href="#linear-gradient-2"/><linearGradient id="linear-gradient-173" x1="53.95" y1="207.15" x2="70.64" y2="207.15" xlink:href="#linear-gradient-3"/><linearGradient id="linear-gradient-174" x1="53.95" y1="201.65" x2="70.65" y2="201.65" xlink:href="#linear-gradient-4"/><linearGradient id="linear-gradient-175" x1="48.92" y1="204.85" x2="72.74" y2="204.85" xlink:href="#linear-gradient-49"/><linearGradient id="linear-gradient-176" x1="52.5" y1="201.36" x2="83.84" y2="201.36" xlink:href="#linear-gradient-2"/><linearGradient id="linear-gradient-177" x1="53.95" y1="199.21" x2="70.64" y2="199.21" xlink:href="#linear-gradient-3"/><linearGradient id="linear-gradient-178" x1="53.95" y1="193.71" x2="70.65" y2="193.71" xlink:href="#linear-gradient-4"/><linearGradient id="linear-gradient-179" x1="48.92" y1="196.91" x2="72.74" y2="196.91" xlink:href="#linear-gradient-49"/><linearGradient id="linear-gradient-180" x1="52.5" y1="193.42" x2="83.84" y2="193.42" xlink:href="#linear-gradient-2"/><linearGradient id="linear-gradient-181" x1="53.95" y1="191.42" x2="70.64" y2="191.42" xlink:href="#linear-gradient-3"/><linearGradient id="linear-gradient-182" x1="53.95" y1="185.92" x2="70.65" y2="185.92" xlink:href="#linear-gradient-4"/><linearGradient id="linear-gradient-183" x1="48.92" y1="189.12" x2="72.74" y2="189.12" xlink:href="#linear-gradient-49"/><linearGradient id="linear-gradient-184" x1="52.5" y1="185.63" x2="83.84" y2="185.63" xlink:href="#linear-gradient-2"/><linearGradient id="linear-gradient-185" x1="53.95" y1="183.44" x2="70.64" y2="183.44" xlink:href="#linear-gradient-3"/><linearGradient id="linear-gradient-186" x1="53.95" y1="177.94" x2="70.65" y2="177.94" xlink:href="#linear-gradient-4"/><linearGradient id="linear-gradient-187" x1="48.92" y1="181.13" x2="72.74" y2="181.13" xlink:href="#linear-gradient-49"/><linearGradient id="linear-gradient-188" x1="52.5" y1="177.65" x2="83.84" y2="177.65" xlink:href="#linear-gradient-2"/><linearGradient id="linear-gradient-189" x1="53.95" y1="175.7" x2="70.64" y2="175.7" xlink:href="#linear-gradient-3"/><linearGradient id="linear-gradient-190" x1="53.95" y1="170.2" x2="70.65" y2="170.2" xlink:href="#linear-gradient-4"/><linearGradient id="linear-gradient-191" x1="48.92" y1="173.4" x2="72.74" y2="173.4" xlink:href="#linear-gradient-49"/><linearGradient id="linear-gradient-192" x1="52.5" y1="169.91" x2="83.84" y2="169.91" xlink:href="#linear-gradient-2"/><linearGradient id="linear-gradient-193" x1="53.95" y1="167.52" x2="70.64" y2="167.52" xlink:href="#linear-gradient-3"/><linearGradient id="linear-gradient-194" x1="53.95" y1="162.02" x2="70.65" y2="162.02" xlink:href="#linear-gradient-4"/><linearGradient id="linear-gradient-195" x1="48.92" y1="165.22" x2="72.74" y2="165.22" xlink:href="#linear-gradient-49"/><linearGradient id="linear-gradient-196" x1="52.5" y1="161.73" x2="83.84" y2="161.73" xlink:href="#linear-gradient-2"/><linearGradient id="linear-gradient-197" x1="53.95" y1="159.54" x2="70.64" y2="159.54" xlink:href="#linear-gradient-3"/><linearGradient id="linear-gradient-198" x1="53.95" y1="154.03" x2="70.65" y2="154.03" xlink:href="#linear-gradient-4"/><linearGradient id="linear-gradient-199" x1="48.92" y1="155.44" x2="72.73" y2="155.44" xlink:href="#linear-gradient-49"/><linearGradient id="linear-gradient-200" x1="52.17" y1="162.86" x2="72.46" y2="141.57" xlink:href="#linear-gradient-2"/><linearGradient id="linear-gradient-201" x1="53.56" y1="150.88" x2="74.32" y2="150.88" xlink:href="#linear-gradient-49"/><linearGradient id="linear-gradient-202" x1="54.91" y1="152.28" x2="66.62" y2="142.37" xlink:href="#linear-gradient-2"/><radialGradient id="radial-gradient-7" cx="1572.64" cy="270.77" r="19.51" gradientTransform="translate(1622.79 442.18) rotate(180)" xlink:href="#radial-gradient"/><linearGradient id="linear-gradient-203" x1="44.3" y1="139.98" x2="77.87" y2="139.98" xlink:href="#linear-gradient-49"/><linearGradient id="linear-gradient-204" x1="63.75" y1="116.66" x2="43.74" y2="82.28" gradientUnits="userSpaceOnUse"><stop offset="0" stop-color="gray"/><stop offset="1"/></linearGradient><linearGradient id="linear-gradient-205" x1="62.45" y1="104.86" x2="62.31" y2="118.17" xlink:href="#linear-gradient-2"/><linearGradient id="linear-gradient-206" x1="47.73" y1="128.33" x2="70.68" y2="108.92" xlink:href="#linear-gradient-3"/><linearGradient id="linear-gradient-207" x1="39.6" y1="145.87" x2="75.56" y2="115.46" xlink:href="#linear-gradient-2"/><linearGradient id="linear-gradient-208" x1="36.61" y1="128.86" x2="97.63" y2="128.86" xlink:href="#linear-gradient-3"/><linearGradient id="linear-gradient-209" x1="39.82" y1="129.3" x2="94.32" y2="129.3" xlink:href="#linear-gradient-49"/><linearGradient id="linear-gradient-210" x1="41.33" y1="134.74" x2="80.46" y2="134.74" xlink:href="#linear-gradient-49"/><linearGradient id="linear-gradient-211" x1="41.33" y1="124.89" x2="79.88" y2="124.89" xlink:href="#linear-gradient-49"/><linearGradient id="linear-gradient-212" x1="39.6" y1="133.77" x2="75.56" y2="103.35" xlink:href="#linear-gradient-2"/><linearGradient id="linear-gradient-213" x1="63.37" y1="105.37" x2="48.56" y2="79.92" xlink:href="#linear-gradient-204"/><linearGradient id="linear-gradient-214" x1="62.41" y1="96.63" x2="62.3" y2="106.48" xlink:href="#linear-gradient-2"/><linearGradient id="linear-gradient-215" x1="51.52" y1="114" x2="68.5" y2="99.64" xlink:href="#linear-gradient-3"/><linearGradient id="linear-gradient-216" x1="45.49" y1="126.99" x2="72.11" y2="104.48" xlink:href="#linear-gradient-2"/><linearGradient id="linear-gradient-217" x1="43.28" y1="114.39" x2="88.45" y2="114.39" xlink:href="#linear-gradient-3"/><linearGradient id="linear-gradient-218" x1="45.66" y1="114.72" x2="86" y2="114.72" xlink:href="#linear-gradient-49"/><linearGradient id="linear-gradient-219" x1="41.33" y1="118.75" x2="80.23" y2="118.75" xlink:href="#linear-gradient-49"/><linearGradient id="linear-gradient-220" x1="41.33" y1="111.46" x2="78.61" y2="111.46" xlink:href="#linear-gradient-49"/><linearGradient id="linear-gradient-221" x1="45.49" y1="118.03" x2="72.11" y2="95.52" xlink:href="#linear-gradient-2"/><linearGradient id="linear-gradient-222" x1="50.62" y1="112.8" x2="69.12" y2="97.16" xlink:href="#linear-gradient-2"/><linearGradient id="linear-gradient-223" x1="49.08" y1="104.05" x2="80.47" y2="104.05" xlink:href="#linear-gradient-3"/><linearGradient id="linear-gradient-224" x1="50.73" y1="104.28" x2="78.76" y2="104.28" xlink:href="#linear-gradient-49"/><linearGradient id="linear-gradient-225" x1="41.33" y1="107.08" x2="82.8" y2="107.08" xlink:href="#linear-gradient-49"/><linearGradient id="linear-gradient-226" x1="41.33" y1="102.01" x2="75.38" y2="102.01" xlink:href="#linear-gradient-49"/><linearGradient id="linear-gradient-227" x1="50.62" y1="106.57" x2="69.12" y2="90.93" xlink:href="#linear-gradient-2"/><linearGradient id="linear-gradient-228" x1="40.51" y1="95.34" x2="83.11" y2="95.34" xlink:href="#linear-gradient-49"/><linearGradient id="linear-gradient-229" x1="42.41" y1="93.31" x2="106.23" y2="93.31" xlink:href="#linear-gradient-2"/><linearGradient id="linear-gradient-230" x1="60.92" y1="87.18" x2="63.63" y2="87.18" xlink:href="#linear-gradient-49"/><linearGradient id="linear-gradient-231" x1="42.4" y1="80.83" x2="106.26" y2="80.83" xlink:href="#linear-gradient-2"/><radialGradient id="radial-gradient-8" cx="60.64" cy="77.79" r="6.21" xlink:href="#radial-gradient-2"/></defs><title>universitet</title><g class="cls-1"><g id="Layer_2" data-name="Layer 2"><g id="COLORS"><path class="cls-2" d="M78.36,238.13a175.87,175.87,0,0,0,23.38-2c1.74-.27,4-.24,5.54-1,2.25-1.09,4.18-3.45,6.62-4.61,3.18-1.52,6.89-1.4,9.87-2.79,2.39-1.11,4.62-3.61,6.85-4.86a10,10,0,0,1,1.55-.61,19.37,19.37,0,0,0-1.4-2.47c-4.86-6.86-15.58-5.6-22.58-10.27a36.12,36.12,0,0,1-3.91-3.22,37.4,37.4,0,0,0-7.79,1.82c-2.36.9-3.35,2.06-5.35,3.82-6.41,5.63-13.12,11.23-18.93,17.5-1.69,1.82-4.71,4.25-3.58,8C71.25,238.3,75.62,238.19,78.36,238.13Z"/><path class="cls-3" d="M88.22,200.89c-.57-3.19,4.87-9.91,7-13,1.42-2.08,7.65-14.86,10.56-15.65,3.24-.89,18.72,7.17,20.29,9.67,1.13,1.81.55,8.49.77,10.68.47,4.72,1.36,9.48,1.47,14.23.19,8-6.07,13.49-8.88,21-4.58.38-15.92,3.49-19.87,1.17-3-1.77-4-8.48-5.09-11.65C92.75,212.54,90.48,207.63,88.22,200.89Z"/><path class="cls-4" d="M114.55,174.87c-3.8-1.75-7.4-3-8.78-2.62-2.91.79-9.14,13.57-10.56,15.64-2.12,3.09-7.56,9.81-7,13,2.26,6.74,4.53,11.65,6.24,16.49,1.11,3.17,2.08,9.88,5.09,11.65,2.15,1.26,6.47.91,10.71.28,1-3.68,2.61-7.3,2.81-11,.28-5.18-1.19-11.51-1.85-16.62-.72-5.57.36-8.79,1.58-14.44C113.58,183.6,113.86,179,114.55,174.87Z"/><path class="cls-3" d="M37.76,184.3c1.62-7.19,8.9-11.59,10.76-18.78,1-4-2.25-10-3.29-13.78-2.2-8,5.94-7.57,10.65-10.87,3.56-2.49,5.17-4.55,9.57-6.39,5.36-2.26,10.84-4.32,15.76-7.47,3.24,3.81,8.62,12.91,9.64,14.38a42.34,42.34,0,0,1,7.09,16.41c1.22,7-1.88,10-3.22,16.09-2.28,10.3,3.27,21.14,8.77,29.47,2.34,3.52,6.33,6.54,7.66,10.43.41,1.21-1.35,15.56-.89,15.52-14,2.9-27.44,5.24-41.4,8.13-1.72.36-18.94-10.75-27.43-15.06-.73-11.48-3.23-23-4-34.33A13.45,13.45,0,0,1,37.76,184.3Z"/><path class="cls-5" d="M68.86,237.44l2.34-.5c-.23-3-.78-6-.84-8.15-.16-5.85,0-11.72,0-17.58,0-5.06,2.56-8.9,3-13.77,1.24-12.66-12.2-28.25-3.68-40.43,4.39-6.27,7.36-10.11,9.36-17.39.93-3.41,1.2-8.46,2.13-12.6h0c-4.92,3.15-10.4,5.21-15.76,7.47-4.4,1.84-6,3.9-9.57,6.39-4.71,3.3-12.85,2.84-10.66,10.87,1.05,3.81,4.32,9.82,3.3,13.78-1.86,7.19-9.14,11.59-10.76,18.78a13.45,13.45,0,0,0-.29,3.75c.72,11.29,3.23,22.85,4,34.33C49.92,226.69,67.14,237.8,68.86,237.44Z"/><path class="cls-2" d="M35.68,244.63c3.3,1.94,9.68.37,13.27,0s7.49-.8,11.21-1.25c.92-.11,3.74-.14,4.66-.66a8.11,8.11,0,0,0,3.66-8.59c-1.82-7.83-2.28-16.68-3.5-24.07-1.1-6.66-7.29-12.36-8-18.9-.55-5.37-4.63-7.66-10.23-7.84-3.44-.11-5-.05-6.76,2.54-2.89,4.36-4.23,9.65-6.17,14.45-1.26,3.09-2.38,6.15-2.3,9.45.14,5.77,2.18,11.63,3.93,17a23.33,23.33,0,0,1,1,11.87C36.19,240.59,35.46,242.64,35.68,244.63Z"/><path class="cls-6" d="M17.78,234.4c-1.18-2.3-1.46-5.75-2.06-8.38-1.26-5.59-3.46-10.9-5-16.37-1.77-6.12.59-12.31,2.07-18.79,1-4.31.29-6,4.68-7,3.45-.78,9.18-1.38,12.65-.83,4.29.68,8.48,3.2,12.54,5,5.41,2.33,5.93,3.73,7.07,9.61,1.46,7.54,3,15.08,4.51,22.63.63,3.18,2.72,7.7,1.27,10.62-2,4.07-9.92,7.74-13.36,10.46-2.7,2.13-3.6,3.78-6.65,3.39C28.71,243.84,21.21,236.6,17.78,234.4Z"/><path class="cls-5" d="M49.69,197.6c-1.14-5.88-1.66-7.28-7.07-9.61-4.06-1.76-8.25-4.28-12.54-5-3.47-.55-9.2.05-12.65.83-4.39,1-3.7,2.69-4.68,7-1.48,6.48-3.84,12.67-2.07,18.79l0,0c7.12,1.56,15,1.53,21.72,4,3.19-4.59,9.72-10.56,14.38-13,1.86-1,2.71-.69,3.28-1.15C50,198.91,49.81,198.25,49.69,197.6Z"/><path class="cls-3" d="M54.2,220.23c-1.52-7.55-4.25-21.32-4.12-20.67-.57.46-1.42.18-3.28,1.15-4.66,2.45-11.19,8.42-14.38,13-.16-.05,3.07,9.18,3.48,13.09a175.85,175.85,0,0,1,.43,17.94c2.38,0,3.36-1.54,5.78-3.44,3.44-2.72,11.34-6.39,13.36-10.46C56.92,227.93,54.83,223.41,54.2,220.23Z"/><path class="cls-5" d="M32.42,213.72c3.19-4.59,9.72-10.56,14.38-13,1.86-1,2.71-.69,3.28-1.15,0-.17-.07-.35-.11-.52a28.55,28.55,0,0,0-13,3.65c-2.49,1.47-4.54,4.06-7.05,5.51-3,1.71-8.21.56-11.68.84-2.14.17-4.26.52-6.37.88C18.67,211.25,26.09,211.36,32.42,213.72Z"/><path class="cls-4" d="M34.2,214c-.13,1.85,2.2,10.09,2.63,12,.93,4,1,13.1.69,17.52,2.79-1.33,8.77-7.51,11.4-9.23a40.06,40.06,0,0,0,6.86-5.15c-1.14-1.91-1.13-4.68-2.46-6.46-1.67-2.23-5.67-3.23-8.09-4.32-2.59-1.16-8.92-2.79-10.19-5.51A3.46,3.46,0,0,0,34.2,214Z"/><path class="cls-7" d="M18.93,232.82c3-2.75,6.07-6.1,9.58-8.54,1.63-1.14,1.23-3,3.16-2.14.39,1.25,1.93,2.92,1.9,4.23a48.72,48.72,0,0,0,0,5.92c.29,3.26-.28,6.71-.21,10-1.39-.86-2.87-1.48-4.25-2.44-1.59-1.11-3.08-2.41-4.58-3.63S21.18,233.37,18.93,232.82Z"/><g class="cls-8"><path class="cls-9" d="M36.33,244.75l.21,0h-.21Z"/><path class="cls-9" d="M36.88,244.71h0l-.34,0Z"/><path class="cls-9" d="M32.42,213.72c.35-.5.74-1,1.17-1.55C33.16,212.7,32.77,213.22,32.42,213.72Z"/><path class="cls-9" d="M35.9,226.81c-.41-3.91-3.64-13.14-3.48-13.09a41.49,41.49,0,0,0-7.49-1.89c1.84,2.19,4.6,3.69,6.28,6s2.77,6,3.45,8.82c.78,3.26.54,6.42.8,9.74.2,2.5-.12,5.51,0,8.27h0a5.3,5.3,0,0,0,.87,0A175.65,175.65,0,0,0,35.9,226.81Z"/></g><path class="cls-5" d="M79.09,139.62c.93-3.41,1.2-8.46,2.13-12.6h0c-.57.37-1.16.72-1.75,1.06-.34,2.54-.94,5.3-1.38,7.53-1.1,5.68-3.79,9.17-6.64,14.36a60.49,60.49,0,0,1-4.16,6.84c-1.13,1.52-3.41,3.55-3.8,5.44-.77,3.68,1.65,9.67,2.41,13.4a64.21,64.21,0,0,0,2.23,8.17c2.43,7,4.39,13.2,0,19.78-.18,5.73-2.11,12-2.79,17.7-.57,4.78-.81,9.49-.91,14.2,2.33,1.26,4,2,4.48,1.95l2.34-.5c-.23-3-.78-6-.84-8.15-.16-5.85,0-11.72,0-17.58,0-5.06,2.56-8.9,3-13.77,1.24-12.66-12.2-28.25-3.68-40.43C74.12,150.74,77.09,146.9,79.09,139.62Z"/><path class="cls-4" d="M78.62,148.77c-2.49,3.88-7.41,7.89-9.08,12.12-.83,2.1-.86,5.88-.63,8.15.34,3.28,2.32,6.4,3.52,9.49,1.39,3.6,2,8.75,4.5,11.74,2.23-6,4.08-12.6,6.53-18.62,1-2.56,1.68-4.66,3.2-6.76,1.38-1.9,4.72-3.49,5.6-5.62,1.33-3.2-2-10.38-3.25-13.54-1.39-3.53-4.67-4.83-6.63-7.95C81.88,140.67,82.14,147,78.62,148.77Z"/><path class="cls-4" d="M72.94,213.85a108.72,108.72,0,0,0,.87,15.53c.77,5.36.48,5,6,3.59,8-2,16-2.21,23.85-5.14.08-2.35-.32-4.67-.3-7-3.3-.71-6.66-1.91-9.93-2.94-2.68-.85-6.24-1.09-8.65-2.62-2.63-1.67-4.33-5-5.94-7.58-2.06-3.25-1.85-3-5.1-2.73A49.66,49.66,0,0,1,72.94,213.85Z"/><path class="cls-5" d="M46.21,148c1,3.25,7.81,6.22,10.22,8.26s2.88,1.55,5.65,2.17c3.08-3.64,7.48-7.65,9.28-11.86,1-2.43,1.3-5.05,2-7.57.44-1.62,1.5-3.35,1.48-5-3.33,1.14-7.65,2.81-10.53,4.87-1.84,1.32-3.27,3.83-5.4,5C56.15,145.32,46.66,145,46.21,148Z"/><path class="cls-4" d="M124.4,185.09c-.34,1.14,0,2.89.11,4.15.08,2,0,3.93.26,5.91a55.3,55.3,0,0,0,.71,5.71c.85,3.6,1.18,5.15-1.09,8.24-1-2.14-1.27-4.65-1.9-6.92-.56-2-1.48-3.84-2.17-5.77-.93-2.58-.76-5.26-.67-8,.08-2.48-.07-5,0-7.47A47.67,47.67,0,0,1,124.4,185.09Z"/><path class="cls-2" d="M95.54,187.37a62.07,62.07,0,0,0,7.95,16,50.27,50.27,0,0,0,4,4.83c0-1.31,0-2.62,0-3.94a35.81,35.81,0,0,1,.44-6.57c.49-3.36,1.07-6.69,1.43-10.08.12-1.11,1.12-4,.88-4.95-.44-1.75-3.3-2.64-4.37-4.17a47.09,47.09,0,0,0-8.1,4.92C96.83,185.07,96.05,186.51,95.54,187.37Z"/><path class="cls-10" d="M33.15,241.79c-7.59-4.38-19.88-4.38-27.46,0s-7.59,11.48,0,15.85,19.87,4.38,27.46,0S40.73,246.17,33.15,241.79Z"/><path class="cls-10" d="M77,215.93c-7.59-4.39-19.88-4.39-27.46,0s-7.58,11.47,0,15.85,19.87,4.37,27.46,0S84.53,220.3,77,215.93Z"/><path class="cls-10" d="M120.75,241c-7.59-4.38-19.88-4.38-27.46,0s-7.58,11.47,0,15.85,19.87,4.38,27.46,0S128.33,245.33,120.75,241Z"/><path class="cls-11" d="M79.54,222.83V212H73.39a26.07,26.07,0,0,0-20.29,0H46.94v10.81h0c0,2.41,1.59,4.82,4.78,6.66,6.37,3.67,16.68,3.67,23,0C78,227.65,79.54,225.24,79.54,222.83Z"/><path class="cls-12" d="M74.77,218.67c-6.37,3.68-16.68,3.68-23,0s-6.36-9.63,0-13.31,16.68-3.67,23,0S81.13,215,74.77,218.67Z"/><path class="cls-13" d="M77.69,211.24V198.73H72.23a23.26,23.26,0,0,0-18,0H48.8v12.52h0c0,2.14,1.4,4.27,4.23,5.89,5.64,3.27,14.78,3.26,20.42,0C76.27,215.52,77.69,213.38,77.69,211.24Z"/><path class="cls-14" d="M73.45,204.63c-5.64,3.26-14.78,3.27-20.42,0s-5.64-8.54,0-11.79,14.78-3.26,20.42,0S79.1,201.37,73.45,204.63Z"/><path class="cls-15" d="M79.54,202.94v-4.7H73.39a26.16,26.16,0,0,0-20.29,0H46.94V203h0c0,2.4,1.59,4.81,4.78,6.65,6.37,3.67,16.68,3.67,23,0C78,207.76,79.54,205.34,79.54,202.94Z"/><path class="cls-16" d="M74.77,204.89c-6.37,3.68-16.68,3.68-23,0s-6.36-9.64,0-13.31,16.68-3.67,23,0S81.13,201.22,74.77,204.89Z"/><path class="cls-17" d="M77.69,197.44V184.92H72.23a23.26,23.26,0,0,0-18,0H48.8v12.52h0c0,2.13,1.4,4.27,4.23,5.9,5.64,3.25,14.78,3.25,20.42,0C76.27,201.71,77.69,199.57,77.69,197.44Z"/><path class="cls-18" d="M73.45,190.82c-5.64,3.26-14.78,3.26-20.42,0s-5.64-8.54,0-11.79,14.78-3.26,20.42,0S79.1,187.57,73.45,190.82Z"/><path class="cls-19" d="M79.54,189.13v-4.7H73.39a26.07,26.07,0,0,0-20.29,0H46.94v4.7h0c0,2.41,1.59,4.82,4.78,6.66,6.37,3.67,16.68,3.67,23,0C78,194,79.54,191.54,79.54,189.13Z"/><path class="cls-20" d="M74.77,191.07c-6.37,3.69-16.68,3.69-23,0s-6.36-9.62,0-13.3,16.68-3.68,23,0S81.13,187.4,74.77,191.07Z"/><path class="cls-21" d="M77.69,183.34V170.83H72.23a23.17,23.17,0,0,0-18,0H48.8v12.51h0c0,2.14,1.4,4.27,4.23,5.9,5.64,3.26,14.78,3.26,20.42,0C76.27,187.61,77.69,185.47,77.69,183.34Z"/><path class="cls-22" d="M73.45,176.73C67.81,180,58.67,180,53,176.73s-5.64-8.54,0-11.79,14.78-3.27,20.42,0S79.1,173.47,73.45,176.73Z"/><path class="cls-23" d="M79.54,175v-4.7H73.39a26.16,26.16,0,0,0-20.29,0H46.94V175h0c0,2.41,1.59,4.82,4.78,6.66,6.37,3.67,16.68,3.67,23,0C78,179.85,79.54,177.44,79.54,175Z"/><path class="cls-24" d="M74.77,177c-6.37,3.67-16.68,3.68-23,0s-6.36-9.63,0-13.31,16.68-3.67,23,0S81.13,173.31,74.77,177Z"/><path class="cls-25" d="M77.69,169.53V157H72.23a23.17,23.17,0,0,0-18,0H48.8v12.51h0c0,2.14,1.4,4.27,4.23,5.9,5.64,3.26,14.78,3.25,20.42,0C76.27,173.8,77.69,171.67,77.69,169.53Z"/><path class="cls-26" d="M73.45,162.92c-5.64,3.25-14.78,3.25-20.42,0s-5.64-8.54,0-11.8,14.78-3.26,20.42,0S79.1,159.66,73.45,162.92Z"/><path class="cls-27" d="M79.54,161.22v-4.7H73.39a26.16,26.16,0,0,0-20.29,0H46.94v4.7h0c0,2.41,1.59,4.82,4.78,6.66,6.37,3.67,16.68,3.67,23,0C78,166,79.54,163.63,79.54,161.22Z"/><path class="cls-28" d="M74.77,163.17c-6.37,3.68-16.68,3.68-23,0s-6.36-9.63,0-13.31,16.68-3.67,23,0S81.13,159.49,74.77,163.17Z"/><path class="cls-29" d="M77.69,155.55V143H72.23a23.17,23.17,0,0,0-18,0H48.8v12.51h0c0,2.13,1.4,4.27,4.23,5.9,5.64,3.25,14.78,3.25,20.42,0C76.27,159.81,77.69,157.68,77.69,155.55Z"/><path class="cls-30" d="M73.45,148.93c-5.64,3.26-14.78,3.26-20.42,0s-5.64-8.53,0-11.79,14.78-3.26,20.42,0S79.1,145.67,73.45,148.93Z"/><path class="cls-31" d="M79.54,147.24v-4.71H73.39a26.25,26.25,0,0,0-20.29,0H46.94v4.71h0c0,2.41,1.59,4.82,4.78,6.65,6.37,3.68,16.68,3.68,23,0C78,152.05,79.54,149.65,79.54,147.24Z"/><path class="cls-32" d="M74.77,149.19c-6.37,3.67-16.68,3.67-23,0s-6.36-9.64,0-13.31,16.68-3.67,23,0S81.13,145.51,74.77,149.19Z"/><path class="cls-33" d="M77.69,141.73v-12.5H72.23a23.17,23.17,0,0,0-18,0H48.8v12.51h0c0,2.13,1.4,4.27,4.23,5.89,5.64,3.26,14.78,3.26,20.42,0C76.27,146,77.69,143.87,77.69,141.73Z"/><path class="cls-34" d="M73.45,135.12c-5.64,3.26-14.78,3.26-20.42,0s-5.64-8.54,0-11.79,14.78-3.26,20.42,0S79.1,131.87,73.45,135.12Z"/><path class="cls-35" d="M79.54,133.42v-4.7H73.39a26.16,26.16,0,0,0-20.29,0H46.94v4.71h0c0,2.41,1.59,4.82,4.78,6.65,6.37,3.68,16.68,3.68,23,0C78,138.25,79.54,135.84,79.54,133.42Z"/><path class="cls-36" d="M74.77,135.38c-6.37,3.67-16.68,3.67-23,0s-6.36-9.63,0-13.31,16.68-3.68,23,0S81.13,131.7,74.77,135.38Z"/><path class="cls-37" d="M77.69,127.42V114.91H72.23a23.17,23.17,0,0,0-18,0H48.8v12.51h0c0,2.14,1.4,4.28,4.23,5.9,5.64,3.26,14.78,3.26,20.42,0C76.27,131.69,77.69,129.55,77.69,127.42Z"/><path class="cls-38" d="M73.45,120.81c-5.64,3.25-14.78,3.25-20.42,0s-5.64-8.54,0-11.8,14.78-3.25,20.42,0S79.1,117.55,73.45,120.81Z"/><path class="cls-39" d="M79.54,119.11v-4.7H73.39a26.16,26.16,0,0,0-20.29,0H46.94v4.71h0c0,2.4,1.59,4.81,4.78,6.65,6.37,3.67,16.68,3.67,23,0C78,123.93,79.54,121.52,79.54,119.11Z"/><ellipse class="cls-40" cx="63.24" cy="114.41" rx="16.3" ry="9.41"/><path class="cls-41" d="M77.69,113.61V101.1H72.23a23.17,23.17,0,0,0-18,0H48.8v12.52h0c0,2.13,1.4,4.26,4.23,5.89,5.64,3.26,14.78,3.26,20.42,0C76.27,117.88,77.69,115.75,77.69,113.61Z"/><path class="cls-42" d="M73.45,107c-5.64,3.26-14.78,3.26-20.42,0s-5.64-8.54,0-11.79,14.78-3.26,20.42,0S79.1,103.74,73.45,107Z"/><path class="cls-43" d="M79.54,105.3v-4.7H73.39a26.16,26.16,0,0,0-20.29,0H46.94v4.71h0c0,2.41,1.59,4.81,4.78,6.65,6.37,3.67,16.68,3.67,23,0C78,110.12,79.54,107.71,79.54,105.3Z"/><path class="cls-44" d="M74.77,107.25c-6.37,3.68-16.68,3.68-23,0s-6.36-9.63,0-13.31,16.68-3.67,23,0S81.13,103.58,74.77,107.25Z"/><path class="cls-45" d="M77.69,99.74V87.23H72.23a23.17,23.17,0,0,0-18,0H48.8V99.75h0c0,2.13,1.4,4.27,4.23,5.89,5.64,3.26,14.78,3.26,20.42,0C76.27,104,77.69,101.88,77.69,99.74Z"/><path class="cls-46" d="M73.45,93.13c-5.64,3.25-14.78,3.25-20.42,0s-5.64-8.54,0-11.79,14.78-3.26,20.42,0S79.1,89.87,73.45,93.13Z"/><path class="cls-47" d="M79.54,91.43v-4.7H73.39a26.16,26.16,0,0,0-20.29,0H46.94v4.71h0c0,2.41,1.59,4.81,4.78,6.65,6.37,3.68,16.68,3.68,23,0C78,96.25,79.54,93.84,79.54,91.43Z"/><path class="cls-48" d="M74.77,93.39c-6.37,3.67-16.68,3.67-23,0s-6.36-9.64,0-13.31,16.68-3.68,23,0S81.13,89.71,74.77,93.39Z"/><path class="cls-49" d="M77.69,85.93V73.42H72.23a23.22,23.22,0,0,0-18,0H48.8V85.94h0c0,2.13,1.4,4.26,4.23,5.89,5.64,3.26,14.78,3.26,20.42,0C76.27,90.2,77.69,88.07,77.69,85.93Z"/><path class="cls-50" d="M73.45,79.32c-5.64,3.25-14.78,3.25-20.42,0s-5.64-8.54,0-11.8,14.78-3.25,20.42,0S79.1,76.06,73.45,79.32Z"/><path class="cls-51" d="M79.54,77.62V58.06H73.39a26.11,26.11,0,0,0-20.29,0H46.94V77.63h0c0,2.4,1.59,4.82,4.78,6.65,6.37,3.68,16.68,3.68,23,0C78,82.44,79.54,80,79.54,77.62Z"/><path class="cls-10" d="M79.54,68.33V58.06H73.39a26.11,26.11,0,0,0-20.29,0H46.94V68.34s3.81,5.08,16.3,5.08S79.54,68.33,79.54,68.33Z"/><path class="cls-52" d="M74.77,64.71c-6.37,3.67-16.68,3.67-23,0s-6.36-9.63,0-13.31,16.68-3.67,23,0S81.13,61,74.77,64.71Z"/><path class="cls-53" d="M90.61,55.71v-10H80.28c-10-4.58-24.13-4.58-34.07,0H35.87v10h0c0,4,2.68,8.09,8,11.17,10.69,6.18,28,6.18,38.71,0C88,63.81,90.62,59.76,90.61,55.71Z"/><path class="cls-54" d="M82.6,56.93c-10.69,6.17-28,6.18-38.71,0s-10.69-16.18,0-22.34,28-6.18,38.71,0S93.29,50.76,82.6,56.93Z"/><path class="cls-10" d="M78.76,54.09c-8.61,5-22.55,5-31.16,0s-8.61-13,0-18,22.55-5,31.16,0S87.36,49.12,78.76,54.09Z"/><path class="cls-55" d="M84.39,44.31v-.08a21.15,21.15,0,0,0-42.3,0v.17h0c.06,3.09,2.11,6.16,6.18,8.51,8.27,4.78,21.66,4.77,29.92,0,4.08-2.35,6.13-5.42,6.18-8.51h0Z"/><path class="cls-10" d="M66.66,28.76a7.54,7.54,0,0,1-6.83,0c-1.9-1.09-1.9-2.86,0-4a7.54,7.54,0,0,1,6.83,0C68.55,25.9,68.55,27.67,66.66,28.76Z"/><path class="cls-56" d="M67.74,26.47V23.54H66a7.23,7.23,0,0,0-5.59,0h-1.7v2.94h0a2.23,2.23,0,0,0,1.31,1.83,7,7,0,0,0,6.36,0A2.22,2.22,0,0,0,67.74,26.47Z"/><path class="cls-57" d="M66.42,25.38a7.05,7.05,0,0,1-6.36,0c-1.75-1-1.75-2.66,0-3.67a7.05,7.05,0,0,1,6.36,0C68.17,22.72,68.17,24.36,66.42,25.38Z"/><path class="cls-10" d="M64.47,24A2.71,2.71,0,0,1,62,24a.75.75,0,0,1,0-1.42,2.71,2.71,0,0,1,2.45,0A.75.75,0,0,1,64.47,24Z"/><path class="cls-58" d="M64.79,23.1V8.24H64.2a2.55,2.55,0,0,0-1.92,0H61.7V23.1h0a.74.74,0,0,0,.45.63,2.39,2.39,0,0,0,2.18,0A.75.75,0,0,0,64.79,23.1Z"/><path class="cls-59" d="M64.33,8.88a2.39,2.39,0,0,1-2.18,0,.67.67,0,0,1,0-1.26,2.39,2.39,0,0,1,2.18,0C64.94,8,64.94,8.53,64.33,8.88Z"/><path class="cls-60" d="M68.57,5.39A5.39,5.39,0,1,1,63.18,0,5.39,5.39,0,0,1,68.57,5.39Z"/><path class="cls-61" d="M74.65,205.68l25.16,14.54-.49.85a4.2,4.2,0,0,1-1.61,2.78l-.48.84L72.07,210.15h0a1.31,1.31,0,0,1-.53-1.18,4,4,0,0,1,1.82-3.16A1.31,1.31,0,0,1,74.65,205.68Z"/><path class="cls-62" d="M98.52,220.36a4,4,0,0,0-1.83,3.15c0,1.16.82,1.63,1.83,1.05a4.05,4.05,0,0,0,1.82-3.16C100.34,220.24,99.52,219.77,98.52,220.36Z"/><path class="cls-63" d="M86.86,217.57a1.73,1.73,0,0,0,.77,1.34c.29.16.53.13.66,0a.53.53,0,0,1-.4-.1,1.68,1.68,0,0,1-.77-1.33.55.55,0,0,1,.12-.4C87,217.05,86.86,217.25,86.86,217.57Z"/><path class="cls-64" d="M87.12,217.43a1.68,1.68,0,0,0,.77,1.33.53.53,0,0,0,.4.1.57.57,0,0,0,.12-.39,1.7,1.7,0,0,0-.78-1.34.62.62,0,0,0-.39-.1A.55.55,0,0,0,87.12,217.43Z"/><path class="cls-65" d="M83.8,215.82a1.71,1.71,0,0,0,.77,1.33c.29.17.53.14.66,0a.63.63,0,0,1-.4-.1,1.66,1.66,0,0,1-.78-1.34.57.57,0,0,1,.13-.4C84,215.3,83.8,215.49,83.8,215.82Z"/><path class="cls-66" d="M84.05,215.67a1.66,1.66,0,0,0,.78,1.34.63.63,0,0,0,.4.1.6.6,0,0,0,.11-.4,1.69,1.69,0,0,0-.77-1.34.62.62,0,0,0-.39-.1A.57.57,0,0,0,84.05,215.67Z"/><path class="cls-67" d="M80.74,214.06a1.67,1.67,0,0,0,.77,1.33c.29.17.53.14.65,0a.74.74,0,0,1-.4-.1,1.76,1.76,0,0,1-.77-1.35.51.51,0,0,1,.13-.39C80.89,213.53,80.74,213.74,80.74,214.06Z"/><path class="cls-68" d="M81,213.91a1.76,1.76,0,0,0,.77,1.35.74.74,0,0,0,.4.1.59.59,0,0,0,.12-.41,1.68,1.68,0,0,0-.77-1.33.62.62,0,0,0-.39-.1A.51.51,0,0,0,81,213.91Z"/><path class="cls-69" d="M77.67,212.3a1.72,1.72,0,0,0,.78,1.34c.29.16.53.14.65,0a.57.57,0,0,1-.39-.11,1.66,1.66,0,0,1-.78-1.33.6.6,0,0,1,.12-.4C77.83,211.78,77.67,212,77.67,212.3Z"/><path class="cls-70" d="M77.93,212.16a1.66,1.66,0,0,0,.78,1.33.57.57,0,0,0,.39.11.55.55,0,0,0,.12-.4,1.69,1.69,0,0,0-.77-1.34.72.72,0,0,0-.4-.1A.6.6,0,0,0,77.93,212.16Z"/><path class="cls-71" d="M74.61,210.55a1.76,1.76,0,0,0,.77,1.34c.29.16.54.13.66,0a.58.58,0,0,1-.4-.1,1.69,1.69,0,0,1-.78-1.34A.53.53,0,0,1,75,210C74.77,210,74.61,210.22,74.61,210.55Z"/><path class="cls-72" d="M74.86,210.4a1.69,1.69,0,0,0,.78,1.34.58.58,0,0,0,.4.1.55.55,0,0,0,.11-.4,1.68,1.68,0,0,0-.77-1.33A.55.55,0,0,0,75,210,.53.53,0,0,0,74.86,210.4Z"/><path class="cls-73" d="M74.65,164l25.16,14.54-.49.84a4.16,4.16,0,0,1-1.61,2.78l-.48.84L72.07,168.47h0a1.3,1.3,0,0,1-.53-1.18,4,4,0,0,1,1.82-3.15A1.29,1.29,0,0,1,74.65,164Z"/><path class="cls-74" d="M98.52,178.68a4,4,0,0,0-1.83,3.15c0,1.17.82,1.64,1.83,1.06a4.07,4.07,0,0,0,1.82-3.16C100.34,178.57,99.52,178.1,98.52,178.68Z"/><path class="cls-75" d="M86.86,175.9a1.76,1.76,0,0,0,.77,1.34c.29.16.53.13.66-.05a.64.64,0,0,1-.4-.1,1.68,1.68,0,0,1-.77-1.34.56.56,0,0,1,.12-.4C87,175.38,86.86,175.58,86.86,175.9Z"/><path class="cls-76" d="M87.12,175.75a1.68,1.68,0,0,0,.77,1.34.64.64,0,0,0,.4.1.6.6,0,0,0,.12-.4,1.7,1.7,0,0,0-.78-1.34.69.69,0,0,0-.39-.1A.56.56,0,0,0,87.12,175.75Z"/><path class="cls-77" d="M83.8,174.14a1.73,1.73,0,0,0,.77,1.34c.29.16.53.13.66,0a.64.64,0,0,1-.4-.11,1.66,1.66,0,0,1-.78-1.33.55.55,0,0,1,.13-.4C84,173.62,83.8,173.82,83.8,174.14Z"/><path class="cls-78" d="M84.05,174a1.66,1.66,0,0,0,.78,1.33.64.64,0,0,0,.4.11.63.63,0,0,0,.11-.4,1.68,1.68,0,0,0-.77-1.34.56.56,0,0,0-.39-.1A.55.55,0,0,0,84.05,174Z"/><path class="cls-79" d="M80.74,172.38a1.71,1.71,0,0,0,.77,1.34c.29.16.53.14.65,0a.66.66,0,0,1-.4-.1,1.72,1.72,0,0,1-.77-1.34.55.55,0,0,1,.13-.4C80.89,171.86,80.74,172.06,80.74,172.38Z"/><path class="cls-80" d="M81,172.24a1.72,1.72,0,0,0,.77,1.34.66.66,0,0,0,.4.1.56.56,0,0,0,.12-.4,1.69,1.69,0,0,0-.77-1.34.62.62,0,0,0-.39-.1A.55.55,0,0,0,81,172.24Z"/><path class="cls-81" d="M77.67,170.63a1.73,1.73,0,0,0,.78,1.34c.29.16.53.13.65-.05a.51.51,0,0,1-.39-.1,1.66,1.66,0,0,1-.78-1.34.63.63,0,0,1,.12-.4C77.83,170.11,77.67,170.31,77.67,170.63Z"/><path class="cls-82" d="M77.93,170.48a1.66,1.66,0,0,0,.78,1.34.51.51,0,0,0,.39.1.55.55,0,0,0,.12-.4,1.71,1.71,0,0,0-.77-1.34.72.72,0,0,0-.4-.1A.63.63,0,0,0,77.93,170.48Z"/><path class="cls-83" d="M74.61,168.87a1.73,1.73,0,0,0,.77,1.34c.29.16.54.13.66,0a.64.64,0,0,1-.4-.1,1.71,1.71,0,0,1-.78-1.35.54.54,0,0,1,.13-.39C74.77,168.35,74.61,168.55,74.61,168.87Z"/><path class="cls-84" d="M74.86,168.72a1.71,1.71,0,0,0,.78,1.35.64.64,0,0,0,.4.1.55.55,0,0,0,.11-.4,1.68,1.68,0,0,0-.77-1.34.6.6,0,0,0-.39-.1A.54.54,0,0,0,74.86,168.72Z"/><path class="cls-85" d="M74.65,121.85l25.16,14.54-.49.84A4.18,4.18,0,0,1,97.71,140l-.48.84L72.07,126.31h0a1.3,1.3,0,0,1-.53-1.18A4,4,0,0,1,73.36,122,1.29,1.29,0,0,1,74.65,121.85Z"/><path class="cls-86" d="M98.52,136.52a4,4,0,0,0-1.83,3.15c0,1.17.82,1.64,1.83,1.06a4.05,4.05,0,0,0,1.82-3.16C100.34,136.41,99.52,135.94,98.52,136.52Z"/><path class="cls-87" d="M86.86,133.74a1.75,1.75,0,0,0,.77,1.34c.29.16.53.13.66-.05a.58.58,0,0,1-.4-.1,1.68,1.68,0,0,1-.77-1.34.56.56,0,0,1,.12-.4C87,133.22,86.86,133.42,86.86,133.74Z"/><path class="cls-88" d="M87.12,133.59a1.68,1.68,0,0,0,.77,1.34.58.58,0,0,0,.4.1.6.6,0,0,0,.12-.4,1.69,1.69,0,0,0-.78-1.33.63.63,0,0,0-.39-.11A.56.56,0,0,0,87.12,133.59Z"/><path class="cls-89" d="M83.8,132a1.75,1.75,0,0,0,.77,1.34c.29.16.53.13.66,0a.53.53,0,0,1-.4-.1,1.66,1.66,0,0,1-.78-1.33.55.55,0,0,1,.13-.4C84,131.46,83.8,131.66,83.8,132Z"/><path class="cls-90" d="M84.05,131.84a1.66,1.66,0,0,0,.78,1.33.53.53,0,0,0,.4.1.57.57,0,0,0,.11-.39,1.69,1.69,0,0,0-.77-1.34.56.56,0,0,0-.39-.1A.55.55,0,0,0,84.05,131.84Z"/><path class="cls-91" d="M80.74,130.23a1.7,1.7,0,0,0,.77,1.33c.29.16.53.14.65,0a.66.66,0,0,1-.4-.1,1.72,1.72,0,0,1-.77-1.34.55.55,0,0,1,.13-.4C80.89,129.71,80.74,129.91,80.74,130.23Z"/><path class="cls-92" d="M81,130.08a1.72,1.72,0,0,0,.77,1.34.66.66,0,0,0,.4.1.55.55,0,0,0,.12-.4,1.69,1.69,0,0,0-.77-1.34.69.69,0,0,0-.39-.1A.55.55,0,0,0,81,130.08Z"/><path class="cls-93" d="M77.67,128.47a1.73,1.73,0,0,0,.78,1.34c.29.16.53.13.65-.05a.51.51,0,0,1-.39-.1,1.66,1.66,0,0,1-.78-1.34.63.63,0,0,1,.12-.4C77.83,128,77.67,128.15,77.67,128.47Z"/><path class="cls-94" d="M77.93,128.32a1.66,1.66,0,0,0,.78,1.34.51.51,0,0,0,.39.1.54.54,0,0,0,.12-.39,1.68,1.68,0,0,0-.77-1.34.66.66,0,0,0-.4-.11A.63.63,0,0,0,77.93,128.32Z"/><path class="cls-95" d="M74.61,126.71a1.73,1.73,0,0,0,.77,1.34c.29.16.54.13.66-.05a.57.57,0,0,1-.4-.09,1.72,1.72,0,0,1-.78-1.34.55.55,0,0,1,.13-.4C74.77,126.19,74.61,126.39,74.61,126.71Z"/><path class="cls-96" d="M74.86,126.57a1.72,1.72,0,0,0,.78,1.34.57.57,0,0,0,.4.09.52.52,0,0,0,.11-.39,1.68,1.68,0,0,0-.77-1.34.6.6,0,0,0-.39-.1A.55.55,0,0,0,74.86,126.57Z"/><path class="cls-97" d="M123.33,248.1V237.29h-6.16a26.23,26.23,0,0,0-20.3,0H90.72v10.82h0c0,2.4,1.6,4.81,4.78,6.65,6.36,3.68,16.69,3.68,23,0C121.73,252.92,123.33,250.51,123.33,248.1Z"/><path class="cls-98" d="M118.55,244c-6.36,3.67-16.69,3.68-23,0s-6.37-9.64,0-13.31,16.69-3.67,23,0S124.91,240.27,118.55,244Z"/><path class="cls-99" d="M121.47,236.52V224H116a23.29,23.29,0,0,0-18,0H92.58v12.52h0c0,2.13,1.41,4.27,4.23,5.9,5.64,3.25,14.79,3.25,20.43,0C120.06,240.8,121.47,238.66,121.47,236.52Z"/><path class="cls-100" d="M117.24,229.91c-5.64,3.25-14.79,3.25-20.43,0s-5.64-8.54,0-11.79,14.79-3.26,20.43,0S122.88,226.66,117.24,229.91Z"/><path class="cls-101" d="M123.33,228.21v-4.7h-6.16a26.18,26.18,0,0,0-20.3,0H90.72v4.71h0c0,2.41,1.6,4.82,4.78,6.66,6.36,3.67,16.69,3.67,23,0C121.73,233,123.33,230.63,123.33,228.21Z"/><path class="cls-102" d="M118.55,230.17c-6.36,3.67-16.69,3.67-23,0s-6.37-9.64,0-13.31,16.69-3.68,23,0S124.91,226.49,118.55,230.17Z"/><path class="cls-103" d="M121.47,222.71v-12.5H116a23.2,23.2,0,0,0-18,0H92.58v12.51h0c0,2.13,1.41,4.27,4.23,5.89,5.64,3.27,14.79,3.27,20.43,0C120.06,227,121.47,224.85,121.47,222.71Z"/><path class="cls-104" d="M117.24,216.1c-5.64,3.26-14.79,3.26-20.43,0s-5.64-8.54,0-11.79,14.79-3.26,20.43,0S122.88,212.85,117.24,216.1Z"/><path class="cls-105" d="M123.33,214.41V209.7h-6.16a26.18,26.18,0,0,0-20.3,0H90.72v4.71h0c0,2.41,1.6,4.82,4.78,6.65,6.36,3.68,16.69,3.68,23,0C121.73,219.22,123.33,216.82,123.33,214.41Z"/><path class="cls-106" d="M118.55,216.36c-6.36,3.67-16.69,3.67-23,0s-6.37-9.64,0-13.31,16.69-3.68,23,0S124.91,212.68,118.55,216.36Z"/><path class="cls-107" d="M121.47,209V196.46H116a23.2,23.2,0,0,0-18,0H92.58V209h0c0,2.14,1.41,4.28,4.23,5.9,5.64,3.26,14.79,3.26,20.43,0C120.06,213.25,121.47,211.1,121.47,209Z"/><path class="cls-108" d="M117.24,202.36c-5.64,3.25-14.79,3.25-20.43,0s-5.64-8.54,0-11.79,14.79-3.26,20.43,0S122.88,199.1,117.24,202.36Z"/><path class="cls-109" d="M123.33,200.66V196h-6.16a26.18,26.18,0,0,0-20.3,0H90.72v4.71h0c0,2.4,1.6,4.82,4.78,6.65,6.36,3.68,16.69,3.68,23,0C121.73,205.48,123.33,203.07,123.33,200.66Z"/><path class="cls-110" d="M118.55,202.61c-6.36,3.68-16.69,3.68-23,0s-6.37-9.63,0-13.31,16.69-3.67,23,0S124.91,198.93,118.55,202.61Z"/><path class="cls-111" d="M121.47,195.16V182.65H116a23.2,23.2,0,0,0-18,0H92.58v12.52h0c0,2.13,1.41,4.26,4.23,5.89,5.64,3.26,14.79,3.26,20.43,0C120.06,199.43,121.47,197.3,121.47,195.16Z"/><path class="cls-112" d="M117.24,188.54c-5.64,3.27-14.79,3.27-20.43,0s-5.64-8.53,0-11.79,14.79-3.25,20.43,0S122.88,185.29,117.24,188.54Z"/><path class="cls-113" d="M123.33,186.85v-4.7h-6.16a26.18,26.18,0,0,0-20.3,0H90.72v4.71h0c0,2.41,1.6,4.81,4.78,6.65,6.36,3.68,16.69,3.68,23,0C121.73,191.67,123.33,189.26,123.33,186.85Z"/><path class="cls-114" d="M118.55,188.8c-6.36,3.68-16.69,3.68-23,0s-6.37-9.63,0-13.3,16.69-3.68,23,0S124.91,185.13,118.55,188.8Z"/><path class="cls-115" d="M121.47,181.29V168.78H116a23.29,23.29,0,0,0-18,0H92.58V181.3h0c0,2.13,1.41,4.27,4.23,5.89,5.64,3.26,14.79,3.26,20.43,0C120.06,185.56,121.47,183.43,121.47,181.29Z"/><path class="cls-116" d="M117.24,174.67c-5.64,3.26-14.79,3.26-20.43,0s-5.64-8.53,0-11.79,14.79-3.25,20.43,0S122.88,171.42,117.24,174.67Z"/><path class="cls-117" d="M123.33,173v-4.7h-6.16a26.18,26.18,0,0,0-20.3,0H90.72V173h0c0,2.41,1.6,4.81,4.78,6.65,6.36,3.68,16.69,3.68,23,0C121.73,177.8,123.33,175.4,123.33,173Z"/><path class="cls-118" d="M118.55,174.93c-6.36,3.68-16.69,3.68-23,0s-6.37-9.63,0-13.3,16.69-3.68,23,0S124.91,171.26,118.55,174.93Z"/><path class="cls-119" d="M121.47,167.48V155H116a23.29,23.29,0,0,0-18,0H92.58v12.51h0c0,2.14,1.41,4.28,4.23,5.9,5.64,3.26,14.79,3.26,20.43,0C120.06,171.75,121.47,169.62,121.47,167.48Z"/><path class="cls-120" d="M117.24,160.87c-5.64,3.26-14.79,3.26-20.43,0s-5.64-8.54,0-11.79,14.79-3.26,20.43,0S122.88,157.61,117.24,160.87Z"/><path class="cls-121" d="M123.33,159.17v-4.7h-6.16a26.18,26.18,0,0,0-20.3,0H90.72v4.71h0c0,2.41,1.6,4.82,4.78,6.65,6.36,3.68,16.69,3.67,23,0C121.73,164,123.33,161.58,123.33,159.17Z"/><path class="cls-122" d="M118.55,161.13c-6.36,3.67-16.69,3.67-23,0s-6.37-9.64,0-13.31,16.69-3.68,23,0S124.91,157.45,118.55,161.13Z"/><path class="cls-123" d="M121.47,153.33V140.82H116a23.2,23.2,0,0,0-18,0H92.58v12.51h0c0,2.14,1.41,4.27,4.23,5.9,5.64,3.26,14.79,3.25,20.43,0C120.06,157.6,121.47,155.46,121.47,153.33Z"/><path class="cls-124" d="M117.24,146.71c-5.64,3.26-14.79,3.26-20.43,0s-5.64-8.53,0-11.79,14.79-3.25,20.43,0S122.88,143.46,117.24,146.71Z"/><path class="cls-125" d="M123.33,145v-4.7h-6.16a26.18,26.18,0,0,0-20.3,0H90.72V145h0c0,2.41,1.6,4.82,4.78,6.66,6.36,3.67,16.69,3.67,23,0C121.73,149.84,123.33,147.43,123.33,145Z"/><path class="cls-126" d="M118.55,147c-6.36,3.68-16.69,3.68-23,0s-6.37-9.63,0-13.31,16.69-3.67,23,0S124.91,143.29,118.55,147Z"/><path class="cls-127" d="M121.47,139.51V127H116a23.2,23.2,0,0,0-18,0H92.58v12.51h0c0,2.14,1.41,4.27,4.23,5.9,5.64,3.26,14.79,3.25,20.43,0C120.06,143.79,121.47,141.66,121.47,139.51Z"/><path class="cls-128" d="M117.24,132.91c-5.64,3.25-14.79,3.25-20.43,0s-5.64-8.54,0-11.8,14.79-3.26,20.43,0S122.88,129.65,117.24,132.91Z"/><path class="cls-129" d="M123.33,130.84V111.28h-6.16a26.18,26.18,0,0,0-20.3,0H90.72v19.57h0c0,2.41,1.6,4.82,4.78,6.66,6.36,3.67,16.69,3.67,23,0C121.73,135.67,123.33,133.26,123.33,130.84Z"/><path class="cls-130" d="M118.55,117.93c-6.36,3.67-16.69,3.68-23,0s-6.37-9.63,0-13.31,16.69-3.67,23,0S124.91,114.26,118.55,117.93Z"/><path class="cls-10" d="M117.76,117.25c-6,3.44-15.64,3.44-21.6,0s-6-9,0-12.47,15.64-3.45,21.6,0S123.72,113.81,117.76,117.25Z"/><path class="cls-131" d="M121.66,110.47v-.06a14.66,14.66,0,0,0-29.31,0v0s0,0,0,.07h0c0,2.14,1.46,4.27,4.29,5.9,5.72,3.3,15,3.3,20.73,0,2.82-1.63,4.25-3.76,4.29-5.9h0Z"/><ellipse class="cls-10" cx="107" cy="98.33" rx="3.35" ry="1.93"/><path class="cls-132" d="M110.12,98.11v-2H109a5,5,0,0,0-3.89,0h-1.17v2h0a1.58,1.58,0,0,0,.91,1.28,4.89,4.89,0,0,0,4.41,0A1.56,1.56,0,0,0,110.12,98.11Z"/><path class="cls-133" d="M109.21,97.35a4.89,4.89,0,0,1-4.41,0,1.34,1.34,0,0,1,0-2.54,4.83,4.83,0,0,1,4.41,0A1.34,1.34,0,0,1,109.21,97.35Z"/><path class="cls-10" d="M107.86,96.37a1.89,1.89,0,0,1-1.7,0c-.47-.27-.47-.71,0-1a2,2,0,0,1,1.7,0C108.33,95.66,108.33,96.1,107.86,96.37Z"/><path class="cls-134" d="M108.07,95.77V85.48h-.4a1.73,1.73,0,0,0-1.34,0h-.4V95.77h0a.54.54,0,0,0,.32.44,1.67,1.67,0,0,0,1.51,0A.55.55,0,0,0,108.07,95.77Z"/><path class="cls-135" d="M107.76,85.91a1.67,1.67,0,0,1-1.51,0,.46.46,0,0,1,0-.87,1.67,1.67,0,0,1,1.51,0A.46.46,0,0,1,107.76,85.91Z"/><path class="cls-136" d="M110.69,83.49A3.74,3.74,0,1,1,107,79.76,3.73,3.73,0,0,1,110.69,83.49Z"/><path class="cls-137" d="M50.89,135.82,31.56,147l.49.84a4.13,4.13,0,0,0,1.6,2.78l.49.84,19.33-11.16h0a1.28,1.28,0,0,0,.53-1.18A4,4,0,0,0,52.18,136,1.29,1.29,0,0,0,50.89,135.82Z"/><path class="cls-138" d="M32.86,147.11a4.08,4.08,0,0,1,1.81,3.16c0,1.16-.82,1.63-1.81,1A4,4,0,0,1,31,148.17C31,147,31.84,146.54,32.86,147.11Z"/><path class="cls-139" d="M38.67,147.71a1.71,1.71,0,0,1-.77,1.34c-.28.16-.52.13-.64,0a.63.63,0,0,0,.39-.1,1.7,1.7,0,0,0,.78-1.34.6.6,0,0,0-.13-.4C38.52,147.19,38.67,147.39,38.67,147.71Z"/><path class="cls-140" d="M38.43,147.57a1.7,1.7,0,0,1-.78,1.34.63.63,0,0,1-.39.1.57.57,0,0,1-.13-.4,1.72,1.72,0,0,1,.77-1.34.59.59,0,0,1,.4-.1A.6.6,0,0,1,38.43,147.57Z"/><path class="cls-141" d="M41.74,146A1.72,1.72,0,0,1,41,147.3c-.27.15-.53.12-.64-.05a.56.56,0,0,0,.39-.1,1.68,1.68,0,0,0,.77-1.34.6.6,0,0,0-.11-.4C41.58,145.44,41.74,145.63,41.74,146Z"/><path class="cls-142" d="M41.48,145.81a1.68,1.68,0,0,1-.77,1.34.56.56,0,0,1-.39.1.55.55,0,0,1-.12-.4,1.68,1.68,0,0,1,.76-1.34.73.73,0,0,1,.41-.1A.6.6,0,0,1,41.48,145.81Z"/><path class="cls-143" d="M44.8,144.2a1.7,1.7,0,0,1-.78,1.34c-.28.16-.52.13-.64,0a.56.56,0,0,0,.39-.1,1.66,1.66,0,0,0,.78-1.34.65.65,0,0,0-.12-.39C44.65,143.68,44.8,143.88,44.8,144.2Z"/><path class="cls-144" d="M44.55,144.05a1.66,1.66,0,0,1-.78,1.34.56.56,0,0,1-.39.1.54.54,0,0,1-.13-.39,1.71,1.71,0,0,1,.77-1.34.62.62,0,0,1,.41-.1A.65.65,0,0,1,44.55,144.05Z"/><path class="cls-145" d="M47.86,142.44a1.73,1.73,0,0,1-.77,1.34c-.28.16-.52.13-.65,0a.66.66,0,0,0,.4-.1,1.69,1.69,0,0,0,.77-1.34.6.6,0,0,0-.12-.4C47.71,141.92,47.86,142.12,47.86,142.44Z"/><path class="cls-146" d="M47.61,142.3a1.69,1.69,0,0,1-.77,1.34.66.66,0,0,1-.4.1.55.55,0,0,1-.12-.4,1.69,1.69,0,0,1,.77-1.34.64.64,0,0,1,.4-.1A.6.6,0,0,1,47.61,142.3Z"/><path class="cls-147" d="M50.92,140.69a1.68,1.68,0,0,1-.77,1.33c-.28.17-.52.14-.65,0a.57.57,0,0,0,.4-.1,1.68,1.68,0,0,0,.77-1.34.62.62,0,0,0-.12-.4C50.77,140.17,50.92,140.37,50.92,140.69Z"/><path class="cls-148" d="M50.67,140.54a1.68,1.68,0,0,1-.77,1.34.57.57,0,0,1-.4.1.6.6,0,0,1-.12-.4,1.69,1.69,0,0,1,.77-1.34.74.74,0,0,1,.4-.1A.62.62,0,0,1,50.67,140.54Z"/><path class="cls-149" d="M50.89,177.52,27.71,190.91l.49.84a4.19,4.19,0,0,0,1.6,2.79l.49.83L53.47,182h0A1.28,1.28,0,0,0,54,180.8a4,4,0,0,0-1.82-3.15A1.26,1.26,0,0,0,50.89,177.52Z"/><path class="cls-150" d="M29,191a4.06,4.06,0,0,1,1.82,3.15c0,1.17-.82,1.64-1.82,1.06a4,4,0,0,1-1.83-3.16C27.17,190.93,28,190.46,29,191Z"/><path class="cls-151" d="M38.67,189.41a1.69,1.69,0,0,1-.77,1.33c-.28.16-.52.13-.64,0a.57.57,0,0,0,.39-.1,1.69,1.69,0,0,0,.78-1.34.57.57,0,0,0-.13-.39C38.52,188.88,38.67,189.08,38.67,189.41Z"/><path class="cls-152" d="M38.43,189.26a1.69,1.69,0,0,1-.78,1.34.3.3,0,0,1-.52-.3A1.74,1.74,0,0,1,37.9,189a.64.64,0,0,1,.4-.09A.57.57,0,0,1,38.43,189.26Z"/><path class="cls-153" d="M41.74,187.65A1.7,1.7,0,0,1,41,189c-.27.16-.53.13-.64,0a.57.57,0,0,0,.39-.11,1.68,1.68,0,0,0,.77-1.33.6.6,0,0,0-.11-.4C41.58,187.13,41.74,187.33,41.74,187.65Z"/><path class="cls-154" d="M41.48,187.51a1.68,1.68,0,0,1-.77,1.33.57.57,0,0,1-.39.11.59.59,0,0,1-.12-.41A1.7,1.7,0,0,1,41,187.2a.64.64,0,0,1,.41-.09A.6.6,0,0,1,41.48,187.51Z"/><path class="cls-155" d="M44.8,185.89a1.69,1.69,0,0,1-.78,1.34c-.28.17-.52.14-.64,0a.62.62,0,0,0,.39-.1,1.68,1.68,0,0,0,.78-1.34.66.66,0,0,0-.12-.4C44.65,185.37,44.8,185.57,44.8,185.89Z"/><path class="cls-156" d="M44.55,185.75a1.68,1.68,0,0,1-.78,1.34.62.62,0,0,1-.39.1.55.55,0,0,1-.13-.4,1.71,1.71,0,0,1,.77-1.34.69.69,0,0,1,.41-.1A.66.66,0,0,1,44.55,185.75Z"/><path class="cls-157" d="M47.86,184.14a1.75,1.75,0,0,1-.77,1.34c-.28.16-.52.13-.65,0a.66.66,0,0,0,.4-.1,1.68,1.68,0,0,0,.77-1.34.63.63,0,0,0-.12-.4C47.71,183.62,47.86,183.82,47.86,184.14Z"/><path class="cls-158" d="M47.61,184a1.68,1.68,0,0,1-.77,1.34.66.66,0,0,1-.4.1.55.55,0,0,1-.12-.4,1.69,1.69,0,0,1,.77-1.34.72.72,0,0,1,.4-.1A.63.63,0,0,1,47.61,184Z"/><path class="cls-159" d="M50.92,182.38a1.69,1.69,0,0,1-.77,1.34c-.28.16-.52.13-.65-.05a.53.53,0,0,0,.4-.1,1.66,1.66,0,0,0,.77-1.33.6.6,0,0,0-.12-.4C50.77,181.86,50.92,182.06,50.92,182.38Z"/><path class="cls-160" d="M50.67,182.24a1.66,1.66,0,0,1-.77,1.33.53.53,0,0,1-.4.1.57.57,0,0,1-.12-.39,1.68,1.68,0,0,1,.77-1.34.66.66,0,0,1,.4-.1A.6.6,0,0,1,50.67,182.24Z"/><path class="cls-161" d="M35.76,248.1V237.29H29.61a26.2,26.2,0,0,0-20.29,0H3.16v10.82h0c0,2.4,1.59,4.81,4.78,6.65,6.36,3.68,16.69,3.68,23,0C34.17,252.92,35.76,250.51,35.76,248.1Z"/><path class="cls-162" d="M31,244c-6.36,3.67-16.69,3.68-23,0s-6.37-9.64,0-13.31,16.69-3.67,23,0S37.35,240.27,31,244Z"/><path class="cls-10" d="M27.15,240.91a17,17,0,0,1-15.39,0c-4.24-2.46-4.24-6.44,0-8.89a17,17,0,0,1,15.39,0C31.4,234.47,31.4,238.45,27.15,240.91Z"/><path class="cls-163" d="M29.55,236.11V201.64H25.74a16.1,16.1,0,0,0-12.56,0H9.37v34.47h0c0,1.49,1,3,3,4.13a15.82,15.82,0,0,0,14.28,0C28.57,239.1,29.55,237.6,29.55,236.11Z"/><path class="cls-10" d="M29.55,213.37V207H25.74a16.19,16.19,0,0,0-12.56,0H9.37v6.36s2.36,3.15,10.09,3.15S29.55,213.37,29.55,213.37Z"/><path class="cls-164" d="M26.6,205.76a15.82,15.82,0,0,1-14.28,0c-3.94-2.28-3.94-6,0-8.24a15.76,15.76,0,0,1,14.28,0C30.54,199.79,30.54,203.48,26.6,205.76Z"/><path class="cls-165" d="M35.76,205.26v-8.65H29.61a26.16,26.16,0,0,0-20.29,0H3.16v8.66h0c0,2.41,1.59,4.81,4.78,6.65,6.36,3.67,16.69,3.67,23,0C34.17,210.08,35.76,207.68,35.76,205.26Z"/><path class="cls-166" d="M31,203.26c-6.36,3.68-16.69,3.68-23,0s-6.37-9.64,0-13.31,16.69-3.67,23,0S37.35,199.59,31,203.26Z"/><path class="cls-167" d="M33.9,195.81V183.3H28.46a23.2,23.2,0,0,0-18,0H5v12.51H5c0,2.14,1.41,4.27,4.22,5.9,5.65,3.26,14.8,3.26,20.44,0C32.5,200.08,33.9,197.94,33.9,195.81Z"/><path class="cls-168" d="M29.68,189.2c-5.64,3.25-14.79,3.25-20.44,0s-5.63-8.54,0-11.8,14.8-3.26,20.44,0S35.31,185.94,29.68,189.2Z"/><path class="cls-169" d="M35.76,187.5v-4.7H29.61a26.16,26.16,0,0,0-20.29,0H3.16v4.71h0c0,2.4,1.59,4.81,4.78,6.65,6.36,3.68,16.69,3.68,23,0C34.17,192.32,35.76,189.91,35.76,187.5Z"/><path class="cls-170" d="M31,189.45c-6.36,3.68-16.69,3.68-23,0s-6.37-9.63,0-13.31,16.69-3.67,23,0S37.35,185.77,31,189.45Z"/><path class="cls-171" d="M33.9,181.65v-12.5H28.46a23.2,23.2,0,0,0-18,0H5v12.51H5c0,2.13,1.41,4.27,4.22,5.9,5.65,3.25,14.8,3.25,20.44,0C32.5,185.93,33.9,183.79,33.9,181.65Z"/><path class="cls-172" d="M29.68,175C24,178.3,14.89,178.3,9.24,175s-5.63-8.53,0-11.79,14.8-3.26,20.44,0S35.31,171.79,29.68,175Z"/><path class="cls-173" d="M35.76,173.34v-4.69H29.61a26.16,26.16,0,0,0-20.29,0H3.16v4.7h0c0,2.41,1.59,4.82,4.78,6.66,6.36,3.67,16.69,3.67,23,0C34.17,178.17,35.76,175.76,35.76,173.34Z"/><path class="cls-174" d="M31,175.3c-6.36,3.67-16.69,3.67-23,0s-6.37-9.64,0-13.31,16.69-3.67,23,0S37.35,171.62,31,175.3Z"/><path class="cls-175" d="M33.9,167.84v-12.5H28.46a23.2,23.2,0,0,0-18,0H5v12.51H5c0,2.13,1.41,4.27,4.22,5.9,5.65,3.26,14.8,3.26,20.44,0C32.5,172.12,33.9,170,33.9,167.84Z"/><path class="cls-176" d="M29.68,161.23c-5.64,3.26-14.79,3.26-20.44,0s-5.63-8.53,0-11.79,14.8-3.26,20.44,0S35.31,158,29.68,161.23Z"/><path class="cls-177" d="M35.76,159.17V139.6H29.61a26.2,26.2,0,0,0-20.29,0H3.16v19.58h0c0,2.41,1.59,4.82,4.78,6.65,6.36,3.68,16.69,3.67,23,0C34.17,164,35.76,161.58,35.76,159.17Z"/><path class="cls-178" d="M31,146.26c-6.36,3.67-16.69,3.68-23,0s-6.37-9.64,0-13.31,16.69-3.68,23,0S37.35,142.58,31,146.26Z"/><path class="cls-10" d="M30.2,145.58c-6,3.44-15.64,3.44-21.6,0s-6-9,0-12.47,15.64-3.45,21.6,0S36.16,142.13,30.2,145.58Z"/><path class="cls-179" d="M34.11,138.8v-.06a14.67,14.67,0,0,0-29.33,0v.12h0c0,2.14,1.46,4.27,4.29,5.91,5.72,3.3,15,3.3,20.73,0,2.83-1.64,4.25-3.77,4.28-5.91h0Z"/><path class="cls-10" d="M21.81,128a5.27,5.27,0,0,1-4.74,0c-1.31-.75-1.31-2,0-2.74a5.27,5.27,0,0,1,4.74,0C23.12,126,23.12,127.27,21.81,128Z"/><path class="cls-180" d="M22.56,126.44v-2H21.38a4.93,4.93,0,0,0-3.88,0H16.33v2h0a1.54,1.54,0,0,0,.9,1.27,4.91,4.91,0,0,0,4.42,0A1.56,1.56,0,0,0,22.56,126.44Z"/><path class="cls-181" d="M21.65,125.68a4.91,4.91,0,0,1-4.42,0,1.35,1.35,0,0,1,0-2.55,4.91,4.91,0,0,1,4.42,0A1.35,1.35,0,0,1,21.65,125.68Z"/><path class="cls-10" d="M20.29,124.69a1.81,1.81,0,0,1-1.69,0c-.48-.27-.48-.71,0-1a1.86,1.86,0,0,1,1.69,0C20.77,124,20.77,124.42,20.29,124.69Z"/><path class="cls-182" d="M20.51,124.1V113.8h-.4a1.73,1.73,0,0,0-1.34,0h-.41v10.3h0a.54.54,0,0,0,.32.44,1.69,1.69,0,0,0,1.52,0A.55.55,0,0,0,20.51,124.1Z"/><path class="cls-183" d="M20.2,114.24a1.69,1.69,0,0,1-1.52,0c-.42-.24-.42-.63,0-.88a1.76,1.76,0,0,1,1.52,0A.47.47,0,0,1,20.2,114.24Z"/><path class="cls-184" d="M23.13,111.82a3.74,3.74,0,1,1-3.73-3.73A3.73,3.73,0,0,1,23.13,111.82Z"/><path class="cls-10" d="M76.67,243.39c-7.94-4.58-20.82-4.58-28.76,0s-7.94,12,0,16.6,20.82,4.59,28.76,0S84.61,248,76.67,243.39Z"/><path class="cls-185" d="M79.67,251.2v-2.95H73.11a27.89,27.89,0,0,0-21.63,0H44.91v2.95h0c0,2.57,1.7,5.14,5.09,7.1,6.79,3.92,17.79,3.92,24.58,0C78,256.33,79.67,253.77,79.67,251.2Z"/><path class="cls-186" d="M74.58,255.35c-6.79,3.91-17.79,3.91-24.58,0s-6.78-10.28,0-14.2,17.79-3.92,24.58,0S81.37,251.42,74.58,255.35Z"/><path class="cls-187" d="M76.06,247.11l-4.35-37.79H68.16a15.22,15.22,0,0,0-11.74,0H52.87l-4.3,37.47c-.25,2.2,1.08,4.45,4,6.13,5.37,3.1,14.09,3.1,19.46,0,2.77-1.59,4.11-3.71,4-5.8Z"/><path class="cls-188" d="M69,213.17a14.76,14.76,0,0,1-13.33,0c-3.68-2.13-3.68-5.57,0-7.69a14.7,14.7,0,0,1,13.33,0C72.63,207.6,72.63,211,69,213.17Z"/><path class="cls-189" d="M70.64,208.88v-7.23H67.49a13.38,13.38,0,0,0-10.39,0H54v7.23h0c0,1.23.81,2.47,2.45,3.41a13,13,0,0,0,11.8,0C69.83,211.35,70.65,210.11,70.64,208.88Z"/><path class="cls-190" d="M68.2,205.05a13,13,0,0,1-11.8,0c-3.26-1.87-3.26-4.93,0-6.81a13,13,0,0,1,11.81,0C71.46,200.12,71.46,203.18,68.2,205.05Z"/><path class="cls-191" d="M71.72,204.08v-2.72H68.16a15.11,15.11,0,0,0-11.73,0H52.88v2.72h0c0,1.39.92,2.79,2.76,3.84a14.68,14.68,0,0,0,13.32,0C70.8,206.86,71.72,205.47,71.72,204.08Z"/><path class="cls-192" d="M69,205.21a14.74,14.74,0,0,1-13.32,0c-3.68-2.13-3.68-5.58,0-7.7a14.74,14.74,0,0,1,13.32,0C72.64,199.63,72.64,203.08,69,205.21Z"/><path class="cls-193" d="M70.64,200.94v-7.23H67.49a13.38,13.38,0,0,0-10.39,0H54V201h0c0,1.23.81,2.46,2.45,3.4a13,13,0,0,0,11.8,0C69.83,203.41,70.65,202.18,70.64,200.94Z"/><path class="cls-194" d="M68.2,197.12a13,13,0,0,1-11.8,0c-3.26-1.88-3.26-4.93,0-6.82a13.07,13.07,0,0,1,11.81,0C71.46,192.19,71.46,195.24,68.2,197.12Z"/><path class="cls-195" d="M71.72,196.14v-2.72H68.16a15.11,15.11,0,0,0-11.73,0H52.88v2.72h0c0,1.4.92,2.79,2.76,3.85A14.74,14.74,0,0,0,69,200C70.8,198.93,71.72,197.54,71.72,196.14Z"/><path class="cls-196" d="M69,197.27a14.74,14.74,0,0,1-13.32,0c-3.68-2.13-3.68-5.57,0-7.69a14.68,14.68,0,0,1,13.32,0C72.64,191.7,72.64,195.14,69,197.27Z"/><path class="cls-197" d="M70.64,193.15v-7.23H67.49a13.38,13.38,0,0,0-10.39,0H54v7.23h0c0,1.23.81,2.47,2.45,3.41a13,13,0,0,0,11.8,0C69.83,195.62,70.65,194.38,70.64,193.15Z"/><path class="cls-198" d="M68.2,189.33a13,13,0,0,1-11.8,0c-3.26-1.89-3.26-4.94,0-6.82a13,13,0,0,1,11.81,0C71.46,184.39,71.46,187.44,68.2,189.33Z"/><path class="cls-199" d="M71.72,188.35v-2.72H68.16a15.11,15.11,0,0,0-11.73,0H52.88v2.72h0c0,1.39.92,2.78,2.76,3.84a14.68,14.68,0,0,0,13.32,0C70.8,191.13,71.72,189.74,71.72,188.35Z"/><path class="cls-200" d="M69,189.48a14.74,14.74,0,0,1-13.32,0c-3.68-2.13-3.68-5.57,0-7.7a14.74,14.74,0,0,1,13.32,0C72.64,183.91,72.64,187.35,69,189.48Z"/><path class="cls-201" d="M70.64,185.17v-7.24H67.49a13.47,13.47,0,0,0-10.39,0H54v7.24h0c0,1.23.81,2.47,2.45,3.41a13,13,0,0,0,11.8,0C69.83,187.63,70.65,186.4,70.64,185.17Z"/><path class="cls-202" d="M68.2,181.34a13,13,0,0,1-11.8,0c-3.26-1.88-3.26-4.93,0-6.81a13.07,13.07,0,0,1,11.81,0C71.46,176.41,71.46,179.46,68.2,181.34Z"/><path class="cls-203" d="M71.72,180.36v-2.71H68.16a15.11,15.11,0,0,0-11.73,0H52.88v2.72h0c0,1.39.92,2.78,2.76,3.84a14.68,14.68,0,0,0,13.32,0C70.8,183.15,71.72,181.76,71.72,180.36Z"/><path class="cls-204" d="M69,181.49a14.68,14.68,0,0,1-13.32,0c-3.68-2.12-3.68-5.57,0-7.69a14.74,14.74,0,0,1,13.32,0C72.64,175.92,72.64,179.37,69,181.49Z"/><path class="cls-205" d="M70.64,177.43V170.2H67.49a13.38,13.38,0,0,0-10.39,0H54v7.23h0c0,1.24.81,2.47,2.45,3.41a13,13,0,0,0,11.8,0C69.83,179.9,70.65,178.67,70.64,177.43Z"/><path class="cls-206" d="M68.2,173.61a13,13,0,0,1-11.8,0c-3.26-1.89-3.26-4.94,0-6.82a13.07,13.07,0,0,1,11.81,0C71.46,168.67,71.46,171.72,68.2,173.61Z"/><path class="cls-207" d="M71.72,172.63v-2.72H68.16a15.11,15.11,0,0,0-11.73,0H52.88v2.72h0c0,1.39.92,2.78,2.76,3.84a14.68,14.68,0,0,0,13.32,0C70.8,175.41,71.72,174,71.72,172.63Z"/><path class="cls-208" d="M69,173.75a14.68,14.68,0,0,1-13.32,0c-3.68-2.12-3.68-5.57,0-7.69a14.74,14.74,0,0,1,13.32,0C72.64,168.18,72.64,171.63,69,173.75Z"/><path class="cls-209" d="M70.64,169.25V162H67.49a13.38,13.38,0,0,0-10.39,0H54v7.23h0c0,1.23.81,2.47,2.45,3.41a13,13,0,0,0,11.8,0C69.83,171.72,70.65,170.48,70.64,169.25Z"/><path class="cls-210" d="M68.2,165.43a13,13,0,0,1-11.8,0c-3.26-1.89-3.26-4.94,0-6.83a13.07,13.07,0,0,1,11.81,0C71.46,160.49,71.46,163.54,68.2,165.43Z"/><path class="cls-211" d="M71.72,164.45v-2.72H68.16a15.11,15.11,0,0,0-11.73,0H52.88v2.72h0c0,1.39.92,2.78,2.76,3.85a14.74,14.74,0,0,0,13.32,0C70.8,167.23,71.72,165.84,71.72,164.45Z"/><path class="cls-212" d="M69,165.57a14.68,14.68,0,0,1-13.32,0c-3.68-2.12-3.68-5.57,0-7.69a14.74,14.74,0,0,1,13.32,0C72.64,160,72.64,163.45,69,165.57Z"/><path class="cls-213" d="M70.64,161.26V154H67.49a13.47,13.47,0,0,0-10.39,0H54v7.24h0c0,1.23.81,2.47,2.45,3.4a13,13,0,0,0,11.8,0C69.83,163.74,70.65,162.5,70.64,161.26Z"/><path class="cls-214" d="M68.2,157.44a13,13,0,0,1-11.8,0c-3.26-1.88-3.26-4.93,0-6.82a13.07,13.07,0,0,1,11.81,0C71.46,152.51,71.46,155.56,68.2,157.44Z"/><path class="cls-215" d="M72.61,154v-1.75H68.72a16.62,16.62,0,0,0-12.84,0H52V154h0c0,1.53,1,3.05,3,4.22a16.14,16.14,0,0,0,14.58,0C71.61,157,72.61,155.51,72.61,154Z"/><path class="cls-216" d="M69.59,156.44a16.08,16.08,0,0,1-14.58,0c-4-2.32-4-6.09,0-8.42a16.08,16.08,0,0,1,14.58,0C73.62,150.35,73.62,154.12,69.59,156.44Z"/><path class="cls-217" d="M71.38,151.62V146H68a14.57,14.57,0,0,0-11.3,0H53.22v5.61h0c0,1.34.89,2.68,2.66,3.7a14.17,14.17,0,0,0,12.84,0C70.49,154.31,71.38,153,71.38,151.62Z"/><path class="cls-218" d="M68.72,149.73a14.17,14.17,0,0,1-12.84,0c-3.55-2-3.55-5.37,0-7.41a14.17,14.17,0,0,1,12.84,0C72.26,144.36,72.26,147.68,68.72,149.73Z"/><path class="cls-219" d="M45.89,135.79v.06a16.41,16.41,0,0,0,32.81,0v-.05s0,0,0-.08h0c0-2.39-1.64-4.77-4.8-6.6-6.41-3.7-16.8-3.7-23.21,0-3.16,1.83-4.75,4.21-4.79,6.6h0Z"/><path class="cls-220" d="M79.1,137.61v-2.84H72.77a26.93,26.93,0,0,0-20.85,0H45.59v2.85h0c0,2.47,1.64,4.95,4.91,6.84,6.54,3.78,17.15,3.77,23.69,0C77.47,142.57,79.1,140.09,79.1,137.61Z"/><path class="cls-10" d="M79.1,137.61v-2.84H72.77a26.93,26.93,0,0,0-20.85,0H45.59v2.85h0a6.35,6.35,0,0,0,1.35,3.8c.68,1.64,17,9.57,30.67.2A6.5,6.5,0,0,0,79.1,137.61Z"/><path class="cls-221" d="M46.82,120.85a15.67,15.67,0,0,1,1.8-1.21c7.56-4.36,19.79-4.36,27.35,0a17,17,0,0,1,1.8,1.2,9.23,9.23,0,0,0,3.73-5.43c.62-3.26-1.21-6.66-5.53-9.15-7.56-4.36-19.79-4.36-27.35,0-4.33,2.49-6.18,5.89-5.53,9.15A9.23,9.23,0,0,0,46.82,120.85Z"/><path class="cls-222" d="M80.06,118.59a8.18,8.18,0,0,1-.8.92A14.5,14.5,0,0,0,76,117c-7.55-4.35-19.79-4.35-27.35,0a14.5,14.5,0,0,0-3.29,2.54,6.5,6.5,0,0,1-.78-.91,14.92,14.92,0,0,1,3.3-2.49c8-4.61,20.94-4.61,28.93,0A15.3,15.3,0,0,1,80.06,118.59Z"/><path class="cls-223" d="M81.3,116.19a8,8,0,0,1-1.24,2.4,15.3,15.3,0,0,0-3.28-2.48c-8-4.61-20.94-4.61-28.93,0a14.92,14.92,0,0,0-3.3,2.49,9.23,9.23,0,0,1-1.26-2.42c.68-2.15,2.46-4.2,5.33-5.85,7.56-4.36,19.8-4.36,27.35,0C78.84,112,80.62,114,81.3,116.19Z"/><path class="cls-224" d="M83.7,116.37c-.67,2.55-2.71,5-6.09,7-8.46,4.87-22.17,4.87-30.63,0-3.4-2-5.42-4.42-6.09-7-9.15,6.33-8.6,15.75,1.69,21.69,10.88,6.29,28.54,6.29,39.42,0C92.29,132.12,92.85,122.7,83.7,116.37Z"/><path class="cls-225" d="M81.16,128.2c-10.42,6-27.32,6-37.73,0-5.2-3-7.81-6.92-7.82-10.86V125c0,3.94,2.6,7.89,7.82,10.9,10.41,6,27.31,6,37.73,0,5.22-3,7.82-7,7.81-10.9v-7.65C89,121.26,86.36,125.2,81.16,128.2Z"/><path class="cls-226" d="M42.58,128.69C53.46,135,71.12,135,82,128.69a20.81,20.81,0,0,0,4.58-3.5H79.64c-10.66,5.44-31.53,2.55-40.71.9A22.45,22.45,0,0,0,42.58,128.69Z"/><path class="cls-227" d="M82,136.7c-10.88,6.29-28.54,6.29-39.42,0-5.44-3.14-8.16-7.26-8.16-11.38v2.75c0,4.12,2.72,8.24,8.16,11.38,10.88,6.29,28.54,6.28,39.42,0,5.45-3.14,8.17-7.27,8.17-11.39v-2.74C90.17,129.44,87.45,133.56,82,136.7Z"/><path class="cls-228" d="M83.94,114.57a8.31,8.31,0,0,1-.13,1.32c-.53,2.73-2.61,5.37-6.2,7.45-8.46,4.87-22.17,4.87-30.63,0-3.61-2.08-5.67-4.72-6.2-7.45a7.29,7.29,0,0,1-.13-1.32H34.42v4.55c0,4.12,2.72,8.24,8.16,11.38,10.88,6.28,28.54,6.28,39.42,0,5.45-3.14,8.17-7.27,8.17-11.39v-4.54Z"/><path class="cls-229" d="M82,103.19c-10.88-6.28-28.54-6.28-39.42,0s-10.89,16.48,0,22.77,28.54,6.28,39.42,0S92.88,109.48,82,103.19Zm-.5,12.22c-.47,2.43-2.32,4.78-5.53,6.65-7.56,4.34-19.79,4.34-27.35,0-3.23-1.87-5.06-4.22-5.53-6.65-.65-3.26,1.2-6.66,5.53-9.15,7.56-4.36,19.79-4.36,27.35,0C80.29,108.75,82.12,112.15,81.5,115.41Z"/><path class="cls-230" d="M50.83,108.47a11.17,11.17,0,0,1,1.34-.9c5.59-3.22,14.65-3.22,20.25,0a12.3,12.3,0,0,1,1.33.89,6.87,6.87,0,0,0,2.76-4c.47-2.41-.89-4.93-4.09-6.77-5.6-3.23-14.66-3.23-20.25,0-3.2,1.84-4.57,4.36-4.09,6.77A6.85,6.85,0,0,0,50.83,108.47Z"/><path class="cls-231" d="M75.44,106.79a4.62,4.62,0,0,1-.59.68,11,11,0,0,0-2.43-1.87c-5.59-3.23-14.66-3.23-20.25,0a10.73,10.73,0,0,0-2.43,1.87,4,4,0,0,1-.58-.67A11.53,11.53,0,0,1,51.6,105c5.92-3.41,15.5-3.41,21.42,0A11.69,11.69,0,0,1,75.44,106.79Z"/><path class="cls-232" d="M76.37,105a6.08,6.08,0,0,1-.93,1.77A11.69,11.69,0,0,0,73,105c-5.92-3.41-15.5-3.41-21.42,0a11.53,11.53,0,0,0-2.44,1.84,7.09,7.09,0,0,1-.94-1.79,8.15,8.15,0,0,1,4-4.33c5.59-3.23,14.66-3.23,20.25,0A8.13,8.13,0,0,1,76.37,105Z"/><path class="cls-233" d="M78.14,105.15c-.5,1.89-2,3.71-4.51,5.16-6.27,3.6-16.41,3.6-22.67,0-2.52-1.45-4-3.27-4.5-5.16-6.79,4.68-6.37,11.66,1.24,16.06,8.06,4.65,21.13,4.65,29.18,0C84.5,116.81,84.91,109.84,78.14,105.15Z"/><path class="cls-234" d="M76.26,113.91c-7.72,4.45-20.22,4.45-27.94,0-3.84-2.22-5.77-5.13-5.78-8v5.66c0,2.91,1.93,5.83,5.78,8.06,7.72,4.45,20.22,4.45,27.94,0,3.86-2.23,5.78-5.15,5.78-8.07v-5.66C82,108.77,80.11,111.68,76.26,113.91Z"/><path class="cls-235" d="M47.7,114.27c8.06,4.65,21.13,4.65,29.18,0a15.57,15.57,0,0,0,3.39-2.59H75.14c-7.9,4-23.35,1.89-30.14.66A16.38,16.38,0,0,0,47.7,114.27Z"/><path class="cls-236" d="M76.88,120.2c-8,4.66-21.12,4.66-29.18,0-4-2.32-6-5.38-6-8.42v2c0,3,2,6.1,6,8.42,8.06,4.66,21.13,4.66,29.18,0,4-2.32,6-5.38,6-8.42v-2C82.92,114.82,80.91,117.88,76.88,120.2Z"/><path class="cls-237" d="M78.32,103.82a5.45,5.45,0,0,1-.11,1c-.38,2-1.92,4-4.58,5.51-6.27,3.6-16.41,3.6-22.67,0-2.67-1.54-4.19-3.5-4.59-5.51a5.43,5.43,0,0,1-.1-1H41.66v3.37c0,3,2,6.09,6,8.42,8.06,4.65,21.13,4.65,29.18,0,4-2.33,6-5.38,6-8.43v-3.36Z"/><path class="cls-238" d="M76.88,95.4c-8-4.65-21.12-4.65-29.18,0s-8.06,12.19,0,16.85,21.13,4.65,29.18,0S84.94,100.05,76.88,95.4Zm-.37,9c-.35,1.8-1.72,3.54-4.09,4.92-5.6,3.21-14.66,3.21-20.25,0-2.39-1.38-3.74-3.12-4.09-4.92-.48-2.41.89-4.93,4.09-6.77,5.59-3.23,14.65-3.23,20.25,0C75.62,99.51,77,102,76.51,104.44Z"/><path class="cls-239" d="M73.3,97.63a6.19,6.19,0,0,1-3.13,3.58,17.48,17.48,0,0,1-15.75,0,6.16,6.16,0,0,1-3.13-3.58c-4.71,3.25-4.43,8.1.86,11.15,5.6,3.24,14.68,3.24,20.28,0C77.72,105.73,78,100.88,73.3,97.63Z"/><path class="cls-240" d="M72,103.71c-5.35,3.1-14,3.1-19.4,0-2.68-1.54-4-3.56-4-5.59v3.94c0,2,1.34,4,4,5.6,5.35,3.1,14,3.1,19.4,0,2.69-1.55,4-3.58,4-5.61V98.12C76,100.14,74.67,102.17,72,103.71Z"/><path class="cls-241" d="M52.15,104c5.6,3.23,14.68,3.23,20.28,0a11.05,11.05,0,0,0,2.36-1.79H71.21c-5.47,2.79-16.22,1.3-20.94.45A11.6,11.6,0,0,0,52.15,104Z"/><path class="cls-242" d="M72.43,108.09c-5.6,3.23-14.68,3.23-20.28,0-2.8-1.62-4.19-3.74-4.19-5.86v1.42c0,2.11,1.39,4.23,4.19,5.85,5.6,3.23,14.68,3.23,20.28,0,2.8-1.62,4.2-3.74,4.2-5.86v-1.41C76.63,104.35,75.23,106.47,72.43,108.09Z"/><path class="cls-243" d="M73.43,96.7a5.05,5.05,0,0,1-.07.68,6,6,0,0,1-3.19,3.83,17.48,17.48,0,0,1-15.75,0,6,6,0,0,1-3.19-3.83,3.82,3.82,0,0,1-.07-.68H48V99c0,2.12,1.39,4.24,4.19,5.85,5.6,3.23,14.68,3.23,20.28,0,2.8-1.61,4.2-3.73,4.2-5.86V96.7Z"/><path class="cls-244" d="M72.43,90.85c-5.6-3.23-14.68-3.23-20.28,0s-5.6,8.47,0,11.7,14.68,3.24,20.28,0S78,94.08,72.43,90.85Z"/><path class="cls-10" d="M65.13,97.57a6.16,6.16,0,0,1-5.58,0c-1.54-.89-1.54-2.33,0-3.22a6.16,6.16,0,0,1,5.58,0C66.67,95.24,66.67,96.68,65.13,97.57Z"/><path class="cls-245" d="M66,95.71v-2.4H64.62a5.91,5.91,0,0,0-4.56,0H58.67v2.4h0a1.81,1.81,0,0,0,1.08,1.49,5.7,5.7,0,0,0,5.18,0A1.81,1.81,0,0,0,66,95.71Z"/><path class="cls-246" d="M64.93,94.81a5.7,5.7,0,0,1-5.18,0c-1.44-.83-1.44-2.17,0-3a5.76,5.76,0,0,1,5.18,0C66.37,92.64,66.37,94,64.93,94.81Z"/><path class="cls-247" d="M63.6,93V80.83h-.47a2,2,0,0,0-1.57,0h-.48V93h0a.63.63,0,0,0,.37.52,2,2,0,0,0,1.78,0A.63.63,0,0,0,63.6,93Z"/><path class="cls-248" d="M63.23,81.34a1.93,1.93,0,0,1-1.78,0,.54.54,0,0,1,0-1,1.93,1.93,0,0,1,1.78,0C63.73,80.6,63.73,81.06,63.23,81.34Z"/><path class="cls-249" d="M66.13,79.06a3.84,3.84,0,1,1-3.84-3.84A3.84,3.84,0,0,1,66.13,79.06Z"/></g></g></g></svg>