<svg xmlns="http://www.w3.org/2000/svg" xmlns:xlink="http://www.w3.org/1999/xlink" viewBox="0 0 475.39 453.15"><defs><style>.cls-1{fill:none;}.cls-2{isolation:isolate;}.cls-3{fill:#485d65;}.cls-4{fill:#608387;}.cls-5{fill:#36464c;}.cls-6,.cls-7{fill:#57777a;}.cls-7,.cls-9{mix-blend-mode:screen;}.cls-8{fill:#d0d0d0;mix-blend-mode:multiply;}.cls-10{fill:url(#linear-gradient);}.cls-11{fill:url(#linear-gradient-2);}.cls-12{fill:#334648;}.cls-13{fill:#537174;}.cls-14{fill:#4a6568;}.cls-15{clip-path:url(#clip-path);}.cls-16{fill:#53c17b;}.cls-17{fill:#294b6a;}</style><linearGradient id="linear-gradient" x1="339.16" y1="302.34" x2="322.11" y2="272.81" gradientTransform="matrix(-1, 0, 0, 1, 467.86, 0)" gradientUnits="userSpaceOnUse"><stop offset="0" stop-color="#537174"/><stop offset="0.05" stop-color="#587278"/><stop offset="0.46" stop-color="#7e7b95"/><stop offset="0.79" stop-color="#9580a7"/><stop offset="1" stop-color="#9d82ae"/></linearGradient><linearGradient id="linear-gradient-2" x1="369.5" y1="266.05" x2="337.1" y2="266.05" gradientTransform="matrix(-1, 0, 0, 1, 467.86, 0)" gradientUnits="userSpaceOnUse"><stop offset="0.05" stop-color="#334648"/><stop offset="1" stop-color="#9d82ae"/></linearGradient><clipPath id="clip-path"><path class="cls-1" d="M226.66,4.15a8.65,8.65,0,0,1-2.16.29,2.86,2.86,0,0,0-1.2.14,2.5,2.5,0,0,0-1,1.18c-7.68,13.63-26.16,9.85-38.07,17.08-7.74,4.7-12.82,12.76-20,18.29-5.3,4.09-11.58,6.66-17.55,9.7a121.47,121.47,0,0,0-18.8,11.83c-2.76,2.11-6.89,4.61-8.88,7.49-1.5,2.17-2,5.36-3,8.19-.38,1.08-10.53,3-11.8,3.46-5,1.71-9.83,3.69-14.6,5.88-16.71,7.64-30.45,21-48.12,25.86-3.81,1-7.78,1.83-11.08,4-5.67,3.72-8.31,10.84-13.84,14.76a20.14,20.14,0,0,1-11.43,3.39,3.73,3.73,0,0,0-2.56.62,3.34,3.34,0,0,0-.74,2.52c0,12.58,4.71,13.46,14.9,17.35,9.93,3.79,15.69,14.2,24.63,20,16,10.3,39.36,4.09,54.11,16.15,4.25,3.47,7.31,8.14,10.73,12.44,6.45,8.12,14.7,15.26,24.67,18.11a47,47,0,0,0,15,1.47c3.89-.17,10.06-2.61,12.78,1.55,2.48,3.81-3.16,7.06,1.22,11.1a17,17,0,0,0,4,2.32c5.27,2.71,8.93,7.81,13.93,11,6.43,4.11,14.44,4.69,21.64,7.24,6.65,2.36,12.5,6.35,18.49,10,3.83,2.32,7.68,4.8,10.4,8.42,2.58,3.42,5.8,4.91,10,4.26,2-.31,3.21-.81,5.31-.54,6.17.8,9.28,1.18,14-3.38,1.42-1.39,3.4-2.81,4.38-4.54,1.2-2.12.65-4.68,1.52-6.91a17.15,17.15,0,0,1,5.82-7.7c6-4.23,12-8.78,18.24-12.8a161.57,161.57,0,0,1,42.6-19.48c4.16-1.21,8.56-2.36,11.65-5.39,2-2,3.29-4.6,5.43-6.43,4.15-3.56,10.26-3.23,15.7-2.7,4.66,4.69,12.05,2.11,17.17-2.07s8.37-10.21,12.94-15a36.19,36.19,0,0,1,16.9-10c2.83-.75,7.13-1.21,9.16-3.58s0-5.28,2.65-7.66c4.21-3.84,11.6-2.83,16.73-4.36a87.5,87.5,0,0,0,21.72-9.89c3.11-2,6.21-4.27,7.88-7.56,1.84-3.64,1.65-7.94,1.42-12l-37.81-21.07c-5.05-2.81-10.22-5.72-13.87-10.2-3.89-4.78-5.7-10.93-9.26-16-12.81-18.08-41-14.75-59.46-27-6-4-10.8-9.6-16.75-13.69-7.63-5.24-16.7-7.68-25.8-8.76-2.48-.3-23.45.42-23-2.64.83-6.2-.69-11.48-5.39-15.94S267.07,16,260.9,13.75c-5-1.85-11.29-3.2-15.14-6.62-3.7-3.29-6.18-6.91-12-5.57C231.31,2.12,229.06,3.53,226.66,4.15Z"/></clipPath></defs><title>verden_02</title><g class="cls-2"><g id="Layer_2" data-name="Layer 2"><g id="COLORS"><path class="cls-3" d="M7.72,155.37a2.2,2.2,0,0,0,.25.17c.49.34,1,.67,1.48,1a87.34,87.34,0,0,0,21.72,9.89c5.12,1.53,12.52.52,16.72,4.35a5,5,0,0,1,.59.66l.09.12a4.09,4.09,0,0,1,.38.67c.9,2-.11,4.22,1.6,6.22,2,2.37,6.33,2.83,9.15,3.57a36.24,36.24,0,0,1,16.91,10c4.57,4.78,7.81,10.81,12.93,15s12.52,6.76,17.18,2.07c5.44-.53,11.55-.86,15.7,2.7,2.13,1.83,3.42,4.46,5.43,6.43,3.09,3,7.49,4.18,11.65,5.39A161.65,161.65,0,0,1,182.09,243c6.23,4,12.27,8.57,18.25,12.8a17,17,0,0,1,5.82,7.63c.87,2.22.32,4.78,1.52,6.9,1,1.73,3,3.15,4.38,4.54,4.69,4.56,7.8,4.18,14,3.38,2.09-.27,3.33.23,5.31.54,4.19.65,7.41-.84,10-4.26,2.72-3.62,6.58-6.09,10.41-8.42,6-3.64,11.84-7.63,18.49-10,1.63-.57,3.3-1,5-1.4h0c2.95-.77,5.94-1.44,8.83-2.32l.21-.07c.74-.23,1.47-.49,2.2-.75l.7-.28c.59-.23,1.17-.48,1.75-.75.23-.11.47-.21.7-.33a23,23,0,0,0,2.27-1.27c5-3.19,8.65-8.28,13.93-11a17.18,17.18,0,0,0,4-2.32,6.67,6.67,0,0,0,.78-.86c.07-.09.12-.18.18-.27a4.47,4.47,0,0,0,.35-.58c0-.1.09-.19.12-.29a3.13,3.13,0,0,0,.18-.57l.06-.25a4.2,4.2,0,0,0,.05-.79s0,0,0-.08a5.71,5.71,0,0,0-.08-.71l-.06-.29c0-.17-.08-.34-.13-.51l-.09-.32-.15-.49c-.11-.33-.22-.67-.31-1h0a4.53,4.53,0,0,1,.33-4.09c2.72-4.16,8.89-1.73,12.78-1.55a47,47,0,0,0,15-1.47c10-2.85,18.22-10,24.67-18.11,3.41-4.3,6.47-9,10.73-12.45,14.75-12.05,38.08-5.84,54.1-16.15,8.95-5.75,14.7-16.16,24.64-19.95s14.49-4.73,14.86-16c.16,0-2.21,27.72-2.74,34a5.76,5.76,0,0,1-.83,2.47c-3.74,6-11.38,14.41-14.63,20-3.37,5.82-5,10.63-2.79,17.09a3.24,3.24,0,0,1,.24,1.53,3.15,3.15,0,0,1-.62,1.17L443,219.91a2.44,2.44,0,0,1-.82.81,2.08,2.08,0,0,1-.93.17c-2.18,0-4.49-.57-6.48.31-6.19,2.74-8.19,16.11-9.71,21.66s-4.9,48.72-3.82,54.42a24.36,24.36,0,0,0-9.2,6.1,19.79,19.79,0,0,0-7.29-3.43c-1.83-.44,1.27,16.19,1.2,17a10.86,10.86,0,0,1-1.06,3.84,2.58,2.58,0,0,1,.48,1.77c0,9.22-3.45,9.87-10.92,12.72-7.28,2.77-11.49,10.4-18.05,14.62-11.74,7.55-28.84,3-39.64,11.83-3.12,2.55-5.36,6-7.87,9.12-4.72,5.95-10.77,11.19-18.07,13.27a34.49,34.49,0,0,1-11,1.08c-2.85-.13-7.37-1.91-9.36,1.14-1.82,2.78,2.31,5.17-.89,8.13a12.8,12.8,0,0,1-3,1.7c-3.86,2-6.54,5.72-10.2,8.06-4.72,3-10.58,3.44-15.86,5.31-4.87,1.72-9.16,4.65-13.55,7.31-2.8,1.71-5.63,3.52-7.62,6.17a7.19,7.19,0,0,1-7.32,3.13,11.75,11.75,0,0,0-3.89-.4c-4.52.59-6.8.87-10.24-2.48a17.68,17.68,0,0,1-3.21-3.32c-.88-1.56-.47-3.44-1.11-5.06a12.63,12.63,0,0,0-4.26-5.65c-4.39-3.1-8.81-6.43-13.37-9.38a118.59,118.59,0,0,0-31.22-14.27c-3-.89-6.27-1.73-8.53-3.95-1.47-1.44-2.42-3.37-4-4.71-3-2.61-7.52-2.37-11.5-2-3.42,3.43-8.84,1.55-12.59-1.52s-6.13-7.48-9.48-11a26.45,26.45,0,0,0-12.39-7.31c-2.07-.55-5.22-.88-6.7-2.62s0-3.87-2-5.62a7.05,7.05,0,0,0-1.74-1.11c-2.58-1.22-5.93-1.21-8.78-1.7l-.32-.05a11.64,11.64,0,0,1-1.41-.33,63.77,63.77,0,0,1-15.92-7.24c-2.28-1.45-4.55-3.13-5.77-5.54-1.36-2.67-1.22-5.82-1.05-8.81,0-3.54.5-22.33-1.06-25.51C60.27,294,58.05,255.56,56,253.49a70,70,0,0,1-13.05-18.94c-3.2-6.5-5.8-13.35-8.75-20.29C27.72,199,18.61,185.46,11,170.8c-2.65-5.12-7.6-12.9-7.57-19.1A22.42,22.42,0,0,0,7.72,155.37Z"/><path class="cls-4" d="M243,2.87a8.71,8.71,0,0,0,2.16.29,3,3,0,0,1,1.2.14,2.54,2.54,0,0,1,1,1.19c7.68,13.63,26.16,9.85,38.07,17.08,7.74,4.7,12.81,12.76,20,18.29,5.31,4.09,11.58,6.66,17.55,9.69a122.29,122.29,0,0,1,18.8,11.84c2.77,2.11,6.9,4.61,8.89,7.49,1.5,2.17,2,5.36,3,8.19.38,1.07,10.53,3,11.8,3.46,5,1.71,9.83,3.69,14.6,5.87,16.7,7.65,30.45,21,48.12,25.87,3.8,1,7.78,1.82,11.08,4C445,120,447.59,127.1,453.12,131a20.17,20.17,0,0,0,11.44,3.38,3.81,3.81,0,0,1,2.55.62,3.31,3.31,0,0,1,.75,2.52c0,12.59-4.71,13.47-14.9,17.36-9.94,3.79-15.69,14.2-24.64,19.95-16,10.31-39.35,4.1-54.1,16.15-4.26,3.48-7.32,8.15-10.73,12.45-6.45,8.11-14.7,15.26-24.67,18.11a47,47,0,0,1-15,1.47c-3.89-.18-10.06-2.61-12.78,1.55-2.49,3.8,3.15,7.06-1.22,11.1a17.18,17.18,0,0,1-4,2.32c-5.28,2.71-8.93,7.8-13.93,11-6.44,4.11-14.44,4.7-21.64,7.25-6.65,2.35-12.51,6.35-18.49,10-3.83,2.32-7.69,4.8-10.41,8.41-2.57,3.43-5.79,4.92-10,4.27-2-.31-3.22-.81-5.31-.54-6.17.8-9.28,1.18-14-3.39-1.42-1.38-3.4-2.81-4.38-4.53-1.2-2.12-.65-4.69-1.52-6.91a17.15,17.15,0,0,0-5.82-7.7c-6-4.23-12-8.78-18.25-12.8a161.65,161.65,0,0,0-42.59-19.48c-4.16-1.21-8.56-2.36-11.65-5.39-2-2-3.3-4.6-5.43-6.43-4.15-3.56-10.26-3.23-15.7-2.7-4.66,4.69-12.06,2.11-17.18-2.07s-8.36-10.21-12.93-15A36.24,36.24,0,0,0,59.7,182c-2.82-.74-7.12-1.2-9.15-3.57s0-5.28-2.66-7.67c-4.2-3.83-11.6-2.82-16.72-4.35a87.34,87.34,0,0,1-21.72-9.89c-3.11-2-6.22-4.27-7.88-7.56-1.84-3.64-1.66-7.94-1.43-12L38,115.87c5-2.81,10.22-5.73,13.87-10.21,3.89-4.77,5.7-10.93,9.26-16,12.8-18.08,41-14.76,59.45-27,6-4,10.81-9.59,16.76-13.68,7.63-5.25,16.69-7.68,25.79-8.76,2.48-.3,23.46.42,23-2.64-.83-6.2.68-11.49,5.39-15.94s11.11-6.89,17.27-9.16c5-1.85,11.3-3.2,15.14-6.62s6.18-6.91,12-5.57C238.39.85,240.65,2.26,243,2.87Z"/><path class="cls-3" d="M85.36,343.73a63.77,63.77,0,0,1-15.92-7.24c-2.28-1.45-4.55-3.13-5.77-5.54a9.88,9.88,0,0,1-.87-2.73c-.09-1.93-.15-3.92-.18-6.08,0-3.54.5-22.33-1.06-25.51C60.27,294,58.05,255.56,56,253.49a70,70,0,0,1-13.05-18.94c-3.2-6.5-5.8-13.35-8.75-20.29C27.72,199,18.61,185.46,11,170.8c-2.65-5.12-7.6-12.9-7.57-19.1a27,27,0,0,0,6,4.82,87.34,87.34,0,0,0,21.72,9.89c5.12,1.53,12.52.52,16.72,4.35,2.62,2.39.53,5.18,2.66,7.67.74.86,9.77,28.88,16.68,40.87,3.15,5.48,6.82,10.83,8.24,17,1,4.44.82,9.07,1.68,13.54,1.44,7.38,5.67,50.31,9,57,6.42,12.83,7.37,25.74,9.68,38.95C92.75,344.33,88.48,344.67,85.36,343.73Z"/><path class="cls-5" d="M116.88,360.8l-4.29-20.05c-1.53-7.14-2.7-15.6,2.39-20.83,1.46-1.51,3.36-2.6,4.6-4.3a14.9,14.9,0,0,0,2.12-5.47c1.94-8,3.77-53.42-.37-60.56-2.61-4.52-7.34-7.67-9.35-12.49-1.46-3.49-1.31-7.4-1.47-11.19-.23-5.68-2.71-11.41-3-16.95l-.84.08c5.44-.53,11.55-.86,15.7,2.7,2.13,1.83,3.42,4.46,5.43,6.43a14.49,14.49,0,0,0,3.12,2.27c1.69,13,3.31,62.26,1.75,75.71-1.36,11.78-4.69,23.59-2.9,35.3,1.65,10.77,7.48,20.36,11.42,30.51a90.13,90.13,0,0,1,3.89,12.78,37.74,37.74,0,0,0-4.41.23c-3.42,3.43-8.84,1.55-12.59-1.52s-6.13-7.48-9.48-11c-.56-.59-1.16-1.14-1.77-1.67Z"/><path class="cls-4" d="M95.87,345.81c-2.31-13.21-3.26-26.12-9.68-38.95-3.37-6.73-7.6-49.66-9-57-.86-4.47-.66-9.1-1.68-13.54-1.42-6.15-5.09-11.5-8.24-17-6.91-12-15.94-40-16.68-40.87,2,2.37,6.33,2.83,9.15,3.57a36.24,36.24,0,0,1,16.91,10c4.57,4.78,7.81,10.81,12.93,15s12.52,6.76,17.18,2.07l.84-.08c.24,5.54,2.72,11.27,3,16.95.16,3.79,0,7.7,1.47,11.19,2,4.82,6.74,8,9.35,12.49,4.14,7.14,2.31,52.54.37,60.56a14.9,14.9,0,0,1-2.12,5.47c-1.24,1.7-3.14,2.79-4.6,4.3-5.09,5.23-3.92,13.69-2.39,20.83l4.29,20.05a26.62,26.62,0,0,0-10.62-5.64c-2.07-.55-5.22-.88-6.7-2.62s0-3.87-2-5.62a7.05,7.05,0,0,0-1.74-1.11Z"/><path class="cls-6" d="M145.13,374.74A90.13,90.13,0,0,0,141.24,362c-3.94-10.15-9.77-19.74-11.42-30.51-1.79-11.71,1.54-23.52,2.9-35.3,1.56-13.45-.06-62.7-1.75-75.71a41,41,0,0,0,8.53,3.12A161.65,161.65,0,0,1,182.09,243c6.23,4,12.27,8.57,18.25,12.8a17,17,0,0,1,5.82,7.63c.85,2.18.34,4.69,1.47,6.8a31.94,31.94,0,0,1-4.36,13.13c-4.83,7.57-13.74,49.46-15.3,58.3-.78,4.43.5,8.95,1.77,13.27l5,16.95c.88,3,1.76,6,2.65,9q1.71,5.85,3.43,11.71,2,6.66,3.92,13.32c-2.89-2.08-5.8-4.17-8.77-6.09a118.59,118.59,0,0,0-31.22-14.27c-3-.89-6.27-1.73-8.53-3.95-1.47-1.44-2.42-3.37-4-4.71a10.82,10.82,0,0,0-7.09-2.21Z"/><path class="cls-4" d="M204.72,406q-2-6.66-3.92-13.32-1.71-5.86-3.43-11.71c-.89-3-1.77-6-2.65-9l-5-16.95c-1.27-4.32-2.55-8.84-1.77-13.27,1.56-8.84,10.47-50.73,15.3-58.3a31.94,31.94,0,0,0,4.36-13.13l.05.1c1,1.73,3,3.15,4.38,4.54,4.69,4.56,7.8,7.82,14,7,2.09-.27,3.33-3.41,5.31-3.1,4.19.65,7.41-.84,10-4.26a23.27,23.27,0,0,1,3.42-3.59c.5,2,1,3.89,1.53,5.6.8,2.54,1.6,41.65,1.59,44.3,0,3.3-1.27,6.44-2.25,9.6a57.53,57.53,0,0,0-1.56,27.46,34.53,34.53,0,0,1,1,7.68c-.19,5-4.14,10.05-9.1,9.84-2.41-.1-5.33-1.2-6.89.64-1.1,1.28-.7,3.21-.31,4.85a60,60,0,0,1,.08,27l14.87-.08a12.79,12.79,0,0,0,2.35,9.54,23.66,23.66,0,0,0-6.73,5.61,7.19,7.19,0,0,1-7.32,3.13,11.75,11.75,0,0,0-3.89-.4c-4.52.59-6.8.87-10.24-2.48a17.68,17.68,0,0,1-3.21-3.32c-.88-1.56-.47-3.44-1.11-5.06a12.63,12.63,0,0,0-4.26-5.65c-1.53-1.08-3.06-2.19-4.6-3.29Z"/><path class="cls-3" d="M243.73,407.89l-14.87.08a60,60,0,0,0-.08-27c-.39-1.64-.79-3.57.31-4.85,1.56-1.84,4.48-.74,6.89-.64,5,.21,8.91-4.87,9.1-9.84a34.53,34.53,0,0,0-1-7.68,57.53,57.53,0,0,1,1.56-27.46c1-3.16,2.23-6.3,2.25-9.6,0-2.65-.79-41.76-1.59-44.3-.53-1.71-1-3.61-1.53-5.6a53.6,53.6,0,0,1,7-4.83c6-3.64,11.84-7.63,18.49-10,4.56-1.61,9.43-2.36,14-3.8,0,2.27.05,41,.07,43.25a44.91,44.91,0,0,1-.53,9.13,60.31,60.31,0,0,1-3.23,9.52,81.82,81.82,0,0,0-4.59,39c.59,4.69,1.58,9.6,0,14-1.32,3.66-4.22,6.49-6.43,9.69a29.25,29.25,0,0,0-4.69,21.33c5-.18,11.19.49,14.24,3.83a23.36,23.36,0,0,1-2.69,2.06c-4.72,3-10.58,3.44-15.86,5.31-4.87,1.72-9.16,4.65-13.55,7.31l-.89.56A12.79,12.79,0,0,1,243.73,407.89Z"/><path class="cls-6" d="M264.83,398.36A29.25,29.25,0,0,1,269.52,377c2.21-3.2,5.11-6,6.43-9.69,1.6-4.45.61-9.36,0-14a81.82,81.82,0,0,1,4.59-39,60.31,60.31,0,0,0,3.23-9.52,44.91,44.91,0,0,0,.53-9.13c0-2.26-.05-41-.07-43.25a31,31,0,0,0,7.61-3.37c5-3.19,8.65-8.28,13.93-11a17.18,17.18,0,0,0,4-2.32,4.9,4.9,0,0,0,1.67-2.81.29.29,0,0,0,0,.1,27.5,27.5,0,0,1,.65,9.54c-.92,16.58-3.73,69.51-8.34,85.47-3.25,11.26-7.43,22.38-8.58,34-.67,6.73-.32,13.61-2.09,20.14-.24.9-.52,1.8-.77,2.7a3.57,3.57,0,0,0-2,1.5c-1.82,2.78,2.31,5.17-.89,8.13a12.8,12.8,0,0,1-3,1.7c-2.86,1.47-5.07,3.89-7.51,6C276,398.85,269.84,398.18,264.83,398.36Z"/><path class="cls-6" d="M292.4,384.86c.25-.9.53-1.8.77-2.7,1.77-6.53,1.42-13.41,2.09-20.14,1.15-11.66,5.33-22.78,8.58-34,4.61-16,7.42-68.89,8.34-85.47a27.5,27.5,0,0,0-.65-9.54.29.29,0,0,1,0-.1l0,.09,0-.1a4.2,4.2,0,0,0,.05-.79s0,0,0-.08a5.71,5.71,0,0,0-.08-.71l-.06-.29c0-.17-.08-.34-.13-.51l-.09-.32-.15-.49c-.11-.33-.22-.67-.31-1h0a4.53,4.53,0,0,1,.33-4.09c2.72-4.16,8.89-1.73,12.78-1.55a47,47,0,0,0,15-1.47c10-2.85,18.22-10,24.67-18.11,1.88-2.37,3.66-4.85,5.59-7.18,1.22,17.53-8.39,45.86-11.46,54.64-2.89,8.26-6.32,52.83-8.32,61.35-2.59,11-2.76,22.68-6.77,33.28-2.33,6.16-5.9,11.91-7.85,18.13-2.12,2.22-3.9,4.79-5.82,7.2-4.72,5.95-10.77,11.19-18.07,13.27a34.49,34.49,0,0,1-11,1.08c-2.2-.1-5.4-1.18-7.66-.25Z"/><path class="cls-7" d="M.14,137c-.09,3,.11,6.06,1.54,8.73,1.67,3.09,4.77,5.25,7.88,7.1a90,90,0,0,0,21.71,9.28c5.12,1.44,12.51.48,16.72,4.09,2.61,2.24.52,4.85,2.65,7.19s6.32,2.66,9.15,3.36a36.75,36.75,0,0,1,16.9,9.36c4.56,4.49,7.8,10.15,12.92,14.07s12.52,6.35,17.17,1.94c5.44-.49,11.55-.8,15.69,2.54,2.14,1.71,3.43,4.19,5.43,6,3.09,2.85,7.49,3.93,11.64,5.06a167.22,167.22,0,0,1,42.58,18.29c6.22,3.78,12.26,8,18.24,12a16.26,16.26,0,0,1,5.81,7.24c.87,2.08.32,4.49,1.52,6.48,1,1.62,3,3,4.38,4.26,4.69,4.28,7.79,3.93,14,3.18,2.1-.26,3.34.21,5.31.5a10.07,10.07,0,0,0,10-4c2.72-3.4,6.57-5.72,10.4-7.9,6-3.42,11.84-7.17,18.48-9.38,7.2-2.39,15.2-2.94,21.63-6.8,5-3,8.65-7.77,13.92-10.32a17.62,17.62,0,0,0,4-2.18,5.85,5.85,0,0,0,.61-.61c-.14,3,3,5.81-.57,9.13a17.18,17.18,0,0,1-4,2.32c-5.28,2.71-8.93,7.8-13.93,11-6.44,4.11-14.44,4.7-21.64,7.25-6.65,2.35-12.51,6.35-18.49,10-3.83,2.32-7.69,4.8-10.41,8.41-2.57,3.43-5.79,4.92-10,4.27-2-.31-3.22-.81-5.31-.54-6.17.8-9.28,1.18-14-3.39-1.42-1.38-3.4-2.81-4.38-4.53-1.2-2.12-.65-4.69-1.52-6.91a17.15,17.15,0,0,0-5.82-7.7c-6-4.23-12-8.78-18.25-12.8a161.65,161.65,0,0,0-42.59-19.48c-4.16-1.21-8.56-2.36-11.65-5.39-2-2-3.3-4.6-5.43-6.43-4.15-3.56-10.26-3.23-15.7-2.7-4.66,4.69-12.06,2.11-17.18-2.07s-8.36-10.21-12.93-15A36.24,36.24,0,0,0,59.7,182c-2.82-.74-7.12-1.2-9.15-3.57s0-5.28-2.66-7.67c-4.2-3.83-11.6-2.82-16.72-4.35a87.34,87.34,0,0,1-21.72-9.89c-3.11-2-6.22-4.27-7.88-7.56C-.26,145.34-.09,141.08.14,137Z"/><path class="cls-7" d="M311,216.74c2.72-3.9,8.89-1.62,12.77-1.46a49.68,49.68,0,0,0,15-1.38c10-2.67,18.2-9.37,24.65-17,3.42-4,6.48-8.42,10.73-11.68,14.74-11.32,38.06-5.49,54.08-15.16,8.94-5.41,14.69-15.18,24.62-18.74s14.54-4.45,14.86-15.23a5.83,5.83,0,0,1,.15,1.44c0,12.59-4.71,13.47-14.9,17.36-9.94,3.79-15.69,14.2-24.64,19.95-16,10.31-39.35,4.1-54.1,16.15-4.26,3.48-7.32,8.15-10.73,12.45-6.45,8.11-14.7,15.26-24.67,18.11a47,47,0,0,1-15,1.47c-3.69-.17-9.43-2.36-12.33,1C311.55,221.54,309.25,219.27,311,216.74Z"/><path class="cls-3" d="M122.42,211.74a.6.6,0,0,1,.08.08h0A.6.6,0,0,0,122.42,211.74Z"/><path class="cls-3" d="M129.83,374.68l.06,0Z"/><path class="cls-3" d="M95,210.31c4.12,1.74,8.54,1.91,11.71-1.27l.84-.08c.24,5.54,2.72,11.27,3,16.95.16,3.79,0,7.7,1.47,11.19,2,4.82,6.74,8,9.35,12.49,4.14,7.14,2.31,52.54.37,60.56a14.9,14.9,0,0,1-2.12,5.47c-1.24,1.7-3.14,2.79-4.6,4.3-5.09,5.23-3.92,13.69-2.39,20.83l4.29,20.05h0c.61.53,1.21,1.08,1.77,1.67a26.12,26.12,0,0,0-5.25-4.23q-2.49-12.57-5-25.14a31.31,31.31,0,0,1-.88-9.13c.79-7.88,7.41-14.35,7.8-22.26s-5.29-50.83-9.38-57.49C99.69,234,96.79,222.27,95,210.31Z"/><path class="cls-3" d="M295.26,362c1.15-11.66,5.33-22.78,8.58-34,4.61-16,7.42-68.89,8.34-85.47a27.5,27.5,0,0,0-.65-9.54.29.29,0,0,1,0-.1l0,.09,0-.1a4.2,4.2,0,0,0,.05-.79s0,0,0-.08a5.71,5.71,0,0,0-.08-.71l-.06-.29c0-.17-.08-.34-.13-.51l-.09-.32-.15-.49c-.11-.33-.22-.67-.31-1h0a4.53,4.53,0,0,1,.33-4.09c2.72-4.16,8.89-1.73,12.78-1.55a47,47,0,0,0,15-1.47l.95-.3c-.69,5.49-2.12,11.22-2.78,16.18-1.36,10.33-2.75,57.26-6.82,66.85-3.54,8.35-9,15.8-12.15,24.3a48.43,48.43,0,0,0-.31,32.23c1,2.93,2.32,5.77,2.85,8.82a31.57,31.57,0,0,1-.17,9.6,29.9,29.9,0,0,1-9.6,4.9,34.49,34.49,0,0,1-11,1.08c-.94,0-2.08-.26-3.24-.43-.88-2.1-1.78-4.19-2.62-6.3C294.83,373.08,294.72,367.5,295.26,362Z"/><path class="cls-5" d="M68.57,185.67c-.57-.33-1.15-.65-1.74-.95C67.42,185,68,185.34,68.57,185.67Z"/><path class="cls-5" d="M66,184.35c-.42-.21-.84-.4-1.27-.59C65.19,184,65.61,184.14,66,184.35Z"/><path class="cls-5" d="M61.84,182.65c-.7-.24-1.42-.46-2.14-.65C60.42,182.19,61.14,182.41,61.84,182.65Z"/><path class="cls-5" d="M63.94,183.42l-1.39-.53Z"/><path class="cls-5" d="M70.39,186.81c-.25-.17-.5-.32-.76-.48C69.89,186.49,70.14,186.64,70.39,186.81Z"/><path class="cls-5" d="M47.89,170.76a5,5,0,0,1,.59.66l.09.12a4.09,4.09,0,0,1,.38.67c.9,2-.11,4.22,1.6,6.22.74.86,9.77,28.88,16.68,40.87,3.15,5.48,6.82,10.83,8.24,17,.87,3.76.86,7.66,1.36,11.48A11.69,11.69,0,0,0,75.11,245c-1.59-1.84-3.83-3.06-5.33-5-2.73-3.49-2.45-8.35-3.33-12.68-2.34-11.41-12.78-19-19.34-28.68-3-4.48-8.89-18.51-11.11-31.43C40.27,167.76,44.89,168,47.89,170.76Z"/><path class="cls-5" d="M72.11,188l-.62-.45Z"/><path class="cls-5" d="M293.17,382.16c1.77-6.53,1.42-13.41,2.09-20.14,1.15-11.66,5.33-22.78,8.58-34,4.61-16,7.42-68.89,8.34-85.47a27.5,27.5,0,0,0-.65-9.54.29.29,0,0,1,0-.1l0,.09,0-.1a4.2,4.2,0,0,0,.05-.79s0,0,0-.08a5.71,5.71,0,0,0-.08-.71l-.06-.29c0-.17-.08-.34-.13-.51l-.09-.32-.15-.49c-.11-.33-.22-.67-.31-1h0a4.53,4.53,0,0,1,.33-4.09c2.72-4.16,8.89-1.73,12.78-1.55,1.13,0,2.26.06,3.39.05-.17,3.5-.19,7-.19,10.55.15,3.69.48,7.42-.28,11a39.82,39.82,0,0,1-3.33,8.66c-9.39,19.93-16.67,77.31-21.68,98.77A71.59,71.59,0,0,0,299.41,368a40.72,40.72,0,0,0,3.84,17.23c-1.15,0-2.3,0-3.45,0-2.2-.1-5.4-1.18-7.66-.25l.26-.11C292.65,384,292.93,383.06,293.17,382.16Z"/><path class="cls-6" d="M203,355.8l7.14-14.6c2.67,1.07,3.66,4.41,3.49,7.28s-1.15,5.69-1,8.56c.36,6,5.64,11.6,3.72,17.29-.47,1.42-1.39,2.71-1.55,4.2a9.31,9.31,0,0,0,1.15,4.56,58.74,58.74,0,0,1,4.46,17.72c.52,5.85.41,12.39,4.42,16.68,3.59,3.85,9.15,4.47,14.49,5.54h0a7.19,7.19,0,0,1-7.32,3.13,11.75,11.75,0,0,0-3.89-.4c-4.52.59-6.8.87-10.24-2.48a17.68,17.68,0,0,1-3.21-3.32c-.88-1.56-.47-3.44-1.11-5.06a12.92,12.92,0,0,0-3.36-4.88q0-3.57-.1-7.14a83.7,83.7,0,0,0-.73-11.31A101.27,101.27,0,0,0,206.18,379q-2.31-7.93-4.05-16a11.16,11.16,0,0,1-.35-3.76A11.48,11.48,0,0,1,203,355.8Z"/><path class="cls-3" d="M145.78,237.92c1.24,0,1.52,1.7,1.79,2.9,1,4.39,6.27,6.38,8.39,10.34,2.54,4.77-.13,47.25,1.49,52.4s7,8,11,11.63A29.22,29.22,0,0,1,178,333.64c.74,6.8-.92,13.8.72,20.44.89,3.56,2.69,6.82,4.16,10.19,4.32,9.94,5.72,20.78,6.44,31.66-3.37-1.88-6.82-3.58-10.35-5.13-.36-2.12-.71-4.23-1.07-6.35-1.51-9-3.81-19.14-11.75-23.6a49.88,49.88,0,0,0,.9-23.94c-2.49.73-3.24,3.94-2.88,6.51s1.4,5.15.79,7.67-2.77,4.44-3.58,6.92a13.68,13.68,0,0,0-.19,5.74q1.14,10.75,2.29,21.51c-2.67-.78-5.36-1.67-7.32-3.6-1.47-1.44-2.42-3.37-4-4.71a8.65,8.65,0,0,0-3.68-1.81q-2.1-9.57-3.82-19.23c-.27-1.51-.5-3.17.26-4.5.52-.91,1.45-1.53,1.94-2.46.71-1.34.34-3,0-4.46-2.63-11.56-1.65-22.41.37-33.93.74-4.24-.58-6.08-1.1-10-.68-5.24,1.33-44.51-1.46-49.53A12.16,12.16,0,0,1,145.78,237.92Z"/><path class="cls-5" d="M254.85,277.47a47.19,47.19,0,0,1-2.58-11.65c5.8-3.55,11.5-7.37,18-9.66,2.82-1,5.77-1.62,8.69-2.35.07,5.4-2.29,48.69-3.64,52.41-.9,2.48-2,4.91-2.64,7.47,8.2-32.16.26-29.88-1.05,10q-.4,12.62-.82,25.23c-.26,7.77-1,16.5-6.89,21.51-2.11-.3-2.06-3.34-1.53-5.4a64.32,64.32,0,0,0-3.07-40.93C257.84,320.69,256.11,280.91,254.85,277.47Z"/><path class="cls-6" d="M372.27,338.69c3.61-2.58,5.54-6.68,9.06-9.24C386,326,390.54,323,395,318.76a6.1,6.1,0,0,0,1.29-1.53,6.48,6.48,0,0,0,.39-3.45,57,57,0,0,1,1.16-15.36,4,4,0,0,0,0-2.47,3.71,3.71,0,0,0-1.71-1.56c-1.25-.71-2.53-37.82-3.84-38.42a7.24,7.24,0,0,1-3.6-9.26c4.26-10.66,10.33-20.53,13.59-31.4a9.92,9.92,0,0,1,2.17-4.49,9.32,9.32,0,0,1,4.42-2c3.48-.86,7-1.59,10.43-2.58,10-2.88,8.54-28.21,8.73-30.81,0-.16,0-.31,0-.47l0,0,.25-.16c8.95-5.75,14.7-16.16,24.64-19.95l2.63-1a115.46,115.46,0,0,1-6.37,21.22c-5.28,12.95-13,25.75-22.9,35.69a12.51,12.51,0,0,1-3.35,2.77c-2.71,1.34-6.06.7-8.79,2-3.31,1.54-4.77,5.36-5.93,8.82L403.36,239a12.25,12.25,0,0,0-.91,4.67c.21,2.86,2.38,5.24,2.84,8.06.29,1.81-.14,40.1-.39,41.91a31.91,31.91,0,0,0-.21,6.32c-1.75-.19,1.3,16.18,1.23,17a10.86,10.86,0,0,1-1.06,3.84,2.58,2.58,0,0,1,.48,1.77c0,9.22-3.45,9.87-10.92,12.72-7.28,2.77-11.49,10.4-18.05,14.62-7.61,4.9-17.47,4.72-26.41,6.39a22.8,22.8,0,0,1-.09-2.33C353.61,343.44,364.07,344.57,372.27,338.69Z"/><path class="cls-5" d="M349.3,312.26c2-8.52,5.43-53.09,8.32-61.35,3.07-8.78,12.68-37.11,11.46-54.64a34.65,34.65,0,0,1,5.14-5.27,33.16,33.16,0,0,1,11.67-5.93c-4,15.34-9.48,30.64-13.69,45.63a113.16,113.16,0,0,1-5.34,15.92c-2.38,5.27-5.55,46.59-8.18,51.73a164.83,164.83,0,0,0-8.3,20.65q-2.14,6.15-4.3,12.29C347.13,325,347.83,318.52,349.3,312.26Z"/><path class="cls-7" d="M402.47,240.29c1.74-5.2,3.11-11.51,4.85-16.71,1.23-3.69,2.8-7.76,6.32-9.4,2.92-1.37,4-.72,6.88-2.15a62.86,62.86,0,0,0,8.37-5.78c8.1-13,13.79-21.74,18.9-39.22,1.14-3.91,3.18-7.39,3.62-11.47.56-.21,4.92-1.94,5.44-2.13-1.26,8.17-7,13.47-7.63,21.69-.55,6.75-13,25.75-22.9,35.69a12.51,12.51,0,0,1-3.35,2.77c-2.71,1.34-6.06.7-8.79,2-3.31,1.54-4.77,5.36-5.93,8.82L403.36,239a12.25,12.25,0,0,0-.91,4.67C402.33,242,401.93,241.91,402.47,240.29Z"/><path class="cls-8" d="M164.73,385.61c-3-.89-6.27-1.73-8.53-3.95-1.47-1.44-2.42-3.37-4-4.71-3-2.61-7.52-2.37-11.5-2-3.42,3.43-8.84,1.55-12.59-1.52s-6.13-7.48-9.48-11a26.45,26.45,0,0,0-12.39-7.31c-2.07-.55-5.22-.88-6.7-2.62s0-3.87-2-5.62a7.05,7.05,0,0,0-1.74-1.11c-2.58-1.22-5.93-1.21-8.78-1.7l-.32-.05a11.64,11.64,0,0,1-1.41-.33,63.77,63.77,0,0,1-15.92-7.24c-2.28-1.45-4.55-3.13-5.77-5.54-1.36-2.67-1.22-5.82-1.05-8.81,0-2.67.27-14-.25-20.81,6.34,1.78,15.56,3.21,20.78-.52,5.4,13.06,16.59,14,29.36,15l14,1.1a64.4,64.4,0,0,0,10,14.81,12.39,12.39,0,0,0,5,3.8c2.48.81,5.16.15,7.76.18,9.53.12,16.24,9,24.22,14.21s18.05,6.94,26.63,11.41c6.86,3.58,12.67,8.88,19.3,12.86s14.74,6.65,22.09,4.23c11.55-3.82,17.28-18.69,29.22-21,6.1-1.17,12.56,1.33,18.54-.33,9.3-2.56,13.52-13.75,22.1-18.16,6.46-3.32,14.17-2.23,21.42-2.7s15.59-3.83,17-11c5.58-28.35,44.6-73.7,73.17-78l.66-.1c-1.54,4.49-3.26,45.86-2.45,50.14a24.36,24.36,0,0,0-9.2,6.1,19.79,19.79,0,0,0-7.29-3.43c-1.83-.44,1.27,16.19,1.2,17a10.86,10.86,0,0,1-1.06,3.84,2.58,2.58,0,0,1,.48,1.77c0,9.22-3.45,9.87-10.92,12.72-7.28,2.77-11.49,10.4-18.05,14.62-11.74,7.55-28.84,3-39.64,11.83-3.12,2.55-5.36,6-7.87,9.12-4.72,5.95-10.77,11.19-18.07,13.27a34.49,34.49,0,0,1-11,1.08c-2.85-.13-7.37-1.91-9.36,1.14-1.82,2.78,2.31,5.17-.89,8.13a12.8,12.8,0,0,1-3,1.7c-3.86,2-6.54,5.72-10.2,8.06-4.72,3-10.58,3.44-15.86,5.31-4.87,1.72-9.16,4.65-13.55,7.31-2.8,1.71-5.63,3.52-7.62,6.17a7.19,7.19,0,0,1-7.32,3.13,11.75,11.75,0,0,0-3.89-.4c-4.52.59-6.8.87-10.24-2.48a17.68,17.68,0,0,1-3.21-3.32c-.88-1.56-.47-3.44-1.11-5.06a12.63,12.63,0,0,0-4.26-5.65c-4.39-3.1-8.81-6.43-13.37-9.38A118.59,118.59,0,0,0,164.73,385.61Z"/><g class="cls-9"><path class="cls-6" d="M302.93,328.82c3-14.21,5.61-66.17,3.75-78.21-.51-3.35,1.43-8.24,1.37-11.63,0-.69,0-1.38-.05-2.07a8.63,8.63,0,0,0,1.83-1.23,4.9,4.9,0,0,0,1.67-2.81.29.29,0,0,0,0,.1,27.5,27.5,0,0,1,.65,9.54c-.92,16.58-3.73,69.51-8.34,85.47-.88,3.06-1.83,6.1-2.77,9.14C301.71,334.36,302.35,331.59,302.93,328.82Z"/></g><path class="cls-7" d="M59.7,182l.55.17c-.07,5.2-.15,10.51,2.51,14.17,1.38,1.9,3.77,2.74,5.52,4.29,2.46,2.18-1.41,6.4-.58,9.59,2.2,8.46,8.89,16.17,10,24.85a151.39,151.39,0,0,1,1.06,20.2,35.7,35.7,0,0,1-1.57-5.45c-.86-4.47-.66-9.1-1.68-13.54-1.42-6.15-5.09-11.5-8.24-17-6.91-12-15.94-40-16.68-40.87C52.58,180.8,56.88,181.26,59.7,182Z"/><polygon class="cls-10" points="99.9 285.71 133.34 265.65 157.65 280.36 157.65 318.72 99.9 285.71"/><polygon class="cls-11" points="98.9 286.06 100.05 246.03 131.29 266.81 98.9 286.06"/><g class="cls-2"><polygon class="cls-12" points="102.32 294.89 109.35 290.81 109.45 252.46 102.43 256.54 102.32 294.89"/><polygon class="cls-12" points="160.67 334.44 167.69 330.36 167.83 280.29 160.81 284.37 160.67 334.44"/><polygon class="cls-13" points="152.94 324.11 159.97 320.03 109.35 290.81 102.32 294.89 152.94 324.11"/><polygon class="cls-13" points="160.81 284.37 167.83 280.29 101.73 242.13 94.71 246.21 160.81 284.37"/><path class="cls-14" d="M160.67,334.45l-66.1-38.17.14-50.07,66.1,38.16Zm-58.35-39.56,50.62,29.22.11-38.35-50.62-29.22-.11,38.35"/></g><g class="cls-15"><polygon class="cls-16" points="457.91 74.87 475.39 89.73 390.23 123.24 330.99 174.11 243.37 208.59 184.13 259.45 94.07 294.9 76.58 280.04 161.74 246.52 220.98 195.66 308.6 161.18 367.84 110.32 457.91 74.87"/><g class="cls-2"><polygon class="cls-6" points="466.36 57.05 466.32 73.36 381.16 106.87 381.2 90.56 466.36 57.05"/><polygon class="cls-6" points="381.2 90.56 381.16 106.87 321.92 157.74 321.96 141.44 381.2 90.56"/><polygon class="cls-6" points="321.96 141.44 321.92 157.74 234.3 192.22 234.34 175.91 321.96 141.44"/><polygon class="cls-6" points="234.34 175.91 234.3 192.22 175.07 243.08 175.11 226.78 234.34 175.91"/><polygon class="cls-6" points="175.11 226.78 175.07 243.08 84.99 278.53 85.03 262.22 175.11 226.78"/><polygon class="cls-17" points="85.03 262.22 84.99 278.53 67.51 263.66 67.56 247.36 85.03 262.22"/><polygon class="cls-4" points="448.89 42.19 466.36 57.05 381.2 90.56 321.96 141.44 234.34 175.91 175.11 226.78 85.03 262.22 67.56 247.36 152.72 213.84 211.95 162.99 299.57 128.5 358.81 77.64 448.89 42.19"/></g></g><polyline class="cls-16" points="171.29 245.04 171.29 435.75 188.69 453.15 190.66 255.13"/></g></g></g></svg>