<svg xmlns="http://www.w3.org/2000/svg" xmlns:xlink="http://www.w3.org/1999/xlink" viewBox="0 0 473.68 451.83"><defs><style>.cls-1{fill:none;}.cls-2{isolation:isolate;}.cls-3{fill:#485d65;}.cls-4{fill:#608387;}.cls-5{fill:#36464c;}.cls-6,.cls-7{fill:#57777a;}.cls-7,.cls-9{mix-blend-mode:screen;}.cls-8{fill:#d0d0d0;mix-blend-mode:multiply;}.cls-10{fill:url(#linear-gradient);}.cls-11{fill:url(#linear-gradient-2);}.cls-12{fill:#334648;}.cls-13{fill:#537174;}.cls-14{fill:#4a6568;}.cls-15{clip-path:url(#clip-path);}.cls-16{fill:#53c17b;}.cls-17{fill:#294b6a;}</style><linearGradient id="linear-gradient" x1="339.16" y1="302.34" x2="322.11" y2="272.81" gradientUnits="userSpaceOnUse"><stop offset="0" stop-color="#537174"/><stop offset="0.05" stop-color="#587278"/><stop offset="0.46" stop-color="#7e7b95"/><stop offset="0.79" stop-color="#9580a7"/><stop offset="1" stop-color="#9d82ae"/></linearGradient><linearGradient id="linear-gradient-2" x1="369.5" y1="266.05" x2="337.1" y2="266.05" gradientUnits="userSpaceOnUse"><stop offset="0.05" stop-color="#334648"/><stop offset="1" stop-color="#9d82ae"/></linearGradient><clipPath id="clip-path" transform="translate(0 -0.05)"><path class="cls-1" d="M225,2.87a8.71,8.71,0,0,1-2.16.29,3,3,0,0,0-1.2.14,2.53,2.53,0,0,0-1,1.19c-7.69,13.63-26.16,9.85-38.07,17.08-7.74,4.7-12.82,12.76-20,18.29-5.3,4.09-11.58,6.66-17.55,9.69a122.29,122.29,0,0,0-18.8,11.84c-2.76,2.11-6.89,4.61-8.88,7.49-1.51,2.17-2,5.36-3,8.19-.37,1.07-10.52,3-11.79,3.46-5,1.71-9.83,3.69-14.61,5.87-16.7,7.65-30.44,21-48.12,25.87-3.8,1-7.78,1.82-11.07,4C23,120,20.4,127.1,14.87,131A20.14,20.14,0,0,1,3.43,134.4,3.81,3.81,0,0,0,.88,135a3.27,3.27,0,0,0-.74,2.52C.18,150.13,4.84,151,15,154.9c9.94,3.79,15.7,14.2,24.64,19.95C55.69,185.16,79,179,93.78,191c4.25,3.48,7.31,8.15,10.73,12.45,6.45,8.11,14.69,15.26,24.66,18.11a47.08,47.08,0,0,0,15,1.47c3.88-.18,10.06-2.61,12.77,1.55,2.49,3.8-3.15,7.06,1.22,11.1a17.25,17.25,0,0,0,4.05,2.32c5.27,2.71,8.92,7.8,13.92,11,6.44,4.11,14.44,4.7,21.64,7.25,6.65,2.35,12.51,6.35,18.5,10,3.82,2.32,7.68,4.8,10.4,8.41,2.58,3.43,5.8,4.92,10,4.27,2-.31,3.22-.81,5.31-.54,6.18.8,9.28,1.18,14-3.39,1.43-1.38,3.41-2.81,4.38-4.53,1.21-2.12.66-4.69,1.52-6.91a17.22,17.22,0,0,1,5.82-7.7c6-4.23,12-8.78,18.25-12.8a161.57,161.57,0,0,1,42.6-19.48c4.15-1.21,8.56-2.36,11.64-5.39,2-2,3.3-4.6,5.43-6.43,4.15-3.56,10.26-3.23,15.7-2.7,4.66,4.69,12.06,2.11,17.18-2.07s8.37-10.21,12.93-15a36.29,36.29,0,0,1,16.91-10c2.83-.74,7.12-1.2,9.15-3.57s0-5.28,2.66-7.67c4.21-3.83,11.6-2.82,16.72-4.35a87.17,87.17,0,0,0,21.72-9.89c3.12-2,6.22-4.27,7.88-7.56,1.85-3.64,1.66-7.94,1.43-12L430,115.87c-5-2.81-10.22-5.73-13.86-10.21-3.89-4.77-5.71-10.93-9.27-16-12.8-18.08-41-14.76-59.45-27-6-4-10.81-9.59-16.75-13.68-7.63-5.25-16.7-7.68-25.8-8.76-2.48-.3-23.45.42-23-2.64.83-6.2-.68-11.49-5.38-15.94s-11.12-6.89-17.28-9.16c-5-1.85-11.3-3.2-15.14-6.62S237.87-1,232.05.29C229.6.85,227.35,2.26,225,2.87Z"/></clipPath></defs><title>verden_01</title><g class="cls-2"><g id="Layer_2" data-name="Layer 2"><g id="COLORS"><path class="cls-3" d="M460.14,155.42l-.25.17-1.48,1a87.87,87.87,0,0,1-21.72,9.89c-5.13,1.53-12.52.51-16.73,4.35a4.3,4.3,0,0,0-.58.65l-.09.12a4.55,4.55,0,0,0-.38.67c-.9,2,.11,4.22-1.6,6.22-2,2.38-6.33,2.83-9.16,3.58a36.19,36.19,0,0,0-16.9,10c-4.57,4.79-7.81,10.82-12.93,15s-12.52,6.75-17.18,2.06c-5.44-.53-11.55-.86-15.7,2.7-2.14,1.83-3.43,4.46-5.43,6.43-3.09,3-7.49,4.19-11.65,5.39a161.89,161.89,0,0,0-42.6,19.48c-6.22,4-12.26,8.57-18.24,12.8a17,17,0,0,0-5.82,7.63c-.87,2.22-.32,4.79-1.52,6.91-1,1.72-3,3.15-4.38,4.53-4.69,4.57-7.8,4.19-14,3.39-2.1-.27-3.34.23-5.31.54-4.19.65-7.41-.84-10-4.27-2.71-3.61-6.57-6.09-10.4-8.41-6-3.64-11.84-7.64-18.49-10-1.63-.58-3.3-1-5-1.41h0c-2.95-.77-5.94-1.43-8.83-2.32l-.22-.07q-1.11-.34-2.19-.75c-.24-.08-.47-.18-.7-.27-.59-.23-1.18-.49-1.75-.75l-.7-.33A24,24,0,0,1,176,249c-5-3.19-8.66-8.28-13.93-11a17.36,17.36,0,0,1-4-2.33,6.17,6.17,0,0,1-.79-.86l-.18-.26a4.46,4.46,0,0,1-.34-.59c-.05-.09-.09-.19-.13-.28a4.69,4.69,0,0,1-.17-.58,2.1,2.1,0,0,1-.06-.24,4.25,4.25,0,0,1-.05-.79s0-.06,0-.09a5.56,5.56,0,0,1,.08-.7l.06-.29.12-.51c0-.11.06-.22.1-.33l.15-.48c.1-.34.21-.67.31-1h0a4.56,4.56,0,0,0-.33-4.09c-2.72-4.16-8.89-1.72-12.78-1.55a47,47,0,0,1-15-1.47c-10-2.85-18.22-10-24.67-18.11-3.42-4.3-6.48-9-10.73-12.44C78.89,179,55.55,185.2,39.53,174.9c-8.94-5.75-14.7-16.17-24.63-20S.41,150.22,0,138.93c-.16,0,2.21,27.72,2.74,34a5.54,5.54,0,0,0,.83,2.47c3.73,6,11.38,14.41,14.62,20,3.38,5.83,5,10.63,2.8,17.09a3.05,3.05,0,0,0-.24,1.54,3.09,3.09,0,0,0,.61,1.16L24.88,220a2.47,2.47,0,0,0,.82.82,2.31,2.31,0,0,0,.94.17c2.18,0,4.48-.57,6.48.31,6.19,2.73,8.19,16.1,9.71,21.66s4.9,48.72,3.81,54.42a24.28,24.28,0,0,1,9.21,6.1A19.63,19.63,0,0,1,63.14,300c1.83-.44-1.28,16.18-1.21,17A11.21,11.21,0,0,0,63,320.86a2.51,2.51,0,0,0-.48,1.77c0,9.22,3.45,9.86,10.91,12.71,7.28,2.78,11.5,10.41,18,14.62,11.74,7.56,28.84,3,39.65,11.84,3.12,2.54,5.36,6,7.86,9.12,4.73,5.94,10.77,11.18,18.08,13.27a34.43,34.43,0,0,0,11,1.07c2.85-.12,7.38-1.91,9.37,1.14,1.82,2.79-2.31,5.18.89,8.13a13,13,0,0,0,3,1.71c3.87,2,6.55,5.71,10.21,8.05,4.71,3,10.58,3.44,15.86,5.31,4.87,1.73,9.16,4.65,13.55,7.32,2.8,1.7,5.63,3.52,7.62,6.17a7.17,7.17,0,0,0,7.32,3.12,11.72,11.72,0,0,1,3.89-.39c4.52.58,6.8.86,10.23-2.48a17.13,17.13,0,0,0,3.21-3.33c.88-1.55.48-3.43,1.12-5.06a12.53,12.53,0,0,1,4.26-5.64c4.38-3.1,8.81-6.44,13.37-9.38a118.8,118.8,0,0,1,31.22-14.28c3-.88,6.27-1.73,8.53-3.95,1.47-1.44,2.41-3.37,4-4.71,3-2.61,7.52-2.36,11.5-2,3.42,3.44,8.84,1.55,12.59-1.51s6.13-7.48,9.47-11a26.71,26.71,0,0,1,12.39-7.31c2.08-.54,5.22-.88,6.71-2.62s0-3.86,1.95-5.61a6.61,6.61,0,0,1,1.74-1.11c2.58-1.22,5.93-1.22,8.78-1.7l.32-.05q.74-.14,1.41-.33a64,64,0,0,0,15.92-7.25c2.28-1.44,4.55-3.13,5.77-5.54,1.35-2.67,1.22-5.82,1.05-8.8,0-3.54-.5-22.34,1.06-25.51,1.28-2.62,3.51-41.08,5.57-43.14a70.11,70.11,0,0,0,13-18.94c3.21-6.5,5.81-13.35,8.76-20.3,6.47-15.23,15.57-28.79,23.16-43.45,2.65-5.12,7.59-12.91,7.57-19.11A23.16,23.16,0,0,1,460.14,155.42Z" transform="translate(0 -0.05)"/><path class="cls-4" d="M224.81,2.92a8.65,8.65,0,0,1-2.16.29,2.86,2.86,0,0,0-1.2.14,2.55,2.55,0,0,0-1,1.18c-7.68,13.63-26.16,9.86-38.07,17.09-7.74,4.69-12.82,12.76-20,18.28-5.3,4.09-11.58,6.67-17.55,9.7A122.23,122.23,0,0,0,126,61.43c-2.76,2.12-6.89,4.61-8.88,7.49-1.5,2.17-2,5.37-3,8.2-.38,1.07-10.53,3-11.8,3.46-5,1.71-9.83,3.69-14.6,5.87-16.71,7.64-30.45,21-48.12,25.87-3.8,1-7.78,1.82-11.08,4-5.67,3.72-8.31,10.85-13.84,14.76A20.14,20.14,0,0,1,3.3,134.45a3.73,3.73,0,0,0-2.56.62A3.35,3.35,0,0,0,0,137.59c0,12.59,4.71,13.47,14.9,17.35,9.93,3.79,15.69,14.21,24.63,20,16,10.3,39.36,4.1,54.11,16.15,4.25,3.47,7.31,8.14,10.73,12.44,6.45,8.12,14.7,15.26,24.67,18.11a47,47,0,0,0,15,1.47c3.89-.17,10.06-2.61,12.78,1.55,2.48,3.81-3.16,7.07,1.22,11.1a17.36,17.36,0,0,0,4,2.33c5.27,2.71,8.93,7.8,13.93,11,6.43,4.11,14.44,4.7,21.64,7.24,6.65,2.36,12.5,6.36,18.49,10,3.83,2.33,7.69,4.8,10.4,8.42,2.58,3.43,5.8,4.92,10,4.26,2-.31,3.21-.81,5.31-.53,6.17.8,9.28,1.17,14-3.39,1.42-1.39,3.4-2.81,4.38-4.53,1.2-2.13.65-4.69,1.52-6.91a17.23,17.23,0,0,1,5.82-7.71c6-4.23,12-8.77,18.24-12.8a161.89,161.89,0,0,1,42.6-19.48c4.16-1.2,8.56-2.36,11.65-5.39,2-2,3.29-4.6,5.43-6.43,4.15-3.56,10.26-3.23,15.7-2.7,4.66,4.69,12.05,2.12,17.18-2.06s8.36-10.21,12.93-15a36.19,36.19,0,0,1,16.9-10c2.83-.75,7.13-1.2,9.16-3.58s0-5.27,2.65-7.66c4.21-3.84,11.6-2.82,16.73-4.35a87.87,87.87,0,0,0,21.72-9.89c3.11-2,6.21-4.27,7.88-7.56,1.84-3.65,1.66-7.94,1.42-12L429.9,115.92c-5-2.82-10.22-5.73-13.87-10.21-3.89-4.78-5.7-10.93-9.26-16-12.81-18.08-41-14.75-59.46-27-6-4-10.8-9.59-16.75-13.68-7.63-5.25-16.7-7.69-25.8-8.77-2.48-.29-23.45.43-23-2.63.83-6.21-.69-11.49-5.39-16s-11.11-6.89-17.27-9.15c-5.05-1.86-11.3-3.2-15.15-6.62-3.7-3.3-6.18-6.92-12-5.58C229.46.9,227.21,2.31,224.81,2.92Z" transform="translate(0 -0.05)"/><path class="cls-3" d="M382.5,343.78a64,64,0,0,0,15.92-7.25c2.28-1.44,4.55-3.13,5.77-5.54a10,10,0,0,0,.87-2.73c.08-1.93.15-3.92.18-6.07,0-3.54-.5-22.34,1.06-25.51,1.28-2.62,3.51-41.08,5.57-43.14a70.11,70.11,0,0,0,13-18.94c3.21-6.5,5.81-13.35,8.76-20.3,6.47-15.23,15.57-28.79,23.16-43.45,2.65-5.12,7.59-12.91,7.57-19.11a27.48,27.48,0,0,1-6,4.83,87.87,87.87,0,0,1-21.72,9.89c-5.13,1.53-12.52.51-16.73,4.35-2.61,2.39-.52,5.17-2.65,7.66-.74.87-9.78,28.88-16.68,40.88-3.16,5.47-6.82,10.82-8.24,17-1,4.43-.82,9.07-1.69,13.53-1.43,7.39-5.67,50.31-9,57-6.43,12.84-7.37,25.75-9.68,39C375.11,344.38,379.37,344.71,382.5,343.78Z" transform="translate(0 -0.05)"/><path class="cls-5" d="M351,360.84l4.29-20c1.53-7.13,2.7-15.6-2.39-20.83-1.47-1.5-3.36-2.6-4.61-4.29a15.23,15.23,0,0,1-2.12-5.48c-1.94-8-3.76-53.42.37-60.56,2.62-4.51,7.34-7.66,9.36-12.48,1.46-3.49,1.3-7.41,1.46-11.19.24-5.69,2.72-11.42,3-17l.85.07c-5.44-.53-11.55-.86-15.7,2.7-2.14,1.83-3.43,4.46-5.43,6.43a13.9,13.9,0,0,1-3.13,2.27c-1.68,13-3.3,62.27-1.74,75.71,1.36,11.78,4.69,23.59,2.89,35.31-1.65,10.76-7.47,20.36-11.41,30.5a89.62,89.62,0,0,0-3.89,12.78,40.32,40.32,0,0,1,4.41.23c3.42,3.44,8.84,1.55,12.59-1.51s6.13-7.48,9.47-11c.57-.59,1.16-1.14,1.78-1.67Z" transform="translate(0 -0.05)"/><path class="cls-4" d="M372,345.86c2.31-13.21,3.25-26.12,9.68-39,3.36-6.73,7.6-49.65,9-57,.87-4.46.66-9.1,1.69-13.53,1.42-6.16,5.08-11.51,8.24-17,6.9-12,15.94-40,16.68-40.88-2,2.38-6.33,2.83-9.16,3.58a36.19,36.19,0,0,0-16.9,10c-4.57,4.79-7.81,10.82-12.93,15s-12.52,6.75-17.18,2.06l-.85-.07c-.23,5.53-2.71,11.26-3,17-.16,3.78,0,7.7-1.46,11.19-2,4.82-6.74,8-9.36,12.48-4.13,7.14-2.31,52.55-.37,60.56a15.23,15.23,0,0,0,2.12,5.48c1.25,1.69,3.14,2.79,4.61,4.29,5.09,5.23,3.92,13.7,2.39,20.83l-4.29,20a26.58,26.58,0,0,1,10.61-5.64c2.08-.54,5.22-.88,6.71-2.62s0-3.86,1.95-5.61a6.61,6.61,0,0,1,1.74-1.11Z" transform="translate(0 -0.05)"/><path class="cls-6" d="M322.73,374.78A89.62,89.62,0,0,1,326.62,362c3.94-10.14,9.76-19.74,11.41-30.5,1.8-11.72-1.53-23.53-2.89-35.31-1.56-13.44.06-62.69,1.74-75.71a40.93,40.93,0,0,1-8.52,3.12,161.89,161.89,0,0,0-42.6,19.48c-6.22,4-12.26,8.57-18.24,12.8a17,17,0,0,0-5.82,7.63c-.85,2.19-.35,4.7-1.47,6.8a31.79,31.79,0,0,0,4.36,13.14c4.83,7.57,13.74,49.45,15.3,58.29.78,4.44-.5,8.95-1.77,13.27l-5,16.95q-1.32,4.52-2.65,9-1.71,5.86-3.44,11.71-1.95,6.66-3.91,13.32c2.88-2.08,5.8-4.16,8.77-6.08a118.8,118.8,0,0,1,31.22-14.28c3-.88,6.27-1.73,8.53-3.95,1.47-1.44,2.41-3.37,4-4.71,1.94-1.67,4.48-2.16,7.09-2.21Z" transform="translate(0 -0.05)"/><path class="cls-4" d="M263.14,406q2-6.66,3.91-13.32,1.72-5.85,3.44-11.71,1.33-4.5,2.65-9l5-16.95c1.27-4.32,2.55-8.83,1.77-13.27-1.56-8.84-10.47-50.72-15.3-58.29a31.79,31.79,0,0,1-4.36-13.14l-.05.11c-1,1.72-3,3.15-4.38,4.53-4.69,4.57-7.8,7.83-14,7-2.1-.27-3.34-3.41-5.31-3.1-4.19.65-7.41-.84-10-4.27a22.3,22.3,0,0,0-3.42-3.58c-.49,2-1,3.89-1.52,5.6-.8,2.53-1.6,41.64-1.59,44.3,0,3.29,1.27,6.44,2.24,9.59A57.41,57.41,0,0,1,223.81,358a34.71,34.71,0,0,0-1,7.69c.2,5,4.15,10.05,9.11,9.84,2.41-.1,5.33-1.2,6.89.64,1.09,1.28.7,3.21.31,4.85a59.94,59.94,0,0,0-.08,27l-14.87-.08a12.74,12.74,0,0,1-2.36,9.54,23.76,23.76,0,0,1,6.74,5.62,7.17,7.17,0,0,0,7.32,3.12,11.72,11.72,0,0,1,3.89-.39c4.52.58,6.8.86,10.23-2.48a17.13,17.13,0,0,0,3.21-3.33c.88-1.55.48-3.43,1.12-5.06a12.53,12.53,0,0,1,4.26-5.64c1.53-1.08,3.06-2.19,4.6-3.3Z" transform="translate(0 -0.05)"/><path class="cls-3" d="M224.13,407.93,239,408a59.94,59.94,0,0,1,.08-27c.39-1.64.78-3.57-.31-4.85-1.56-1.84-4.48-.74-6.89-.64-5,.21-8.91-4.88-9.11-9.84a34.71,34.71,0,0,1,1-7.69,57.41,57.41,0,0,0-1.57-27.46c-1-3.15-2.23-6.3-2.24-9.59,0-2.66.79-41.77,1.59-44.3.53-1.71,1-3.61,1.52-5.6a51,51,0,0,0-7-4.83c-6-3.64-11.84-7.64-18.49-10-4.56-1.61-9.43-2.37-14-3.8,0,2.27-.05,41-.07,43.25a44.81,44.81,0,0,0,.53,9.12,61.3,61.3,0,0,0,3.22,9.52,81.73,81.73,0,0,1,4.6,39c-.6,4.7-1.58,9.6,0,14.06,1.32,3.66,4.22,6.49,6.43,9.69A29.23,29.23,0,0,1,203,398.41c-5-.19-11.19.49-14.25,3.83a24.28,24.28,0,0,0,2.7,2.05c4.71,3,10.58,3.44,15.86,5.31,4.87,1.73,9.16,4.65,13.55,7.32l.88.55A12.74,12.74,0,0,0,224.13,407.93Z" transform="translate(0 -0.05)"/><path class="cls-6" d="M203,398.41a29.23,29.23,0,0,0-4.69-21.33c-2.21-3.2-5.11-6-6.43-9.69-1.6-4.46-.62-9.36,0-14.06a81.73,81.73,0,0,0-4.6-39,61.3,61.3,0,0,1-3.22-9.52,44.81,44.81,0,0,1-.53-9.12c0-2.27,0-41,.07-43.25A31,31,0,0,1,176,249c-5-3.19-8.66-8.28-13.93-11a17.36,17.36,0,0,1-4-2.33,4.83,4.83,0,0,1-1.67-2.8l0,.09a27.51,27.51,0,0,0-.65,9.54c.92,16.59,3.72,69.52,8.34,85.48,3.25,11.26,7.42,22.37,8.58,34,.66,6.72.32,13.61,2.09,20.13.24.9.52,1.8.77,2.7a3.66,3.66,0,0,1,2,1.5c1.82,2.79-2.31,5.18.89,8.13a13,13,0,0,0,3,1.71c2.86,1.47,5.07,3.89,7.51,6C191.84,398.9,198,398.22,203,398.41Z" transform="translate(0 -0.05)"/><path class="cls-6" d="M175.46,384.9c-.25-.9-.53-1.8-.77-2.7-1.77-6.52-1.43-13.41-2.09-20.13-1.16-11.67-5.33-22.78-8.58-34-4.62-16-7.42-68.89-8.34-85.48a27.51,27.51,0,0,1,.65-9.54l0-.09a.29.29,0,0,1,0,.09.3.3,0,0,0,0-.1,4.25,4.25,0,0,1-.05-.79s0-.06,0-.09a5.56,5.56,0,0,1,.08-.7l.06-.29.12-.51c0-.11.06-.22.1-.33l.15-.48c.1-.34.21-.67.31-1h0a4.56,4.56,0,0,0-.33-4.09c-2.72-4.16-8.89-1.72-12.78-1.55a47,47,0,0,1-15-1.47c-10-2.85-18.22-10-24.67-18.11-1.88-2.37-3.66-4.84-5.59-7.18-1.23,17.53,8.39,45.86,11.46,54.64,2.89,8.27,6.32,52.83,8.32,61.36,2.59,11,2.75,22.67,6.77,33.28,2.32,6.15,5.9,11.91,7.85,18.13,2.12,2.21,3.89,4.78,5.81,7.2,4.73,5.94,10.77,11.18,18.08,13.27a34.43,34.43,0,0,0,11,1.07c2.21-.09,5.41-1.17,7.67-.25Z" transform="translate(0 -0.05)"/><path class="cls-7" d="M467.72,137.07c.09,3-.11,6.07-1.55,8.73-1.66,3.09-4.76,5.25-7.88,7.1a90.2,90.2,0,0,1-21.7,9.29c-5.12,1.43-12.51.48-16.72,4.08-2.61,2.24-.53,4.86-2.65,7.2s-6.33,2.65-9.15,3.35a36.85,36.85,0,0,0-16.9,9.37c-4.57,4.49-7.81,10.14-12.93,14.07s-12.51,6.34-17.17,1.94c-5.43-.5-11.54-.81-15.69,2.53-2.13,1.72-3.42,4.19-5.42,6-3.09,2.84-7.49,3.93-11.65,5.06a166.77,166.77,0,0,0-42.57,18.28c-6.23,3.78-12.26,8-18.24,12a16.33,16.33,0,0,0-5.82,7.23c-.86,2.09-.31,4.49-1.52,6.49-1,1.61-3,2.95-4.37,4.25-4.69,4.29-7.8,3.93-14,3.18-2.1-.25-3.34.22-5.31.5a10,10,0,0,1-10-4c-2.72-3.39-6.57-5.71-10.4-7.9-6-3.41-11.84-7.16-18.49-9.37-7.19-2.39-15.19-2.95-21.63-6.8-5-3-8.64-7.78-13.91-10.32a17.62,17.62,0,0,1-4-2.18,7,7,0,0,1-.61-.61c.14,3-3,5.8.57,9.12a17.36,17.36,0,0,0,4,2.33c5.27,2.71,8.93,7.8,13.93,11,6.43,4.11,14.44,4.7,21.64,7.24,6.65,2.36,12.5,6.36,18.49,10,3.83,2.33,7.69,4.8,10.4,8.42,2.58,3.43,5.8,4.92,10,4.26,2-.31,3.21-.81,5.31-.53,6.17.8,9.28,1.17,14-3.39,1.42-1.39,3.4-2.81,4.38-4.53,1.2-2.13.65-4.69,1.52-6.91a17.23,17.23,0,0,1,5.82-7.71c6-4.23,12-8.77,18.24-12.8a161.89,161.89,0,0,1,42.6-19.48c4.16-1.2,8.56-2.36,11.65-5.39,2-2,3.29-4.6,5.43-6.43,4.15-3.56,10.26-3.23,15.7-2.7,4.66,4.69,12.05,2.12,17.18-2.06s8.36-10.21,12.93-15a36.19,36.19,0,0,1,16.9-10c2.83-.75,7.13-1.2,9.16-3.58s0-5.27,2.65-7.66c4.21-3.84,11.6-2.82,16.73-4.35a87.87,87.87,0,0,0,21.72-9.89c3.11-2,6.21-4.27,7.88-7.56C468.12,145.39,468,141.13,467.72,137.07Z" transform="translate(0 -0.05)"/><path class="cls-7" d="M156.85,216.79c-2.72-3.91-8.89-1.62-12.78-1.46a50,50,0,0,1-15-1.38c-10-2.67-18.21-9.38-24.66-17-3.41-4-6.47-8.42-10.72-11.68C79,174,55.64,179.78,39.63,170.11c-8.94-5.4-14.69-15.17-24.62-18.73S.47,146.93.15,136.15A5.78,5.78,0,0,0,0,137.59c0,12.59,4.71,13.47,14.9,17.35,9.93,3.79,15.69,14.21,24.63,20,16,10.3,39.36,4.1,54.11,16.15,4.25,3.47,7.31,8.14,10.73,12.44,6.45,8.12,14.7,15.26,24.67,18.11a47,47,0,0,0,15,1.47c3.69-.16,9.43-2.35,12.33,1C156.3,221.59,158.61,219.32,156.85,216.79Z" transform="translate(0 -0.05)"/><path class="cls-3" d="M345.44,211.78l-.08.09h0Z" transform="translate(0 -0.05)"/><path class="cls-3" d="M338,374.72l-.07,0Z" transform="translate(0 -0.05)"/><path class="cls-3" d="M372.85,210.35c-4.12,1.75-8.55,1.92-11.71-1.27l-.85-.07c-.23,5.53-2.71,11.26-3,17-.16,3.78,0,7.7-1.46,11.19-2,4.82-6.74,8-9.36,12.48-4.13,7.14-2.31,52.55-.37,60.56a15.23,15.23,0,0,0,2.12,5.48c1.25,1.69,3.14,2.79,4.61,4.29,5.09,5.23,3.92,13.7,2.39,20.83l-4.29,20h0c-.62.53-1.21,1.08-1.78,1.67a26.82,26.82,0,0,1,5.26-4.23q2.48-12.57,5-25.14a31.28,31.28,0,0,0,.89-9.12c-.79-7.88-7.41-14.36-7.8-22.27s5.28-50.83,9.37-57.48C368.17,234,371.07,222.32,372.85,210.35Z" transform="translate(0 -0.05)"/><path class="cls-3" d="M172.6,362.07c-1.16-11.67-5.33-22.78-8.58-34-4.62-16-7.42-68.89-8.34-85.48a27.51,27.51,0,0,1,.65-9.54l0-.09a.29.29,0,0,1,0,.09.3.3,0,0,0,0-.1,4.25,4.25,0,0,1-.05-.79s0-.06,0-.09a5.56,5.56,0,0,1,.08-.7l.06-.29.12-.51c0-.11.06-.22.1-.33l.15-.48c.1-.34.21-.67.31-1h0a4.56,4.56,0,0,0-.33-4.09c-2.72-4.16-8.89-1.72-12.78-1.55a47,47,0,0,1-15-1.47c-.32-.09-.64-.2-.95-.3.69,5.5,2.12,11.22,2.77,16.18,1.36,10.34,2.76,57.27,6.83,66.86,3.54,8.34,9,15.79,12.14,24.3a48.3,48.3,0,0,1,.31,32.23c-1,2.92-2.31,5.77-2.84,8.82a31.19,31.19,0,0,0,.17,9.59,29.73,29.73,0,0,0,9.6,4.91,34.43,34.43,0,0,0,11,1.07c.95,0,2.08-.26,3.25-.43.88-2.09,1.78-4.18,2.62-6.29C173,373.13,173.14,367.55,172.6,362.07Z" transform="translate(0 -0.05)"/><path class="cls-5" d="M399.29,185.72c.57-.33,1.15-.65,1.74-.95C400.44,185.07,399.86,185.39,399.29,185.72Z" transform="translate(0 -0.05)"/><path class="cls-5" d="M401.82,184.39c.43-.2.85-.4,1.28-.58C402.67,184,402.25,184.19,401.82,184.39Z" transform="translate(0 -0.05)"/><path class="cls-5" d="M406,182.69c.71-.23,1.42-.45,2.14-.64C407.43,182.24,406.72,182.46,406,182.69Z" transform="translate(0 -0.05)"/><path class="cls-5" d="M403.91,183.47c.47-.19.93-.36,1.4-.53C404.84,183.11,404.38,183.28,403.91,183.47Z" transform="translate(0 -0.05)"/><path class="cls-5" d="M397.47,186.85l.75-.48Z" transform="translate(0 -0.05)"/><path class="cls-5" d="M420,170.81a4.3,4.3,0,0,0-.58.65l-.09.12a4.55,4.55,0,0,0-.38.67c-.9,2,.11,4.22-1.6,6.22-.74.87-9.78,28.88-16.68,40.88-3.16,5.47-6.82,10.82-8.24,17-.87,3.76-.86,7.66-1.36,11.48a11.69,11.69,0,0,1,1.72-2.72c1.59-1.85,3.83-3.07,5.33-5,2.72-3.48,2.44-8.34,3.33-12.68,2.34-11.41,12.78-19,19.33-28.67,3.06-4.48,8.89-18.51,11.12-31.43C427.59,167.8,423,168.07,420,170.81Z" transform="translate(0 -0.05)"/><path class="cls-5" d="M395.75,188.07l.61-.46Z" transform="translate(0 -0.05)"/><path class="cls-5" d="M174.69,382.2c-1.77-6.52-1.43-13.41-2.09-20.13-1.16-11.67-5.33-22.78-8.58-34-4.62-16-7.42-68.89-8.34-85.48a27.51,27.51,0,0,1,.65-9.54l0-.09a.29.29,0,0,1,0,.09.3.3,0,0,0,0-.1,4.25,4.25,0,0,1-.05-.79s0-.06,0-.09a5.56,5.56,0,0,1,.08-.7l.06-.29.12-.51c0-.11.06-.22.1-.33l.15-.48c.1-.34.21-.67.31-1h0a4.56,4.56,0,0,0-.33-4.09c-2.72-4.16-8.89-1.72-12.78-1.55q-1.69.08-3.39.06c.16,3.5.19,7,.19,10.55-.15,3.68-.48,7.41.27,11a39.47,39.47,0,0,0,3.34,8.66c9.39,19.94,16.67,77.32,21.67,98.78a71.59,71.59,0,0,1,2.33,15.91,40.41,40.41,0,0,1-3.84,17.22c1.15,0,2.31,0,3.45,0,2.21-.09,5.41-1.17,7.67-.25l-.26-.11C175.21,384,174.93,383.1,174.69,382.2Z" transform="translate(0 -0.05)"/><path class="cls-6" d="M264.83,355.85q-3.56-7.31-7.13-14.61c-2.67,1.08-3.66,4.41-3.49,7.28s1.15,5.69,1,8.56c-.36,6-5.64,11.61-3.73,17.3.48,1.41,1.39,2.7,1.56,4.19a9.45,9.45,0,0,1-1.15,4.57,58.74,58.74,0,0,0-4.46,17.72c-.53,5.85-.41,12.38-4.42,16.67-3.6,3.86-9.16,4.47-14.49,5.55h0a7.17,7.17,0,0,0,7.32,3.12,11.72,11.72,0,0,1,3.89-.39c4.52.58,6.8.86,10.23-2.48a17.13,17.13,0,0,0,3.21-3.33c.88-1.55.48-3.43,1.12-5.06a13,13,0,0,1,3.35-4.88c0-2.38.06-4.76.11-7.14a82.2,82.2,0,0,1,.73-11.31,101.27,101.27,0,0,1,3.21-12.55q2.31-7.92,4-16a11,11,0,0,0,.36-3.77A11.35,11.35,0,0,0,264.83,355.85Z" transform="translate(0 -0.05)"/><path class="cls-3" d="M322.07,238c-1.23,0-1.51,1.69-1.78,2.9-1,4.38-6.27,6.37-8.39,10.34-2.54,4.76.13,47.25-1.49,52.4s-7,8-11.05,11.63a29.16,29.16,0,0,0-9.54,18.45c-.74,6.79.92,13.8-.73,20.43-.88,3.57-2.68,6.83-4.15,10.2-4.33,9.93-5.72,20.78-6.44,31.66,3.36-1.88,6.82-3.59,10.35-5.13.36-2.12.71-4.24,1.07-6.36,1.51-9,3.81-19.14,11.75-23.6a49.87,49.87,0,0,1-.91-23.94c2.49.73,3.25,3.95,2.89,6.51s-1.4,5.16-.79,7.68,2.77,4.43,3.58,6.91a13.9,13.9,0,0,1,.19,5.75q-1.14,10.74-2.29,21.5c2.66-.78,5.36-1.67,7.32-3.6,1.47-1.44,2.41-3.37,4-4.71a8.57,8.57,0,0,1,3.68-1.8q2.1-9.58,3.81-19.24c.27-1.51.51-3.16-.25-4.5-.53-.9-1.45-1.53-1.94-2.45-.71-1.35-.34-3,0-4.47,2.63-11.56,1.65-22.41-.36-33.92-.75-4.25.57-6.09,1.09-10,.69-5.25-1.32-44.51,1.46-49.53A12.12,12.12,0,0,0,322.07,238Z" transform="translate(0 -0.05)"/><path class="cls-5" d="M213,277.52a48.21,48.21,0,0,0,2.58-11.65c-5.8-3.55-11.5-7.38-18-9.66-2.83-1-5.77-1.63-8.69-2.36-.08,5.4,2.28,48.7,3.63,52.42a77,77,0,0,1,2.64,7.47c-8.19-32.17-.25-29.89,1.05,10q.42,12.62.83,25.23c.25,7.76,1,16.5,6.89,21.51,2.1-.31,2-3.34,1.52-5.4a64.38,64.38,0,0,1,3.07-40.93C210,320.73,211.74,281,213,277.52Z" transform="translate(0 -0.05)"/><path class="cls-6" d="M95.59,338.74c-3.61-2.59-5.54-6.69-9.06-9.24a130.39,130.39,0,0,1-13.68-10.7,6,6,0,0,1-1.29-1.52,6.49,6.49,0,0,1-.39-3.45A57,57,0,0,0,70,298.47,4,4,0,0,1,70,296a3.75,3.75,0,0,1,1.72-1.57c1.25-.71,2.53-37.81,3.83-38.41a7.22,7.22,0,0,0,3.6-9.26c-4.25-10.66-10.32-20.54-13.58-31.4a10,10,0,0,0-2.17-4.5,9.41,9.41,0,0,0-4.43-2c-3.47-.86-7-1.59-10.43-2.58-10-2.87-8.53-28.2-8.72-30.8,0-.16,0-.32,0-.48l0,0-.26-.15c-8.94-5.75-14.7-16.17-24.63-20l-2.63-1a115.33,115.33,0,0,0,6.36,21.21c5.29,13,13,25.76,22.91,35.7a12.36,12.36,0,0,0,3.35,2.77c2.71,1.34,6.06.69,8.79,2,3.31,1.55,4.77,5.37,5.93,8.82l4.89,14.63a12.21,12.21,0,0,1,.91,4.67c-.21,2.85-2.38,5.23-2.84,8.05-.3,1.82.13,40.1.39,41.92a32.66,32.66,0,0,1,.21,6.32c1.75-.19-1.31,16.18-1.24,17A11.21,11.21,0,0,0,63,320.86a2.51,2.51,0,0,0-.48,1.77c0,9.22,3.45,9.86,10.91,12.71,7.28,2.78,11.5,10.41,18,14.62,7.62,4.9,17.47,4.72,26.42,6.39A22.68,22.68,0,0,0,118,354C114.24,343.48,103.79,344.62,95.59,338.74Z" transform="translate(0 -0.05)"/><path class="cls-5" d="M118.56,312.31c-2-8.53-5.43-53.09-8.32-61.36-3.07-8.78-12.69-37.11-11.46-54.64a35.94,35.94,0,0,0-5.14-5.26A33.16,33.16,0,0,0,82,185.12c4,15.33,9.48,30.64,13.69,45.63A111.76,111.76,0,0,0,101,246.66c2.37,5.27,5.55,46.59,8.18,51.74A163.73,163.73,0,0,1,117.47,319l4.31,12.3C120.73,325,120,318.56,118.56,312.31Z" transform="translate(0 -0.05)"/><path class="cls-7" d="M65.38,240.34c-1.74-5.2-3.1-11.51-4.84-16.71-1.24-3.69-2.8-7.76-6.32-9.41-2.92-1.36-4-.72-6.88-2.15A62.15,62.15,0,0,1,39,206.3c-8.1-13-13.8-21.74-18.9-39.22-1.14-3.92-3.18-7.4-3.63-11.47L11,153.47c1.27,8.18,7,13.47,7.63,21.69.56,6.75,13,25.76,22.91,35.7a12.36,12.36,0,0,0,3.35,2.77c2.71,1.34,6.06.69,8.79,2,3.31,1.55,4.77,5.37,5.93,8.82l4.89,14.63a12.21,12.21,0,0,1,.91,4.67C65.53,242,65.93,242,65.38,240.34Z" transform="translate(0 -0.05)"/><path class="cls-8" d="M303.13,385.65c3-.88,6.27-1.73,8.53-3.95,1.47-1.44,2.41-3.37,4-4.71,3-2.61,7.52-2.36,11.5-2,3.42,3.44,8.84,1.55,12.59-1.51s6.13-7.48,9.47-11a26.71,26.71,0,0,1,12.39-7.31c2.08-.54,5.22-.88,6.71-2.62s0-3.86,1.95-5.61a6.61,6.61,0,0,1,1.74-1.11c2.58-1.22,5.93-1.22,8.78-1.7l.32-.05q.74-.14,1.41-.33a64,64,0,0,0,15.92-7.25c2.28-1.44,4.55-3.13,5.77-5.54,1.35-2.67,1.22-5.82,1.05-8.8,0-2.67-.27-14,.25-20.81-6.34,1.77-15.56,3.2-20.79-.53-5.39,13.06-16.58,14-29.35,15l-14,1.1a64.72,64.72,0,0,1-10,14.81,12.47,12.47,0,0,1-5,3.81c-2.47.81-5.15.15-7.75.18-9.54.11-16.24,9-24.22,14.2s-18.06,6.94-26.64,11.42c-6.85,3.58-12.66,8.87-19.29,12.86s-14.75,6.65-22.09,4.22c-11.55-3.82-17.28-18.69-29.22-21-6.1-1.18-12.56,1.32-18.54-.33-9.3-2.57-13.52-13.76-22.1-18.16-6.46-3.32-14.17-2.24-21.42-2.7s-15.59-3.83-17-11c-5.59-28.35-44.61-73.7-73.17-78l-.66-.09c1.54,4.48,3.26,45.86,2.44,50.14a24.28,24.28,0,0,1,9.21,6.1A19.63,19.63,0,0,1,63.14,300c1.83-.44-1.28,16.18-1.21,17A11.21,11.21,0,0,0,63,320.86a2.51,2.51,0,0,0-.48,1.77c0,9.22,3.45,9.86,10.91,12.71,7.28,2.78,11.5,10.41,18,14.62,11.74,7.56,28.84,3,39.65,11.84,3.12,2.54,5.36,6,7.86,9.12,4.73,5.94,10.77,11.18,18.08,13.27a34.43,34.43,0,0,0,11,1.07c2.85-.12,7.38-1.91,9.37,1.14,1.82,2.79-2.31,5.18.89,8.13a13,13,0,0,0,3,1.71c3.87,2,6.55,5.71,10.21,8.05,4.71,3,10.58,3.44,15.86,5.31,4.87,1.73,9.16,4.65,13.55,7.32,2.8,1.7,5.63,3.52,7.62,6.17a7.17,7.17,0,0,0,7.32,3.12,11.72,11.72,0,0,1,3.89-.39c4.52.58,6.8.86,10.23-2.48a17.13,17.13,0,0,0,3.21-3.33c.88-1.55.48-3.43,1.12-5.06a12.53,12.53,0,0,1,4.26-5.64c4.38-3.1,8.81-6.44,13.37-9.38A118.8,118.8,0,0,1,303.13,385.65Z" transform="translate(0 -0.05)"/><g class="cls-9"><path class="cls-6" d="M164.92,328.87c-3-14.22-5.6-66.17-3.75-78.22.52-3.34-1.43-8.24-1.37-11.62q0-1,.06-2.07a8.19,8.19,0,0,1-1.83-1.24,4.83,4.83,0,0,1-1.67-2.8l0,.09a27.51,27.51,0,0,0-.65,9.54c.92,16.59,3.72,69.52,8.34,85.48.88,3.05,1.83,6.09,2.76,9.14C166.15,334.4,165.51,331.64,164.92,328.87Z" transform="translate(0 -0.05)"/></g><path class="cls-7" d="M408.15,182.05l-.54.16c.06,5.2.15,10.52-2.51,14.18-1.38,1.89-3.77,2.73-5.52,4.29-2.46,2.18,1.41,6.4.58,9.58-2.2,8.46-8.89,16.17-10,24.85a149.82,149.82,0,0,0-1.06,20.2,34,34,0,0,0,1.56-5.45c.87-4.46.66-9.1,1.69-13.53,1.42-6.16,5.08-11.51,8.24-17,6.9-12,15.94-40,16.68-40.88C415.28,180.85,411,181.3,408.15,182.05Z" transform="translate(0 -0.05)"/><polygon class="cls-10" points="367.96 285.71 334.51 265.65 310.21 280.36 310.21 318.72 367.96 285.71"/><polygon class="cls-11" points="368.96 286.06 367.81 246.03 336.56 266.81 368.96 286.06"/><g class="cls-2"><polygon class="cls-12" points="365.54 294.89 358.51 290.81 358.4 252.46 365.43 256.54 365.54 294.89"/><polygon class="cls-12" points="307.19 334.44 300.17 330.36 300.02 280.29 307.05 284.37 307.19 334.44"/><polygon class="cls-13" points="314.91 324.11 307.89 320.03 358.51 290.81 365.54 294.89 314.91 324.11"/><polygon class="cls-13" points="307.05 284.37 300.02 280.29 366.13 242.13 373.15 246.21 307.05 284.37"/><path class="cls-14" d="M307.05,284.42l66.1-38.17.14,50.08-66.1,38.16Zm58.49,10.51-.11-38.35-50.62,29.23.1,38.35,50.63-29.23" transform="translate(0 -0.05)"/></g><g class="cls-15"><polygon class="cls-16" points="456.2 73.55 473.68 88.41 388.52 121.93 329.27 172.79 241.66 207.27 182.42 258.13 92.35 293.58 74.87 278.72 160.03 245.21 219.27 194.34 306.88 159.86 366.13 109 456.2 73.55"/><g class="cls-2"><polygon class="cls-6" points="464.65 55.74 464.6 72.04 379.44 105.55 379.49 89.25 464.65 55.74"/><polygon class="cls-6" points="379.49 89.25 379.44 105.55 320.2 156.42 320.25 140.12 379.49 89.25"/><polygon class="cls-6" points="320.25 140.12 320.2 156.42 232.58 190.9 232.63 174.6 320.25 140.12"/><polygon class="cls-6" points="232.63 174.6 232.58 190.9 173.35 241.76 173.4 225.46 232.63 174.6"/><polygon class="cls-6" points="173.4 225.46 173.35 241.76 83.27 277.21 83.32 260.9 173.4 225.46"/><polygon class="cls-17" points="83.32 260.9 83.27 277.21 65.8 262.34 65.84 246.04 83.32 260.9"/><polygon class="cls-4" points="447.18 40.87 464.65 55.74 379.49 89.25 320.25 140.12 232.63 174.6 173.4 225.46 83.32 260.9 65.84 246.04 151 212.53 210.24 161.67 297.85 127.19 357.1 76.32 447.18 40.87"/></g></g><polyline class="cls-16" points="169.58 243.72 169.58 434.43 186.98 451.83 188.95 253.81"/></g></g></g></svg>