<svg xmlns="http://www.w3.org/2000/svg" xmlns:xlink="http://www.w3.org/1999/xlink" viewBox="0 0 332.5 258.85"><defs><style>.cls-1{fill:none;}.cls-2{fill:#cbddd6;}.cls-3{isolation:isolate;}.cls-4{fill:#d5e8e1;}.cls-5{fill:url(#Безымянный_градиент_16);}.cls-6{fill:#bfbfbf;}.cls-7{opacity:0.37;}.cls-8{fill:#7dadc9;}.cls-9{opacity:0.79;}.cls-10{opacity:0.32;}.cls-11{opacity:0.43;}.cls-12{opacity:0.22;}.cls-13{fill:#a1c9b7;}.cls-14{opacity:0.34;}.cls-15{fill:#79b0f7;}.cls-16{fill:#b7bab8;}.cls-17{fill:url(#Безымянный_градиент_21);}.cls-18{fill:url(#Безымянный_градиент_21-2);}.cls-19{fill:url(#Безымянный_градиент_21-3);}.cls-20{fill:url(#Безымянный_градиент_21-4);}.cls-21{fill:#50b57f;}.cls-22{fill:url(#Безымянный_градиент_16-2);}.cls-23{fill:url(#Безымянный_градиент_16-3);}.cls-24{fill:#e5e3ff;}.cls-25{fill:url(#Безымянный_градиент_16-4);}.cls-26{fill:#dfe3f2;}.cls-27{clip-path:url(#clip-path);}.cls-28{clip-path:url(#clip-path-2);}.cls-29{fill:#65c274;}.cls-30{fill:#8fc9b2;}.cls-31{clip-path:url(#clip-path-3);}.cls-32{fill:#84e393;}.cls-33{fill:#5dd971;}.cls-34{fill:#7cc2a6;}.cls-35{clip-path:url(#clip-path-5);}.cls-36{fill:url(#Безымянный_градиент_1427);}.cls-37{fill:url(#Безымянный_градиент_24);}.cls-38{fill:#fcfdff;}.cls-39{fill:url(#Безымянный_градиент_24-2);}.cls-40{fill:url(#Безымянный_градиент_24-3);}.cls-41{fill:url(#Безымянный_градиент_24-4);}.cls-42{fill:url(#Безымянный_градиент_24-5);}.cls-43{fill:#e2f7ef;}.cls-44{fill:url(#Безымянный_градиент_24-6);}.cls-45{fill:url(#Безымянный_градиент_24-7);}.cls-46{clip-path:url(#clip-path-8);}.cls-47{fill:#b0bbff;mix-blend-mode:multiply;}.cls-48{fill:url(#Безымянный_градиент_213);}.cls-49{fill:url(#Безымянный_градиент_213-2);}.cls-50{fill:#663631;}.cls-51{fill:#e3bbdf;}.cls-52{fill:#5ca0f2;}.cls-53{fill:#bfd8ff;}.cls-54{fill:#8cb6fa;}.cls-55{fill:#006ac7;}.cls-56{fill:#3382d6;}.cls-57{fill:#dddfe8;}.cls-58{fill:#4b6bcf;}.cls-59{fill:url(#Безымянный_градиент_213-3);}.cls-60{fill:#c5ded4;}.cls-61{fill:#f2fcf7;}.cls-62{fill:#1a41b8;}.cls-63{fill:#352c75;}.cls-64{fill:url(#Безымянный_градиент_16-5);}.cls-65{fill:url(#Безымянный_градиент_16-6);}.cls-66{fill:#9cb6ff;}.cls-67{fill:url(#Безымянный_градиент_21-5);}.cls-68{fill:url(#Безымянный_градиент_21-6);}.cls-69{fill:url(#Безымянный_градиент_21-7);}.cls-70{fill:url(#Безымянный_градиент_21-8);}.cls-71{fill:url(#Безымянный_градиент_16-7);}.cls-72{fill:url(#Безымянный_градиент_16-8);}.cls-73{fill:url(#Безымянный_градиент_16-9);}</style><linearGradient id="Безымянный_градиент_16" x1="1118.81" y1="67.85" x2="1099.28" y2="97.41" gradientTransform="matrix(-1, 0, 0, 1, 1262.66, 0)" gradientUnits="userSpaceOnUse"><stop offset="0" stop-color="#becbf7"/><stop offset="0.37" stop-color="#d9e2fd"/><stop offset="0.46" stop-color="#e0e9ff"/><stop offset="0.57" stop-color="#d1defe"/><stop offset="0.99" stop-color="#99b3fa"/></linearGradient><linearGradient id="Безымянный_градиент_21" x1="1112.95" y1="75.34" x2="1121.72" y2="75.34" gradientTransform="matrix(-1, 0, 0, 1, 1262.66, 0)" gradientUnits="userSpaceOnUse"><stop offset="0" stop-color="#dbddff"/><stop offset="1" stop-color="#abbcff"/></linearGradient><linearGradient id="Безымянный_градиент_21-2" x1="1103.94" y1="88.01" x2="1112.71" y2="88.01" xlink:href="#Безымянный_градиент_21"/><linearGradient id="Безымянный_градиент_21-3" x1="1112.59" y1="85.01" x2="1119.94" y2="85.01" xlink:href="#Безымянный_градиент_21"/><linearGradient id="Безымянный_градиент_21-4" x1="1105.98" y1="78.22" x2="1113.34" y2="78.22" xlink:href="#Безымянный_градиент_21"/><linearGradient id="Безымянный_градиент_16-2" x1="1113.81" y1="79.17" x2="1111.16" y2="83.48" xlink:href="#Безымянный_градиент_16"/><linearGradient id="Безымянный_градиент_16-3" x1="1114.66" y1="79.7" x2="1112.01" y2="84.01" xlink:href="#Безымянный_градиент_16"/><linearGradient id="Безымянный_градиент_16-4" x1="1113.39" y1="64.27" x2="1093.86" y2="93.83" xlink:href="#Безымянный_градиент_16"/><clipPath id="clip-path"><polygon class="cls-1" points="136.66 194.88 123.49 214.3 73.38 243.23 57.85 245.54 57.85 230.26 167.31 167.07 163.12 172.54 136.66 194.88"/></clipPath><clipPath id="clip-path-2"><polygon class="cls-2" points="136.66 194.88 123.49 214.3 73.38 243.23 57.85 245.54 57.85 230.26 167.31 167.07 163.12 172.54 136.66 194.88"/></clipPath><clipPath id="clip-path-3"><path class="cls-1" d="M81.91,231.45,56.79,245.94V233.45L79,220.65c2.63-1.52,4.76-.29,4.76,2.75v4.89A4.07,4.07,0,0,1,81.91,231.45Z"/></clipPath><clipPath id="clip-path-5"><polygon class="cls-1" points="157.83 207.17 144.66 226.59 94.55 255.52 79.02 257.83 79.02 242.56 188.47 179.37 184.29 184.84 157.83 207.17"/></clipPath><linearGradient id="Безымянный_градиент_1427" x1="79.02" y1="218.6" x2="188.47" y2="218.6" gradientUnits="userSpaceOnUse"><stop offset="0" stop-color="#becbf7"/><stop offset="1" stop-color="#8ea5ff"/></linearGradient><linearGradient id="Безымянный_градиент_24" x1="145.48" y1="211.14" x2="150.07" y2="211.14" gradientUnits="userSpaceOnUse"><stop offset="0.01" stop-color="#1500ab"/><stop offset="0.91" stop-color="#00098c"/></linearGradient><linearGradient id="Безымянный_градиент_24-2" x1="135.86" y1="216.7" x2="140.45" y2="216.7" xlink:href="#Безымянный_градиент_24"/><linearGradient id="Безымянный_градиент_24-3" x1="126.25" y1="222.25" x2="130.83" y2="222.25" xlink:href="#Безымянный_градиент_24"/><linearGradient id="Безымянный_градиент_24-4" x1="116.63" y1="227.8" x2="121.22" y2="227.8" xlink:href="#Безымянный_градиент_24"/><linearGradient id="Безымянный_градиент_24-5" x1="107.02" y1="233.35" x2="111.6" y2="233.35" xlink:href="#Безымянный_градиент_24"/><linearGradient id="Безымянный_градиент_24-6" x1="65.86" y1="241.71" x2="80.87" y2="262.24" xlink:href="#Безымянный_градиент_24"/><linearGradient id="Безымянный_градиент_24-7" x1="96.16" y1="232.83" x2="85.21" y2="257.52" xlink:href="#Безымянный_градиент_24"/><clipPath id="clip-path-8"><path class="cls-1" d="M167.3,167.07,73.37,221.3l-8.14-4.7-3.43,6,4.71,2.72-5.11,2.95-1.72-1-.63,1.08,1.1.63-2.3,1.33v.37l-.48-.28L56,232.74l.66.38-.22.12L58,245.63h0L78,257.21v1l.89-.51.17.1h0l15.52-2.31,50.11-28.93,13.17-19.42,26.46-22.33,4.18-5.47ZM79,242.86h0v0Zm0,2.28v-.41h0l0-1.44h0v1.85Z"/></clipPath><linearGradient id="Безымянный_градиент_213" x1="263.99" y1="107.01" x2="289.72" y2="107.01" gradientUnits="userSpaceOnUse"><stop offset="0.42" stop-color="#b5daff"/><stop offset="1" stop-color="#73b0ff"/></linearGradient><linearGradient id="Безымянный_градиент_213-2" x1="231.14" y1="33.09" x2="270.97" y2="33.09" xlink:href="#Безымянный_градиент_213"/><linearGradient id="Безымянный_градиент_213-3" x1="274.08" y1="70.87" x2="332.5" y2="70.87" xlink:href="#Безымянный_градиент_213"/><linearGradient id="Безымянный_градиент_16-5" x1="1024.45" y1="124.32" x2="1027.95" y2="130.05" xlink:href="#Безымянный_градиент_16"/><linearGradient id="Безымянный_градиент_16-6" x1="1020.91" y1="124.51" x2="1001.38" y2="154.08" xlink:href="#Безымянный_градиент_16"/><linearGradient id="Безымянный_градиент_21-5" x1="1015.05" y1="132" x2="1023.82" y2="132" xlink:href="#Безымянный_градиент_21"/><linearGradient id="Безымянный_градиент_21-6" x1="1006.04" y1="144.68" x2="1014.81" y2="144.68" xlink:href="#Безымянный_градиент_21"/><linearGradient id="Безымянный_градиент_21-7" x1="1014.69" y1="141.67" x2="1022.05" y2="141.67" xlink:href="#Безымянный_градиент_21"/><linearGradient id="Безымянный_градиент_21-8" x1="1008.08" y1="134.89" x2="1015.44" y2="134.89" xlink:href="#Безымянный_градиент_21"/><linearGradient id="Безымянный_градиент_16-7" x1="1015.91" y1="135.84" x2="1013.26" y2="140.15" xlink:href="#Безымянный_градиент_16"/><linearGradient id="Безымянный_градиент_16-8" x1="1016.76" y1="136.36" x2="1014.11" y2="140.67" xlink:href="#Безымянный_градиент_16"/><linearGradient id="Безымянный_градиент_16-9" x1="1015.49" y1="120.93" x2="995.96" y2="150.5" xlink:href="#Безымянный_градиент_16"/></defs><title>zeppelin_01</title><g class="cls-3"><g id="Layer_2" data-name="Layer 2"><g id="Layer_1-2" data-name="Layer 1"><path class="cls-4" d="M139.17,72.3c0,1.16.82,1.63,1.82,1a4,4,0,0,0,1.82-3.14c0-1.16-.82-1.63-1.82-1A4,4,0,0,0,139.17,72.3Z"/><path class="cls-5" d="M137,75.76c0,7.55,5.32,16.77,11.86,20.54,3.31,1.92,6.31,2.07,8.46.78l.16-.09.15-.08.15-.09.15-.09.16-.09.15-.09.15-.08.15-.09.16-.09.15-.09.15-.09.16-.09.15-.08.15-.09.15-.09.16-.09.15-.09.15-.08.15-.09.16-.09.15-.09.15-.09a1.19,1.19,0,0,0,.15-.09L161,95l.15-.09.15-.09.15-.09.16-.09.15-.08.15-.09.15-.09.16-.09.15-.09.15-.08.15-.09.16-.09.15-.09.15-.09.15-.09a.8.8,0,0,0,.16-.08l.15-.09.15-.09.16-.09.15-.09c2.19-1.22,3.55-3.89,3.55-7.71,0-7.55-5.32-16.77-11.86-20.54-3.31-1.91-6.31-2.07-8.46-.78l-.15.09-.15.08-.16.09-.15.09-.15.09-.15.09a.83.83,0,0,0-.16.09l-.15.08-.15.09-.15.09-.16.09-.15.09-.15.08-.15.09-.16.09-.15.09-.15.09-.16.08-.15.09-.15.09-.15.09-.16.09-.15.09-.15.08-.15.09-.16.09-.15.09-.15.09-.15.08-.16.09-.15.09-.15.09-.15.09-.16.08-.15.09-.15.09-.15.09-.16.09-.15.09-.15.08-.15.09-.16.09-.15.09-.15.09C138.36,69.27,137,71.94,137,75.76Zm22,16.5a10.81,10.81,0,0,1-3.29-1.3c-5.88-3.39-10.67-11.68-10.67-18.48a10.86,10.86,0,0,1,.52-3.49,11,11,0,0,1,3.28,1.3c5.89,3.39,10.68,11.68,10.68,18.48A11.14,11.14,0,0,1,159,92.26Z"/><path class="cls-6" d="M149.47,80.87c-.4-.38-4.85-4.2-6.94-8.12s-.56-4.82.78-3.93,7,11.18,7,11.18Z"/><path class="cls-6" d="M151.24,81.25c.4.38,4.84,4.2,6.94,8.11s.56,4.83-.79,3.93-6.95-11.17-6.95-11.17Z"/><path class="cls-6" d="M150.63,82.24c-.13.39-1.21,4.89-3.56,6s-3.9-1.6-3.79-3.1,6.2-4.45,6.2-4.45Z"/><path class="cls-6" d="M150.08,79.88c.12-.39,1.21-4.9,3.55-6s3.9,1.6,3.8,3.1-6.2,4.45-6.2,4.45Z"/><g class="cls-7"><path class="cls-8" d="M150.36,82.09c-.24.25-2.67,3.33-5.55,3.12s-3.88-3-3.36-4.18,8.07-.72,8.07-.72Z"/></g><g class="cls-9"><g class="cls-10"><path class="cls-8" d="M149.82,81.61a14.91,14.91,0,0,1-7.63-2.56c-3.1-2.37-2.89-4.76-1.78-5s9.31,5.88,9.31,5.88Z"/></g><g class="cls-11"><path class="cls-8" d="M151.12,81.59c.3.51,3.79,5.94,4.62,9.92s-1.24,3.61-2.39,2.13-3.46-12-3.46-12Z"/></g><g class="cls-11"><path class="cls-8" d="M150.83,82c.06.51,1,6.23-.16,8.91s-3.26.67-3.75-1.07S149.44,81,149.44,81Z"/></g><g class="cls-12"><path class="cls-13" d="M150.55,80.1c.3-.17,3.39-2.27,6.45-1.32s3.69,3.73,2.95,4.61-8.78-1.48-8.78-1.48Z"/></g><g class="cls-10"><path class="cls-8" d="M149.42,80.51c-.33-.48-4.19-5.55-5.43-9.6s.72-4.06,2-2.73,4.59,12,4.59,12Z"/></g><g class="cls-14"><path class="cls-8" d="M149.48,80.14c-.1-.56-1.36-6.63-.48-9.83s2.88-1.45,3.44.36S150.79,81,150.79,81Z"/><path class="cls-8" d="M150.93,80.59a18,18,0,0,1,7.77,3.7c3,2.75,2.55,4.94,1.35,5s-9.19-7.1-9.19-7.1Z"/></g></g><path class="cls-15" d="M158.25,89.49c-2.05-3.82-6.32-7.55-6.9-8.08.85-.42,6-3,6.08-4.39s-1.45-4.17-3.8-3.1c-2.17,1-3.26,4.92-3.51,5.81-.9-1.64-5.59-10.09-6.81-10.91s-2.88,0-.78,3.93c1.94,3.63,5.9,7.18,6.79,8-1,.48-5.95,3-6,4.37-.11,1.5,1.45,4.17,3.79,3.1,2.18-1,3.27-4.94,3.52-5.81.69,1.25,5.62,10.19,6.87,11S160.35,93.4,158.25,89.49Zm-7-8-.65.7-1-1.4.65-.7Z"/><path class="cls-16" d="M150.75,81.83c.4.38,4.84,4.2,6.94,8.12s.56,4.82-.79,3.92-7-11.17-7-11.17Z"/><path class="cls-16" d="M150.07,82.7c-.12.39-1.21,4.89-3.55,6s-3.9-1.6-3.8-3.1,6.2-4.45,6.2-4.45Z"/><path class="cls-16" d="M149.32,80.34c.13-.39,1.21-4.9,3.56-6s3.9,1.6,3.79,3.1-6.2,4.45-6.2,4.45Z"/><path class="cls-17" d="M148.91,81.52c-.4-.38-4.84-4.2-6.94-8.11s-.56-4.83.79-3.93,7,11.17,7,11.17Z"/><path class="cls-18" d="M150.75,81.83c.4.38,4.84,4.2,6.94,8.12s.56,4.82-.79,3.92-7-11.17-7-11.17Z"/><path class="cls-19" d="M150.07,82.7c-.12.39-1.21,4.89-3.55,6s-3.9-1.6-3.8-3.1,6.2-4.45,6.2-4.45Z"/><path class="cls-20" d="M149.32,80.53c.13-.39,1.21-4.89,3.56-6s3.9,1.6,3.79,3.1-6.2,4.45-6.2,4.45Z"/><path class="cls-21" d="M152,81.81c0,1-.74,1.48-1.65,1a3.63,3.63,0,0,1-1.65-2.85c0-1,.74-1.48,1.65-1A3.63,3.63,0,0,1,152,81.81Z"/><path class="cls-22" d="M152.09,82.28c0,1.31-.92,1.84-2.06,1.19A4.55,4.55,0,0,1,148,79.9c0-1.31.92-1.84,2.06-1.19A4.56,4.56,0,0,1,152.09,82.28Z"/><path class="cls-23" d="M149.73,79.64l-1.27-1a4.56,4.56,0,0,0-1.78,2.5L148.63,84a5,5,0,0,0,2.78-.39C152.8,82.39,149.73,79.64,149.73,79.64Z"/><path class="cls-24" d="M149.48,83c0,.9-.63,1.26-1.41.82a3.13,3.13,0,0,1-1.4-2.44c0-.9.63-1.26,1.4-.81A3.09,3.09,0,0,1,149.48,83Z"/><path class="cls-25" d="M159.53,88.77c0-6.8-4.79-15.09-10.68-18.48A11.08,11.08,0,0,0,145.71,69a12.38,12.38,0,0,0-2.49-2.52l.07,0,.16-.09.15-.09.15-.08.15-.09.16-.09.15-.09.15-.09.15-.09.16-.08.15-.09.15-.09.16-.09.15-.09.15-.08.15-.09.16-.09.15-.09.15-.09.15-.08a.83.83,0,0,1,.16-.09l.15-.09.15-.09.15-.09.16-.09.15-.08.15-.09c2.15-1.29,5.15-1.13,8.46.78,6.54,3.77,11.86,13,11.86,20.54,0,3.82-1.36,6.49-3.55,7.71l-.15.09-.16.09-.15.09-.15.09a.8.8,0,0,1-.16.08l-.15.09-.15.09-.15.09-.16.09-.15.09-.15.08-.15.09-.16.09-.15.09-.15.09-.15.08-.16.09-.15.09-.15.09L161,95l-.11-.13a27.31,27.31,0,0,1-1.81-2.8A11,11,0,0,0,159.53,88.77Z"/><path class="cls-24" d="M137,75.76c0-7.55,5.32-10.62,11.86-6.85s11.87,13,11.87,20.55-5.33,10.62-11.87,6.84S137,83.31,137,75.76Zm1.19.69c0,6.79,4.79,15.08,10.67,18.48s10.68.63,10.68-6.16-4.79-15.09-10.68-18.48S138.18,69.65,138.18,76.45Z"/><polygon class="cls-26" points="57.8 233.83 78.99 246.13 79.03 257.83 57.85 245.52 57.8 233.83"/><polygon class="cls-2" points="136.66 194.88 123.49 214.3 73.38 243.23 57.85 245.54 57.85 230.26 167.31 167.07 163.12 172.54 136.66 194.88"/><g class="cls-28"><path class="cls-29" d="M81.91,231.45,56.79,245.94V233.45L79,220.65c2.63-1.52,4.76-.29,4.76,2.75v4.89A4.07,4.07,0,0,1,81.91,231.45Z"/><path class="cls-30" d="M56.44,233.24l22.53-13c2.82-1.63,5.11-.3,5.11,2.95v4.89a4.8,4.8,0,0,1-2.17,3.77L56.44,246.56Zm.71.41v11.68L81.91,231a3.26,3.26,0,0,0,1.47-2.55V223.6c0-2.81-2-3.95-4.41-2.54Z"/><g class="cls-31"><rect class="cls-32" x="70.84" y="213.36" width="6.86" height="24.85" transform="translate(306.95 274.36) rotate(120)"/><rect class="cls-32" x="70.69" y="220.87" width="1.25" height="27.59" transform="translate(310.19 290.24) rotate(120)"/><rect class="cls-32" x="66.23" y="225.25" width="2.74" height="25.21" transform="translate(307.38 298.24) rotate(120)"/></g></g><path class="cls-33" d="M124.31,200.17c0,1.47,1,2.06,2.29,1.33a5.06,5.06,0,0,0,2.3-4c0-1.47-1-2.06-2.3-1.33A5.08,5.08,0,0,0,124.31,200.17Z"/><path class="cls-34" d="M124.13,200.28A5.45,5.45,0,0,1,126.6,196c1.36-.79,2.47-.15,2.47,1.42a5.45,5.45,0,0,1-2.47,4.28C125.24,202.49,124.13,201.85,124.13,200.28Zm.36-.21c0,1.35.94,1.9,2.11,1.22a4.66,4.66,0,0,0,2.12-3.66c0-1.35-1-1.9-2.12-1.22A4.65,4.65,0,0,0,124.49,200.07Z"/><path class="cls-33" d="M114.69,205.73c0,1.46,1,2.05,2.3,1.32a5.08,5.08,0,0,0,2.29-4c0-1.47-1-2.06-2.29-1.33A5.07,5.07,0,0,0,114.69,205.73Z"/><path class="cls-34" d="M114.52,205.83a5.44,5.44,0,0,1,2.47-4.28c1.36-.79,2.47-.15,2.47,1.43a5.45,5.45,0,0,1-2.47,4.27C115.62,208,114.52,207.4,114.52,205.83Zm.35-.21c0,1.35.95,1.9,2.12,1.23a4.71,4.71,0,0,0,2.11-3.67c0-1.35-.95-1.9-2.11-1.22A4.68,4.68,0,0,0,114.87,205.62Z"/><path class="cls-33" d="M105.08,211.28c0,1.46,1,2.05,2.29,1.32a5.05,5.05,0,0,0,2.29-4c0-1.46-1-2.06-2.29-1.33A5.07,5.07,0,0,0,105.08,211.28Z"/><path class="cls-34" d="M104.9,211.38a5.49,5.49,0,0,1,2.47-4.28c1.36-.79,2.47-.15,2.47,1.43a5.49,5.49,0,0,1-2.47,4.28C106,213.59,104.9,213,104.9,211.38Zm.35-.2c0,1.34,1,1.89,2.12,1.22a4.69,4.69,0,0,0,2.12-3.67c0-1.35-.95-1.9-2.12-1.22A4.68,4.68,0,0,0,105.25,211.18Z"/><path class="cls-33" d="M95.46,216.83c0,1.46,1,2,2.3,1.32a5.08,5.08,0,0,0,2.29-4c0-1.46-1-2.06-2.29-1.32A5.06,5.06,0,0,0,95.46,216.83Z"/><path class="cls-34" d="M95.29,216.93a5.46,5.46,0,0,1,2.47-4.28c1.36-.78,2.47-.14,2.47,1.43a5.49,5.49,0,0,1-2.47,4.28C96.39,219.14,95.29,218.5,95.29,216.93Zm.35-.2c0,1.34,1,1.89,2.12,1.22a4.69,4.69,0,0,0,2.11-3.67c0-1.35-1-1.89-2.11-1.22A4.68,4.68,0,0,0,95.64,216.73Z"/><path class="cls-33" d="M85.85,222.38c0,1.46,1,2.06,2.29,1.32a5.05,5.05,0,0,0,2.29-4c0-1.46-1-2-2.29-1.32A5.05,5.05,0,0,0,85.85,222.38Z"/><path class="cls-34" d="M85.67,222.48a5.49,5.49,0,0,1,2.47-4.28c1.36-.78,2.47-.14,2.47,1.43a5.49,5.49,0,0,1-2.47,4.28C86.78,224.69,85.67,224.05,85.67,222.48Zm.35-.2c0,1.35,1,1.89,2.12,1.22a4.68,4.68,0,0,0,2.12-3.67c0-1.34-1-1.89-2.12-1.22A4.69,4.69,0,0,0,86,222.28Z"/><polygon class="cls-36" points="157.83 207.17 144.66 226.59 94.55 255.52 79.02 257.83 79.02 242.56 188.47 179.37 184.29 184.84 157.83 207.17"/><path class="cls-37" d="M145.48,212.47c0,1.46,1,2.05,2.29,1.32a5.06,5.06,0,0,0,2.3-4c0-1.46-1-2.06-2.3-1.32A5.08,5.08,0,0,0,145.48,212.47Z"/><path class="cls-38" d="M145.3,212.57a5.49,5.49,0,0,1,2.47-4.28c1.36-.78,2.47-.14,2.47,1.43a5.49,5.49,0,0,1-2.47,4.28C146.41,214.78,145.3,214.14,145.3,212.57Zm.35-.2c0,1.34.95,1.89,2.12,1.22a4.68,4.68,0,0,0,2.12-3.67c0-1.35-.95-1.89-2.12-1.22A4.68,4.68,0,0,0,145.65,212.37Z"/><path class="cls-39" d="M135.86,218c0,1.46,1,2.06,2.3,1.32a5.08,5.08,0,0,0,2.29-4c0-1.46-1-2.05-2.29-1.32A5.06,5.06,0,0,0,135.86,218Z"/><path class="cls-38" d="M135.69,218.12a5.46,5.46,0,0,1,2.47-4.28c1.36-.78,2.47-.14,2.47,1.43a5.49,5.49,0,0,1-2.47,4.28C136.79,220.33,135.69,219.69,135.69,218.12Zm.35-.2c0,1.35,1,1.89,2.12,1.22a4.69,4.69,0,0,0,2.11-3.67c0-1.34-1-1.89-2.11-1.22A4.69,4.69,0,0,0,136,217.92Z"/><path class="cls-40" d="M126.25,223.57c0,1.46,1,2.06,2.29,1.33a5.07,5.07,0,0,0,2.29-4c0-1.46-1-2-2.29-1.32A5.05,5.05,0,0,0,126.25,223.57Z"/><path class="cls-38" d="M126.07,223.67a5.45,5.45,0,0,1,2.47-4.27c1.36-.79,2.47-.15,2.47,1.42a5.49,5.49,0,0,1-2.47,4.28C127.18,225.89,126.07,225.25,126.07,223.67Zm.35-.2c0,1.35,1,1.9,2.12,1.22a4.68,4.68,0,0,0,2.12-3.66c0-1.35-.95-1.9-2.12-1.23A4.69,4.69,0,0,0,126.42,223.47Z"/><path class="cls-41" d="M116.63,229.12c0,1.47,1,2.06,2.3,1.33a5.08,5.08,0,0,0,2.29-4c0-1.46-1-2.05-2.29-1.32A5.06,5.06,0,0,0,116.63,229.12Z"/><path class="cls-38" d="M116.46,229.22a5.43,5.43,0,0,1,2.47-4.27c1.36-.79,2.47-.15,2.47,1.42a5.47,5.47,0,0,1-2.47,4.28C117.56,231.44,116.46,230.8,116.46,229.22Zm.35-.2c0,1.35,1,1.9,2.12,1.22a4.69,4.69,0,0,0,2.11-3.66c0-1.35-1-1.9-2.11-1.23A4.69,4.69,0,0,0,116.81,229Z"/><path class="cls-42" d="M107,234.67c0,1.47,1,2.06,2.29,1.33a5.05,5.05,0,0,0,2.29-4c0-1.47-1-2.06-2.29-1.33A5.05,5.05,0,0,0,107,234.67Z"/><path class="cls-38" d="M106.84,234.78a5.45,5.45,0,0,1,2.47-4.28c1.36-.79,2.47-.15,2.47,1.42a5.45,5.45,0,0,1-2.47,4.28C108,237,106.84,236.35,106.84,234.78Zm.35-.21c0,1.35,1,1.9,2.12,1.22a4.66,4.66,0,0,0,2.12-3.66c0-1.35-1-1.9-2.12-1.22A4.66,4.66,0,0,0,107.19,234.57Z"/><polygon class="cls-43" points="57.85 230.26 79.02 242.56 78.99 246.13 57.8 234.25 57.85 230.26"/><polygon class="cls-30" points="57.83 232.44 79.01 244.73 79.05 256.88 57.87 244.57 57.83 232.44"/><polygon class="cls-44" points="57.83 233.26 79.02 245.55 79.06 257.26 57.88 244.94 57.83 233.26"/><g class="cls-35"><path class="cls-45" d="M103.08,243.74,78,258.24v-12.5l22.18-12.8c2.63-1.52,4.76-.28,4.76,2.75v4.89A4,4,0,0,1,103.08,243.74Z"/><path class="cls-26" d="M77.61,245.54l22.53-13c2.82-1.63,5.11-.31,5.11,3v4.89a4.83,4.83,0,0,1-2.17,3.77l-25.47,14.7Zm.71.41v11.68l24.76-14.3a3.26,3.26,0,0,0,1.47-2.54V235.9c0-2.81-2-4-4.41-2.55Z"/></g><polygon class="cls-43" points="167.31 167.07 188.47 179.37 79.02 242.56 57.85 230.26 167.31 167.07"/><g class="cls-46"><path class="cls-47" d="M301.58,65.33a9.22,9.22,0,0,1-.31,2.88l-.09.31a8,8,0,0,1-1.68,3.06h0C250.3,129.52,152.43,191.83,90.42,222.31,47,243.64,24,242.59,14.86,235a6.58,6.58,0,0,1-3.12-.8l1,1.7c9.72,11.19,41.14,21.67,87.63,2.57,67.72-27.82,165-94.09,201.66-162.91a7.54,7.54,0,0,0,1-4A16.05,16.05,0,0,0,301.58,65.33Z"/></g><path class="cls-48" d="M289.72,78.87v56.29S264,129.08,264,92.12Z"/><path class="cls-49" d="M271,57.42,234.24,0s-11.52,31.69,9.87,66.17C243.45,66,271,57.42,271,57.42Z"/><ellipse class="cls-50" cx="75.38" cy="186.42" rx="28.7" ry="49.7" transform="translate(-83.11 62.67) rotate(-30)"/><polygon class="cls-51" points="9.87 211.66 26.89 235.23 98.47 207.73 58.75 167.79 9.87 211.66"/><path class="cls-52" d="M53.71,161.09C99.9,125.63,203.46,79.57,290.4,54.29h0a6,6,0,0,1,3.77-.17l.35.1a9.3,9.3,0,0,1,3.12,1.66,16.32,16.32,0,0,0-4.82-4.52,6.83,6.83,0,0,0-4.91-1h0C188.39,64.73,83.79,106.13,42.39,142.69-4.67,184.24,5.12,220,5.12,220l1,1.71C8,216.38,13.49,192,53.71,161.09Z"/><path class="cls-53" d="M65,179.48c51.25-34.12,153.49-85.06,227.85-121.23h0A8.85,8.85,0,0,1,296,57.12l.26,0a5.49,5.49,0,0,1,2.31.12c-.28-.45-.57-.89-.89-1.32a9.3,9.3,0,0,0-3.12-1.66l-.35-.1a6,6,0,0,0-3.77.17h0C203.46,79.57,99.9,125.63,53.71,161.09,13.49,192,8,216.38,6.09,221.73l2.28,4C12.86,225.2,23,207.49,65,179.48Z"/><path class="cls-54" d="M297.75,60.12c-.65.65-1.49,1.37-2.37,2.09h0c-61.78,47.06-162.46,103.19-219,135.66-37.91,21.76-54.89,32-63.15,31.71,9.12,7.61,32.18,8.65,75.56-12.67,62-30.48,159.88-92.79,209.09-150.74h0a8.05,8.05,0,0,0,1.68-3.05l.08-.32a9.45,9.45,0,0,0,.32-2.87c-.23-.52-.48-1-.75-1.55a7.41,7.41,0,0,1-1.27,1.56Z"/><path class="cls-55" d="M300,59.93a9.45,9.45,0,0,1-.32,2.87l-.08.32a8.05,8.05,0,0,1-1.68,3.05h0c-49.21,58-147.08,120.26-209.09,150.74-43.38,21.32-66.44,20.28-75.56,12.67a6.73,6.73,0,0,1-3.12-.8l1,1.7c9.71,11.19,41.13,21.67,87.62,2.57,67.72-27.82,165-94.09,201.67-162.91a7.66,7.66,0,0,0,1-4A16.05,16.05,0,0,0,300,59.93Z"/><path class="cls-56" d="M11.63,228a12.92,12.92,0,0,0,1.59,1.54c8.26.28,25.24-10,63.15-31.71,56.55-32.47,157.23-88.6,219-135.66h0c.88-.72,1.72-1.44,2.37-2.09l.18-.18a7.41,7.41,0,0,0,1.27-1.56c-.21-.4-.43-.8-.67-1.18a5.49,5.49,0,0,0-2.31-.12l-.26,0a8.85,8.85,0,0,0-3.07,1.13h0C218.53,94.42,116.29,145.36,65,179.48,23,207.49,12.86,225.2,8.37,225.74l1.73,3a6.73,6.73,0,0,0,3.12.8A12.92,12.92,0,0,1,11.63,228Z"/><ellipse class="cls-57" cx="14.65" cy="221.62" rx="8.24" ry="14.27" transform="translate(-108.85 37.02) rotate(-30)"/><path class="cls-58" d="M1.44,229.84a.26.26,0,0,0,.15-.07.21.21,0,0,0,.14-.07.2.2,0,0,0,.14-.06.27.27,0,0,0,.14-.07.27.27,0,0,0,.14-.07.23.23,0,0,0,.14-.07.17.17,0,0,0,.14-.07.25.25,0,0,0,.15-.06.27.27,0,0,0,.14-.07.27.27,0,0,0,.14-.07.27.27,0,0,0,.14-.07.19.19,0,0,0,.14-.07.2.2,0,0,0,.14-.06.26.26,0,0,0,.15-.07.27.27,0,0,0,.14-.07.27.27,0,0,0,.14-.07.27.27,0,0,0,.14-.07.22.22,0,0,0,.14-.06.35.35,0,0,0,.15-.07.27.27,0,0,0,.14-.07.27.27,0,0,0,.14-.07.27.27,0,0,0,.14-.07.22.22,0,0,0,.14-.06.31.31,0,0,0,.14-.07.26.26,0,0,0,.15-.07.27.27,0,0,0,.14-.07.27.27,0,0,0,.14-.07.35.35,0,0,0,.14-.06.31.31,0,0,0,.14-.07.41.41,0,0,0,.15-.07.27.27,0,0,0,.14-.07.27.27,0,0,0,.14-.07.35.35,0,0,0,.14-.06l.14-.07a.41.41,0,0,0,.15-.07.27.27,0,0,0,.14-.07.27.27,0,0,0,.14-.07.35.35,0,0,0,.14-.06l.14-.07.14-.07a.35.35,0,0,0,.15-.07A.27.27,0,0,0,7.4,227a.27.27,0,0,0,.14-.07.35.35,0,0,0,.14-.06l.14-.07a.31.31,0,0,0,.14-.07.35.35,0,0,0,.15-.07.27.27,0,0,0,.14-.07.35.35,0,0,0,.14-.06l.14-.07.14-.07a.41.41,0,0,0,.15-.07.27.27,0,0,0,.14-.07.27.27,0,0,0,.14-.07.35.35,0,0,0,.14-.06l.14-.07a.37.37,0,0,0,.14-.07.41.41,0,0,0,.15-.07.27.27,0,0,0,.14-.07.35.35,0,0,0,.14-.06l.14-.07.14-.07a.37.37,0,0,0,.14-.07.41.41,0,0,0,.15-.07.35.35,0,0,0,.14-.06l.14-.07.14-.07.14-.07a.37.37,0,0,0,.14-.07.3.3,0,0,0,.15-.07.35.35,0,0,0,.14-.06l.14-.07.14-.07a.37.37,0,0,0,.14-.07.37.37,0,0,0,.14-.07.39.39,0,0,0,.15-.06l.14-.07.14-.07.14-.07a.37.37,0,0,0,.14-.07.39.39,0,0,0,.15-.06l.14-.07.14-.07.14-.07a.37.37,0,0,0,.14-.07.37.37,0,0,0,.14-.07.39.39,0,0,0,.15-.06l.14-.07.14-.07.14-.07a.37.37,0,0,0,.14-.07.35.35,0,0,0,.14-.06l.15-.07.14-.07.14-.07a.37.37,0,0,0,.14-.07.59.59,0,0,0,.14-.06.74.74,0,0,0,.44-.78,2.5,2.5,0,0,0-1.12-2,.76.76,0,0,0-.89,0,.57.57,0,0,0-.13.08.6.6,0,0,0-.13.09l-.14.08-.13.09a.51.51,0,0,0-.13.09.57.57,0,0,0-.13.08.38.38,0,0,0-.13.09.57.57,0,0,0-.13.08.42.42,0,0,0-.14.09l-.13.08a.6.6,0,0,0-.13.09.57.57,0,0,0-.13.08.6.6,0,0,0-.13.09.38.38,0,0,0-.13.09l-.14.08a.51.51,0,0,0-.13.09.57.57,0,0,0-.13.08.38.38,0,0,0-.13.09.57.57,0,0,0-.13.08.38.38,0,0,0-.13.09l-.14.08a1,1,0,0,0-.13.09.38.38,0,0,0-.13.09.35.35,0,0,0-.13.08.38.38,0,0,0-.13.09.57.57,0,0,0-.13.08.42.42,0,0,0-.14.09l-.13.08a.38.38,0,0,0-.13.09.57.57,0,0,0-.13.08.38.38,0,0,0-.13.09.41.41,0,0,0-.13.08.42.42,0,0,0-.14.09.51.51,0,0,0-.13.09.35.35,0,0,0-.13.08.38.38,0,0,0-.13.09.57.57,0,0,0-.13.08.3.3,0,0,0-.13.09l-.14.08a.38.38,0,0,0-.13.09.57.57,0,0,0-.13.08.38.38,0,0,0-.13.09.38.38,0,0,0-.13.09.22.22,0,0,0-.13.08.42.42,0,0,0-.14.09.35.35,0,0,0-.13.08.38.38,0,0,0-.13.09.57.57,0,0,0-.13.08.3.3,0,0,0-.13.09l-.14.08a.38.38,0,0,0-.13.09.38.38,0,0,0-.13.09.26.26,0,0,0-.13.08.3.3,0,0,0-.13.09.41.41,0,0,0-.13.08.42.42,0,0,0-.14.09.57.57,0,0,0-.13.08.38.38,0,0,0-.13.09.38.38,0,0,0-.13.09.22.22,0,0,0-.13.08.42.42,0,0,0-.14.09.35.35,0,0,0-.13.08.38.38,0,0,0-.13.09.57.57,0,0,0-.13.08.3.3,0,0,0-.13.09.42.42,0,0,0-.14.09.26.26,0,0,0-.13.08.38.38,0,0,0-.13.09.26.26,0,0,0-.13.08.3.3,0,0,0-.13.09.39.39,0,0,0-.14.08.38.38,0,0,0-.13.09.38.38,0,0,0-.13.09.26.26,0,0,0-.13.08.3.3,0,0,0-.13.09.22.22,0,0,0-.13.08.34.34,0,0,0-.14.09.26.26,0,0,0-.13.08.38.38,0,0,0-.13.09.28.28,0,0,0-.13.09.22.22,0,0,0-.13.08.24.24,0,0,0-.13.09.25.25,0,0,0-.14.08.38.38,0,0,0-.13.09.26.26,0,0,0-.13.08.3.3,0,0,0-.13.09.2.2,0,0,0-.13.09A.22.22,0,0,0,2,228a.22.22,0,0,0-.14.09.26.26,0,0,0-.13.08.22.22,0,0,0-.13.09.22.22,0,0,0-.13.08.24.24,0,0,0-.13.09.22.22,0,0,0-.13.08.25.25,0,0,0-.13.09.18.18,0,0,0-.13.09.25.25,0,0,0-.14.08.22.22,0,0,0-.13.09.22.22,0,0,0-.13.08.2.2,0,0,0-.13.09.18.18,0,0,0-.13.09.14.14,0,0,0-.13.08c-.12,0-.19.12-.19.28a.86.86,0,0,0,.4.69.24.24,0,0,0,.33,0,.26.26,0,0,0,.15-.07A.21.21,0,0,0,1,230a.17.17,0,0,0,.14-.07.17.17,0,0,0,.14-.06A.21.21,0,0,0,1.44,229.84Z"/><path class="cls-59" d="M292,69.57,332.5,52.86s-19.43,26.19-58.42,36C274.08,89.53,292,69.57,292,69.57Z"/><path class="cls-60" d="M131.91,116.13a1.59,1.59,0,0,0-.94-1.34l-2.71-1.57a5.08,5.08,0,0,0-4.56,0l-7.15,4.13a1.57,1.57,0,0,0-.94,1.35V121a1.57,1.57,0,0,0,.94,1.34l2.71,1.57a5.08,5.08,0,0,0,4.56,0l7.15-4.13a1.59,1.59,0,0,0,.94-1.35v-2.29Z"/><path class="cls-61" d="M131,117.42l-7.15,4.13a5.08,5.08,0,0,1-4.56,0L116.55,120c-1.26-.72-1.26-1.9,0-2.63l7.15-4.13a5.08,5.08,0,0,1,4.56,0l2.71,1.57A1.39,1.39,0,0,1,131,117.42Z"/><path class="cls-60" d="M128,115.86a2.05,2.05,0,0,0-1.21-1.71,6.5,6.5,0,0,0-5.86,0,2.07,2.07,0,0,0-1.21,1.71v1.49a2.07,2.07,0,0,0,1.21,1.71,6.5,6.5,0,0,0,5.86,0,2.05,2.05,0,0,0,1.21-1.71v-1.49Z"/><ellipse class="cls-61" cx="123.83" cy="115.84" rx="4.14" ry="2.39"/><path class="cls-62" d="M124.86,115.62a52.95,52.95,0,0,0,0-1.26.39.39,0,0,0,0-.43.38.38,0,0,0,0-.42.38.38,0,0,0,0-.42,17.65,17.65,0,0,1,0-.84.39.39,0,0,0,0-.43.35.35,0,0,0,0-.42.36.36,0,0,0,0-.42.38.38,0,0,0,0-.42.34.34,0,0,0,0-.42,18.28,18.28,0,0,1,0-.85.35.35,0,0,0,0-.42.34.34,0,0,0,0-.42,18.28,18.28,0,0,0,0-.85.35.35,0,0,0,0-.42,17.65,17.65,0,0,1,0-.84,768.19,768.19,0,0,1,0-.85,17.65,17.65,0,0,1,0-.84,768.19,768.19,0,0,1,0-.85,26.47,26.47,0,0,1,0-1.26.32.32,0,0,0,0-.42.33.33,0,0,0,0-.43,17.65,17.65,0,0,1,0-.84.32.32,0,0,0,0-.42,768.19,768.19,0,0,1,0-.85,17.65,17.65,0,0,0,0-.84.3.3,0,0,0,0-.42.31.31,0,0,0,0-.43,17.65,17.65,0,0,1,0-.84.3.3,0,0,0,0-.42.29.29,0,0,0,0-.42.29.29,0,0,0,0-.43.29.29,0,0,0,0-.42.28.28,0,0,0,0-.42.28.28,0,0,0,0-.42.29.29,0,0,0,0-.43.27.27,0,0,0,0-.42.28.28,0,0,0,0-.42.28.28,0,0,0,0-.42.27.27,0,0,0,0-.42c.16-.16.13-.37-.11-.51a1.14,1.14,0,0,0-1,0c-.23.14-.27.35-.11.51a.27.27,0,0,0,0,.42.28.28,0,0,0,0,.42,17.65,17.65,0,0,1,0,.84.29.29,0,0,0,0,.43,52.95,52.95,0,0,1,0,1.26.29.29,0,0,0,0,.43,17.65,17.65,0,0,0,0,.84.28.28,0,0,0,0,.42.3.3,0,0,0,0,.42.31.31,0,0,0,0,.43.3.3,0,0,0,0,.42.31.31,0,0,0,0,.42.3.3,0,0,0,0,.42.31.31,0,0,0,0,.43.32.32,0,0,0,0,.42.31.31,0,0,0,0,.42.3.3,0,0,0,0,.42.32.32,0,0,0,0,.42.33.33,0,0,0,0,.43,17.65,17.65,0,0,1,0,.84,14790003905167.17,14790003905167.17,0,0,1,0,.84.35.35,0,0,0,0,.43.33.33,0,0,0,0,.42.32.32,0,0,0,0,.42.33.33,0,0,0,0,.42.36.36,0,0,0,0,.43,17.65,17.65,0,0,1,0,.84,14790003905209.73,14790003905209.73,0,0,0,0,.84.36.36,0,0,0,0,.43.34.34,0,0,0,0,.42.34.34,0,0,0,0,.42,56,56,0,0,1,0,1.27,17.65,17.65,0,0,0,0,.84.35.35,0,0,0,0,.42.38.38,0,0,0,0,.42.39.39,0,0,0,0,.43.36.36,0,0,0,0,.42,14790003905167,14790003905167,0,0,1,0,.84.36.36,0,0,0,0,.42.39.39,0,0,0,0,.43,14790003905167,14790003905167,0,0,1,0,.84.4.4,0,0,0,0,.42c-.14.23-.06.49.25.67a1.72,1.72,0,0,0,1.56,0C124.92,116.11,125,115.85,124.86,115.62Z"/><polygon class="cls-63" points="123.75 92.77 234.14 0.7 234.35 0.95 124.93 92.21 332.26 52.88 332.32 53.2 123.75 92.77"/><path class="cls-64" d="M237.42,130l-.08,0-.07-.05-.08,0-.07,0-.08-.05-.07,0-.08-.05-.07,0-.07,0-.08,0-.07,0-.08,0-.07,0-.08,0-.07,0-.08,0-.07,0-.07,0-.08-.05-.07,0-.08,0-.07-.05-.08,0-.07-.05-.08,0-.07,0-.07-.05-.08,0-.07,0-.08-.05-.07,0-.08,0-.07,0-.08,0-.07,0-.07,0-.08,0-.07,0-.08,0-.07,0-.08,0-.07,0-.08,0-.07,0-.07,0-.08,0-.07,0-.08,0-.07,0-.08-.05-.07,0-.07,0-.08,0-.07,0a1.25,1.25,0,0,1-.57-1.19,4,4,0,0,1,1.81-3.15,1.25,1.25,0,0,1,1.33-.1l.07,0,.08,0,.07,0,.07,0,.08,0,.07,0,.08,0,.07,0,.08,0,.07,0,.08,0,.07,0,.07,0,.08,0,.07,0,.08,0,.07,0,.08,0,.07,0,.07,0,.08,0,.07,0,.08,0,.07,0,.08,0,.07,0,.08,0,.07,0,.07,0,.08,0,.07,0,.08,0,.07.05.08,0,.07,0,.08,0,.07,0,.07,0,.08,0,.07,0,.08,0,.07,0,.08,0,.07,0,.08,0,.07,0a.18.18,0,0,1,.07.05l.08,0,.07,0,.08,0,.07,0,.08,0,.07,0,.08,0,.07,0,.07.05a1.24,1.24,0,0,1,.57,1.19,4,4,0,0,1-1.81,3.15,1.28,1.28,0,0,1-1.33.1l-.07-.05Z"/><path class="cls-4" d="M237.07,129c0,1.16.81,1.62,1.82,1.05a4,4,0,0,0,1.81-3.15c0-1.16-.81-1.63-1.81-1.05A4,4,0,0,0,237.07,129Z"/><path class="cls-65" d="M234.89,132.43c0,7.55,5.32,16.76,11.86,20.54,3.31,1.91,6.31,2.07,8.46.78l.15-.09.16-.09.15-.09.15-.09.15-.08.16-.09.15-.09.15-.09.15-.09a.8.8,0,0,0,.16-.08l.15-.09.15-.09.16-.09.15-.09.15-.08.15-.09.16-.09.15-.09.15-.09.15-.09.16-.08.15-.09.15-.09.15-.09.16-.09.15-.08.15-.09.15-.09.16-.09.15-.09a1.19,1.19,0,0,0,.15-.09l.15-.08.16-.09.15-.09.15-.09.15-.09a.8.8,0,0,0,.16-.08l.15-.09.15-.09.15-.09.16-.09.15-.08.15-.09.16-.09c2.19-1.22,3.55-3.89,3.55-7.72,0-7.55-5.32-16.76-11.86-20.54-3.31-1.91-6.31-2.07-8.46-.78l-.15.09-.16.09-.15.09-.15.09-.15.08-.16.09-.15.09-.15.09-.15.09-.16.08-.15.09-.15.09-.15.09-.16.09a1.19,1.19,0,0,0-.15.09l-.15.08-.15.09-.16.09-.15.09-.15.09-.16.08-.15.09-.15.09-.15.09-.16.09-.15.08-.15.09-.15.09-.16.09-.15.09-.15.09-.15.08-.16.09-.15.09-.15.09-.15.09-.16.08-.15.09-.15.09-.15.09-.16.09-.15.08-.15.09-.15.09C236.25,125.93,234.89,128.6,234.89,132.43Zm22,16.5a11,11,0,0,1-3.29-1.3c-5.89-3.4-10.67-11.69-10.67-18.48a10.88,10.88,0,0,1,.52-3.5,11,11,0,0,1,3.28,1.3c5.89,3.4,10.67,11.69,10.67,18.48A11.18,11.18,0,0,1,256.91,148.93Z"/><path class="cls-6" d="M247.37,137.53c-.4-.37-4.85-4.19-6.94-8.11s-.57-4.83.78-3.93,7,11.18,7,11.18Z"/><path class="cls-6" d="M249.13,137.92c.41.37,4.85,4.19,6.95,8.11s.56,4.82-.79,3.93-7-11.18-7-11.18Z"/><path class="cls-6" d="M248.53,138.9c-.13.39-1.22,4.9-3.56,6s-3.9-1.61-3.8-3.11,6.21-4.45,6.21-4.45Z"/><path class="cls-6" d="M248,136.54c.13-.39,1.22-4.89,3.56-6s3.9,1.6,3.8,3.1-6.21,4.45-6.21,4.45Z"/><g class="cls-7"><path class="cls-8" d="M248.26,138.75c-.24.26-2.67,3.34-5.55,3.12s-3.88-3-3.36-4.17,8.07-.73,8.07-.73Z"/></g><g class="cls-9"><g class="cls-10"><path class="cls-8" d="M247.72,138.27a14.76,14.76,0,0,1-7.63-2.55c-3.11-2.38-2.89-4.77-1.78-5s9.31,5.89,9.31,5.89Z"/></g><g class="cls-11"><path class="cls-8" d="M249,138.26c.3.51,3.79,5.94,4.62,9.92s-1.24,3.6-2.4,2.13-3.45-12-3.45-12Z"/></g><g class="cls-11"><path class="cls-8" d="M248.73,138.69c.06.52,1,6.24-.16,8.91s-3.26.68-3.76-1.06,2.53-8.9,2.53-8.9Z"/></g><g class="cls-12"><path class="cls-13" d="M248.44,136.76c.3-.16,3.4-2.27,6.46-1.32s3.69,3.73,3,4.61-8.78-1.48-8.78-1.48Z"/></g><g class="cls-10"><path class="cls-8" d="M247.32,137.17c-.34-.48-4.2-5.54-5.43-9.6s.72-4,2-2.72,4.59,12,4.59,12Z"/></g><g class="cls-14"><path class="cls-8" d="M247.37,136.8c-.09-.55-1.35-6.63-.47-9.82s2.88-1.45,3.44.35-1.65,10.32-1.65,10.32Z"/><path class="cls-8" d="M248.83,137.25a18.17,18.17,0,0,1,7.77,3.7c3,2.75,2.55,5,1.35,5s-9.19-7.1-9.19-7.1Z"/></g></g><path class="cls-66" d="M256.15,146.15c-2-3.82-6.32-7.54-6.91-8.08.86-.42,6-3,6.09-4.39s-1.46-4.17-3.8-3.1c-2.17,1-3.26,4.93-3.51,5.81-.9-1.63-5.59-10.09-6.81-10.9s-2.88,0-.78,3.93c1.94,3.63,5.89,7.17,6.78,8-1,.48-5.94,3-6,4.37-.1,1.5,1.46,4.17,3.8,3.11,2.17-1,3.27-4.94,3.51-5.82.69,1.26,5.63,10.19,6.88,11S258.24,150.07,256.15,146.15Zm-7-8-.65.7-1-1.4.65-.7Z"/><path class="cls-16" d="M248.65,138.5c.4.37,4.84,4.19,6.94,8.11s.56,4.83-.79,3.93-7-11.18-7-11.18Z"/><path class="cls-16" d="M248,139.36c-.13.39-1.21,4.9-3.56,6s-3.9-1.6-3.79-3.1,6.2-4.45,6.2-4.45Z"/><path class="cls-16" d="M247.22,137c.12-.39,1.21-4.89,3.55-6s3.9,1.6,3.8,3.1-6.2,4.45-6.2,4.45Z"/><path class="cls-67" d="M246.81,138.18c-.4-.37-4.85-4.19-6.94-8.11s-.56-4.83.78-3.93,7,11.18,7,11.18Z"/><path class="cls-68" d="M248.65,138.5c.4.37,4.84,4.19,6.94,8.11s.56,4.83-.79,3.93-7-11.18-7-11.18Z"/><path class="cls-69" d="M248,139.36c-.13.39-1.21,4.9-3.56,6s-3.9-1.6-3.79-3.1,6.2-4.45,6.2-4.45Z"/><path class="cls-70" d="M247.22,137.2c.12-.4,1.21-4.9,3.55-6s3.9,1.61,3.8,3.1-6.2,4.46-6.2,4.46Z"/><path class="cls-21" d="M249.9,138.48c0,1.05-.74,1.48-1.65,1a3.65,3.65,0,0,1-1.65-2.86c0-1,.74-1.47,1.65-.95A3.66,3.66,0,0,1,249.9,138.48Z"/><path class="cls-71" d="M250,138.94c0,1.32-.92,1.85-2,1.19a4.53,4.53,0,0,1-2.06-3.56c0-1.31.92-1.85,2.06-1.19A4.56,4.56,0,0,1,250,138.94Z"/><path class="cls-72" d="M247.63,136.31l-1.27-1a4.56,4.56,0,0,0-1.78,2.49l1.94,2.9a5.12,5.12,0,0,0,2.79-.39C250.7,139.05,247.63,136.31,247.63,136.31Z"/><path class="cls-24" d="M247.38,139.71c0,.89-.63,1.26-1.41.81a3.11,3.11,0,0,1-1.41-2.44c0-.89.63-1.26,1.41-.81A3.11,3.11,0,0,1,247.38,139.71Z"/><path class="cls-73" d="M257.42,145.43c0-6.79-4.78-15.08-10.67-18.48a10.86,10.86,0,0,0-3.14-1.26,12.13,12.13,0,0,0-2.49-2.52l.07,0,.15-.08.16-.09.15-.09.15-.09.15-.09.16-.08.15-.09.15-.09.16-.09.15-.09.15-.08a1.19,1.19,0,0,1,.15-.09l.16-.09.15-.09.15-.09.15-.09.16-.08.15-.09.15-.09.15-.09.16-.09.15-.08.15-.09.15-.09.16-.09.15-.09c2.15-1.29,5.15-1.13,8.46.78,6.54,3.78,11.86,13,11.86,20.54,0,3.83-1.36,6.5-3.55,7.72l-.16.09-.15.09-.15.08-.16.09-.15.09-.15.09-.15.09a.8.8,0,0,1-.16.08l-.15.09-.15.09-.15.09-.16.09-.15.08a1.19,1.19,0,0,1-.15.09l-.15.09-.16.09-.15.09-.15.09-.15.08-.14.08-.1-.14a25.59,25.59,0,0,1-1.81-2.79A11.18,11.18,0,0,0,257.42,145.43Z"/><path class="cls-24" d="M234.89,132.43c0-7.56,5.32-10.63,11.86-6.85s11.86,13,11.86,20.54-5.32,10.63-11.86,6.85S234.89,140,234.89,132.43Zm1.19.68c0,6.8,4.79,15.09,10.67,18.48s10.67.64,10.67-6.16-4.78-15.08-10.67-18.48S236.08,126.32,236.08,133.11Z"/></g></g></g></svg>